<?xml version="1.0" encoding="UTF-8"?>
<svg id="_图层_1" data-name="图层 1" xmlns="http://www.w3.org/2000/svg" viewBox="0 0 2220.69 1540.41">
  <defs>
    <style>
      .cls-1 {
        fill: #fff;
      }

      .cls-2 {
        fill: #2e4e7e;
      }

      .cls-3 {
        fill: #e6d8ba;
      }

      .cls-4 {
        fill: #4b9ace;
      }

      .cls-5 {
        fill: #7468a0;
      }

      .cls-6 {
        fill: #6fbb16;
      }

      .cls-7 {
        fill: #1779ab;
      }

      .cls-8 {
        fill: #6fa3b0;
      }

      .cls-9 {
        fill: #ffac29;
      }

      .cls-10 {
        fill: #ffc23f;
      }

      .cls-11 {
        fill: #4ca527;
      }

      .cls-12 {
        fill: #574e78;
      }

      .cls-13 {
        fill: #272235;
      }

      .cls-14 {
        fill: #4a4266;
      }

      .cls-15 {
        fill: #e0b24f;
      }

      .cls-16 {
        fill: #195d85;
      }

      .cls-17 {
        fill: #43a02c;
      }

      .cls-18 {
        fill: #d4b87e;
      }

      .cls-19 {
        fill: #4f3a15;
      }

      .cls-20 {
        fill: #386687;
      }

      .cls-21 {
        fill: #edecf3;
      }

      .cls-22 {
        fill: #dabf86;
      }

      .cls-23 {
        fill: #c8c4da;
      }

      .cls-24 {
        fill: #d2ebf7;
      }

      .cls-25 {
        fill: #e1deea;
      }

      .cls-26 {
        fill: #1777a8;
      }

      .cls-27 {
        fill: #5fa6d4;
      }

      .cls-28 {
        fill: #dbb76b;
      }

      .cls-29 {
        fill: #504578;
      }

      .cls-30 {
        fill: #d3b575;
      }

      .cls-31 {
        fill: #24655a;
      }

      .cls-32 {
        fill: #d5b97b;
      }

      .cls-33 {
        fill: #057748;
      }

      .cls-34 {
        fill: #004979;
      }

      .cls-35 {
        fill: #b6e8e9;
      }

      .cls-36 {
        fill: #70b0d9;
      }
    </style>
  </defs>
  <path class="cls-1" d="m160.16,82.77c1.21-8.26,5.45-25.12,16.12-16.22,9.52,12.59-6.6,17.74-16.12,16.22Z"/>
  <path class="cls-1" d="m170.94,121.83c21.84-7.67,36.41,25.77,24.42,43.22-10.18,20.96-43.84,12.94-47.19-9.55-3.41-15.69,8.31-31.15,22.77-33.67Z"/>
  <path class="cls-1" d="m99.83,166.1c7.98,2.05,25.58-.82,22.99,12.82,1.38,14.17-18.54,10.07-26.57,15.11-.17-3.92-.5-11.77-.66-15.64,1.1-3.1,3.19-9.25,4.24-12.3Z"/>
  <path class="cls-1" d="m222.26,187.24c6.66-1.7,20.08-.82,17.77,9.96,2.37,13.94-13.7,8.37-21.4,10.83.94-6.97,2.15-13.94,3.63-20.79Z"/>
  <path class="cls-1" d="m509.97,395.19c25.69-12.06,53.08-22.19,73.26-43.86,15.95-7.55,20.24,12.77,24.31,24.3,24.09,18.04,46.86,39.12,75.63,48.14,4.35,10.13-5.34,17.86-9.63,25.71-2.7,29.05-11.39,59.2-.17,87.49,1.38,17.8-20.35,16.22-31.41,12.77-20.9,9.31-41.31,19.79-61.93,29.69-.22,4.33-.77,13-.99,17.33-6.44,2.11-12.93,3.98-19.36,5.68-8.47-6.21-8.69-17.57-10.12-27.23-17.44-14.58-35.64-27.99-53.96-41.23-10.34,3.63-26.84,7.85-31.9-5.91-5.56-12.53,7.92-19.62,14.63-27,1.65-31.45,8.14-63.54-2.31-94.05,5.5-14.76,23.16-5.33,33.94-11.83Zm-3.19,12.47c-13.97,30.51-16.12,65.18-15.95,98.62.39,13.47,11.88,21.55,21.07,28.69,14.63,10.78,28.66,22.6,44.06,32.21,11.22,7.55,24.53,1.23,35.42-3.81,23.05-11.48,49.56-19.85,63.69-44.39.66-22.84,2.59-45.62,4.68-68.4-3.52-10.07-6.27-20.32-8.8-30.69-14.74-11.19-28.82-23.54-44.55-33.26-11.39-5.21-23.87-6.56-35.7-10.13-21.34,10.25-42.52,20.91-63.91,31.15Z"/>
  <path class="cls-1" d="m261.25,843.65c3.08-7.67,11.5-6.09,17.88-6.91,18.59-.35,37.79-1.93,55.99,3.1,13.75,17.39,25.08,37.77,31.19,59.61-6.33,21.96-20.13,40.35-31.02,59.91-22.33-.35-44.88,1.64-67.1-1.76-16.5-13.53-23.05-36.37-33.33-54.93-15.84.53-32.07-.53-47.52,3.81-12.1,17.22-21.4,37.07-26.84,57.8,5.89,21.26,21.01,38.71,24.31,61.2-19.31-15.75-27.78-40.82-40.43-61.96,1.21-2.58,3.63-7.61,4.84-10.19,10.01-17.92,15.46-39.76,29.98-54.23,17.11-4.39,34.93-3.16,52.42-4.1,10.12-16.92,18.76-34.9,29.65-51.36Zm13.42,1.82c-11.39,16.4-22.5,34.02-27.83,53.76,6.44,18.56,15.84,36.07,27.17,51.77,17.33,2.34,35.97,3.92,52.75-1.82,11.06-15.52,19.86-32.79,27.67-50.3-5.94-18.74-17-34.9-25.74-52.18l-3.96-2.58c-16.72.23-33.5-1.29-50.05,1.35Z"/>
  <path class="cls-13" d="m50.33,40.55c53.79-13,109.18-18.04,163.52-28.28,15.07-1.17,38.28-6.5,45.82,12,22.99,48.02,45.16,96.51,68.26,144.47,3.3,8.78,11.55,21.26,1.6,28.52-37.46,40-75.63,79.41-113.19,119.35-11.33,15.64-32.4,6.5-46.37.29-50.33-27.93-101.15-55.05-150.98-83.92,11-64.07,18.15-128.95,31.35-192.43Zm56.6,7.32c-10.45,3.16-27.67-.35-28.38,15.52-8.36,46.73-14.03,93.99-22.39,140.72-.61,10.42-7.1,26.18,5.56,31.21,41.03,23.95,83.11,46.03,124.47,69.34,16.12-14.87,31.3-30.98,45.65-47.84,23.54-23.6,47.91-46.67,68.75-72.97-19.64-53.41-48.02-102.83-70.57-154.95-41.2,5.45-82.01,13.12-123.09,18.97Z"/>
  <path class="cls-13" d="m571.02,221.03c15.4-9.02,35.31-5.45,49.06,5.5,58.85,44.62,117.54,89.48,176.61,133.81,7.15,5.91,18.04,11.83,14.47,23.6-7.59,84.56-14.63,169.24-22.94,253.74-70.02,35.6-141.08,68.75-211.42,103.59-15.84,9.6-36.41,6.97-50.71-4.63-60.01-45.56-120.01-91.18-180.18-136.45-4.84-4.45-13.09-8.55-10.78-16.92,5.5-80.17,14.36-160.1,20.74-240.16,1.71-7.2-.39-17.92,8.03-20.85,68.75-34.38,138.27-67.05,207.13-101.25Zm10.95,21.32c-51.98,24.89-103.46,51.01-155.6,75.48-12.27,6.09-25.58,10.83-35.86,20.44-6.99,36.13-7.1,73.38-11.11,109.92-2.75,46.67-10.51,93.05-10.62,139.78,18.37,19.85,42.13,32.79,62.7,49.84,39.66,28.87,77.28,61.14,118.25,87.72,14.08-2.93,26.79-10.42,39.71-16.69,55.44-27.46,111.27-54.05,166.82-81.22.99-10.78,2.04-21.49,3.14-32.27,6.77-74.14,15.24-148.16,18.21-222.65-56.93-42.28-112.75-86.14-170.01-127.84l3.96-2.17c-9.74-2.46-20.19-5.91-29.59-.35Z"/>
  <path class="cls-13" d="m108.68,735.02c3.03-10.37,13.59-9.43,21.78-10.01,69.96-1.82,139.98-3.92,209.99-5.5,14.85,1.17,35.53-1.05,42.52,16.69,38.01,68.28,79.09,134.75,115.67,203.85-34.6,76.42-75.41,150.03-113.41,224.81-77.5,2.58-154.99,4.57-232.54,6.5-12.38-.82-29.32.59-35.15-13.88-38.89-68.93-79.59-136.74-117.54-206.19,4.07-14.64,12.1-27.46,18.76-40.82,30.25-58.33,59.46-117.24,89.93-175.45Zm33.17,6.15c-37.02,70.39-73.15,141.37-108.85,212.52,34.16,61.72,70.29,122.1,104.61,183.76,5.17,7.61,9.35,19.91,20.46,17.63,66.22.82,132.39-4.1,198.61-4.74,13.59-23.89,25.96-48.49,38.06-73.26,22.77-43.33,45.05-86.96,67.1-130.65,5.83-8.61-.55-17.92-4.57-25.47-31.35-53.17-61.77-106.93-92.68-160.34l-2.75.23c-3.47-8.55-6.99-17.04-10.45-25.53-69.85,2.23-139.81,1.35-209.55,5.86Z"/>
  <g>
    <path class="cls-2" d="m1948.19,6.64c48.18-10.72,99.77-9.14,146.03,9.66,60.94,24.71,109.18,82.98,122.21,151.32,16.56,78.18-16.28,163.85-77.94,209.3-55.55,43.16-129.42,48.66-194.92,33.91-85.86-20.91-153.45-108.22-151.25-202.85-.94-95.45,68.92-182.3,155.87-201.33Zm27.67,11.65c-78.6,17.22-142.73,92.76-147.13,178.73-6.77,89.48,53.46,176.21,134.09,199.63,50.16,18.04,105.71.64,147.18-31.8,55.28-42.87,85.47-120.64,70.95-192.31-16.67-97.15-112.48-174.22-205.1-154.25Z"/>
    <path class="cls-2" d="m1988.61,230.11c8.69-5.97,17.44-16.81,28.88-10.78,17.38,14.05-3.63,32.44-12.32,44.97,8.8,1.76,18.92,1.17,25.91,8.61-14.14,1.17-28.33,1.05-42.41.59,8.2-15.46,28.33-27.23,25.58-46.61-8.64.76-17.11,2.17-25.63,3.22Z"/>
    <path class="cls-2" d="m1663.17,423.13c47.08-4.63,96.2-1.7,139.81,19.5,50.11,23.31,91.85,67.58,111.27,122.33,20.79,56.45,15.46,122.63-13.31,174.86-31.74,59.2-90.48,99.2-153.18,109.92-47.63,6.68-97.68,5.56-142.89-13.47-56.87-23.25-104.61-73.2-123.48-135.45-18.1-57.39-9.85-122.98,21.07-173.75,34.82-58.68,96.42-96.27,160.71-103.95Zm-1.38,15.87c-82.06,17.98-151.86,94.75-156.86,185.4-7.04,94.11,58.14,183.24,142.4,207.48,87.07,29.4,187.77-22.02,227.54-107.99,21.29-44.86,24.92-98.79,10.12-146.52-28.88-95.69-130.57-160.4-223.19-138.38Z"/>
    <path class="cls-2" d="m1970.68,838.44c40.7-7.91,86.57-3.81,120.29,23.89,32.23,25.71,49.89,71.03,42.46,113.49-6.27,41.52-35.42,77.3-72.22,91.71-22.66,9.72-47.52,8.26-71.39,7.91-42.08.06-83.22-26.59-101.92-66.82-15.13-31.45-15.62-70.33-1.16-102.13,15.4-35.49,48.02-61.08,83.93-68.05Zm10.23,16.63c-41.86,15.23-72.38,61.43-68.26,108.86,2.97,51.3,45.6,96.33,93.89,98.44,53.57-3.51,98.56-59.61,91.74-116.77-4.35-57.45-63.31-111.38-117.37-90.53Z"/>
    <path class="cls-2" d="m1938.4,984.49c.83-21.73-3.8-44.74,4.02-65.53,1.1,10.07,1.93,20.2,2.53,30.33,10.29,0,20.63.06,31.02.12-.22-8.67-.33-17.33-.44-26,1.6.18,4.79.47,6.38.59-.28,18.8-.28,37.6,0,56.39-1.65,0-4.9-.06-6.55-.06.17-8.32.39-16.63.66-24.95h-31.52c-.22,9.78-.33,19.62-.44,29.46-1.43-.06-4.24-.23-5.67-.35Z"/>
    <path class="cls-2" d="m2036.02,926.22c12.87-8.08,30.8-.7,35.37,14.41,8.14,18.62-4.07,46.79-25.47,43.74-26.07-2.05-30.64-45.33-9.9-58.15Zm14.63,52.18c12.71-.88,14.3-17.57,19.64-26.76-6-8.14-8.8-22.19-20.52-22.55-27.5-2.81-26.57,53.29.88,49.31Z"/>
    <path class="cls-2" d="m1992.41,967.33c7.15-1.41,14.36-2.64,21.62-3.81-3.58,9.25-7.48,18.39-11.28,27.52,3.63.18,10.95.59,14.58.76-7.15,1.29-14.36,2.4-21.51,3.22,3.41-9.08,7.81-17.74,11.94-26.53-3.85-.29-11.5-.88-15.35-1.17Z"/>
  </g>
  <path class="cls-35" d="m1975.85,18.3c92.62-19.97,188.43,57.1,205.1,154.25,14.52,71.68-15.68,149.45-70.95,192.31-41.47,32.44-97.02,49.84-147.18,31.8-80.63-23.42-140.86-110.15-134.09-199.63,4.4-85.97,68.53-161.51,147.13-178.73Zm-80.96,127.9c-1.49,37.6-1.54,75.31,0,112.91,19.09-8.84,7.21-35.37,10.34-52.35,17.71-.06,35.48-.06,53.24,0-.06,15.99-.06,31.92-.17,47.84,3.03.35,9.08,1,12.16,1.29.17-35.55.22-71.09-.11-106.58-3.03.35-9.13,1.05-12.16,1.46.17,14.7.22,29.46.39,44.21-17.82.12-35.64.12-53.41-.06-3.03-15.87,8.47-41.17-10.29-48.72Zm173.8,6.03c-41.36,19.5-33.77,102.31,14.69,104.77,38.01,4.63,58.3-44.8,44.61-77.71-7.37-25.47-36.96-38.53-59.29-27.06Zm-80.08,77.89c8.53-1.05,17-2.46,25.63-3.22,2.75,19.38-17.38,31.15-25.58,46.61,14.08.47,28.27.59,42.41-.59-6.99-7.44-17.11-6.85-25.91-8.61,8.69-12.53,29.7-30.92,12.32-44.97-11.44-6.03-20.19,4.8-28.88,10.78Z"/>
  <path class="cls-35" d="m2073.43,162.94c17-10.01,39.11,2.58,43.29,22.08,7.76,23.13-1.21,58.33-27.83,60.55-39.33,1.58-45.82-65.12-15.46-82.63Z"/>
  <path class="cls-35" d="m1980.91,855.07c54.07-20.85,113.03,33.09,117.37,90.53,6.82,57.16-38.17,113.26-91.74,116.77-48.29-2.11-90.92-47.14-93.89-98.44-4.13-47.43,26.4-93.64,68.26-108.86Zm-42.52,129.42c1.43.12,4.24.29,5.67.35.11-9.84.22-19.68.44-29.46h31.52c-.28,8.32-.5,16.63-.66,24.95,1.65,0,4.9.06,6.55.06-.28-18.8-.28-37.6,0-56.39-1.6-.12-4.79-.41-6.38-.59.11,8.67.22,17.33.44,26-10.4-.06-20.74-.12-31.02-.12-.61-10.13-1.43-20.26-2.53-30.33-7.81,20.79-3.19,43.8-4.02,65.53Zm97.63-58.27c-20.74,12.82-16.17,56.1,9.9,58.15,21.4,3.05,33.61-25.12,25.47-43.74-4.57-15.11-22.5-22.49-35.37-14.41Zm-43.62,41.11c3.85.29,11.5.88,15.35,1.17-4.13,8.78-8.53,17.45-11.94,26.53,7.15-.82,14.36-1.93,21.51-3.22-3.63-.18-10.95-.59-14.58-.76,3.8-9.14,7.7-18.27,11.28-27.52-7.26,1.17-14.47,2.4-21.62,3.81Z"/>
  <path class="cls-35" d="m2050.65,978.4c-27.45,3.98-28.38-52.12-.88-49.31,11.72.35,14.52,14.41,20.52,22.55-5.34,9.19-6.93,25.88-19.64,26.76Z"/>
  <g>
    <path class="cls-5" d="m106.92,47.87c41.09-5.86,81.9-13.53,123.09-18.97,22.55,52.12,50.93,101.54,70.57,154.95-20.85,26.29-45.21,49.37-68.75,72.97-43.45-13.88-90.04-15.05-132-33.91-2.53-9.43-2.97-19.21-3.58-28.87,8.03-5.04,27.94-.94,26.57-15.11,2.59-13.64-15.02-10.78-22.99-12.82,4.29-39.24,4.46-78.88,7.1-118.23Zm53.24,34.9c9.52,1.52,25.63-3.63,16.12-16.22-10.67-8.9-14.91,7.96-16.12,16.22Zm-28.71,15.46c-2.81,9.55.22,12.77,9.19,9.6,2.81-9.6-.28-12.82-9.19-9.6Zm39.49,23.6c-14.47,2.52-26.18,17.98-22.77,33.67,3.36,22.49,37.02,30.51,47.19,9.55,11.99-17.45-2.59-50.89-24.42-43.22Zm53.85,6.21c-10.73,2.34-6.33,21.08,4.29,17.28,10.4-2.52,5.83-20.55-4.29-17.28Zm-2.53,59.2c-1.49,6.85-2.7,13.82-3.63,20.79,7.7-2.46,23.76,3.1,21.4-10.83,2.31-10.78-11.11-11.65-17.77-9.96Zm-61.49,21.49c-2.97,9.43.11,12.65,9.13,9.78,2.92-9.49-.11-12.77-9.13-9.78Z"/>
    <path class="cls-5" d="m490.55,304.78c39.49-18.97,78.49-39,117.04-59.91,57.26,41.7,113.08,85.56,170.01,127.84-2.97,74.49-11.44,148.51-18.21,222.65-57.09,25.65-112.15,57.04-171.49,76.42-9.52,4.27-17.88-3.98-25.41-8.84-41.64-31.92-82.56-64.71-123.48-97.62-4.51-5.04-12.43-9.14-11.77-17.16-1.38-32.27,5.83-63.95,9.02-95.86,5.01-38.65,5.89-78.59,18.26-115.66,5.39-17.1,22.17-24.42,36.03-31.86Zm19.42,90.42c-10.78,6.5-28.44-2.93-33.94,11.83,10.45,30.51,3.96,62.6,2.31,94.05-6.71,7.38-20.19,14.46-14.63,27,5.06,13.76,21.56,9.55,31.9,5.91,18.32,13.23,36.52,26.65,53.96,41.23,1.43,9.66,1.65,21.02,10.12,27.23,6.44-1.7,12.93-3.57,19.36-5.68.22-4.33.77-13,.99-17.33,20.63-9.9,41.03-20.38,61.93-29.69,11.06,3.46,32.78,5.04,31.41-12.77-11.22-28.28-2.53-58.44.17-87.49,4.29-7.85,13.97-15.58,9.63-25.71-28.77-9.02-51.54-30.1-75.63-48.14-4.07-11.54-8.36-31.86-24.31-24.3-20.19,21.67-47.58,31.8-73.26,43.86Z"/>
    <path class="cls-5" d="m506.78,407.67c21.4-10.25,42.57-20.91,63.91-31.15,11.83,3.57,24.31,4.92,35.7,10.13,15.73,9.72,29.81,22.08,44.55,33.26,2.53,10.37,5.28,20.61,8.8,30.69-2.09,22.78-4.02,45.56-4.68,68.4-14.14,24.54-40.65,32.91-63.69,44.39-10.89,5.04-24.2,11.36-35.42,3.81-15.4-9.6-29.43-21.43-44.06-32.21-9.19-7.14-20.68-15.23-21.07-28.69-.17-33.44,1.98-68.11,15.95-98.62Z"/>
    <path class="cls-5" d="m216.7,772.97c47.74-10.13,96.97-5.86,145.15-12.12l2.75-.23c30.91,53.41,61.33,107.17,92.68,160.34,4.02,7.55,10.4,16.87,4.57,25.47-22.06,43.69-44.33,87.31-67.1,130.65-47.74,1.99-95.04-5.8-142.67-6.91-11.55-1-23.76-.29-34.6-5.15-11.55-12.59-20.3-27.82-32.67-39.53-3.3-22.49-18.43-39.94-24.31-61.2,5.45-20.73,14.74-40.58,26.84-57.8,15.46-4.33,31.68-3.28,47.52-3.81,10.29,18.56,16.83,41.4,33.33,54.93,22.22,3.4,44.77,1.41,67.1,1.76,10.89-19.56,24.7-37.95,31.02-59.91-6.11-21.84-17.44-42.22-31.19-59.61-18.21-5.04-37.4-3.46-55.99-3.1-6.38.82-14.8-.76-17.88,6.91-10.89,16.46-19.53,34.43-29.65,51.36-17.49.94-35.31-.29-52.42,4.1-14.52,14.46-19.97,36.31-29.98,54.23-2.26-4.8-6.71-14.46-8.91-19.33,11.88-42.92,34.49-81.58,49.5-123.33,6.82-13.88,9.52-34.9,26.9-37.71Z"/>
    <path class="cls-5" d="m274.67,845.47c16.56-2.64,33.33-1.11,50.05-1.35l3.96,2.58c8.75,17.28,19.8,33.44,25.74,52.18-7.81,17.51-16.61,34.79-27.67,50.3-16.78,5.74-35.42,4.16-52.75,1.82-11.33-15.69-20.74-33.2-27.17-51.77,5.34-19.73,16.45-37.36,27.83-53.76Z"/>
  </g>
  <path class="cls-29" d="m78.54,63.39c.72-15.87,17.93-12.36,28.38-15.52-2.64,39.35-2.81,79-7.1,118.23-1.05,3.05-3.14,9.19-4.24,12.3.17,3.87.5,11.71.66,15.64.61,9.66,1.05,19.44,3.58,28.87,41.97,18.86,88.55,20.03,132,33.91-14.36,16.87-29.54,32.97-45.65,47.84-41.36-23.31-83.44-45.38-124.47-69.34-12.65-5.04-6.16-20.79-5.56-31.21,8.36-46.73,14.03-93.99,22.39-140.72Z"/>
  <path class="cls-21" d="m131.45,98.23c8.91-3.22,11.99,0,9.19,9.6-8.97,3.16-11.99-.06-9.19-9.6Z"/>
  <path class="cls-25" d="m224.79,128.04c10.12-3.28,14.69,14.76,4.29,17.28-10.62,3.81-15.02-14.93-4.29-17.28Z"/>
  <g>
    <path class="cls-20" d="m1894.89,146.19c18.76,7.55,7.26,32.85,10.29,48.72,17.77.18,35.59.18,53.41.06-.17-14.76-.22-29.51-.39-44.21,3.03-.41,9.13-1.11,12.16-1.46.33,35.49.28,71.03.11,106.58-3.08-.29-9.13-.94-12.16-1.29.11-15.93.11-31.86.17-47.84-17.77-.06-35.53-.06-53.24,0-3.14,16.98,8.75,43.51-10.34,52.35-1.54-37.6-1.49-75.31,0-112.91Z"/>
    <path class="cls-20" d="m2068.69,152.22c22.33-11.48,51.92,1.58,59.29,27.06,13.7,32.91-6.6,82.34-44.61,77.71-48.46-2.46-56.05-85.26-14.69-104.77Zm4.73,10.72c-30.36,17.51-23.87,84.21,15.46,82.63,26.62-2.23,35.59-37.42,27.83-60.55-4.18-19.5-26.29-32.09-43.29-22.08Z"/>
  </g>
  <path class="cls-23" d="m160.77,208.74c9.02-2.99,12.05.29,9.13,9.78-9.02,2.87-12.1-.35-9.13-9.78Z"/>
  <path class="cls-12" d="m581.96,242.35c9.41-5.56,19.86-2.11,29.59.35l-3.96,2.17c-38.56,20.91-77.55,40.93-117.04,59.91-13.86,7.44-30.64,14.76-36.03,31.86-12.38,37.07-13.26,77.01-18.26,115.66-3.19,31.92-10.4,63.6-9.02,95.86-.66,8.02,7.26,12.12,11.77,17.16,40.92,32.91,81.84,65.71,123.48,97.62,7.54,4.86,15.9,13.12,25.41,8.84,59.35-19.38,114.4-50.77,171.49-76.42-1.1,10.78-2.15,21.49-3.14,32.27-55.55,27.17-111.38,53.76-166.82,81.22-12.93,6.27-25.63,13.76-39.71,16.69-40.98-26.59-78.6-58.85-118.25-87.72-20.57-17.04-44.33-29.98-62.7-49.84.11-46.73,7.87-93.11,10.62-139.78,4.02-36.54,4.13-73.79,11.11-109.92,10.29-9.6,23.6-14.35,35.86-20.44,52.14-24.48,103.62-50.6,155.6-75.48Z"/>
  <g>
    <path class="cls-8" d="m1661.8,439c92.62-22.02,194.32,42.69,223.19,138.38,14.8,47.73,11.17,101.66-10.12,146.52-39.77,85.97-140.47,137.38-227.54,107.99-84.26-24.24-149.44-113.37-142.4-207.48,5.01-90.65,74.8-167.43,156.86-185.4Zm-56.65,144.06c-42.41,22.49-40.21,100.96,5.06,118.53,21.45,9.37,46.26-.94,57.04-22.43-2.42-1.35-7.21-3.98-9.63-5.33-10.45,8.67-21.51,20.79-36.03,17.04-41.42-8.67-43.34-83.04-5.28-98.09,18.54-6.15,33.77,11.24,51.26,14.7-8.09-27.52-39.6-36.72-62.43-24.42Zm116.82-3.46c-38.83,10.37-48.29,65.3-30.31,98.56,13.53,27.29,50.49,34.96,73.43,16.75,27.94-22.37,30.25-70.68,8.8-98.73-12.21-16.34-33.5-21.26-51.92-16.57Zm82.5,96.86c10.95-1.58,21.84-3.34,32.84-4.92-9.96,18.68-23.05,35.08-33.99,53.06,16.5.64,33.06.59,49.5-1.41-8.03-5.86-17.27-9.25-26.02-13.41,6.11-9.25,13.75-17.39,18.59-27.52,3.41-10.72-3.41-23.48-14.41-24.07-12.76-3.69-21.01,8.2-26.51,18.27Z"/>
    <path class="cls-8" d="m1728.02,591.72c22.72-6.27,43.34,15.4,44.5,38.77,4.46,25.36-6.99,60.02-35.2,60.73-49.12,1.7-54.12-88.25-9.3-99.49Z"/>
  </g>
  <g>
    <path class="cls-34" d="m1605.15,583.06c22.83-12.3,54.34-3.1,62.43,24.42-17.49-3.46-32.73-20.85-51.26-14.7-38.06,15.05-36.14,89.42,5.28,98.09,14.52,3.75,25.58-8.37,36.03-17.04,2.42,1.35,7.21,3.98,9.63,5.33-10.78,21.49-35.59,31.8-57.04,22.43-45.27-17.57-47.47-96.04-5.06-118.53Z"/>
    <path class="cls-34" d="m1721.97,579.6c18.43-4.68,39.71.23,51.92,16.57,21.45,28.05,19.14,76.36-8.8,98.73-22.94,18.21-59.9,10.54-73.43-16.75-17.99-33.26-8.53-88.19,30.31-98.56Zm6.05,12.12c-44.83,11.24-39.82,101.19,9.3,99.49,28.22-.7,39.66-35.37,35.2-60.73-1.16-23.37-21.78-45.03-44.5-38.77Z"/>
  </g>
  <path class="cls-16" d="m1804.47,676.46c5.5-10.07,13.75-21.96,26.51-18.27,11,.59,17.82,13.35,14.41,24.07-4.84,10.13-12.49,18.27-18.59,27.52,8.75,4.16,17.99,7.55,26.02,13.41-16.45,1.99-33,2.05-49.5,1.41,10.95-17.98,24.04-34.38,33.99-53.06-11,1.58-21.89,3.34-32.84,4.92Z"/>
  <path class="cls-14" d="m141.85,741.17c69.74-4.51,139.7-3.63,209.55-5.86,3.47,8.49,6.99,16.98,10.45,25.53-48.18,6.27-97.41,1.99-145.15,12.12-17.38,2.81-20.08,23.83-26.9,37.71-15.02,41.75-37.62,80.4-49.5,123.33,2.2,4.86,6.66,14.52,8.91,19.33-1.21,2.58-3.63,7.61-4.84,10.19,12.65,21.14,21.12,46.2,40.43,61.96,12.38,11.71,21.12,26.94,32.67,39.53,10.84,4.86,23.05,4.16,34.6,5.15,47.63,1.11,94.93,8.9,142.67,6.91-12.1,24.77-24.48,49.37-38.06,73.26-66.22.64-132.39,5.56-198.61,4.74-11.11,2.28-15.29-10.01-20.46-17.63-34.32-61.66-70.46-122.04-104.61-183.76,35.7-71.15,71.83-142.13,108.85-212.52Z"/>
  <path class="cls-26" d="m1200.89,944.61c43.51-12.53,96.42,11.89,109.56,59.79,14.47,42.81-11.5,92.47-51.15,106.46-34.87,11.65-77.55,3.81-101.86-26.82-22.88-27-25.8-70.21-7.54-100.72,11.33-19.44,30.09-33.56,50.99-38.71Zm4.29,10.37c-28.27,10.6-50.11,40.76-49.5,73.14-2.04,40.52,31.79,79.12,70.13,78.65,37.95-.29,72.38-37.83,70.13-78.59,2.37-47.79-47.52-91.41-90.75-73.2Z"/>
  <g>
    <path class="cls-24" d="m1205.18,954.97c43.23-18.21,93.12,25.42,90.75,73.2,2.26,40.76-32.18,78.3-70.13,78.59-38.34.47-72.16-38.12-70.13-78.65-.61-32.38,21.23-62.54,49.5-73.14Zm-6.49,38.3c-24.2,14.82-19.03,63.83,10.62,67.46,22.88,3.69,38.06-23.42,32.18-44.92-2.7-20.44-25.85-33.09-42.79-22.55Zm50.38,51.06c3.91-.59,11.72-1.82,15.62-2.4-4.07,10.25-8.91,20.26-12.27,30.86,8.97-.12,17.88-1.99,26.51-4.86-3.3-1.7-9.96-5.04-13.26-6.73,3.63-6.62,8.69-12.82,9.74-20.67-6.38-12.71-20.9-6.09-26.35,3.81Z"/>
    <path class="cls-24" d="m1204.14,999.71c29.32-12.3,39.82,39.82,16.01,51.47-28.22,9.43-37.79-38.3-16.01-51.47Z"/>
    <path class="cls-24" d="m992.44,1086.85c4.02-29.57,31.57-57.27,60.67-50.89,33.83,9.49,50.44,54.4,35.15,87.14-3.91,1.17-11.72,3.51-15.62,4.74,2.81-5.39,8.47-16.16,11.28-21.49-6.6-2.11-13.53-3.22-20.41-2.64,3.69,1.17,11,3.51,14.69,4.68-4.18,7.09-8.2,14.35-12.27,21.55,4.62.06,13.92.18,18.59.23-10.78,12.3-23.76,25.59-40.76,25.42-32.29,1.58-57.09-36.54-51.32-68.75Zm31.46-15.87c-17.44,12.06-12.54,47.49,8.75,51.06,20.52,4.33,32.23-23.89,23.54-40.99-4.35-14.46-21.34-14.87-32.29-10.07Z"/>
    <path class="cls-24" d="m1028.79,1075.67c23.49-10.13,30.75,33.73,9.68,39.7-19.31.88-22.06-28.87-9.68-39.7Z"/>
  </g>
  <path class="cls-4" d="m1198.69,993.27c16.94-10.54,40.1,2.11,42.79,22.55,5.89,21.49-9.3,48.61-32.18,44.92-29.65-3.63-34.82-52.65-10.62-67.46Zm5.45,6.44c-21.78,13.18-12.21,60.9,16.01,51.47,23.82-11.65,13.31-63.77-16.01-51.47Z"/>
  <path class="cls-7" d="m1017.52,1029.7c30.36-11.3,68.7.06,84.98,30.74,15.79,27.29,10.23,65.53-12.16,86.79-32.78,32.27-95.21,20.14-111.32-25.65-14.41-35.25,4.29-79.88,38.5-91.88Zm-25.08,57.16c-5.78,32.21,19.03,70.33,51.32,68.75,17,.18,29.98-13.12,40.76-25.42-4.68-.06-13.97-.18-18.59-.23,4.07-7.2,8.09-14.46,12.27-21.55-3.69-1.17-11-3.51-14.69-4.68,6.88-.59,13.81.53,20.41,2.64-2.81,5.33-8.47,16.1-11.28,21.49,3.91-1.23,11.72-3.57,15.62-4.74,15.29-32.74-1.32-77.65-35.15-87.14-29.1-6.38-56.65,21.32-60.67,50.89Z"/>
  <path class="cls-36" d="m1249.07,1044.34c5.45-9.9,19.97-16.51,26.35-3.81-1.05,7.85-6.11,14.05-9.74,20.67,3.3,1.7,9.96,5.04,13.26,6.73-8.64,2.87-17.55,4.74-26.51,4.86,3.36-10.6,8.2-20.61,12.27-30.86-3.91.59-11.72,1.82-15.62,2.4Z"/>
  <g>
    <path class="cls-10" d="m1694.52,1096.47c-8.09-4.2-18.05-3.71-26.8-5.46-.81-.16-1.48-.47-2-.87-21.99-3.53-44-7.81-66.13-10.33-7.24-.59-14.48-1.2-21.7-1.89-3.18-.26-6.35-.59-9.52-.96-4.75-.51-9.49-1.07-14.22-1.7-1.98-.23-5.94-.59-7.92-.76-12.76-.29-25.47.06-38.12.35.66,4.68,1.98,14,2.64,18.68,2.48,10.48,6.49,20.44,10.23,30.57-38.46,26.86-82.59,41.93-122.79,64.7-1.29,1.04-2.66,1.99-3.84,3.15-.73.72-1.61,1.15-2.53,1.33-5.6,4.67-12.89,8.82-18.94,5.67-.23-.12-.44-.25-.63-.39-22.01,2-42.58,11.87-64.13,16.42-16.32,4.45-32.89,7.44-49.53,10.02-3.64.72-7.31,1.25-11,1.66-15.6,2.29-31.22,4.42-46.72,7.24-23.49,6.56-47.96,6.73-71.39.29-6.6-1.35-13.15-2.4-19.69-3.16-110.83-9.6-217.03-52.35-313.4-109.86-37.4-20.79-70.62-48.9-107.31-70.68-.18.03-.36.07-.53.1-.23.42-.47.83-.7,1.25-4.03,10.16-8.7,20.1-13.09,30.08-.27.6-.54,1.2-.81,1.8,85.1,69.93,184.02,120.84,288.32,148.43,86.52,28.93,178.15,30.92,267.91,37.42,4.13,12.94,8.31,25.88,12.49,38.88,18.98,11.83,33.06,31.1,39.6,53.47,29.78-4.88,60.55-6.95,88.99-18.1,1.1-1.3,2.34-1.67,3.7-1.89,4.12-3.33,8.76-4.67,14.07-3.97,21.78.12,42.19-9.31,62.92-15.52,21.89-7.91,44.72-13.7,65.12-25.59,2.58-1.41,7.81-4.1,10.4-5.5,16.1-1.19,30.81-9.59,44.24-18.71.34-.41.73-.79,1.18-1.13.32-.24.65-.48.99-.72,2.45-2.62,5.74-3.51,8.57-2.85,1.36.19,2.63.84,3.69,2.1,1.2,1.26,2.03,3.02,2.24,5.24.27,1.71.22,3.52,0,5.35.78,20.64,22.23,21.17,38.07,21.85.65-1.98,1.43-3.91,2.14-5.77,2.26-5.85,4.97-11.53,7.23-17.38,11.23-29.17,21.8-58.61,34-87.4.1-.5.2-.97.28-1.37.34-5.39,1.77-11.52,5.75-14.93,1.6-4.43,3.23-8.84,4.91-13.24.41-1.95,1.16-3.78,2.13-5.5.64-1.64,1.27-3.29,1.91-4.93,4.04-11.54,8.06-23.25,12.93-34.52,2.29-7.54,4.35-17.06-3.2-20.97Zm-96.97,124.48c-4.79-5.74-9.63-11.48-14.36-17.22-58.47,38.77-119.02,75.48-185.3,96.74-34.43,11.42-69.47,23.6-105.82,23.78-6.93.64-12.1-5.15-15.29-10.83-9.08-15.93-12.87-34.38-17.88-52,31.57-7.44,64.13-9.55,95.32-19.44,35.59-9.02,69.52-23.83,104.28-35.78,38.12-13.76,77.11-25.71,112.97-45.5-.88-12.18-1.7-24.36-2.53-36.54,22.66.35,45.21,2.58,67.76,5.04-11.28,31.45-24.97,61.78-39.16,91.76Z"/>
    <path class="cls-10" d="m869.45,1284.5c-53.08-20.91-102.58-50.25-153.07-76.95-29.56-17.43-58.13-36.63-87.18-54.96-2.56,2.96-5.15,5.99-7.98,8.7-1.1,1.29-2.2,2.52-3.23,3.66-4.8,5.32-9.93,10.95-15.51,15.82,116.92,83.63,248.71,144.95,387.36,172.61l4.07-2.75c10.07-7.03,20.85-12.82,31.9-17.92-52.25-15.58-106.21-25.42-156.37-48.2Z"/>
  </g>
  <g>
    <path class="cls-9" d="m1230.21,1269.56c-89.76-6.5-181.39-8.49-267.91-37.42-104.3-27.58-203.22-78.49-288.32-148.43-5.14,11.52-10.84,22.8-17.52,33.51-7.34,11.77-15.97,22.67-25.19,33.02-.69.77-1.37,1.56-2.06,2.35,29.05,18.34,57.62,37.53,87.18,54.96,50.49,26.7,99.99,56.04,153.07,76.95,50.16,22.78,104.12,32.62,156.37,48.2,32.18-8.9,65.34-12.59,97.96-19.32,39.11-6.44,80.08-21.37,118.91-4.92-4.18-13-8.36-25.94-12.49-38.88Z"/>
    <path class="cls-9" d="m1568.96,1124.16c22.66.35,45.21,2.58,67.76,5.04-11.28,31.45-24.97,61.78-39.16,91.76-4.79-5.74-9.63-11.48-14.36-17.22-58.47,38.77-119.02,75.48-185.3,96.74-34.43,11.42-69.47,23.6-105.82,23.78-6.93.64-12.1-5.15-15.29-10.83-9.08-15.93-12.87-34.38-17.88-52,31.57-7.44,64.13-9.55,95.32-19.44,35.59-9.02,69.52-23.83,104.28-35.78,38.12-13.76,77.11-25.71,112.97-45.5-.88-12.18-1.71-24.36-2.53-36.54Z"/>
  </g>
  <path class="cls-27" d="m1023.9,1070.98c10.95-4.8,27.94-4.39,32.29,10.07,8.69,17.1-3.03,45.33-23.54,40.99-21.29-3.57-26.18-39-8.75-51.06Zm4.9,4.68c-12.38,10.83-9.63,40.58,9.68,39.7,21.07-5.97,13.81-49.84-9.68-39.7Z"/>
  <path class="cls-3" d="m1540.84,1073.5c-11.44-1.22-23.3-2-34.55.71,1.39,6.42,2.88,12.87,4.48,19.32-.66-4.68-1.98-14-2.64-18.68,12.65-.29,25.36-.64,38.12-.35-.65-.21-1.3-.41-1.96-.6-1.15-.13-2.3-.27-3.45-.4Z"/>
  <path class="cls-19" d="m1599.59,1079.82c-5.95-.68-11.9-1.23-17.87-1.6-1.28-.08-2.55-.19-3.82-.29,7.22.69,14.45,1.3,21.69,1.89Z"/>
  <path class="cls-19" d="m1555.69,1075.34c-.51-.03-1.02-.06-1.52-.09,4.73.63,9.47,1.19,14.21,1.7-4.23-.5-8.46-1.05-12.69-1.62Z"/>
  <path class="cls-22" d="m1680.93,1161.93c.64-1.68,1.3-3.36,1.95-5.04-.96,1.73-1.72,3.55-2.13,5.5.06-.15.11-.31.17-.46Z"/>
  <path class="cls-28" d="m1671.16,1188.82c1.55-4.4,3.11-8.79,4.7-13.18-3.98,3.41-5.41,9.53-5.75,14.93.09.04.17.07.26.11.26-.62.53-1.23.8-1.85Z"/>
  <path class="cls-15" d="m1150.45,1233.7c-3.64.19-7.29.3-10.9.12-.38-.02-.78-.04-1.19-.07-2.96.13-5.91.27-8.86.43,23.43,6.44,47.91,6.27,71.39-.29-11.55-.65-23.09-.9-34.63-.84-5.26.48-10.53.79-15.81.65Z"/>
  <g>
    <path class="cls-18" d="m1587.18,1271.53c.63,1.17,1.01,2.43,1.21,3.74-.21-2.23-1.04-3.98-2.24-5.24.37.43.72.91,1.03,1.5Z"/>
    <path class="cls-18" d="m1582.46,1267.94c-2.83-.67-6.11.23-8.57,2.85,2.58-1.78,5.76-3.24,8.57-2.85Z"/>
  </g>
  <path class="cls-30" d="m1523.22,1293.93c.16-.09.3-.2.46-.29,1.24-.67,2.45-1.04,3.67-1.18l.14-1.11c-2.58,1.41-7.81,4.1-10.4,5.5l.16.1c1.87-1.25,3.93-2.09,5.97-3.02Z"/>
  <path class="cls-31" d="m1123.78,1313.37c39.11-6.44,80.08-21.37,118.91-4.92,18.98,11.83,33.06,31.1,39.6,53.47,3.69,43.92-29.92,79.47-67.82,89.19-50.55,12.47-102.63,16.75-153.56,27.58-23.71,5.45-46.86-4.74-67.6-15.81-6.55,6.44-12.87,13.18-18.81,20.26,5.89,12,19.47,25.01,11.39,39.65-16.72,20.32-45.49,17.8-68.42,17.22,7.59-19.33,35.09-7.67,44.28-26-3.47-9.9-8.69-18.97-12.05-28.87-.94-20.79,20.3-27.06,33.5-36.19-4.46-13.76-16.83-20.55-28.05-26.82-7.1,14.05-8.86,36.13-26.62,39.41-27.23,12.88-49.94-12.18-67.05-31.21,7.21-3.75,14.25-8.78,22.55-9.25,12.16,8.43,22.83,19.09,34.65,28.17,4.29-10.25,7.59-21.08,13.64-30.33,11.77-9.25,26.9-10.48,40.7-14.29-4.24-14.41-13.42-25.94-23.38-36.25-10.62,12.06-19.2,32.38-37.73,29.87-29.04,2.93-43.78-27.99-54.07-51.53,7.98-.18,16.5-3.05,24.37-.06,9.08,11.77,16.39,24.95,25.14,37.07,9.41-10.6,16.45-27.52,32.07-28.11,14.91-2.64,28.93,4.57,41.75,11.65,4.13-5.68,8.03-11.54,12.76-16.63,10.07-7.03,20.85-12.82,31.9-17.92,32.18-8.9,65.34-12.59,97.96-19.33Zm65.62-.88c-32.18,3.69-63.75,11.83-95.7,16.69-25.3,5.09-53.02,6.91-74.14,24.3-19.31,13.88-26.62,41.58-22.28,65.06,8.36,21.96,27.17,39.88,48.79,46.03,25.3,3.4,50.22-4.68,75.13-8.37,34.98-7.03,72.82-6.5,103.73-27.7l9.74-1.64c10.34-22.49,30.91-45.85,20.24-72.62-13.59-23.54-39-41.93-65.51-41.75Z"/>
  <path class="cls-33" d="m1189.4,1312.49c26.51-.18,51.92,18.21,65.51,41.75,10.67,26.76-9.9,50.13-20.24,72.62-3.14-6.97-6.44-13.82-9.9-20.5-4.18,3.92-8.09,8.14-11.66,12.71,2.97,2.34,8.86,7.03,11.83,9.43-30.91,21.2-68.75,20.67-103.73,27.7-24.92,3.69-49.83,11.77-75.13,8.37-21.62-6.15-40.43-24.07-48.79-46.03-4.35-23.48,2.97-51.18,22.28-65.06,21.12-17.39,48.84-19.21,74.14-24.3,31.96-4.86,63.53-13,95.7-16.69Zm-133.98,44.39,51.65,54.99c-5.39,11.42-22.33,11.3-30.2,3.05-17-14.93-34.65-38.42-59.4-27.46,18.81,3.51,34.32,14.82,47.3,29.28,13.26,15.52,40.81,17.45,51.54-2.23,13.2-18.04,19.91-46.56,43.67-51.88,22.11,2.99,38.01,23.54,59.51,29.69-17.66-15.75-36.14-35.55-60.39-36.83-27.5,4.16-38.17,35.02-52.03,56.39Zm129.53-24.71c-2.15,8.32.61,10.95,8.25,7.79,2.09-8.37-.66-10.95-8.25-7.79Z"/>
  <path class="cls-32" d="m1376.57,1341.7c2.25-2.1,5.12-3.35,8.09-3.56,1.47-.23,2.95-.23,4.34.03.02-.07.04-.13.05-.21-5.31-.71-9.95.63-14.07,3.97.51-.08,1.04-.15,1.59-.23Z"/>
  <path class="cls-17" d="m1107.06,1411.87c13.86-21.37,24.53-52.24,52.03-56.39,24.26,1.29,42.74,21.08,60.39,36.83-21.51-6.15-37.4-26.7-59.51-29.69-23.76,5.33-30.47,33.85-43.67,51.88-10.73,19.68-38.28,17.74-51.54,2.23-12.98-14.46-28.49-25.77-47.3-29.28,24.75-10.95,42.41,12.53,59.4,27.46,7.87,8.26,24.81,8.37,30.2-3.05Z"/>
  <path class="cls-11" d="m1236.59,1387.15c7.59-3.16,10.34-.59,8.25,7.79-7.65,3.16-10.4.53-8.25-7.79Z"/>
  <path class="cls-6" d="m1213.1,1419.07c3.58-4.57,7.48-8.78,11.66-12.71,3.47,6.68,6.77,13.53,9.9,20.5l-9.74,1.64c-2.97-2.4-8.86-7.09-11.83-9.43Z"/>
  <path class="cls-10" d="m1120,1244.45c4.83.93,9.6-.04,14.45.7,5.16.79,10.13,1.2,15.36.76,10.73-.9,21.23-2.85,32.03-3.16,21.71-.63,43.34,1.14,64.92-2.12,7.61-1.15,4.38-12.72-3.19-11.57-20.43,3.09-41.17,1.09-61.73,1.69-10.18.3-20.08,1.93-30.18,2.98-5.07.53-9.88.44-14.91-.31-2.31-.34-4.62-.76-6.97-.75-2.19,0-4.41.62-6.59.2-7.55-1.45-10.78,10.12-3.19,11.57h0Z"/>
  <path class="cls-10" d="m1109.93,1244.32c13.34,2.18,26.12-.57,39.42-1.53,13.41-.97,26.67,1.46,40.13.14,13.2-1.3,26.25-3.4,39.51-4.15,6.88-.39,13.77-.63,20.66-.89,4.91-.19,13.37-2.2,17.64.69,6.41,4.35,12.42-6.04,6.06-10.36-4.84-3.29-10.57-2.83-16.16-2.62-6.9.26-13.8.51-20.69.81-13.89.61-27.56,2.21-41.35,3.89-6.91.84-13.86,1.48-20.83,1.29-6.79-.19-13.53-1.16-20.34-1.02-13.6.29-27.26,4.41-40.87,2.19-7.55-1.23-10.8,10.33-3.19,11.57h0Z"/>
  <path class="cls-10" d="m1369,1210.83c-1.12-1.03-2.25-2.07-3.37-3.1-.88,3.34-1.77,6.69-2.65,10.03,18.83-7.83,37.66-15.67,56.48-23.5-2.46-1.4-4.92-2.79-7.38-4.19.45,1.43.9,2.86,1.35,4.29,2.31,7.34,13.9,4.21,11.57-3.19-.45-1.43-.9-2.86-1.35-4.29-.88-2.8-4.29-5.48-7.38-4.19-18.83,7.83-37.66,15.67-56.48,23.5-3.87,1.61-6.32,6.65-2.65,10.03l3.37,3.1c5.68,5.22,14.19-3.25,8.49-8.49h0Z"/>
  <path class="cls-10" d="m1342.74,1219.44c4.37.83,4.91-.99,8.01-3.13,1.48-1.02,3.63-.68,5.7-.74,7.71-.23,14.76-2.69,21.85-5.51,15.79-6.28,31.57-12.63,47.35-18.94-1.95-3.34-3.89-6.69-5.84-10.03-.5.45-.99.91-1.49,1.36-5.72,5.22,2.79,13.68,8.49,8.49.5-.45.99-.91,1.49-1.36,4.23-3.85-.19-12.29-5.84-10.03-15.48,6.19-30.96,12.39-46.44,18.57-6.83,2.73-13.43,5.29-20.86,5.45-2.69.06-5.43.1-8,.98-3.04,1.04-4.19,3.19-6.45,4.97,1.95-.51,3.89-1.03,5.84-1.54l-.61-.12c-7.55-1.43-10.78,10.13-3.19,11.57h0Z"/>
  <path class="cls-10" d="m1353.02,1218.31c.6-3.02,12.06-3.93,14.62-4.65,7.1-2.02,13.47-5.6,20.41-7.93,6.66-2.24,13.67-2.91,20.29-5.43,3.25-1.24,6.44-2.64,9.58-4.15,1.61-.77,3.2-1.58,4.78-2.39,1-.52,4.95-1.68,3.11-2.34-1.4-2.46-2.79-4.92-4.19-7.38l-.11.55c1.4-1.4,2.79-2.79,4.19-4.19l-.62.19c2.46,1.4,4.92,2.79,7.38,4.19l-.14-.36c-2.87-7.06-14.48-3.97-11.57,3.19l.14.36c1.19,2.93,3.99,5.25,7.38,4.19l.62-.19c1.9-.59,3.78-2.13,4.19-4.19l.11-.55c.67-3.38-.95-6.21-4.19-7.38-4.26-1.54-7.9,1.24-11.57,3.14-3.75,1.95-7.53,3.87-11.45,5.42-8.12,3.22-16.99,3.76-24.98,7.23-8.31,3.6-16.21,6.57-25.11,8.46-6.26,1.33-13.04,4.01-14.44,11.02-1.5,7.54,10.06,10.77,11.57,3.19h0Z"/>
  <path class="cls-10" d="m1356.41,1215.1c24.88-7.51,49.89-14.73,73.65-25.4-2.42-3.14-4.85-6.28-7.27-9.42-.6.72-1.21,1.44-1.81,2.16-4.93,5.88,3.51,14.41,8.49,8.49.6-.72,1.21-1.44,1.81-2.16,4.49-5.35-1-12.24-7.27-9.42-22.78,10.23-46.93,16.99-70.78,24.19-7.37,2.22-4.23,13.81,3.19,11.57h0Z"/>
  <path class="cls-10" d="m1355.41,1350.3c21.96-8.89,46.25-9.93,67.52-20.81,6.88-3.52.81-13.87-6.06-10.36-20.23,10.35-43.71,11.12-64.65,19.6-7.07,2.86-3.98,14.47,3.19,11.57h0Z"/>
  <path class="cls-10" d="m1507.09,1298.95c11.42-6.3,24.81-5.97,35.34-14.41,5.26-4.22-1.76-13.44-7.27-9.42-13.01,9.49-27.7,15.45-43.64,17.77-4.97.72-5.95,8.93-1.43,10.97,6.39,2.89,11.96,1.26,18.26-1.08,6.42-2.38,12.75-5,19-7.81,12.93-5.82,25.36-12.64,37.29-20.3,6.48-4.16.47-14.55-6.06-10.36-9.89,6.35-20.13,12.14-30.73,17.24-5.24,2.52-10.54,4.89-15.94,7.05-2.8,1.12-5.61,2.2-8.45,3.23-1.88.68-5.33,2.57-7.32,1.67-.48,3.66-.96,7.31-1.43,10.97,16.81-2.44,32.78-8.97,46.5-18.98l-7.27-9.42c-4.58,3.67-10.56,4.98-16.11,6.43-5.81,1.52-11.51,3.19-16.8,6.1-6.76,3.73-.72,14.1,6.06,10.36h0Z"/>
  <path class="cls-10" d="m1505.46,1081.45c1.55,1.81,2.08,4.93,2.96,7.11.99,2.45,2.02,4.89,3.08,7.32,2.19,5.01,4.57,9.94,7.09,14.8,3.29,6.36,12.2,1.73,10.97-4.62l-.2-1.02c-1.47-7.57-13.03-4.37-11.57,3.19l.2,1.02c3.66-1.54,7.31-3.08,10.97-4.62-2.79-5.4-5.44-10.87-7.81-16.47-2.18-5.13-3.52-10.9-7.19-15.19-5.03-5.88-13.48,2.65-8.49,8.49h0Z"/>
  <path class="cls-10" d="m1504.04,1076.1c4.56,16.95,10.86,33.35,18.71,49.05,3.48,6.96,13.6.86,10.36-6.06-.29-.61-.57-1.22-.86-1.83-3.27-6.99-13.62-.9-10.36,6.06.29.61.57,1.22.86,1.83,3.45-2.02,6.91-4.04,10.36-6.06-7.4-14.79-13.21-30.21-17.5-46.18-2-7.45-13.58-4.29-11.57,3.19h0Z"/>
  <path class="cls-10" d="m1507.57,1080.83c14.72-.08,29.45,1.95,44.08,3.37,15.95,1.55,31.9,3.18,47.8,5.25s31.01,4.41,46.49,6.78c14.77,2.27,28.82,5.06,42.04,12.28,6.78,3.7,12.84-6.66,6.06-10.36-13.35-7.29-27.3-10.74-42.24-13.08-16.14-2.53-32.3-4.95-48.49-7.11s-32.45-3.89-48.72-5.48c-15.59-1.52-31.33-3.75-47.02-3.66-7.72.04-7.74,12.04,0,12h0Z"/>
  <path class="cls-10" d="m1503.01,1080.17c7.32,15.39,14.3,30.93,20.86,46.65,1.26,3.01,3.96,5.09,7.38,4.19,2.83-.75,5.44-4.39,4.19-7.38-6.97-16.68-14.3-33.2-22.07-49.52-3.32-6.97-13.67-.89-10.36,6.06h0Z"/>
  <path class="cls-10" d="m1576.9,1274.11c7.72,0,7.73-12,0-12s-7.73,12,0,12h0Z"/>
  <path class="cls-10" d="m1570.51,1270.08c12.4,12.1,24.45,24.12,39.3,33.26,6.59,4.06,12.63-6.31,6.06-10.36-13.96-8.6-25.21-20-36.87-31.38-5.53-5.4-14.02,3.08-8.49,8.49h0Z"/>
  <path class="cls-10" d="m1579.44,1272.79c3.23,2.39,5.31,5.53,7.65,8.71,2.57,3.51,6.97,8.94,11.97,6.9,3-1.22,5.12-3.99,4.19-7.38-.78-2.84-4.36-5.42-7.38-4.19l-.51.21h3.19c1.4.54-.35-.72-.63-1.05-.36-.41-.67-.84-.99-1.28-.99-1.36-1.92-2.77-2.94-4.11-2.45-3.2-5.25-5.77-8.48-8.17-2.61-1.93-6.7-.43-8.21,2.15-1.79,3.05-.46,6.27,2.15,8.21h0Z"/>
  <path class="cls-10" d="m1572.96,1265.87c1.63,4.97,5.55,5.87,8.64,9.47,1.49,1.74,2.32,4.07,3.61,5.97,1.67,2.47,3.63,4.7,5.72,6.81,4.08,4.1,8.29,8.39,12.88,11.92s10.23,4.32,15.28,7.11c6.76,3.74,12.74-6.46,6.06-10.36l-1.66-.97c-6.69-3.9-12.73,6.47-6.06,10.36l1.66.97c2.02-3.45,4.04-6.91,6.06-10.36-4.04-2.23-8.86-2.85-12.74-5.27-4.39-2.73-8.12-7.14-11.81-10.74-3.29-3.2-5.52-6.56-7.91-10.43-1.11-1.79-2.38-3.5-3.96-4.9-.72-.63-4.07-2.43-4.18-2.78-2.4-7.3-13.99-4.18-11.57,3.19h0Z"/>
  <path class="cls-10" d="m1626.09,1260.1c.37,6.64-2.91,12.54-4.68,18.78-2.02,7.12-3.27,14.51-4.83,21.75-1.62,7.51,9.75,10.74,11.57,3.19l.3-1.26c1.81-7.5-9.76-10.71-11.57-3.19l-.3,1.26c3.86,1.06,7.71,2.13,11.57,3.19,1.68-7.79,2.94-15.84,5.34-23.45,2.13-6.75,5-13.02,4.6-20.27-.42-7.68-12.43-7.73-12,0h0Z"/>
</svg>