<?xml version="1.0" encoding="UTF-8"?>
<svg id="_图层_1" data-name="图层 1" xmlns="http://www.w3.org/2000/svg" viewBox="0 0 2149.36 1923.93">
  <defs>
    <style>
      .cls-1 {
        fill: #86f37d;
      }

      .cls-2 {
        fill: #445572;
      }

      .cls-3 {
        fill: #4bcc69;
      }

      .cls-4 {
        fill: #fff;
      }

      .cls-5 {
        fill: #a7f596;
      }

      .cls-6 {
        fill: #deecf5;
      }

      .cls-7 {
        fill: #91b7ee;
      }

      .cls-8 {
        fill: #f9ffd3;
      }

      .cls-9 {
        fill: #384f6e;
      }

      .cls-10 {
        fill: #686d74;
      }

      .cls-11 {
        fill: #c3cfe3;
      }

      .cls-12 {
        fill: #2e4e7e;
      }

      .cls-13 {
        fill: #acbbd1;
      }

      .cls-14 {
        fill: #fbffe2;
      }

      .cls-15 {
        fill: #a8b7ce;
      }

      .cls-16 {
        fill: #334a74;
      }

      .cls-17 {
        fill: #0c4373;
      }

      .cls-18 {
        fill: #f5f5f5;
      }

      .cls-19 {
        fill: #040404;
      }

      .cls-20 {
        fill: #faffdf;
      }

      .cls-21 {
        fill: #bae5fd;
      }

      .cls-22 {
        fill: #9ff492;
      }

      .cls-23 {
        fill: #4ccd69;
      }

      .cls-24 {
        fill: #020202;
      }

      .cls-25 {
        fill: #485e84;
      }

      .cls-26 {
        fill: #c0cde1;
      }

      .cls-27 {
        fill: #4f658a;
      }

      .cls-28 {
        fill: #b0bed4;
      }

      .cls-29 {
        fill: #f9f5ec;
      }

      .cls-30 {
        fill: #faffd8;
      }

      .cls-31 {
        fill: #d8dce7;
      }

      .cls-32 {
        fill: #4a5f82;
      }

      .cls-33 {
        fill: #b2dff9;
      }

      .cls-34 {
        fill: #faffde;
      }

      .cls-35 {
        fill: #3f5478;
      }

      .cls-36 {
        fill: #253549;
      }

      .cls-37 {
        fill: #6cd189;
      }

      .cls-38 {
        fill: #c6d3e5;
      }

      .cls-39 {
        fill: #45c569;
      }

      .cls-40 {
        fill: #5ce266;
      }

      .cls-41 {
        fill: #d1ddee;
      }

      .cls-42 {
        fill: #b8c6db;
      }

      .cls-43 {
        fill: #b8b8b8;
      }

      .cls-44 {
        fill: #42587d;
      }

      .cls-45 {
        fill: #9eadc5;
      }

      .cls-46 {
        fill: #7184a4;
      }

      .cls-47 {
        fill: #b0f8a0;
      }

      .cls-48 {
        fill: #a0d7ea;
      }

      .cls-49 {
        fill: #415471;
      }

      .cls-50 {
        fill: #b1bfd4;
      }

      .cls-51 {
        fill: #faffda;
      }

      .cls-52 {
        fill: #f9ffd8;
      }

      .cls-53 {
        fill: #fbffe4;
      }

      .cls-54 {
        fill: #9bb3d6;
      }

      .cls-55 {
        fill: #455a7d;
      }

      .cls-56 {
        fill: #69f067;
      }

      .cls-57 {
        fill: #88b6d3;
      }

      .cls-58 {
        fill: #c3e8fe;
      }

      .cls-59 {
        fill: #5fcd7e;
      }

      .cls-60 {
        fill: #bdf8ab;
      }

      .cls-61 {
        fill: #72f064;
      }

      .cls-62 {
        fill: #afdefa;
      }

      .cls-63 {
        fill: #2a3743;
      }

      .cls-64 {
        fill: #595959;
      }

      .cls-65 {
        fill: #8f9aa9;
      }

      .cls-66 {
        fill: #f9ffd1;
      }

      .cls-67 {
        fill: #4f6280;
      }

      .cls-68 {
        fill: #455b82;
      }

      .cls-69 {
        fill: #f5f9fc;
      }

      .cls-70 {
        fill: #010101;
      }

      .cls-71 {
        fill: #596a88;
      }

      .cls-72 {
        fill: #c3cfe2;
      }

      .cls-73 {
        fill: #4bcc68;
      }

      .cls-74 {
        fill: #060606;
      }
    </style>
  </defs>
  <path class="cls-4" d="m892.2,34.5C624.89,181.31,357.34,327.63,89.9,474.13c-16.96,9.56-34.04,24.78-34.41,45.73-1.76,46.7-2.61,93.41-3.65,140.05-.55,37.33,35.32,59.25,65.66,71.79,106.39,57.79,211.62,117.64,317.59,176.16,17.33,9.01,33.32,20.89,51.92,27.22-5.65,21.43-21.28,37.87-31.73,56.93-37.33,64.85-78,127.63-120.25,189.31-6.32,10.17-14.53,19.91-16.6,32.03-2.01,23.93,25.41,33.61,42.92,42.32,5.29-4.81,9.06-10.9,13.01-16.74,54.53-82.02,103.78-167.51,155.63-251.23,6.87-10.59,18.18-16.68,28.21-23.75-.24,2.68-.79,7.98-1.09,10.66,118.85,68.2,239.04,134.08,358.68,200.94,23.71,13.21,47.05,28.01,73.62,34.95,47.18,10.41,98.06,4.99,140.92-18.02,284.7-154.91,569.28-310.18,853.97-465.14,25.17-23.44,22.37-60.77,24.26-92.25.49-34.46,5.96-69.23.43-103.51-9.3-25.7-35.08-39.7-57.02-53.22-265.06-146.14-530.18-292.34-795.12-438.78-78.18-49.69-185.06-53.89-264.64-5.05Z"/>
  <path class="cls-4" d="m1991.54,1138.33c-.49,32.39.06,64.85-.43,97.3,4.68.06,14.04.18,18.72.24-.06-12.06-.06-24.05.06-36.05,30.21-3.65,27.42,48.16,60.92,36.6-8.21-13.09-16.9-25.76-25.78-38.42,14.59-9.68,23.65-29.78,11.98-45.36-15.56-19.79-43.77-12.85-65.48-14.31Z"/>
  <path class="cls-4" d="m1901.57,1149.77c-18.54,17.96-20.06,49.75-4.5,70.09,16.54,21.8,51.74,22.96,71.86,5.66,3.89-14,1.64-28.86,2.13-43.17-12.71,0-25.41,0-38.06.12-1.88,14.25,7.96,18.63,20.18,17.17-.36,4.57-1.09,13.64-1.46,18.21-10.52,1.28-22.07,4.2-31.8-1.52-21.52-14.55-17.69-56.81,9.61-62.11,11.79-3.11,20.31,6.27,28.88,12.48,3.4-2.56,10.09-7.61,13.5-10.17-15.26-23.2-50.82-25.63-70.34-6.76Z"/>
  <path class="cls-4" d="m2086.56,1138.51c.18,32.52-.55,65.09.55,97.61,4.5,0,13.44-.12,17.87-.12.18-13.09.3-26.12.61-39.21,13.19,0,26.38-.06,39.7,0v-16.81c-13.07.06-26.08.18-39.09.37-.06-8.59-.06-17.17,0-25.7,14.35.24,28.69.24,43.1.3,0-4.08.06-12.36.06-16.44-20.97-.06-41.89-.06-62.8,0Z"/>
  <path class="cls-4" d="m1810.07,1213.59c6.5,27.95,48.51,31.85,62.74,8.1-3.16-1.34-9.42-3.9-12.58-5.24-12.89,7.25-30.15,8.04-34.04-9.86,16.05-.43,32.1-.3,48.21-.67-.18-15.89-5.17-36.6-23.83-39.34-26.93-7.92-50.28,21.86-40.49,47.01Z"/>
  <path class="cls-4" d="m1486.89,1196.48c-12.95,7.73-2.67,22.35,2.13,31.72-17.02,40.55-23.41,84.58-20.18,128.42-12.16,2.74-24.32,5.18-36.66,6.76-5.53-15.41-14.53-29.84-15.75-46.46-2.07-14.31-.43-29.23-5.59-42.93-7.9-13.09-21.7-21.07-32.89-31.05-3.83-8.34-8.51-16.2-14.41-23.14-5.23,6.27-16.35,17.35-7.17,25.03,17.75,7.85,34.53,18.57,46.33,34.4,6.69,20.89,4.99,43.66,11.92,64.54-25.41,11.02-52.04,23.63-66.93,48.41-15.38-14-30.7-29.9-35.63-50.78-8.21-24.23-18.48-56.26-47.3-61.44,6.32,11.08,13.98,21.25,21.46,31.6,12.89,17.11,15.14,39.52,27.05,57.18,6.75,9.13,14.89,17.17,22.74,25.45-12.4,10.47-23.28,22.59-32.89,35.68-27.9-27.4-67.79-17.54-102.62-23.26-14.89,3.47-9.61,15.71-2.19,23.63,8.51-3.53,16.48-9.07,25.9-10.05,26.14.06,55.87-2.86,75.63,17.96-4.07,19.24-6.32,39.15-13.37,57.66-6.2,3.47-12.77,6.03-19.76,7.67-22.37-1.04-45.47-20.7-66.81-8.4,3.34,16.26,17.51,18.45,30.15,10.05,16.9,3.71,33.92,7.25,50.7,11.75,2.19,9.56,2.31,19.06-8.15,23.81-30.64-7.31-58.18,13.03-88.7,10.59-6.75,7.49-5.23,12.54,4.62,15.16,27.36-9.68,55.14-27.58,85.23-18.45.06,35.62,2.55,71.24,7.9,106.5-23.34,10.72-51.25,25.94-76.05,10.78-22.98-12.24-62.5-25.27-76.72,5.24,29.12-15.71,61.95-7.55,89.31,7.67-13.86,19.06-41.1,29.65-44.74,54.74,22.37-14.98,35.93-40.37,60.25-52.73,17.02-6.52,35.56-9.26,51.74-18.08,10.82,19.24,20.97,38.85,31.13,58.52-25.72,14.13-49.79,32.27-63.89,58.7-4.32.61-13.01,1.83-17.33,2.44-1.34,8.1-7.36,17.6-1.22,25.09,7.78,3.47,19.21,1.16,19.45-9.07,4.19-17.9,18.91-29.9,30.4-43.23,20.49-22.96,52.77-31.3,71.07-56.69,4.13,3.71,8.27,7.49,12.46,11.26-16.6,24.6-38.79,48.35-36.42,80.38-6.5,7.37-10.27,16.44-8.57,26.43,8.39-2.25,21.52.43,22.8-11.51-6.57-19.06-11.85-41.83,6.57-56.26,27.17,10.23,63.83,4.45,82.5,30.38-11.67,25.15-10.46,53.46-14.71,80.25-6.5,19.3-21.58,33.49-39.03,43.11-2.01,9.32,2.67,22.59,13.98,21.98,14.59,1.22,15.44-17.78,13.62-28.13,9.48-17.29,20.55-34.28,23.95-54.07,3.83-20.64,5.41-41.89,12.77-61.74,4.62-12.54,8.51-29.17,24.93-30.08,6.32,19.3,6.81,39.76,5.53,59.92-2.74,6.27-11.92,14.25-5.11,21.19,2.61,9.8,17.27,1.16,15.81-6.45-4.8-17.29-4.8-35.19-3.53-52.91,22.01-10.17,46.75-7.06,70.22-6.58,23.1,31.54,38.3,70.57,28.51,110.03-4.26,5.78-9.91,11.39-9.91,19.18,8.63,9.07,26.57,10.78,32.59-2.01,3.28-9.26-8.45-12.6-13.13-18.21,0-21.01,6.75-43.35-2.67-63.33-9.18-20.82-19.58-42.5-36.72-57.79,18.12.3,34.29-9.8,51.55-14.07,4.5,15.77,15.93,28.25,24.93,41.59-.18,4.14-.61,12.42-.79,16.56,4.26.43,12.83,1.4,17.08,1.89-.55-3.17-1.7-9.5-2.25-12.6-15.38-14.74-24.5-33.92-34.83-52.12,12.4-14.67,28.76-25.21,41.7-39.34,22.25,20.89,46.69,39.27,70.16,58.76,22.43,21.74,16.66,69.96,53.01,76.17-22.98-18.63-33.92-47.01-38.24-75.57,10.64.55,21.34.97,31.98,2.5,14.17.37,21.64,16.99,36.17,16.44,5.78-7,1.03-15.59.18-23.2-5.9,1.16-11.73,2.44-17.57,3.65-19.45-9.56-41.34-11.57-62.13-5.42-15.62-12.97-30.64-26.61-45.29-40.61,20.12-21.86,46.93-40.31,54.17-70.94,27.97,10.23,48.7,35.01,66.45,58.15,9.48-1.28,20-5.66,15.08-17.35-27.84-4.08-43.1-29.78-66.33-42.68-17.75-10.29-38.85-11.39-58.73-13.7.73-8.4,1.46-16.74,2.19-25.09,33.13,14,68.15,22.53,103.59,28.25,9,7.98,27.48,14.92,30.28-2.62-6.81-14.74-22.19-11.69-33.5-4.81-32.46-9.68-65.35-18.33-96.18-32.7.91-21.74,1.76-43.6-.43-65.34-.12-4.45-.3-13.27-.36-17.72,30.88-10.29,61.71-22.83,94.41-26.06,9.48-11.81-4.92-19.49-15.44-18.08-1.88,3.41-5.53,10.11-7.36,13.46-12.1,3.04-24.07,6.52-35.93,10.11-17.08-14.19-24.07-35.86-33.86-54.98,15.32-12.3,30.34-24.9,45.53-37.33,31.73,3.23,62.07-7.06,90.77-19.42-.18-3.41-.49-10.29-.67-13.76-3.65-.06-10.94-.24-14.59-.3-12.16,30.45-52.71,25.82-79.52,25.27,6.02-22.35,21.28-39.76,34.29-58.21-26.38,11.26-45.35,39.21-39.94,68.5-25.78,17.29-52.47,33.43-76.54,53.1-10.88-18.08-26.99-32.03-38.79-49.32,18.12-28.25,34.96-58.39,60.98-80.31,11.43-11.2,24.32-21.43,40.79-23.38,1.03-11.39,1.76-28.01-13.25-29.78-14.53.55-11.31,17.48-13.31,27.46-19.15,16.32-41.34,30.38-54.23,52.67-9.73,16.38-19.45,32.76-29.36,49.08-3.77-1.77-11.43-5.3-15.2-7,9.73-24.36,24.74-46.28,33.38-71.06,6.87-20.4-4.26-45.24,11.98-62.11,8.39-7.19-4.13-15.04-6.26-22.04-5.05,4.2-9.67,8.77-13.86,13.7,5.29,25.82,5.9,52.97-.91,78.61-7.11,18.02-17.57,34.53-28.03,50.78-9.67-.37-19.33-.85-29-1.46,1.09-9.38,2.37-18.69,3.71-28.01,3.47-12.06,9.36-26.67-1.16-36.96-2.55,9.99-4.8,20.09-6.99,30.2-25.72-6.58-52.34-7.25-78.73-6.27-2.61-30.26,9.91-59.25,18.72-87.62,2.86-13.82,24.38-21.43,17.57-36.6-5.35-7.49-17.57-15.89-25.66-7.37Z"/>
  <path class="cls-4" d="m133.92,1370.14c0,36.6.12,73.13-.12,109.72-8.88,1.4-17.75,2.56-26.51,4.51,4.56,13.7,27.6,10.72,36.42,3.47,3.34-22.53.79-45.42,1.7-68.14,13.62,22.77,27.24,47.31,50.64,61.38,1.46-1.77,4.32-5.36,5.71-7.19-14.35-14.55-30.46-27.77-40.18-46.22,12.04-9.99,23.65-20.46,34.47-31.78-17.45-12.42-26.38,15.83-41.46,21.07-5.41-15.59-9.18-31.66-10.4-48.16-2.55.37-7.72,1.04-10.27,1.34Z"/>
  <path class="cls-4" d="m238.3,1369.04c0,8.77.06,17.54.12,26.37-5.11.12-15.38.43-20.55.61,2.37,8.83,8.88,12.48,19.64,10.9-6.26,16.87-14.04,33.12-21.52,49.5,14.65,2.13,15.2-16.5,22.31-25.09.24,22.1-.43,44.21.73,66.31,2.13-1.77,6.44-5.3,8.63-7.06,1.22-19.85-.06-39.76.43-59.61,4.13,3.53,12.46,10.59,16.6,14.13,4.26-16.2-17.63-23.2-17.87-38.85,5.53-.43,16.66-1.34,22.19-1.83-4.19-8.1-13.44-8.65-21.34-10.53.18-8.28.36-16.5.55-24.72l-9.91-.12Z"/>
  <path class="cls-4" d="m361.84,1377.02c.06,2.25.18,6.82.3,9.07h20.49c1.7,12.54-3.71,18.69-16.17,18.33.24,28.92-.97,57.91,1.16,86.83,20.12.24,40.67-2.74,60.43,2.07,8.63-4.32,17.02-8.95,25.35-13.76,11.06,4.63,23.71,19.55,35.69,8.1-9.18-4.69-18.36-9.07-27.72-13.27,8.75-14.55,12.52-32.7,26.63-43.35-8.57-6.88-16.23-15.83-27.78-17.41,7.48-7.55,15.56-9.56,23.83-1.28.18-14.74-12.1-28.31-25.17-33.61,2.19,6.27,4.5,12.48,7.05,18.63-6.63.61-19.88,1.83-26.51,2.37,5.17-11.08,15.93-20.76,13.98-34.04-12.04,13.46-26.02,27.1-31.31,44.75,13.13-.55,26.02-2.56,38.66-5.97-.55,3.65-1.7,10.9-2.25,14.55,5.05,3.78,15.14,11.39,20.18,15.16-9.73.61-19.33,1.52-29,2.68-2.13-2.56-6.38-7.79-8.57-10.41-6.63,12.91-14.71,24.9-23.47,36.47-.36-6.52-1.03-19.61-1.4-26.18,14.59-1.16,26.69-12.06,31.19-25.7-11.55,4.45-21.1,12.42-30.64,20.03.12-8.83.18-17.66.24-26.43-11.85-.37-17.33-6.33-16.29-17.84,6.75-2.56,25.41,3.96,19.15-9.44-19.33-.85-38.73-.06-58.06-.37Z"/>
  <path class="cls-4" d="m1268.27,1372.75c-11.49,2.92-5.23,20.28,5.29,18.02,12.58-2.07,6.08-22.29-5.29-18.02Z"/>
  <path class="cls-4" d="m272.29,1378.72c-.67,2.07-2.01,6.21-2.67,8.28,13.01.18,26.02.18,39.03.79-14.35,12.73-31.8,21.19-46.02,33.98,4.07,1.46,12.22,4.26,16.29,5.66,5.47,18.82-28.21,30.2-17.45,48.47,15.75-12.85,23.53-31.85,31.86-49.75l9.97-1.16c2.74,25.7-16.23,47.43-33.5,64.3,2.8.79,8.39,2.31,11.19,3.11,21.1-16.32,28.63-42.38,35.81-66.8,2.92.3,8.75.85,11.73,1.16-1.09,17.84-2.19,35.74-5.96,53.28-7.96.24-15.93.55-23.89.85,2.67,15.71,27.42,12.91,34.11,2.07,5.11-21.86,4.92-44.57,6.2-66.92-16.05-.12-32.1.06-48.09-1.04,12.16-14.07,36.6-17.17,40.67-37.14-19.7-.18-39.64-1.77-59.27.85Z"/>
  <path class="cls-4" d="m80.97,1402.41l-2.61,7.61c11.25,4.81,24.01,1.95,35.93,3.11-7.48,24.36-21.89,45.49-38.97,64.12,2.86.67,8.45,2.07,11.31,2.74,20.73-20.95,35.69-48.53,37.69-78.37-14.41-.06-28.94-.79-43.35.79Z"/>
  <path class="cls-4" d="m834.87,1501.66c-3.16,19.42-1.4,39.09-.12,58.58-50.4,3.78-101.22,2.92-151.38,9.26-10.46,10.78-2.8,30.32-4.62,44.69.73,9.32,1.46,18.75,2.25,28.13,53.13,3.41,106.09-3.17,159.16-3.65-.12,11.57.12,23.14.18,34.77,2.49,7.85,0,22.83,12.83,21.19,19.7.73,42.8,5.85,59.4-7.67,43.1-30.51,87.91-58.52,132.47-86.71,9.18-3.65,6.75-13.58,1.95-19.79-52.22-23.81-102.44-51.82-154.11-76.54-18.85-4.87-38.79-1.7-58-2.25Z"/>
  <path class="cls-4" d="m1835.24,1540.2c-35.75,3.17-71.92,4.32-107.61.3-9.61-.3-19.82-4.69-29-.49-5.23,16.38,15.75,10.11,24.32,12.91,45.96,2.13,91.92-5.6,137.82-1.04,8.51-6.64,6.57-21.43-4.13-24.66-9.97-1.46-15.99,6.09-21.4,12.97Z"/>
  <path class="cls-4" d="m272.29,1538.62c-.3,12.54-.55,25.15-.79,37.75-13.31-.12-26.63-.3-39.94-.3.67,7.73,1.46,15.59,2.31,23.38,12.34.06,24.68.37,37.08.73-.18,12.6-.36,25.33-.43,38,7.3,0,14.59.12,21.89.18.24-12.73.85-25.45,2.25-38.06,12.46.43,24.93.73,37.39.97,0-5.91-.06-17.72-.06-23.63-12.34-.24-24.74-.43-37.08-.55.24-12.6.49-25.21.73-37.75-5.84-.18-17.51-.55-23.34-.73Z"/>
  <path class="cls-4" d="m529.93,1693.28c-11.37.3-22.74.49-34.11.67.67,35.19-1.34,70.45,1.28,105.58,2.74-2.8,8.27-8.46,11-11.33,19.94-.55,39.88-.67,59.82-.43,9.18-2.31,14.65,6.09,21.34,10.41,6.38-34.34,3.34-70.02,1.28-104.79-15.56.3-31.07.3-46.63.67.67-4.08,2.01-12.24,2.61-16.32-10.33-11.51-13.19,8.89-16.6,15.53Z"/>
  <path class="cls-4" d="m177.69,1700.29c-.36,28.5.12,56.93-.06,85.37,2.92-.06,8.75-.18,11.73-.24-.49-19.06-2.43-38.85,5.53-56.81,9.97-.12,25.17-4.93,28.57,9.01,2.31,15.65-.06,31.6,2.01,47.37l9.24,3.78c-1.16-21.49,5.23-45.3-5.84-64.91-10.94-12.36-27.78-6.09-40,.3.12-13.03.73-26.06-.79-39.03-9.36-3.96-10.46,8.83-10.4,15.16Z"/>
  <path class="cls-4" d="m349.19,1681.47l.06,9.01c17.39-.12,34.77-.12,52.16.55-.18,10.35-.43,20.76-.67,31.18-7.54-2.74-14.96-5.6-22.37-8.59-1.82-6.88-3.89-13.58-6.69-20.09-6.63,15.83-15.38,30.57-24.38,45.12,11.49-1.28,17.39-11.2,24.99-18.45,29.12,18.08,63.47,12.6,95.81,9.32-14.23-15.28-39.03-2.68-57.39-7l.49-10.23c11.43-.18,22.98.49,34.35-.91,7.6-8.65,14.17-18.39,17.08-29.65-37.81-.43-75.63-.12-113.44-.24Z"/>
  <path class="cls-4" d="m.72,1686.95c-1.28,33.25-.43,66.55-.61,99.8l10.58-.06c.12-24.97-.06-49.93.12-74.9,17.45,20.82,31.67,44.08,47.91,65.88,3.89,5.3,9.06,8.95,15.56,10.9.55-33.12.49-66.25,0-99.31-2.49.12-7.48.49-9.97.61-.97,24.36,2.43,49.08-2.67,73.13-14.53-19.91-28.33-40.31-42.62-60.34-4.32-7.12-10.58-12.54-18.3-15.71Z"/>
  <path class="cls-4" d="m261.34,1689.69c-.06,33.19-.67,66.37.43,99.56,20.43-3.65,7.72-28.38,11.13-42.26,5.05.18,15.2.49,20.31.67,12.71,14.07,18.3,40.61,41.1,40.01-9.18-14-19.15-27.4-28.39-41.34,15.62-8.04,23.89-26.49,15.08-42.75-13.68-19.12-39.7-12.48-59.64-13.88Z"/>
  <path class="cls-4" d="m100.3,1736.39c9.79-2.86,18.6-10.35,29.06-9.56,10.4-.12,11.25,11.93,15.81,18.57-16.29.79-39.46-3.47-47.6,15.28-6.57,23.5,24.5,34.53,40.79,22.16,3.71,1.04,11.06,3.11,14.71,4.14-.43-17.9,1.28-36.05-1.52-53.77-6.32-23.99-48.21-21.86-51.25,3.17Z"/>
  <path class="cls-4" d="m362.02,1742.36c.12,9.13.24,18.33.36,27.58,13.25-.12,26.45-.12,39.64-.06l-.12,13.46c-16.66.55-33.38-.24-49.91,1.28-1.52,2.07-4.62,6.27-6.14,8.34,39.21,3.11,79.4-8.34,117.76,2.74-3.89-8.1-9.24-15.28-14.77-22.23,1.52-10.29,2.25-20.7,2.86-31.05-14.96-.3-30.4,1.4-44.68-4.02-14.47,5.24-29.91,3.84-44.99,3.96Z"/>
  <path class="cls-4" d="m1644.29,1883.57c-6.5,12.48,15.38,26.85,19.03,11.81,6.87-13.7-10.03-17.48-19.03-11.81Z"/>
  <path class="cls-4" d="m2009.84,1153.73c11.37.73,33.92-.55,32.34,16.44.06,16.5-20.91,14.25-32.1,15.41-.24-10.66-.24-21.25-.24-31.85Z"/>
  <path class="cls-4" d="m1841.44,1179.98c8.15-1.28,11.31,8.4,16.11,13.03-10.82.43-21.64.43-32.4,0,5.29-4.32,8.39-13.15,16.29-13.03Z"/>
  <path class="cls-4" d="m404.27,1411.06c8.45,2.86,6.02,18.94,2.49,25.7-9.3-1.77-7.42-19.61-2.49-25.7Z"/>
  <path class="cls-4" d="m391.44,1408.8c4.56,10.11,3.71,21.25,3.83,32.03,3.34,1.7,10.09,5.11,13.44,6.76-.18,3.04-.55,9.07-.73,12.06-11.79-.24-23.59-.43-35.38-.91,13.44-13.58,16.35-31.91,18.85-49.93Z"/>
  <path class="cls-4" d="m439.59,1446.43c8.63-.18,17.39-.24,26.08-.18-2.98,5.6-6.2,11.14-9.54,16.56-9.97.67-12.16-9.74-16.54-16.38Z"/>
  <path class="cls-4" d="m371.99,1480.17c2.13-18.51,22.25-11.26,35.08-11.14.85,2.86,2.67,8.59,3.53,11.45-12.89.49-25.78.43-38.6-.3Z"/>
  <path class="cls-4" d="m410.65,1690.54c13.01-.06,26.02-.12,39.03,0,1.58,22.96-25.53,9.86-38.6,13.52-.12-3.41-.3-10.17-.43-13.52Z"/>
  <path class="cls-4" d="m272.59,1736.52c.24-12.67.36-25.21.79-37.81,14.35,1.28,40.49-1.28,38.66,20.4.55,21.43-25.29,16.68-39.46,17.41Z"/>
  <path class="cls-4" d="m505.37,1703.82c25.53-.06,51.07-.06,76.66,0-.06,10.47-.06,20.95-.12,31.48-25.47.12-50.95.12-76.42-.06-.06-10.47-.12-20.95-.12-31.42Z"/>
  <path class="cls-4" d="m372.78,1762.09c-8.88-19.12,21.95-9.38,31.73-10.9-2.67,16.38-19.82,10.96-31.73,10.9Z"/>
  <path class="cls-4" d="m409.07,1751.43c10.33-.67,20.73-1.4,31.13-.55,10.94,16.93-31.13,17.35-31.13.55Z"/>
  <path class="cls-4" d="m505.49,1745.71c25.47-.12,50.95-.12,76.48,0v32.52c-25.53.06-51.07.06-76.6-.06,0-10.84.06-21.68.12-32.45Z"/>
  <path class="cls-4" d="m109.42,1761.66c8.15-12.06,23.65-6.82,35.26-5.42-4.01,7.55-3.89,20.52-14.77,21.62-10.27,5.11-26.02-3.71-20.49-16.2Z"/>
  <path class="cls-4" d="m411.32,1770.07c9.12-.18,18.36-.3,27.54-.43-.06,3.29-.18,9.93-.3,13.21-8.94-.06-17.87-.06-26.81,0-.12-3.17-.3-9.56-.43-12.79Z"/>
  <path d="m892.2,34.5c79.58-48.83,186.46-44.63,264.64,5.05,264.94,146.44,530.06,292.64,795.12,438.78,21.95,13.52,47.72,27.52,57.02,53.22,5.53,34.28.06,69.05-.43,103.51-1.88,31.48.91,68.81-24.26,92.25-284.7,154.97-569.28,310.24-853.97,465.14-42.86,23.02-93.74,28.44-140.92,18.02-26.57-6.94-49.91-21.74-73.62-34.95-119.64-66.86-239.83-132.74-358.68-200.94.3-2.68.85-7.98,1.09-10.66,4.99-3.78,9.91-7.55,14.89-11.33.97.79,2.92,2.31,3.95,3.11,21.1,18.15,46.63,29.71,70.64,43.35,103.11,57.42,206.21,114.78,309.26,172.26,19.15,10.78,38.85,20.52,59.33,28.62,4.92-39.7,4.19-79.77,6.32-119.65-51.43-6.82-96.48-34.04-140.8-59.19-99.88-55.84-199.28-112.77-299.65-167.81-3.77-9.01-8.09-19.3,2.13-25.82,115.2,64.67,230.23,129.64,345.55,194.06,33.92,17.05,66.63,39.58,105.17,44.33,23.04,2.92,42.62-12,62.01-21.92,270.05-147.54,540.28-294.77,810.44-442.13,18.06-10.29,37.69-18.51,53.13-32.76,9.48-9.19,17.51-24.11,10.03-36.9-12.22-25.82-39.88-38.18-63.59-51.15-265.31-146.26-530.43-292.76-795.79-439.02-25.05-14-52.47-24.42-81.16-27.28-32.46-3.04-64.56,7.43-92.83,22.59C663.13,187.21,389.38,337.86,115.07,487.4c-12.4,6.76-18.42,20.03-25.35,31.6,8.33,23.14,24.14,43.11,45.23,55.84,120.43,68.38,241.78,134.99,361.79,204.11-5.65,5.18-10.94,10.72-16.29,16.26-113.14-62.84-225.67-126.9-338.68-189.98-17.51-9.32-34.59-19.49-51.07-30.57-.36,32.15-3.22,64.42-.43,96.51,8.02,30.51,41.22,40.98,65.96,54.38,107.73,60.34,216.18,119.41,323.36,180.66,8.33,5.42,16.41,11.08,24.8,16.38-5.9,4.08-11.49,8.4-17.39,12.48-18.6-6.33-34.59-18.21-51.92-27.22-105.96-58.52-211.2-118.37-317.59-176.16-30.34-12.54-66.2-34.46-65.66-71.79,1.03-46.64,1.88-93.35,3.65-140.05.36-20.95,17.45-36.17,34.41-45.73C357.34,327.63,624.89,181.31,892.2,34.5Zm202.44,1036.97c-11.37,4.69-23.71,6.15-35.44,9.5-3.95,39.27-2.55,78.98-6.38,118.37,25.47-5.66,48.7-17.84,71.43-30.26,270.35-147.54,541.07-294.47,811.24-442.25,17.87-7.61,30.88-23.5,32.83-43.05,2.01-30.32,4.5-60.59,5.53-90.97-293.82,158.07-586.05,319.31-879.2,478.66Z"/>
  <path d="m965.28,72.5c35.93-18.39,80.55-13.58,115.02,6.03,49.97,27.89,100.67,54.44,150.4,82.69-52.47,31.36-107.54,58.09-160.8,87.99,10.21,6.27,22.19,19.67,34.53,9.93,40.61-21.98,81.04-44.51,121.53-66.74,15.2-8.28,34.53-15.77,50.82-5.72,50.58,27.83,101.04,55.84,151.07,84.64-37.21,26.43-78.79,45.91-118.18,68.75,18.42,10.96,37.15,21.56,55.63,32.45,36.42-19,70.83-41.47,106.75-61.32,12.83-8.22,27.72-.67,39.46,5.85,46.14,25.94,92.95,50.72,139.1,76.66-60,35.62-121.59,68.62-182.5,102.66.91,9.26,1.88,18.57,2.86,27.83,65.78-34.28,131.19-69.11,196.97-103.39,16.48-8.95,37.02-6.03,52.77,3.04,40.37,22.89,79.7,47.62,120.55,69.6,13.56,33.73-1.4,76.3-34.47,92.13-100.55,53.46-200.62,107.84-300.93,161.6-12.65,7.85-28.63,8.28-41.22.12-41.83-24.11-82.68-49.87-124.32-74.29-9.54,5.66-19.09,11.33-28.57,17.05,30.34,22.35,63.23,40.8,93.56,63.02,11.25,7.37,9.06,22.1,10.94,33.61-98.3,52.91-195.82,107.29-293.57,161.3-34.35,23.63-78.18,16.26-117.51,19.55-95.93-56.45-194.78-108.08-291.87-162.64-12.65-7.98-21.22-20.64-30.34-32.15-1.58-2.07-4.68-6.27-6.26-8.34,34.41-22.1,69.61-42.99,104.69-64.12-6.38-4.38-12.65-8.77-19.15-12.91-7.9-4.81-15.87-9.38-23.89-13.94-7.96-4.38-15.81-9.13-24.44-12.06-35.93,15.59-69.12,37.08-104.02,54.8-27.9,8.59-53.01-10.23-76.3-22.65-35.81-21.25-74.47-37.75-108.09-62.53,54.23-31.36,109-61.8,163.41-92.8-1.52-4.69-4.56-13.94-6.08-18.57-53.99,28.01-107.54,56.81-161.16,85.37-15.81,9.13-36.11,13.27-52.83,4.08-36.11-18.51-71.19-38.97-107.24-57.66-18.72-9.01-31.92-29.41-32.1-50.17,3.95-20.09,21.89-33.92,38.73-43.6,87.06-46.76,173.87-94.08,260.75-141.27,14.53-7.61,28.39-17.29,44.44-21.62,15.14-2.5,28.39,6.88,41.28,13.34,28.88,16.44,58.3,31.85,87,48.71,1.16,2.31,3.53,6.88,4.68,9.13-3.65,1.77-11.06,5.24-14.77,7-3.28,1.95-9.79,5.78-13.07,7.73-2.49,3.35-4.99,6.76-7.11,10.35,11.79,7.43,20.55,30.75,36.84,18.75,5.9-3.04,11.73-6.27,17.57-9.5l7.3-4.02c5.29-3.04,10.52-6.21,15.81-9.32,2.37-1.34,7.17-4.08,9.54-5.48,3.47-2.01,10.52-6.15,14.04-8.16,2.61-1.52,7.84-4.51,10.46-5.97,3.34-1.83,10.03-5.42,13.31-7.25,4.86-2.62,9.73-5.11,14.59-7.67,2.92-1.52,8.63-4.63,11.55-6.15,2.61-1.58,7.78-4.63,10.4-6.21-.12-2.19-.3-6.58-.43-8.77-7.36-5.48-14.53-11.2-21.52-17.11-5.9,1.04-11.73,2.25-17.57,3.53-6.44,2.98-12.71,6.33-18.97,9.62l-7.23,3.71c-2.92,1.52-8.75,4.57-11.61,6.09-2.61-1.4-7.84-4.26-10.52-5.66-37.39-20.95-74.47-42.44-110.89-65.09,109.49-66.13,222.14-127.02,331.21-193.88Zm9.24,15.83c-102.5,59.67-205.67,118.31-307.8,178.59,34.17,17.96,66.08,40.19,100.8,56.99,19.09-8.34,36.9-19.18,54.71-29.84l-2.43,9.01c-.24,3.23-.73,9.56-.97,12.79,2.8-.24,8.39-.79,11.19-1.04,4.68,6.82,9.06,14.13,15.81,19.24,6.26-3.84,11.49-8.83,15.75-14.92-10.21-2.98-18.66-9.19-25.29-17.41l-7.36-.43c5.41-4.38,11.13-8.34,17.08-11.81l-2.31,4.51c7.3,9.86,19.88,14.55,28.76,23.2,6.38-2.86,12.52-6.27,18.42-10.11-8.88-3.78-16.84-9.01-24.38-14.86l-4.62-.37-.06-8.89-11.43,4.14c6.81-3.65,13.74-7.12,20.67-10.59l-6.26,5.97c14.59-.61,25.41,9.44,30.64,22.1,5.23-2.68,15.81-7.98,21.03-10.66-12.34-5.48-23.95-12.6-32.89-22.96l-8.39,3.35c6.63-3.71,13.44-7.37,20.49-10.47l-6.02,6.64c10.03,1.4,22.07,2.8,23.41,15.28,8.57,1.64,17.08,1.04,24.99-3.11-2.61-2.07-7.84-6.33-10.46-8.46-6.99-4.93-13.74-10.05-20.61-15.16,4.32-.97,8.69-1.7,13.07-2.56,15.14,8.65,29.79,25.45,47.84,10.84,3.89-2.74,7.78-5.42,11.73-8.04,18.97-16.74,44.14-18.57,68.15-18.15,49.24-24.66,97.33-51.82,145.97-77.76-.73-1.16-2.13-3.47-2.86-4.63-28.21-17.41-58.24-31.72-87.06-48.16-26.45-13.7-51.61-30.99-80.92-38.06-17.81-3.65-33.56,7.73-48.39,15.77Zm177.82,163.74c40.91,22.83,81.22,46.76,122.8,68.2.73,2.44,2.13,7.31,2.8,9.68-13.68-7.49-27.36,3.04-40.73,5.36.79,3.65,2.43,11.02,3.22,14.67l6.32.12c6.87,5.3,13.8,10.47,20.79,15.59,9.79,4.75,18.91,11.57,29.67,13.88,10.52-5.18,20.79-10.96,31.49-15.95-5.65-9.8-16.41-14.25-25.53-20.03l-.73.49c-5.11-2.19-15.38-6.64-20.49-8.89l.18-10.9c3.16,1.16,9.42,3.41,12.52,4.51,33.98-17.78,66.93-37.45,100.61-55.84-45.53-27.4-92.41-52.61-138.98-78.12-34.41,19.49-69.37,38.06-103.96,57.24Zm-127.36,1.89c-120.74,64.24-239.83,132.01-359.9,197.65-11.79,5.11-32.1,21.92-14.71,33.19,120.92,68.32,243.54,133.78,364.7,201.73,11.61,6.7,26.32,12.97,38.73,4.63,113.87-62.53,226.82-126.9,340.45-189.86,9.85-6.27,22.92-11.33,26.14-23.87,1.34-10.9-10.64-15.77-17.87-20.89-115.99-64.54-231.63-129.76-347.44-194.61-9.36-3.78-19.64-11.87-30.09-7.98Zm115.39,6.76-24.01,12.18c1.34,9.56,16.11,2.31,18.36-3.78-1.46-9.07-15.99-1.77-18.36,3.78Zm17.02,10.29c6.81,9.74,27.72-3.11,27.42-13.34-9.67-2.56-21.16,6.45-27.42,13.34Zm28.76,3.71c-3.28,2.07-9.85,6.15-13.07,8.16,14.17,14.86,26.99-1.95,40.85-7.98-3.59-2.5-10.7-7.43-14.29-9.93-3.34,2.44-10.09,7.31-13.5,9.74Zm16.29,11.93c-.55,3.17-1.7,9.5-2.31,12.67,5.17,1.77,10.33,3.59,15.5,5.48-.49-1.58-1.52-4.63-2.01-6.21,7.96-2.74,17.45-7.79,16.78-17.96-9.36-4.87-18.66,4.69-27.97,6.03Zm36.66,6.64c-7.84,2.56-13.68,7.25-17.51,13.94,6.44,15.16,38.91-17.35,17.51-13.94Zm-918.78,156.18c-17.57,10.41-40.49,22.65-40.55,46.09,3.22,16.62,15.56,30.32,30.46,37.81,35.02,18.75,69.73,38,104.81,56.69,55.26-29.17,110.34-58.58,165.6-87.74,14.65-9.19,36.17-13.82,40.98-32.94-4.99-10.41-18.66-12.48-27.48-18.94,13.07-2.31,23.65,5.97,34.23,12.12,5.65-5.11,11.37-10.23,17.08-15.34,4.86-3.71,9.67-7.49,14.47-11.33,3.4-.97,10.09-2.8,13.5-3.78,4.56-4.81,7.42-10.53,8.33-17.11-9.85-2.07-16.11-10.05-23.77-15.71l5.29-.37c0-4.14.06-12.54.12-16.68,16.66-8.1,32.83-17.23,48.94-26.43-36.29-19.79-72.47-39.94-108.76-59.79-94.6,50.84-188.77,102.42-283.24,153.44Zm939.39-146.87c-6.5,5.91-14.35,8.71-23.41,8.4,3.53,25.63,28.15,2.68,42.37,1.95-3.34-8.77-10.64-10.84-18.97-10.35Zm148.28,68.14c34.11,19.06,69.43,36.47,101.59,58.76-13.19,6.94-26.75,13.21-40.12,19.85,4.5,6.94,9.61,13.52,14.59,20.22,51.61-29.84,105.05-56.63,155.45-88.41-43.1-23.5-86.08-47.25-129.31-70.63-34.04,20.09-68.51,39.46-102.19,60.22Zm-63.04-9.8c-6.63,2.37-13.19,4.87-19.76,7.37,10.09,11.39,23.89,9.01,35.02.55l.55-4.69c3.83-.43,11.37-1.16,15.2-1.58-4.62-2.86-13.74-8.71-18.3-11.63-3.16,2.5-9.54,7.49-12.71,9.99Zm23.65,10.9c-6.2,2.8-12.46,5.48-18.79,7.92,4.44,3.47,9,7,13.44,10.53,2.55,1.58,7.6,4.69,10.15,6.21,10.4,7.12,22.8,8.28,32.22-1.1,3.65-.67,10.82-2.07,14.41-2.74-3.28-4.63-7.05-8.83-11.31-12.48-2.67-2.86-7.96-8.59-10.64-11.39l-1.7.97c-9.79-5.3-19.33-5.18-27.78,2.07Zm-697.85,12.79c.79,3.53,2.49,10.66,3.34,14.19,9.36,1.28,12.1,9.07,13.8,17.23,10.4-.55,19.39-5.36,26.99-12.36-4.99-1.46-15.02-4.38-20-5.85-4.07-4.99-7.9-10.17-11.49-15.47-3.16.55-9.48,1.7-12.65,2.25Zm730.32,17.66c1.88,10.84,8.63,17.48,20.31,19.91-3.28-15.53,11.43-15.04,21.52-17.66-7.54-20.64-27.9-3.11-41.83-2.25Zm22.98,12.48c-.12,10.72,4.38,15.41,13.5,14.19,3.28,3.65,6.57,7.31,9.91,11.02,16.48,8.52,30.94-5.91,45.29-11.63-3.4-1.95-10.21-5.85-13.62-7.79-4.8-3.41-9.54-6.76-14.23-10.11-13.86-8.95-27.48.3-40.85,4.32Zm63.35,119.04c-6.38,9.19-12.77,18.33-18.97,27.64,9.97,6.7,34.35,8.71,33.68,22.83-39.58,23.75-81.1,44.27-120.49,68.44,44.01,22.16,84.63,50.3,127.61,74.41,100.37-53.77,200.5-108.02,300.93-161.66,28.09-12.67,40.79-49.5,30.82-77.88-41.7-23.99-83.17-48.53-124.75-72.76-76.72,38.85-151.74,80.86-228.83,118.98Zm-844.85-57.05c-5.65,16.68-13.68,37.75,2.07,51.7,8.57-6.33,16.9-13.09,26.38-17.96,9.24-2.31,17.02,5.24,25.17,8.46,100.8,55.47,201.59,110.94,302.51,166.35,19.7,6.21-1.34,27.71,5.65,40.98,19.58,13.64,43.41,23.63,67.66,21.98,19.51-.97,34.29-16.56,53.62-18.27,1.76,3.53,5.29,10.72,7.05,14.25-46.26,22.1-102.38,21.25-145.78-7.31-14.23,8.1-27.66,17.78-42.86,24.05-13.44,0-24.07-10.66-35.81-16.14-28.57-15.22-55.44-34.22-85.11-47.01-31.49,17.54-61.34,37.81-92.41,56.08,10.09,14.07,20.97,28.44,36.9,36.29,87.3,48.23,174.72,96.21,261.84,144.74,23.1,14.67,52.95,7.55,78,2.62,102.74-55.35,204.45-112.83,307.13-168.36-2.01-8.04-.3-18.88-9.18-23.14-29.55-19.49-58.91-39.15-88.76-58.15-47.18,26.79-94.78,52.97-142.08,79.64-3.16-1.28-9.48-3.71-12.58-4.93,3.4-1.7,10.33-5.11,13.8-6.82,7.78-4.14,15.75-8.1,23.65-12,3.89-2.37,11.61-7.12,15.44-9.5,3.77-1.95,11.19-5.78,14.96-7.67,5.71-3.17,11.43-6.33,17.14-9.5l9.24-2.92c7.48-4.38,15.02-8.65,22.74-12.73-1.7-2.86-5.05-8.52-6.69-11.39,2.67,2.19,7.96,6.52,10.58,8.71,14.29-8.28,28.69-16.38,43.22-24.11l-.79-2.74c.67-2.56,2.01-7.79,2.67-10.41,7.36,2.86,17.87,8.22,22.31-3.47,2.61-.91,7.84-2.74,10.46-3.65,13.98-6.39,27.54-13.82,39.64-23.44l11.06-3.04c4.26-4.45,8.51-8.77,12.83-13.15l1.76,1.1c3.34-1.22,10.09-3.65,13.5-4.87,5.35-3.84,10.7-7.67,15.99-11.57l7.6.06c5.41-4.51,10.94-8.89,16.41-13.34,3.16-1.28,9.42-3.84,12.52-5.18-11.43-7.73-27.78-11.08-33.5-25.15,2.98-7.92,6.38-15.65,8.51-23.81-4.32-15.41-22.92-25.39-34.41-10.72l-9.67,4.2c-5.29,4.02-10.64,8.04-15.93,12.06-5.11,2.13-10.15,4.2-15.2,6.33-4.68,2.98-9.36,5.91-13.98,8.95l-10.15,3.04c-4.99,3.59-10.03,7.19-15.02,10.78l-11.73,4.87-.85-.79c-5.05,3.96-10.15,7.92-15.2,11.93-2.86.85-8.57,2.68-11.43,3.53-5.23,3.41-10.46,6.88-15.62,10.35l-10.21,2.56c-4.68,4.81-9.36,9.62-14.04,14.43-3.28.61-9.85,1.83-13.13,2.44l-.67-.49c-5.96,3.9-11.85,7.79-17.75,11.69l-10.82,3.71c-3.77,2.31-7.48,4.63-11.06,7-8.51,5.66-16.9,11.51-25.78,16.5-8.21,3.78-16.41,7.67-24.62,11.51l-2.13-1.04-3.53,5.66c-5.9,2.92-11.79,5.85-17.69,8.77l-5.05-2.44.97,7.73c-8.69,2.31-16.6,6.58-24.2,11.2-2.8-.67-8.45-2.13-11.25-2.86,105.17-61.5,213.45-117.82,319.78-177.56,12.58-9.86,27.9-5.48,41.95-1.83-1.03-10.35-2.07-20.64-3.04-30.93-113.68,61.44-225.73,125.86-338.68,188.46-19.45,9.8-37.75,26.73-61.04,24.17-29.12.43-53.62-17.11-78-30.57-92.95-51.09-185.85-102.3-278.8-153.38-22.13-11.63-42.98-25.76-66.51-34.59Zm16.17,55.23c-9.67,16.44-24.14,28.68-38.42,40.92,5.17,2.19,10.33,4.38,15.56,6.58,4.62,2.68,13.86,8.04,18.48,10.72,3.65,2.37,7.36,4.81,11.06,7.19,4.99,2.07,14.96,6.15,19.94,8.16l-3.95,4.87c6.32,1.64,11.49.24,15.62-4.2,2.13,4.08,6.32,12.18,8.45,16.26,4.8,1.7,9.73,3.53,14.59,5.36,4.92,2.86,14.71,8.52,19.64,11.39l-.61.43c4.01,2.07,8.09,4.08,12.16,6.15,4.62,2.8,13.92,8.34,18.54,11.14,4.8,2.68,9.61,5.36,14.41,8.1,4.19,2.5,12.52,7.49,16.66,9.99,4.56,2.86,9.12,5.72,13.68,8.59,14.89,7.73,30.09,4.45,43.47-4.63,1.82,1.22,5.59,3.59,7.48,4.81-4.19,1.28-12.52,3.78-16.72,4.99-3.59,11.93,5.41,15.83,14.53,19.18,5.17,4.08,10.33,8.16,15.44,12.42l11.31,3.04c4.32,2.98,8.69,5.97,13.13,9.01,2.92,1.46,8.75,4.45,11.67,5.97,2.61,1.52,7.96,4.69,10.58,6.27,17.69,17.29,38.18-4.08,52.77-15.1,11.79-8.89,25.23-31.66,8.57-41.59-4.99-3.04-10.03-6.09-14.96-9.19l-10.76-3.35c-5.35-3.23-10.7-6.39-16.05-9.44-6.63-3.23-13.19-6.45-19.7-9.68-8.63,5.36-17.39,10.41-25.84,16.01-.43-2.07-1.4-6.33-1.82-8.46,1.16-.91,3.59-2.68,4.8-3.53,4.38-1.7,13.07-4.99,17.45-6.64-7.42-4.57-14.77-9.07-22.25-13.4-5.29-3.59-10.58-7.19-15.81-10.84-5.84-2.98-11.61-4.51-17.33-4.63-4.5-4.38-9-8.83-13.5-13.15-17.81-12.36-32.95,2.5-47.24,11.75-.91-1.95-2.61-5.78-3.47-7.67,7.3-3.65,14.65-7.19,22.13-10.41-3.89-3.9-11.61-11.63-15.5-15.53l1.95-.55c-8.09-3.9-15.99-8.04-23.71-12.6l-13.44-4.81,1.64-.79c-6.63-3.96-13.19-7.79-19.76-11.75l-.43.43c-3.28-1.28-9.79-3.84-13.01-5.11-5.35-3.47-10.7-6.82-16.11-10.17-3.34-1.83-9.97-5.42-13.31-7.25-2.8-1.7-8.39-5.05-11.25-6.7-3.59-1.46-10.82-4.32-14.41-5.78l4.99-3.17c-11.55-1.52-24.74-.85-31.37,10.41Zm-176.73,87.62c44.01,26.37,89.79,49.63,134.48,74.77,34.71-18.82,70.1-36.6,103.84-57.18-36.48-21.13-73.8-40.8-109.37-63.33,4.07-13.34,20.67-19.06,29.42-29.59-3.47-1.22-10.46-3.71-13.92-4.93-49.24,24.36-96.12,53.89-144.45,80.25Z"/>
  <path d="m1991.54,1138.33c21.7,1.46,49.91-5.48,65.48,14.31,11.67,15.59,2.61,35.68-11.98,45.36,8.88,12.67,17.57,25.33,25.78,38.42-33.5,11.57-30.7-40.25-60.92-36.6-.12,12-.12,23.99-.06,36.05-4.68-.06-14.04-.18-18.72-.24.49-32.45-.06-64.91.43-97.3Zm18.3,15.41c0,10.59,0,21.19.24,31.85,11.19-1.16,32.16,1.1,32.1-15.41,1.58-16.99-20.97-15.71-32.34-16.44Z"/>
  <path d="m1901.57,1149.77c19.51-18.88,55.08-16.44,70.34,6.76-3.4,2.56-10.09,7.61-13.5,10.17-8.57-6.21-17.08-15.59-28.88-12.48-27.3,5.3-31.13,47.56-9.61,62.11,9.73,5.72,21.28,2.8,31.8,1.52.36-4.57,1.09-13.64,1.46-18.21-12.22,1.46-22.07-2.92-20.18-17.17,12.65-.12,25.35-.12,38.06-.12-.49,14.31,1.76,29.17-2.13,43.17-20.12,17.29-55.32,16.14-71.86-5.66-15.56-20.34-14.04-52.12,4.5-70.09Z"/>
  <path d="m2086.56,1138.51c20.91-.06,41.83-.06,62.8,0,0,4.08-.06,12.36-.06,16.44-14.41-.06-28.76-.06-43.1-.3-.06,8.52-.06,17.11,0,25.7,13.01-.18,26.02-.3,39.09-.37v16.81c-13.31-.06-26.51,0-39.7,0-.3,13.09-.43,26.12-.61,39.21-4.44,0-13.37.12-17.87.12-1.09-32.52-.36-65.09-.55-97.61Z"/>
  <path d="m1810.07,1213.59c-9.79-25.15,13.56-54.92,40.49-47.01,18.66,2.74,23.65,23.44,23.83,39.34-16.11.37-32.16.24-48.21.67,3.89,17.9,21.16,17.11,34.04,9.86,3.16,1.34,9.42,3.9,12.58,5.24-14.23,23.75-56.23,19.85-62.74-8.1Zm31.37-33.61c-7.9-.12-11,8.71-16.29,13.03,10.76.43,21.58.43,32.4,0-4.8-4.63-7.96-14.31-16.11-13.03Z"/>
  <path d="m133.92,1370.14c2.55-.3,7.72-.97,10.27-1.34,1.22,16.5,4.99,32.58,10.4,48.16,15.08-5.24,24.01-33.49,41.46-21.07-10.82,11.33-22.43,21.8-34.47,31.78,9.73,18.45,25.84,31.66,40.18,46.22-1.4,1.83-4.26,5.42-5.71,7.19-23.41-14.07-37.02-38.6-50.64-61.38-.91,22.71,1.64,45.61-1.7,68.14-8.82,7.25-31.86,10.23-36.42-3.47,8.75-1.95,17.63-3.11,26.51-4.51.24-36.6.12-73.13.12-109.72Z"/>
  <path d="m80.97,1402.41c14.41-1.58,28.94-.85,43.35-.79-2.01,29.84-16.96,57.42-37.69,78.37-2.86-.67-8.45-2.07-11.31-2.74,17.08-18.63,31.49-39.76,38.97-64.12-11.92-1.16-24.68,1.7-35.93-3.11l2.61-7.61Z"/>
  <path d="m272.29,1538.62c5.84.18,17.51.55,23.34.73-.24,12.54-.49,25.15-.73,37.75,12.34.12,24.74.3,37.08.55,0,5.91.06,17.72.06,23.63-12.46-.24-24.93-.55-37.39-.97-1.4,12.6-2.01,25.33-2.25,38.06-7.3-.06-14.59-.18-21.89-.18.06-12.67.24-25.39.43-38-12.4-.37-24.74-.67-37.08-.73-.85-7.79-1.64-15.65-2.31-23.38,13.31,0,26.63.18,39.94.3.24-12.6.49-25.21.79-37.75Z"/>
  <path d="m529.93,1693.28c3.4-6.64,6.26-27.04,16.6-15.53-.61,4.08-1.95,12.24-2.61,16.32,15.56-.37,31.07-.37,46.63-.67,2.07,34.77,5.11,70.45-1.28,104.79-6.69-4.32-12.16-12.73-21.34-10.41-19.94-.24-39.88-.12-59.82.43-2.74,2.86-8.27,8.52-11,11.33-2.61-35.13-.61-70.39-1.28-105.58,11.37-.18,22.74-.37,34.11-.67Zm-24.56,10.53c0,10.47.06,20.95.12,31.42,25.47.18,50.95.18,76.42.06.06-10.53.06-21.01.12-31.48-25.59-.06-51.13-.06-76.66,0Zm.12,41.89c-.06,10.78-.12,21.62-.12,32.45,25.53.12,51.07.12,76.6.06v-32.52c-25.53-.12-51.01-.12-76.48,0Z"/>
  <path d="m177.69,1700.29c-.06-6.33,1.03-19.12,10.4-15.16,1.52,12.97.91,26,.79,39.03,12.22-6.39,29.06-12.67,40-.3,11.06,19.61,4.68,43.42,5.84,64.91l-9.24-3.78c-2.07-15.77.3-31.72-2.01-47.37-3.4-13.94-18.6-9.13-28.57-9.01-7.96,17.96-6.02,37.75-5.53,56.81-2.98.06-8.82.18-11.73.24.18-28.44-.3-56.87.06-85.37Z"/>
  <path d="m.72,1686.95c7.72,3.17,13.98,8.59,18.3,15.71,14.29,20.03,28.09,40.43,42.62,60.34,5.11-24.05,1.7-48.77,2.67-73.13,2.49-.12,7.48-.49,9.97-.61.49,33.06.55,66.19,0,99.31-6.5-1.95-11.67-5.6-15.56-10.9-16.23-21.8-30.46-45.06-47.91-65.88-.18,24.97,0,49.93-.12,74.9l-10.58.06c.18-33.25-.67-66.55.61-99.8Z"/>
  <path d="m261.34,1689.69c19.94,1.4,45.96-5.24,59.64,13.88,8.82,16.26.55,34.71-15.08,42.75,9.24,13.94,19.21,27.34,28.39,41.34-22.8.61-28.39-25.94-41.1-40.01-5.11-.18-15.26-.49-20.31-.67-3.4,13.88,9.3,38.6-11.13,42.26-1.09-33.19-.49-66.37-.43-99.56Zm11.25,46.82c14.17-.73,40,4.02,39.46-17.41,1.82-21.68-24.32-19.12-38.66-20.4-.43,12.6-.55,25.15-.79,37.81Z"/>
  <path d="m100.3,1736.39c3.04-25.03,44.93-27.16,51.25-3.17,2.8,17.72,1.09,35.86,1.52,53.77-3.65-1.04-11-3.11-14.71-4.14-16.29,12.36-47.36,1.34-40.79-22.16,8.15-18.75,31.31-14.49,47.6-15.28-4.56-6.64-5.41-18.69-15.81-18.57-10.46-.79-19.27,6.7-29.06,9.56Zm9.12,25.27c-5.53,12.48,10.21,21.31,20.49,16.2,10.88-1.1,10.76-14.07,14.77-21.62-11.61-1.4-27.11-6.64-35.26,5.42Z"/>
  <path d="m362.02,1742.36c15.08-.12,30.52,1.28,44.99-3.96,14.29,5.42,29.73,3.71,44.68,4.02-.61,10.35-1.34,20.76-2.86,31.05,5.53,6.94,10.88,14.13,14.77,22.23-38.36-11.08-78.55.37-117.76-2.74,1.52-2.07,4.62-6.27,6.14-8.34,16.54-1.52,33.25-.73,49.91-1.28l.12-13.46c-13.19-.06-26.38-.06-39.64.06-.12-9.26-.24-18.45-.36-27.58Zm10.76,19.73c11.92.06,29.06,5.48,31.73-10.9-9.79,1.52-40.61-8.22-31.73,10.9Zm36.29-10.66c0,16.81,42.07,16.38,31.13-.55-10.4-.85-20.79-.12-31.13.55Zm2.25,18.63c.12,3.23.3,9.62.43,12.79,8.94-.06,17.87-.06,26.81,0,.12-3.29.24-9.93.3-13.21-9.18.12-18.42.24-27.54.43Z"/>
  <path class="cls-57" d="m937.25,37.3c28.27-15.16,60.37-25.63,92.83-22.59,28.69,2.86,56.11,13.27,81.16,27.28,265.37,146.26,530.49,292.76,795.79,439.02,23.71,12.97,51.37,25.33,63.59,51.15,7.48,12.79-.55,27.71-10.03,36.9-15.44,14.25-35.08,22.47-53.13,32.76-270.17,147.36-540.4,294.59-810.44,442.13-19.39,9.93-38.97,24.84-62.01,21.92-38.54-4.75-71.25-27.28-105.17-44.33-115.33-64.42-230.35-129.39-345.55-194.06,33.25-17.6,65.54-36.96,98.67-54.74,9.12,11.51,17.69,24.17,30.34,32.15,97.09,54.56,195.94,106.19,291.87,162.64,39.33-3.29,83.17,4.08,117.51-19.55,97.76-54.01,195.27-108.39,293.57-161.3-1.88-11.51.3-26.24-10.94-33.61-30.34-22.23-63.23-40.67-93.56-63.02,9.48-5.72,19.03-11.39,28.57-17.05,41.64,24.42,82.5,50.17,124.32,74.29,12.58,8.16,28.57,7.73,41.22-.12,100.31-53.77,200.38-108.14,300.93-161.6,33.07-15.83,48.03-58.39,34.47-92.13-40.85-21.98-80.19-46.7-120.55-69.6-15.75-9.07-36.29-12-52.77-3.04-65.78,34.28-131.19,69.11-196.97,103.39-.97-9.26-1.95-18.57-2.86-27.83,60.92-34.04,122.5-67.04,182.5-102.66-46.14-25.94-92.95-50.72-139.1-76.66-11.73-6.52-26.63-14.07-39.46-5.85-35.93,19.85-70.34,42.32-106.75,61.32-18.48-10.9-37.21-21.49-55.63-32.45,39.39-22.83,80.98-42.32,118.18-68.75-50.03-28.8-100.49-56.81-151.07-84.64-16.29-10.05-35.63-2.56-50.82,5.72-40.49,22.23-80.92,44.75-121.53,66.74-12.34,9.74-24.32-3.65-34.53-9.93,53.26-29.9,108.33-56.63,160.8-87.99-49.73-28.25-100.43-54.8-150.4-82.69-34.47-19.61-79.09-24.42-115.02-6.03-109.06,66.86-221.72,127.75-331.21,193.88,36.42,22.65,73.5,44.15,110.89,65.09-2.13,2.56-6.5,7.73-8.69,10.29-6.02,2.31-11.73,5.11-17.2,8.4-5.78,2.31-11.61,4.51-17.39,6.64-28.69-16.87-58.12-32.27-87-48.71-12.89-6.45-26.14-15.83-41.28-13.34-16.05,4.32-29.91,14-44.44,21.62-86.87,47.19-173.69,94.5-260.75,141.27-16.84,9.68-34.77,23.5-38.73,43.6.18,20.76,13.37,41.16,32.1,50.17,36.05,18.69,71.13,39.15,107.24,57.66,16.72,9.19,37.02,5.05,52.83-4.08,53.62-28.56,107.18-57.36,161.16-85.37,1.52,4.63,4.56,13.88,6.08,18.57-54.41,30.99-109.19,61.44-163.41,92.8,33.62,24.78,72.28,41.28,108.09,62.53,23.28,12.42,48.39,31.24,76.3,22.65-38.3,19.97-75.14,42.38-113.14,62.78-120.01-69.11-241.35-135.73-361.79-204.11-21.1-12.73-36.9-32.7-45.23-55.84,6.93-11.57,12.95-24.84,25.35-31.6C389.38,337.86,663.13,187.21,937.25,37.3Z"/>
  <g>
    <path class="cls-69" d="m974.52,88.33c14.83-8.04,30.58-19.42,48.39-15.77,29.3,7.06,54.47,24.36,80.92,38.06,28.82,16.44,58.85,30.75,87.06,48.16.73,1.16,2.13,3.47,2.86,4.63-48.64,25.94-96.72,53.1-145.97,77.76-24.01-.43-49.18,1.4-68.15,18.15-16.17-9.01-32.22-18.08-48.27-27.16-35.63,21.98-73.56,39.82-109.13,61.93-17.81,10.66-35.63,21.49-54.71,29.84-34.71-16.81-66.63-39.03-100.8-56.99,102.13-60.28,205.3-118.92,307.8-178.59Zm30.34,11.02l-1.22,2.86c-13.98,9.74-30.52,21.43-30.64,40.43-3.65,20.7,13.01,38.42,31.8,43.54,25.05,6.64,55.69,7.73,75.26-12.24,12.4-11.93,23.71-29.59,12.95-46.46-12.83-36.11-57.51-32.33-88.15-28.13Z"/>
    <path class="cls-69" d="m1152.34,252.06c34.59-19.18,69.55-37.75,103.96-57.24,46.57,25.51,93.44,50.72,138.98,78.12-33.68,18.39-66.63,38.06-100.61,55.84-3.1-1.1-9.36-3.35-12.52-4.51-2.31-1.4-4.68-2.74-6.99-4.02-41.58-21.43-81.89-45.36-122.8-68.2Z"/>
    <path class="cls-69" d="m296.3,461.65c94.47-51.03,188.64-102.6,283.24-153.44,36.29,19.85,72.47,40.01,108.76,59.79-16.11,9.19-32.28,18.33-48.94,26.43-24.86,12.3-49.06,26-73.5,39.09-7.3,4.14-14.35,8.59-21.46,13.03,4.99,3.47,10.03,6.82,15.2,10.11,2.61,1.46,7.9,4.45,10.52,5.97,8.82,6.45,22.49,8.52,27.48,18.94-4.8,19.12-26.32,23.75-40.98,32.94-55.26,29.17-110.34,58.58-165.6,87.74-35.08-18.69-69.79-37.93-104.81-56.69-14.89-7.49-27.24-21.19-30.46-37.81.06-23.44,22.98-35.68,40.55-46.09Zm33.13,7.06c-14.04,14.07-31.19,33.61-20.97,54.86,20.67,41.47,81.28,59.37,120.43,33.49,21.22-9.8,40.18-33.61,32.04-57.91-19.51-50.48-92.29-69.84-131.5-30.45Z"/>
    <path class="cls-69" d="m1383.97,382.92c33.68-20.76,68.15-40.13,102.19-60.22,43.22,23.38,86.21,47.13,129.31,70.63-50.4,31.78-103.84,58.58-155.45,88.41-4.99-6.7-10.09-13.27-14.59-20.22,13.37-6.64,26.93-12.91,40.12-19.85-32.16-22.29-67.48-39.7-101.59-58.76Z"/>
    <path class="cls-69" d="m1463.36,545.98c77.09-38.12,152.11-80.13,228.83-118.98,41.58,24.23,83.04,48.77,124.75,72.76,9.97,28.38-2.74,65.21-30.82,77.88-100.43,53.64-200.56,107.9-300.93,161.66-42.98-24.11-83.59-52.24-127.61-74.41,39.39-24.17,80.92-44.69,120.49-68.44.67-14.13-23.71-16.14-33.68-22.83,6.2-9.32,12.58-18.45,18.97-27.64Zm184.51-74.77l.49,3.59c-12.89,13.15-23.65,31.97-17.63,50.9,7.05,17.41,25.05,27.28,42.01,32.94,22.01,5.97,51.55,10.41,64.75-13.09,16.35-10.17,26.32-30.69,23.53-49.75-9.24-22.71-33.68-34.83-56.54-38.97-19.88-1.34-38.3,7.92-56.6,14.37Z"/>
    <path class="cls-69" d="m457.95,631.78c48.33-26.37,95.2-55.9,144.45-80.25,3.47,1.22,10.46,3.71,13.92,4.93-8.75,10.53-25.35,16.26-29.42,29.59,35.56,22.53,72.89,42.2,109.37,63.33-33.74,20.58-69.12,38.36-103.84,57.18-44.68-25.15-90.46-48.41-134.48-74.77Z"/>
    <path class="cls-69" d="m1150.52,779.74c47.3-26.67,94.9-52.85,142.08-79.64,29.85,19,59.21,38.67,88.76,58.15,8.88,4.26,7.17,15.1,9.18,23.14-102.68,55.53-204.39,113.01-307.13,168.36-25.05,4.93-54.9,12.06-78-2.62-87.12-48.53-174.54-96.51-261.84-144.74-15.93-7.85-26.81-22.23-36.9-36.29,31.07-18.27,60.92-38.54,92.41-56.08,29.67,12.79,56.54,31.78,85.11,47.01,11.73,5.48,22.37,16.14,35.81,16.14,15.2-6.27,28.63-15.95,42.86-24.05,43.41,28.56,99.52,29.41,145.78,7.31,8.69,7.61,18.42,14.25,29.3,18.39,3.1,1.22,9.42,3.65,12.58,4.93Zm-157.33,50.84l-.55,2.98c-18.72,13.88-34.23,41.89-17.87,63.33,28.69,47.56,114.6,48.47,134.72-7l2.98-1.22c18.6-28.44-9.79-58.88-35.63-69.17-27.36-14.25-59.33-4.81-83.65,11.08Z"/>
  </g>
  <g>
    <path class="cls-7" d="m1004.85,99.35c30.64-4.2,75.32-7.98,88.15,28.13,10.76,16.87-.55,34.53-12.95,46.46-27.6,3.53-59.46-.61-79.82-21.13-14.77-14.61-2.92-35.01,3.4-50.6l1.22-2.86Z"/>
    <path class="cls-7" d="m329.43,468.71c39.21-39.4,111.98-20.03,131.5,30.45,8.15,24.3-10.82,48.1-32.04,57.91-30.7-1.89-63.77-8.1-84.93-32.52-16.9-13.52-14.23-36.66-14.53-55.84Z"/>
    <path class="cls-7" d="m1647.87,471.21c18.3-6.45,36.72-15.71,56.6-14.37,22.86,4.14,47.3,16.26,56.54,38.97,2.8,19.06-7.17,39.58-23.53,49.75-26.2-2.62-56.17-5.85-74.59-27.1-11.43-11.63-12.46-28.5-14.53-43.66l-.49-3.59Z"/>
    <path class="cls-7" d="m993.18,830.58c24.32-15.89,56.3-25.33,83.65-11.08,25.84,10.29,54.23,40.74,35.63,69.17l-2.98,1.22c-28.09,11.57-58.67,27.95-89.55,16.56-13.68-8.04-24.56-21.13-30.21-35.93-2.31-12.3,1.46-24.72,2.92-36.96l.55-2.98Z"/>
  </g>
  <g>
    <path class="cls-54" d="m973,142.64c.12-19,16.66-30.69,30.64-40.43-6.32,15.59-18.18,35.99-3.4,50.6,20.37,20.52,52.22,24.66,79.82,21.13-19.58,19.97-50.22,18.88-75.26,12.24-18.79-5.11-35.44-22.83-31.8-43.54Z"/>
    <path class="cls-54" d="m308.46,523.57c-10.21-21.25,6.93-40.8,20.97-54.86.3,19.18-2.37,42.32,14.53,55.84,21.16,24.42,54.23,30.63,84.93,32.52-39.15,25.88-99.76,7.98-120.43-33.49Z"/>
    <path class="cls-54" d="m1630.73,525.7c-6.02-18.94,4.74-37.75,17.63-50.9,2.07,15.16,3.1,32.03,14.53,43.66,18.42,21.25,48.39,24.48,74.59,27.1-13.19,23.5-42.74,19.06-64.75,13.09-16.96-5.66-34.96-15.53-42.01-32.94Z"/>
    <path class="cls-54" d="m974.76,896.89c-16.35-21.43-.85-49.44,17.87-63.33-1.46,12.24-5.23,24.66-2.92,36.96,5.65,14.8,16.54,27.89,30.21,35.93,30.88,11.39,61.46-4.99,89.55-16.56-20.12,55.47-106.02,54.56-134.72,7Z"/>
  </g>
  <path class="cls-64" d="m822.23,294.08c35.56-22.1,73.5-39.94,109.13-61.93,16.05,9.07,32.1,18.15,48.27,27.16-3.95,2.62-7.84,5.3-11.73,8.04-12.34-9.13-24.74-20.09-40.67-21.56-1.76,2.68-5.41,8.04-7.17,10.72-4.38.85-8.75,1.58-13.07,2.56-2.8,1.22-8.51,3.65-11.31,4.81-7.05,3.11-13.86,6.76-20.49,10.47l-4.13,2.19c-6.93,3.47-13.86,6.94-20.67,10.59l-4.38,2.37c-5.96,3.47-11.67,7.43-17.08,11.81-2.25.43-6.87,1.34-9.12,1.77l2.43-9.01Z"/>
  <path class="cls-58" d="m927.22,245.79c15.93,1.46,28.33,12.42,40.67,21.56-18.06,14.61-32.71-2.19-47.84-10.84,1.76-2.68,5.41-8.04,7.17-10.72Z"/>
  <path class="cls-58" d="m895.67,263.88c2.8-1.16,8.51-3.59,11.31-4.81,6.87,5.11,13.62,10.23,20.61,15.16,2.61,2.13,7.84,6.39,10.46,8.46-7.9,4.14-16.41,4.75-24.99,3.11-1.34-12.48-13.37-13.88-23.41-15.28l6.02-6.64Z"/>
  <path class="cls-58" d="m871.05,276.54l4.13-2.19,8.39-3.35c8.94,10.35,20.55,17.48,32.89,22.96-5.23,2.68-15.81,7.98-21.03,10.66-5.23-12.67-16.05-22.71-30.64-22.1l6.26-5.97Z"/>
  <path class="cls-58" d="m846,289.51l4.38-2.37,11.43-4.14.06,8.89,4.62.37c7.54,5.85,15.5,11.08,24.38,14.86-5.9,3.84-12.04,7.25-18.42,10.11-8.88-8.65-21.46-13.34-28.76-23.2l2.31-4.51Z"/>
  <path class="cls-58" d="m1178.42,298.83c9.3-1.34,18.6-10.9,27.97-6.03.67,10.17-8.82,15.22-16.78,17.96.49,1.58,1.52,4.63,2.01,6.21-5.17-1.89-10.33-3.71-15.5-5.48.61-3.17,1.76-9.5,2.31-12.67Z"/>
  <path class="cls-58" d="m793.29,317.7c5.84-1.28,11.67-2.5,17.57-3.53,6.99,5.91,14.17,11.63,21.52,17.11.12,2.19.3,6.58.43,8.77-2.61,1.58-7.78,4.63-10.4,6.21-9.67-9.62-19.33-19.12-29.12-28.56Z"/>
  <path class="cls-58" d="m1320.92,373.11c3.16-2.5,9.54-7.49,12.71-9.99,4.56,2.92,13.68,8.77,18.3,11.63-3.83.43-11.37,1.16-15.2,1.58l-.55,4.69c-11.13,8.46-24.93,10.84-35.02-.55,6.57-2.5,13.13-4.99,19.76-7.37Z"/>
  <path class="cls-58" d="m671.4,391.01c2.13-3.59,4.62-7,7.11-10.35,9.48,10.11,19.51,19.67,29.73,29.11-16.29,12-25.05-11.33-36.84-18.75Z"/>
  <path class="cls-58" d="m1344.57,384.01c8.45-7.25,18-7.37,27.78-2.07-11.25,6.52-22.31,13.34-33.13,20.52-4.44-3.53-9-7.06-13.44-10.53,6.32-2.44,12.58-5.11,18.79-7.92Z"/>
  <path class="cls-58" d="m1349.37,408.67c11.92-5.11,23.41-11.08,35.32-16.32,4.26,3.65,8.02,7.85,11.31,12.48-3.59.67-10.76,2.07-14.41,2.74-9.42,9.38-21.83,8.22-32.22,1.1Z"/>
  <path class="cls-58" d="m646.72,396.8c3.16-.55,9.48-1.7,12.65-2.25,3.59,5.3,7.42,10.47,11.49,15.47,4.99,1.46,15.02,4.38,20,5.85-7.6,7-16.6,11.81-26.99,12.36-1.7-8.16-4.44-15.95-13.8-17.23-.85-3.53-2.55-10.66-3.34-14.19Z"/>
  <path class="cls-58" d="m620.27,412.33c3.47-.18,10.27-.61,13.68-.85,7.66,5.66,13.92,13.64,23.77,15.71-.91,6.58-3.77,12.3-8.33,17.11-9.79-10.59-19.58-21.13-29.12-31.97Z"/>
  <g>
    <path class="cls-9" d="m1024.98,253.95c10.46-3.9,20.73,4.2,30.09,7.98,115.81,64.85,231.44,130.06,347.44,194.61,7.23,5.11,19.21,9.99,17.87,20.89-3.22,12.54-16.29,17.6-26.14,23.87-113.62,62.96-226.58,127.32-340.45,189.86-12.4,8.34-27.11,2.07-38.73-4.63-121.16-67.95-243.78-133.41-364.7-201.73-17.39-11.26,2.92-28.07,14.71-33.19,120.07-65.64,239.16-133.41,359.9-197.65Zm-53.86,60.59c-24.86,12.91-46.14,31.72-71.01,44.69-38.66,20.09-72.22,49.93-114.17,63.51-20.85,7.25-37.45,22.59-54.96,35.56-4.74,4.69-12.65,12.97-6.63,19.61,18.18,21.25,42.8,36.11,67.85,47.98,34.41,15.1,65.48,36.72,100.19,51.15,50.4,24.17,97.7,59.49,155.33,63.14,7.72-9.99.97-20.22-4.13-29.53-28.63-9.86-44.68-37.14-67.85-54.8-25.53-19.24-46.99-42.99-70.03-64.97-9.24-8.59-16.11-19.18-22.01-30.2,29.91-27.71,56.05-59.49,88.52-84.39,17.63-14.43,31.61-32.76,49.12-47.37,9-7.37,16.29-16.5,21.46-26.91-24.32-.37-49.61,1.16-71.68,12.54Z"/>
    <path class="cls-9" d="m774.32,327.32c6.26-3.29,12.52-6.64,18.97-9.62,9.79,9.44,19.45,18.94,29.12,28.56-2.92,1.52-8.63,4.63-11.55,6.15-12.04-8.52-24.01-17.23-36.54-25.09Z"/>
    <path class="cls-9" d="m1372.35,381.94l1.7-.97c2.67,2.8,7.96,8.52,10.64,11.39-11.92,5.24-23.41,11.2-35.32,16.32-2.55-1.52-7.6-4.63-10.15-6.21,10.82-7.19,21.89-14,33.13-20.52Z"/>
    <path class="cls-9" d="m618.51,488.93c23.53,8.83,44.38,22.96,66.51,34.59,92.95,51.09,185.85,102.3,278.8,153.38,24.38,13.46,48.88,30.99,78,30.57,23.28,2.56,41.58-14.37,61.04-24.17,112.96-62.6,225-127.02,338.68-188.46.97,10.29,2.01,20.58,3.04,30.93-14.04-3.65-29.36-8.04-41.95,1.83-106.33,59.73-214.6,116.06-319.78,177.56,2.8.73,8.45,2.19,11.25,2.86,13.5,3.84,26.08,10.23,38.18,17.29-1.52,6.7-2.67,13.46-3.59,20.28,6.87,8.22,15.26,15.04,23.04,22.41-3.47,1.7-10.4,5.11-13.8,6.82-10.88-4.14-20.61-10.78-29.3-18.39-1.76-3.53-5.29-10.72-7.05-14.25-19.33,1.7-34.11,17.29-53.62,18.27-24.26,1.64-48.09-8.34-67.66-21.98-6.99-13.27,14.04-34.77-5.65-40.98-100.92-55.41-201.71-110.88-302.51-166.35-8.15-3.23-15.93-10.78-25.17-8.46-9.48,4.87-17.81,11.63-26.38,17.96-15.75-13.94-7.72-35.01-2.07-51.7Z"/>
    <path class="cls-9" d="m675.47,542.69c2.86,1.64,8.45,4.99,11.25,6.7-11.55,6.64-23.04,13.27-34.59,19.85,6.44,3.96,12.89,7.92,19.39,11.93-9.79,9.74-19.88,19.12-30.15,28.38-3.71-2.37-7.42-4.81-11.06-7.19,7.48-5.72,14.89-11.45,22.37-17.11-4.19-5.66-8.45-11.33-12.58-16.93,11.61-8.83,23.22-17.66,35.38-25.63Z"/>
    <path class="cls-9" d="m1316.06,582.94l.85.79c12.95,13.4,33.13,23.75,33.13,44.82,8.57,5.11,17.27,10.17,26.26,14.61-12.1,9.62-25.66,17.05-39.64,23.44-12.65-11.57-34.41-19.67-32.22-40.37-9.91-6.33-20-12.42-30.64-17.48,5.17-3.47,10.4-6.94,15.62-10.35,12.22,7.92,24.2,16.01,36.11,24.36-.61,4.26-1.88,12.73-2.49,16.93,11.19,5.54,22.49,10.84,34.17,15.41-7.78-8.71-15.87-17.17-23.71-25.82-5.23-16.01-20.31-24.54-32.65-34.4,5.05-4.02,10.15-7.98,15.2-11.93Z"/>
    <path class="cls-9" d="m1218,639.39c5.9-3.9,11.79-7.79,17.75-11.69l.67.49c12.83,9.68,32.22,18.27,27.84,37.69,10.7,6.58,20.97,14.49,33.38,17.78l3.59.49.79,2.74c-14.53,7.73-28.94,15.83-43.22,24.11-2.61-2.19-7.9-6.52-10.58-8.71-10.58-8.71-22.19-15.83-33.32-23.69,2.37-14.49-7.36-22.65-18.79-28.5,3.59-2.37,7.3-4.69,11.06-7,8.21,6.21,16.54,12.24,24.99,18.21-.06,3.65-.12,10.84-.12,14.43,13.13,6.64,25.96,14.13,40,18.75-5.65-14.25-23.04-19.55-34.41-28.62,2.43-2.68,7.36-8.04,9.79-10.72-9.73-5.42-19.39-10.96-29.42-15.77Z"/>
    <path class="cls-9" d="m1182.74,672.82c10.46-2.8,19.21,6.39,28.39,10.05-1.4,3.41-4.13,10.23-5.47,13.7,15.5,7.98,31.13,17.35,49.24,17.11-7.72,4.08-15.26,8.34-22.74,12.73-17.02-9.38-33.98-19.06-50.58-29.17,2.19-2.31,6.63-7,8.82-9.32-4.74-4.26-7.3-9.32-7.66-15.1Z"/>
    <path class="cls-9" d="m1143.59,677.08l2.13,1.04c15.81,7.49,33.32,15.04,40.49,32.39,11.85,6.94,23.89,13.7,36.72,18.82-5.71,3.17-11.43,6.33-17.14,9.5-12.16-8.28-24.26-16.56-35.93-25.45-7.17-12.67-18.3-22.1-29.79-30.63l3.53-5.66Z"/>
    <path class="cls-9" d="m947.77,690.96c4.92,3.11,9.97,6.15,14.96,9.19-10.76,5.91-21.16,12.48-31.61,19,2.8,3.84,8.39,11.45,11.13,15.28-12.89,8.71-26.38,16.5-40.85,22.41-2.61-1.58-7.96-4.75-10.58-6.27,9.3-6.58,18.66-12.97,28.09-19.36-1.03-5.18-2.07-10.35-3.04-15.53,10.64-8.22,21.34-16.38,31.92-24.72Z"/>
  </g>
  <path class="cls-65" d="m1116.35,272.89c2.37-5.54,16.9-12.85,18.36-3.78-2.25,6.09-17.02,13.34-18.36,3.78Z"/>
  <path class="cls-50" d="m1133.37,283.18c6.26-6.88,17.75-15.89,27.42-13.34.3,10.23-20.61,23.08-27.42,13.34Z"/>
  <path class="cls-62" d="m1162.13,286.89c3.4-2.44,10.15-7.31,13.5-9.74,3.59,2.5,10.7,7.43,14.29,9.93-13.86,6.03-26.69,22.83-40.85,7.98,3.22-2.01,9.79-6.09,13.07-8.16Z"/>
  <path class="cls-33" d="m819.8,303.09c2.25-.43,6.87-1.34,9.12-1.77l7.36.43c6.63,8.22,15.08,14.43,25.29,17.41-4.26,6.09-9.48,11.08-15.75,14.92-6.75-5.11-11.13-12.42-15.81-19.24-2.8.24-8.39.79-11.19,1.04.24-3.23.73-9.56.97-12.79Z"/>
  <path class="cls-36" d="m971.11,314.54c22.07-11.39,47.36-12.91,71.68-12.54-5.17,10.41-12.46,19.55-21.46,26.91-17.51,14.61-31.49,32.94-49.12,47.37-32.46,24.9-58.61,56.69-88.52,84.39,5.9,11.02,12.77,21.62,22.01,30.2,23.04,21.98,44.5,45.73,70.03,64.97,23.16,17.66,39.21,44.94,67.85,54.8,5.11,9.32,11.85,19.55,4.13,29.53-57.63-3.65-104.93-38.97-155.33-63.14-34.71-14.43-65.78-36.05-100.19-51.15-25.05-11.87-49.67-26.73-67.85-47.98-6.02-6.64,1.88-14.92,6.63-19.61,17.51-12.97,34.11-28.31,54.96-35.56,41.95-13.58,75.51-43.42,114.17-63.51,24.86-12.97,46.14-31.78,71.01-44.69Z"/>
  <path class="cls-15" d="m1215.08,305.46c21.4-3.41-11.06,29.11-17.51,13.94,3.83-6.7,9.67-11.39,17.51-13.94Z"/>
  <path class="cls-21" d="m1235.69,314.78c8.33-.49,15.62,1.58,18.97,10.35-14.23.73-38.85,23.69-42.37-1.95,9.06.3,16.9-2.5,23.41-8.4Z"/>
  <path class="cls-46" d="m1275.14,320.26c2.31,1.28,4.68,2.62,6.99,4.02l-.18,10.9c5.11,2.25,15.38,6.7,20.49,8.89-11.49,7.43-23.16,14.55-34.9,21.62-6.99-5.11-13.92-10.29-20.79-15.59,10.76-6.09,21.34-12.6,31.19-20.15-.67-2.37-2.07-7.25-2.8-9.68Z"/>
  <path class="cls-35" d="m744.96,331.46c2.67,1.4,7.9,4.26,10.52,5.66,2.86-1.52,8.69-4.57,11.61-6.09,10.09,9.32,19.88,18.88,29.18,29.04-3.28,1.83-9.97,5.42-13.31,7.25-13.13-9.32-26.38-18.51-40.98-25.39,9.48,11.08,20.06,21.13,30.52,31.36-3.53,2.01-10.58,6.15-14.04,8.16-10.15-7.79-20.06-15.89-30.15-23.69,2.01-4.02,5.96-12,7.96-16.01,2.19-2.56,6.57-7.73,8.69-10.29Z"/>
  <path class="cls-6" d="m767.09,331.04l7.23-3.71c12.52,7.85,24.5,16.56,36.54,25.09-4.86,2.56-9.73,5.05-14.59,7.67-9.3-10.17-19.09-19.73-29.18-29.04Z"/>
  <path class="cls-6" d="m741.98,341.94c14.59,6.88,27.84,16.08,40.98,25.39-2.61,1.46-7.84,4.45-10.46,5.97-10.46-10.23-21.03-20.28-30.52-31.36Z"/>
  <path class="cls-6" d="m718.45,354.54c2.49.79,7.42,2.44,9.85,3.23,10.09,7.79,20,15.89,30.15,23.69-2.37,1.4-7.17,4.14-9.54,5.48-10.27-8.52-20.49-17.11-31.86-24.17.36-2.01,1.09-6.15,1.4-8.22Z"/>
  <path class="cls-6" d="m589.57,431.14c17.87-10.59,31.13,10.23,46.33,16.93-4.8,3.84-9.61,7.61-14.47,11.33-10.7-9.38-21.4-18.69-31.86-28.25Z"/>
  <path class="cls-6" d="m1423.42,452.15c9.54-8.04,20.06-14.92,31.67-19.42,3.4,1.95,10.21,5.85,13.62,7.79-14.35,5.72-28.82,20.15-45.29,11.63Z"/>
  <path class="cls-6" d="m636.08,552.8c8.27-5.3,16.54-10.72,24.99-15.89,3.59,1.46,10.82,4.32,14.41,5.78-12.16,7.98-23.77,16.81-35.38,25.63,4.13,5.6,8.39,11.26,12.58,16.93-7.48,5.66-14.89,11.39-22.37,17.11-4.62-2.68-13.86-8.04-18.48-10.72,9-5.91,18-11.75,26.99-17.6-.91-7.12-1.88-14.19-2.74-21.25Z"/>
  <path class="cls-6" d="m1398.92,537.7l9.67-4.2c11.49,9.07,19.39,21.56,25.9,34.53,5.71,14.07,22.07,17.41,33.5,25.15-3.1,1.34-9.36,3.9-12.52,5.18-10.94-5.66-21.4-12.24-31.8-18.82,1.76-18.33-13.8-29.71-24.74-41.83Z"/>
  <path class="cls-6" d="m686.72,549.39c3.34,1.83,9.97,5.42,13.31,7.25-10.03,9.93-20.12,19.85-30.09,29.84,1.88,3.11,5.65,9.32,7.54,12.42-5.47,6.27-10.88,12.48-16.17,18.82-4.99-2.01-14.96-6.09-19.94-8.16,10.27-9.26,20.37-18.63,30.15-28.38-6.5-4.02-12.95-7.98-19.39-11.93,11.55-6.58,23.04-13.21,34.59-19.85Z"/>
  <path class="cls-6" d="m1367.79,556.09c5.05-2.13,10.09-4.2,15.2-6.33,9.06,6.52,18.24,12.97,27.36,19.49-.97,5.05-1.88,10.11-2.8,15.22,10.76,8.77,21.34,17.72,31.49,27.22l-7.6-.06c-12.22-5.6-23.65-12.67-35.2-19.42.67-2.86,2.01-8.46,2.67-11.33-10.4-8.22-20.79-16.5-31.13-24.78Z"/>
  <path class="cls-6" d="m688.06,590.01c9-8.16,18.3-16.01,28.09-23.2,3.22,1.28,9.73,3.84,13.01,5.11-10.82,11.81-23.65,23.69-41.1,18.08Z"/>
  <path class="cls-6" d="m1343.66,568.08l10.15-3.04c8.82,5.54,17.27,11.75,25.78,17.84.12,3.78.36,11.39.49,15.16,11.79,8.4,23.53,16.81,35.38,25.15-3.4,1.22-10.15,3.65-13.5,4.87l-1.76-1.1c-8.69-5.54-17.39-11.08-26.02-16.68,4.13-20.82-18.3-29.84-30.52-42.2Z"/>
  <path class="cls-6" d="m1316.91,583.73l11.73-4.87c9.54,6.21,18.48,13.27,27.48,20.28-.3,4.02-.97,12.12-1.28,16.14,11.06,7.98,21.95,16.2,32.52,24.84l-11.06,3.04c-9-4.45-17.69-9.5-26.26-14.61,0-21.07-20.18-31.42-33.13-44.82Z"/>
  <path class="cls-6" d="m1289.43,598.41c2.86-.85,8.57-2.68,11.43-3.53,12.34,9.86,27.42,18.39,32.65,34.4,7.84,8.65,15.93,17.11,23.71,25.82-11.67-4.57-22.98-9.86-34.17-15.41.61-4.2,1.88-12.67,2.49-16.93-11.92-8.34-23.89-16.44-36.11-24.36Z"/>
  <path class="cls-6" d="m1263.59,611.32l10.21-2.56c10.64,5.05,20.73,11.14,30.64,17.48-2.19,20.7,19.58,28.8,32.22,40.37-2.61.91-7.84,2.74-10.46,3.65-11.06-6.82-22.25-13.4-33.5-19.79,2.07-2.31,6.14-7,8.15-9.32-12.52-9.74-25.05-19.61-37.27-29.84Z"/>
  <path class="cls-6" d="m779.73,635.61c14.29-9.26,29.42-24.11,47.24-11.75-12.77,11.93-25.9,23.44-38.97,35.01,3.16,3.41,9.48,10.17,12.65,13.58-7.84,4.99-15.68,10.05-23.83,14.74-4.13-2.5-12.46-7.49-16.66-9.99,9.3-7.61,18.66-15.28,27.97-22.96-2.86-6.21-5.65-12.42-8.39-18.63Z"/>
  <path class="cls-6" d="m1236.42,628.18c3.28-.61,9.85-1.83,13.13-2.44,9.36,5.42,18.54,11.26,27.72,16.99-.18,3.84-.55,11.45-.73,15.28,9.24,4.99,18.42,10.05,27.36,15.71-.67,2.62-2.01,7.85-2.67,10.41l-3.59-.49c-12.4-3.29-22.68-11.2-33.38-17.78,4.38-19.42-15.02-28.01-27.84-37.69Z"/>
  <path class="cls-6" d="m840.47,637.01c5.71.12,11.49,1.64,17.33,4.63-11.98,10.05-23.77,20.22-35.2,30.87,3.71,6.27,7.48,12.48,11.37,18.63-13.37,9.07-28.57,12.36-43.47,4.63,10.4-7.92,20.79-15.77,31.19-23.63-3.71-3.11-11.06-9.32-14.77-12.36,11.13-7.73,22.13-15.59,33.56-22.77Z"/>
  <path class="cls-6" d="m1207.18,643.1l10.82-3.71c10.03,4.81,19.7,10.35,29.42,15.77-2.43,2.68-7.36,8.04-9.79,10.72,11.37,9.07,28.76,14.37,34.41,28.62-14.04-4.63-26.87-12.12-40-18.75,0-3.59.06-10.78.12-14.43-8.45-5.97-16.78-12-24.99-18.21Z"/>
  <path class="cls-6" d="m841.26,672.57c10.82-6.64,21.58-13.34,32.34-20.09,7.48,4.32,14.83,8.83,22.25,13.4-4.38,1.64-13.07,4.93-17.45,6.64-1.22.85-3.65,2.62-4.8,3.53-6.5,4.69-12.83,9.5-19.21,14.25,1.4,5.54,2.8,11.02,4.19,16.56-6.44,4.38-12.89,8.83-19.33,13.27-9.12-3.35-18.12-7.25-14.53-19.18,4.19-1.22,12.52-3.71,16.72-4.99,2.8-.91,8.45-2.8,11.25-3.78-3.83-6.52-7.6-13.09-11.43-19.61Z"/>
  <path class="cls-6" d="m875.42,684.51c8.45-5.6,17.2-10.66,25.84-16.01,6.5,3.23,13.07,6.45,19.7,9.68-15.08,9.99-34.65,19.91-29.12,41.47-8.51,5.48-17.02,10.96-25.84,15.95l-11.31-3.04c15.14-12.06,23.47-28.56,20.73-48.04Z"/>
  <path class="cls-6" d="m1122.37,691.51c5.9-2.92,11.79-5.85,17.69-8.77,11.49,8.52,22.62,17.96,29.79,30.63,11.67,8.89,23.77,17.17,35.93,25.45-3.77,1.89-11.19,5.72-14.96,7.67-12.34-7.19-24.86-14.07-37.51-20.76,2.19-2.44,6.5-7.37,8.69-9.86-11.43-10.78-25.72-17.6-39.64-24.36Z"/>
  <path class="cls-6" d="m901.99,706.79c11.43-6.82,22.86-13.7,35.02-19.18l10.76,3.35c-10.58,8.34-21.28,16.5-31.92,24.72.97,5.18,2.01,10.35,3.04,15.53-9.42,6.39-18.79,12.79-28.09,19.36-2.92-1.52-8.75-4.51-11.67-5.97,9.73-6.52,19.45-12.97,29.18-19.49-2.13-6.15-4.26-12.24-6.32-18.33Z"/>
  <path class="cls-6" d="m1094.1,708.01c7.6-4.63,15.5-8.89,24.2-11.2,6.93,7.49,15.02,13.82,23.1,20.15-.06,3.59-.18,10.78-.18,14.37,11.31,8.28,22.74,16.5,34.17,24.66-7.9,3.9-15.87,7.85-23.65,12-7.78-7.37-16.17-14.19-23.04-22.41.91-6.82,2.07-13.58,3.59-20.28-12.1-7.06-24.68-13.46-38.18-17.29Z"/>
  <path class="cls-28" d="m1237.21,335.3c13.37-2.31,27.05-12.85,40.73-5.36-9.85,7.55-20.43,14.07-31.19,20.15l-6.32-.12c-.79-3.65-2.43-11.02-3.22-14.67Z"/>
  <path class="cls-63" d="m719.06,350.16c5.47-3.29,11.19-6.09,17.2-8.4-2.01,4.02-5.96,12-7.96,16.01-2.43-.79-7.36-2.44-9.85-3.23l.61-4.38Z"/>
  <path class="cls-68" d="m1302.44,344.07l.73-.49c9.12,5.78,19.88,10.23,25.53,20.03-10.7,4.99-20.97,10.78-31.49,15.95-10.76-2.31-19.88-9.13-29.67-13.88,11.73-7.06,23.41-14.19,34.9-21.62Z"/>
  <path class="cls-70" d="m238.3,1369.04l9.91.12c-.18,8.22-.36,16.44-.55,24.72,7.9,1.89,17.14,2.44,21.34,10.53-5.53.49-16.66,1.4-22.19,1.83.24,15.65,22.13,22.65,17.87,38.85-4.13-3.53-12.46-10.59-16.6-14.13-.49,19.85.79,39.76-.43,59.61-2.19,1.77-6.5,5.3-8.63,7.06-1.16-22.1-.49-44.21-.73-66.31-7.11,8.59-7.66,27.22-22.31,25.09,7.48-16.38,15.26-32.64,21.52-49.5-10.76,1.58-17.27-2.07-19.64-10.9,5.17-.18,15.44-.49,20.55-.61-.06-8.83-.12-17.6-.12-26.37Z"/>
  <path class="cls-49" d="m701.67,356.79c5.78-2.13,11.61-4.32,17.39-6.64l-.61,4.38c-.3,2.07-1.03,6.21-1.4,8.22,11.37,7.06,21.58,15.65,31.86,24.17-5.29,3.11-10.52,6.27-15.81,9.32-9.61-9.44-19.39-18.88-26.75-30.32-1.16-2.25-3.53-6.82-4.68-9.13Z"/>
  <path class="cls-13" d="m691.58,372.93c3.71-1.77,11.13-5.24,14.77-7,7.36,11.45,17.14,20.89,26.75,30.32l-7.3,4.02c-11.73-8.71-22.86-18.21-34.23-27.34Z"/>
  <path class="cls-55" d="m678.51,380.66c3.28-1.95,9.79-5.78,13.07-7.73,11.37,9.13,22.49,18.63,34.23,27.34-5.84,3.23-11.67,6.45-17.57,9.5-10.21-9.44-20.24-19-29.73-29.11Z"/>
  <path class="cls-16" d="m565.86,433.52c24.44-13.09,48.64-26.79,73.5-39.09-.06,4.14-.12,12.54-.12,16.68l-5.29.37c-3.4.24-10.21.67-13.68.85,9.54,10.84,19.33,21.37,29.12,31.97-3.4.97-10.09,2.8-13.5,3.78-15.2-6.7-28.45-27.52-46.33-16.93,10.46,9.56,21.16,18.88,31.86,28.25-5.71,5.11-11.43,10.23-17.08,15.34-10.58-6.15-21.16-14.43-34.23-12.12-2.61-1.52-7.9-4.51-10.52-5.97,3.83-1.83,11.55-5.48,15.44-7.31-3.1-5.3-6.14-10.53-9.18-15.83Z"/>
  <path class="cls-45" d="m1377.03,414.46c13.92-.85,34.29-18.39,41.83,2.25-10.09,2.62-24.8,2.13-21.52,17.66-11.67-2.44-18.42-9.07-20.31-19.91Z"/>
  <path class="cls-42" d="m1400.01,426.94c13.37-4.02,26.99-13.27,40.85-4.32-9,6.39-18.06,12.67-27.36,18.51-9.12,1.22-13.62-3.47-13.5-14.19Z"/>
  <path class="cls-67" d="m1440.87,422.62c4.68,3.35,9.42,6.7,14.23,10.11-11.61,4.51-22.13,11.39-31.67,19.42-3.34-3.71-6.63-7.37-9.91-11.02,9.3-5.85,18.36-12.12,27.36-18.51Z"/>
  <path class="cls-10" d="m544.4,446.55c7.11-4.45,14.17-8.89,21.46-13.03,3.04,5.3,6.08,10.53,9.18,15.83-3.89,1.83-11.61,5.48-15.44,7.31-5.17-3.29-10.21-6.64-15.2-10.11Z"/>
  <path class="cls-2" d="m1408.59,533.5c11.49-14.67,30.09-4.69,34.41,10.72-2.13,8.16-5.53,15.89-8.51,23.81-6.5-12.97-14.41-25.45-25.9-34.53Z"/>
  <path class="cls-71" d="m634.68,544.15c6.63-11.26,19.82-11.93,31.37-10.41l-4.99,3.17c-8.45,5.18-16.72,10.59-24.99,15.89.85,7.06,1.82,14.13,2.74,21.25-9,5.85-18,11.69-26.99,17.6-5.23-2.19-10.4-4.38-15.56-6.58,14.29-12.24,28.76-24.48,38.42-40.92Z"/>
  <path class="cls-32" d="m1382.99,549.76c5.29-4.02,10.64-8.04,15.93-12.06,10.94,12.12,26.51,23.5,24.74,41.83,10.4,6.58,20.85,13.15,31.8,18.82-5.47,4.45-11,8.83-16.41,13.34-10.15-9.5-20.73-18.45-31.49-27.22.91-5.11,1.82-10.17,2.8-15.22-9.12-6.52-18.3-12.97-27.36-19.49Z"/>
  <path class="cls-27" d="m700.03,556.64c5.41,3.35,10.76,6.7,16.11,10.17-9.79,7.19-19.09,15.04-28.09,23.2,17.45,5.6,30.28-6.27,41.1-18.08l.43-.43c6.57,3.96,13.13,7.79,19.76,11.75l-1.64.79c-10.15,5.05-19.88,10.72-29.73,16.26,4.74,4.93,9.42,9.86,14.17,14.8,10.21-8.1,19.94-16.87,29-26.24,7.72,4.57,15.62,8.71,23.71,12.6l-1.95.55c-13.62,3.04-25.72,10.23-37.69,17.11,6.2,4.99,12.46,10.05,18.66,15.16,3.1-1.58,9.3-4.75,12.4-6.33.85,1.89,2.55,5.72,3.47,7.67,2.74,6.21,5.53,12.42,8.39,18.63-9.3,7.67-18.66,15.34-27.97,22.96-4.8-2.74-9.61-5.42-14.41-8.1,10.09-9.62,23.04-18.51,23.04-34.28-14.23,7-28.03,14.92-41.58,23.14-4.07-2.07-8.15-4.08-12.16-6.15l.61-.43c8.33-6.88,16.72-13.7,25.11-20.52-3.83-2.92-11.49-8.77-15.32-11.75-9.79,7-19.64,13.94-29.42,20.89-4.86-1.83-9.79-3.65-14.59-5.36,9.61-7.06,18.97-14.43,28.27-21.98-3.34-2.07-10.03-6.33-13.31-8.4-7.84,4.69-15.62,9.38-23.41,14.13-4.13,4.45-9.3,5.85-15.62,4.2l3.95-4.87c5.29-6.33,10.7-12.54,16.17-18.82-1.88-3.11-5.65-9.32-7.54-12.42,9.97-9.99,20.06-19.91,30.09-29.84Z"/>
  <path class="cls-12" d="m1353.81,565.04c4.62-3.04,9.3-5.97,13.98-8.95,10.33,8.28,20.73,16.56,31.13,24.78-.67,2.86-2.01,8.46-2.67,11.33,11.55,6.76,22.98,13.82,35.2,19.42-5.29,3.9-10.64,7.73-15.99,11.57-11.85-8.34-23.59-16.74-35.38-25.15-.12-3.78-.36-11.39-.49-15.16-8.51-6.09-16.96-12.3-25.78-17.84Z"/>
  <path class="cls-12" d="m826.97,623.86c4.5,4.32,9,8.77,13.5,13.15-11.43,7.19-22.43,15.04-33.56,22.77,3.71,3.04,11.06,9.26,14.77,12.36-10.4,7.85-20.79,15.71-31.19,23.63-4.56-2.86-9.12-5.72-13.68-8.59,8.15-4.69,15.99-9.74,23.83-14.74-3.16-3.41-9.48-10.17-12.65-13.58,13.07-11.57,26.2-23.08,38.97-35.01Z"/>
  <path class="cls-12" d="m857.79,641.64c5.23,3.65,10.52,7.25,15.81,10.84-10.76,6.76-21.52,13.46-32.34,20.09,3.83,6.52,7.6,13.09,11.43,19.61-2.8.97-8.45,2.86-11.25,3.78-1.88-1.22-5.65-3.59-7.48-4.81-3.89-6.15-7.66-12.36-11.37-18.63,11.43-10.66,23.22-20.82,35.2-30.87Z"/>
  <path class="cls-12" d="m854.39,690.29c6.38-4.75,12.71-9.56,19.21-14.25.43,2.13,1.4,6.39,1.82,8.46,2.74,19.49-5.59,35.99-20.73,48.04-5.11-4.26-10.27-8.34-15.44-12.42,6.44-4.45,12.89-8.89,19.33-13.27-1.4-5.54-2.8-11.02-4.19-16.56Z"/>
  <path class="cls-12" d="m920.96,678.18c5.35,3.04,10.7,6.21,16.05,9.44-12.16,5.48-23.59,12.36-35.02,19.18,2.07,6.09,4.19,12.18,6.32,18.33-9.73,6.52-19.45,12.97-29.18,19.49-4.44-3.04-8.82-6.03-13.13-9.01,8.82-4.99,17.33-10.47,25.84-15.95-5.53-21.56,14.04-31.48,29.12-41.47Z"/>
  <path class="cls-12" d="m1117.32,689.07l5.05,2.44c13.92,6.76,28.21,13.58,39.64,24.36-2.19,2.5-6.5,7.43-8.69,9.86,12.65,6.7,25.17,13.58,37.51,20.76-3.83,2.37-11.55,7.12-15.44,9.5-11.43-8.16-22.86-16.38-34.17-24.66,0-3.59.12-10.78.18-14.37-8.09-6.33-16.17-12.67-23.1-20.15l-.97-7.73Z"/>
  <path class="cls-44" d="m1328.64,578.86c4.99-3.59,10.03-7.19,15.02-10.78,12.22,12.36,34.65,21.37,30.52,42.2,8.63,5.6,17.33,11.14,26.02,16.68-4.32,4.38-8.57,8.71-12.83,13.15-10.58-8.65-21.46-16.87-32.52-24.84.3-4.02.97-12.12,1.28-16.14-9-7-17.93-14.07-27.48-20.28Z"/>
  <g>
    <path class="cls-31" d="m90.69,574.66c16.48,11.08,33.56,21.25,51.07,30.57,113.02,63.08,225.55,127.14,338.68,189.98.61,37.02,1.76,74.04-.85,111-107.18-61.26-215.64-120.32-323.36-180.66-24.74-13.4-57.94-23.87-65.96-54.38-2.8-32.09.06-64.36.43-96.51Z"/>
    <path class="cls-31" d="m1094.65,1071.47c293.15-159.35,585.39-320.59,879.2-478.66-1.03,30.38-3.53,60.65-5.53,90.97-1.95,19.55-14.96,35.44-32.83,43.05-270.17,147.78-540.88,294.71-811.24,442.25-22.74,12.42-45.96,24.6-71.43,30.26,3.83-39.4,2.43-79.1,6.38-118.37,11.73-3.35,24.07-4.81,35.44-9.5Z"/>
    <path class="cls-31" d="m577.65,853.78l4.5-.49c100.37,55.05,199.77,111.98,299.65,167.81,44.32,25.15,89.37,52.37,140.8,59.19-2.13,39.88-1.4,79.95-6.32,119.65-20.49-8.1-40.18-17.84-59.33-28.62-103.05-57.48-206.15-114.84-309.26-172.26-24.01-13.64-49.55-25.21-70.64-43.35.73-33.98-.36-68.01.61-101.93Z"/>
  </g>
  <path class="cls-26" d="m717.97,600.3c9.85-5.54,19.58-11.2,29.73-16.26l13.44,4.81c-9.06,9.38-18.79,18.15-29,26.24-4.74-4.93-9.42-9.86-14.17-14.8Z"/>
  <path class="cls-11" d="m672.98,618.38c7.78-4.75,15.56-9.44,23.41-14.13,3.28,2.07,9.97,6.33,13.31,8.4-9.3,7.55-18.66,14.92-28.27,21.98-2.13-4.08-6.32-12.18-8.45-16.26Z"/>
  <g>
    <path class="cls-41" d="m745.2,619.11c11.98-6.88,24.07-14.07,37.69-17.11,3.89,3.9,11.61,11.63,15.5,15.53-7.48,3.23-14.83,6.76-22.13,10.41-3.1,1.58-9.3,4.75-12.4,6.33-6.2-5.11-12.46-10.17-18.66-15.16Z"/>
    <path class="cls-41" d="m1170.33,666.61c8.88-4.99,17.27-10.84,25.78-16.5,11.43,5.85,21.16,14,18.79,28.5,11.13,7.85,22.74,14.98,33.32,23.69,1.64,2.86,4.99,8.52,6.69,11.39-18.12.24-33.74-9.13-49.24-17.11,1.34-3.47,4.07-10.29,5.47-13.7-9.18-3.65-17.93-12.85-28.39-10.05.36,5.78,2.92,10.84,7.66,15.1-2.19,2.31-6.63,7-8.82,9.32,16.6,10.11,33.56,19.79,50.58,29.17l-9.24,2.92c-12.83-5.11-24.86-11.87-36.72-18.82-7.17-17.35-24.68-24.9-40.49-32.39,8.21-3.84,16.41-7.73,24.62-11.51Z"/>
    <path class="cls-41" d="m931.11,719.15c10.46-6.52,20.85-13.09,31.61-19,16.66,9.93,3.22,32.7-8.57,41.59-14.59,11.02-35.08,32.39-52.77,15.1,14.47-5.91,27.97-13.7,40.85-22.41-2.74-3.84-8.33-11.45-11.13-15.28Z"/>
  </g>
  <path class="cls-25" d="m1249.55,625.75c4.68-4.81,9.36-9.62,14.04-14.43,12.22,10.23,24.74,20.09,37.27,29.84-2.01,2.31-6.08,7-8.15,9.32,11.25,6.39,22.43,12.97,33.5,19.79-4.44,11.69-14.96,6.33-22.31,3.47-8.94-5.66-18.12-10.72-27.36-15.71.18-3.84.55-11.45.73-15.28-9.18-5.72-18.36-11.57-27.72-16.99Z"/>
  <path class="cls-72" d="m696.02,640c9.79-6.94,19.64-13.88,29.42-20.89,3.83,2.98,11.49,8.83,15.32,11.75-8.39,6.82-16.78,13.64-25.11,20.52-4.92-2.86-14.71-8.52-19.64-11.39Z"/>
  <path class="cls-38" d="m727.21,657.96c13.56-8.22,27.36-16.14,41.58-23.14,0,15.77-12.95,24.66-23.04,34.28-4.62-2.8-13.92-8.34-18.54-11.14Z"/>
  <g>
    <path class="cls-17" d="m609.87,716.17c34.9-17.72,68.09-39.21,104.02-54.8,8.63,2.92,16.48,7.67,24.44,12.06-46.39,29.65-97.88,50.48-144.81,79.4-26.93,17.23-55.26,32.33-81.28,51.15-.12,39.52,1.16,79.04,2.25,118.62h-10.09c-8.39-5.3-16.48-10.96-24.8-16.38,2.61-36.96,1.46-73.98.85-111,5.35-5.54,10.64-11.08,16.29-16.26,38-20.4,74.84-42.81,113.14-62.78Z"/>
    <path class="cls-17" d="m762.22,687.37c6.5,4.14,12.77,8.52,19.15,12.91-35.08,21.13-70.28,42.01-104.69,64.12,1.58,2.07,4.68,6.27,6.26,8.34-33.13,17.78-65.41,37.14-98.67,54.74-10.21,6.52-5.9,16.81-2.13,25.82l-4.5.49c-.97,33.92.12,67.95-.61,101.93-1.03-.79-2.98-2.31-3.95-3.11-8.02-6.39-16.6-12.06-23.83-19.24-2.25-34.16-5.35-68.68-2.86-102.91.55-17.35,15.87-27.34,29.06-35.5,61.16-37.75,125.72-69.54,186.76-107.59Z"/>
  </g>
  <path class="cls-48" d="m593.52,752.83c46.93-28.92,98.43-49.75,144.81-79.4,8.02,4.57,15.99,9.13,23.89,13.94-61.04,38.06-125.6,69.84-186.76,107.59-13.19,8.16-28.51,18.15-29.06,35.5-2.49,34.22.61,68.75,2.86,102.91,7.23,7.19,15.81,12.85,23.83,19.24-4.99,3.78-9.91,7.55-14.89,11.33-10.03,7.06-21.34,13.15-28.21,23.75-51.86,83.72-101.1,169.22-155.63,251.23-3.95,5.85-7.72,11.93-13.01,16.74-17.51-8.71-44.93-18.39-42.92-42.32,2.07-12.12,10.27-21.86,16.6-32.03,42.25-61.68,82.92-124.46,120.25-189.31,10.46-19.06,26.08-35.5,31.73-56.93,5.9-4.08,11.49-8.4,17.39-12.48h10.09c-1.09-39.58-2.37-79.1-2.25-118.62,26.02-18.82,54.35-33.92,81.28-51.15Z"/>
  <g>
    <path class="cls-39" d="m1486.89,1196.48c8.09-8.52,20.31-.12,25.66,7.37,6.81,15.16-14.71,22.77-17.57,36.6-8.82,28.38-21.34,57.36-18.72,87.62.67,5.6,1.95,16.81,2.61,22.41.49,3.04,1.34,9.07,1.76,12.12-3.95-1.95-7.9-3.96-11.79-5.97-3.22-43.84,3.16-87.87,20.18-128.42-4.8-9.38-15.08-23.99-2.13-31.72Z"/>
    <path class="cls-39" d="m1356.36,1244.82c-9.18-7.67,1.95-18.75,7.17-25.03,5.9,6.94,10.58,14.8,14.41,23.14,11.19,9.99,24.99,17.96,32.89,31.05,5.17,13.7,3.53,28.62,5.59,42.93,1.22,16.62,10.21,31.05,15.75,46.46-1.7,1.04-5.23,3.11-6.93,4.14-3.65-7.92-7.3-15.77-10.64-23.75-6.93-20.89-5.23-43.66-11.92-64.54-11.79-15.83-28.57-26.55-46.33-34.4Z"/>
    <path class="cls-39" d="m1617.35,1241.17c4.19-4.93,8.82-9.5,13.86-13.7,2.13,7,14.65,14.86,6.26,22.04-16.23,16.87-5.11,41.71-11.98,62.11-8.63,24.78-23.65,46.7-33.38,71.06-6.2-2.56-12.52-4.63-18.72-6.82,4.99-1.64,10.15-3.11,15.02-5.3,10.46-16.26,20.91-32.76,28.03-50.78,6.81-25.63,6.2-52.79.91-78.61Z"/>
    <path class="cls-39" d="m1690.91,1287.93c2.01-9.99-1.22-26.91,13.31-27.46,15.02,1.77,14.29,18.39,13.25,29.78-16.48,1.95-29.36,12.18-40.79,23.38-26.02,21.92-42.86,52.06-60.98,80.31-2.07-1.1-6.26-3.23-8.39-4.26,9.91-16.32,19.64-32.7,29.36-49.08,12.89-22.29,35.08-36.35,54.23-52.67Z"/>
    <path class="cls-39" d="m1264.75,1279.96c28.82,5.18,39.09,37.2,47.3,61.44,4.92,20.89,20.24,36.78,35.63,50.78,7.72,6.7,15.68,13.03,23.71,19.42-3.47,2.92-6.81,5.97-10.15,9.07-8.39-8.89-16.78-17.72-25.23-26.49-7.84-8.28-15.99-16.32-22.74-25.45-11.92-17.66-14.17-40.07-27.05-57.18-7.48-10.35-15.14-20.52-21.46-31.6Z"/>
    <path class="cls-39" d="m1561.97,1304.13c10.52,10.29,4.62,24.9,1.16,36.96-4.56,10.41-5.59,25.45-18.3,29.23l2.25-5.72,2.01-5.18c2.19-8.34,4.01-16.74,5.9-25.09,2.19-10.11,4.44-20.22,6.99-30.2Z"/>
    <path class="cls-39" d="m1731.04,1390.17c-5.41-29.29,13.56-57.24,39.94-68.5-13.01,18.45-28.27,35.86-34.29,58.21,26.81.55,67.36,5.18,79.52-25.27,3.65.06,10.94.24,14.59.3.18,3.47.49,10.35.67,13.76-28.69,12.36-59.03,22.65-90.77,19.42-15.2,12.42-30.21,25.03-45.53,37.33-11.37,9.32-22.31,19.12-33.01,29.17-2.67-3.78-5.23-7.55-7.66-11.33,24.07-19.67,50.76-35.8,76.54-53.1Z"/>
    <path class="cls-39" d="m1198.3,1430.24c-7.42-7.92-12.71-20.15,2.19-23.63,34.83,5.72,74.72-4.14,102.62,23.26,8.33,5.72,16.72,11.33,25.23,16.87,1.95,1.52,5.9,4.51,7.84,6.03.06,2.25.24,6.88.3,9.13-2.55-1.58-7.78-4.81-10.4-6.45-8.94-5.48-17.81-11.14-26.26-17.29-19.76-20.82-49.49-17.9-75.63-17.96-9.42.97-17.39,6.52-25.9,10.05Z"/>
    <path class="cls-39" d="m1477.83,1430.54c17.87-7.55,40.25-.91,51.25,15.34,2.74,9.99,3.28,23.38-8.57,27.77-16.96,9.13-34.29-2.31-45.66-14.67-2.25-8.65-7.66-23.02,2.98-28.44Z"/>
    <path class="cls-39" d="m1587.87,1439.06c3.22-11.2,16.78-5.66,24.99-6.45.73,10.47,1.4,20.89,1.82,31.42-13.8,1.04-32.71-8.52-26.81-24.97Z"/>
    <path class="cls-39" d="m1772.32,1456.84c10.52-1.4,24.93,6.27,15.44,18.08-32.71,3.23-63.53,15.77-94.41,26.06.06,4.45.24,13.27.36,17.72,2.19,21.74,1.34,43.6.43,65.34,30.82,14.37,63.71,23.02,96.18,32.7,11.31-6.88,26.69-9.93,33.5,4.81-2.8,17.54-21.28,10.59-30.28,2.62-35.44-5.72-70.46-14.25-103.59-28.25-.73,8.34-1.46,16.68-2.19,25.09,19.88,2.31,40.98,3.41,58.73,13.7,23.22,12.91,38.48,38.6,66.33,42.68,4.92,11.69-5.59,16.08-15.08,17.35-17.75-23.14-38.48-47.92-66.45-58.15-15.38-4.26-30.94-7.85-46.45-11.75,9.06-43.9,6.63-89.63,1.58-133.9,14.29-2.92,28.57-6.39,42.62-10.53,11.85-3.59,23.83-7.06,35.93-10.11,1.82-3.35,5.47-10.05,7.36-13.46Z"/>
    <path class="cls-39" d="m1199.88,1495.08c21.34-12.3,44.44,7.37,66.81,8.4,14.1,3.35,28.15,7.12,41.89,11.87,2.13,1.04,6.38,3.17,8.51,4.2-3.65,11.2-6.75,22.59-9.18,34.1-11.37-1.89-22.74-3.78-34.17-5.66-30.09-9.13-57.88,8.77-85.23,18.45-9.85-2.62-11.37-7.67-4.62-15.16,30.52,2.44,58.06-17.9,88.7-10.59,14.17-1.28,37.63,8.59,41.34-11.26-10.7-5.24-21.83-9.32-33.19-12.54-16.78-4.51-33.8-8.04-50.7-11.75-12.65,8.4-26.81,6.21-30.15-10.05Z"/>
    <path class="cls-39" d="m834.87,1501.66c19.21.55,39.15-2.62,58,2.25,51.67,24.72,101.89,52.73,154.11,76.54-30.34,18.82-63.41,32.21-94.47,49.5-35.69,18.33-72.53,35.68-112.16,43.48-.06-11.63-.3-23.2-.18-34.77.12-10.41.43-20.82.67-31.18-54.05,2.68-107.85,8.52-162.08,6.7,1.82-14.37-5.84-33.92,4.62-44.69,50.16-6.33,100.98-5.48,151.38-9.26-1.28-19.49-3.04-39.15.12-58.58Z"/>
    <path class="cls-39" d="m1360.01,1521.15c8.69-4.26,18.91-4.45,28.27-2.31,10.09,6.88,21.58,15.65,18.3,29.78,0,18.88-20.55,24.17-35.69,24.72-22.07-4.2-28.94-39.09-10.88-52.18Z"/>
    <path class="cls-39" d="m1503.12,1524.49c7.9,0,15.81,0,23.71.06,0,8.16-.06,16.44,0,24.66-8.15-.73-19.51,3.17-22.86-7.12-.24-4.38-.67-13.21-.85-17.6Z"/>
    <path class="cls-39" d="m1835.24,1540.2c5.41-6.88,11.43-14.43,21.4-12.97,10.7,3.23,12.65,18.02,4.13,24.66-45.9-4.57-91.86,3.17-137.82,1.04-8.57-2.8-29.55,3.47-24.32-12.91,9.18-4.2,19.39.18,29,.49,35.69,4.02,71.86,2.86,107.61-.3Z"/>
    <path class="cls-39" d="m1602.4,1551.04c7.48-1.46,14.83,8.59,10.27,15.16-6.02,16.68-23.22,27.46-40.49,28.56-23.41-18.15,7.23-48.83,30.21-43.72Z"/>
    <path class="cls-39" d="m1318.13,1617.29c0-6.39,0-12.73.06-19.06,2.8,15.16,11.79,32.88.18,46.58-11,5.78-21.89,11.63-32.95,17.29-16.17,8.83-34.71,11.57-51.74,18.08-24.32,12.36-37.87,37.75-60.25,52.73,3.65-25.09,30.88-35.68,44.74-54.74-27.36-15.22-60.19-23.38-89.31-7.67,14.23-30.51,53.74-17.48,76.72-5.24,24.8,15.16,52.71-.06,76.05-10.78,13.19-6.82,25.53-15.28,36.29-25.57.06-2.86.12-8.71.18-11.63Z"/>
    <path class="cls-39" d="m1507.86,1643.78c19.27-10.17,41.83,3.78,40.67,25.76-3.47,13.4-11.19,28.62-26.63,30.26-13.01,3.96-23.41-5.54-32.16-13.46,2.01-15.34-.55-37.02,18.12-42.56Z"/>
    <path class="cls-39" d="m1389.19,1676.29c11.92-1.95,31.07,1.7,27.9,17.96.61,11.2-13.19,11.75-21.22,10.17-7.84-7.06-4.74-18.88-6.69-28.13Z"/>
    <path class="cls-39" d="m1647.26,1686.04c3.89-3.23,7.72-6.45,11.55-9.74-.3,2.92-.79,8.83-1.09,11.75,6.26,6.64,12.77,13.09,19.39,19.49,14.65,14,29.67,27.64,45.29,40.61,20.79-6.15,42.68-4.14,62.13,5.42,5.84-1.22,11.67-2.5,17.57-3.65.85,7.61,5.59,16.2-.18,23.2-14.53.55-22.01-16.08-36.17-16.44-10.64-1.52-21.34-1.95-31.98-2.5,4.32,28.56,15.26,56.93,38.24,75.57-36.35-6.21-30.58-54.44-53.01-76.17-23.47-19.49-47.91-37.87-70.16-58.76-.43-2.19-1.22-6.58-1.58-8.77Z"/>
    <path class="cls-39" d="m1350.95,1689.39c3.65.3,7.3.61,11,.97-1.76,1.89-5.23,5.6-6.93,7.49-18.3,25.39-50.58,33.73-71.07,56.69-11.49,13.34-26.2,25.33-30.4,43.23-.24,10.23-11.67,12.54-19.45,9.07-6.14-7.49-.12-16.99,1.22-25.09,4.32-.61,13.01-1.83,17.33-2.44,14.1-26.43,38.18-44.57,63.89-58.7,12.95-8.65,23.89-19.85,34.41-31.24Z"/>
    <path class="cls-39" d="m1367.49,1709.11c5.11.79,10.27,1.58,15.38,2.62-1.7,1.89-5.11,5.6-6.87,7.43-8.21,9.5-16.11,19.3-24.14,28.98-18.42,14.43-13.13,37.2-6.57,56.26-1.28,11.93-14.41,9.26-22.8,11.51-1.7-9.99,2.07-19.06,8.57-26.43-2.37-32.03,19.82-55.78,36.42-80.38Z"/>
    <path class="cls-39" d="m1607.14,1734.14c10.33,18.21,19.45,37.39,34.83,52.12.55,3.11,1.7,9.44,2.25,12.6-4.26-.49-12.83-1.46-17.08-1.89.18-4.14.61-12.42.79-16.56-9-13.34-20.43-25.82-24.93-41.59,1.03-1.16,3.1-3.53,4.13-4.69Z"/>
    <path class="cls-39" d="m1451.26,1742.6c13.31,2.98,26.87,4.75,40.49,6.15l-7.66-.49c-.67,7.73-1.22,15.53-1.52,23.32-1.28,17.72-1.28,35.62,3.53,52.91,1.46,7.61-13.19,16.26-15.81,6.45-6.81-6.94,2.37-14.92,5.11-21.19,1.28-20.15.79-40.61-5.53-59.92-16.41.91-20.31,17.54-24.93,30.08-7.36,19.85-8.94,41.1-12.77,61.74-3.4,19.79-14.47,36.78-23.95,54.07,1.82,10.35.97,29.35-13.62,28.13-11.31.61-15.99-12.67-13.98-21.98,17.45-9.62,32.52-23.81,39.03-43.11,4.26-26.79,3.04-55.11,14.71-80.25,3.34-8.04,7.05-15.95,10.88-23.75,1.52-3.04,4.5-9.13,6.02-12.18Z"/>
    <path class="cls-39" d="m1545.49,1752.53l5.96.37c17.14,15.28,27.54,36.96,36.72,57.79,9.42,19.97,2.67,42.32,2.67,63.33,4.68,5.6,16.41,8.95,13.13,18.21-6.02,12.79-23.95,11.08-32.59,2.01,0-7.79,5.65-13.4,9.91-19.18,9.79-39.46-5.41-78.49-28.51-110.03-2.43-4.2-4.92-8.34-7.3-12.48Z"/>
  </g>
  <path class="cls-20" d="m1476.25,1328.06c26.38-.97,53.01-.3,78.73,6.27-1.88,8.34-3.71,16.74-5.9,25.09-23.59-1.58-47.18-3.41-70.22-8.95-.67-5.6-1.95-16.81-2.61-22.41Z"/>
  <path class="cls-56" d="m1544.83,1370.32c12.71-3.78,13.74-18.82,18.3-29.23-1.34,9.32-2.61,18.63-3.71,28.01,9.67.61,19.33,1.1,29,1.46-4.86,2.19-10.03,3.65-15.02,5.3,6.2,2.19,12.52,4.26,18.72,6.82,3.77,1.7,11.43,5.24,15.2,7,2.13,1.04,6.32,3.17,8.39,4.26,11.79,17.29,27.9,31.24,38.79,49.32,2.43,3.78,4.99,7.55,7.66,11.33,8.51,11.81,17.27,23.5,24.26,36.35,5.05,44.27,7.48,90-1.58,133.9-6.87,17.96-15.81,35.13-26.02,51.45-3.83,3.29-7.66,6.52-11.55,9.74.36,2.19,1.16,6.58,1.58,8.77-12.95,14.13-29.3,24.66-41.7,39.34-1.03,1.16-3.1,3.53-4.13,4.69-17.27,4.26-33.44,14.37-51.55,14.07l-5.96-.37c-17.93-.91-35.87-2.19-53.74-3.78-13.62-1.4-27.17-3.17-40.49-6.15-23.83-7.92-45.35-21.19-68.39-30.87-5.11-1.04-10.27-1.83-15.38-2.62-4.19-3.78-8.33-7.55-12.46-11.26,1.7-1.89,5.17-5.6,6.93-7.49-3.71-.37-7.36-.67-11-.97-9.18-15.71-18.06-31.6-27.97-46.89l-4.62,2.31c11.61-13.7,2.61-31.42-.18-46.58-.06,6.33-.06,12.67-.06,19.06-8.88-19.91-13.13-41.83-10.21-63.63,2.43-11.51,5.53-22.89,9.18-34.1,6.57-19.12,18.24-37.08,19.39-57.66-.06-2.25-.24-6.88-.3-9.13-1.95-1.52-5.9-4.51-7.84-6.03l6.14,2.86c8.88-9.74,17.27-19.85,26.75-28.92,3.34-3.11,6.69-6.15,10.15-9.07,3.95-3.47,7.9-6.88,11.85-10.29,23.28-6.7,45.72-16.62,69.67-20.76,30.46-4.75,61.4-5.66,91.92-10.23Zm-114.72,39.7c5.78,6.21,10.7,13.88,18.91,17.29,10.94-1.52,16.72-17.96,5.29-22.77-9-7.12-16.78.3-24.2,5.48Zm47.72,20.52c-10.64,5.42-5.23,19.79-2.98,28.44-28.27,12.12-62.37,23.56-71.37,56.93-3.77.73-11.43,2.19-15.2,2.92-9.36-2.13-19.58-1.95-28.27,2.31-18.06,13.09-11.19,47.98,10.88,52.18,18.85,11.93,23.16,34.65,30.88,53.95,6.69,19.12,20.91,34.77,37.39,46.03,15.93,7.37,33.68,8.77,50.58,13.03,8.75,7.92,19.15,17.41,32.16,13.46,15.44-1.64,23.16-16.87,26.63-30.26,10.33-15.71,27.6-23.99,41.77-35.68,14.96,18.33,30.64-4.38,24.26-20.82l-10.21,1.1c9.18-25.45,22.25-52.91,11.67-80.13-10.52-43.66-53.74-64.12-86.94-88.11-11-16.26-33.38-22.89-51.25-15.34Zm110.04,8.52c-5.9,16.44,13.01,26,26.81,24.97-.43-10.53-1.09-20.95-1.82-31.42-8.21.79-21.76-4.75-24.99,6.45Zm49.67,85.37c-4.92,13.82,18.66,26.67,22.86,10.41-1.22-11.51-13.74-13.46-22.86-10.41Zm-248.34,151.86c1.95,9.26-1.16,21.07,6.69,28.13,8.02,1.58,21.83,1.04,21.22-10.17,3.16-16.26-15.99-19.91-27.9-17.96Z"/>
  <path class="cls-34" d="m1347.67,1392.18c14.89-24.78,41.52-37.39,66.93-48.41,3.34,7.98,6.99,15.83,10.64,23.75-16.05,8.46-31.92,18.08-42.01,33.79-3.95,3.41-7.9,6.82-11.85,10.29-8.02-6.39-15.99-12.73-23.71-19.42Z"/>
  <path class="cls-60" d="m1478.86,1350.47c23.04,5.54,46.63,7.37,70.22,8.95l-2.01,5.18c-22.13-.3-44.32-.55-66.45-2.01-.43-3.04-1.28-9.07-1.76-12.12Z"/>
  <path class="cls-1" d="m1432.17,1363.38c12.34-1.58,24.5-4.02,36.66-6.76,3.89,2.01,7.84,4.02,11.79,5.97,22.13,1.46,44.32,1.7,66.45,2.01l-2.25,5.72c-30.52,4.57-61.46,5.48-91.92,10.23-23.95,4.14-46.39,14.07-69.67,20.76,10.09-15.71,25.96-25.33,42.01-33.79,1.7-1.04,5.23-3.11,6.93-4.14Z"/>
  <path class="cls-19" d="m361.84,1377.02c19.33.3,38.73-.49,58.06.37,6.26,13.4-12.4,6.88-19.15,9.44-1.03,11.51,4.44,17.48,16.29,17.84-.06,8.77-.12,17.6-.24,26.43,9.54-7.61,19.09-15.59,30.64-20.03-4.5,13.64-16.6,24.54-31.19,25.7.36,6.58,1.03,19.67,1.4,26.18,8.75-11.57,16.84-23.56,23.47-36.47,2.19,2.62,6.44,7.85,8.57,10.41,9.67-1.16,19.27-2.07,29-2.68-5.05-3.78-15.14-11.39-20.18-15.16.55-3.65,1.7-10.9,2.25-14.55-12.65,3.41-25.53,5.42-38.66,5.97,5.29-17.66,19.27-31.3,31.31-44.75,1.95,13.27-8.82,22.96-13.98,34.04,6.63-.55,19.88-1.77,26.51-2.37-2.55-6.15-4.86-12.36-7.05-18.63,13.07,5.3,25.35,18.88,25.17,33.61-8.27-8.28-16.35-6.27-23.83,1.28,11.55,1.58,19.21,10.53,27.78,17.41-14.1,10.66-17.87,28.8-26.63,43.35,9.36,4.2,18.54,8.59,27.72,13.27-11.98,11.45-24.62-3.47-35.69-8.1-8.33,4.81-16.72,9.44-25.35,13.76-19.76-4.81-40.31-1.83-60.43-2.07-2.13-28.92-.91-57.91-1.16-86.83,12.46.37,17.87-5.78,16.17-18.33h-20.49c-.12-2.25-.24-6.82-.3-9.07Zm28.03,13.21,14.41,20.82c-4.92,6.09-6.81,23.93,2.49,25.7,3.53-6.76,5.96-22.83-2.49-25.7Zm-29.18,26c8.21-1.58,8.09-16.62,4.07-22.47-8.57,1.34-7.11,16.32-4.07,22.47Zm16.35-28.25c-2.49,18.02-5.41,36.35-18.85,49.93,11.79.49,23.59.67,35.38.91.18-2.98.55-9.01.73-12.06-3.34-1.64-10.09-5.05-13.44-6.76-.12-10.78.73-21.92-3.83-32.03Zm48.15,37.63c4.38,6.64,6.57,17.05,16.54,16.38,3.34-5.42,6.57-10.96,9.54-16.56-8.69-.06-17.45,0-26.08.18Zm-19.82,23.99c-6.5,13.4,17.08,11.14,20.79,2.62-1.52-2.25-4.56-6.64-6.14-8.83-3.65,1.52-11,4.69-14.65,6.21Zm-47.78,9.74c12.83.73,25.72.79,38.6.3-.85-2.86-2.67-8.59-3.53-11.45-12.83-.12-32.95-7.37-35.08,11.14Z"/>
  <path class="cls-37" d="m1268.27,1372.75c11.37-4.26,17.87,15.95,5.29,18.02-10.52,2.25-16.78-15.1-5.29-18.02Z"/>
  <path class="cls-24" d="m272.29,1378.72c19.64-2.62,39.58-1.04,59.27-.85-4.07,19.97-28.51,23.08-40.67,37.14,15.99,1.1,32.04.91,48.09,1.04-1.28,22.35-1.09,45.06-6.2,66.92-6.69,10.84-31.43,13.64-34.11-2.07,7.96-.3,15.93-.61,23.89-.85,3.77-17.54,4.86-35.44,5.96-53.28-2.98-.3-8.82-.85-11.73-1.16-7.17,24.42-14.71,50.48-35.81,66.8-2.8-.79-8.39-2.31-11.19-3.11,17.27-16.87,36.23-38.6,33.5-64.3l-9.97,1.16c-8.33,17.9-16.11,36.9-31.86,49.75-10.76-18.27,22.92-29.65,17.45-48.47-4.07-1.4-12.22-4.2-16.29-5.66,14.23-12.79,31.67-21.25,46.02-33.98-13.01-.61-26.02-.61-39.03-.79.67-2.07,2.01-6.21,2.67-8.28Z"/>
  <path class="cls-8" d="m1336,1394.19c8.45,8.77,16.84,17.6,25.23,26.49-9.48,9.07-17.87,19.18-26.75,28.92l-6.14-2.86c-8.51-5.54-16.9-11.14-25.23-16.87,9.61-13.09,20.49-25.21,32.89-35.68Z"/>
  <path class="cls-73" d="m1430.11,1410.02c7.42-5.18,15.2-12.6,24.2-5.48,11.43,4.81,5.65,21.25-5.29,22.77-8.21-3.41-13.13-11.08-18.91-17.29Z"/>
  <path class="cls-43" d="m375.09,1437.06c-3.04-6.15-4.5-21.13,4.07-22.47,4.01,5.85,4.13,20.89-4.07,22.47Z"/>
  <path class="cls-53" d="m1662.16,1454.59c10.7-10.05,21.64-19.85,33.01-29.17,9.79,19.12,16.78,40.8,33.86,54.98-14.04,4.14-28.33,7.61-42.62,10.53-6.99-12.85-15.75-24.54-24.26-36.35Z"/>
  <path class="cls-51" d="m1299.83,1438.15c8.45,6.15,17.33,11.81,26.26,17.29-6.44,19.79-12.83,39.58-17.51,59.92-13.74-4.75-27.78-8.52-41.89-11.87,6.99-1.64,13.56-4.2,19.76-7.67,7.05-18.51,9.3-38.42,13.37-57.66Z"/>
  <path class="cls-40" d="m1529.08,1445.88c33.19,23.99,76.42,44.45,86.94,88.11,10.58,27.22-2.49,54.68-11.67,80.13-8.39,3.53-12.83,10.96-14.04,19.73-14.17,11.69-31.43,19.97-41.77,35.68,1.16-21.98-21.4-35.93-40.67-25.76-18.66,5.54-16.11,27.22-18.12,42.56-16.9-4.26-34.65-5.66-50.58-13.03-16.48-11.26-30.7-26.91-37.39-46.03-7.72-19.3-12.04-42.01-30.88-53.95,15.14-.55,35.69-5.85,35.69-24.72,3.28-14.13-8.21-22.89-18.3-29.78,3.77-.73,11.43-2.19,15.2-2.92,9-33.37,43.1-44.82,71.37-56.93,11.37,12.36,28.69,23.81,45.66,14.67,11.85-4.38,11.31-17.78,8.57-27.77Zm-25.96,78.61c.18,4.38.61,13.21.85,17.6,3.34,10.29,14.71,6.39,22.86,7.12-.06-8.22,0-16.5,0-24.66-7.9-.06-15.81-.06-23.71-.06Zm99.28,26.55c-22.98-5.11-53.62,25.57-30.21,43.72,17.27-1.1,34.47-11.87,40.49-28.56,4.56-6.58-2.8-16.62-10.27-15.16Z"/>
  <path class="cls-5" d="m1326.09,1455.44c2.61,1.64,7.84,4.87,10.4,6.45-1.16,20.58-12.83,38.54-19.39,57.66-2.13-1.04-6.38-3.17-8.51-4.2,4.68-20.34,11.06-40.13,17.51-59.92Z"/>
  <path class="cls-18" d="m419.77,1470.42c3.65-1.52,11-4.69,14.65-6.21,1.58,2.19,4.62,6.58,6.14,8.83-3.71,8.52-27.3,10.78-20.79-2.62Z"/>
  <path class="cls-29" d="m1280.74,1516.88c11.37,3.23,22.49,7.31,33.19,12.54-3.71,19.85-27.17,9.99-41.34,11.26,10.46-4.75,10.33-14.25,8.15-23.81Z"/>
  <path class="cls-3" d="m1637.54,1524.43c9.12-3.04,21.64-1.1,22.86,10.41-4.19,16.26-27.78,3.41-22.86-10.41Z"/>
  <path class="cls-52" d="m1273.75,1548c11.43,1.89,22.8,3.78,34.17,5.66-2.92,21.8,1.34,43.72,10.21,63.63-.06,2.92-.12,8.77-.18,11.63-10.76,10.29-23.1,18.75-36.29,25.57-5.35-35.26-7.84-70.88-7.9-106.5Z"/>
  <g>
    <path class="cls-61" d="m1046.98,1580.45c4.8,6.21,7.23,16.14-1.95,19.79-44.56,28.19-89.37,56.2-132.47,86.71-16.6,13.52-39.7,8.4-59.4,7.67-12.83,1.64-10.33-13.34-12.83-21.19,39.64-7.79,76.48-25.15,112.16-43.48,31.07-17.29,64.14-30.69,94.47-49.5Z"/>
    <path class="cls-61" d="m678.75,1614.19c54.23,1.83,108.03-4.02,162.08-6.7-.24,10.35-.55,20.76-.67,31.18-53.07.49-106.02,7.06-159.16,3.65-.79-9.38-1.52-18.82-2.25-28.13Z"/>
  </g>
  <path class="cls-23" d="m1590.3,1633.85c1.22-8.77,5.65-16.2,14.04-19.73l10.21-1.1c6.38,16.44-9.3,39.15-24.26,20.82Z"/>
  <path class="cls-14" d="m1658.81,1676.29c10.21-16.32,19.15-33.49,26.02-51.45,15.5,3.9,31.07,7.49,46.45,11.75-7.23,30.63-34.04,49.08-54.17,70.94-6.63-6.39-13.13-12.85-19.39-19.49.3-2.92.79-8.83,1.09-11.75Z"/>
  <path class="cls-66" d="m1285.42,1662.11c11.06-5.66,21.95-11.51,32.95-17.29l4.62-2.31c9.91,15.28,18.79,31.18,27.97,46.89-10.52,11.39-21.46,22.59-34.41,31.24-10.15-19.67-20.31-39.27-31.13-58.52Z"/>
  <path class="cls-74" d="m349.19,1681.47c37.81.12,75.63-.18,113.44.24-2.92,11.26-9.48,21.01-17.08,29.65-11.37,1.4-22.92.73-34.35.91l-.49,10.23c18.36,4.32,43.16-8.28,57.39,7-32.34,3.29-66.69,8.77-95.81-9.32-7.6,7.25-13.5,17.17-24.99,18.45,9-14.55,17.75-29.29,24.38-45.12,2.8,6.52,4.86,13.21,6.69,20.09,7.42,2.98,14.83,5.85,22.37,8.59.24-10.41.49-20.82.67-31.18-17.39-.67-34.77-.67-52.16-.55l-.06-9.01Zm61.46,9.07c.12,3.35.3,10.11.43,13.52,13.07-3.65,40.18,9.44,38.6-13.52-13.01-.12-26.02-.06-39.03,0Z"/>
  <path class="cls-22" d="m1376,1719.16c1.76-1.83,5.17-5.54,6.87-7.43,23.04,9.68,44.56,22.96,68.39,30.87-1.52,3.04-4.5,9.13-6.02,12.18-24.74-8.4-48.03-20.34-69.24-35.62Z"/>
  <path class="cls-30" d="m1376,1719.16c21.22,15.28,44.5,27.22,69.24,35.62-3.83,7.79-7.54,15.71-10.88,23.75-18.66-25.94-55.32-20.15-82.5-30.38,8.02-9.68,15.93-19.49,24.14-28.98Z"/>
  <path class="cls-47" d="m1484.09,1748.27l7.66.49c17.87,1.58,35.81,2.86,53.74,3.78,2.37,4.14,4.86,8.28,7.3,12.48-23.47-.49-48.21-3.59-70.22,6.58.3-7.79.85-15.59,1.52-23.32Z"/>
  <path class="cls-59" d="m1644.29,1883.57c9-5.66,25.9-1.89,19.03,11.81-3.65,15.04-25.53.67-19.03-11.81Z"/>
</svg>