<?xml version="1.0" encoding="UTF-8"?>
<svg id="_图层_1" data-name="图层 1" xmlns="http://www.w3.org/2000/svg" viewBox="0 0 2284.48 2007.69">
  <defs>
    <style>
      .cls-1 {
        fill: #93906e;
      }

      .cls-2 {
        fill: #94906f;
      }

      .cls-3 {
        fill: #fff;
      }

      .cls-4 {
        fill: #827f5d;
      }

      .cls-5 {
        fill: #040404;
      }

      .cls-6 {
        fill: #5b9716;
      }

      .cls-7 {
        fill: #8f8d67;
      }

      .cls-8 {
        fill: #70d40a;
      }

      .cls-9 {
        fill: #83805e;
      }

      .cls-10 {
        fill: #928f70;
      }

      .cls-11 {
        fill: #678f2b;
      }

      .cls-12 {
        fill: #8e8d66;
      }

      .cls-13 {
        fill: #dddcd7;
      }

      .cls-14 {
        fill: #959270;
      }

      .cls-15 {
        fill: #71d00d;
      }

      .cls-16 {
        fill: #e0dfda;
      }

      .cls-17 {
        fill: #77b429;
      }

      .cls-18 {
        fill: #8f8f67;
      }

      .cls-19 {
        fill: #96936f;
      }

      .cls-20 {
        fill: #579811;
      }

      .cls-21 {
        fill: #030303;
      }

      .cls-22 {
        fill: #5e941d;
      }

      .cls-23 {
        fill: #4f3a15;
      }

      .cls-24 {
        fill: #dbdad4;
      }

      .cls-25 {
        fill: #5f931f;
      }

      .cls-26 {
        fill: #76ca1a;
      }

      .cls-27 {
        fill: #619322;
      }

      .cls-28 {
        fill: #73c915;
      }

      .cls-29 {
        fill: #ffe92c;
      }

      .cls-30 {
        fill: #837f5d;
      }

      .cls-31 {
        fill: #d1d0c7;
      }

      .cls-32 {
        fill: #3b3a2e;
      }

      .cls-33 {
        fill: #928e6e;
      }

      .cls-34 {
        fill: #050505;
      }

      .cls-35 {
        fill: #959170;
      }

      .cls-36 {
        fill: #8e8a6a;
      }

      .cls-37 {
        fill: #efefef;
      }

      .cls-38 {
        fill: #8f8b6b;
      }

      .cls-39 {
        fill: #92906b;
      }

      .cls-40 {
        fill: #d7d5ce;
      }

      .cls-41 {
        fill: #76b925;
      }

      .cls-42 {
        fill: #8f8f66;
      }

      .cls-43 {
        fill: #e1e0dc;
      }

      .cls-44 {
        fill: #ffee5f;
      }

      .cls-45 {
        fill: #fff5b5;
      }

      .cls-46 {
        fill: #fff9d3;
      }

      .cls-47 {
        fill: #83805d;
      }

      .cls-48 {
        fill: #010101;
      }

      .cls-49 {
        fill: #908e68;
      }

      .cls-50 {
        fill: #908c6a;
      }

      .cls-51 {
        fill: #8f9066;
      }
    </style>
  </defs>
  <g>
    <path class="cls-3" d="m3.84,4.78C-.86,7.09-1.5-.41,3.34.02c1.83,1.37,2,2.95.49,4.76Z"/>
    <path class="cls-3" d="m857.52,189.63c.47-2.51,2.13-7.62,6.31-4.92,3.72,3.82-2.58,5.38-6.31,4.92Z"/>
    <path class="cls-3" d="m861.74,201.49c8.54-2.33,14.25,7.82,9.55,13.11-3.98,6.36-17.15,3.93-18.46-2.9-1.33-4.76,3.25-9.45,8.91-10.22Z"/>
    <path class="cls-3" d="m833.92,214.92c3.12.62,10.01-.25,9,3.89.54,4.3-7.25,3.06-10.39,4.58-.06-1.19-.19-3.57-.26-4.74.43-.94,1.25-2.81,1.66-3.73Z"/>
    <path class="cls-3" d="m881.82,221.34c2.6-.52,7.85-.25,6.95,3.02.93,4.23-5.36,2.54-8.37,3.29.37-2.11.84-4.23,1.42-6.31Z"/>
    <path class="cls-3" d="m1323.3,606.61c5.64.71,11.37,1.48,17.1,2.3-1.67,5.61.78,16.83-8.09,15.86-13.33,5.51-8.28-10.05-9.02-18.16Z"/>
    <path class="cls-3" d="m2083.03,770.27c2.89-3.37,5.83-6.68,8.77-9.95,2.74,1.43,8.23,4.34,10.98,5.76-3.33,11.17-12.84,13.21-19.75,4.18Z"/>
    <path class="cls-3" d="m2153.3,1278.64c-1.03-7.75,16.86-8.31,15.78-.05-5.24,3.52-10.49,3.57-15.78.05Z"/>
    <path class="cls-3" d="m2156.04,1313.17c-8.33-8.06-16.56-16.22-23.52-25.5,6.86-.15,20.53-.36,27.39-.51-.98,6.53-2.89,19.48-3.87,26.01Z"/>
    <path class="cls-3" d="m2162.56,1287.16c6.37.05,19.16.15,25.58.2-3.68,5.71-7.35,11.37-10.54,17.44-4.26.46-8.53,1.02-12.74,1.58-.59-4.79-1.72-14.43-2.3-19.23Z"/>
  </g>
  <path class="cls-23" d="m470.26,1647.07c3.77-15.86,16.76-25.35,32.05-26.21,7.45,9.95,20.83,22.54,11.71,36.06-5.73,13.01-20.19,12.5-31.8,12.55-3.97-7.55-8.13-14.89-11.96-22.39Zm13.97-14.38c-1.76,3.37-5.34,10.15-7.11,13.52,1.72,2.75,5.15,8.26,6.86,11.07,2.6,1.68,7.74,5.15,10.34,6.83,3.23-1.79,9.7-5.3,12.89-7.09,0-8.16-.05-16.27-.1-24.33-7.64-.1-15.29-.15-22.88,0Z"/>
  <g>
    <path d="m1263.56,1033.18c15.53-6.94,32.98-3.06,49.39-3.77,14.41.56,34.3-3.47,40.57,14.54,1.81,43.86-.78,87.87-.74,131.78,18.47.2,42.39-5.3,51.99,16.37-15.58,24.43-42.88,36.47-64,54.93-12.1,7.65-26.17,25.7-41.26,15.05-28.52-19.53-56.7-39.73-84.58-60.23-8.13-4.39-11.07-16.73-2.84-22.75,14.65-3.72,29.99-2.81,44.98-3.21-.2-40.55-.05-81.04-.15-121.53.34-7.65-1.18-17.03,6.62-21.17Zm14.01,166.31c-9.26-.1-18.42-.05-27.59-.05,19.75,14.08,39.64,28,59.15,42.48,7.6-5.41,15.24-10.76,22.84-16.17,11.27-9.28,22.93-18.05,34.69-26.67-11.71-.05-23.37-.1-35.04-.15-.69-48.71-.98-97.51,1.57-146.12-11.56-.36-23.03-.66-34.5-.82-4.7-.2-14.11-.61-18.77-.82-1.03,49.42,0,98.89-2.35,148.31Z"/>
    <path d="m1488.63,1074.08c-1.62-6.94,2.16-11.83,8.13-13.36,1.52,11.27,1.08,22.59,1.23,34.02,12.05-4.74,31.17-8.98,37.05,7.19,3.33,15.96,1.13,32.64,1.86,48.91h-9.41c-.54-15.56,1.76-31.52-2.01-46.67-7.2-10.3-23.37-5.56-26.66,5.97-1.76,13.46-.78,27.13-.78,40.8-2.35-.05-7.11-.1-9.51-.15.2-25.6-.29-51.15.1-76.7Z"/>
    <path d="m2143.84,1266.61c.98-2.5,2.89-7.5,3.87-10,3.92,9.64,13.13,9.54,21.76,10.15l2.16-11.27c2.16,2.4,6.37,7.24,8.53,9.64,6.91.71,13.87,1.68,20.88,2.91-10.19,3.83-23.13,2.09-29.55,13.31,6.03.1,17.98.36,23.96.46,1.18,16.93-14.01,25.4-22.49,37.49,8.48,2.81,17,6.07,25.53,9.18-.83,1.79-2.5,5.3-3.38,7.09-12.05-5-24.31-10.4-32.88-20.91-11.32,9.44-24.16,17.19-38.56,19.89,6.42-8.01,16.17-10.97,25.09-14.79-5.73-8.36-10.68-17.34-15.97-25.86-1.47,1.84-4.46,5.56-5.93,7.45.78-5.05,2.35-15.05,3.14-20.09,7.64.2,15.39.41,23.23.61-5.98-11.32-16.71-10.51-26.8-10.71.2-1.43.64-4.39.88-5.87,4.12.36,12.4.97,16.56,1.33Zm9.46,12.04c5.29,3.52,10.54,3.47,15.78-.05,1.08-8.26-16.81-7.7-15.78.05Zm2.74,34.53c.98-6.53,2.89-19.48,3.87-26.01-6.86.15-20.53.36-27.39.51,6.96,9.28,15.19,17.44,23.52,25.5Zm6.52-26.01c.59,4.79,1.72,14.43,2.3,19.23,4.21-.56,8.48-1.12,12.74-1.58,3.19-6.07,6.86-11.73,10.54-17.44-6.42-.05-19.21-.15-25.58-.2Z"/>
    <path d="m2241.85,1289.81c1.42-11.63-4.07-26.21,5.68-35.04.93,11.63.98,23.36,1.03,35.09,11.86,1.12,25.73-3.32,35.92,5.1-9.31,1.28-18.67,1.58-27.98,1.99.05,9.38.2,18.82.49,28.31,3.77-.05,11.37-.05,15.14-.1,1.47-4.64,4.36-13.92,5.78-18.56,2.45,7.91,2.06,16.27,1.42,24.53-9.36.51-18.72.66-27.98.56-1.27-11.68-1.52-23.41-1.67-35.09-2.99-.05-8.97-.15-11.96-.2-1.57,18.11-11.56,36.47-30.38,39.27,8.72-12.5,22.79-21.32,24.06-38.25-8.58-1.43-18.62,1.12-25.19-6.27,11.81-1.33,23.72-1.28,35.62-1.33Z"/>
    <path d="m2214.01,1261.87c10.54,4.34,16.37,14.74,21.86,24.48-11.96-2.45-17.2-14.33-21.86-24.48Z"/>
    <path d="m2254.54,1285.48c5.98-9.28,12.59-18.36,21.71-24.53-3.72,10.66-9.11,23.72-21.71,24.53Z"/>
    <path d="m637.07,1930.02c1.72-1.38,5.15-4.08,6.86-5.46.98,14.38.83,28.87,1.08,43.35,15.68-14.03,25.43-37.38,46.75-42.89-8.33,12.85-18.87,23.87-29.21,34.99,11.17,14.89,22.74,29.58,32.59,45.59-19.6-3.67-26.36-25.6-38.66-39.17-3.87,4.18-7.69,8.42-11.47,12.7-.25,9.54-.69,18.97-1.96,28.56-1.67-2.45-4.95-7.34-6.57-9.79-.49-22.59-1.47-45.44.59-67.88Z"/>
    <path d="m1748.54,1952.61c.74-19.33,28.37-28,37.83-11.02,9.56,21.98-14.36,37.43-24.89,53.04,10.88,1.38,24.01-2.7,33.42,5.41-16.02,2.5-32.19,1.89-48.22,1.28,9.31-14.23,21.76-25.76,31.26-39.78,6.27-7.65,1.32-24.33-9.8-21.78-6.86,3.72-12.99,8.67-19.6,12.85Z"/>
    <path d="m1802.98,1952.66c-.1-22.24,34.94-28.31,39.54-5.71,2.79,20.3-17,32.95-27,47.63,10.93.2,22.05.46,32.98,2.04-13.67,10.25-32.19,3.26-47.83,4.69,9.6-14.18,22-25.96,31.56-40.09,6.17-7.85,1.27-23.1-9.65-21.78-6.91,3.83-12.99,8.93-19.6,13.21Z"/>
    <path d="m1854.24,1986.68c9.51-19.64,16.61-41.77,32.68-56.87-2.84,18.41-14.31,33.35-21.81,49.83,4.66.1,13.97.31,18.57.41.83-8.47,1.37-17.29,7.84-23.46.69,7.45,1.37,14.99,1.91,22.59,2.94.71,8.82,2.09,11.76,2.75-2.79,1.94-8.38,5.81-11.17,7.75-1.32,5.97-3.92,11.22-7.84,15.81-.49-4.59-1.47-13.77-1.91-18.31-10.05-.15-20.09-.26-30.04-.51Z"/>
    <path d="m1962.73,2005.55c8.33-25.7,12.74-55.28,30.38-76.04-2.16,16.52-9.16,31.67-14.31,47.33-4.02,10.25-6.47,22.19-16.07,28.71Z"/>
    <path d="m2006.34,1933.79c14.46,1.43,31.07-4.28,43.91,4.85-11.91,1.99-23.96,1.94-35.92,2.04-.05,7.8-.05,15.66-.05,23.56,10.54,1.33,23.77-3.77,31.85,5.81-10.54,1.02-21.12,1.17-31.61,1.33-1.42,11.27,3.92,26.37-7.3,33.56-1.62-23.72-.64-47.43-.88-71.15Z"/>
    <path d="m2057.16,1951.75c.44-19.58,28.13-26.32,37.39-10,4.8,8.01-.29,16.22-4.31,23.1,3.87,6.78,11.32,13.72,8.28,22.54-4.36,22.03-41.06,19.79-42.34-3.06,9.7,5.61,24.65,19.74,33.22,4.54,6.32-14.99-10.58-18.16-20.53-21.98,6.32-4.85,24.5-8.42,18.08-19.84-5.24-16.63-21.27-.26-29.79,4.69Z"/>
    <path d="m2167.95,1954.86c-8.23-21.17,28.03-31.37,35.33-12.09,8.82,21.32-15.19,36.41-25.38,51.71,11.12.36,22.54.36,33.52,3.06-15.19,7.6-32.44,3.32-48.61,3.88,9.65-14.13,22.05-25.91,31.66-39.98,6.66-7.5,1.27-24.07-9.56-21.42-11.66-4.9-7.3,20.04-16.95,14.84Z"/>
  </g>
  <g>
    <path class="cls-32" d="m595.22,461.32c58.31-13.01,121.23-3.47,172.83,27.95,63.95,36.72,108.83,107.2,115.65,182.99,6.57,67.42-18.18,136.73-63.65,184.88-51.94,55.59-129.71,83.49-203.56,73.13-59.73-7.45-116.67-39.12-155.04-87.47-50.03-61.15-66.15-150.6-39.15-226.08,25.87-78.95,95.16-138.31,172.93-155.4Zm-120.45,104.6c-48.76,60.44-56.25,151.42-22.1,221.24,33.13,69.51,103.69,116.28,177.68,121.23,65.91,5.56,134.02-21.42,178.42-72.68,35.53-39.58,55.37-94.15,53.02-148.36-.83-73.08-43.42-142.29-104.72-176.97-89.58-57.78-219.83-33.35-282.3,55.54Z"/>
    <path class="cls-32" d="m1261.11,460.7c57.09-12.04,118.29-2.4,168.81,27.9,62.28,35.9,107.81,103.22,115.69,177.33,6.86,57.73-7.84,118.07-41.36,164.78-39.59,57.17-104.18,94.2-171.51,100.37-84.97,9.44-173.71-32.33-221.59-106.39-36.07-53.75-48.02-123.88-32.34-187.32,21.07-89.3,96.19-159.48,182.29-176.66Zm-105.01,83.64c-42.53,41-65.12,102.82-61.4,162.89,4.12,71.5,46.65,138.47,106.87,172.64,46.11,26.57,101.83,36.67,153.33,23.66,81.05-15.15,150.98-84.81,166.31-169.52,11.17-56.87-2.45-118.32-36.16-164.48-39.54-55.95-105.45-90.12-172.05-90.42-57.63-1.02-116.67,21.98-156.91,65.23Z"/>
    <path class="cls-32" d="m1912.84,461.06c57.19-12.44,118.78-3.32,169.65,27.03,53.56,30.55,95.11,84.05,110.55,145.81,20.04,73.7.69,157.13-48.51,213.89-51.94,62.32-135.25,93.89-213.6,82.21-60.81-8.06-118.44-41.36-156.56-91.44-41.9-54.77-59.19-129.49-42.83-197.73,19.94-90.22,94.72-161.77,181.31-179.78Zm-84.33,66.25c-39.64,28.97-66.2,75.28-76.39,124.24-12.79,60.23,3.19,125.61,40.33,173.45,40.62,52.84,105.5,85.12,170.63,83.44,46.01,1.48,91.83-15.05,129.17-42.59,51.99-38.1,85.85-102.46,86.1-168.91,1.42-60.79-25.24-120.72-69.04-160.6-75.51-72.01-201.6-77.01-280.78-9.03Z"/>
    <path class="cls-32" d="m2123.31,1363.92c6.91-4.28,5.88,6.89,2.65,10-10.05,12.39-21.81,23.1-32.73,34.63,48.41,33.51,85.22,86.04,97.32,145.55,15.68,69.72-2.45,146.57-47.39,200.79-39.15,49.06-97.56,79.92-158.18,86.9-73.11,8.57-149.65-19.48-200.57-74.97-39.84-42.79-63.9-101.8-63.51-161.62-.74-75.89,38.03-149.99,97.91-192.83,76.15-56.97,184.05-60.23,264.42-10.66,13.57-12.14,24.21-28.97,40.08-37.79Zm-325.43,98.84c-26.51,27.39-43.22,63.9-50.91,101.69-13.48,66.25,8.04,138.21,53.46,186.35,34.99,37.64,83.21,63.14,133.68,66.71,72.62,11.17,149.95-22.44,195.42-82.26,37.05-47.07,52.09-111.74,40.33-171.26-10.73-56.46-45.28-107.71-92.47-137.5-12.05,9.64-21.9,21.78-33.08,32.44,7.55.82,13.72,3.72,14.5,12.6-10.44-.82-22.54,3.21-31.56-3.72-2.16-12.6-1.57-25.45-.25-38,4.36,5.36,8.82,10.76,13.38,16.17,9.36-8.31,17.69-17.7,26.46-26.62-85.07-51.61-203.56-33.76-268.97,43.4Z"/>
    <path class="cls-32" d="m609.87,1368.97c58.61-7.8,120.11,5.97,168.86,41.06,52.19,36.01,88.94,95.12,98.54,159.58,11.52,73.03-14.26,150.76-65.42,201.91-44.3,46.87-108,69.72-170.23,71.6-65.91.15-131.91-28.92-176.56-79.61-52.68-57.78-74.09-145.1-51.94-221.7,24.31-92.06,106.29-161.77,196.74-172.84Zm-11.81,25.45c-63.21,12.8-121.18,56.25-149.36,116.94-29.25,57.53-28.81,129.74-.15,187.43,27.98,58.4,82.77,101.8,144.07,115.06,81.59,20.71,173.71-12.19,223.94-82.67,32.44-44.17,47.29-102.31,38.71-157.28-7.69-56.05-38.96-107.61-83.16-140.4-49.35-37.49-114.22-52.48-174.06-39.07Z"/>
    <path class="cls-32" d="m1250.67,1372.99c65.96-15.25,138.33-2.14,193.61,39.02,58.75,41.62,97.56,113.42,98.25,187.73,1.42,48.45-12.74,97.05-39.45,136.73-42.98,66.2-119.03,106.13-195.37,106.79-79.04,1.17-158.52-40.04-202.18-109.19-36.31-54.72-47.14-126.33-30.19-190.33,21.81-85.12,93.06-152.34,175.33-170.75Zm-88.06,70.07l-.78,2.09c-46.75,39.37-73.9,102.41-72.13,164.88,1.23,70.23,39.54,138.62,97.76,174.17l1.27,1.84c63.85,40.19,147.74,46.26,214.19,9.28,45.92-21.11,80.95-62.22,101.58-109.19,25.04-59.47,20.19-131.22-11.81-186.81-32.34-57.94-91.59-97.72-155.09-107-61.84-10.56-126.72,9.64-174.99,50.75Z"/>
  </g>
  <g>
    <path class="cls-46" d="m474.77,565.92c62.48-88.89,192.73-113.32,282.3-55.54,61.3,34.68,103.89,103.89,104.72,176.97,2.35,54.21-17.49,108.78-53.02,148.36-44.4,51.26-112.51,78.23-178.42,72.68-25.73-16.12-56.55-20.55-81.59-38-33.42-21.52-54.78-57.32-72.87-92.57-11.17-23.41-19.89-48.91-19.94-75.33.39-46.21,9.36-91.65,18.82-136.58Zm261.67-9.38c-13.43,9.23-11.27,32.79,3.53,39.32,16.02,9.54,38.03-7.55,32.68-26.21-3.19-16.12-24.11-23.36-36.21-13.11Zm-122.9,112.4c-11.96,7.91-11.32,28.92,1.76,35.45,11.91,7.29,28.52-3.01,28.42-17.34,1.57-15.5-17.93-28.51-30.19-18.11Zm-127.01,45.14c-14.55,8.77-14.5,33.71-.05,42.53,13.87,11.02,34.79-1.17,36.36-18.21,3.23-19.43-20.53-36.77-36.31-24.33Zm195.37,49.73c-13.28,6.99-14.95,28.05-2.6,36.92,14.01,11.99,37.93,2.35,39.54-16.78-.05-18.77-22.3-29.63-36.95-20.15Z"/>
    <path class="cls-46" d="m1156.1,544.34c40.23-43.25,99.28-66.25,156.91-65.23,66.59.31,132.5,34.48,172.05,90.42,33.71,46.16,47.34,107.61,36.16,164.48-15.34,84.71-85.26,154.38-166.31,169.52-24.8-6.73-50.03-11.83-74.39-20.15-47.88-18.16-87.76-56.1-111.87-102.56,3.82-8.82,14.01-18.36,8.43-28.76-5.68-7.85-16.76-6.58-24.7-9.49-17-32.49-18.38-70.48-16.42-106.59,1.96-31.52,13.77-61.05,20.14-91.65Zm163.52,53.14c-13.57,7.19-13.97,30.19-.83,38.15,12.05,8.77,31.8.1,32.39-15.81,3.72-17.65-17.2-32.39-31.56-22.34Zm64.24,51.15c-9.31,8.77-5.1,27.49,7.15,30.86,12.54,5.46,26.51-10.15,21.76-22.9-2.55-13.06-20.48-17.9-28.91-7.96Zm-25.14,126.68c-18.18,13.21-9.41,47.28,13.33,47.69,19.45,3.21,34.35-21.47,24.7-38.66-6.03-14.89-26.31-18.72-38.03-9.03Z"/>
    <path class="cls-46" d="m1828.51,527.31c79.19-67.98,205.27-62.99,280.78,9.03,43.81,39.88,70.47,99.81,69.04,160.6-.25,66.45-34.11,130.82-86.1,168.91-37.34,27.54-83.16,44.06-129.17,42.59-47.39-11.53-94.38-34.32-125.05-74.92-47.34-59.21-56.06-142.49-42.68-215.99,4.17-32.39,18.38-61.86,33.17-90.22Zm44.45,79.82c-16.61,4.49-21.17,29.58-7.3,40.09,10.34,9.84,27.98,3.62,32.19-9.74,7.2-15.66-8.53-36.16-24.89-30.35Zm-59.44,125.66c-9.65,6.58-9.16,23.36.54,29.68,8.48,6.68,22.44,1.94,25.38-8.77,6.96-15.3-13.38-31.57-25.92-20.91Zm270.84,17.95c-14.21,6.27-14.99,30.09-.83,36.92,12.74,8.06,31.75-3.11,29.79-19.13.49-14.84-16.81-24.58-28.96-17.8Zm-103.1,30.29c-10.93,3.42-14.26,19.58-6.22,27.69,9.02,10.3,29.25,5.41,30.53-9.44,2.65-13.67-12.94-23.36-24.31-18.26Z"/>
    <path class="cls-46" d="m598.06,1394.41c59.83-13.41,124.71,1.58,174.06,39.07,44.2,32.79,75.46,84.35,83.16,140.4,8.58,54.98-6.27,113.12-38.71,157.28-50.23,70.48-142.35,103.38-223.94,82.67,8.23.2,16.46.15,24.8.2-26.41-14.28-55.03-25.6-77.13-46.97-18.96-18.36-32.73-41.46-46.75-63.9-6.52-10.1-9.7-21.88-11.32-33.71,11.61-.05,26.07.46,31.8-12.55,9.11-13.52-4.26-26.11-11.71-36.06-15.29.87-28.27,10.35-32.05,26.21-21.71-41.16-20.14-90.17-21.56-135.71,28.18-60.69,86.15-104.14,149.36-116.94Zm138.58,70.13c-14.7,5.3-18.91,28.05-6.76,38.4,11.71,12.09,33.71,5.66,37.93-10.86,5.83-17.95-15.14-35.75-31.17-27.54Zm-176.65,45.39c-12.45,8.26-13.62,29.53-1.91,38.96,11.17,9.54,31.36,5,35.33-10.4,9.07-19.79-16.51-42.89-33.42-28.56Zm48.51,70.33c-12.4,8.31-10,30.29,3.82,35.65,14.75,7.6,32.24-10.91,25.33-26.21-3.87-12.09-19.55-17.24-29.16-9.44Zm162.44,68.44c-9.26,4.23-13.82,18.41-7.55,27.29,5.64,12.04,24.45,11.63,29.6-.71,9.02-14.23-7.15-34.02-22.05-26.57Zm-89.33,24.02c-12.1,3.88-20.48,20.09-12.74,31.93,9.26,17.9,38.47,15.4,44.05-4.39,6.03-18.05-15.44-34.83-31.31-27.54Z"/>
    <path class="cls-46" d="m1162.62,1443.07c48.27-41.11,113.15-61.3,174.99-50.75,63.51,9.28,122.75,49.06,155.09,107,32,55.59,36.85,127.35,11.81,186.81-20.63,46.97-55.67,88.08-101.58,109.19-66.45,36.98-150.34,30.91-214.19-9.28l-1.27-1.84c-17.69-26.67-42.93-48.65-52.04-80.73-25.97-85.53-7.15-178.09,26.41-258.32l.78-2.09Zm151.27,65.74c-13.03,8.21-12.64,30.55.88,38.1,12.89,9.54,32.29-2.19,32.15-18.26,1.52-17.34-19.26-30.96-33.03-19.84Zm69.29,47.89c-11.22,6.12-11.76,25.4-.29,31.62,9.9,8.16,25.24-1.58,25.58-13.92,2.21-13.67-13.77-25.3-25.29-17.7Zm-167.1,24.58c-12.94,6.17-13.48,27.85-.69,34.58,11.07,7.65,27.49-2.45,27.05-16.07,1.57-14.08-14.55-25.7-26.36-18.51Zm-68.06,76.86c-9.7,6.53-7.79,24.33,3.28,28.41,9.85,5.76,23.42-3.57,23.33-15.1.78-13.57-16.95-22.54-26.61-13.31Zm279.31.77c-6.86,4.44-10.78,14.54-6.52,22.39,4.36,13.41,25.38,13.41,29.79,0,7.69-14.33-10.19-32.03-23.28-22.39Zm-67.97,25.6c-11.71,6.53-19.4,23.92-10.14,35.9,8.72,16.78,36.6,14.59,42.58-3.72,9.36-19.79-13.87-41.26-32.44-32.18Z"/>
    <path class="cls-46" d="m1797.88,1462.76c65.42-77.16,183.91-95.01,268.97-43.4-8.77,8.93-17.1,18.31-26.46,26.62-4.56-5.41-9.02-10.81-13.38-16.17-1.32,12.55-1.91,25.4.25,38,9.02,6.94,21.12,2.91,31.56,3.72-.78-8.87-6.96-11.78-14.5-12.6,11.17-10.66,21.02-22.8,33.08-32.44,47.19,29.78,81.74,81.04,92.47,137.5,11.76,59.52-3.28,124.19-40.33,171.26-45.47,59.82-122.8,93.43-195.42,82.26-36.07-19.79-76.74-33.97-104.82-66.1-16.46-21.32-28.67-45.85-39.79-70.48-16.46-37.89-17.4-80.58-14.06-121.33,2.7-33.35,15.34-64.46,22.44-96.85Zm187.88,26.72c-11.86,4.39-14.11,22.75-4.66,30.91,8.09,8.67,23.91,4.23,27.34-7.19,6.32-13.82-9.46-30.45-22.69-23.72Zm-121.97,31.11c-13.52,7.4-14.16,30.19-1.03,38.4,11.81,8.57,30.23-.31,31.36-15.4,3.82-16.88-16.02-32.95-30.33-23Zm53.95,112.97c-13.13,6.63-13.62,29.17-.29,35.96,10.58,7.04,25.48-.82,27.69-13.31,4.61-15.76-13.48-31.31-27.39-22.64Zm-104.87,7.91c-11.66,3.98-15.48,22.44-5.29,30.35,8.23,9.13,24.6,4.13,27.49-7.75,5.49-13.21-9.7-28.97-22.2-22.59Zm265.89,21.22c-12.3,6.27-13.23,26.83-1.57,34.37,10,8.06,27.05,2.7,30.14-10.46,6.66-16.83-14.26-34.02-28.57-23.92Zm-103.84,29.78c-12.25,5.15-12.4,25.7,0,30.8,11.03,7.04,27.2-2.35,26.36-16.07-.05-13.26-15.97-21.27-26.36-14.74Z"/>
  </g>
  <g>
    <path class="cls-45" d="m1752.12,651.55c10.19-48.96,36.75-95.27,76.39-124.24-14.8,28.36-29.01,57.83-33.17,90.22-13.38,73.49-4.66,156.77,42.68,215.99,30.68,40.6,77.67,63.39,125.05,74.92-65.12,1.68-130-30.6-170.63-83.44-37.14-47.84-53.12-113.22-40.33-173.45Z"/>
    <path class="cls-45" d="m1094.7,707.24c-3.72-60.08,18.87-121.89,61.4-162.89-6.37,30.6-18.18,60.13-20.14,91.65-1.96,36.11-.59,74.1,16.42,106.59-1.37,8.77-7.64,18.56-2.74,27.18,5.93,4.34,12.54,7.5,19.01,11.07,24.11,46.46,64,84.41,111.87,102.56,24.35,8.31,49.59,13.41,74.39,20.15-51.5,13.01-107.22,2.91-153.33-23.66-60.22-34.17-102.76-101.13-106.87-172.64Z"/>
    <path class="cls-45" d="m452.67,787.16c-34.15-69.82-26.66-160.8,22.1-221.24-9.46,44.93-18.42,90.37-18.82,136.58.05,26.42,8.77,51.92,19.94,75.33,18.08,35.24,39.45,71.04,72.87,92.57,25.04,17.44,55.86,21.88,81.59,38-73.99-4.95-144.56-51.71-177.68-121.23Z"/>
    <path class="cls-45" d="m1089.7,1610.04c-1.76-62.48,25.38-125.51,72.13-164.88-33.57,80.22-52.38,172.79-26.41,258.32,9.11,32.08,34.35,54.06,52.04,80.73-58.21-35.55-96.53-103.94-97.76-174.17Z"/>
    <path class="cls-45" d="m1746.97,1564.45c7.69-37.79,24.4-74.31,50.91-101.69-7.11,32.39-19.75,63.5-22.44,96.85-3.33,40.75-2.4,83.44,14.06,121.33,11.12,24.63,23.33,49.16,39.79,70.48,28.08,32.13,68.75,46.31,104.82,66.1-50.47-3.57-98.69-29.07-133.68-66.71-45.43-48.14-66.94-120.11-53.46-186.35Z"/>
    <path class="cls-45" d="m448.55,1698.78c-28.67-57.68-29.11-129.9.15-187.43,1.42,45.54-.15,94.55,21.56,135.71,3.82,7.5,7.99,14.84,11.96,22.39,1.62,11.83,4.8,23.61,11.32,33.71,14.01,22.44,27.78,45.54,46.75,63.9,22.1,21.37,50.72,32.69,77.13,46.97-8.33-.05-16.56,0-24.8-.2-61.3-13.26-116.09-56.66-144.07-115.06Z"/>
  </g>
  <path class="cls-1" d="m736.44,556.53c12.1-10.25,33.03-3.01,36.21,13.11,5.34,18.67-16.66,35.75-32.68,26.21-14.8-6.53-16.95-30.09-3.53-39.32Zm4.46,8.42c-.2,6.58-.34,13.16-.39,19.84,8.28-.15,19.99,1.53,21.46-9.89-1.52-11.27-13.08-8.82-21.07-9.95Z"/>
  <g>
    <path class="cls-37" d="m740.9,564.95c7.99,1.12,19.55-1.33,21.07,9.95-1.47,11.42-13.18,9.74-21.46,9.89.05-6.68.2-13.26.39-19.84Z"/>
    <path class="cls-37" d="m1870.16,623.55c4.31-2.6,8.87-4.69,13.48-6.78.83,5.92,1.72,11.88,2.65,17.9-2.99,1.48-8.97,4.44-11.91,5.92-2.01-5.56-4.9-11.02-4.21-17.03Z"/>
    <path class="cls-37" d="m486.68,733.4c.59-12.09,17.25-17.14,23.13-5.61,7.01,10.4-4.61,18-10.05,25.19-4.85-5.92-15.04-10.05-13.08-19.58Z"/>
    <path class="cls-37" d="m686.9,775.43c8.18-8.26,24.55,1.43,18.08,13.06-7.5,14.13-32.83-2.45-18.08-13.06Z"/>
    <path class="cls-37" d="m1367.54,784.55c7.06-2.14,18.67.41,18.62,9.89,3.14,8.57-5.88,18.72-14.06,15.66-12.01-1.12-14.41-19.79-4.56-25.55Z"/>
    <path class="cls-37" d="m735.46,1491.57c-5-16.93,12.5-18.56,22.98-12.24-.1,12.6-13.48,24.99-22.98,12.24Z"/>
    <path class="cls-37" d="m564.98,1520.74c13.13-15.05,28.03,15.86,11.56,21.11-12.2,6.22-22.15-14.18-11.56-21.11Z"/>
    <path class="cls-37" d="m484.23,1632.69c7.6-.15,15.24-.1,22.88,0,.05,8.06.1,16.17.1,24.33-3.19,1.79-9.65,5.3-12.89,7.09-2.6-1.68-7.74-5.15-10.34-6.83-1.72-2.81-5.15-8.31-6.86-11.07,1.76-3.37,5.34-10.15,7.11-13.52Z"/>
    <path class="cls-37" d="m683.47,1685.12c6.66-5.15,22.88,2.5,17,11.48-1.67,10.05-12.69,8.62-19.45,5.46-4.41-5-4.12-14.28,2.45-16.93Z"/>
  </g>
  <path class="cls-4" d="m1319.62,597.49c14.36-10.05,35.28,4.69,31.56,22.34-.59,15.91-20.34,24.58-32.39,15.81-13.13-7.96-12.74-30.96.83-38.15Zm3.68,9.13c.74,8.11-4.31,23.66,9.02,18.16,8.87.97,6.42-10.25,8.09-15.86-5.73-.82-11.47-1.58-17.1-2.3Z"/>
  <g>
    <path class="cls-35" d="m1872.96,607.12c16.37-5.81,32.1,14.69,24.89,30.35-4.21,13.36-21.86,19.58-32.19,9.74-13.87-10.51-9.31-35.6,7.3-40.09Zm-2.79,16.42c-.69,6.02,2.21,11.48,4.21,17.03,2.94-1.48,8.92-4.44,11.91-5.92-.93-6.02-1.81-11.99-2.65-17.9-4.61,2.09-9.16,4.18-13.48,6.78Z"/>
    <path class="cls-35" d="m770.94,1648.7c14.9-7.45,31.07,12.34,22.05,26.57-5.15,12.34-23.96,12.75-29.6.71-6.27-8.87-1.72-23.05,7.55-27.29Zm3.19,13.16c-2.55,8.31.15,11.12,8.13,8.52,2.5-8.42-.25-11.22-8.13-8.52Z"/>
  </g>
  <path class="cls-38" d="m1383.86,648.64c8.43-9.95,26.36-5.1,28.91,7.96,4.75,12.75-9.21,28.36-21.76,22.9-12.25-3.37-16.46-22.08-7.15-30.86Zm8.38,8.77c-2.74,8.26-.1,11.17,7.94,8.72,2.65-8.36,0-11.27-7.94-8.72Z"/>
  <path class="cls-16" d="m1392.24,657.41c7.94-2.55,10.58.36,7.94,8.72-8.04,2.45-10.68-.46-7.94-8.72Z"/>
  <g>
    <path class="cls-2" d="m613.54,668.94c12.25-10.4,31.75,2.6,30.19,18.11.1,14.33-16.51,24.63-28.42,17.34-13.08-6.53-13.72-27.54-1.76-35.45Zm1.47,25.6c5.59-.66,11.32-1.02,16.86-2.35,1.67-6.89-.29-11.93-5.73-15.1-10.44-2.3-8.04,11.27-11.12,17.44Z"/>
    <path class="cls-2" d="m2084.35,750.74c12.15-6.78,29.45,2.96,28.96,17.8,1.96,16.01-17.05,27.18-29.79,19.13-14.16-6.83-13.38-30.65.83-36.92Zm-1.32,19.53c6.91,9.03,16.42,6.99,19.75-4.18-2.74-1.43-8.23-4.34-10.98-5.76-2.94,3.26-5.88,6.58-8.77,9.95Z"/>
    <path class="cls-2" d="m736.64,1464.54c16.02-8.21,37,9.59,31.17,27.54-4.21,16.52-26.22,22.95-37.93,10.86-12.15-10.35-7.94-33.1,6.76-38.4Zm-1.18,27.03c9.51,12.75,22.88.36,22.98-12.24-10.49-6.32-27.98-4.69-22.98,12.24Z"/>
  </g>
  <path class="cls-24" d="m615.01,694.54c3.09-6.17.69-19.74,11.12-17.44,5.44,3.16,7.4,8.21,5.73,15.1-5.54,1.33-11.27,1.68-16.86,2.35Z"/>
  <g>
    <path class="cls-9" d="m486.53,714.07c15.78-12.44,39.54,4.9,36.31,24.33-1.57,17.03-22.49,29.22-36.36,18.21-14.46-8.82-14.5-33.76.05-42.53Zm.15,19.33c-1.96,9.54,8.23,13.67,13.08,19.58,5.44-7.19,17.05-14.79,10.05-25.19-5.88-11.53-22.54-6.48-23.13,5.61Z"/>
    <path class="cls-9" d="m559.98,1509.93c16.91-14.33,42.49,8.77,33.42,28.56-3.97,15.4-24.16,19.94-35.33,10.4-11.71-9.44-10.54-30.7,1.91-38.96Zm5,10.81c-10.58,6.94-.64,27.34,11.56,21.11,16.46-5.25,1.57-36.16-11.56-21.11Z"/>
  </g>
  <path class="cls-36" d="m1813.52,732.79c12.54-10.66,32.88,5.61,25.92,20.91-2.94,10.71-16.91,15.45-25.38,8.77-9.7-6.32-10.19-23.1-.54-29.68Zm5.64,10.71c-2.65,8.26.1,11.07,8.13,8.52,2.5-8.31-.2-11.17-8.13-8.52Z"/>
  <g>
    <path class="cls-30" d="m1152.38,742.58c7.94,2.91,19.01,1.63,24.7,9.49,5.59,10.4-4.61,19.94-8.43,28.76-6.47-3.57-13.08-6.73-19.01-11.07-4.9-8.62,1.37-18.41,2.74-27.18Zm6.37,16.01"/>
    <path class="cls-30" d="m1981.25,781.04c11.37-5.1,26.95,4.59,24.31,18.26-1.27,14.84-21.51,19.74-30.53,9.44-8.04-8.11-4.7-24.28,6.22-27.69Zm3.09,12.34c-2.6,8.21.15,11.02,8.23,8.42,2.5-8.31-.25-11.12-8.23-8.42Z"/>
    <path class="cls-30" d="m1863.79,1520.59c14.31-9.95,34.15,6.12,30.33,23-1.13,15.1-19.55,23.97-31.36,15.4-13.13-8.21-12.5-31.01,1.03-38.4Zm3.68,6.63c-.64,4.23-1.86,12.75-2.5,16.98,1.72,7.4,17.05,7.55,17.15-.46,5.29-11.07-8.28-13.11-14.65-16.52Z"/>
  </g>
  <path class="cls-40" d="m1819.15,743.5c7.94-2.65,10.63.2,8.13,8.52-8.04,2.55-10.78-.26-8.13-8.52Z"/>
  <path class="cls-33" d="m681.9,763.8c14.65-9.49,36.9,1.38,36.95,20.15-1.62,19.13-25.53,28.76-39.54,16.78-12.35-8.87-10.68-29.94,2.6-36.92Zm5,11.63c-14.75,10.61,10.58,27.18,18.08,13.06,6.47-11.63-9.9-21.32-18.08-13.06Z"/>
  <path class="cls-10" d="m1358.72,775.32c11.71-9.69,32-5.87,38.03,9.03,9.65,17.19-5.24,41.87-24.7,38.66-22.74-.41-31.51-34.48-13.33-47.69Zm8.82,9.23c-9.85,5.76-7.45,24.43,4.56,25.55,8.18,3.06,17.2-7.09,14.06-15.66.05-9.49-11.56-12.04-18.62-9.89Z"/>
  <path class="cls-31" d="m1984.34,793.38c7.99-2.7,10.73.1,8.23,8.42-8.09,2.6-10.83-.2-8.23-8.42Z"/>
  <path class="cls-29" d="m1277.58,1199.49c2.35-49.42,1.32-98.89,2.35-148.31,4.66.2,14.06.61,18.77.82-1.27,46.61-2.11,93.33-4.75,139.89-5.05,2.7-10.05,5.41-15.04,8.21,16.37,11.22,33.91,20.66,53.07,25.65-7.6,5.41-15.24,10.76-22.84,16.17-19.5-14.48-39.4-28.41-59.15-42.48,9.16,0,18.33-.05,27.59.05Z"/>
  <path class="cls-44" d="m1298.7,1052c11.47.15,22.93.46,34.5.82-2.55,48.6-2.25,97.41-1.57,146.12,11.66.05,23.33.1,35.04.15-11.76,8.62-23.42,17.39-34.69,26.67-19.16-5-36.7-14.43-53.07-25.65,5-2.81,10-5.51,15.04-8.21,2.65-46.56,3.48-93.28,4.75-139.89Z"/>
  <g>
    <path class="cls-48" d="m1418.16,1080.87c7.6-7.29,15.29-17.19,26.95-15.71,16.71-2.04,28.03,17.65,21.9,32.9-7.25,17.29-22.1,29.38-33.08,44.06,11.47,4.28,34.35-8.31,39.01,8.36-18.91,1.12-37.93,1.07-56.84,0,11.37-20.66,32.1-34.17,41.51-55.95,3.48-10.46-4.85-17.95-11.96-23.31-7.99,4.34-14.85,10.3-20.48,17.6-2.4-2.7-4.75-5.36-7.01-7.96Z"/>
    <path class="cls-48" d="m1233.08,1924.05c2.35,1.17,7.15,3.57,9.51,4.74,6.86,18.31,10.58,37.74,17.79,55.95,6.13-18.72,9.8-38.2,16.27-56.76,1.67-.71,5-2.09,6.66-2.81,7.4,19.89,12.1,40.8,18.72,61.1,5.39-19.53,11.03-38.96,15.88-58.6,24.11-.05,48.37-3.32,72.43.56-7.6,6.58-17.64,4.79-26.66,5.66.15,22.44,0,44.83.1,67.27l-8.28.56c-.1-22.64-.15-45.24.05-67.88-10.39-.71-20.68-1.68-30.92-2.4-5.64,23.77-13.03,47.02-19.89,70.48-1.72-.31-5.24-.92-6.96-1.22-5.49-19.07-11.03-38.15-17.54-56.87-7.89,20.25-9.8,43.1-21.61,61.56-10.05-26.57-17.89-54.01-25.53-81.35Z"/>
  </g>
  <g>
    <path class="cls-39" d="m1985.76,1489.48c13.23-6.73,29.01,9.89,22.69,23.72-3.43,11.42-19.26,15.86-27.34,7.19-9.46-8.16-7.2-26.52,4.66-30.91Zm4.21,9.84c-8.62,2.19-4.12,16.63,4.17,13.97,8.72-2.3,4.07-16.88-4.17-13.97Z"/>
    <path class="cls-39" d="m1812.88,1641.46c12.5-6.38,27.69,9.38,22.2,22.59-2.89,11.88-19.26,16.88-27.49,7.75-10.19-7.91-6.37-26.37,5.29-30.35Zm1.27,10.91c-7.25,5,.69,18.05,7.94,12.09,7.15-5.1-.78-18.16-7.94-12.09Z"/>
  </g>
  <path class="cls-41" d="m1989.97,1499.32c8.23-2.91,12.89,11.68,4.17,13.97-8.28,2.65-12.79-11.78-4.17-13.97Z"/>
  <path class="cls-18" d="m1313.89,1508.81c13.77-11.12,34.55,2.5,33.03,19.84.15,16.07-19.26,27.8-32.15,18.26-13.52-7.55-13.92-29.89-.88-38.1Zm1.18,8.93c.74,8.42.2,23.31,12.35,22.19,10.39-3.37,7.6-14.99,7.4-23.46-4.95.31-14.8.92-19.75,1.28Z"/>
  <path class="cls-20" d="m1315.06,1517.73c4.95-.36,14.8-.97,19.75-1.28.2,8.47,2.99,20.09-7.4,23.46-12.15,1.12-11.61-13.77-12.35-22.19Z"/>
  <path class="cls-8" d="m1867.47,1527.22c6.37,3.42,19.94,5.46,14.65,16.52-.1,8.01-15.44,7.85-17.15.46.64-4.23,1.86-12.75,2.5-16.98Z"/>
  <path class="cls-49" d="m1383.18,1556.7c11.52-7.6,27.49,4.03,25.29,17.7-.34,12.34-15.68,22.08-25.58,13.92-11.47-6.22-10.93-25.5.29-31.62Zm4.26,9.54c-7.3,4.85.39,18.16,7.74,12.29,7.15-5-.49-18.26-7.74-12.29Z"/>
  <path class="cls-25" d="m1387.44,1566.23c7.25-5.97,14.9,7.29,7.74,12.29-7.35,5.87-15.04-7.45-7.74-12.29Z"/>
  <path class="cls-50" d="m608.5,1580.26c9.6-7.8,25.29-2.65,29.16,9.44,6.91,15.3-10.58,33.81-25.33,26.21-13.82-5.36-16.22-27.34-3.82-35.65Zm3.92,9.38c.1,3.77.25,11.27.34,14.99h13.67c0-3.88.05-11.58.05-15.45-3.53.1-10.54.36-14.06.46Z"/>
  <path class="cls-42" d="m1216.08,1581.28c11.81-7.19,27.93,4.44,26.36,18.51.44,13.62-15.97,23.72-27.05,16.07-12.79-6.73-12.25-28.41.69-34.58Zm5.54,9.18c-9.26,2.04-5.54,17.8,3.63,15.2,9.56-1.94,5.64-18.26-3.63-15.2Z"/>
  <path class="cls-13" d="m612.42,1589.64c3.53-.1,10.54-.36,14.06-.46,0,3.88-.05,11.58-.05,15.45h-13.67c-.1-3.72-.25-11.22-.34-14.99Z"/>
  <path class="cls-6" d="m1221.62,1590.46c9.26-3.06,13.18,13.26,3.63,15.2-9.16,2.6-12.89-13.16-3.63-15.2Z"/>
  <path class="cls-51" d="m1917.74,1633.55c13.92-8.67,32,6.89,27.39,22.64-2.21,12.5-17.1,20.35-27.69,13.31-13.33-6.78-12.84-29.33.29-35.96Zm3.82,13.21c-7.45,6.48,3.43,18.51,10.19,11.32,7.3-6.48-3.53-18.62-10.19-11.32Z"/>
  <path class="cls-26" d="m1921.57,1646.76c6.66-7.29,17.49,4.85,10.19,11.32-6.76,7.19-17.64-4.85-10.19-11.32Z"/>
  <path class="cls-17" d="m1814.15,1652.37c7.15-6.07,15.09,6.99,7.94,12.09-7.25,5.97-15.19-7.09-7.94-12.09Z"/>
  <path class="cls-7" d="m1148.01,1658.14c9.65-9.23,27.39-.26,26.61,13.31.1,11.53-13.48,20.86-23.33,15.1-11.07-4.08-12.99-21.88-3.28-28.41Zm5.05,9.28c-2.45,8.26.29,11.07,8.23,8.36,2.4-8.42-.34-11.22-8.23-8.36Z"/>
  <path class="cls-19" d="m1427.33,1658.9c13.08-9.64,30.97,8.06,23.28,22.39-4.41,13.41-25.43,13.41-29.79,0-4.26-7.85-.34-17.95,6.52-22.39Zm4.31,9.08c-7.35,4.9.64,17.9,7.89,12.14,7.3-5.05-.69-18.05-7.89-12.14Z"/>
  <path class="cls-43" d="m774.13,1661.86c7.89-2.7,10.63.1,8.13,8.52-7.99,2.6-10.68-.2-8.13-8.52Z"/>
  <path class="cls-47" d="m2078.77,1662.68c14.31-10.1,35.23,7.09,28.57,23.92-3.09,13.16-20.14,18.51-30.14,10.46-11.66-7.55-10.73-28.1,1.57-34.37Zm3.43,9.23c-.34,4.18-.98,12.5-1.27,16.63,8.38-.2,20.53,1.28,15.58-11.58-3.28-5.05-8.09-6.73-14.31-5.05Z"/>
  <path class="cls-27" d="m1153.06,1667.42c7.89-2.86,10.63-.05,8.23,8.36-7.94,2.7-10.68-.1-8.23-8.36Z"/>
  <path class="cls-11" d="m1431.64,1667.98c7.2-5.92,15.19,7.09,7.89,12.14-7.25,5.76-15.24-7.24-7.89-12.14Z"/>
  <path class="cls-14" d="m681.61,1672.72c15.88-7.29,37.34,9.49,31.31,27.54-5.59,19.79-34.79,22.29-44.05,4.39-7.74-11.83.64-28.05,12.74-31.93Zm1.86,12.39c-6.57,2.65-6.86,11.93-2.45,16.93,6.76,3.16,17.79,4.59,19.45-5.46,5.88-8.98-10.34-16.63-17-11.48Z"/>
  <path class="cls-15" d="m2082.2,1671.91c6.22-1.68,11.03,0,14.31,5.05,4.95,12.85-7.2,11.37-15.58,11.58.29-4.13.93-12.44,1.27-16.63Z"/>
  <path class="cls-22" d="m1359.36,1684.5c18.57-9.08,41.8,12.39,32.44,32.18-5.98,18.31-33.86,20.5-42.58,3.72-9.26-11.99-1.57-29.38,10.14-35.9Z"/>
  <path class="cls-12" d="m1974.93,1692.46c10.39-6.53,26.31,1.48,26.36,14.74.83,13.72-15.34,23.1-26.36,16.07-12.4-5.1-12.25-25.65,0-30.8Zm4.66,11.07c-2.5,8.26.25,11.07,8.28,8.36,2.4-8.36-.39-11.17-8.28-8.36Z"/>
  <path class="cls-28" d="m1979.59,1703.53c7.89-2.81,10.68,0,8.28,8.36-8.04,2.7-10.78-.1-8.28-8.36Z"/>
  <g>
    <path class="cls-34" d="m588.26,2003.05c-31.66-10-32-64.62-.64-75.23,12.64-4.54,35.97,1.22,32.29,19.23-8.62-5.2-16.42-15.45-27.54-12.24-27.15,8.06-24.6,60.28,5.15,61.71,9.36-1.28,16.95-13.26,26.85-7.09-9.31,10.15-22.1,18.72-36.11,13.62Z"/>
    <path class="cls-34" d="m1698.07,1933.74c14.46,1.53,31.17-4.49,43.86,5.05-11.96,1.89-24.06,1.84-36.07,1.99-.05,7.7-.1,15.45-.1,23.31,10.83,1.07,23.72-3.06,32.54,5.76-10.83,1.28-21.66,1.48-32.49,1.68,0,9.89,0,19.89.1,29.89-1.96.1-5.88.36-7.79.46-.05-22.75,0-45.44-.05-68.14Z"/>
  </g>
  <g>
    <path class="cls-5" d="m1914.36,1933.74h7.99v61c11.66,1.79,26.76-4.69,35.82,5.92-14.6,1.58-29.25,1.17-43.81,1.12.05-22.7.05-45.39,0-68.03Z"/>
    <path class="cls-5" d="m2118.46,1933.33c10.34,0,20.73.05,31.12.1.1,1.68.29,5.1.39,6.78-8.09.05-16.07.1-24.06.26-.88,4.59-2.6,13.82-3.43,18.41,13.03-3.26,29.84,3.26,29.99,19.33,2.35,14.38-9.8,23.1-21.27,27.03-8.62-3.67-16.66-8.82-20.29-18.16,8.48,2.5,16.07,8.52,25.14,8.87,10.58-6.17,10.44-23.72.2-29.99-7.94-.46-14.9,4.18-22.15,6.68,1.27-13.16,2.94-26.21,4.36-39.32Z"/>
  </g>
  <path class="cls-21" d="m2222.59,1933.69c1.96.05,5.93.1,7.89.15-.05,20.25-.05,40.6,0,60.95,11.76,1.58,26.46-4.28,36.07,5.61-14.65,1.89-29.35,1.48-44,1.38.05-22.7,0-45.39.05-68.09Z"/>
</svg>