<?xml version="1.0" encoding="UTF-8"?>
<svg id="_图层_1" data-name="图层 1" xmlns="http://www.w3.org/2000/svg" viewBox="0 0 3948.56 3607.06">
  <defs>
    <style>
      .cls-1 {
        fill: #bea479;
      }

      .cls-2 {
        fill: #56a977;
      }

      .cls-3 {
        fill: #ddd1bd;
      }

      .cls-4 {
        fill: #6ec591;
      }

      .cls-5 {
        fill: #594523;
      }

      .cls-6 {
        fill: #4f3a15;
      }

      .cls-7 {
        fill: #594623;
      }

      .cls-8 {
        fill: #be9a5e;
      }

      .cls-9 {
        fill: #87e0a9;
      }

      .cls-10 {
        fill: #6ec490;
      }
    </style>
  </defs>
  <g>
    <path class="cls-6" d="m3948.4,4.61c.05-.18.11-.37.16-.55-3.29-.36-6.58-.7-9.87-1.01-.01.29-.03.58-.05.88,3.25.23,6.5.46,9.75.69Z"/>
    <path class="cls-6" d="m3906.81.65c-4.23-.24-8.47-.47-12.7-.65,3.93.44,7.86.84,11.8,1.22.3-.19.59-.39.89-.58Z"/>
    <path class="cls-6" d="m680.96,2216.64c24.02-3.67,54.2-10.83,74.67,5.33.85,14.44-5.38,28.23-8.53,42.25,60.04-2.6,120.87,8.7,173.56,35.21-.07-4.02-.07-12.07-.07-16.1-1.97-14.56,20.08-20.59,20.54-33.85-10.56-13.85-29.53-22.37-33.6-40.06,16.8,11.42,32.74,24.26,45.67,39.23.59,14.79-17.52,22.25-25.98,33.26.2,4.97.46,15.03.59,20,18.9,10.06,35.83,22.84,54.33,33.43,23.82-12.37,49.8-5.56,73.1,4.5,7.09-8.88,13.85-17.99,21.85-26.21,3.54,11.3,3.81,26.45-10.3,31.95-19.03,4.85-36.81-5.98-54-11.54-5.91,3.37-11.61,6.98-17.13,10.83,6.63,10.47,16.27,19.05,24.61,28.58,30.51,33.79,49.67,74.8,60.7,116.99,19.55-13.67,32.87-32.66,48.88-49.29,12.07-9.05,26.84,1.3,38.25,6.33,13.39,7.46,29.33-1.3,43.77-.41-15.49,25.09-50.26,9.88-72.51,2.37-17.39,18.64-29.07,43.32-56.04,52.61,4.53,30.12,6.96,60.59,1.71,90.83,18.77-9.17,37.73-27.52,61.09-20,20.47,4.02,20.93,26.33,29.66,40.12,3.94,11.36,20.8,9.23,30.51,14.5-15.62,5.74-36.81,7.46-49.28-4.62-9.45-13.02-12.2-28.76-17.85-43.14-19.75,8.76-38.39,19.76-54.46,33.37-7.68,11.6-9.58,25.44-13.91,38.23-7.02,28.34-20.93,54.68-33.79,81.19,18.7-3.02,40.35-12.07,57.42,0,12.34,13.85,15.42,32.43,24.93,47.87-10.83-1.72-24.74-2.01-26.77-14.26-6.63-10.83-4.33-35.09-24.21-31.78-16.08,4.14-37.47,8.17-42.65,24.79-21.52,48.46-44.75,96.39-64.76,145.39,23.88-9.11,48.75-22.66,75.46-13.55,4.66,15.8,4.27,33.49,13.25,47.99,5.77,1.95,17.26,5.8,23.03,7.75-13.58,3.25-27.36,1.24-40.16-3.43-5.97-16.15-8.73-33.02-10.56-49.82-22.97,5.44-44.42,14.91-66.93,21.72-18.24,40.24-36.16,80.59-54.92,120.65,26.9-1.12,61.75-24.38,83.2-.65,6.89,16.98,3.41,35.8,1.84,53.43-17.72-15.27-12.47-39.17-20.08-58.52-22.97,5.44-45.87,11.18-69.16,15.5-17.52,37.81-33.01,76.51-52.76,113.44-4.13,7.93-8.01,16.04-11.29,24.32-18.64,48.94-42.06,96.33-64.04,144.15,11.35.3,23.03-.77,34.25,1.66,14.83,4.85,12.27,21.12,16.6,32.13,1.9,12.66,15.68,24.2,9.12,37.34-6.5,4.14-13.58,7.34-20.54,10.83,4.59-5.98,9.25-11.95,13.98-17.81-15.03-16.21-22.05-36.39-22.24-57.4-11.42.12-22.77.53-34.12,1.18-17.98,45.27-46.85,86.63-81.1,123.26-6.1,6.63-10.7,14.02-15.29,21.6,22.64-.53,45.67-4.62,67.85,1.78,3.41,27.34-3.87,56.81-26.38,76.57-4.46-26.1,16.34-49,13.39-75.21-21.19,1.42-43.18,5.86-63.32-2.6-33.66,27.04-72.57,48.11-114.44,63.08,14.76,13.49,33.33,23.61,46.39,38.58,4.66,17.99-19.69,25.44-35.43,24.5,6.17-7.22,12.14-14.44,17.98-21.72-10.89-13.49-30.32-21.3-33.27-39.29-33.14,7.16-66.6,14.02-100.92,13.91,5.97,10.18,10.04,21.3,8.73,33.02-3.74.83-11.29,2.37-15.03,3.2,1.57-12.07,1.84-24.2,1.77-36.21-35.37-.65-69.69-8.64-103.48-17.22,3.28,13.85,17.91,29.53,7.87,43.37-13.78,7.46-31.89,10.71-45.34.83,9.91-2.13,19.88-4.08,29.92-5.92-3.87-15.44-9.45-30.59-11.02-46.33-35.24-15.74-69.42-33.97-97.57-59.06,1.9,10.89,10.37,22.13,5.91,33.2-11.42,12.78-30.12,16.75-47.57,16.04,9.78-7.22,20.28-13.73,30.58-20.36-3.22-13.85-.39-28.46-3.28-41.95-20.28-23.14-36.29-48.76-53.28-73.73-13.78-42.6-26.31-86.04-23.82-130.83-14.83,1.72-29.66,3.67-44.49,5.74-1.9,11.54-.59,24.08-7.41,34.56-16.54,7.4-34.65,12.72-46.46,26.45-1.51-4.5-4.53-13.49-6.04-18.05,8.4-10.3,25.39-9.88,37.73-14.97,1.38-10.59,1.57-21.3,4.72-31.54,18.7-10.18,41.4-8.46,62.34-8.58,2.62-30.71,9.78-60.95,20.54-90.06-24.67,2.72-48.88-1.83-73.1-5.21-22.11,11.42-42.85,25.86-56.89,45.39-8.46-4.26-20.14-9.65-13.91-20.06,18.44-16.63,41.21-34.08,67.98-36.45,25.79,6.09,52.23,8.94,78.94,6.51,27.23-58.7,53.74-117.64,80.71-176.4-17.65.59-35.24.77-52.89.59-9.32,8.76-21.52,12.01-34.78,10.71,7.35-7.75,12.86-21.54,26.64-19.88,21.78.41,43.57,1.18,65.35,1.36,13.12-31.72,30.25-62.01,40.81-94.5-17.19-8.17-33.4-17.75-48.75-28.34-18.64,9.29-37.53,21.72-60.11,16.69,15.29-13.67,36.68-23.08,58.46-22.72,20.08,6.21,36.09,20.18,55.71,27.69,28.02-62.13,56.96-123.91,84.78-186.1-11.22-5.74-22.18-11.78-33.07-17.87-9.65,1.18-19.36,2.01-29,2.84,17.85-19.65,47.11-3.2,65.42,7.28,18.04-37.28,33.73-75.39,52.43-112.31-4.66-9.76-9.06-19.7-15.22-28.7-13.58,1.95-26.38,6.63-39.76,8.99-12.53-3.91-24.21-9.76-36.16-14.73,12.93-7.57,25.33-2.66,36.94,4.62,10.83-1.07,21.33-3.85,32.15-4.97,12.4,0,21.78,8.52,32.09,13.73,8.86-23.79,21.13-46.39,30.32-70.06,14.17-41.6,41.86-78.52,74.67-110-21.13-5.27-36.16-19.17-45.87-36.33-18.24,3.55-37.01,13.73-55.77,7.16,20.21-7.04,41.8-18.23,64.11-12.84,14.17,12.43,24.48,29.05,44.42,34.97,51.71-46.33,119.62-77.93,192.13-86.28,3.48-13.91,8.86-27.69,9.06-42.01-17.98-10.65-42.85,1.6-62.53-7.57Zm76.9,66.16c10.24,11.48,20.14,23.31,28.81,35.92-13.78-9.29-26.84-19.41-38.45-30.77-75.66,4.56-144.23,45.45-193.77,95.39-51.9,49.53-68.24,117.93-99.67,177.99,10.11.95,20.28,2.01,30.45,3.25-11.48,2.25-22.97,4.14-34.51,6.09-36.55,80.12-73.36,160.12-109.45,240.42-10.24,20.18-19.55,40.71-26.57,62.01-3.61,5.74-7.22,11.54-10.7,17.52-42.45,97.81-90.95,193.56-130.91,292.26-29.59,80.3-21.65,173.38,28.28,245.93,9.38,12.78,17.98,29.11,37.27,30.65-1.57,2.07-4.66,6.21-6.23,8.34,48.49,48.29,120.01,75.27,192.06,74.03,65.88,1.36,129.33-22.49,181.43-57.52l1.9.36c12.14-9.76,24.21-19.59,36.09-29.53,36.48-33.43,62.4-74.44,83.99-116.75-15.09-8.17-21.98-21.18-20.8-36.81,7.48,9.88,15.35,19.65,24.02,28.88,42-90.36,81.96-181.49,123.75-271.9,11.09-17.52-3.54-36.21-1.25-54.62,4.4,7.52,8.4,14.79,12.6,22.6,16.67-24.85,25.92-52.84,38.98-79.23,7.41-15.15,13.58-30.89,15.09-47.46l-8.33,7.46c.26-10.65-.13-21.18-.39-31.66,3.94,4.5,8.01,9.05,12.07,13.73l1.31,10.06c18.77-34.38,33.53-70.3,48.88-105.98l3.61-1.83-.92-1.72c4.46-11.18,8.79-22.37,12.86-33.67-10.3-5.68-24.21-8.64-29.92-19.11-2.56-11.18-1.05-22.66-.98-33.85,12.01,14.32,17.98,34.26,36.22,43.26,21.46-38.4,35.3-79.71,50.98-120.18-14.24-5.09-31.43-7.87-40.42-20.3-10.43-11.6-10.83-27.22-12.6-41.3,20.21,14.14,34.12,33.55,50.72,50.77,8.46-8.11,8.2-19.82,10.24-30,12.93-79-11.29-163.91-70.28-224.27-8.27,15.8-16.21,31.72-25.07,47.22-1.12-20.47,5.25-39.94,12.2-59.06-23.36-24.91-55.58-41.36-88.45-53.97-17.91-4.32-35.96-8.34-53.94-12.31-23.36-1.6-46.85-1.6-70.21-.36Z"/>
  </g>
  <g>
    <path class="cls-8" d="m828.08,2283.15c17.98,3.96,36.02,7.99,53.94,12.31-10.24,12.84-22.57,31.01-43.5,24.14-20.01-3.67-12.99-23.91-10.43-36.45Z"/>
    <path class="cls-8" d="m718.69,2342.33c15.09-7.04,31.63-10.95,47.64-15.98,7.09,3.43,14.17,6.86,21.39,10.41-32.68,20.89-54.59,55.74-94.49,66.45-1.44-22.31,5.45-46.45,25.46-60.89Z"/>
    <path class="cls-8" d="m997.96,2451.98c9.65-4.26,23.49-1.12,24.54,9.94.72,17.04-6.63,34.97-20.6,46.75-12.47.59-23.23-7.52-26.05-18.23,3.74-13.79,8.99-29.94,22.11-38.46Z"/>
    <path class="cls-8" d="m865.81,2607.37c-17.52-32.9,31.1-72.37,65.35-52.49,10.7,7.04.13,19.47-7.09,25.44-16.34,13.31-24.21,32.13-32.74,49.94-8.79-7.4-18.44-14.08-25.53-22.9Z"/>
    <path class="cls-8" d="m919.61,2791.75c13.52-10.41,27.49-20.36,41.8-29.88,4.99,9.29,10.04,18.64,15.09,28.05l.92,1.72-3.61,1.83c-10.83,5.62-21.59,11.24-32.35,16.92-7.28-6.21-14.57-12.49-21.85-18.64Z"/>
    <path class="cls-8" d="m824.8,2911.22c17.98-24.97,46.39-45.98,78.68-53.43,21.26-2.49,17.13,19.05,20.14,31.6-4.07-4.67-8.14-9.23-12.07-13.73.26,10.47.66,21.01.39,31.66-20.34,26.57-43.04,53.2-75.53,68.29-19.09-15.21-20.8-44.14-11.61-64.38Z"/>
    <path class="cls-8" d="m385.82,2911.28c8.6-27.57,50.85-15.8,66.93-.83-13.65,15.44-24.61,32.49-32.22,51.13-7.94,18.7-32.35,29.47-53.41,22.31,8.53-23.73,10.83-48.82,18.7-72.61Z"/>
    <path class="cls-8" d="m243.17,3232.53c9.12-4.85,20.14-3.61,29.86-1.18.33,24.73-8.4,48.82-16.73,72.19-4.46,8.52-9.06,21.89-21.52,22.19-17.85-7.75-23.49-28.52-16.8-44.38,6.36-16.75,10.37-36.45,25.2-48.82Z"/>
    <path class="cls-8" d="m675.85,3262c9.71-2.07,19.95-4.14,29.53-.3,10.89,24.26-15.35,42.01-25.59,61.95-17.91,33.2-31.76,71.96-67.59,93.44-13.19,8.88-31.82,6.92-41.8-5.09-2.3-19.41,6.5-37.81,11.68-56.21,7.94-23.26,12.34-49,31.04-67.64,15.49-16.69,40.75-20.53,62.73-26.15Z"/>
    <path class="cls-8" d="m302.29,3416.62c32.09-9.76,63.39,12.96,96.26,11.66,24.54,4.56,54.79-11.54,74.28,7.34,9.32,7.57,16.08,19.65,10.7,30.95-15.35,32.49-58.86,50.18-96.26,39.76-32.09-9.7-64.9-21.89-89.96-42.84-16.73-12.07-14.37-38.29,4.99-46.87Z"/>
    <path class="cls-8" d="m564.95,3476.63c5.12-22.9,30.64-35.68,54.99-35.15,8.6,3.55,16.08,8.88,23.95,13.67-11.88,9.94-23.95,19.76-36.09,29.53l-1.9-.36c-13.65-2.54-27.36-5.15-40.95-7.69Z"/>
  </g>
  <path class="cls-1" d="m757.87,2282.8c23.36-1.24,46.85-1.24,70.21.36-2.56,12.54-9.58,32.78,10.43,36.45,20.93,6.86,33.27-11.3,43.5-24.14,32.87,12.6,65.09,29.05,88.45,53.97-6.96,19.11-13.32,38.58-12.2,59.06,8.86-15.5,16.8-31.42,25.07-47.22,58.99,60.36,83.2,145.27,70.28,224.27-2.03,10.18-1.77,21.89-10.24,30-16.6-17.22-30.51-36.63-50.72-50.77,1.77,14.08,2.17,29.71,12.6,41.3,8.99,12.43,26.18,15.21,40.42,20.3-15.68,40.47-29.53,81.78-50.98,120.18-18.24-8.99-24.21-28.94-36.22-43.26-.07,11.18-1.57,22.66.98,33.85,5.71,10.47,19.62,13.43,29.92,19.11-4.07,11.3-8.4,22.49-12.86,33.67-5.05-9.41-10.11-18.76-15.09-28.05-14.3,9.53-28.28,19.47-41.8,29.88,7.28,6.15,14.57,12.43,21.85,18.64,10.76-5.68,21.52-11.3,32.35-16.92-15.35,35.68-30.12,71.6-48.88,105.98l-1.31-10.06c-3.02-12.54,1.12-34.08-20.14-31.6-32.28,7.46-60.7,28.46-78.68,53.43-9.19,20.24-7.48,49.17,11.61,64.38,32.48-15.09,55.18-41.72,75.53-68.29l8.33-7.46c-1.51,16.57-7.68,32.31-15.09,47.46-13.06,26.39-22.31,54.38-38.98,79.23-4.2-7.81-8.2-15.09-12.6-22.6-2.3,18.4,12.34,37.1,1.25,54.62-41.8,90.42-81.76,181.54-123.75,271.9-8.66-9.23-16.54-18.99-24.02-28.88-1.18,15.62,5.71,28.64,20.8,36.81-21.59,42.31-47.51,83.32-83.99,116.75-7.87-4.79-15.35-10.12-23.95-13.67-24.34-.53-49.87,12.25-54.99,35.15,13.58,2.54,27.3,5.15,40.95,7.69-52.1,35.03-115.55,58.88-181.43,57.52-72.05,1.24-143.57-25.74-192.06-74.03,1.57-2.13,4.66-6.27,6.23-8.34-19.29-1.54-27.89-17.87-37.27-30.65l8.73-1.18c-10.89-57.22-12.99-116.75,4-173.2,25.92-88.29,76.58-168.11,114.11-252.49,13.19-30.24,29.66-59.23,44.23-88.94-23.03-7.04-45.93-14.32-68.44-22.37,3.48-5.98,7.09-11.78,10.7-17.52,7.02-21.3,16.34-41.84,26.57-62.01,10.89,19.82,27.43,41.18,55.18,39.71,10.43-18.17,15.68-38.29,23.1-57.46,19.95-54.62,48.56-106.04,71.33-159.59,20.93-47.52,37.4-96.93,66.93-140.83,32.61-48.7,58.92-101.96,104.27-142.49,25.53-24.26,56.96-42.19,86.16-62.49,11.61,11.36,24.67,21.48,38.45,30.77-8.66-12.6-18.57-24.44-28.81-35.92Zm-39.17,59.53c-20.01,14.44-26.9,38.58-25.46,60.89,39.9-10.71,61.81-45.56,94.49-66.45-7.22-3.55-14.3-6.98-21.39-10.41-16.01,5.03-32.55,8.94-47.64,15.98Zm279.27,109.65c-13.12,8.52-18.37,24.68-22.11,38.46,2.82,10.71,13.58,18.82,26.05,18.23,13.98-11.78,21.33-29.71,20.6-46.75-1.05-11.07-14.9-14.2-24.54-9.94Zm-132.15,155.39c7.09,8.82,16.73,15.5,25.53,22.9,8.53-17.81,16.4-36.63,32.74-49.94,7.22-5.98,17.78-18.4,7.09-25.44-34.25-19.88-82.87,19.59-65.35,52.49Zm-130.38-43.55c-16.99,5.56-25.46,21.07-38.25,31.48-24.34,9.7-58.14,4.79-73.69,28.17-20.93,22.72-18.44,52.96-21,80.42-15.03,30.3-48.88,48.4-67.19,76.81-15.29,29.59,2.95,66.27-19.42,93.79-37.8,54.38-92.78,104.8-96.85,172.43-3.28,34.79,26.25,60.95,49.21,85.33,27.56,24.97-1.84,69,29.99,91.42,27.95,13.14,68.44,19.53,93.31-2.49,31.76-24.08,36.94-63.79,60.76-92.84,18.77-22.72,55.32-23.37,75.13-44.62,22.97-36.39,13.06-79.59,17.13-119.23,4.53-41.3,56.37-57.04,69.23-94.68,14.3-32.43.52-66.93,1.64-100.24.46-28.7,32.41-48.05,30.38-77.04-1.12-21.95-24.21-37.4-24.67-59.41-2.1-15.68,2.82-34.14-9.78-47.04-17.78-19.11-48.75-33.31-75.92-22.25Zm-349.61,347.47c-7.87,23.79-10.17,48.88-18.7,72.61,21.06,7.16,45.47-3.61,53.41-22.31,7.61-18.64,18.57-35.68,32.22-51.13-16.08-14.97-58.33-26.75-66.93.83Zm-142.65,321.25c-14.83,12.37-18.83,32.07-25.2,48.82-6.69,15.86-1.05,36.63,16.8,44.38,12.47-.3,17.06-13.67,21.52-22.19,8.33-23.37,17.06-47.46,16.73-72.19-9.71-2.43-20.74-3.67-29.86,1.18Zm432.68,29.47c-21.98,5.62-47.24,9.47-62.73,26.15-18.7,18.64-23.1,44.38-31.04,67.64-5.18,18.4-13.98,36.81-11.68,56.21,9.97,12.01,28.61,13.96,41.8,5.09,35.83-21.48,49.67-60.24,67.59-93.44,10.24-19.94,36.48-37.69,25.59-61.95-9.58-3.85-19.82-1.78-29.53.3Zm-373.56,154.62c-19.36,8.58-21.72,34.79-4.99,46.87,25.07,20.95,57.87,33.14,89.96,42.84,37.4,10.41,80.91-7.28,96.26-39.76,5.38-11.3-1.38-23.37-10.7-30.95-19.49-18.88-49.74-2.78-74.28-7.34-32.87,1.3-64.17-21.42-96.26-11.66Z"/>
  <g>
    <path class="cls-3" d="m554.45,2383.33c49.54-49.94,118.11-90.83,193.77-95.39-29.2,20.3-60.63,38.23-86.16,62.49-45.34,40.53-71.65,93.79-104.27,142.49-29.53,43.91-46,93.32-66.93,140.83-22.77,53.55-51.38,104.97-71.33,159.59-7.41,19.17-12.66,39.29-23.1,57.46-27.76,1.48-44.29-19.88-55.18-39.71,36.09-80.3,72.9-160.3,109.45-240.42,11.55-1.95,23.03-3.85,34.51-6.09-10.17-1.24-20.34-2.31-30.45-3.25,31.43-60.06,47.77-128.47,99.67-177.99Z"/>
    <path class="cls-3" d="m173.09,3182.89c39.96-98.7,88.45-194.44,130.91-292.26,22.51,8.05,45.41,15.33,68.44,22.37-14.57,29.71-31.04,58.7-44.23,88.94-37.53,84.38-88.19,164.21-114.11,252.49-16.99,56.45-14.9,115.98-4,173.2l-8.73,1.18c-49.93-72.55-57.87-165.63-28.28-245.93Z"/>
  </g>
  <path class="cls-2" d="m735.43,2563.81c27.17-11.07,58.14,3.14,75.92,22.25,12.6,12.9,7.68,31.36,9.78,47.04.46,22.01,23.56,37.46,24.67,59.41,2.03,29-29.92,48.34-30.38,77.04-1.12,33.31,12.66,67.81-1.64,100.24-12.86,37.63-64.7,53.37-69.23,94.68-4.07,39.65,5.84,82.84-17.13,119.23-19.82,21.24-56.37,21.89-75.13,44.62-23.82,29.05-29,68.76-60.76,92.84-24.87,22.01-65.35,15.62-93.31,2.49-31.82-22.43-2.43-66.45-29.99-91.42-22.97-24.38-52.49-50.53-49.21-85.33,4.07-67.64,59.06-118.05,96.85-172.43,22.38-27.52,4.13-64.2,19.42-93.79,18.31-28.4,52.17-46.51,67.19-76.81,2.56-27.46.07-57.69,21-80.42,15.55-23.37,49.34-18.46,73.69-28.17,12.8-10.41,21.26-25.92,38.25-31.48Zm-11.81,72.72c-23.69,11.66-36.22,34.56-51.97,53.32-17.78,20.71-21.39,47.46-33.14,70.77-10.63,22.31-50.26,28.17-43.44,57.4l-1.57,1.3c-10.63,6.69-21.39,13.85-28.08,24.14-15.62,21.18-7.28,48.88-19.36,71.42-15.88,29.76-40.55,55.03-56.23,84.91-6.43,8.4,3.02,16.69,5.77,24.68-.46,22.55-2.43,46.39,11.09,66.57,11.42,18.11,19.36,45.27,46.59,47.63,23.36,3.14,44.49-8.58,61.88-21.3-10.37-4.26-20.67-8.4-31.04-12.37l-3.67.06c4.79-10.77,5.71-24.73,17.32-31.72,14.96-8.11,32.68-10.12,48.88-15.5,10.83-1.83,21.92-3.43,32.22-7.28,17.39-20.89,19.55-48.34,13.32-73.08-6.43-25.09,5.05-49.23,13.52-72.55-8.2,1.3-16.4,2.72-24.54,4.26-4.13-7.28-15.94-14.32-9.65-23.37,6.04-12.13,23.69-9.53,35.56-11.48,28.61,5.5,44.42-19.11,53.54-39.29,8.2-17.4,1.71-36.39,1.18-54.38-2.95-27.52,15.22-51.54,22.31-77.28,6.3-20,1.18-42.13-11.75-59-10.96-13.61-33.14-16.27-48.75-7.87Z"/>
  <g>
    <path class="cls-4" d="m723.62,2636.54c15.62-8.4,37.8-5.74,48.75,7.87,12.93,16.86,18.04,39,11.75,59-7.09,25.74-25.26,49.76-22.31,77.28.52,17.99,7.02,36.98-1.18,54.38-9.12,20.18-24.93,44.79-53.54,39.29,12.4-15.98,28.61-31.84,29.86-52.31,2.36-27.28,0-55.27,9.65-81.6,7.81-24.5,18.24-52.19,3.74-76.39-27.43-3.43-43.83,21.07-61.68,35.5-19.69,16.33-29.13,39.11-37.6,61.36-8.99,25.44-34.58,40.71-55.97,57.1-6.82-29.23,32.81-35.09,43.44-57.4,11.75-23.31,15.35-50.06,33.14-70.77,15.75-18.76,28.28-41.66,51.97-53.32Z"/>
    <path class="cls-4" d="m681.16,2909.21c8.14-1.54,16.34-2.96,24.54-4.26-8.46,23.31-19.95,47.46-13.52,72.55,6.23,24.73,4.07,52.19-13.32,73.08-10.3,3.85-21.39,5.44-32.22,7.28,15.88-13.73,32.35-30.47,30.64-51.78-.79-32.37,4.92-64.56,3.87-96.87Z"/>
  </g>
  <path class="cls-9" d="m688.64,2699.56c17.85-14.44,34.25-38.94,61.68-35.5,14.5,24.2,4.07,51.9-3.74,76.39-9.65,26.33-7.28,54.32-9.65,81.6-1.25,20.47-17.45,36.33-29.86,52.31-11.88,1.95-29.53-.65-35.56,11.48-6.3,9.05,5.51,16.1,9.65,23.37,1.05,32.31-4.66,64.5-3.87,96.87,1.71,21.3-14.76,38.05-30.64,51.78-16.21,5.38-33.92,7.4-48.88,15.5-11.61,6.98-12.53,20.95-17.32,31.72-15.03-1.24-35.63,4.44-45.14-9.47-14.63-19.82-28.74-41.89-30.58-66.04,7.55-36.45,38.12-64.08,55.84-96.63,22.9-34.85,10.37-78.58,32.94-113.61l1.57-1.3c21.39-16.39,46.98-31.66,55.97-57.1,8.46-22.25,17.91-45.03,37.6-61.36Z"/>
  <path class="cls-10" d="m565.41,2843.47c6.69-10.3,17.45-17.46,28.08-24.14-22.57,35.03-10.04,78.76-32.94,113.61-17.72,32.55-48.29,60.18-55.84,96.63,1.84,24.14,15.94,46.21,30.58,66.04,9.51,13.91,30.12,8.23,45.14,9.47l3.67-.06c10.37,3.96,20.67,8.11,31.04,12.37-17.39,12.72-38.52,24.44-61.88,21.3-27.23-2.37-35.17-29.53-46.59-47.63-13.52-20.18-11.55-44.03-11.09-66.57-2.76-7.99-12.2-16.27-5.77-24.68,15.68-29.88,40.35-55.15,56.23-84.91,12.07-22.55,3.74-50.24,19.36-71.42Z"/>
  <path class="cls-7" d="m831.88,3183.36c3.28-8.28,7.15-16.39,11.29-24.32-1.44,8.17-2.76,16.39-3.87,24.73,4.66,2.31,13.98,6.86,18.57,9.17,22.18.12,51.12-11.54,67.91,6.86,5.45,18.11-.85,43.91-24.02,48.88,3.74-17.28,7.87-34.68,5.64-52.37-26.12,3.02-57.68,10.18-75.53-12.96Z"/>
  <path class="cls-5" d="m106.16,3394.02c13.32-3.43,26.77-6.8,40.42-9.17-8.07,5.62-15.88,11.6-23.43,17.93-5.64,12.84,6.76,29.76-6.56,40.71-13.71,8.34-30.91,8.88-46.59,12.13-4.79,8.05-9.84,16.04-15.03,24.02-1.84-8.64-8.92-18.52-1.25-26.39,15.88-8.64,35.76-9.05,51.25-18.7-.39-13.61-.13-27.1,1.18-40.53Z"/>
</svg>