<?xml version="1.0" encoding="UTF-8"?>
<svg id="_图层_1" data-name="图层 1" xmlns="http://www.w3.org/2000/svg" viewBox="0 0 2447.46 2055.45">
  <defs>
    <style>
      .cls-1 {
        fill: #fff;
      }

      .cls-2 {
        fill: #f0d787;
      }

      .cls-3 {
        fill: #efe4c0;
      }

      .cls-4 {
        fill: #f3de9b;
      }

      .cls-5 {
        fill: #f2e7c5;
      }

      .cls-6 {
        fill: #d8e0e1;
      }

      .cls-7 {
        fill: #f6e5b0;
      }

      .cls-8 {
        fill: #e8d69c;
      }

      .cls-9 {
        fill: #e9d8a3;
      }

      .cls-10 {
        fill: #e8f8fa;
      }

      .cls-11 {
        fill: #e0c87e;
      }

      .cls-12 {
        fill: #ccdadc;
      }

      .cls-13 {
        fill: #f4e1a6;
      }

      .cls-14 {
        fill: #f0f9fa;
      }

      .cls-15 {
        fill: #fbfefe;
      }

      .cls-16 {
        fill: #dff7fa;
      }

      .cls-17 {
        fill: #f6eed8;
      }

      .cls-18 {
        fill: #ecdfb6;
      }

      .cls-19 {
        fill: #e7d496;
      }
    </style>
  </defs>
  <path class="cls-1" d="m2447.46,2049.45c-.07.16-.14.33-.21.49v5.51c.07-.01.14-.02.21-.03,0-1.99,0-3.98,0-5.97Z"/>
  <path class="cls-1" d="m2447.24,2016.71c.07-.06.14-.13.22-.19,0-2.47,0-4.94,0-7.42-.07.12-.15.24-.22.37v7.24Z"/>
  <path class="cls-1" d="m881.96,3.35c-30.77,1.91-61.18,6.78-91.88,8.97-233.22,19.19-462.1,100.26-641.64,239.67C81.43,311.24,24.84,384.88,6.63,470.11c-9.76,42.7-8.21,87.03,1.19,129.62,11.37,72.93,21.19,146.13,32.19,219.11,15.65,71.62,59.63,136.67,117.89,185.87,51.6,45.16,115.75,74.9,177.1,106.99,99.92,50.9,209.71,81.84,318.26,112.62,134.14,29.41,272.02,43.95,409.9,43.68,93.55-1.04,186.86-9.46,279.64-20.39,184.72-23.94,368.9-85.17,510.12-200.03,69.39-54.78,134.14-119.12,167.04-198.83,6.19-12.68,3.15-26.84,5-40.18,10.83-89.49,22.44-178.93,33.03-268.48-2.32-66.86-22.2-133.5-60.28-190.79-51.18-77.58-129.14-137.38-214-182.32-91.41-48.33-190.67-83.21-291.84-109.88C1292.04,16.96,1086.85-9.72,881.96,3.35Z"/>
  <path d="m881.96,3.35c204.89-13.07,410.08,13.61,609.92,53.74,101.17,26.68,200.43,61.56,291.84,109.88,84.86,44.94,162.82,104.75,214,182.32,38.09,57.29,57.96,123.93,60.28,190.79-10.59,89.55-22.2,178.99-33.03,268.48-1.84,13.34,1.19,27.5-5,40.18-32.91,79.71-97.66,144.05-167.04,198.83-141.22,114.86-325.4,176.09-510.12,200.03-92.78,10.93-186.09,19.35-279.64,20.39-137.88.27-275.77-14.27-409.9-43.68-108.55-30.78-218.34-61.72-318.26-112.62-61.35-32.09-125.51-61.83-177.1-106.99-58.26-49.2-102.24-114.26-117.89-185.87-11.01-72.98-20.83-146.18-32.19-219.11-9.4-42.59-10.95-86.92-1.19-129.62,18.21-85.23,74.8-158.87,141.81-218.13C327.98,112.58,556.86,31.5,790.08,12.31c30.71-2.19,61.12-7.05,91.88-8.97Zm-18.09,21.76c-28.92,2.62-57.55,7.38-86.59,8.47-224.23,21.27-443.94,100.32-616.29,235.13-59.57,53.41-110.57,118.63-130.21,193.97-15.06,54.89-10.77,115.57,18.63,165.97,38.74,71.62,95.04,135.36,164.6,183.63,92.42,65.66,201.8,107.59,312.67,139.24,244.35,68.94,505.54,78.5,757.56,44.72,99.02-12.46,196.68-33.68,291.24-63.36,86.77-27.55,171.15-63.14,246.01-112.34,90.22-57.84,164.49-139.68,200.25-236.01,6.43-17.99,14.28-36.25,13.75-55.43-4.11-63.69-25.83-126.39-63.79-179.92-45.58-65.71-112.77-116.01-184.3-156.57-95.1-53.03-199.95-89.77-306.54-118.14-202.45-37.78-410.02-66.75-617-49.37Zm996.08,794.17l.36.49c-26.9,19.52-56.06,35.92-84.39,53.47-19.52,8.47-38.03,18.81-57.37,27.72l-.54.82c-18.09,6.72-35.71,14.43-53.68,21.43l-.95.93c-107.12,38.76-218.1,69.32-331.95,85.67-253.99,39.47-517.97,35.37-767.14-27.5-124.73-31.33-247.62-75.77-352.6-146.29-71.17-45.87-127.47-108.96-170.79-177.67,3.09,27.77,4.34,57.02,19.76,82,57.25,103,156.75,182.05,266.72,235.84,100.27,48.33,208.76,81.07,319.15,103.27,230.18,44.5,470.37,51.94,701.68,9.95,88.79-12.85,175.38-37.28,258.75-67.79l.3-.87c48.02-16.56,94.74-36.85,138.24-61.94l1.49-.05c34.87-18.37,67.72-39.63,99.5-62.1,6.78-5.3,13.81-10.44,19.82-16.46,58.56-43.35,106.28-98.24,144.67-157.39,6.84-29.36,6.37-59.81,13.51-89.16-37.91,72.76-95.04,136.51-164.55,185.66Zm-225.19,206.05c-95.69,36.35-195.61,64.51-297.97,79.27-123.3,21.43-249.23,28.26-374.5,24.33-210.78-8.64-422.88-44.72-614.56-128.03v-.77c-119.56-53.03-227.86-133.99-293.15-241.53,4.28,23.51,5.53,47.51,11.66,70.74,38.21,86.54,109.32,157.12,189.84,212.44l1.25-.11c56.89,36.46,117.35,70.09,184.84,86.98,175.91,45.32,354.44,88.67,537.85,96.49,111.28,4.97,222.92-3.17,332.72-19.9,103.37-15.64,206.56-37.23,302.85-76.04,156.27-60.96,291.72-165.76,383.9-296.63,2.26-26.9,5.3-53.85,8.87-80.64-87.78,125.85-225.19,216.16-373.6,273.4Zm-25.29,120.38c-104.02,40.4-215.49,60.74-326.53,76.76-137.47,19.46-277.85,22.85-415.86,6.94-121.04-14-239.83-40.56-357.24-70.36,47.79,17.11,97.72,28.43,146.28,43.57,192.93,43.24,394.25,54.5,591.53,33.24,193.7-14.05,390.27-63.2,547.19-172.15,65.94-47.73,129.73-101.03,173.35-167.67-93.25,110.1-218.22,196.86-358.73,249.67Z"/>
  <path d="m974.97,38.5c143.36-4.32,287.25,6.34,427.7,33.18,124.02,24.33,246.49,60.41,357.36,117.81,81.53,42.04,158.59,95.78,211.38,167.61,40.94,56.09,65.34,125.47,53.8,193.2-8.99,65.71-47.19,125.25-95.04,173.63-75.46,75.39-174.07,127.71-275.95,167.23-97.95,36.79-200.55,63.14-304.75,79.87-247.86,38.81-504.59,32.97-748.93-22.36-103.01-23.67-203.46-57.84-296.66-104.91-90.93-47.18-176.63-109.45-228.7-194.13-35.41-59.48-49.04-131.21-29.58-197.25,22.79-80.64,83.79-147.06,153.18-198.28,94.09-68.83,205.49-114.42,319.27-148.15,147.76-42.31,302.31-63.74,456.92-67.46Zm-462.51,83.42c-98.67,29.58-194.84,69.05-279.28,125.03-69.21,46.03-131.46,105.35-163.06,179.48-24.58,57.02-24.88,122.24-.3,179.37,11.19-48.87,34.22-95.29,67.25-134.92,49.63-61.78,117.83-107.48,187.46-148.54,39.93-18.64,78.79-39.8,120.15-56.09l.54-.93c178.65-66.7,371.04-107.48,564.69-102.72,216.62,6.51,439.12,28.1,637.17,114.75,96.94,38.71,191.56,90.15,258.45,166.9,44.1,50.79,84.44,110.16,83.49,177.51,12.2-31.65,23.63-64.13,23.86-98.02,2.62-62.76-24.28-123.77-64.69-173.41-50.4-61.72-118.72-109.01-191.03-147.17-111.11-57.24-233.34-94.19-357.6-118.3-145.44-27.88-294.75-37.89-443.11-32.69-150.32,6.12-300.64,27.01-444,69.76Zm140.98,98.02c-92.3,22.74-183.59,50.73-268.51,91.46-18.75,9.84-37.67,19.52-55.82,30.29-56.71,31.65-109.91,69.1-154.67,114.31-16.96,18.1-32.19,37.5-45.94,57.78-22.61,36.74-39.22,77.36-42.67,119.67-1.01,6.61,5.24,11.32,8.21,16.89,15.47-47.18,39.63-91.73,71.35-131.42,15.18-17.66,31.96-34,47.55-51.28,28.21-23.84,57.96-45.92,88.91-66.64,24.4-12.74,47.91-26.9,72.6-39.14,197.34-94.41,419.96-136.13,641.04-143.4,138.48-.27,277.61,13.12,410.92,48.38,146.22,30.67,292.85,79.98,406.04,173.3,64.33,60.57,124.55,133.94,132.47,221.19.6-22.3,6.84-44.56,2.74-66.81-7.38-45.21-32.73-86.16-63.26-121.53-51.65-69.65-129.79-118.03-210.13-156.13-90.28-40.67-184.18-75.55-282.73-95.12-137.59-27.66-278.63-40.13-419.37-41.49-114.26-1.64-228.4,12.74-338.73,39.69Zm-149.49,101.74c-95.16,33.07-187.46,77.03-263.51,139.95-66.59,53.41-113.49,125.3-138.24,202.99,73.85,99.88,190.02,165.65,308.98,212.12,225.66,86.76,474.24,113.22,717.27,103.38,195.07-9.79,391.22-44.61,568.74-121.47,97.36-42.86,190.19-100.04,255.3-180.46-1.61-33.07-7.68-66.26-23.39-96.33-40.65-78.18-107.36-143.89-187.16-189.7-95.99-55.65-204.89-90.59-315.46-112.45-60.34-16.73-122.23-28.65-184.78-36.14-104.44-12.25-210.49-18.15-315.46-8.25-143.95,11.54-287.79,36.74-422.28,86.38Z"/>
  <path class="cls-6" d="m1609.47,1145.71c140.5-52.81,265.47-139.57,358.73-249.67-43.62,66.64-107.42,119.94-173.35,167.67-156.93,108.96-353.49,158.1-547.19,172.15-197.28,21.27-398.6,10-591.53-33.24-48.56-15.14-98.49-26.46-146.28-43.57,117.41,29.79,236.2,56.36,357.24,70.36,138,15.91,278.39,12.52,415.86-6.94,111.05-16.02,222.51-36.35,326.53-76.76Z"/>
  <path class="cls-14" d="m1634.76,1025.33c148.42-57.24,285.83-147.55,373.6-273.4-3.57,26.79-6.61,53.74-8.87,80.64-92.18,130.88-227.63,235.68-383.9,296.63-96.29,38.81-199.48,60.41-302.85,76.04-109.8,16.73-221.44,24.87-332.72,19.9-183.41-7.82-361.94-51.17-537.85-96.49-67.48-16.89-127.95-50.51-184.84-86.98,17.26-.44,35.71-3.39,44.75-18.53,15.12-1.42,30.23-2.3,45.41-3.01.06-6.51.12-12.9.24-19.24,191.68,83.32,403.78,119.4,614.56,128.03,125.27,3.94,251.19-2.9,374.5-24.33,102.36-14.76,202.27-42.92,297.97-79.27Z"/>
  <path class="cls-12" d="m863.87,25.11c206.98-17.38,414.55,11.59,617,49.37,106.58,28.37,211.44,65.11,306.54,118.14,71.53,40.56,138.72,90.86,184.3,156.57,37.97,53.52,59.69,116.23,63.79,179.92.54,19.19-7.32,37.45-13.75,55.43-35.77,96.33-110.03,178.17-200.25,236.01-74.86,49.2-159.25,84.79-246.01,112.34-94.56,29.69-192.22,50.9-291.24,63.36-252.02,33.79-513.21,24.22-757.56-44.72-110.87-31.65-220.25-73.58-312.67-139.24-69.57-48.27-125.86-112.02-164.6-183.63-29.4-50.4-33.68-111.09-18.63-165.97,19.64-75.33,70.64-140.55,130.21-193.97C333.34,133.9,553.05,54.85,777.28,33.58c29.04-1.09,57.67-5.85,86.59-8.47Zm111.11,13.39c-154.61,3.72-309.15,25.15-456.92,67.46-113.78,33.73-225.19,79.32-319.27,148.15-69.39,51.22-130.39,117.65-153.18,198.28-19.46,66.04-5.83,137.77,29.58,197.25,52.07,84.68,137.77,146.95,228.7,194.13,93.19,47.07,193.65,81.24,296.66,104.91,244.35,55.32,501.07,61.17,748.93,22.36,104.2-16.73,206.8-43.08,304.75-79.87,101.88-39.53,200.49-91.84,275.95-167.23,47.85-48.38,86.05-107.92,95.04-173.63,11.54-67.73-12.85-137.11-53.8-193.2-52.79-71.83-129.85-125.57-211.38-167.61-110.87-57.4-233.34-93.48-357.36-117.81-140.44-26.84-284.34-37.5-427.7-33.18Z"/>
  <path class="cls-10" d="m512.46,121.93c143.36-42.75,293.68-63.63,444-69.76,148.36-5.19,297.67,4.81,443.11,32.69,124.26,24.11,246.49,61.07,357.6,118.3,72.3,38.16,140.62,85.45,191.03,147.17,40.41,49.64,67.31,110.65,64.69,173.41-.24,33.89-11.66,66.37-23.86,98.02.95-67.35-39.4-126.72-83.49-177.51-66.89-76.76-161.51-128.2-258.45-166.9-198.05-86.65-420.56-108.24-637.17-114.75-193.65-4.76-386.04,36.03-564.69,102.72,6.13-9.68,12.32-19.41,18.51-29.03-16.84-1.64-33.74-3.17-50.58-4.7,6.9-13.23,14.34-26.19,22.38-38.76-4.94-8.47-9.82-16.89-14.7-25.31-35.59,2.79-65.52,22.41-94.09,40.35-21.01,12.3-23.03,37.01-34.4,55.49-12.44,20.39-25.17,41.06-28.62,64.62,19.94-4.21,40.29-8.04,60.82-5.63-69.63,41.06-137.83,86.76-187.46,148.54-33.03,39.63-56.06,86.05-67.25,134.92-24.58-57.13-24.28-122.35.3-179.37,31.6-74.13,93.85-133.45,163.06-179.48,84.44-55.98,180.61-95.45,279.28-125.03Z"/>
  <path class="cls-15" d="m326.73,207.87c28.56-17.93,58.5-37.56,94.09-40.35,4.88,8.42,9.76,16.84,14.7,25.31-8.03,12.57-15.47,25.53-22.38,38.76,16.84,1.53,33.74,3.06,50.58,4.7-6.19,9.62-12.38,19.35-18.51,29.03l-.54.93c-41.36,16.29-80.22,37.45-120.15,56.09-20.53-2.41-40.88,1.42-60.82,5.63,3.45-23.56,16.19-44.23,28.62-64.62,11.37-18.48,13.39-43.19,34.4-55.49Z"/>
  <g>
    <path class="cls-11" d="m653.44,219.95c110.33-26.95,224.47-41.33,338.73-39.69,140.74,1.37,281.78,13.83,419.37,41.49,98.55,19.57,192.46,54.45,282.73,95.12,80.34,38.1,158.48,86.49,210.13,156.13,30.53,35.37,55.88,76.32,63.26,121.53,4.11,22.25-2.14,44.5-2.74,66.81-7.91-87.25-68.14-160.62-132.47-221.19-113.19-93.32-259.82-142.63-406.04-173.3-133.3-35.26-272.44-48.66-410.92-48.38-221.08,7.27-443.71,48.98-641.04,143.4,2.92-16.95,6.37-33.79,10.47-50.46,84.92-40.73,176.21-68.72,268.51-91.46Z"/>
    <path class="cls-11" d="m128.5,513.79c12.26,1.69,24.58,3.39,36.9,5.14-31.72,39.69-55.88,84.24-71.35,131.42-2.98-5.58-9.22-10.28-8.21-16.89,3.45-42.31,20.05-82.93,42.67-119.67Z"/>
  </g>
  <path class="cls-2" d="m503.95,321.69c134.49-49.64,278.33-74.84,422.28-86.38,104.98-9.9,211.02-3.99,315.46,8.25,62.54,7.49,124.44,19.41,184.78,36.14,110.57,21.87,219.47,56.8,315.46,112.45,79.8,45.81,146.51,111.52,187.16,189.7,15.71,30.07,21.78,63.25,23.39,96.33-65.1,80.42-157.94,137.6-255.3,180.46-177.52,76.86-373.66,111.69-568.74,121.47-243.04,9.84-491.61-16.62-717.27-103.38-118.96-46.47-235.12-112.24-308.98-212.12,24.76-77.68,71.65-149.57,138.24-202.99,76.05-62.92,168.35-106.88,263.51-139.95Zm307.31-30.12c-77.48,10.17-152.88,30.4-225.96,55.93-66.77,27.61-128.42,64.24-193.65,94.69-50.4,32.25-109.32,64.35-128.42,121.75-3.93,19.24-13.57,42.7,1.43,59.97,9.7,8.04,20.77-2.19,30.53-5.03,9.28.66,18.81,3.12,28.15,1.42,49.45-17.77,94.09-44.39,139.43-69.43,37.91-21.05,80.81-33.13,118.72-54.07,23.15-12.79,50.52-15.85,75.52-24.33,26.3-7.22,51.48-19.74,79.56-19.68,37.37-.22,73.55-10.06,109.2-19.46.42-5.36.83-10.66,1.31-15.91,34.04-11.81,67.78-26.13,96.11-47.51,18.33-14.38,34.1-38.92,20.83-60.63-14.34-17.66-40.41-14.76-61.41-14.65-30.65,1.8-60.88-9.62-91.35-3.06Zm939.48,271.43c2.98,15.53,11.13,30.23,11.25,46.25-5.95,36.41-38.62,61.5-66.89,84.57-47.13,30.4-101.64,50.19-147.41,82.66,12.68,4.43,26.24,6.89,39.87,4.65,33.68-4.26,68.5-8.15,98.91-23.23,44.69-21.48,85.63-48.87,126.16-76.32,31.18-19.79,46.06-65,20.23-93.54-13.63-16.18-28.15-34.61-50.94-39.85-11.72.22-25.35,4.76-31.18,14.82Z"/>
  <path class="cls-4" d="m811.26,291.56c30.47-6.56,60.7,4.87,91.35,3.06,21.01-.11,47.07-3.01,61.41,14.65,13.27,21.7-2.5,46.25-20.83,60.63-28.33,21.38-62.07,35.7-96.11,47.51-.48,5.25-.89,10.55-1.31,15.91-35.65,9.4-71.83,19.24-109.2,19.46-28.09-.05-53.26,12.46-79.56,19.68-24.99,8.47-52.37,11.54-75.52,24.33-37.91,20.94-80.81,33.02-118.72,54.07-45.35,25.04-89.98,51.66-139.43,69.43-9.34,1.69-18.86-.77-28.15-1.42-9.76,2.84-20.83,13.07-30.53,5.03-15-17.28-5.36-40.73-1.43-59.97,19.1-57.4,78.02-89.49,128.42-121.75,65.22-30.45,126.88-67.08,193.65-94.69,73.08-25.53,148.48-45.76,225.96-55.93Zm-213.94,93.16c-48.92,17.93-93.91,43.57-136.99,71.12-42.67,23.45-88.19,53.41-100.27,100.54,75.1-48.71,152.88-95.67,239.94-124.43,34.69-10.99,69.39-23.89,106.34-26.79,44.04-2.41,86.88-13.72,128.9-25.53,18.45-4.15,24.22-21.81,31.48-35.64-28.45-9.73-58.97-6.78-88.61-7.11-64.39-3.72-124.08,23.4-180.79,47.84Z"/>
  <path class="cls-8" d="m329.11,341.69c18.15-10.77,37.07-20.45,55.82-30.29-4.11,16.67-7.56,33.51-10.47,50.46-24.7,12.25-48.2,26.41-72.6,39.14,14.1-17.38,27.85-36.74,27.26-59.32Z"/>
  <path class="cls-7" d="m597.32,384.72c56.71-24.44,116.4-51.55,180.79-47.84,29.64.33,60.16-2.62,88.61,7.11-7.26,13.83-13.03,31.49-31.48,35.64-42.01,11.81-84.86,23.12-128.9,25.53-36.96,2.9-71.65,15.8-106.34,26.79-87.06,28.76-164.84,75.72-239.94,124.43,12.08-47.12,57.61-77.08,100.27-100.54,43.09-27.55,88.07-53.19,136.99-71.12Z"/>
  <path class="cls-5" d="m174.45,456.01c44.75-45.21,97.95-82.66,154.67-114.31.6,22.58-13.15,41.93-27.26,59.32-30.95,20.72-60.7,42.81-88.91,66.64-10.18,5.63-20.53,10.88-30.89,16.24-2.2-1.31-6.49-3.94-8.63-5.25.3-7.6.65-15.2,1.01-22.63Z"/>
  <path class="cls-19" d="m128.5,513.79c13.75-20.28,28.98-39.69,45.94-57.78-.36,7.43-.71,15.03-1.01,22.63,2.14,1.31,6.43,3.94,8.63,5.25,10.35-5.36,20.71-10.61,30.89-16.24-15.59,17.28-32.37,33.62-47.55,51.28-12.32-1.75-24.64-3.44-36.9-5.14Z"/>
  <path class="cls-13" d="m1750.75,562.99c5.83-10.06,19.46-14.6,31.18-14.82,22.79,5.25,37.31,23.67,50.94,39.85,25.83,28.54,10.95,73.75-20.23,93.54-40.53,27.44-81.47,54.83-126.16,76.32-30.41,15.09-65.22,18.97-98.91,23.23-13.63,2.24-27.2-.22-39.87-4.65,45.76-32.47,100.27-52.26,147.41-82.66,28.27-23.07,60.94-48.16,66.89-84.57-.12-16.02-8.27-30.72-11.25-46.25Z"/>
  <g>
    <path class="cls-9" d="m1859.95,819.28c69.51-49.15,126.64-112.89,164.55-185.66-7.14,29.36-6.67,59.81-13.51,89.16-38.38,59.15-86.11,114.04-144.67,157.39,4.23-10.55,7.8-21.27,11.43-31.93-5.83-9.51-11.66-19.02-17.44-28.48l-.36-.49Z"/>
    <path class="cls-9" d="m40.9,658.34c43.32,68.72,99.62,131.81,170.79,177.67,104.98,70.52,227.86,114.97,352.6,146.29,249.17,62.87,513.15,66.97,767.14,27.5,113.84-16.35,224.83-46.91,331.95-85.67-8.99,9.18-18.75,17.93-26.24,28.26-5.83,10.5-3.93,23.4-10.95,33.57-7.2,11.1-15.41,21.98-18.92,34.77l-.3.87c-83.37,30.51-169.96,54.94-258.75,67.79-231.32,41.99-471.5,34.55-701.68-9.95-110.39-22.2-218.88-54.94-319.15-103.27-109.97-53.79-209.48-132.85-266.72-235.84-15.41-24.98-16.66-54.23-19.76-82Z"/>
  </g>
  <path class="cls-16" d="m54.59,758.6c65.28,107.53,173.59,188.5,293.15,241.53v.77c-.12,6.34-.18,12.74-.24,19.24-15.18.71-30.29,1.59-45.41,3.01-9.05,15.14-27.49,18.1-44.75,18.53l-1.25.11c-80.52-55.32-151.63-125.9-189.84-212.44-6.13-23.23-7.38-47.23-11.66-70.74Z"/>
  <path class="cls-18" d="m1775.92,873.24c28.33-17.55,57.49-33.95,84.39-53.47,5.77,9.46,11.6,18.97,17.44,28.48-3.63,10.66-7.2,21.38-11.43,31.93-6.01,6.01-13.03,11.15-19.82,16.46-3.69-9.35-7.32-18.53-10.95-27.77-19.94.87-39.93,1.59-59.63,4.37Z"/>
  <path class="cls-17" d="m1775.92,873.24c19.7-2.79,39.69-3.5,59.63-4.37,3.63,9.24,7.26,18.42,10.95,27.77-31.78,22.47-64.63,43.74-99.5,62.1l-1.49.05c-21.78,1.04-43.5,2.84-65.28,2.79,6.43-23.02,25.11-39.85,37.79-59.81l.54-.82c19.34-8.91,37.85-19.24,57.37-27.72Z"/>
  <path class="cls-3" d="m1664.34,923.21c17.97-7,35.59-14.71,53.68-21.43-12.68,19.95-31.36,36.79-37.79,59.81,21.78.05,43.5-1.75,65.28-2.79-43.5,25.09-90.22,45.38-138.24,61.94,3.51-12.79,11.72-23.67,18.92-34.77,7.02-10.17,5.12-23.07,10.95-33.57,7.5-10.33,17.26-19.08,26.24-28.26l.95-.93Z"/>
</svg>