<?xml version="1.0" encoding="UTF-8"?>
<svg id="_图层_1" data-name="图层 1" xmlns="http://www.w3.org/2000/svg" viewBox="0 0 1316.51 1781.12">
  <defs>
    <style>
      .cls-1 {
        fill: #46b4a0;
      }

      .cls-2 {
        fill: #40b09c;
      }

      .cls-3 {
        fill: #45b39f;
      }

      .cls-4 {
        fill: #2e7f71;
      }

      .cls-5 {
        fill: #13352f;
      }

      .cls-6 {
        fill: #71ccbd;
      }

      .cls-7 {
        fill: #b6e8e9;
      }
    </style>
  </defs>
  <g>
    <path class="cls-5" d="m558.66.63c13.46-.55,26.99-.68,40.53-.62.35,32.82-1.8,65.57-3.18,98.31,31.76,2.87,63.52,6.15,94.51,13.81,12.08-29.74,22.23-60.16,35.14-89.56,13.32.27,26.72.75,40.11,1.5-10.36,33.71-24.16,66.32-36.18,99.41,28.03,10.26,55.16,22.9,81.26,37.47,17.33-20.72,32.17-43.62,51.37-62.76,13.12-2.87,26.65-.62,39.97.07-16.09,30.29-40.8,54.83-61.44,82.11,26.79,20.44,52.19,42.66,74.7,67.68,19.26-15.38,37.28-32.2,57.23-46.7,13.74-10.46,32.1-4.17,46.88.34-26.65,25.02-56.34,46.49-83.81,70.49,17.47,27.55,35.62,54.83,48.53,84.85,32.79-13.4,65.1-39.52,102.73-27.35-.97,1.91-2.9,5.81-3.87,7.73-28.17,17.16-59.58,28.37-89.06,43.28,9.8,27.62,14.77,56.47,22.16,84.78,32.31-7.79,64.21-23.25,98.24-18.8,2.69,2.39,8.08,7.25,10.77,9.64-34.38,10.94-69.38,19.76-104.18,29.4,8.42,34.25,16.78,68.57,24.99,102.89,36.25-7.11,75.25-34.25,111.57-15.04-32.79,18.32-70.77,23.86-105.97,36.17,7.66,33.02,16.16,65.84,23.4,99,36.45-6.02,72.08-24.61,109.7-17.57l6.35,6.56c-35,15.86-73.73,20.78-110.53,31.04,8.28,34.32,16.64,68.64,24.99,102.96,38.32-8.96,76.29-24.89,116.47-19.21-4.9,14.15-20.09,15.38-32.45,19.01-26.44,6.56-52.75,13.61-79.12,20.24,8.15,32.48,15.88,65.02,23.89,97.49,37.21-7.79,73.87-25.71,112.67-19.55l6.56,7.25c-36.8,14.84-76.15,22.22-114.67,31.38,8.56,34.18,16.91,68.44,24.92,102.76,37.97-6.08,75.32-24.82,114.4-16.96.07,2.26.21,6.84.28,9.09-35.56,12.03-72.77,18.19-109.08,27.62,5.8,32.13,17.6,62.76,24.65,94.69,40.32-3.62,81.12-11.21,121.58-4.65-5.11,7.45-12.01,11.35-20.64,11.9-33.07,3.69-66.35,5.88-99.55,8.41,4,35.41,3.66,71.17-.76,106.59,37.49,6.22,75.53,8.89,112.67,16.75,2.28,2.8,6.83,8.34,9.11,11.14-41.91,5.13-83.26-5.33-124.55-10.26-7.11,34.8-17.81,68.92-32.59,101.32,34.59,18.8,75.94,28.65,104.11,56.95-42.87,11.76-78.15-19.01-115.23-34.46-15.12,28.85-36.59,53.6-54.47,80.68,22.23,25.23,50.05,45.4,69.87,72.74-13.67,1.16-28.17,5.47-41.49.68-19.33-14.9-35.21-33.71-53.16-50.11-23.27,21.47-48.33,40.95-75.32,57.57,19.75,29.4,41.63,57.77,56.27,90.18-13.19.41-26.37,1.37-39.42-.07-18.64-22.29-32.24-48.2-48.6-72.13-25.2,11.42-51.02,21.4-77.39,29.81,6.28,33.36,13.05,66.66,18.02,100.3-13.26-1.16-29.07,4.38-40.8-2.67-8.42-28.92-11.39-59-17.4-88.47-30.65,4.92-61.58,7.38-92.65,7.45-1.1,35.28-1.31,70.62-4.83,105.77-12.98.21-25.96.21-38.87.07-2.21-35.48,1.24-70.9,2-106.31-25.13-3.14-50.26-6.7-75.05-11.83-14.77,34.39-27.48,69.67-42.94,103.78-13.39-.34-26.72-.75-40.04-1.5,12.5-38.56,29.41-75.62,44.12-113.36-27.06-9.85-53.51-21.54-78.57-35.69-18.09,23.18-33.14,48.68-52.4,70.9-13.32,2.53-26.99,1.37-40.39,1.57,15.19-33.77,40.94-61.12,61.38-91.75-26.1-19.21-50.61-40.47-73.04-63.79-22.09,19.21-43.43,39.31-65.93,57.98-12.98,12.03-32.24,4.72-47.84,4.24,26.51-33.3,62.41-57.57,93.2-86.69-19.54-26.25-36.59-54.28-51.02-83.61-33,15.25-61.79,45.74-100.73,42.8-.41-4.1-1.17-12.31-1.52-16.41,30.65-16.96,60.69-35.07,91.61-51.41-10.15-28.58-16.02-58.32-23.34-87.58-32.38,6.7-64.14,16.75-97.07,20.44-1.86-4.17-5.45-12.44-7.32-16.61,33.07-8.2,66.35-15.38,99.55-23.04-8.49-33.84-16.5-67.82-25.34-101.53-33.21,6.77-65.79,20.03-99.62,21.54-1.86-3.9-5.59-11.76-7.46-15.66,33.9-9.09,68.07-17.02,102.11-25.43-7.46-32.61-15.53-65.09-23.96-97.43-33.76,7.59-66.83,18.66-101.21,23.11-2.49-4.1-7.39-12.17-9.87-16.27,35.28-9.57,70.97-17.57,106.46-26.66-8.56-34.39-17.05-68.85-25.48-103.24-36.18,6.02-71.32,24.48-108.39,20.85-1.38-3.28-4.14-9.98-5.45-13.33,36.25-9.37,72.56-18.32,108.87-27.69-8.35-33.43-16.64-66.93-24.72-100.43-34.52,8.34-67.8,22.36-103.01,27.35-9.32,2.46-10.42-10.73-15.81-15.18,37.7-11.42,75.53-22.22,113.43-32.75-8.42-34.73-16.98-69.46-25.68-104.13-29.76,7.18-59.37,14.84-89.2,21.95-16.09,3.42-35.56,6.84-47.5-7.32,43.01-14.9,88.16-22.49,132.07-34.53-6.77-27.83-15.05-55.31-22.02-83.07-43.7-.14-87.27,6.91-130.9,3.21,3.8-17.71,24.03-13.95,37.63-15.59,30.38-.34,60.55-3.28,90.92-4.24-3.87-31.59-5.04-63.51-3.38-95.31-32.79-9.37-66.21-16.48-98.66-26.73.41-3.69,1.17-11.01,1.59-14.7,34.31-1.09,66.28,13.06,99.21,20.37,5.18-35.35,14.36-70.01,27.06-103.44-35.42-18.94-72.49-35.07-106.67-56.13-8.7-15.11,16.85-8.89,25.06-10.73,33.55,6.7,61.1,30.01,92.79,42.32,14.22-29.95,33.69-56.75,52.4-83.96-25.68-32.61-64.21-53.53-87.2-88.4,12.7-.75,25.48-1.91,38.25-.68,28.03,15.79,45.98,47.31,74.15,61.12,24.37-21.26,48.12-43.41,75.53-60.92-20.02-34.73-47.22-65.7-61.51-103.37,12.36-.62,24.65-.55,37,.27,22.71,25.02,37.35,56.13,56.54,83.82,23.47-10.94,47.22-21.33,71.8-29.6-6.49-31.93-14.57-63.51-19.75-95.72,13.05-.75,26.1-1.23,39.21-1.64,9.04,28.03,14.01,57.09,20.3,85.8,30.24-5.2,60.69-8.68,91.34-11.14,1.59-32.48,2.83-64.88,5.04-97.29Zm-36.59,116.84c-99.35,13.95-192.62,65.02-257.65,140.63-64,73.5-100.31,170.24-99.35,267.32-.55,55.93,16.98,109.66,29.48,163.61,56.2,225.89,111.01,452.12,168.04,677.81,49.36,180.42,240.12,311.83,428.39,290.84,120.89-13.67,233.63-83.2,299.63-184.39,54.26-82.66,78.77-185.83,61.44-283.39-58.06-237.31-116.05-474.68-174.05-711.99-12.63-49.5-22.44-100.64-48.12-145.56-75.94-143.57-244.05-237.17-407.81-214.88Z"/>
    <path class="cls-5" d="m683.28,408.93c14.5,1.64,39.21-5.61,43.22,14.43,15.53,49.36.76,101.32-12.22,149.59-8.42,32.27-26.1,60.92-44.6,88.4,46.95,22.29,94.31,50.73,121.03,96.67,29.55,51.28,37.49,114.72,19.33,171.13-9.73,36.85-31.55,68.71-47.43,102.96,29.69,20.17,62.69,36.65,86.51,64.13,35,39.59,80.02,82.52,75.6,139.75-12.57.68-25.13,1.37-37.63,1.91-3.18-20.78-5.59-42.39-16.09-61.05-29-51.07-72.56-92.98-122.96-123.41-3.04,4.99-9.11,14.9-12.15,19.9,40.25,29.74,73.53,67.82,101.69,108.77,13.32,18.87,19.81,41.29,23.2,63.86l1.24,6.91c-14.01.55-28.03.82-41.98.96-1.93-13.95-3.8-27.83-5.87-41.77-48.33,12.78-96.03,27.62-144.64,39.18-1.1,20.31,4.56,39.65,16.78,55.99-17.4.55-34.86-.07-52.12-1.98-7.04-55.79,6.49-111.71,24.92-164.02,30.24-69.87,82.78-128.33,107.49-200.94,23.89-65.02,17.74-144.87-29.2-198.54-22.37-26.87-52.68-45.33-83.47-60.98-3.38,4.31-10.15,12.92-13.46,17.23,30.72,20.03,63.72,38.9,85.68,69.05,38.39,53.26,46.12,126.62,19.61,186.58-22.44,54.56-64.28,98.11-90.23,150.82-31.97,64.61-48.6,140.02-29.82,210.99-12.01-.41-24.03-.41-35.97-2.05-13.19-18.32-12.5-41.98-11.53-63.45,5.94-70.01,25.96-139.61,67.11-197.65-40.94-21.88-84.23-41.77-117.44-74.93-46.46-45.67-64.14-116.43-48.6-178.92,12.01-43.89,38.94-81.5,65.38-117.87-34.11-19.76-68.83-40.27-94.58-70.69-35-39.59-75.6-81.43-80.36-136.67,10.36-1.16,20.71-1.98,31.14-2.6,1.52,1.16,4.56,3.35,6.08,4.44,23.75,78.62,82.02,145.15,154.1,184.6,2.28-4.58,6.9-13.61,9.18-18.12-52.54-27.76-96.03-70.21-127.31-120.06-10.7-17.37-12.08-38.01-15.46-57.5,15.4-3.56,31.21-4.17,46.95-4.1-1.66,15.45-2.83,30.9-2.83,46.42,53.51-8.48,104.87-27.01,158.44-35.35-2.76-18.19-7.11-36.1-11.94-53.81,14.57.68,30.17-1.78,43.77,4.72,14.5,47.99-1.1,97.36-13.53,143.92-20.99,76.71-86.09,129.9-117.37,201.69-29.69,57.91-22.92,131.34,16.5,183.09,25.48,32.54,61.17,55.99,98.1,73.91,9.94,7.18,20.23-.89,29.55-4.51-37.7-24.75-80.98-44.78-107.56-82.66-38.73-52.51-44.94-127.78-9.46-183.5,33.69-52.51,81.05-96.33,106.94-153.9,25.68-59.69,37.7-127.71,18.3-190.95Zm-197.45,114.79c7.73,11.9,15.67,23.66,23.61,35.41,36.52-6.36,72.21-16.96,109.01-21.6,2.9-16.07,5.87-32.13,8.91-48.2-47.29,11.01-94.24,23.52-141.53,34.39Zm39.97,51.62c18.43,16.75,38.11,32.2,59.1,45.67,11.05-21.4,20.44-43.55,29.2-65.91-29.41,6.77-58.89,13.4-88.3,20.24Zm97.35,143.3c-8.42,12.24-16.91,24.54-25.27,36.85,19.19-4.65,38.32-9.43,57.3-14.7-10.56-7.52-21.26-14.84-32.03-22.15Zm-35.49,56.61c-6.83,13.54-9.53,28.58-12.84,43.21,41.98-9.5,83.61-20.37,125.72-29.19-8.7-11.21-17.47-22.29-26.3-33.3-28.44,8.27-57.65,13.26-86.57,19.28Zm-16.43,62.35c2.69,13.06,5.45,26.19,8.35,39.24,46.74-11.49,93.2-24.48,140.7-32.75-3.94-12.65-7.94-25.36-11.87-38.01-45.77,10.39-91.13,22.42-137.18,31.52Zm12.22,55.45c6.9,13.95,13.32,28.37,23.13,40.61,39.42-3.28,76.08-21.81,115.23-27.89.41-14.9.76-29.74.9-44.58-46.46,10.39-92.24,23.86-139.25,31.86Zm39.9,59.21c9.73,7.79,19.54,15.59,29.34,23.38,15.6-2.94,31.34-5.61,47.08-8.14,5.32-13.54,10.56-27.07,15.67-40.68-30.86,8-61.38,17.02-92.1,25.43Zm97.83,147.68c-13.81,18.73-21.61,40.82-30.38,62.15,25.89-5.61,51.5-12.17,77.05-19.14-14.71-15.11-28.51-31.72-46.67-43Zm-38.73,84.09c-3.18,15.38-6.21,30.77-8.98,46.29,43.91-11.08,87.13-24.34,130.97-35.41-7.32-11.49-14.71-22.97-21.95-34.46-33.69,6.43-66.69,15.86-100.04,23.59Z"/>
  </g>
  <g>
    <path class="cls-7" d="m522.07,117.47c163.76-22.29,331.87,71.31,407.81,214.88,25.68,44.92,35.49,96.06,48.12,145.56,57.99,237.31,115.99,474.68,174.05,711.99,17.33,97.56-7.18,200.73-61.44,283.39-66,101.19-178.74,170.72-299.63,184.39-188.27,20.99-379.02-110.42-428.39-290.84-57.03-225.68-111.84-451.92-168.04-677.81-12.5-53.94-30.03-107.68-29.48-163.61-.97-97.08,35.35-193.83,99.35-267.32,65.03-75.62,158.31-126.69,257.65-140.63Zm-171.22,170.85c-57.72,45.33-109.15,108.23-118.95,182.54-3.11,104.74,30.86,205.52,48.4,307.8.69,5.74,3.11,10.53,7.18,14.49-7.46,10.05-23.06,18.46-18.57,33.23,2.97,12.58,20.37,12.31,28.93,19.42-3.38,9.5.07,19.49,1.86,28.92,25.61,104.6,47.43,210.1,74.01,314.5,17.74,72.47,32.38,146.17,61.1,215.43,16.16,37.33,22.92,80.88,53.71,110.14,39.7,37.33,90.92,59.34,140.7,80.13,88.16,27.48,185.37,18.12,269.74-17.84,47.57-16.82,85.54-50.73,123.03-83,44.46-38.56,75.87-91.2,90.23-147.81,13.81-53.53,21.33-110.28,8.7-164.7-39.49-196.77-90.44-391.07-130.69-587.63-18.85-87.72-35.62-182-97.9-251.25-52.19-55.11-116.47-103.85-192.62-119.51-117.57-33.02-253.86-14.08-348.85,65.16Z"/>
    <path class="cls-7" d="m716.49,275.34c9.39-4.51,20.16-2.67,29.76.21,41.35,13.81,75.94,43.35,99.76,79.17,20.16,30.15,43.63,60.23,50.74,96.54,1.66,13.33,1.38,34.66-16.36,36.17-18.5.48-24.09-19.42-31.97-32.2-19.88-41.77-43.77-82.66-79.12-113.56-18.85-19.01-44.12-30.01-63.17-48.61-.62-8.61,2.83-14.49,10.36-17.71Z"/>
    <path class="cls-7" d="m371.22,337.48c10.15-4.38,25.2-6.08,31.76,4.85-15.53,18.05-33.62,33.91-52.54,48.27-8.35,8.27-26.58,6.97-24.09-7.93,7.59-20.51,25.68-35.48,44.88-45.19Z"/>
    <path class="cls-7" d="m872.58,530.56c13.39-2.6,29.82-16.89,42.04-4.38,4.28,11.96,1.17,29.74-13.74,32-16.36.82-21.33-16.55-28.31-27.62Z"/>
    <path class="cls-7" d="m447.37,1137.06c14.15-6.43,19.05,14.02,22.3,24,6.97,41.7,21.13,81.56,33.41,121.9,7.94,22.08-31.55,28.99-39.01,9.91-14.77-34.94-18.64-73.36-28.65-109.8-2.55-15.38-7.46-39.65,11.94-46.01Z"/>
    <path class="cls-7" d="m1047.87,1246.58c11.87-10.26,33.97-5.61,37.83,10.32,6.49,25.16,4.76,55.11-11.32,76.5-10.49,13.88-29.41,6.22-39.35-4.03-10.91-9.78-6.9-25.5-4.83-37.88,3.87-15.38,6.01-33.16,17.67-44.92Z"/>
  </g>
  <g>
    <path class="cls-6" d="m350.86,288.33c95-79.24,231.28-98.18,348.85-65.16,76.15,15.66,140.43,64.4,192.62,119.51,62.27,69.26,79.05,163.54,97.9,251.25,40.25,196.56,91.2,390.86,130.69,587.63,12.63,54.42,5.11,111.17-8.7,164.7-14.36,56.61-45.77,109.25-90.23,147.81-37.49,32.27-75.46,66.18-123.03,83-84.37,35.96-181.57,45.33-269.74,17.84-49.78-20.78-101-42.8-140.7-80.13-30.79-29.26-37.56-72.81-53.71-110.14-28.72-69.26-43.36-142.96-61.1-215.43-26.58-104.4-48.4-209.89-74.01-314.5-1.8-9.43-5.25-19.42-1.86-28.92,3.11-10.67,6.83-21.19,8.98-32.06-5.87-7.45-12.84-13.88-19.33-20.58-4.07-3.97-6.49-8.75-7.18-14.49-17.54-102.28-51.5-203.05-48.4-307.8,9.8-74.32,61.24-137.22,118.95-182.54Zm365.63-12.99c-7.53,3.21-10.98,9.09-10.36,17.71,19.05,18.6,44.32,29.6,63.17,48.61,35.35,30.9,59.24,71.79,79.12,113.56,7.87,12.78,13.46,32.68,31.97,32.2,17.74-1.5,18.02-22.84,16.36-36.17-7.11-36.3-30.58-66.39-50.74-96.54-23.82-35.83-58.41-65.36-99.76-79.17-9.6-2.87-20.37-4.72-29.76-.21Zm-249.02,12.92c-15.67,9.16-27.06,27.83-21.4,46.08,7.53,28.03,55.65,32.75,63.72,2.53,13.6-24.82-15.88-61.46-42.32-48.61Zm-96.24,49.23c-19.19,9.71-37.28,24.68-44.88,45.19-2.49,14.9,15.74,16.2,24.09,7.93,18.92-14.36,37-30.22,52.54-48.27-6.56-10.94-21.61-9.23-31.76-4.85Zm-104.73,63.17c-.48,10.6-.97,21.26-1.38,31.93,13.32,3.21,31.27.21,32.72-16.41-.35-16.61-20.02-13.13-31.34-15.52Zm410.37,19.01c-3.73.55-11.25,1.64-15.05,2.19-13.6-6.5-29.2-4.03-43.77-4.72,4.83,17.71,9.18,35.62,11.94,53.81-53.57,8.34-104.94,26.87-158.44,35.35,0-15.52,1.17-30.97,2.83-46.42-15.74-.07-31.55.55-46.95,4.1-10.22,1.3-20.44,2.53-30.65,3.76l4.07,2.87c-10.42.62-20.78,1.44-31.14,2.6,4.76,55.24,45.36,97.08,80.36,136.67,25.75,30.42,60.48,50.93,94.58,70.69-26.44,36.37-53.37,73.97-65.38,117.87-15.53,62.49,2.14,133.25,48.6,178.92,33.21,33.16,76.5,53.05,117.44,74.93-41.15,58.04-61.17,127.64-67.11,197.65-.97,21.47-1.66,45.12,11.53,63.45,11.94,1.64,23.96,1.64,35.97,2.05,2.14-2.53,6.35-7.66,8.49-10.19,17.26,1.91,34.73,2.53,52.12,1.98-12.22-16.34-17.88-35.69-16.78-55.99,48.6-11.55,96.31-26.39,144.64-39.18,2.07,13.95,3.94,27.83,5.87,41.77,13.95-.14,27.96-.41,41.98-.96l-1.24-6.91c8.77-2.73,17.54-5.4,26.3-8.07,12.5-.55,25.06-1.23,37.63-1.91,4.42-57.22-40.59-100.16-75.6-139.75-23.82-27.48-56.82-43.96-86.51-64.13,15.88-34.25,37.7-66.11,47.43-102.96,18.16-56.4,10.22-119.85-19.33-171.13-26.72-45.94-74.08-74.39-121.03-96.67,18.5-27.48,36.18-56.13,44.6-88.4,12.98-48.27,27.75-100.23,12.22-149.59-4-20.03-28.72-12.78-43.22-14.43-1.59,2.67-4.83,8.07-6.42,10.73Zm195.73,110.89c6.97,11.08,11.94,28.44,28.31,27.62,14.91-2.26,18.02-20.03,13.74-32-12.22-12.51-28.65,1.78-42.04,4.38Zm-11.18,78.76c-26.58,14.02-27.06,53.46-9.94,74.86,27.55,25.16,76.77-.75,78.98-35.35-.62-32.13-40.59-54.56-69.04-39.52Zm-510.2,49.36c-18.3,3.42-38.32,12.92-45.29,31.31-3.38,16.14-3.24,34.59,5.45,49.16,22.16,18.8,60.41,14.84,76.01-10.46,20.02-26.8-1.1-72.88-36.18-70.01Zm-.62,191.43c-23.75,12.03-8.98,53.26,17.4,49.64,26.03.82,34.52-38.08,13.32-50.59-10.01-2.6-20.92-2.39-30.72.96Zm600.71,67.68c-10.56,16.61,2.14,48.34,24.99,38.22,18.71-4.58,14.71-25.84,15.26-40.2-13.26-.96-28.51-7.32-40.25,1.98Zm-20.5,96.13c-20.78,2.8-25.27,29.33-17.67,45.33,8.15,21.47,38.25,13.47,50.81.55,18.71-19.69-9.39-53.12-33.14-45.88Zm-552.04,6.91c-7.11,1.78-13.6,4.79-19.47,9.16-7.39,16.55,12.36,37.67,29,26.53,18.57-8.68,14.43-41.7-9.53-35.69Zm618.59,65.84c-.48,12.17-.97,24.34-1.31,36.58,9.94-2.46,22.16-.34,30.72-6.91,2.35-7.11,4.49-14.29,6.28-21.54-11.87-2.8-23.82-5.47-35.69-8.14Zm-502.74,42.12c-21.4,8.48-17.4,45.67,5.66,47.93,13.81-.82,34.93-4.38,35.35-21.88,5.11-22.36-22.85-38.01-41.01-26.05Zm-47.22,8.27c-19.4,6.36-14.5,30.63-11.94,46.01,10.01,36.44,13.88,74.86,28.65,109.8,7.46,19.07,46.95,12.17,39.01-9.91-12.29-40.34-26.44-80.2-33.41-121.9-3.24-9.98-8.15-30.42-22.3-24Zm600.5,109.53c-11.67,11.76-13.81,29.54-17.67,44.92-2.07,12.37-6.08,28.1,4.83,37.88,9.94,10.26,28.86,17.91,39.35,4.03,16.09-21.4,17.81-51.34,11.32-76.5-3.87-15.93-25.96-20.58-37.83-10.32Zm-572.95,88.81c-18.36,2.46-22.51,23.66-18.85,38.7,2.49,33.23,62.69,32.54,65.59-.21,4.83-24.2-23.2-48.82-46.74-38.49Zm476.65.27c-25.13,5.81-34.04,34.39-40.39,55.99-8.42,31.11,19.47,57.63,46.33,67.96,45.7,20.58,100.73-31.04,85.68-77.39-12.5-36.17-54.68-56.61-91.61-46.56Zm-498.39,113.56c9.11,4.1,20.78,20.37,30.86,9.5,9.39-6.08,9.6-22.08-1.93-25.84-12.5-7.45-19.68,11.21-28.93,16.34Zm332.49,43.48c-23.13,5.74-30.38,37.4-22.16,57.09,14.84,14.29,41.7,19.01,58.48,5.26,22.3-24.68-2.28-70.76-36.31-62.35Zm-114.05,44.03c-2.35,7.86-4.56,15.79-6.77,23.72,6.63.62,13.26.96,19.95.96,12.7-.34,8.91-15.52,12.01-23.59-6.28-.27-18.92-.82-25.2-1.09Z"/>
    <path class="cls-6" d="m485.83,523.72c47.29-10.87,94.24-23.38,141.53-34.39-3.04,16.07-6.01,32.13-8.91,48.2-36.8,4.65-72.49,15.25-109.01,21.6-7.94-11.76-15.88-23.52-23.61-35.41Z"/>
    <path class="cls-6" d="m525.8,575.34c29.41-6.84,58.89-13.47,88.3-20.24-8.77,22.36-18.16,44.51-29.2,65.91-20.99-13.47-40.66-28.92-59.1-45.67Z"/>
    <path class="cls-6" d="m623.15,718.64c10.77,7.32,21.47,14.63,32.03,22.15-18.99,5.26-38.11,10.05-57.3,14.7,8.35-12.31,16.85-24.61,25.27-36.85Z"/>
    <path class="cls-6" d="m587.66,775.25c28.93-6.02,58.13-11.01,86.57-19.28,8.84,11.01,17.6,22.08,26.3,33.3-42.11,8.82-83.74,19.69-125.72,29.19,3.31-14.63,6.01-29.67,12.84-43.21Z"/>
    <path class="cls-6" d="m571.23,837.6c46.05-9.09,91.41-21.13,137.18-31.52,3.94,12.65,7.94,25.36,11.87,38.01-47.5,8.27-93.96,21.26-140.7,32.75-2.9-13.06-5.66-26.19-8.35-39.24Z"/>
    <path class="cls-6" d="m583.45,893.05c47.02-8,92.79-21.47,139.25-31.86-.14,14.84-.48,29.67-.9,44.58-39.15,6.08-75.8,24.61-115.23,27.89-9.8-12.24-16.22-26.66-23.13-40.61Z"/>
    <path class="cls-6" d="m623.35,952.25c30.72-8.41,61.24-17.43,92.1-25.43-5.11,13.61-10.36,27.14-15.67,40.68-15.74,2.53-31.48,5.2-47.08,8.14-9.8-7.79-19.61-15.59-29.34-23.38Z"/>
    <path class="cls-6" d="m721.18,1099.93c18.16,11.28,31.97,27.89,46.67,43-25.54,6.97-51.16,13.54-77.05,19.14,8.77-21.33,16.57-43.41,30.38-62.15Z"/>
    <path class="cls-6" d="m682.45,1184.02c33.35-7.73,66.35-17.16,100.04-23.59,7.25,11.49,14.64,22.97,21.95,34.46-43.84,11.08-87.06,24.34-130.97,35.41,2.76-15.52,5.8-30.9,8.98-46.29Z"/>
  </g>
  <g>
    <path class="cls-2" d="m467.46,288.26c26.44-12.85,55.92,23.79,42.32,48.61-8.08,30.22-56.2,25.5-63.72-2.53-5.66-18.25,5.73-36.92,21.4-46.08Z"/>
    <path class="cls-2" d="m266.49,400.66c11.32,2.39,31-1.09,31.34,15.52-1.45,16.61-19.4,19.62-32.72,16.41.41-10.67.9-21.33,1.38-31.93Z"/>
    <path class="cls-2" d="m676.86,419.66c1.59-2.67,4.83-8.07,6.42-10.73,19.4,63.24,7.39,131.27-18.3,190.95-25.89,57.57-73.25,101.39-106.94,153.9-35.49,55.72-29.27,130.99,9.46,183.5,26.58,37.88,69.87,57.91,107.56,82.66-9.32,3.62-19.61,11.69-29.55,4.51-36.94-17.91-72.63-41.36-98.1-73.91-39.42-51.76-46.19-125.18-16.5-183.09,31.27-71.79,96.38-124.98,117.37-201.69,12.43-46.56,28.03-95.92,13.53-143.92,3.8-.55,11.32-1.64,15.05-2.19Z"/>
    <path class="cls-2" d="m861.4,609.32c28.44-15.04,68.42,7.38,69.04,39.52-2.21,34.59-51.43,60.51-78.98,35.35-17.12-21.4-16.64-60.85,9.94-74.86Z"/>
    <path class="cls-2" d="m351.2,658.68c35.07-2.87,56.2,43.21,36.18,70.01-15.6,25.3-53.85,29.26-76.01,10.46-8.7-14.56-8.84-33.02-5.45-49.16,6.97-18.39,26.99-27.89,45.29-31.31Z"/>
    <path class="cls-2" d="m268.91,826.39c-4.49-14.77,11.12-23.18,18.57-33.23,6.49,6.7,13.46,13.13,19.33,20.58-2.14,10.87-5.87,21.4-8.98,32.06-8.56-7.11-25.96-6.84-28.93-19.42Z"/>
    <path class="cls-2" d="m350.58,850.11c9.8-3.35,20.71-3.56,30.72-.96,21.19,12.51,12.7,51.41-13.32,50.59-26.37,3.62-41.15-37.6-17.4-49.64Z"/>
    <path class="cls-2" d="m951.29,917.8c11.74-9.3,26.99-2.94,40.25-1.98-.55,14.36,3.45,35.62-15.26,40.2-22.85,10.12-35.56-21.6-24.99-38.22Z"/>
    <path class="cls-2" d="m930.78,1013.92c23.75-7.25,51.85,26.19,33.14,45.88-12.57,12.92-42.67,20.92-50.81-.55-7.59-16-3.11-42.53,17.67-45.33Z"/>
    <path class="cls-2" d="m378.75,1020.83c23.96-6.02,28.1,27.01,9.53,35.69-16.64,11.14-36.38-9.98-29-26.53,5.87-4.38,12.36-7.38,19.47-9.16Z"/>
    <path class="cls-2" d="m735.89,1073.34c3.04-4.99,9.11-14.9,12.15-19.9,50.4,30.42,93.96,72.33,122.96,123.41,10.49,18.66,12.91,40.27,16.09,61.05-8.77,2.67-17.54,5.33-26.3,8.07-3.38-22.56-9.87-44.99-23.2-63.86-28.17-40.95-61.44-79.03-101.69-108.77Z"/>
    <path class="cls-2" d="m997.34,1086.67c11.87,2.67,23.82,5.33,35.69,8.14-1.8,7.25-3.94,14.43-6.28,21.54-8.56,6.56-20.78,4.44-30.72,6.91.35-12.24.83-24.41,1.31-36.58Z"/>
    <path class="cls-2" d="m494.6,1128.78c18.16-11.96,46.12,3.69,41.01,26.05-.41,17.5-21.54,21.06-35.35,21.88-23.06-2.26-27.06-39.45-5.66-47.93Z"/>
    <path class="cls-2" d="m474.92,1335.39c23.54-10.32,51.57,14.29,46.74,38.49-2.9,32.75-63.1,33.43-65.59.21-3.66-15.04.48-36.24,18.85-38.7Z"/>
    <path class="cls-2" d="m951.56,1335.67c36.94-10.05,79.12,10.39,91.61,46.56,15.05,46.35-39.97,97.97-85.68,77.39-26.86-10.32-54.75-36.85-46.33-67.96,6.35-21.6,15.26-50.18,40.39-55.99Z"/>
    <path class="cls-2" d="m785.66,1492.71c34.04-8.41,58.61,37.67,36.31,62.35-16.78,13.74-43.63,9.02-58.48-5.26-8.22-19.69-.97-51.34,22.16-57.09Z"/>
  </g>
  <g>
    <path class="cls-4" d="m396.77,467.73c10.22-1.23,20.44-2.46,30.65-3.76,3.38,19.49,4.76,40.13,15.46,57.5,31.27,49.84,74.77,92.3,127.31,120.06-2.28,4.51-6.9,13.54-9.18,18.12-72.08-39.45-130.35-105.97-154.1-184.6-1.52-1.09-4.56-3.28-6.08-4.44l-4.07-2.87Z"/>
    <path class="cls-4" d="m653.94,680.76c30.79,15.66,61.1,34.12,83.47,60.98,46.95,53.67,53.09,133.52,29.2,198.54-24.72,72.61-77.25,131.06-107.49,200.94-18.43,52.3-31.97,108.23-24.92,164.02-2.14,2.53-6.35,7.66-8.49,10.19-18.78-70.97-2.14-146.38,29.82-210.99,25.96-52.71,67.8-96.26,90.23-150.82,26.51-59.96,18.78-133.32-19.61-186.58-21.95-30.15-54.96-49.02-85.68-69.05,3.31-4.31,10.08-12.92,13.46-17.23Z"/>
  </g>
  <path class="cls-1" d="m453.17,1449.23c9.25-5.13,16.43-23.79,28.93-16.34,11.53,3.76,11.32,19.76,1.93,25.84-10.08,10.87-21.75-5.4-30.86-9.5Z"/>
  <path class="cls-3" d="m671.61,1536.74c6.28.27,18.92.82,25.2,1.09-3.11,8.07.69,23.25-12.01,23.59-6.7,0-13.32-.34-19.95-.96,2.21-7.93,4.42-15.86,6.77-23.72Z"/>
</svg>