<?xml version="1.0" encoding="UTF-8"?>
<svg id="_图层_1" data-name="图层 1" xmlns="http://www.w3.org/2000/svg" viewBox="0 0 3365.75 1605.2">
  <defs>
    <style>
      .cls-1 {
        fill: #030506;
      }

      .cls-2 {
        fill: #90c2b4;
      }

      .cls-3 {
        fill: #fff;
      }

      .cls-4 {
        fill: #86b9d2;
      }

      .cls-5 {
        fill: #93d9c6;
      }

      .cls-6 {
        fill: #53c2a5;
      }

      .cls-7 {
        fill: #fefaf7;
      }

      .cls-8 {
        fill: #e4eff6;
      }

      .cls-9 {
        fill: #040404;
      }

      .cls-10 {
        fill: #89bad5;
      }

      .cls-11 {
        fill: #4383ab;
      }

      .cls-12 {
        fill: #a0c8d9;
      }

      .cls-13 {
        fill: #abcbd9;
      }

      .cls-14 {
        fill: #cfe3ee;
      }

      .cls-15 {
        fill: #58a38f;
      }

      .cls-16 {
        fill: #e4f5f1;
      }

      .cls-17 {
        fill: #040506;
      }

      .cls-18 {
        fill: #9cbed3;
      }

      .cls-19 {
        fill: #e5f0f6;
      }

      .cls-20 {
        fill: #326280;
      }

      .cls-21 {
        fill: #7f9fb0;
      }

      .cls-22 {
        fill: #e1eef5;
      }

      .cls-23 {
        fill: #deecf4;
      }

      .cls-24 {
        fill: #cfeee6;
      }

      .cls-25 {
        fill: #7097b0;
      }

      .cls-26 {
        fill: #7db3d1;
      }

      .cls-27 {
        fill: #81b6d1;
      }

      .cls-28 {
        fill: #79a1ba;
      }

      .cls-29 {
        fill: #729bb0;
      }

      .cls-30 {
        fill: #e8f2f7;
      }

      .cls-31 {
        fill: #97bad0;
      }

      .cls-32 {
        fill: #88c0d9;
      }

      .cls-33 {
        fill: #71a1c0;
      }

      .cls-34 {
        fill: #84abc3;
      }

      .cls-35 {
        fill: #f9e3cd;
      }

      .cls-36 {
        fill: #030507;
      }

      .cls-37 {
        fill: #fef9f5;
      }

      .cls-38 {
        fill: #15263f;
      }

      .cls-39 {
        fill: #040608;
      }

      .cls-40 {
        fill: #7cb3d1;
      }

      .cls-41 {
        fill: #d0eee6;
      }

      .cls-42 {
        fill: #070707;
      }

      .cls-43 {
        fill: #8bafc6;
      }

      .cls-44 {
        fill: #e4f2f7;
      }

      .cls-45 {
        fill: #556a76;
      }

      .cls-46 {
        fill: #58c3e5;
      }

      .cls-47 {
        fill: #e9f2f8;
      }
    </style>
  </defs>
  <path class="cls-3" d="m3365.74,0h-3.91s0,0,0,.01c1.31,0,2.62,0,3.92,0,0,0,0,0,0-.01Z"/>
  <path class="cls-3" d="m0,0C1004.84.02,2009.84.02,3014.48,0"/>
  <path class="cls-3" d="m2672.1,514.57c-158.82,1.1-317.79,1.57-476.68,2.09-10.58.47-21.95,0-31.45,5.63-9.27,6.02-10.96,18.46-11.18,28.93-.07,28.54.11,57.07.15,85.61-10.92.47-21.92,0-32.69,1.89-6.83,1.22-5.22,9.33-6.64,14.52-10.92-3.31-22.22-4.76-33.55-4.68.26-39.09-.26-78.17.23-117.26.79-13.54-6.57-26.69-17.64-33.38-13.25-7.91-29.05-7.36-43.8-7.71-141.18-.2-282.32-.12-423.5-.31-.94-16.93,2.96-34.72-2.29-50.97-6.94-3.98-15.12-2.24-22.63-2.83-1.28-13.93,4.77-31.53-6.87-41.92-1.31-21.33-3.9-45.9-20.9-60.3-11.37-10.43-27.25-10.47-41.47-10.75-101.4.04-202.8.12-304.2.2-15.27,1.22-32.2,5.12-42.22,18.38-8.89,11.02-9.68,26.21-9.79,40.03-.11,35.94-.15,71.87-.23,107.81-30.25.08-60.49.2-90.7-.28-27.51,1.34-50.06,29.28-48.6,57.74.9,62.7.41,125.37.6,188.07-24.32.94-48.64,1.26-72.92,2.56-9.61,10.16-16.51,23.14-16.32,37.79-.68,45.82,0,91.63-.3,137.49-20.23,1.61-11.86,26.69-13.47,40.78-5.33,0-10.62,0-15.95.04-.49-5.67,0-11.53-1.65-17-2.4-6.53-9.68-4.92-14.9-5.39-32.57.39-65.19-.71-97.72.55-10.02,4.01-4.99,17.36-6.57,25.86-13.06.31-26.31-1.3-39.22,1.1-5.48,4.25-4.13,11.85-5.1,18.03-31.75-.35-63.46-1.77-95.21-2.01-13.02-.71-25.29,7.4-31.49,19.17-11.15,19.96-10.21,44.12-10.1,66.48-7.96,1.34-20.23-3.35-24.43,6.3-1.88,22.04-.26,44.28-.79,66.4-9.53.47-19.66-1.46-28.75,2.44-5.07,10.08-2.81,22.32-2.21,33.26,2.4,7.64,11.03,5.59,16.85,7.2-.34,43.61-.38,87.26-.64,130.88.56,5.71-1.88,10.86-4.73,15.51-34.83,58.96-69.24,118.24-104.1,177.13-6.76,15.82-3.3,36.61,9.83,47.75,13.74,11.57,31.97,15.35,49.16,16.3,75.13-.59,150.34-.51,225.43-1.89,14.49-7.01,32.39-7.32,43.8-20.23,12.83-14.76,10.66-37.94,2.03-54.36-31.94-55.93-63.8-111.9-95.73-167.84-3.15-4.88-3.83-10.82-3.72-16.53-.64-42.2-1.43-84.39-1.91-126.55,4.62-1.73,12.01-.67,13.17-7.24,1.09-10.79,2.63-22.75-1.69-32.87-8.86-4.8-19.44-2.24-29.05-2.95-.56-22.51,1.09-45.15-.75-67.54-5.33-7.91-15.46-4.05-23.23-5.2-.04-13.03,0-26.45,5.33-38.5,30.66.83,61.32.16,91.98.43,2.81,4.33,3.57,12.24,10.13,11.73,11.67.91,23.38.24,35.09.35,1.43,8.03-2.96,20.98,6.72,24.48,28.75,1.57,57.64.12,86.46.71,8.11-.39,16.74,1.26,24.39-2.32,2.29-5,2.89-10.51,4.05-15.82,22.93.04,45.86.67,68.79-.16,7.69.83,8.26-8.82,10.32-14.29,13.17-.08,26.34-.04,39.55-.04.08,168.19,1.35,336.38.6,504.53,3.57,23.93,29.01,33.14,49.35,32.04-.56,7.05-1.05,14.09-1.58,21.14-32.65.2-65.34-.31-97.95.55-7.51-.63-13.32,10.04-7.58,15.71,3.11,5.27,9.98,3.5,14.9,4.17,375.39-1.5,750.75-2.68,1126.1-4.01,12.57-.51,25.33,1.1,37.75-1.26,9.19-4.01,5.82-19.01-3.94-18.66-31.19-.87-62.41.08-93.63-.08.19-5.47.38-10.9.64-16.33,15.35,1.38,30.96-5.08,41.43-16.93,10.09-12.2,7.96-29.36,8.03-44.28,0-181.14-.3-362.32-.3-543.46,35.54,16.93,75.51,33.81,114.95,22.75,25.18-6.81,43.27-29.21,52.69-53.73,7.92-.24,15.87-.47,23.91-.59.49,10.12-5.33,29.76,9.91,29.76,103.91-.39,207.83-2.05,311.74-2.72,14.04.16,9.49-19.13,11.93-28.62,19.63-.47,39.29.67,58.88-.63,13.92-1.14,31.11-7.95,33.62-24.36.26-111.63-.41-223.42.34-335.12,3.26-20.47-4.43-47.51-26.19-52.35ZM612.6,1207.54c-.04.32-.04.51-.12.77-.17.4-.34.8-.5,1.19l-.02.04c-.21.39-.5.76-.82,1.07-.18.17-.19.16-.55.44-.23.18-.36.31-.58.43-.22.13-.99.45-1.24.52-.28.08-1.08.17-1.37.19-.04,0-.08,0-.12,0-.2,0-1.19-.14-1.38-.19-.05-.01-.09-.02-.14-.04-.37-.12-.9-.35-1.25-.53-.1-.05-.19-.11-.28-.17-.42-.3-.86-.62-1.24-.98-.62-.62-1.05-1.36-1.29-2.21-.06-.44-.12-.89-.18-1.33,0-.9.23-1.74.68-2.52.26-.34.52-.67.78-1.01.45-.49.99-.83,1.61-1.03.6-.31,1.24-.46,1.93-.43.27-.01.53.01.78.05.14-.02.27-.04.41-.05.69-.03,1.33.12,1.93.43.62.2,1.16.55,1.61,1.03.49.45.83.99,1.03,1.61.31.6.46,1.24.43,1.93,0,.26-.07.56-.1.79Zm14.06-32.45c4.65,0,5.94,5.15,3.88,8.06-.15.39-.33.77-.54,1.15-.88,1.57-.93,1.64-.29.08-.57,1.4-1.56,2.32-2.7,2.83.87,2.42,0,5.47-2.64,6.44-1.64,32.98-.32,66,.82,98.99,1.11,32.26.59,64.37.54,96.63-.01,6.44-10.01,6.43-10,0,.05-32.26.58-64.37-.54-96.63-1.14-32.87-2.45-65.79-.84-98.66h-8.44c-5.56,0-6.31-7.45-2.27-9.49-2.17-2.76-.06-7.84,4.05-8.22,2.09-.19,4.19-.31,6.29-.39.03,0,.05-.02.08-.02,4.2-.6,8.35-.77,12.59-.77Z"/>
  <path class="cls-3" d="m1171.06,350.71c10.36-9.01,24.54-8.58,37.23-9.13,96.45-.08,192.86-.2,289.3-.24,10.85.94,22.85.71,32.27,7.12,12.91,11.45,13.85,30.66,15.31,47.04-2.7,0-8.11.08-10.81.12-.94-12.71-1.35-27.79-11.78-36.45-7.84-7.52-18.99-6.89-28.86-6.85-96.33.51-192.71.43-289.04,1.06-20.08-.24-29.12,22.36-29.05,40.38,0,66.17-1.43,132.37-1.88,198.54h-12.12c0-71.48.64-143,.71-214.48,0-9.56,1.09-20.63,8.71-27.12Z"/>
  <path class="cls-3" d="m1201.15,372.71c4.77-1.06,9.68-1.18,14.6-1.26,90.14-.16,180.32-.39,270.46-.71,7.32.04,14.71.24,21.92,2.05,7.36,4.33,6.27,14.33,7.58,21.77-5.03,2.09-13.59,2.72-13.4,10.31-.68,10.9.26,21.85.56,32.79-5.78.63-11.63.75-17.26,2.32-8.48,15.08-4.39,33.3-5.52,49.83-95.92,0-191.84-.08-287.76-.2.41-30.66.41-61.36.83-92.07.53-8.54.56-19.37,7.99-24.84Z"/>
  <path class="cls-3" d="m1476.2,692.92c.86-1.46,2.55-4.41,3.42-5.86,2.03,77.58,0,155.28.49,232.94,2.14.59,6.45,1.81,8.63,2.4,32.12,8.11,66.16,11.3,98.06.24,3.94-4.8,4.8-11.1,4.84-17.2.6-72.78.08-145.64,1.76-218.38,2.89,2.52,4.13,5.79,3.72,9.76.26,127.26.75,254.55,1.13,381.81-.56,65.58,1.88,131.27-.08,196.73-12.53,18.03-30.47,34.13-52.2,37.31-22.89,2.79-44.32-9.45-61.88-23.54-5.18-4.64-13.17-8.97-11.33-17.52,1.31-192.91,1.84-385.82,3.45-578.69Zm6.64,244.36c-1.69,11.61-1.73,23.38-1.58,35.11.53,91.79.19,183.54,1.09,275.29.56,12.83.23,27.43,8.97,37.63,17.41,21.92,49.91,26.84,73.4,13.34,12.68-10.67,28.37-23.81,26.31-42.9.23-99.78.45-199.52.83-299.26.15-9.64-.26-19.48-4.09-28.38l-3.83,6.1c-33.62,3.11-67.36,3.11-101.1,3.07Z"/>
  <path class="cls-3" d="m1489.03,688.55c10.4-.04,20.79.08,31.22-.39-.11,32.32.45,64.63-.34,96.95-9.46-.87-18.95-1.42-28.41-1.5-5.7-31.33-1.54-63.41-2.48-95.06Z"/>
  <path class="cls-3" d="m1528.55,688.63c5.82-.08,11.67-.08,17.53,0-.75,32.75-.34,65.5-.34,98.25-5.74-.16-11.45-.51-17.15-.98.49-32.39.83-64.87-.04-97.26Z"/>
  <path class="cls-3" d="m1554.63,688.15c9.87.51,19.78.43,29.68.47.08,31.17-.38,62.35-.3,93.52-5.07.75-10.13,1.46-15.16,2.13-4.92.31-9.79.55-14.67.79.49-32.32.34-64.59.45-96.91Z"/>
  <path class="cls-3" d="m2080.13,748.14c11.63-.08,23.64-1.18,32.95-9.37,6.98,17.24,26.01,10.23,39.82,10.98.53,30.19.23,60.38.41,90.57-25.86,7.2-50.74,18.22-73.1,33.61.08-41.92.08-83.84-.08-125.8Z"/>
  <path class="cls-3" d="m945.85,752.83c20.42-2.16,40.98-1.81,61.51-2.44-.41,2.16-1.24,6.49-1.61,8.66-17.34,2.6-34.98.28-52.31,2.56-9.42,1.77-13.51,12.2-13.59,21.26-1.46,43.57.08,87.22-1.61,130.8l-4.24,1.93-2.33-2.52c-1.05-44.56-.15-89.19-.45-133.79-.19-10.19,2.25-26.02,14.64-26.45Z"/>
  <path class="cls-3" d="m954.78,777.62c17-2.56,34.19-2.48,51.34-2.76.08,64.36.19,128.71.26,193.07-13.17-.04-26.34,0-39.52-.08-1.65-5.9-4.95-10.9-7.99-16.06-2.29-10.94,1.31-22.75-3.23-33.26-4.28-10.51-2.48-22.12-2.55-33.18,1.16-35.9-.23-71.87,1.69-107.73Z"/>
  <path class="cls-3" d="m1271.52,785.3c3.53-.24,7.09-.47,10.66-.71.15,30.15.41,60.34.26,90.53-1.09-11.18-2.7-22.28-3.94-33.42-2.93,10.59-.3,28.77-14.19,30.74-42.18,4.41-84.74,3.58-127.11,4.09-15.01.55-30.13-2.01-43.31-9.76,45.75-1.1,91.57.16,137.35-.2,14.41-1.54,32.91-5.47,37.98-21.96,4.28-19.41,1.61-39.6,2.29-59.32Z"/>
  <path class="cls-3" d="m1531.44,839.38c6.49-2.05,8.82,8.94,2.59,10.71-6.79,2.76-9.38-9.41-2.59-10.71Z"/>
  <path class="cls-3" d="m2080.47,895.86c21.69-17.28,46.72-29.28,72.84-37.2-.08,20.03-2.63,42.75,11.86,58.53,16.62,18.74,43.19,10.16,64.62,12.28-9.38,18.26-24.73,34.68-45.11,37.71-36.63,5.67-72.09-10.39-104.37-26.69-.04-14.88-.15-29.76.15-44.64Z"/>
  <path class="cls-3" d="m1546.6,871.93c4.54-3.62,9.08,4.76,4.84,7.91-4.62,3.62-9.23-4.8-4.84-7.91Z"/>
  <path class="cls-3" d="m1520.48,894.68c6.91-2.76,11.3,9.88,3.53,11.57-6.76,2.16-10.13-9.29-3.53-11.57Z"/>
  <path class="cls-3" d="m1262.33,907.4c18.28,10.55,12.05,34.48,15.24,52.47-3.38,1.34-6.68,2.64-9.98,3.98l-1.69.67c-.19-19.13,1.31-38.46-3.57-57.11Z"/>
  <path class="cls-3" d="m606.08,1004.93c3.42-8.62,11.63-15.55,20.9-14.72,32.01.55,64.1.47,96.11,2.36-.08,4.8-.11,9.56-.15,14.37-30.77-.04-61.55.59-92.28-.59-7.36-.31-13.21,5.98-16.29,12.4-6.3,13.23-4.58,28.54-5.07,42.83-2.4-.31-7.21-1.02-9.61-1.38-1.13-18.58-.19-37.79,6.38-55.26Z"/>
  <path class="cls-3" d="m1265.82,1025.52c5.67.04,11.3,0,17-.24l-.53.55c-1.13,1.14-3.38,3.46-4.5,4.64-5.93,28.3,3.3,59.83-10.51,86.08-10.4,10.27-26.83,7.99-40.04,7.75-33.78-3.82-67.74-2.72-101.63-3.35-18.69,0-36.55-7.24-51.75-18.3,52.24,1.5,104.52.91,156.75,1.97,12.38.51,26.12-5.9,30.81-18.62,8.29-18.97,3.04-40.42,4.39-60.5Z"/>
  <path class="cls-3" d="m575,1076.22c19.25.2,38.5.2,57.72.04v55.07c-19.21-.04-38.47-.04-57.68.04-.08-18.38-.08-36.76-.04-55.15Z"/>
  <path class="cls-3" d="m542.32,1148.56c40.87-.12,81.74-.04,122.6-.04-.04,2.91-.11,8.7-.15,11.61-40.08-.2-80.2.55-120.24-.35-.56-2.79-1.65-8.42-2.21-11.22Z"/>
  <path class="cls-3" d="m753.33,1493.68c-32.42-56.88-64.81-113.71-97.23-170.59-3.75-6.1-3.57-13.54-3.68-20.47-.23-42.55-1.16-85.1-1.84-127.65-8.35.74-17.87-1.32-26.11.14.73-.01,1.45-.03,2.18-.03,4.65,0,5.94,5.15,3.88,8.06-.15.39-.33.77-.54,1.15-.88,1.57-.93,1.64-.29.08-.57,1.4-1.56,2.32-2.7,2.83.87,2.42,0,5.47-2.64,6.44-1.64,32.98-.32,66,.82,98.99,1.11,32.26.59,64.37.54,96.63-.01,6.44-10.01,6.43-10,0,.05-32.26.58-64.37-.54-96.63-1.14-32.87-2.45-65.79-.84-98.66h-8.44c-5.56,0-6.31-7.45-2.27-9.49-2.17-2.76-.06-7.84,4.05-8.22,2.09-.19,4.19-.31,6.29-.39.03,0,.05-.02.08-.02.32-.05.63-.07.95-.11-18.14-1.55-36.4-.11-54.61-1.05-1.39,48.14,1.13,96.59-1.76,144.57-31.56,56.52-65.37,111.83-97.84,167.92-5.85,11.14-16.74,21.81-12.61,35.78,4.84,17.44,24.39,22.95,39.55,25.31,68.79,0,137.61-.63,206.4-.91,11.75.24,22.97-3.86,34.53-5.51,9.76-1.57,20.42-4.49,26.72-13.19,6.64-10.67,3.72-24.68-2.06-34.99Zm-151.14-289.45c.26-.34.52-.67.78-1.01.45-.49.99-.83,1.61-1.03.6-.31,1.24-.46,1.93-.43.27-.01.53.01.78.05.14-.02.27-.04.41-.05.69-.03,1.33.12,1.93.43.62.2,1.16.55,1.61,1.03.49.45.83.99,1.03,1.61.31.6.46,1.24.43,1.93,0,.26-.07.56-.1.79-.04.32-.04.51-.12.77-.17.4-.34.8-.5,1.19l-.02.04c-.21.39-.5.76-.82,1.07-.18.17-.19.16-.55.44-.23.18-.36.31-.58.43-.22.13-.99.45-1.24.52-.28.08-1.08.17-1.37.19-.04,0-.08,0-.12,0-.2,0-1.19-.14-1.38-.19-.05-.01-.09-.02-.14-.04-.37-.12-.9-.35-1.25-.53-.1-.05-.19-.11-.28-.17-.42-.3-.86-.62-1.24-.98-.62-.62-1.05-1.36-1.29-2.21-.06-.44-.12-.89-.18-1.33,0-.9.23-1.74.68-2.52Zm121.83,326.14c-22.44.35-44.88-.71-67.21,2.56-33.81.12-67.78,1.57-101.44-2.36-26.46-.04-53.48,3.03-79.56-2.36-9.64-7.99-16.32-23.1-9.19-35.15,11.75-24.8,28.3-46.72,41.06-70.97,27.17,2.76,54.3-1.81,81.47-.55,35.2,1.85,70.36-6.14,105.53-1.42,6.76,1.3,9.83,8.38,13.59,13.62,13.36,21.65,26.61,43.57,36.85,67.07,6.23,14.56-7.21,29.91-21.09,29.56Z"/>
  <path class="cls-3" d="m1512.75,1228.39c12.35-1.61,18.35,14.52,7.13,21.06-12.87,1.57-11.26-13.19-7.13-21.06Z"/>
  <path class="cls-3" d="m1529.26,1334.04c5.22.28,10.43.59,15.69.91-.26,11.1.41,22.24-.71,33.3-4.35,1.61-8.78,2.76-13.32,3.54-1.76-12.52-1.88-25.15-1.65-37.75Z"/>
  <path class="cls-3" d="m600.3,1442.79c5.18-1.54,10.66-7.12,16.02-3.11,3.83,5.43-2.48,12.6-8.18,10.71-3.87-.63-5.29-5.12-7.84-7.6Z"/>
  <path class="cls-3" d="m524.79,1456.09c1.69-8.27,10.43-7.12,16.51-7.95,1.76,6.81,1.61,16.02-6.3,18.34-6.38,3.42-14.34-3.66-10.21-10.39Z"/>
  <path class="cls-3" d="m1075.17,1563.28c1.73,0,5.22.04,6.94.04-1.65,7.79,2.29,19.92-7.06,23.34-.26-7.79-.11-15.63.11-23.38Z"/>
  <path class="cls-3" d="m1101.07,1563.2c31.97-.16,63.95.08,95.92.08-.11,6.97-.19,14.01-.3,21.06-32.2-.08-64.36.12-96.52.28.3-7.16.6-14.29.9-21.41Z"/>
  <path class="cls-3" d="m1216.35,1563.28c219.58.43,439.19.83,658.8,1.06,0,5.75,0,11.53.08,17.36-219.73,1.02-439.41,1.5-659.14,2.48.08-7.01.15-13.93.26-20.9Z"/>
  <path class="cls-3" d="m1894.33,1564.54c38.99-.31,78.02.2,117.05-.08-.04,5.59-.08,11.18-.11,16.81-38.92.12-77.83.24-116.75.43-.08-5.75-.15-11.45-.19-17.16Z"/>
  <path d="m2672.1,514.57c-158.82,1.1-317.79,1.57-476.68,2.09-10.58.47-21.95,0-31.45,5.63-9.27,6.02-10.96,18.46-11.18,28.93-.07,28.54.11,57.07.15,85.61-10.92.47-21.92,0-32.69,1.89-6.83,1.22-5.22,9.33-6.64,14.52-10.92-3.31-22.22-4.76-33.55-4.68.26-39.09-.26-78.17.23-117.26.79-13.54-6.57-26.69-17.64-33.38-13.25-7.91-29.05-7.36-43.8-7.71-141.18-.2-282.32-.12-423.5-.31-.94-16.93,2.96-34.72-2.29-50.97-6.94-3.98-15.12-2.24-22.63-2.83-1.28-13.93,4.77-31.53-6.87-41.92-1.31-21.33-3.9-45.9-20.9-60.3-11.37-10.43-27.25-10.47-41.47-10.75-101.4.04-202.8.12-304.2.2-15.27,1.22-32.2,5.12-42.22,18.38-8.89,11.02-9.68,26.21-9.79,40.03-.11,35.94-.15,71.87-.23,107.81-30.25.08-60.49.2-90.7-.28-27.51,1.34-50.06,29.28-48.6,57.74.9,62.7.41,125.37.6,188.07-24.32.94-48.64,1.26-72.92,2.56-9.61,10.16-16.51,23.14-16.32,37.79-.68,45.82,0,91.63-.3,137.49-20.23,1.61-11.86,26.69-13.47,40.78-5.33,0-10.62,0-15.95.04-.49-5.67,0-11.53-1.65-17-2.4-6.53-9.68-4.92-14.9-5.39-32.57.39-65.19-.71-97.72.55-10.02,4.01-4.99,17.36-6.57,25.86-13.06.31-26.31-1.3-39.22,1.1-5.48,4.25-4.13,11.85-5.1,18.03-31.75-.35-63.46-1.77-95.21-2.01-13.02-.71-25.29,7.4-31.49,19.17-11.15,19.96-10.21,44.12-10.1,66.48-7.96,1.34-20.23-3.35-24.43,6.3-1.88,22.04-.26,44.28-.79,66.4-9.53.47-19.66-1.46-28.75,2.44-5.07,10.08-2.81,22.32-2.21,33.26,2.4,7.64,11.03,5.59,16.85,7.2-.34,43.61-.38,87.26-.64,130.88.56,5.71-1.88,10.86-4.73,15.51-34.83,58.96-69.24,118.24-104.1,177.13-6.76,15.82-3.3,36.61,9.83,47.75,13.74,11.57,31.97,15.35,49.16,16.3,75.13-.59,150.34-.51,225.43-1.89,14.49-7.01,32.39-7.32,43.8-20.23,12.83-14.76,10.66-37.94,2.03-54.36-31.94-55.93-63.8-111.9-95.73-167.84-3.15-4.88-3.83-10.82-3.72-16.53-.64-42.2-1.43-84.39-1.91-126.55,4.62-1.73,12.01-.67,13.17-7.24,1.09-10.79,2.63-22.75-1.69-32.87-8.86-4.8-19.44-2.24-29.05-2.95-.56-22.51,1.09-45.15-.75-67.54-5.33-7.91-15.46-4.05-23.23-5.2-.04-13.03,0-26.45,5.33-38.5,30.66.83,61.32.16,91.98.43,2.81,4.33,3.57,12.24,10.13,11.73,11.67.91,23.38.24,35.09.35,1.43,8.03-2.96,20.98,6.72,24.48,28.75,1.57,57.64.12,86.46.71,8.11-.39,16.74,1.26,24.39-2.32,2.29-5,2.89-10.51,4.05-15.82,22.93.04,45.86.67,68.79-.16,7.69.83,8.26-8.82,10.32-14.29,13.17-.08,26.34-.04,39.55-.04.08,168.19,1.35,336.38.6,504.53,3.57,23.93,29.01,33.14,49.35,32.04-.56,7.05-1.05,14.09-1.58,21.14-32.65.2-65.34-.31-97.95.55-7.51-.63-13.32,10.04-7.58,15.71,3.11,5.27,9.98,3.5,14.9,4.17,375.39-1.5,750.75-2.68,1126.1-4.01,12.57-.51,25.33,1.1,37.75-1.26,9.19-4.01,5.82-19.01-3.94-18.66-31.19-.87-62.41.08-93.63-.08.19-5.47.38-10.9.64-16.33,15.35,1.38,30.96-5.08,41.43-16.93,10.09-12.2,7.96-29.36,8.03-44.28,0-181.14-.3-362.32-.3-543.46,35.54,16.93,75.51,33.81,114.95,22.75,25.18-6.81,43.27-29.21,52.69-53.73,7.92-.24,15.87-.47,23.91-.59.49,10.12-5.33,29.76,9.91,29.76,103.91-.39,207.83-2.05,311.74-2.72,14.04.16,9.49-19.13,11.93-28.62,19.63-.47,39.29.67,58.88-.63,13.92-1.14,31.11-7.95,33.62-24.36.26-111.63-.41-223.42.34-335.12,3.26-20.47-4.43-47.51-26.19-52.35Zm-1918.76,979.11c5.78,10.31,8.71,24.33,2.06,34.99-6.3,8.7-16.96,11.61-26.72,13.19-11.56,1.65-22.78,5.75-34.53,5.51-68.79.28-137.61.91-206.4.91-15.16-2.36-34.71-7.87-39.55-25.31-4.13-13.97,6.76-24.64,12.61-35.78,32.46-56.09,66.27-111.39,97.84-167.92,2.89-47.98.38-96.44,1.76-144.57,18.22.94,36.47-.5,54.61,1.05,3.15-.41,6.29-.58,9.46-.63,8.24-1.46,17.75.6,26.11-.14.68,42.55,1.61,85.1,1.84,127.65.11,6.93-.08,14.37,3.68,20.47,32.42,56.88,64.81,113.71,97.23,170.59Zm-88.42-345.16c-.04,2.91-.11,8.7-.15,11.61-40.08-.2-80.2.55-120.24-.35-.56-2.79-1.65-8.42-2.21-11.22,40.87-.12,81.74-.04,122.6-.04Zm-32.2-72.27v55.07c-19.21-.04-38.47-.04-57.68.04-.08-18.38-.08-36.76-.04-55.15,19.25.2,38.5.2,57.72.04Zm90.22-69.32c-30.77-.04-61.55.59-92.28-.59-7.36-.31-13.21,5.98-16.29,12.4-6.3,13.23-4.58,28.54-5.07,42.83-2.4-.31-7.21-1.02-9.61-1.38-1.13-18.58-.19-37.79,6.38-55.26,3.42-8.62,11.63-15.55,20.9-14.72,32.01.55,64.1.47,96.11,2.36-.08,4.8-.11,9.56-.15,14.37Zm42.33,12.16c-9.49-.04-18.95-.08-28.45-.24.08-15.27.04-30.54.04-45.78,9.46-.08,18.91-.08,28.37-.12.08,15.35.04,30.74.04,46.13Zm106.84,25.23c-30.36.04-60.68.2-91.01-.08.15-32.59-.23-65.18.19-97.77,30.32.35,60.68-.24,91.01.39-.68,32.47-.49,64.99-.19,97.46Zm45.3-114.7c8.74-.04,17.45-.04,26.19.08.08,7.4.15,14.84.26,22.28-8.86.55-17.71.59-26.57.16.08-7.52.11-15.04.11-22.51Zm33.81,96.71c-21.43.28-42.82.16-64.25.08-.04-19.13,0-38.22-.04-57.35,21.43-.08,42.86-.2,64.29.08-.23,19.05-.19,38.1,0,57.19Zm15.5-14.05c-.11-9.76-.11-19.44-.11-29.17,13.21-.04,26.46-.04,39.67,0,0,9.68.04,19.41.04,29.09-13.21.04-26.42.04-39.59.08Zm.15-44.44c-1.65-5.9-4.95-10.9-7.99-16.06-2.29-10.94,1.31-22.75-3.23-33.26-4.28-10.51-2.48-22.12-2.55-33.18,1.16-35.9-.23-71.87,1.69-107.73,17-2.56,34.19-2.48,51.34-2.76.08,64.36.19,128.71.26,193.07-13.17-.04-26.34,0-39.52-.08Zm38.88-208.81c-17.34,2.6-34.98.28-52.31,2.56-9.42,1.77-13.51,12.2-13.59,21.26-1.46,43.57.08,87.22-1.61,130.8l-4.24,1.93-2.33-2.52c-1.05-44.56-.15-89.19-.45-133.79-.19-10.19,2.25-26.02,14.64-26.45,20.42-2.16,40.98-1.81,61.51-2.44-.41,2.16-1.24,6.49-1.61,8.66Zm1024.36-247.98c10.58.75,27.88,2.01,29.57,16.1,1.05,152.09.86,304.22.79,456.32-102.49.91-204.98,1.38-307.5,1.38-1.35-158-1.54-316.03-2.21-474.07,93.11.04,186.25-.2,279.36.28Zm-297.37-.08c1.16,344.14,3.38,688.31,4.28,1032.49-131.42.08-262.85-1.06-394.27-1.02-.71-263.48-1.65-526.97-2.29-790.49-.56-80.42.45-160.91-1.09-241.32,47.21-.2,94.46-.2,141.67.12-.41,2.24-1.24,6.81-1.65,9.09-12.68,5.55-27.25,9.64-35.65,22.04-5.93,6.69-4.73,16.22-5.25,24.56-10.51,1.02-22.55-2.83-31.9,3.66-1.8,21.29-2.44,43.22-.41,64.55,10.21,4.33,21.8,1.61,32.57,3.35.56,13.66-.86,27.47,1.09,41.05,2.06,7.44,9.98,8.23,16.02,9.88-.56,195.51-1.99,390.98-2.85,586.44.41,5.04-.75,11.22,3.08,15.19,16.06,17.16,35.65,30.74,57.04,39.48,1.05,16.3-3.64,34.24,4.73,49.12,6.57,12.75,19.03,21.53,31.97,25.78,24.96,1.97,49.99-1.26,75.02.16,27.21,3.11,50.36-23.54,52.01-50.74.04-256.01.34-512.05.26-768.1,0-6.22-.26-14.13-7.13-16.3-10.55-1.34-21.2-.28-31.79-.2,4.58-27.24-21.28-42.08-42.82-46.45-.26-3.11-.79-9.41-1.05-12.56,46.12-.16,92.28-.35,138.4.2Zm-432.1,516.78c5.52-2.16,12.68-4.57,12.98-12.08,1.2-16.37,1.76-33.1-1.58-49.2-4.05-1.22-8.11-2.44-12.12-3.62.19-58.88-.56-117.73-.41-176.61,5.07-3.03,12.38-4.21,14.07-11.14,1.39-15.23,2.4-31.21-2.36-45.93-2.96.04-8.82.16-11.78.24-.3-13.82-.34-27.59-.34-41.37-.3-47.27.19-94.59-1.13-141.86,8.18-.08,16.36-.08,24.54-.12.68,31.57.68,63.21.41,94.78,1.28,174.76.68,349.57,1.65,524.33,1.05,76.56.6,153.12.71,229.71.45,49.2.38,98.4.49,147.61-7.69-.04-15.35-.04-23-.04.11-63.37-1.99-126.7-.71-190.04-1.16-108.17-1.28-216.45-1.43-324.65Zm-46.31-197.08c1.2,15.67-16.17,17.79-27.21,18.07-41.39-.12-82.75-.43-124.1-.51-7.96.35-17.68-2.01-21.13-10.39-2.59-12.75-.9-25.82-.79-38.69.68-43.14.45-86.28,1.88-129.38,7.81-2.48,15.95-3.82,24.17-3.23,45.11,1.69,90.33,1.42,135.44,3.94,10.73-.2,13.02,13.58,12.42,22.36-.41,45.93.34,91.91-.68,137.84Zm-48.15-179.49c-1.05-16.1.38-32.43-2.48-48.34-1.01-6.81-8.07-8.62-12.72-11.93-.08-15.19.19-30.35.56-45.5,29.91.16,59.78.39,89.69.51.56,60.62.53,121.23,1.05,181.85-2.59.08-7.77.24-10.36.28-2.48-23.93,8.11-55.42-14.6-71.6-15.87-7.64-34.23-3.66-51.15-5.27Zm66.27,94.78c8.22.31,16.44.55,24.69.75.11,6.73.26,13.46.41,20.19-8.71,0-17.41,0-26.08-.04.26-6.97.56-13.93.98-20.9Zm-81.29-218.97c.23-5.55.49-11.1.79-16.65,43.57.04,87.14.16,130.71.04,0,6.02-.04,12.08-.08,18.15-43.79-.83-87.67.59-131.42-1.54Zm1.16-37.39c.41-30.66.41-61.36.83-92.07.53-8.54.56-19.37,7.99-24.84,4.77-1.06,9.68-1.18,14.6-1.26,90.14-.16,180.32-.39,270.46-.71,7.32.04,14.71.24,21.92,2.05,7.36,4.33,6.27,14.33,7.58,21.77-5.03,2.09-13.59,2.72-13.4,10.31-.68,10.9.26,21.85.56,32.79-5.78.63-11.63.75-17.26,2.32-8.48,15.08-4.39,33.3-5.52,49.83-95.92,0-191.84-.08-287.76-.2Zm444.67,150.36c8.07.04,16.17-.04,24.32-.08.23,108.76-.11,217.51.04,326.27-.3,105.29.26,210.62-.34,315.87.3,22.75.38,45.54.11,68.29.19,18.85-14.67,38.14-33.47,37.75-26.08.63-52.2.55-78.32.2,4.84-6.61,9.94-13.23,12.01-21.45-.79-11.93-.71-23.89-.11-35.82,21.17-8.7,40.23-23.77,52.58-43.97,7.73-12.95,4.13-28.81,4.84-43.22-.19-184.96-1.5-369.88-1.84-554.84,6.76-.87,13.51-1.97,20.15-3.62-.6-15.11-.45-30.27.04-45.38Zm.19-16.33c-.04-12.28.04-24.56.11-36.84,8.07-.39,16.14-.67,24.24-.79-.08,12.48-.15,24.96-.38,37.43-7.99.04-16.02.08-23.98.2Zm-92.96,744.6c-4.35,1.61-8.78,2.76-13.32,3.54-1.76-12.52-1.88-25.15-1.65-37.75,5.22.28,10.43.59,15.69.91-.26,11.1.41,22.24-.71,33.3Zm-60.16-79.12c-5.18-4.64-13.17-8.97-11.33-17.52,1.31-192.91,1.84-385.82,3.45-578.69.86-1.46,2.55-4.41,3.42-5.86,2.36.35,7.06,1.1,9.42,1.5,10.4-.04,20.79.08,31.22-.39,2.06.12,6.19.35,8.29.47,5.82-.08,11.67-.08,17.53,0,2.14-.12,6.42-.35,8.56-.47,9.87.51,19.78.43,29.68.47,2.29-.39,6.83-1.18,9.08-1.57,2.89,2.52,4.13,5.79,3.72,9.76.26,127.26.75,254.55,1.13,381.81-.56,65.58,1.88,131.27-.07,196.73-12.53,18.03-30.47,34.13-52.2,37.31-22.89,2.79-44.32-9.45-61.88-23.54Zm-17.08-621.32c-7.58,2.01-9.83-4.72-9.49-11.3,53.06-1.06,106.17-1.3,159.27-2.09-.04,4.53-.04,9.05-.04,13.58-49.91-.2-99.82-.08-149.74-.2Zm150.37-29.95c-53.03.94-106.05,1.22-159.08,1.77.11-25.27-.64-50.58.38-75.85,53.33.87,106.62-.28,159.94.98-.64,24.36-.53,48.73-1.24,73.09Zm-178.48-16.65c-6-.35-11.97-.71-17.94-1.02.11-12.2.23-24.36.34-36.57h17.49c.04,12.52.08,25.03.11,37.59Zm161.26-75.02c-21.58,3.15-43.38,1.14-65.07,1.57-21.88-.43-43.83,1.22-65.6-1.57,27.25-13.15,58.54-11.06,87.7-8.7,14.52,1.61,29.16,3.42,42.97,8.7Zm-21.05-92.62c.04,22-.23,43.97-.11,65.97-27.51-3.39-55.24-6.53-82.86-2.28.15-20.63.26-41.21.53-61.8,27.47-.63,54.98-1.38,82.45-1.89Zm-24.81-41.49c.04,8.46.07,16.96.15,25.47-11.78.28-23.57.51-35.35.67-.23-8.54-.41-17.08-.56-25.62,11.9-.24,23.83-.43,35.76-.51Zm-391.94-34.24c0-9.56,1.09-20.63,8.71-27.12,10.36-9.01,24.54-8.58,37.23-9.13,96.45-.08,192.86-.2,289.3-.24,10.85.94,22.85.71,32.27,7.12,12.91,11.45,13.85,30.66,15.31,47.04-2.7,0-8.11.08-10.81.12-.94-12.71-1.35-27.79-11.78-36.45-7.84-7.52-18.99-6.89-28.86-6.85-96.33.51-192.71.43-289.04,1.06-20.08-.24-29.12,22.36-29.05,40.38,0,66.17-1.43,132.37-1.88,198.54h-12.12c0-71.48.64-143,.71-214.48Zm25.71,232.94c.3,13.3.68,26.61,1.09,39.91-15.09-.12-30.13-.43-45.18-.79-.41-13.38-.68-26.73-.83-40.07,14.97-.16,29.95.31,44.92.94Zm-129.85-100.41c28.97-.16,57.94-.08,86.91.12-.08,5.47-.15,10.98-.23,16.49-38.02-.31-76.03-.35-114.01-1.34,6.57-8.9,15.91-16.53,27.32-15.27Zm85.98,34.72c.26,15.51.19,31.06-.04,46.56-6.04,1.46-15.65-1.54-17.41,7.01-1.39,16.69.26,33.5.26,50.26-19.25,1.34-44.17-6.06-58.32,11.85-6.08,17.95-2.36,37.91-3.79,56.68-12.95.12-25.89.16-38.84.35-.68-58.02-.34-116-.53-174.02,39.55.2,79.11.75,118.66,1.3Zm-118.21,190.27c12.98-.16,25.93-.16,38.92.28-.3,14.37-.49,28.77-.45,43.14-12.8.83-25.63,1.18-38.43,1.26-.23-14.92-.26-29.8-.04-44.68Zm.15,62.27c12.61-.12,25.18-.35,37.79-.43,1.13,17.67-4.43,37.24,4.95,53.3,5.18,9.72,16.21,11.77,25.03,16.3,45.75-1.1,91.57.16,137.35-.2,14.41-1.54,32.91-5.47,37.98-21.96,4.28-19.41,1.61-39.6,2.29-59.32,3.53-.24,7.09-.47,10.66-.71.15,30.15.41,60.34.26,90.53.79,29.56.34,59.16.45,88.76-5.1,0-10.25-.04-15.31-.04l-1.69.67c-.19-19.13,1.31-38.46-3.57-57.11l-.45-.43c-4.54-11.65-14.67-20.31-27.06-20.07-46.23-1.02-92.51.24-138.78-.35-13.06-1.65-26.83,6.53-32.39,18.93-4.5,16.14-2.25,33.3-3.3,49.91-11.37.55-22.74.79-34.08.75.23-52.86-.56-105.69-.15-158.51Zm271.21,184.17c-.08,8.93-.11,17.87-.19,26.81-10.36-.24-20.68-.51-31-.75-.15-8.66-.26-17.32-.34-25.94,10.51-.12,21.02-.12,31.52-.12Zm-48.64,76.83c.07,9.01.26,19.96-7.73,25.7-10.43,3.9-21.88,2.32-32.76,2.52-43.23-2.01-86.5-.51-129.73-2.2-2.18-8.42-3.38-17.12-2.93-25.82.9-47.23,1.73-94.47,3.3-141.62-.04-10.79,12.46-13.38,20.6-12.99,43.8.31,87.59-.63,131.39.24,14.97-1.69,17.79,16.57,17.79,28.22.11,42-.15,83.96.08,125.96Zm-222.28-83.8c11.22-.39,22.4-.79,33.62-1.1-.11,15.71-.34,31.41-.6,47.15-11.03.35-22.07.67-33.06.98-.04-15.71-.08-31.37.04-47.04Zm24.21,567.16c-10.51.91-25.63-4.92-23.3-18.66-.3-161.15-.64-322.29-.83-483.4,10.81-.16,21.58-.31,32.39-.24,1.28,21.1-6.34,50.15,14.97,62.98,52.24,1.5,104.52.91,156.75,1.97,12.38.51,26.12-5.9,30.81-18.62,8.29-18.97,3.04-40.42,4.39-60.5,5.67.04,11.3,0,17-.24l-.53.55c1.5,10.98,1.61,22.08,1.5,33.18.34,161.15,1.39,322.29,1.58,483.44-78.25-.28-156.49,0-234.74-.47Zm24.43,44.68c-.26-7.79-.11-15.63.11-23.38,1.73,0,5.22.04,6.94.04-1.65,7.79,2.29,19.92-7.06,23.34Zm121.63-2.32c-32.2-.08-64.36.12-96.52.28.3-7.16.6-14.29.9-21.41,31.97-.16,63.95.08,95.92.08-.11,6.97-.19,14.01-.3,21.06Zm19.4-.16c.08-7.01.15-13.93.26-20.9,219.58.43,439.19.83,658.8,1.06,0,5.75,0,11.53.08,17.36-219.73,1.02-439.41,1.5-659.14,2.48Zm795.18-2.91c-38.92.12-77.83.24-116.75.43-.08-5.75-.15-11.45-.19-17.16,38.99-.31,78.02.2,117.05-.08-.04,5.59-.08,11.18-.11,16.81Zm-82.75-318.94c41.43,3.07,83.05,1.65,124.52,3.11,3.75-.12,6.91,1.3,9.49,4.29-44.58,1.61-89.24-1.1-133.79-.04-11.71-.87-11.75,18.58-.15,18.07,43.46,1.46,87.03.39,130.48,1.69.56,2.09,1.73,6.26,2.29,8.34-44.36.04-88.68-2.24-133.04-1.81-5.85-.59-10.88,4.29-9.23,10.59,0,7.56,8.29,6.89,13.4,7.56,40.15,1.89,80.35,1.34,120.54,2.52,3.68-.24,6.68,1.18,9.04,4.33-41.81,1.1-83.61-.35-125.42-.51-5.89.28-12.53-.98-17.23,3.66-.53,4.09-.86,8.23-.98,12.4,16.89,4.72,34.49,2.44,51.75,3.11,29.35.55,58.73-.08,88.08,1.1.98,1.65,2.89,4.92,3.87,6.53-40.61,1.06-81.29-.12-121.89-.12-5.25.16-10.77-.2-15.61,2.24-3.23,4.05-1.35,9.8-1.8,14.6,45.48,4.96,91.46,1.34,137.13,2.68.04,3.03.11,9.13.15,12.16-39.97-.91-79.9-2.4-119.86-3.42-5.59.59-12.87-1.61-17.15,3.15-.64,4.37-.94,8.74-.9,13.15,44.36,6.57,89.62,2.32,134.2,6.34,1.5,1.1,4.5,3.27,5.97,4.37-40.72.75-81.51-.75-122.23-1.69-6.12.04-12.12,1.14-18.13,2.13.3,5.04-.6,10.63,2.21,15.15,11.37,2.64,23.15,1.61,34.75,2.05,33.62-.04,67.25,1.89,100.87,1.81.11,2.01.26,5.98.34,7.95-42.56-.2-85.11-2.32-127.67-2.28-6.72-1.46-10.4,5.04-14.34,9.25,3.68,3.31,6.53,9.41,12.23,9.13,42.03,1.89,84.21.75,126.21,2.99,1.39.98,4.24,2.91,5.67,3.86-43.31,1.3-86.69-.12-129.96-.39-4.84.43-11.93,1.1-12.53,7.64-2.18,7.71,6.68,11.53,12.57,10.98,42.71,1.06,85.49-.28,128.2,1.77.23,9.84.3,19.68.3,29.52-.68,9.21,1.09,18.89-1.54,27.87-4.73,11.61-18.54,13.97-29.2,13.82-91.64-.28-183.25-.24-274.89-.43-.71-179.8-1.73-359.61-2.25-539.41,23.79-.12,47.55-.75,71.34-.79,78.77-.24,157.58-.43,236.35-.59,0,10.04,0,20.07.04,30.15-42.74.04-85.45-.67-128.2-.43-6.34-.94-14.11,3.31-12.8,11.1,2.81,9.01,13.32,7.05,20.42,7.87,40.04.08,80.12.2,120.2.43.11,3.03.41,9.13.56,12.16-43.95-.75-87.85-3.11-131.76-3.39-8.11-1.14-10.4,8.58-10.13,15.15,6.94,2.01,14,3.86,21.32,3.82,35.01.71,70.06,1.93,105.12,2.6,5.93.67,13.21-.47,17.45,5.27-42.22.94-84.44-.79-126.62-1.73-6.04-.08-11.78,1.89-17.56,3.35-.08,6.42,1.65,16.18,9.79,15.23,43.49,1.46,87.1,1.42,130.6,3.11.75,1.81,2.25,5.47,3,7.32-43.08.31-86.13-2.16-129.17-2.16-5.07-.55-9.49.79-13.36,4.01-1.99,6.46-.08,13.82,7.36,14.13,39.48,1.89,79.07,1.81,118.59,2.4,5.85.28,12.5-.39,16.93,4.72-47.77,2.48-95.85-2.56-143.54,1.46.15,5.04-.86,10.51,1.84,15.08,4.99,1.61,10.28,1.73,15.54,1.93,41.28.43,82.6-.04,123.88,1.46,0,1.69-.04,5.12-.04,6.81-38.8-.2-77.61-.2-116.37-.55-7.28-.24-14.41,1.14-21.43,2.83.68,5.67-1.09,15.15,6.79,15.47,43.87,1.65,87.82.51,131.72,1.3-.11,3.03-.3,9.09-.41,12.12-40.04-1.02-80.08-1.97-120.09-3.39-6.08-.08-12.01.94-17.98,1.81.19,5.2.49,10.43.86,15.67,43.19,3.07,86.54,3.07,129.81,4.61,3.9-.12,7.13,1.42,9.68,4.64-43.34,1.34-86.73-1.3-130.03-1.18-7.17-1.42-10.51,5.31-14.11,10.31,4.2,3.31,8.11,8.74,14.04,8.27,40.19,1.02,80.38,1.26,120.58,2.24,4.28-.04,7.73,1.85,10.43,5.75-4.8,1.42-9.72,2.13-14.67,2.13-40-.35-80.01-2.44-120.01-1.69-10.96-.87-11,17.79-.41,17.4Zm203.66-607.7c7.02-.12,14.07-.24,21.17-.35-.04,26.21.45,52.43-.19,78.64-6.94.04-13.89.08-20.75.16-.38-26.14-1.01-52.31-.23-78.45Zm-22.52,16.33c1.61-.75,4.84-2.24,6.42-2.99.75,19.13,1.39,38.42-.45,57.51-1.2-1.5-3.64-4.45-4.88-5.94-1.84-16.06-2.44-32.47-1.09-48.57Zm-29.91-4.72c4.58-.04,9.19-.04,13.81-.08,1.31,21.1,1.2,42.2,1.65,63.33-5.14.39-10.25.83-15.31,1.22-.3-21.49-.19-42.98-.15-64.47Zm.38,81.91c11.63-.08,23.64-1.18,32.95-9.37,6.98,17.24,26.01,10.23,39.82,10.98.53,30.19.23,60.38.41,90.57-25.86,7.2-50.74,18.22-73.1,33.61.07-41.92.07-83.84-.08-125.8Zm104.55,219.05c-36.63,5.67-72.09-10.39-104.36-26.69-.04-14.88-.15-29.76.15-44.64,21.69-17.28,46.72-29.28,72.84-37.2-.07,20.03-2.63,42.75,11.86,58.53,16.62,18.74,43.19,10.16,64.62,12.28-9.38,18.26-24.73,34.68-45.11,37.71Zm402.3-29.28c-99.6,2.2-199.31,1.61-298.95,3.46.11-3.31.38-9.88.49-13.15,100.2-.39,200.44-1.06,300.67-1.42-.56,2.79-1.65,8.34-2.21,11.1Zm94.8-44.52c1.5,16.18-18.39,15.59-28.82,16.33-151.2.51-302.4,2.2-453.6,2.28-7.06-.39-15.31.63-20.57-5.39-8.18-7.09-9.08-18.74-8.97-29.01-.04-107.61-.3-215.19-.38-322.76-1.13-10.08,2.33-22.04,14.34-20.11,71.83-2.09,143.77,0,215.64-1.54,88.3-.83,176.68-.31,265.02-1.1,11.75-1.73,18.58,12.04,17.45,22.75,0,112.85.04,225.7-.11,338.55Z"/>
  <path d="m2204.09,561.37c142.16-1.89,284.42-.63,426.62-1.97,7.84.67,19.06-2.05,22.85,7.64,2.06,8.9,1.46,18.18,1.58,27.28-1.05,78.72,0,157.48-1.24,236.21,1.09,11.38-11.48,13.26-19.48,12.87-140.13-.39-280.3-.24-420.42-.83-11.63,2.28-17.3-9.45-16.14-19.92-.38-80.06-.19-160.08-.53-240.14.68-7.05-1.43-18.26,6.76-21.14Zm5.63,13.78c-.04,84.63.68,169.21,1.31,253.84,143.32.24,286.64.51,429.96.63.11-85.57,1.2-171.1,1.65-256.64-144.29.67-288.63.55-432.92,2.16Z"/>
  <path d="m2249.65,584.59c5.89-3.19,6.08,5.67,6.45,9.64.6,52.35.38,104.7,1.24,157.01,8.11-.35,16.66-.04,24.13-4.05,21.05-8.34,26.64-37.04,49.27-42.79,14.94-7.12,29.2,2.83,40.15,12.75,8.82,8.9,22.67,7.32,32.05.24,25.52-17.59,29.65-53.81,53.14-73.45,10.4-8.86,25.11-12.12,37.9-7.56,21.09,9.37,27.66,38.38,50.66,44.6,25.18,4.41,49.69-9.72,67.17-27.75,5.29-4.53,10.02-13.5,18.13-9.25-19.63,25.66-48.79,48.38-81.66,45.62-21.92-1.89-33.14-23.54-46.95-38.3-8.59-10.59-23.87-11.65-34.86-4.92-20.23,12.24-27.06,37.39-39.74,56.48-9.27,15.82-25.44,28.66-43.8,28.18-17.53-.31-26.46-24.05-44.7-20.78-15.16,1.77-24.02,15.82-32.65,27.28-11.3,15.39-30.29,22.24-48.3,22.2,0,10.31.08,20.7.23,31.06,123.62,2.01,247.31.16,370.89,2.24,1.01,1.65,3.08,5.04,4.09,6.69-127.03,1.65-254.18-.43-381.25-.24-2.55-4.8-1.43-10.63-1.84-15.86-.15-55.15-.6-110.29-.9-165.44.08-11.22-.9-22.55,1.13-33.61Z"/>
  <path d="m1772.22,605.97c-1.2-10.55,8.56-16.81,17.6-15.27,77.76-1.18,155.55-.51,233.35-.71,8.33-.87,17.15,5.79,17.11,14.96-.19,68.65-.56,137.25-.56,205.9-.19,7.71.08,15.63-1.91,23.14-2.81,8.54-12.5,5.51-19.03,6.42-76.56-.55-153.11-1.06-229.71-1.14-6.98.16-13.96-4.37-13.02-12.48-2.18-73.57-2.93-147.25-3.83-220.82Zm18.28,3.78c.6,69.95,2.1,139.85,3.19,209.76,75.96,1.06,151.99,1.06,227.94,1.81-.23-70.5.23-140.99.45-211.49-77.16-1.46-154.39-.39-231.58-.08Z"/>
  <path d="m1805.35,622.78c66.46-1.22,132.96.59,199.42-.63,3.9,20.7,1.54,41.92,2.33,62.86-.19,13.58,1.43,27.43-1.5,40.78-3.79,4.96-11.26,2.56-16.55,3.7-61.32.55-122.72-1.1-184.04,1.38-1.88-35.94-2.4-72.19.34-108.09Zm9.79,11.38c-.19,28.06-.08,56.09,0,84.15,60.31-.24,120.61-.55,180.88-.98-.11-27.67-.26-55.3-.38-82.93-60.19-.28-120.35-.08-180.51-.24Z"/>
  <path d="m1146.29,679.38c31.22-9.96,67.55,4.01,85.41,32.59,26.08,37.9,11.37,96.67-28.75,116.71-24.47,13.46-55.84,11.53-78.66-4.88-24.51-16.85-38.2-49.28-33.06-79.67,4.39-30.39,26.83-56.68,55.05-64.75Zm-43.38,76.64l-.08,3.23c.26,33.93,28.18,64.47,60.8,64.83l3.04.08c20.27.63,42.11-9.01,52.65-27.83,1.01-1.06,3.08-3.19,4.13-4.29,4.24-9.13,7.43-18.81,8.41-28.97.04-1.61.19-4.88.26-6.49,1.58-40.9-38.43-74.71-76.14-66.21-29.8,4.76-53.59,33.93-53.06,65.65Z"/>
  <path d="m1154.06,714.8c24.54-10.63,54.98,9.13,57,36.8,3.42,25.98-19.1,51.05-44.02,49.16-24.77-.31-45.3-26.49-40.15-52.11,2.44-15.31,13.32-28.54,27.17-33.85Zm10.4,10.94c-23.23,1.42-34.79,35.03-17.71,51.64,15.2,20.31,51.3,8.11,51.79-17.79,3.11-20.03-15.54-37.55-34.08-33.85Z"/>
  <path d="m2608.98,855.72c14.19-7.87,31.82,5.94,30.59,22.12.26,16.89-20.57,29.09-33.59,18.22-14.45-8.5-12.46-34.4,3-40.35Zm3.49,7.2c-7.51,3.07-11.41,13.86-6.91,21.14,4.32,10.08,19.48,10.51,24.24.59,7.58-11.49-5.18-27.47-17.34-21.73Z"/>
  <path d="m1966.46,874.85c8.97-7.09,25.11-3.66,26.95,9.25-7.24-3.03-14.71-11.3-22.63-5.67-13.89,8.5-10.88,37.12,6.79,38.38,5.63-2.13,10.81-5.31,16.29-7.87-2.25,10.94-14.41,15.63-23.68,11.38-16.81-7.2-18.5-35.11-3.72-45.46Z"/>
  <path d="m1880.33,871.85c10.66.16,28.67-1.77,30.02,13.62,2.29,15.23-14.37,17.83-24.99,17.24.04,6.14.08,12.28.11,18.46l-5.18-.2c0-16.37-.04-32.75.04-49.12Zm5.03,5.24c.04,6.77.08,13.58.11,20.39,8.26.04,21.05.04,19.78-12.36-2.81-9.21-12.72-7.44-19.89-8.03Z"/>
  <path d="m1150.34,915.94c22.07-4.76,46.01.16,64.32,14.09,24.77,18.07,38.05,52.67,30.32,83.56-5.82,25.78-24.69,47.47-48.19,56.88-28.3,11.69-62.71,5.27-84.81-16.85-20.11-18.97-29.38-49.83-22.4-77.38,6.87-30.31,31.82-54.28,60.76-60.3Zm-50.51,80.34l.04,3.27c1.8,33.81,31.64,65.18,64.62,61.8l1.43-.04c34.11,5.59,67.21-26.45,68.41-61.99l-.04-2.72c2.51-42.59-39.63-76.79-78.43-68.45-31.26,4.57-57.08,34.6-56.03,68.13Z"/>
  <path d="m1153.31,954.51c21.88-8.54,48.37,5.98,54.38,29.56,7.81,24.25-9.34,52.35-33.25,56.09-22.44,4.92-46.31-12.67-49.54-36.45-3.72-20.82,9.16-42.98,28.41-49.2Zm7.36,11.49c-20.72,2.91-31.04,30.86-18.73,48.18,12.08,21.37,48,16.53,53.59-7.99,7.21-21.92-13.1-46.33-34.86-40.19Z"/>
  <g>
    <path class="cls-29" d="m1518.53,412.59c11.9-.24,23.83-.43,35.76-.51.04,8.46.08,16.96.15,25.47-11.78.28-23.57.51-35.35.67-.23-8.54-.41-17.08-.56-25.62Z"/>
    <path class="cls-29" d="m1496.65,455.45c27.47-.63,54.98-1.38,82.45-1.89.04,22-.23,43.97-.11,65.97-27.51-3.39-55.24-6.53-82.86-2.28.15-20.63.26-41.21.53-61.8Z"/>
    <path class="cls-29" d="m1143.14,609.83c14.97-.16,29.95.31,44.92.94.3,13.3.68,26.61,1.09,39.91-15.09-.12-30.13-.43-45.18-.79-.41-13.38-.68-26.73-.83-40.07Z"/>
    <path class="cls-29" d="m1082.98,669.77c7.81-2.48,15.95-3.82,24.17-3.23,45.11,1.69,90.33,1.42,135.44,3.94,10.73-.2,13.02,13.58,12.42,22.36-.41,45.93.34,91.91-.68,137.84,1.2,15.67-16.17,17.79-27.21,18.07-41.39-.12-82.75-.43-124.1-.51-7.96.35-17.68-2.01-21.13-10.39-2.59-12.75-.9-25.82-.79-38.69.68-43.14.45-86.28,1.88-129.38Zm63.31,9.6c-28.22,8.07-50.66,34.36-55.05,64.75-5.14,30.39,8.56,62.82,33.06,79.67,22.82,16.41,54.19,18.34,78.66,4.88,40.12-20.03,54.83-78.8,28.75-116.71-17.86-28.58-54.19-42.55-85.41-32.59Z"/>
    <path class="cls-29" d="m1025.97,735.35c12.98-.16,25.93-.16,38.92.28-.3,14.37-.49,28.77-.45,43.14-12.8.83-25.63,1.18-38.43,1.26-.23-14.92-.26-29.8-.04-44.68Z"/>
    <path class="cls-29" d="m1272.46,745.98c8.22.31,16.44.55,24.69.75.11,6.73.26,13.46.41,20.19-8.71,0-17.41,0-26.08-.04.26-6.97.56-13.93.98-20.9Z"/>
    <path class="cls-29" d="m1078.85,917.2c-.04-10.79,12.46-13.38,20.6-12.99,43.8.31,87.59-.63,131.39.24,14.97-1.69,17.79,16.57,17.79,28.22.11,42-.15,83.96.08,125.96.08,9.01.26,19.96-7.73,25.7-10.43,3.9-21.88,2.32-32.76,2.52-43.23-2.01-86.5-.51-129.73-2.2-2.18-8.42-3.38-17.12-2.93-25.82.9-47.23,1.73-94.47,3.3-141.62Zm71.49-1.26c-28.93,6.02-53.89,29.99-60.76,60.3-6.98,27.55,2.29,58.41,22.4,77.38,22.1,22.12,56.52,28.54,84.81,16.85,23.49-9.41,42.37-31.1,48.19-56.88,7.73-30.9-5.55-65.5-30.32-83.56-18.31-13.93-42.26-18.85-64.32-14.09Z"/>
    <path class="cls-29" d="m1026.43,974.82c11.22-.39,22.4-.79,33.62-1.1-.11,15.71-.34,31.41-.6,47.15-11.03.35-22.07.67-33.06.98-.04-15.71-.08-31.37.04-47.04Z"/>
    <path class="cls-29" d="m1265.82,981.91c10.51-.12,21.02-.12,31.52-.12-.08,8.94-.11,17.87-.19,26.81-10.36-.24-20.68-.51-31-.75-.15-8.66-.26-17.32-.34-25.94Z"/>
  </g>
  <g>
    <path class="cls-12" d="m1030.89,525.63c6.57-8.9,15.91-16.53,27.32-15.27,28.97-.16,57.94-.08,86.91.12-.08,5.47-.15,10.98-.23,16.49-38.02-.31-76.03-.35-114.01-1.34Z"/>
    <path class="cls-12" d="m1191.17,527.01c.23-5.55.49-11.1.79-16.65,43.57.04,87.14.16,130.71.04,0,6.02-.04,12.08-.08,18.15-43.8-.83-87.67.59-131.42-1.54Z"/>
    <path class="cls-12" d="m1297.98,546.18c8.18-.08,16.36-.08,24.54-.12.68,31.57.68,63.21.41,94.78-1.31,24.4-.19,48.81-1.8,73.17-7.62-8.42-14.94-17.12-22.03-25.98-.3-47.27.19-94.59-1.13-141.86Z"/>
    <path class="cls-12" d="m1637,639.98c8.07.04,16.17-.04,24.32-.08.23,108.76-.11,217.51.04,326.27-6.83,1.02-13.85,3.15-20.68,1.18-6.53-15.82-1.43-33.54-1.31-50.11,1.76-52.51,1.8-105.13,1.09-157.72-.64-24.72,3.72-50.07-3.49-74.16-.6-15.11-.45-30.27.04-45.38Z"/>
    <path class="cls-12" d="m1633.33,1331.16c15.65-11.3,23.34-30.43,27.7-49.12.3,22.75.38,45.54.11,68.29.19,18.85-14.67,38.14-33.47,37.75-26.08.63-52.2.55-78.32.2,4.84-6.61,9.94-13.23,12.01-21.45,1.28-3.74,2.55-7.44,3.83-11.18,24.36-1.34,49.05-7.79,68.15-24.48Z"/>
    <path class="cls-12" d="m1302.07,1352.42c6.91,14.64,14.94,28.66,23.23,42.47.45,49.2.38,98.4.49,147.61-7.69-.04-15.35-.04-23-.04.11-63.37-1.99-126.7-.71-190.04Z"/>
  </g>
  <g>
    <path class="cls-44" d="m1339.37,510.63c47.21-.2,94.46-.2,141.67.12-.41,2.24-1.24,6.81-1.65,9.09-12.68,5.55-27.25,9.64-35.65,22.04-5.93,6.69-4.73,16.22-5.25,24.56-10.51,1.02-22.55-2.83-31.9,3.66-1.8,21.29-2.44,43.22-.41,64.55,10.21,4.33,21.8,1.61,32.57,3.35.56,13.66-.86,27.47,1.09,41.05,2.06,7.44,9.98,8.23,16.02,9.88-.56,195.51-1.99,390.98-2.85,586.44.41,5.04-.75,11.22,3.08,15.19,16.06,17.16,35.65,30.74,57.04,39.48,1.05,16.3-3.64,34.24,4.73,49.12,6.57,12.75,19.03,21.53,31.97,25.78,24.96,1.97,49.99-1.26,75.02.16,27.21,3.11,50.36-23.54,52.01-50.74.04-256.01.34-512.05.26-768.1,0-6.22-.26-14.13-7.13-16.3-10.55-1.34-21.2-.28-31.79-.2,4.58-27.24-21.28-42.08-42.82-46.45-.26-3.11-.79-9.41-1.05-12.56,46.12-.16,92.28-.35,138.4.2,1.16,344.14,3.38,688.31,4.28,1032.49-131.42.08-262.85-1.06-394.27-1.02-.71-263.48-1.65-526.97-2.29-790.49-.56-80.42.45-160.91-1.09-241.32Z"/>
    <path class="cls-44" d="m1750.75,510.79c93.11.04,186.25-.2,279.36.28,10.58.75,27.88,2.01,29.57,16.1,1.05,152.09.86,304.22.79,456.32-102.49.91-204.98,1.38-307.5,1.38-1.35-158-1.54-316.03-2.21-474.07Zm21.47,95.18c.9,73.57,1.65,147.25,3.83,220.82-.94,8.11,6.04,12.63,13.02,12.48,11.48,8.62,24.32,15.94,38.39,18.46,48.64,5.39,97.61,3.07,146.47,2.4,26.01-1.69,52.46.16,78.13-5.75,2.93-23.62,1.84-47.43,1.84-71.17-.11-18.42,4.65-36.61,2.66-55.07-3-32.83-.68-65.69,1.35-98.44,1.84-12.16-9.53-18.97-17.64-24.76.04-9.17-8.78-15.82-17.11-14.96-77.8.2-155.59-.47-233.35.71-9.04-1.54-18.8,4.72-17.6,15.27Zm59.52,262.66c-3.38,17.24-1.24,34.99-1.76,52.47l5.55-.08c0-7.6,0-15.23.04-22.83h25.22c0,7.6,0,15.23.04,22.83l5.4.08v-49l-5.4-.08c-.04,7.05-.04,14.13,0,21.18-8.37,0-16.7.04-25.03.08-.23-8.42.34-17.24-4.05-24.64Zm90.4.28c-3.19,17.2-1.28,34.76-1.69,52.15h28.78l.11-5.35h-23.34c-1.31-15.51,3.45-32.51-3.87-46.8Zm44.32,5.94c-14.79,10.35-13.1,38.26,3.72,45.46,9.27,4.25,21.43-.43,23.68-11.38-5.48,2.56-10.66,5.75-16.29,7.87-17.68-1.26-20.68-29.88-6.79-38.38,7.92-5.63,15.39,2.64,22.63,5.67-1.84-12.91-17.98-16.33-26.95-9.25Zm-86.13-2.99c-.08,16.37-.04,32.75-.04,49.12l5.18.2c-.04-6.18-.08-12.32-.11-18.46,10.62.59,27.28-2.01,24.99-17.24-1.35-15.39-19.36-13.46-30.02-13.62Z"/>
    <path class="cls-44" d="m1025.52,543.78c39.55.2,79.11.75,118.66,1.3.26,15.51.19,31.06-.04,46.56-6.04,1.46-15.65-1.54-17.41,7.01-1.39,16.69.26,33.5.26,50.26-19.25,1.34-44.17-6.06-58.32,11.85-6.08,17.95-2.36,37.9-3.79,56.68-12.95.12-25.89.16-38.84.35-.68-58.02-.34-116-.53-174.02Z"/>
    <path class="cls-44" d="m1190.98,590.93c-.08-15.19.19-30.35.56-45.5,29.91.16,59.78.39,89.69.51.56,60.62.53,121.23,1.05,181.85-2.59.08-7.77.24-10.36.28-2.48-23.93,8.11-55.42-14.6-71.6-15.87-7.64-34.23-3.66-51.15-5.27-1.05-16.1.38-32.43-2.48-48.34-1.01-6.81-8.07-8.62-12.72-11.93Z"/>
    <path class="cls-44" d="m1026.28,956.13c.23-52.86-.56-105.69-.15-158.51,12.61-.12,25.18-.35,37.79-.43,1.13,17.67-4.43,37.24,4.95,53.3,5.18,9.72,16.21,11.77,25.03,16.3,13.17,7.75,28.3,10.31,43.31,9.76,42.37-.51,84.93.31,127.11-4.09,13.89-1.97,11.26-20.15,14.19-30.74,1.24,11.14,2.85,22.24,3.94,33.42.79,29.56.34,59.16.45,88.76-5.1,0-10.25-.04-15.31-.04,3.3-1.34,6.6-2.64,9.98-3.98-3.19-17.99,3.04-41.92-15.24-52.47l-.45-.43c-4.54-11.65-14.67-20.31-27.06-20.07-46.23-1.02-92.51.24-138.78-.35-13.06-1.65-26.83,6.53-32.39,18.93-4.5,16.14-2.25,33.3-3.3,49.91-11.37.55-22.74.79-34.08.75Z"/>
    <path class="cls-44" d="m1885.36,877.09c7.17.59,17.08-1.18,19.89,8.03,1.28,12.4-11.52,12.4-19.78,12.36-.04-6.81-.08-13.62-.11-20.39Z"/>
    <path class="cls-44" d="m1482.84,937.27c33.74.04,67.48.04,101.1-3.07-2.4,25.66-.56,51.48-1.09,77.23-30.77,4.68-62.07,7.2-92.62-.55-.79-21.88.56-43.89-1.58-65.65-1.46-1.97-4.35-5.94-5.82-7.95Z"/>
    <path class="cls-44" d="m1753,1004.11c23.79-.12,47.55-.75,71.34-.79-.04,47.27-2.66,94.47-2.25,141.74.86,88.01,2.66,176.02,1.61,264.04,0,19.76,2.4,39.4,2.51,59.16.41,9.96-.34,20.31,2.81,29.91,11.93,11.1,29.08,9.17,43.87,9.45,44.02-1.57,88.15,1.22,132.1-2.68,18.58-1.65,37.23-2.48,55.88-2.68-.68,9.21,1.09,18.89-1.54,27.87-4.73,11.61-18.54,13.97-29.2,13.82-91.64-.28-183.25-.24-274.89-.43-.71-179.8-1.73-359.61-2.25-539.41Z"/>
    <path class="cls-44" d="m1277.79,1030.48c1.13-1.18,3.38-3.5,4.5-4.64,1.5,10.98,1.61,22.08,1.5,33.18.34,161.15,1.39,322.29,1.58,483.44-78.25-.28-156.49,0-234.74-.47-10.51.91-25.63-4.92-23.3-18.66-.3-161.15-.64-322.29-.83-483.4,10.81-.16,21.58-.31,32.39-.24,1.28,21.1-6.34,50.15,14.97,62.98,15.2,11.06,33.06,18.3,51.75,18.3,33.89.63,67.85-.47,101.63,3.35,13.21.24,29.65,2.52,40.04-7.75,13.81-26.25,4.58-57.78,10.51-86.08Z"/>
  </g>
  <path class="cls-38" d="m2399.42,533.19c88.3-.83,176.68-.31,265.02-1.1,11.75-1.73,18.58,12.04,17.45,22.75,0,112.85.04,225.7-.11,338.55,1.5,16.18-18.39,15.59-28.82,16.33-151.2.51-302.4,2.2-453.6,2.28-7.06-.39-15.31.63-20.57-5.39-8.18-7.09-9.08-18.74-8.97-29.01-.04-107.61-.3-215.19-.38-322.76-1.13-10.08,2.33-22.04,14.34-20.11,71.83-2.09,143.77,0,215.64-1.54Zm-195.33,28.18c-8.18,2.87-6.08,14.09-6.76,21.14.34,80.06.15,160.08.53,240.14-1.16,10.47,4.5,22.2,16.14,19.92,140.13.59,280.3.43,420.42.83,7.99.39,20.57-1.5,19.48-12.87,1.24-78.72.19-157.48,1.24-236.21-.11-9.09.49-18.38-1.58-27.28-3.79-9.68-15.01-6.97-22.85-7.64-142.19,1.34-284.46.08-426.62,1.97Zm404.89,294.34c-15.46,5.94-17.45,31.84-3,40.35,13.02,10.86,33.85-1.34,33.59-18.22,1.24-16.18-16.4-29.99-30.59-22.12Zm-233.69,10.9c-.34,7.95-.56,15.94-.71,23.93,11.93.59,23.94.55,35.91-.08-.11-8.07-.26-16.1-.45-24.13-11.6-.55-23.19-.43-34.75.28Zm53.03-.24c-.26,7.87-.53,15.74-.68,23.62,11.75,1.02,23.57,1.1,35.39.55,1.05-8.27,1.16-16.61.08-24.84-11.63-.63-23.23-.47-34.79.67Zm51.45-.71c-1.05,8.07-1.09,16.26-.23,24.36,11.93.63,23.87.75,35.84.2.56-7.91,3.9-17.08-1.28-24.05-11.37-2.2-22.93-.98-34.34-.51Zm52.65.79c-.34,8.07-.49,16.18-.49,24.29,12.01.63,24.06.55,36.1-.12-.11-8.19-.34-16.37-.68-24.52-11.67-.28-23.3-.16-34.94.35Z"/>
  <path class="cls-38" d="m1790.49,609.75c77.19-.31,154.43-1.38,231.58.08-.23,70.5-.68,140.99-.45,211.49-75.96-.75-151.99-.75-227.94-1.81-1.09-69.91-2.59-139.81-3.19-209.76Zm14.86,13.03c-2.74,35.9-2.21,72.15-.34,108.09,61.32-2.48,122.72-.83,184.04-1.38,5.29-1.14,12.76,1.26,16.55-3.7,2.93-13.34,1.31-27.2,1.5-40.78-.79-20.94,1.58-42.16-2.33-62.86-66.46,1.22-132.96-.59-199.42.63Zm5.63,127.69c-.11,5-.23,10-.26,15.04,9.98-.94,20.68.94,30.29-2.76,1.09-4.49.83-8.78-.83-12.83-9.72-1.42-19.51,0-29.2.55Zm49.46.87c.15,3.42.45,10.31.56,13.74,9.72-.98,19.44-1.89,29.16-2.79-.56-4.05-1.09-8.15-1.61-12.2-9.38.31-18.76.71-28.11,1.26Zm50.25-1.81c-.6,4.96-1.2,9.92-1.76,14.92,10.81-1.42,21.62-2.72,32.42-3.78-.64-2.83-1.91-8.5-2.55-11.34-9.38.08-18.76.2-28.11.2Zm48.94.16c-.41,5.04-.83,10.12-1.16,15.15,10.55-.63,21.13-1.26,31.71-1.61-.45-4.84-.86-9.68-1.24-14.48-9.79.63-19.55.94-29.31.94Zm-48.9,37.35c-.11,5.51-.19,10.98-.26,16.49,10.51-.91,21.02-1.93,31.52-3.15-.75-3.58-2.29-10.71-3.08-14.29-9.42.04-18.8.31-28.18.94Zm48.07.08c.68,5.9,1.35,11.85,2.1,17.79,9.98-.67,19.96-.91,29.98-.75.26-5.75.56-11.49.9-17.2-11,.2-21.99.2-32.99.16Zm-147.41,3.5c-.19,5.39-.34,10.82-.49,16.26,10.28-.35,20.57-.75,30.85-1.26.3-4.72.56-9.41.9-14.09-10.43-.39-20.87-.67-31.26-.91Zm47.92-.87c0,5.67.04,11.34.11,17.04,11.37-1.06,22.78-1.93,34.19-2.72-.53-3.58-1.54-10.82-2.06-14.45-10.77-.12-21.5-.04-32.24.12Z"/>
  <path class="cls-38" d="m1164.45,725.74c18.54-3.7,37.19,13.82,34.08,33.85-.49,25.9-36.59,38.1-51.79,17.79-17.08-16.61-5.52-50.23,17.71-51.64Z"/>
  <path class="cls-38" d="m1160.66,966.01c21.77-6.14,42.07,18.26,34.86,40.19-5.59,24.52-41.51,29.36-53.59,7.99-12.31-17.32-1.99-45.27,18.73-48.18Z"/>
  <g>
    <path class="cls-20" d="m1469.48,546.18c27.25-13.15,58.54-11.06,87.7-8.7,14.52,1.61,29.16,3.42,42.97,8.7-21.58,3.15-43.38,1.14-65.07,1.57-21.88-.43-43.83,1.22-65.6-1.57Z"/>
    <path class="cls-20" d="m1457.51,656.51c53.06-1.06,106.17-1.3,159.27-2.09-.04,4.53-.04,9.05-.04,13.58-49.91-.2-99.82-.08-149.74-.2-7.58,2.01-9.83-4.72-9.49-11.3Z"/>
  </g>
  <g>
    <path class="cls-11" d="m1458.67,563.77c53.33.87,106.62-.28,159.94.98-.64,24.36-.53,48.73-1.24,73.09-53.03.94-106.05,1.22-159.08,1.77.11-25.27-.64-50.58.38-75.85Z"/>
    <path class="cls-11" d="m1421.29,583.61h17.49c.04,12.52.08,25.03.11,37.59-6-.35-11.97-.71-17.94-1.02.11-12.2.23-24.36.34-36.57Z"/>
    <path class="cls-11" d="m1637.3,586.8c8.07-.39,16.14-.67,24.24-.79-.08,12.48-.15,24.96-.38,37.43-7.99.04-16.02.08-23.98.2-.04-12.28.04-24.56.11-36.84Z"/>
    <path class="cls-11" d="m1102.91,756.01c-.53-31.73,23.27-60.89,53.06-65.65,37.72-8.5,77.72,25.31,76.14,66.21-10.02-5.24-10.62,11.81-.26,6.49-.98,10.16-4.17,19.84-8.41,28.97-3.42-9.56-11.82-.71-4.13,4.29-10.55,18.81-32.39,28.46-52.65,27.83,5.52-8.19-8.26-8.54-3.04-.08-32.61-.35-60.53-30.9-60.8-64.83,7.62,5.86,7.99-8.7.08-3.23Zm61.02-62.35-9.87,21.14c-13.85,5.31-24.73,18.54-27.17,33.85-5.14,25.62,15.39,51.8,40.15,52.11,24.92,1.89,47.44-23.18,44.02-49.16-2.03-27.67-32.46-47.43-57-36.8Z"/>
    <path class="cls-11" d="m1099.83,996.28c-1.05-33.54,24.77-63.57,56.03-68.13,38.8-8.34,80.95,25.86,78.43,68.45-3.11-4.68-14.64.55-6.72,4.01,1.69-.31,5.07-.94,6.76-1.3-1.2,35.54-34.3,67.58-68.41,61.99-.38,0-1.05.04-1.43.04-32.99,3.39-62.82-27.99-64.62-61.8,7.69,5.59,7.47-9.17-.04-3.27Zm53.48-41.76c-19.25,6.22-32.12,28.38-28.41,49.2,3.23,23.77,27.1,41.37,49.54,36.45,23.91-3.74,41.06-31.84,33.25-56.09-6-23.58-32.5-38.1-54.38-29.56Z"/>
  </g>
  <g>
    <path class="cls-32" d="m2209.72,575.15c144.29-1.61,288.63-1.5,432.92-2.16-.45,85.53-1.54,171.06-1.65,256.64-143.32-.12-286.64-.39-429.96-.63-.64-84.63-1.35-169.21-1.31-253.84Zm39.93,9.45c-2.03,11.06-1.05,22.4-1.13,33.61.3,55.15.75,110.29.9,165.44.41,5.24-.71,11.06,1.84,15.86,127.07-.2,254.21,1.89,381.25.24-1.01-1.65-3.08-5.04-4.09-6.69-123.58-2.09-247.27-.24-370.89-2.24-.15-10.35-.23-20.74-.23-31.06,18.01.04,37-6.81,48.3-22.2,8.63-11.45,17.49-25.51,32.65-27.28,18.24-3.27,27.17,20.47,44.7,20.78,18.35.47,34.53-12.36,43.8-28.18,12.68-19.09,19.51-44.24,39.74-56.48,11-6.73,26.27-5.67,34.86,4.92,13.81,14.76,25.03,36.41,46.95,38.3,32.87,2.76,62.03-19.96,81.66-45.62-8.11-4.25-12.83,4.72-18.13,9.25-17.49,18.03-41.99,32.16-67.17,27.75-23-6.22-29.57-35.23-50.66-44.6-12.8-4.57-27.51-1.3-37.9,7.56-23.49,19.64-27.62,55.85-53.14,73.45-9.38,7.09-23.23,8.66-32.05-.24-10.96-9.92-25.22-19.88-40.15-12.75-22.63,5.75-28.22,34.44-49.27,42.79-7.47,4.01-16.02,3.7-24.13,4.05-.86-52.31-.64-104.66-1.24-157.01-.38-3.98-.56-12.83-6.45-9.64Z"/>
    <path class="cls-32" d="m1815.15,634.15c60.16.16,120.31-.04,180.51.24.11,27.63.26,55.26.38,82.93-60.27.43-120.58.75-180.88.98-.08-28.06-.19-56.09,0-84.15Z"/>
  </g>
  <g>
    <path class="cls-13" d="m2040.28,604.94c8.11,5.79,19.48,12.6,17.64,24.76-2.03,32.75-4.35,65.62-1.35,98.44,1.99,18.46-2.78,36.65-2.66,55.07,0,23.73,1.09,47.55-1.84,71.17-25.67,5.9-52.13,4.05-78.13,5.75-48.86.67-97.84,2.99-146.47-2.4-14.07-2.52-26.91-9.84-38.39-18.46,76.59.08,153.15.59,229.71,1.14,6.53-.91,16.21,2.13,19.03-6.42,1.99-7.52,1.73-15.43,1.91-23.14,0-68.65.38-137.25.56-205.9Z"/>
    <path class="cls-13" d="m1824.34,1003.32c78.77-.24,157.58-.43,236.35-.59,0,10.04,0,20.07.04,30.15-42.74.04-85.45-.67-128.2-.43-6.34-.94-14.11,3.31-12.8,11.1,2.81,9.01,13.32,7.05,20.42,7.87,40.04.08,80.12.2,120.2.43.11,3.03.41,9.13.56,12.16-43.95-.75-87.85-3.11-131.76-3.39-8.11-1.14-10.4,8.58-10.13,15.15,6.94,2.01,14,3.86,21.32,3.82,35.01.71,70.06,1.93,105.12,2.6,5.93.67,13.21-.47,17.45,5.27-42.22.94-84.44-.79-126.62-1.73-6.04-.08-11.78,1.89-17.56,3.35-.08,6.42,1.65,16.18,9.79,15.23,43.49,1.46,87.1,1.42,130.6,3.11.75,1.81,2.25,5.47,3,7.32-43.08.31-86.13-2.16-129.17-2.16-5.07-.55-9.49.79-13.36,4.01-1.99,6.46-.08,13.82,7.36,14.13,39.48,1.89,79.07,1.81,118.59,2.4,5.85.28,12.5-.39,16.93,4.72-47.77,2.48-95.85-2.56-143.54,1.46.15,5.04-.86,10.51,1.84,15.08,4.99,1.61,10.28,1.73,15.54,1.93,41.28.43,82.6-.04,123.88,1.46,0,1.69-.04,5.12-.04,6.81-38.8-.2-77.61-.2-116.37-.55-7.28-.24-14.41,1.14-21.43,2.83.68,5.67-1.09,15.15,6.79,15.47,43.87,1.65,87.82.51,131.72,1.3-.11,3.03-.3,9.09-.41,12.12-40.04-1.02-80.08-1.97-120.09-3.39-6.08-.08-12.01.94-17.98,1.81.19,5.2.49,10.43.86,15.67,43.19,3.07,86.54,3.07,129.81,4.61,3.9-.12,7.13,1.42,9.68,4.64-43.34,1.34-86.73-1.3-130.03-1.18-7.17-1.42-10.51,5.31-14.11,10.31,4.2,3.31,8.11,8.74,14.04,8.27,40.19,1.02,80.38,1.26,120.58,2.24,4.28-.04,7.73,1.85,10.43,5.75-4.8,1.42-9.72,2.13-14.67,2.13-40-.35-80.01-2.44-120.01-1.69-10.96-.87-11,17.79-.41,17.4,41.43,3.07,83.05,1.65,124.52,3.11,3.75-.12,6.91,1.3,9.49,4.29-44.58,1.61-89.24-1.1-133.79-.04-11.71-.87-11.75,18.58-.15,18.07,43.46,1.46,87.03.39,130.48,1.69.56,2.09,1.73,6.26,2.29,8.34-44.36.04-88.68-2.24-133.04-1.81-5.85-.59-10.88,4.29-9.23,10.59,0,7.56,8.29,6.89,13.4,7.56,40.15,1.89,80.35,1.34,120.54,2.52,3.68-.24,6.68,1.18,9.04,4.33-41.81,1.1-83.61-.35-125.42-.51-5.89.28-12.53-.98-17.23,3.66-.53,4.09-.86,8.23-.98,12.4,16.89,4.72,34.49,2.44,51.75,3.11,29.35.55,58.73-.08,88.08,1.1.98,1.65,2.89,4.92,3.87,6.53-40.61,1.06-81.29-.12-121.89-.12-5.25.16-10.77-.2-15.61,2.24-3.23,4.05-1.35,9.8-1.8,14.6,45.48,4.96,91.46,1.34,137.13,2.68.04,3.03.11,9.13.15,12.16-39.97-.91-79.9-2.4-119.86-3.42-5.59.59-12.87-1.61-17.15,3.15-.64,4.37-.94,8.74-.9,13.15,44.36,6.57,89.62,2.32,134.2,6.34,1.5,1.1,4.5,3.27,5.97,4.37-40.72.75-81.51-.75-122.23-1.69-6.12.04-12.12,1.14-18.13,2.13.3,5.04-.6,10.63,2.21,15.15,11.37,2.64,23.15,1.61,34.75,2.05,33.62-.04,67.25,1.89,100.87,1.81.11,2.01.26,5.98.34,7.95-42.56-.2-85.11-2.32-127.67-2.28-6.72-1.46-10.4,5.04-14.34,9.25,3.68,3.31,6.53,9.41,12.23,9.13,42.03,1.89,84.21.75,126.21,2.99,1.39.98,4.24,2.91,5.67,3.86-43.31,1.3-86.69-.12-129.96-.39-4.84.43-11.93,1.1-12.53,7.64-2.18,7.71,6.68,11.53,12.57,10.98,42.71,1.06,85.49-.28,128.2,1.77.23,9.84.3,19.68.3,29.52-18.65.2-37.3,1.02-55.88,2.68-43.95,3.9-88.08,1.1-132.1,2.68-14.79-.28-31.94,1.65-43.87-9.45-3.15-9.6-2.4-19.96-2.81-29.91-.11-19.76-2.51-39.4-2.51-59.16,1.05-88.01-.75-176.02-1.61-264.04-.41-47.27,2.21-94.47,2.25-141.74Z"/>
  </g>
  <g>
    <path class="cls-40" d="m1321.13,714.01c1.61-24.36.49-48.77,1.8-73.17,1.28,174.76.68,349.57,1.65,524.33,1.05,76.56.6,153.12.71,229.71-8.29-13.82-16.32-27.83-23.23-42.47-1.16-108.17-1.28-216.45-1.43-324.65,5.52-2.16,12.68-4.57,12.98-12.08,1.2-16.37,1.76-33.1-1.58-49.2-4.05-1.22-8.11-2.44-12.12-3.62.19-58.88-.56-117.73-.41-176.61,5.07-3.03,12.38-4.21,14.07-11.14,1.39-15.23,2.4-31.21-2.36-45.93-2.96.04-8.82.16-11.78.24-.3-13.82-.34-27.59-.34-41.37,7.09,8.86,14.41,17.56,22.03,25.98Z"/>
    <path class="cls-40" d="m1616.81,688.98c6.76-.87,13.51-1.97,20.15-3.62,7.21,24.09,2.85,49.44,3.49,74.16.71,52.59.68,105.21-1.09,157.72-.11,16.57-5.22,34.28,1.31,50.11,6.83,1.97,13.85-.16,20.68-1.18-.3,105.29.26,210.62-.34,315.87-4.35,18.7-12.05,37.83-27.7,49.12-19.1,16.69-43.8,23.14-68.15,24.48-1.28,3.74-2.55,7.44-3.83,11.18-.79-11.93-.71-23.89-.11-35.82,21.17-8.7,40.23-23.77,52.58-43.97,7.73-12.95,4.13-28.81,4.84-43.22-.19-184.96-1.5-369.88-1.84-554.84Z"/>
    <path class="cls-40" d="m1583.94,934.2l3.83-6.1c3.83,8.9,4.24,18.74,4.09,28.38-.38,99.74-.6,199.48-.83,299.26,2.06,19.09-13.62,32.24-26.31,42.9-23.49,13.5-55.99,8.58-73.4-13.34-8.74-10.19-8.41-24.8-8.97-37.63-.9-91.75-.56-183.5-1.09-275.29-.15-11.73-.11-23.5,1.58-35.11,1.46,2.01,4.35,5.98,5.82,7.95,2.14,21.77.79,43.77,1.58,65.65,1.31,30.74-2.25,61.92,1.84,92.38,28.52,13.74,60.91,9.92,90.52,2.64.26-31.49.15-62.98.26-94.47.53-25.74-1.31-51.56,1.09-77.23Zm-25.41,184.84-15.8,4.61c-4.84,3.74.94,12.79,5.89,8.58,4.69-3.74-1.01-12.67-5.89-8.58Zm-37.23,30.94c-5.48,5.98-2.85,16.18,6.19,14.21,8.41-4.64,2.78-18.26-6.19-14.21Zm60.12,19.76-16.21,10.35c-1.05,6.34-5.89,16.57,3.72,17.79,9.01,1.3,8.41-7.68,9.38-14.25-4.35-1.22-8.74-2.36-13.1-3.54Zm-21.24,20.98c-2.18,6.38-.15,8.54,6.04,6.61,2.1-6.38.08-8.58-6.04-6.61Zm-15.42,22.71c-4.13,7.87-5.74,22.63,7.13,21.06,11.22-6.53,5.22-22.67-7.13-21.06Zm25.82,8.34c-1.84,6.49.34,8.5,6.42,6.06,1.73-6.49-.41-8.5-6.42-6.06Zm14.19,5.79c-.08,5.2-3.34,11.89,1.95,15.55,4.43,1.02,11.18-.47,11.52-6.34.75-8.66-8.03-7.56-13.47-9.21Zm-43.83,29.44,38.13-.59c-6.83,1.89-4.17,14.01,2.85,11.89,6.98-1.69,4.32-14.48-2.85-11.89Z"/>
    <path class="cls-40" d="m781.29,946.48c30.32.35,60.68-.24,91.01.39-.68,32.47-.49,64.99-.19,97.46-30.36.04-60.68.2-91.01-.08.15-32.59-.23-65.18.19-97.77Z"/>
    <path class="cls-40" d="m886.93,969.08c21.43-.08,42.86-.2,64.29.08-.23,19.05-.19,38.1,0,57.19-21.43.28-42.82.16-64.25.08-.04-19.13,0-38.22-.04-57.35Z"/>
    <path class="cls-40" d="m736.86,973.09c9.46-.08,18.91-.08,28.37-.12.08,15.35.04,30.74.04,46.13-9.49-.04-18.95-.08-28.45-.24.08-15.27.04-30.54.04-45.78Z"/>
  </g>
  <g>
    <path class="cls-21" d="m2132.18,654.62c7.02-.12,14.07-.24,21.17-.35-.04,26.21.45,52.43-.19,78.64-6.94.04-13.89.08-20.75.16-.38-26.14-1.01-52.31-.23-78.45Z"/>
    <path class="cls-21" d="m2079.76,666.23c4.58-.04,9.19-.04,13.81-.08,1.31,21.1,1.2,42.2,1.65,63.33-5.14.39-10.25.83-15.31,1.22-.3-21.49-.19-42.98-.15-64.47Z"/>
    <path class="cls-21" d="m1810.98,750.46c9.68-.55,19.48-1.97,29.2-.55,1.65,4.05,1.91,8.34.83,12.83-9.61,3.7-20.3,1.81-30.29,2.76.04-5.04.15-10.04.26-15.04Z"/>
    <path class="cls-21" d="m1860.44,751.33c9.34-.55,18.73-.94,28.11-1.26.53,4.05,1.05,8.15,1.61,12.2-9.72.91-19.44,1.81-29.16,2.79-.11-3.42-.41-10.31-.56-13.74Z"/>
    <path class="cls-21" d="m1910.69,749.52c9.34,0,18.73-.12,28.11-.2.64,2.83,1.91,8.5,2.55,11.34-10.81,1.06-21.62,2.36-32.42,3.78.56-5,1.16-9.96,1.76-14.92Z"/>
    <path class="cls-21" d="m1959.63,749.68c9.76,0,19.51-.31,29.31-.94.38,4.8.79,9.64,1.24,14.48-10.58.35-21.17.98-31.71,1.61.34-5.04.75-10.12,1.16-15.15Z"/>
    <path class="cls-21" d="m1910.73,787.03c9.38-.63,18.76-.91,28.18-.94.79,3.58,2.33,10.71,3.08,14.29-10.51,1.22-21.02,2.24-31.52,3.15.08-5.51.15-10.98.26-16.49Z"/>
    <path class="cls-21" d="m1958.81,787.11c11,.04,21.99.04,32.99-.16-.34,5.71-.64,11.45-.9,17.2-10.02-.16-20,.08-29.98.75-.75-5.94-1.43-11.89-2.1-17.79Z"/>
    <path class="cls-21" d="m1811.4,790.61c10.4.24,20.83.51,31.26.91-.34,4.68-.6,9.37-.9,14.09-10.28.51-20.57.91-30.85,1.26.15-5.43.3-10.86.49-16.26Z"/>
    <path class="cls-21" d="m1859.32,789.75c10.73-.16,21.47-.24,32.24-.12.53,3.62,1.54,10.86,2.06,14.45-11.41.79-22.82,1.65-34.19,2.72-.08-5.71-.11-11.38-.11-17.04Z"/>
    <path class="cls-21" d="m2381.33,874.37c8.03.16,16.1.55,24.17,1.42-4.09,10.31-23.79,12.16-24.17-1.42Z"/>
    <path class="cls-21" d="m2434.55,874.29c7.51,0,15.05.12,22.59.31-.45,2.09-1.39,6.18-1.84,8.27-7.62-1.46-20.98,4.05-20.75-8.58Z"/>
    <path class="cls-21" d="m2485.62,874.81c7.92-.43,16.06-1.34,23.94.59.64,10.59-15.5,4.68-21.99,6.73-.49-1.85-1.46-5.51-1.95-7.32Z"/>
    <path class="cls-21" d="m2537.9,875.36c7.77-.51,15.61-.83,23.45-.98-.19,12.48-12.12,8.62-20.11,9.37-1.16-2.83-2.25-5.59-3.34-8.38Z"/>
    <path class="cls-21" d="m917.41,929.64c8.74-.04,17.45-.04,26.19.08.08,7.4.15,14.84.26,22.28-8.86.55-17.71.59-26.57.16.08-7.52.11-15.04.11-22.51Z"/>
    <path class="cls-21" d="m2288.53,928.22c100.2-.39,200.44-1.06,300.67-1.42-.56,2.79-1.65,8.34-2.21,11.1-99.6,2.2-199.31,1.61-298.95,3.46.11-3.31.38-9.88.49-13.15Z"/>
    <path class="cls-21" d="m966.61,983.13c13.21-.04,26.46-.04,39.67,0,0,9.68.04,19.41.04,29.09-13.21.04-26.42.04-39.59.08-.11-9.76-.11-19.44-.11-29.17Z"/>
  </g>
  <path class="cls-45" d="m2109.67,670.95c1.61-.75,4.84-2.24,6.42-2.99.75,19.13,1.39,38.42-.45,57.51-1.2-1.5-3.64-4.45-4.88-5.94-1.84-16.06-2.44-32.47-1.09-48.57Z"/>
  <path class="cls-26" d="m1479.61,687.05c2.36.35,7.06,1.1,9.42,1.5.94,31.65-3.23,63.73,2.48,95.06l-2.14.04c-1.5,46.21-.64,92.5-.64,138.75-2.18-.59-6.49-1.81-8.63-2.4-.49-77.66,1.54-155.36-.49-232.94Z"/>
  <path class="cls-10" d="m1520.25,688.15c2.06.12,6.19.35,8.29.47.86,32.39.53,64.87.04,97.26-2.18-.2-6.49-.59-8.67-.79.79-32.32.23-64.63.34-96.95Z"/>
  <path class="cls-4" d="m1546.07,688.63c2.14-.12,6.42-.35,8.56-.47-.11,32.32.04,64.59-.45,96.91,4.88-.24,9.76-.47,14.67-.79-7.69,1.06-15.39,2.09-23.12,2.6,0-32.75-.41-65.5.34-98.25Z"/>
  <path class="cls-27" d="m1584.31,688.63c2.29-.39,6.83-1.18,9.08-1.57-1.69,72.74-1.16,145.6-1.76,218.38-.04,6.1-.9,12.4-4.84,17.2-6.12-20.94-3.64-42.9-3.57-64.4.11-25.39.79-50.7.79-76.09-.08-31.17.38-62.35.3-93.52Z"/>
  <path class="cls-31" d="m1102.91,756.01c7.92-5.47,7.54,9.09-.08,3.23l.08-3.23Z"/>
  <path class="cls-33" d="m1231.85,763.06c-10.36,5.31-9.76-11.73.26-6.49-.08,1.61-.23,4.88-.26,6.49Z"/>
  <path class="cls-15" d="m1489.37,783.65l2.14-.04c9.46.08,18.95.63,28.41,1.5,2.18.2,6.49.59,8.67.79,5.7.47,11.41.83,17.15.98,7.73-.51,15.42-1.54,23.12-2.6,5.03-.67,10.1-1.38,15.16-2.13,0,25.39-.68,50.7-.79,76.09-.08,21.49-2.55,43.45,3.57,64.4-31.9,11.06-65.94,7.87-98.06-.24,0-46.25-.86-92.54.64-138.75Zm53.81,35.9c-1.88,6.42.23,8.58,6.34,6.53,1.8-6.46-.3-8.62-6.34-6.53Zm-11.75,19.84c-6.79,1.3-4.2,13.46,2.59,10.71,6.23-1.77,3.9-12.75-2.59-10.71Zm15.16,32.55c-4.39,3.11.23,11.53,4.84,7.91,4.24-3.15-.3-11.53-4.84-7.91Zm-26.12,22.75c-6.6,2.28-3.23,13.74,3.53,11.57,7.77-1.69,3.38-14.33-3.53-11.57Z"/>
  <path class="cls-25" d="m1219.32,796.32c-7.69-5,.71-13.86,4.13-4.29-1.05,1.1-3.11,3.23-4.13,4.29Z"/>
  <path class="cls-18" d="m1163.63,824.07c-5.22-8.46,8.56-8.11,3.04.08l-3.04-.08Z"/>
  <path class="cls-2" d="m1543.18,819.54c6.04-2.09,8.14.08,6.34,6.53-6.12,2.05-8.22-.12-6.34-6.53Z"/>
  <path class="cls-46" d="m2612.47,862.92c12.16-5.75,24.92,10.23,17.34,21.73-4.77,9.92-19.93,9.49-24.24-.59-4.5-7.28-.6-18.07,6.91-21.14Z"/>
  <path class="cls-1" d="m2375.29,866.62c11.56-.71,23.15-.83,34.75-.28.19,8.03.34,16.06.45,24.13-11.97.63-23.98.67-35.91.08.15-7.99.38-15.98.71-23.93Zm6.04,7.75c.38,13.58,20.08,11.73,24.17,1.42-8.07-.87-16.14-1.26-24.17-1.42Z"/>
  <path class="cls-36" d="m2428.32,866.38c11.56-1.14,23.15-1.3,34.79-.67,1.09,8.23.98,16.57-.08,24.84-11.82.55-23.64.47-35.39-.55.15-7.87.41-15.74.68-23.62Zm6.23,7.91c-.23,12.63,13.13,7.12,20.75,8.58.45-2.09,1.39-6.18,1.84-8.27-7.54-.2-15.09-.31-22.59-.31Z"/>
  <path class="cls-39" d="m2479.77,865.67c11.41-.47,22.97-1.69,34.34.51,5.18,6.97,1.84,16.14,1.28,24.05-11.97.55-23.91.43-35.84-.2-.86-8.11-.83-16.3.23-24.36Zm5.85,9.13c.49,1.81,1.46,5.47,1.95,7.32,6.49-2.05,22.63,3.86,21.99-6.73-7.88-1.93-16.02-1.02-23.94-.59Z"/>
  <path class="cls-17" d="m2532.42,866.46c11.63-.51,23.27-.63,34.94-.35.34,8.15.56,16.33.68,24.52-12.05.67-24.09.75-36.1.12,0-8.11.15-16.22.49-24.29Zm5.48,8.9c1.09,2.79,2.18,5.55,3.34,8.38,7.99-.75,19.93,3.11,20.11-9.37-7.84.16-15.69.47-23.45.98Z"/>
  <path class="cls-9" d="m1831.74,868.63c4.39,7.4,3.83,16.22,4.05,24.64,8.33-.04,16.66-.08,25.03-.08-.04-7.05-.04-14.13,0-21.18l5.4.08v49l-5.4-.08c-.04-7.6-.04-15.23-.04-22.83h-25.22c-.04,7.6-.04,15.23-.04,22.83l-5.55.08c.53-17.48-1.61-35.23,1.76-52.47Z"/>
  <path class="cls-42" d="m1922.14,868.9c7.32,14.29,2.55,31.29,3.87,46.8h23.34l-.11,5.35h-28.78c.41-17.4-1.5-34.95,1.69-52.15Z"/>
  <path class="cls-28" d="m1099.83,996.28c7.51-5.9,7.73,8.86.04,3.27l-.04-3.27Z"/>
  <path class="cls-43" d="m1227.57,1000.61c-7.92-3.46,3.6-8.7,6.72-4.01l.04,2.72c-1.69.35-5.07.98-6.76,1.3Z"/>
  <path class="cls-35" d="m1490.23,1010.88c30.55,7.75,61.85,5.24,92.62.55-.11,31.49,0,62.98-.26,94.47-29.61,7.28-62,11.1-90.52-2.64-4.09-30.47-.53-61.64-1.84-92.38Zm14.64,17.48c-1.01,8.11,3.34,13.5,10.77,15.15,2.14-6.46,3.83-13.26.68-19.68-3.83,1.5-7.66,3.03-11.45,4.53Zm38.39,50.85c-3.04,7.87,5.37,7.05,10.13,8.66.94-2.48,2.81-7.36,3.75-9.8-4.17-.51-13.1-6.22-13.89,1.14Z"/>
  <path class="cls-37" d="m1504.87,1028.35c3.79-1.5,7.62-3.03,11.45-4.53,3.15,6.42,1.46,13.23-.68,19.68-7.43-1.65-11.78-7.05-10.77-15.15Z"/>
  <path class="cls-34" d="m1164.49,1061.34c.38,0,1.05-.04,1.43-.04l-1.43.04Z"/>
  <path class="cls-7" d="m1543.26,1079.21c.79-7.36,9.72-1.65,13.89-1.14-.94,2.44-2.81,7.32-3.75,9.8-4.77-1.61-13.17-.79-10.13-8.66Z"/>
  <path class="cls-19" d="m1542.73,1123.65c4.88-4.09,10.58,4.84,5.89,8.58-4.95,4.21-10.73-4.84-5.89-8.58Z"/>
  <path class="cls-23" d="m1505.51,1154.59c8.97-4.05,14.6,9.56,6.19,14.21-9.04,1.97-11.67-8.23-6.19-14.21Z"/>
  <path class="cls-6" d="m507.68,1422.09c27.17,2.76,54.3-1.81,81.47-.55,35.2,1.85,70.36-6.14,105.53-1.42,6.76,1.3,9.83,8.38,13.59,13.62,13.36,21.65,26.61,43.57,36.85,67.07,6.23,14.56-7.21,29.91-21.09,29.56-22.44.35-44.88-.71-67.21,2.56-33.81.12-67.78,1.57-101.44-2.36-26.46-.04-53.48,3.03-79.56-2.36-9.64-7.99-16.32-23.11-9.19-35.15,11.75-24.8,28.3-46.72,41.06-70.97Zm92.62,20.7c2.55,2.48,3.98,6.97,7.84,7.6,5.7,1.89,12.01-5.27,8.18-10.71-5.37-4.01-10.85,1.57-16.02,3.11Zm-75.51,13.3c-4.13,6.73,3.83,13.82,10.21,10.39,7.92-2.32,8.07-11.53,6.3-18.34-6.08.83-14.82-.31-16.51,7.95Zm125.79-2.91c-4.69,5.71,4.92,12.08,8.71,6.42,4.69-5.71-4.95-12.24-8.71-6.42Zm-30.59,11.89c-1.84,6.38.3,8.58,6.42,6.53,1.8-6.46-.34-8.62-6.42-6.53Zm-59.37,15.35c-2.21,6.3-.23,8.54,5.97,6.73,2.21-6.34.23-8.62-5.97-6.73Zm74.49,4.49-30.17,3.54c-4.65,1.38-8.11,10.71-2.4,12.63,5.18,4.29,11.18.08,13.17-5.51,1.24-7.05-5.48-9.72-10.77-7.12Z"/>
  <path class="cls-47" d="m1549.41,1184.7c4.35,1.18,8.74,2.32,13.1,3.54-.98,6.57-.38,15.55-9.38,14.25-9.61-1.22-4.77-11.45-3.72-17.79Z"/>
  <path class="cls-14" d="m1528.17,1205.68c6.12-1.97,8.14.24,6.04,6.61-6.19,1.93-8.22-.24-6.04-6.61Z"/>
  <path class="cls-22" d="m1538.57,1236.73c6-2.44,8.14-.43,6.42,6.06-6.08,2.44-8.26.43-6.42-6.06Z"/>
  <path class="cls-8" d="m1552.75,1242.52c5.44,1.65,14.22.55,13.47,9.21-.34,5.86-7.09,7.36-11.52,6.34-5.29-3.66-2.03-10.35-1.95-15.55Z"/>
  <path class="cls-30" d="m1547.05,1271.37c7.17-2.6,9.83,10.19,2.85,11.89-7.02,2.13-9.68-10-2.85-11.89Z"/>
  <path class="cls-41" d="m650.58,1453.18c3.75-5.83,13.4.71,8.71,6.42-3.79,5.67-13.4-.71-8.71-6.42Z"/>
  <path class="cls-5" d="m620,1465.07c6.08-2.09,8.22.08,6.42,6.53-6.12,2.05-8.26-.16-6.42-6.53Z"/>
  <path class="cls-24" d="m560.63,1480.42c6.19-1.89,8.18.39,5.97,6.73-6.19,1.81-8.18-.43-5.97-6.73Z"/>
  <path class="cls-16" d="m604.95,1488.45c5.29-2.6,12.01.08,10.77,7.12-1.99,5.59-7.99,9.8-13.17,5.51-5.7-1.93-2.25-11.26,2.4-12.63Z"/>
</svg>