<?xml version="1.0" encoding="UTF-8"?>
<svg id="_图层_1" data-name="图层 1" xmlns="http://www.w3.org/2000/svg" viewBox="0 0 2159.84 5906.96">
  <defs>
    <style>
      .cls-1 {
        fill: #ff6420;
      }

      .cls-2, .cls-3, .cls-4 {
        fill: #fff;
      }

      .cls-5 {
        fill: #79cbf7;
      }

      .cls-3 {
        font-size: 60px;
      }

      .cls-3, .cls-4, .cls-6 {
        font-family: SimHei, SimHei;
      }

      .cls-4 {
        font-size: 120px;
      }

      .cls-7 {
        fill: #a5d5ea;
      }

      .cls-8 {
        fill: #fdc698;
      }

      .cls-9 {
        fill: #124483;
      }

      .cls-10 {
        fill: #aee0f7;
      }

      .cls-11 {
        fill: #1876ba;
      }

      .cls-12 {
        fill: #f98a3c;
      }

      .cls-13 {
        fill: #dc3023;
      }

      .cls-6 {
        font-size: 100px;
      }

      .cls-14 {
        fill: #010101;
      }
    </style>
  </defs>
  <path class="cls-2" d="m447.82,3499.41c-69.82,12.13-130.03,56.33-164.05,113.18-12.31,18.05-16.23,40.73-33.34,55.94-19.05,18.78-45.19,28.88-67.99,43.04-26.19,15.45-49,35.05-71.85,54.35-46.54,41.06-88.24,90.22-104.36,148.76-11.69,45.35-8.51,97.34,23.27,135.47,39.55,47.9,104.52,69.47,146.89,114.77,35.48,37.26,51.08,90.89,38.14,139.27-14.77,53.63-64.55,91.28-81.45,144.04-13.2,37.79-3.6,77.84,4.7,115.59,9.34,40.39,27.29,81.21,62.56,108.27,40.02,30.57,89.49,48.48,138.49,62.87,67.83,14.54,144.07,13.77,205.17-20.6,38.98-22,80.67-45.3,103.47-83.28,29.95-48.48,23.32-108.37,54.27-156.56,23.85-36.2,58.6-66.15,98.36-87.23,32.4-15.55,69.61-29.03,106.39-18.68l-.1.63c20.51,7.56,42.27,15.12,57.03,31.1,55.94,60.13,131.44,104.27,213.68,126.9,59.9,17.76,123.35,18,185.6,18.49,4.96,14.97,10.54,29.9,14.35,45.2-1.88,1.44-5.64,4.38-7.57,5.83-2.66,26.81-.89,53.92-.52,80.83,44.3,3.95,88.86,1.16,133.27,2.02,49.78-.96,99.77,2.07,149.5-2.02,1.1-27.73.83-55.46.16-83.14-79.73-5.34-159.83.19-239.66-2.89-5.53-16.37-11.11-32.64-16.7-48.91,57.4-7.85,114.8-22.05,165.1-49.35l6.52.05c-.26,11.84-.26,23.73-.21,35.67,30.26,4.72,61.05,1.73,91.58,2.5,62.82-.63,125.75,1.2,188.53-.87,1.62-1.25,4.8-3.71,6.42-4.96.94-22.82.83-45.73.05-68.51-3.6-8.52-14.3-6.21-21.86-6.93-62.88-.43-125.75.67-188.58-.43-1.77-1.06-5.27-3.13-7.04-4.19,34.91-23.73,62.51-55.65,86.98-88.39,77.64-106.34,97.16-246.24,51.87-367.37-43.47-119.92-149.13-220.58-279.74-260.25-.73-1.83-2.19-5.44-2.97-7.27,13.04-14.25,26.51-28.11,39.92-42.08,75.3-.63,150.59,0,225.89-.29,7.1-1.3,18.99,2.17,22.12-6.21,1.04-21.23.99-42.51.05-63.69-4.75-10.06-18.21-5.58-27.34-6.88-84.32.63-168.65-1.35-252.92,1.11-2.82,24.22,1.46,48.96-2.56,72.98-11.38,14.54-25.83,26.72-38.46,40.29-78.17-16.22-159.98-19.59-238.78-5.01-84.53,14.73-164,52.71-226.36,107.4-23.85,20.65-51.19,38.42-82.55,47.8-21.92,5.3-46.18,9.15-66.95-1.83-53.75-24.6-73.1-83.38-80.67-134.31-7.67-77.94-47.17-156.07-119.23-200.27-56.88-36.35-129.88-42.22-196.51-31.97Z"/>
  <path class="cls-2" d="m578.06,3931.72c.1,4.72.31,14.15.47,18.87,6.21-1.68,11.9-4.28,17.11-7.7,3.86-12.47-8.51-10.83-17.58-11.17Z"/>
  <path class="cls-11" d="m1175.84,3969.56c3.76,5.15,4.23,11.27,5.64,17.28h18.99c.63-4.33,1.88-13,2.56-17.33,5.95,13.24,3.44,28.16,1.04,41.93-1.67-6.6-3.18-13.14-4.59-19.69-6.05,0-12.11.05-18.05.1-1.83,6.5-3.6,13.09-5.64,19.59-1.3-13.96-1.62-27.97.05-41.88Z"/>
  <path class="cls-11" d="m1250.35,3979.86c5.9-6.88,20.82-12.08,26.35-2.21,1.57,10.93-9.76,18.53-14.61,27.39,3.5-.24,10.54-.82,14.04-1.06.16,1.06.47,3.27.57,4.38-8.45-.19-16.85-.29-25.2-.39,7.98-10.01,19.88-18.87,20.14-32.3-7.15,1.4-14.25,2.79-21.29,4.19Z"/>
  <path class="cls-11" d="m1288.23,3971.63c7.2,2.07,21.6-1.11,20.25,10.01.83,10.01,2.87,30.38-14.45,26.77-15.55-5.3-8.3-25.42-5.79-36.78Zm4.23,4c-3.39,8.47-7.15,34.57,9.34,27.78,4.12-9.44,7.46-29.32-9.34-27.78Z"/>
  <path class="cls-11" d="m1320.95,3973.5c6.05-.58,12.16-.87,18.32-.91,0,11.99.05,23.97-.1,36.06-7.25-1.25-16.85,1.88-21.55-4.81-.16-10.11-1.41-21.04,3.34-30.33Zm4.23,3.76c-2.92,7.75-.1,10.45,8.56,8.04,2.82-7.8-.05-10.49-8.56-8.04Zm-.21,15.07c-7.98,4.53.47,17.09,8.24,11.65,7.36-4.77-.37-17.23-8.24-11.65Z"/>
  <path class="cls-11" d="m1225.72,3991.36c3.39-9.77,12.68-10.16,22.33-8.47-3.29,1.44-9.81,4.38-13.1,5.83,7.15,5.2,12.05,11.84,11.22,20.6-7.77-1.2-15.86-1.59-22.59-5.63,4.96.14,14.87.48,19.78.63-4.38-3.23-13.25-9.72-17.64-12.95Z"/>
  <path class="cls-14" d="m311.63,3828.69c-27.81-16.18-27.86-63.45,1.62-78.13l-3.18,5.54-.68,1.01c-16.96,21.71-11.27,49.78,2.24,71.59Z"/>
  <path class="cls-14" d="m326.24,3757.54c10.38,8.67,19.41,18.68,27.03,29.56,3.24,3.47,5.37,11.55,11.84,10.16,3.97-6.21,1.25-13.82,1.72-20.51.31-6.69,1.15-13.29,2.4-19.79,9.81,19.11,2.87,41.88,3.81,62.49-16.7-11.79-25.93-29.85-38.2-45.06-1.93,14.97-2.14,30.04-3.03,45.16-11.74-7.37-4.59-22.72-6.68-33.6.16-9.48.52-18.97,1.1-28.4Z"/>
  <path class="cls-14" d="m387.82,3786.33c7.88-10.3,20.72-11.89,33.08-8.33,3.44,12.47,3.6,25.42,4.28,38.27-2.5.05-7.57.14-10.12.19-9.03-.72-26.14,3.47-26.46-9.1-2.92-16.32,21.08-12.47,31.67-17.43-8.19-10.78-21.19-6.4-32.46-3.61Zm5.37,23.64c12.26,3.66,26.04,2.36,24.94-12.61-11.48-1.11-21.86.82-24.94,12.61Z"/>
  <path class="cls-14" d="m373.31,4462.67c10.54-5.73,23.17-13.09,35.53-6.88,12.68,7.61,8.66,23.44,9.71,35.24-.05,3.13-.05,9.39-.05,12.52-14.61-1.44-38.4,7.8-44.46-9.82-4.75-19.06,22.49-20.32,36.27-20.6-1.98-3.37-5.95-10.06-7.98-13.43-7.36,2.12-14.71,4.43-22.12,6.5-1.72-.87-5.17-2.65-6.89-3.51Zm12.21,20.22c-12.84,14.83,16.44,23.01,22.91,8.67,7.77-14.3-14.87-12.9-22.91-8.67Z"/>
  <path class="cls-14" d="m437.6,4455.54c11.84-.1,23.79-1.83,35.69-.63,15.76,5.92,15.6,23.73,14.92,36.92-10.02,13-26.09,15.36-41.64,9.92-.42,9.97-.99,19.93-2.3,29.9-9.24-11.55-6.73-26.48-6.99-39.86.1-12.13.16-24.22.31-36.25Zm16.44,7.7c-14.3,9.2-8.87,35.53,10.33,35.67,25.72-4.04,15.45-49.83-10.33-35.67Z"/>
  <path class="cls-14" d="m517.8,4454.87c12.31-5.01,23.53,1.73,31.15,10.4-11.48,0-25.41-8.42-34.6.87-3.97,7.08-2.82,15.36-2.92,23.16,4.33,3.27,8.71,6.55,13.25,9.82,7.88-2.5,15.91-4.86,24-6.84-9.24,19.59-39.66,15.02-47.27-3.47-.26-12.66.63-29.46,16.38-33.94Z"/>
  <path class="cls-1" d="m1220.09,3712.58c78.79-14.59,160.61-11.22,238.78,5.01-6.94,7.17-13.57,14.64-20.87,21.47-52.7-18.44-111.09-23.78-166.61-14.49-48.48,7.7-97.37,17.52-141.46,38.32-48.79,24.02-91.16,57.14-133.95,89.06-24.16,17.76-51.19,34.61-83.07,36.15-.68-6.84-1.25-13.62-1.72-20.32,31.36-9.39,58.7-27.15,82.55-47.8,62.35-54.69,141.82-92.67,226.36-107.4Z"/>
  <path class="cls-1" d="m1464.44,3744.64c8.56-7.51,18.89-13.19,30.68-15.02,130.61,39.67,236.27,140.33,279.74,260.25,45.29,121.12,25.78,261.02-51.87,367.37-24.47,32.74-52.08,64.65-86.98,88.39-15.86,4.57-32.66,5.83-49.15,4.38-1.62-1.49-4.9-4.48-6.52-5.97,85.84-62.78,144.85-155.45,162.75-255.1,10.02-65.47,6.11-133.79-18.94-196.18-23.06-63.26-64.49-120.35-117.25-165.8-41.27-35.67-90.74-61.81-142.45-82.32Z"/>
  <path class="cls-1" d="m663.17,4212.86c28.18-14.11,55.26-30.04,83.59-43.91,10.85-.34,21.71.29,32.61,1.06-7.31,6.6-15.03,12.9-23.79,17.86-30.68,15.02-60.58,31.34-90.79,47.08.16,14.44.21,28.93.16,43.42-53.17,4.91-106.66,1.01-159.98,2.36-11.64,0-23.22.05-34.8-.43-4.49-.34-13.46-.96-17.95-1.25-1.1-20.08-1.15-40.2.83-60.18,13.98-.43,28.02-.77,42.06-.72,11.43-.1,22.96-.05,34.49,0,32.09,0,64.18-.1,96.27.24,12.58-.1,25.99.53,37.31-5.54Z"/>
  <path class="cls-1" d="m910.14,4332.83l1.41.24c36.94,7.27,70.13,26.19,94.34,52.86,83.28,91.23,212.22,148.28,342.3,142.69-.31-9.53-2.5-19.45.73-28.64,11.74-8.28,28.65-6.5,41.85-2.12,2.71,7.37,4.38,15.02,6.37,22.72,57.76-8.52,112.6-31.44,160.4-62.25,3.24.29,9.71.87,12.89,1.16-2.82,11.31-5.64,22.72-9.81,33.8-50.3,27.3-107.7,41.5-165.1,49.35,5.58,16.27,11.17,32.54,16.7,48.91,79.84,3.08,159.93-2.46,239.66,2.89.68,27.68.94,55.41-.16,83.14-49.73,4.09-99.72,1.06-149.5,2.02-44.41-.87-88.97,1.93-133.27-2.02-.37-26.91-2.14-54.01.52-80.83,1.93-1.44,5.69-4.38,7.57-5.83-3.81-15.31-9.39-30.23-14.35-45.2-62.25-.48-125.7-.72-185.6-18.49-82.24-22.63-157.74-66.77-213.68-126.9-14.77-15.98-36.53-23.54-57.03-31.1l.1-.63c1.36-11.94,2.56-23.88,3.65-35.77Z"/>
  <path class="cls-9" d="m447.82,3499.41c66.63-10.25,139.63-4.38,196.51,31.97,72.06,44.19,111.56,122.33,119.23,200.27,7.57,50.93,26.92,109.71,80.67,134.31,20.77,10.98,45.03,7.12,66.95,1.83.47,6.69,1.04,13.48,1.72,20.32l.05,1.06c-27.71-.24-55.68,2.17-83.17-1.73-42.06-6.16-78.32-36.06-90.11-73.75-19.98-52.96-14.04-111.26-37.05-163.44-16.75-41.02-47.38-78.71-88.91-100.76-37.57-19.45-78.69-41.21-123.35-36.2-73.52,11.31-138.17,56.86-172.66,117.37-8.56,15.93-13.83,33.41-24.63,48.29-18,23.73-42.58,43.38-71.49,54.93-40.54,15.89-70.55,46.79-99.4,76.4-42.94,45.59-75.92,104.37-70.29,166.33,1.62,31.1,18,60.23,42.16,81.55,40.02,35.53,92.51,57.29,129.25,96.28,39.45,41.35,54.84,100.86,41.54,154.34-14.66,58.93-73.21,99.08-85.11,158.96-5.79,47.23,5.95,95.27,24.58,139.18,20.77,47.61,70.03,77.17,119.6,95.9,36.73,13.48,76.29,29.56,116.62,21.42,41.48-9.48,78.32-30.91,112.29-54.21,23.12-15.89,42.58-36.83,53.38-61.72,16.18-37.07,17.58-77.94,33.19-115.15,26.25-57.05,68.77-110.68,130.55-138.21,42.21-22.34,92.46-28.74,140.21-22.1-1.1,11.89-2.3,23.83-3.65,35.77-36.79-10.35-73.99,3.13-106.39,18.68-39.76,21.09-74.51,51.03-98.36,87.23-30.94,48.19-24.32,108.08-54.27,156.56-22.8,37.98-64.49,61.28-103.47,83.28-61.1,34.37-137.34,35.14-205.17,20.6-49-14.39-98.46-32.3-138.49-62.87-35.27-27.06-53.22-67.88-62.56-108.27-8.3-37.74-17.9-77.8-4.7-115.59,16.91-52.76,66.69-90.41,81.45-144.04,12.94-48.38-2.66-102.01-38.14-139.27-42.37-45.3-107.33-66.87-146.89-114.77-31.78-38.13-34.96-90.12-23.27-135.47,16.12-58.54,57.82-107.69,104.36-148.76,22.85-19.3,45.66-38.9,71.85-54.35,22.8-14.15,48.94-24.26,67.99-43.04,17.11-15.21,21.03-37.89,33.34-55.94,34.02-56.86,94.24-101.05,164.05-113.18Z"/>
  <g>
    <path class="cls-10" d="m317.69,3630.64c34.49-60.51,99.14-106.06,172.66-117.37,44.67-5.01,85.78,16.75,123.35,36.2,41.54,22.05,72.16,59.74,88.91,100.76,23.01,52.19,17.06,110.48,37.05,163.44,11.79,37.69,48.06,67.59,90.11,73.75,27.5,3.9,55.47,1.49,83.17,1.73,2.5,24.36,2.09,48.82,1.2,73.27-30.53.43-61.31,5.92-88.29,19.4-19.1-6.69-38.14-13.34-57.24-19.88,0-14.15-.26-28.26-.21-42.32-20.87-3.8-42.21-3.51-63.4-3.18-21.08-27.87-42.84-56.18-52.44-89.5-18.21-43.42-30.94-95.75-78.11-120.69-30.63-18.05-69.29-8.38-98.67,6.88-26.92,13.86-43.47,39.28-54.89,64.85-12.37-3.56-25.2-1.97-33.08,8.33,11.27-2.79,24.26-7.17,32.46,3.61-10.59,4.96-34.6,1.11-31.67,17.43.31,12.56,17.43,8.38,26.46,9.1-.37,24.36,5.17,48.82,1.77,73.08-8.09,23.11-35.01,34.08-57.82,42.03-29.27,8.28-59.75,21.33-75.87,46.65-10.85,19.59-2.97,43.18,8.87,60.85,20.25,30.81,51.14,55.65,87.92,68.26,30,10.64,61.1,28.21,72.74,57.34,7.67,19.59-10.23,36.35-22.02,50.69-38.56,40.1-78.53,82.85-91.89,136.48-11.95,38.95.1,84.68,34.54,110.82,1.72.87,5.17,2.65,6.89,3.51,7.41-2.07,14.77-4.38,22.12-6.5,2.04,3.37,6,10.06,7.98,13.43-13.78.29-41.01,1.54-36.27,20.6,6.05,17.62,29.85,8.38,44.46,9.82,0-3.13,0-9.39.05-12.52,4.64.19,14.04.58,18.73.77.26,13.38-2.24,28.31,6.99,39.86,1.3-9.97,1.88-19.93,2.3-29.9,15.55,5.44,31.62,3.08,41.64-9.92,3.29-.77,9.91-2.26,13.2-3.03,7.62,18.49,38.04,23.06,47.27,3.47-8.09,1.97-16.12,4.33-24,6.84-4.54-3.27-8.92-6.55-13.25-9.82,34.33-13.19,64.55-34.61,84.69-63.69,21.92-26.14,29.06-60.56,54.27-84.54,26.4-26.43,56.77-52.23,95.44-61.62,30.16-7.46,61.57-10.25,91.37-19.3,23.38,9.05,48.68,13.34,74.1,13-.52,19.98-.47,39.96.26,59.94l-1.41-.24c-47.74-6.64-97.99-.24-140.21,22.1-61.78,27.54-104.31,81.17-130.55,138.21-15.6,37.21-17.01,78.09-33.19,115.15-10.8,24.89-30.26,45.83-53.38,61.72-33.97,23.3-70.81,44.72-112.29,54.21-40.34,8.14-79.89-7.94-116.62-21.42-49.57-18.73-98.83-48.29-119.6-95.9-18.63-43.91-30.37-91.95-24.58-139.18,11.9-59.89,70.44-100.04,85.11-158.96,13.31-53.49-2.09-112.99-41.54-154.34-36.73-38.99-89.23-60.75-129.25-96.28-24.16-21.33-40.54-50.45-42.16-81.55-5.64-61.96,27.34-120.74,70.29-166.33,28.86-29.61,58.86-60.51,99.4-76.4,28.91-11.55,53.48-31.2,71.49-54.93,10.8-14.88,16.07-32.35,24.63-48.29Zm40.96,60.9c-22.39,17.38-29.48,44.82-48.58,64.56l3.18-5.54c-29.48,14.68-29.43,61.96-1.62,78.13-13.51-21.81-19.2-49.87-2.24-71.59,3.91,10.16,8.87,20.03,15.76,28.84,2.09,10.88-5.06,26.24,6.68,33.6.89-15.12,1.1-30.18,3.03-45.16,12.26,15.21,21.5,33.27,38.2,45.06-.94-20.6,6-43.38-3.81-62.49,4.49-19.98,12.73-39.33,26.56-55.36,6.26-6.69,5.69-15.79,6.16-23.97-16.54-3.8-32.19,2.79-43.31,13.91Zm-160.09,189.24c-23.85,18.29-36.47,47.8-33.5,76.16,2.61,24.5,28.12,37.5,48.58,48.96,11.11-22.82,7.77-49.83,23.27-71.06,21.19-31.92,60.42-46.5,89.49-70.77,5.74-16.03-14.3-26.38-29.06-25.95-38.93-3.18-71.02,20.85-98.78,42.65Zm47.85,564.6c-18.11,5.58-26.35,23.78-30.32,39.62-5.74,36.44,11.43,76.59,46.6,95.66,16.7,7.08,43.73,6.21,50.88-12.47,6.31-21.66-16.33-35.96-28.07-51.51-14.87-18.44-2.09-42.08-5.69-62.73-6.05-11.41-21.86-12.37-33.4-8.57Z"/>
    <path class="cls-10" d="m353.27,3787.1c4.12-3.9,8.66-7.37,13.57-10.35-.47,6.69,2.24,14.3-1.72,20.51-6.47,1.4-8.61-6.69-11.84-10.16Z"/>
    <path class="cls-10" d="m393.19,3809.97c3.08-11.79,13.46-13.72,24.94-12.61,1.1,14.97-12.68,16.27-24.94,12.61Z"/>
  </g>
  <g>
    <path class="cls-13" d="m1499.87,3604.31c84.27-2.46,168.59-.48,252.92-1.11,9.13,1.3,22.59-3.18,27.34,6.88.94,21.18.99,42.46-.05,63.69-3.13,8.38-15.03,4.91-22.12,6.21-75.3.29-150.59-.34-225.89.29-13.41,13.96-26.87,27.83-39.92,42.08.78,1.83,2.24,5.44,2.97,7.27-11.79,1.83-22.12,7.51-30.68,15.02-5.69,10.35-9.71,21.33-13.67,32.35-11.95.24-23.85.43-35.74.58-2.45-10.93-2.77-22,.52-32.74,7.46-1.83,14.92-3.76,22.44-5.78,7.31-6.84,13.93-14.3,20.87-21.47,12.63-13.58,27.08-25.76,38.46-40.29,4.02-24.02-.26-48.77,2.56-72.98Z"/>
    <path class="cls-13" d="m562.25,3923.1c1.51-1.35,4.44-4,5.9-5.3,45.5-3.27,91.26-.34,136.87-1.35,21.19-.34,42.53-.63,63.4,3.18-.05,14.06.21,28.16.21,42.32-1.15,5.3.73,12.13-3.65,16.56-10.33,2.41-20.92,3.03-31.36,4.38,15.81,10.45,31.73,20.75,47.95,30.67,13.62-11.84,27.86-23.3,44.3-31.73,26.98-13.48,57.76-18.97,88.29-19.4,32.04-.1,64.02,6.74,92.36,20.7,27.19,14.35,49.31,35.77,64.23,61.19-14.98,6.79-40.34.1-45.66,18.63-2.24,9.48.31,23.01,12.42,25.42,8.87,1.44,18.05,1.49,26.98.1,12.11-1.73,11.79-15.41,16.54-23.16,30.79,73.75-10.38,164.84-89.96,194.92-25.2,9.77-52.49,14.06-79.78,12.9-25.41.34-50.72-3.95-74.1-13-35.06-14.92-63.5-40.97-81.61-72.26,8.77-4.96,16.49-11.27,23.79-17.86-10.91-.77-21.76-1.4-32.61-1.06-3.34-12.47-6.16-25.03-7.25-37.79,2.09-7.03,2.14-14.25.99-21.33-3.5-28.5,12.52-54.79,25.88-79.34-26.4-15.6-50.2-35.34-78.27-48.24-41.59-3.42-83.59.82-125.28-2.41-1.25-18.92-2.97-37.94-.57-56.76Z"/>
    <path class="cls-13" d="m578.06,3931.72c9.08.34,21.45-1.3,17.58,11.17-5.22,3.42-10.91,6.02-17.11,7.7-.16-4.72-.37-14.15-.47-18.87Z"/>
    <path class="cls-13" d="m1499.04,4372.84c8.19-2.98,17.22-2.65,25.88-3.61,1.72,4.96,3.44,10.16,5.32,15.26,8.92,24.46,32.72,40.29,50.09,59.55,1.62,1.49,4.9,4.48,6.52,5.97,16.49,1.44,33.29.19,49.15-4.38,1.77,1.06,5.27,3.13,7.04,4.19,62.82,1.11,125.7,0,188.58.43,7.57.72,18.26-1.59,21.86,6.93.78,22.77.89,45.69-.05,68.51-1.62,1.25-4.8,3.71-6.42,4.96-62.77,2.07-125.7.24-188.53.87-30.53-.77-61.31,2.21-91.58-2.5-.05-11.94-.05-23.83.21-35.67l-6.52-.05c4.17-11.07,6.99-22.48,9.81-33.8-3.18-.29-9.65-.87-12.89-1.16-19.05-19.06-36.21-40.25-60.53-54.01-13.46-6.45-10.91-25.9,2.04-31.48Z"/>
  </g>
  <g>
    <path class="cls-5" d="m358.65,3691.54c11.11-11.12,26.77-17.72,43.31-13.91-.47,8.18.1,17.28-6.16,23.97-13.83,16.03-22.07,35.38-26.56,55.36-1.25,6.5-2.09,13.09-2.4,19.79-4.9,2.98-9.44,6.45-13.57,10.35-7.62-10.88-16.65-20.89-27.03-29.56-.57,9.44-.94,18.92-1.1,28.4-6.89-8.81-11.84-18.68-15.76-28.84l.68-1.01c19.1-19.74,26.19-47.18,48.58-64.56Z"/>
    <path class="cls-5" d="m475.79,3713.15c29.38-15.26,68.04-24.94,98.67-6.88,47.17,24.94,59.9,77.27,78.11,120.69,9.6,33.31,31.36,61.62,52.44,89.5-45.61,1.01-91.37-1.93-136.87,1.35-1.46,1.3-4.38,3.95-5.9,5.3-2.4,18.82-.68,37.84.57,56.76,41.69,3.23,83.7-1.01,125.28,2.41,28.07,12.9,51.87,32.64,78.27,48.24-13.36,24.55-29.38,50.84-25.88,79.34-53.8,1.2-107.7.53-161.39-2.12-9.71-7.27-20.19-13.58-31.31-18.68-14.45-24.79-25.26-51.13-38.61-76.35-7.62-16.13-18.68-32.11-17.43-50.36-.68-11.75,2.04-28.21-12.26-33.99-11.64-3.27-24.52-3.37-36,.29-15.24,6.64-19.25,26.24-11.84,39.28,9.71,8.81,27.45,8.91,32.56,21.95,15.97,34.57,34.49,68.17,49.83,102.97,4.85,23.01,13.1,48.19,2.45,70.91-7.25,18.05-14.77,36.06-21.39,54.4-14.04-.05-28.07.29-42.06.72-1.98,19.98-1.93,40.1-.83,60.18,4.49.29,13.46.91,17.95,1.25-6.68,18.25-12.26,37.74-27.45,51.75-12.73,10.59-11.11,31.73,1.98,41.45,12.37,2.98,25.78,3.03,38.2,0,15.97-13,5.06-33.41,6.05-49.92,2.77-14.97,10.02-28.79,16.02-42.85,53.33-1.35,106.81,2.55,159.98-2.36.05-14.49,0-28.98-.16-43.42,30.21-15.74,60.11-32.06,90.79-47.08,18.11,31.29,46.54,57.34,81.61,72.26-29.79,9.05-61.21,11.84-91.37,19.3-38.67,9.39-69.03,35.19-95.44,61.62-25.2,23.97-32.35,58.4-54.27,84.54-20.14,29.08-50.35,50.5-84.69,63.69.1-7.8-1.04-16.08,2.92-23.16,9.18-9.29,23.12-.87,34.6-.87-7.62-8.67-18.84-15.41-31.15-10.4-15.76,4.48-16.65,21.28-16.38,33.94-3.29.77-9.91,2.26-13.2,3.03.68-13.19.83-31-14.92-36.92-11.9-1.2-23.85.53-35.69.63-.16,12.04-.21,24.12-.31,36.25-4.7-.19-14.09-.58-18.73-.77-1.04-11.79,2.97-27.63-9.71-35.24-12.37-6.21-24.99,1.16-35.53,6.88-34.44-26.14-46.49-71.88-34.54-110.82,13.36-53.63,53.33-96.38,91.89-136.48,11.79-14.35,29.69-31.1,22.02-50.69-11.64-29.13-42.74-46.7-72.74-57.34-36.79-12.61-67.68-37.45-87.92-68.26-11.84-17.67-19.72-41.26-8.87-60.85,16.12-25.32,46.6-38.37,75.87-46.65,22.8-7.94,49.73-18.92,57.82-42.03,3.39-24.26-2.14-48.72-1.77-73.08,2.56-.05,7.62-.14,10.12-.19-.68-12.85-.83-25.8-4.28-38.27,11.43-25.56,27.97-50.98,54.89-64.85Z"/>
    <path class="cls-5" d="m198.56,3880.78c27.76-21.81,59.85-45.83,98.78-42.65,14.77-.43,34.8,9.92,29.06,25.95-29.06,24.26-68.3,38.85-89.49,70.77-15.5,21.23-12.16,48.24-23.27,71.06-20.45-11.46-45.97-24.46-48.58-48.96-2.97-28.36,9.65-57.87,33.5-76.16Z"/>
    <path class="cls-5" d="m768.63,3961.95c19.1,6.55,38.14,13.19,57.24,19.88-16.44,8.42-30.68,19.88-44.3,31.73-16.23-9.92-32.14-20.22-47.95-30.67,10.44-1.35,21.03-1.97,31.36-4.38,4.38-4.43,2.5-11.27,3.65-16.56Z"/>
    <path class="cls-5" d="m560.27,4142.14c8.92-14.54,29.12-12.08,44.51-12.85,44.87.72,89.91-1.78,134.73,1.88,1.1,12.76,3.91,25.32,7.25,37.79-28.33,13.86-55.42,29.8-83.59,43.91-11.32,6.07-24.73,5.44-37.31,5.54-32.09-.34-64.18-.24-96.27-.24,10.18-25.32,16.54-52.23,30.68-76.02Z"/>
    <path class="cls-5" d="m246.41,4445.39c11.53-3.8,27.34-2.84,33.4,8.57,3.6,20.65-9.18,44.29,5.69,62.73,11.74,15.55,34.39,29.85,28.07,51.51-7.15,18.68-34.18,19.55-50.88,12.47-35.17-19.06-52.34-59.21-46.6-95.66,3.97-15.84,12.21-34.04,30.32-39.62Z"/>
    <path class="cls-5" d="m454.03,4463.25c25.78-14.15,36.06,31.63,10.33,35.67-19.2-.14-24.63-26.48-10.33-35.67Z"/>
  </g>
  <g>
    <path class="cls-8" d="m1271.38,3724.56c55.52-9.29,113.91-3.95,166.61,14.49-7.51,2.02-14.98,3.95-22.44,5.78-3.29,10.74-2.97,21.81-.52,32.74,11.9-.14,23.79-.34,35.74-.58,3.97-11.02,7.98-22,13.67-32.35,51.71,20.51,101.18,46.65,142.45,82.32,52.75,45.45,94.18,102.54,117.25,165.8,25.05,62.39,28.96,130.7,18.94,196.18-17.9,99.65-76.91,192.33-162.75,255.1-17.38-19.26-41.17-35.1-50.09-59.55,8.09-13.82,22.39-22.67,34.91-32.69,21.65-17.33,39.5-38.32,54.53-60.71-8.35-4.91-17.32-9.2-24.26-15.69,3.91-28.07,9.39-58.11,28.02-81.31,13.25.29,25.88,4.24,38.72,7.22,15.91-47.8,13.98-99.75,2.09-148.13-4.8-16.22-8.51-33.7-20.19-46.99-7.72,1.01-15.24,2.79-22.75,4.53-21.45-21.86-40.65-45.69-55.62-71.78,7.51-5.58,15.08-11.17,22.65-16.71-50.88-55.65-125.91-93.01-204.18-102.06-4.23,8.09-5.64,20.65-17.48,22.48-27.19,3.03-54.42-2.65-81.61-2.89-1.3-7.61-2.61-15.21-3.81-22.72-64.86,3.8-127.74,27.25-179.45,63.21,4.59,6.21,9.44,12.32,13.2,19.11-14.61,21.9-33.5,41.79-56.3,56.81-7.1-4.53-14.09-9.15-21.6-12.85-13.62,10.74-21.19,26.09-30.58,39.81-28.33-13.96-60.32-20.8-92.36-20.7.89-24.46,1.3-48.91-1.2-73.27l-.05-1.06c31.88-1.54,58.91-18.39,83.07-36.15,42.79-31.92,85.16-65.04,133.95-89.06,44.09-20.8,92.98-30.62,141.46-38.32Z"/>
    <path class="cls-8" d="m1437.15,3906.59c4.75-7.85,14.09-1.73,20.14,1.01,11.64,6.21,22.96,14.15,29.53,25.23-12.84,14.3-29.85,24.7-44.61,37.21-11.43-7.99-23.27-15.41-35.38-22.34,10.23-13.62,19.2-28.07,30.32-41.11Z"/>
    <path class="cls-8" d="m1471.23,3989.34c16.96-9.1,33.08-19.55,50.56-27.87,45.34,63.4,47.59,145.05,26.61,216.59-16.91.24-33.86-.34-50.72-1.44,7.98-26.04,14.92-53.2,8.87-80.3-4.07-37.6-20.45-72.26-35.33-106.97Z"/>
    <path class="cls-8" d="m911.28,4273.14c27.29,1.16,54.58-3.13,79.78-12.9,2.24-.29,6.68-.87,8.92-1.2,5.27,6.02,10.02,12.47,15.86,18.2,8.97-2.41,17.06-8.57,26.72-8.42,19.93,21.47,41.38,41.69,61.26,63.26-9.81,5.97-19.57,11.99-29.33,18.05,35.43,29.17,76.29,53.58,121.58,67.4,13.67,4.53,21.71-11.99,34.8-12.95,22.85-2.36,46.65-1.59,68.88,4.38,2.3,8.81,2.92,17.86,4.23,26.96,46.96.91,95.49-2.26,139.63-18.15-.94-9.82-10.02-20.41-6.37-29.46,21.86-16.46,48.84-26.09,72.43-40.34,6.11,6.35,11.79,13.24,15.24,21.28-8.66.96-17.69.63-25.88,3.61-12.94,5.58-15.5,25.03-2.04,31.48,24.32,13.77,41.48,34.95,60.53,54.01-47.8,30.81-102.64,53.73-160.4,62.25-1.98-7.7-3.65-15.36-6.37-22.72-13.2-4.38-30.11-6.16-41.85,2.12-3.24,9.2-1.04,19.11-.73,28.64-130.08,5.58-259.02-51.46-342.3-142.69-24.21-26.67-57.4-45.59-94.34-52.86-.73-19.98-.78-39.96-.26-59.94Z"/>
  </g>
  <path class="cls-12" d="m1101.79,3880.25c51.71-35.96,114.59-59.41,179.45-63.21,1.2,7.51,2.5,15.12,3.81,22.72,27.19.24,54.42,5.92,81.61,2.89,11.84-1.83,13.25-14.39,17.48-22.48,78.27,9.05,153.3,46.41,204.18,102.06-7.57,5.54-15.13,11.12-22.65,16.71,14.98,26.09,34.18,49.92,55.62,71.78,7.51-1.73,15.03-3.51,22.75-4.53,11.69,13.29,15.39,30.76,20.19,46.99,11.9,48.38,13.83,100.33-2.09,148.13-12.84-2.98-25.46-6.93-38.72-7.22-18.63,23.2-24.11,53.24-28.02,81.31,6.94,6.5,15.91,10.78,24.26,15.69-15.03,22.39-32.87,43.38-54.53,60.71-12.52,10.01-26.82,18.87-34.91,32.69-1.88-5.1-3.6-10.3-5.32-15.26-3.44-8.04-9.13-14.92-15.24-21.28-23.59,14.25-50.56,23.88-72.43,40.34-3.65,9.05,5.43,19.64,6.37,29.46-44.14,15.89-92.67,19.06-139.63,18.15-1.3-9.1-1.93-18.15-4.23-26.96-22.23-5.97-46.02-6.74-68.88-4.38-13.1.96-21.13,17.48-34.8,12.95-45.29-13.82-86.15-38.22-121.58-67.4,9.76-6.07,19.52-12.08,29.33-18.05-19.88-21.57-41.33-41.79-61.26-63.26-9.65-.14-17.74,6.02-26.72,8.42-5.84-5.73-10.59-12.18-15.86-18.2-2.24.34-6.68.91-8.92,1.2,79.57-30.09,120.74-121.17,89.96-194.92,14.45-13.38,32.98-21.81,49.68-32.4,8.24-4.43,16.38-11.02,26.56-10.21,50.67,2.12,101.39.67,152.1,1.25,17.32-.24,35.17.96,52.02-3.66,2.14-18.63.57-37.45,1.1-56.13-32.87-7.12-66.79-3.32-100.13-4.14-37.67.67-75.56-2.17-112.97,2.89-.21,11.27-.26,22.53-.26,33.84-25.83,16.32-52.39,31.53-78.37,47.56-14.92-25.42-37.05-46.84-64.23-61.19,9.39-13.72,16.96-29.08,30.58-39.81,7.51,3.71,14.51,8.33,21.6,12.85,22.8-15.02,41.69-34.9,56.3-56.81-3.76-6.79-8.61-12.9-13.2-19.11Zm335.36,26.33c-11.11,13.05-20.09,27.49-30.32,41.11,12.11,6.93,23.95,14.35,35.38,22.34,14.77-12.52,31.78-22.92,44.61-37.21-6.57-11.07-17.9-19.02-29.53-25.23-6.05-2.74-15.39-8.86-20.14-1.01Zm34.07,82.76c14.87,34.71,31.26,69.37,35.33,106.97,6.05,27.1-.89,54.26-8.87,80.3,16.85,1.11,33.81,1.68,50.72,1.44,20.98-71.54,18.73-153.19-26.61-216.59-17.48,8.33-33.6,18.78-50.56,27.87Z"/>
  <g>
    <path class="cls-11" d="m431.65,3967.92c-7.41-13.05-3.39-32.64,11.84-39.28,11.48-3.66,24.37-3.56,36-.29,14.3,5.78,11.58,22.24,12.26,33.99-1.25,18.25,9.81,34.23,17.43,50.36,13.36,25.23,24.16,51.56,38.61,76.35,11.11,5.1,21.6,11.41,31.31,18.68,53.69,2.65,107.59,3.32,161.39,2.12,1.15,7.08,1.1,14.3-.99,21.33-44.82-3.66-89.85-1.16-134.73-1.88-15.39.77-35.59-1.68-44.51,12.85-14.14,23.78-20.51,50.69-30.68,76.02-11.53-.05-23.06-.1-34.49,0,6.63-18.34,14.14-36.35,21.39-54.4,10.64-22.72,2.4-47.9-2.45-70.91-15.34-34.81-33.86-68.41-49.83-102.97-5.11-13.05-22.85-13.14-32.56-21.95Z"/>
    <path class="cls-11" d="m1149.38,3962.91c37.41-5.05,75.3-2.21,112.97-2.89,33.34.82,67.26-2.98,100.13,4.14-.52,18.68,1.04,37.5-1.1,56.13-16.85,4.62-34.7,3.42-52.02,3.66-50.72-.58-101.44.87-152.1-1.25-10.18-.82-18.32,5.78-26.56,10.21-16.7,10.59-35.22,19.02-49.68,32.4-4.75,7.75-4.44,21.42-16.54,23.16-8.92,1.4-18.11,1.35-26.98-.1-12.11-2.41-14.66-15.93-12.42-25.42,5.32-18.53,30.68-11.84,45.66-18.63,25.99-16.03,52.55-31.24,78.37-47.56,0-11.31.05-22.58.26-33.84Zm26.46,6.64c-1.67,13.91-1.36,27.92-.05,41.88,2.04-6.5,3.81-13.09,5.64-19.59,5.95-.05,12-.1,18.05-.1,1.41,6.55,2.92,13.09,4.59,19.69,2.4-13.77,4.9-28.69-1.04-41.93-.68,4.33-1.93,13-2.56,17.33h-18.99c-1.41-6.02-1.88-12.13-5.64-17.28Zm40.07,1.68c-.63,13.58-1.46,27.25.68,40.78,7.46-12.42,3.44-26.91,3.55-40.29l-4.23-.48Zm34.44,8.62c7.04-1.4,14.14-2.79,21.29-4.19-.26,13.43-12.16,22.29-20.14,32.3,8.35.1,16.75.19,25.2.39-.1-1.11-.42-3.32-.57-4.38-3.5.24-10.54.82-14.04,1.06,4.85-8.86,16.18-16.46,14.61-27.39-5.53-9.87-20.45-4.67-26.35,2.21Zm37.88-8.23c-2.5,11.36-9.76,31.48,5.79,36.78,17.32,3.61,15.29-16.75,14.45-26.77,1.36-11.12-13.04-7.94-20.25-10.01Zm32.72,1.88c-4.75,9.29-3.5,20.22-3.34,30.33,4.7,6.69,14.3,3.56,21.55,4.81.16-12.08.1-24.07.1-36.06-6.16.05-12.26.34-18.32.91Zm-95.23,17.86c4.38,3.23,13.25,9.72,17.64,12.95-4.9-.14-14.82-.48-19.78-.63,6.73,4.04,14.82,4.43,22.59,5.63.83-8.76-4.07-15.41-11.22-20.6,3.29-1.44,9.81-4.38,13.1-5.83-9.65-1.68-18.94-1.3-22.33,8.47Z"/>
    <path class="cls-11" d="m1292.46,3975.62c16.8-1.54,13.46,18.34,9.34,27.78-16.49,6.79-12.73-19.3-9.34-27.78Z"/>
    <path class="cls-11" d="m1325.18,3977.26c8.51-2.46,11.38.24,8.56,8.04-8.66,2.41-11.48-.29-8.56-8.04Z"/>
    <text/>
    <path class="cls-11" d="m470.16,4280.31c11.58.48,23.17.43,34.8.43-6,14.06-13.25,27.87-16.02,42.85-.99,16.51,9.91,36.92-6.05,49.92-12.42,3.03-25.83,2.98-38.2,0-13.1-9.72-14.71-30.86-1.98-41.45,15.18-14.01,20.77-33.51,27.45-51.75Z"/>
  </g>
  <path class="cls-11" d="m1215.91,3971.24l4.23.48c-.1,13.38,3.91,27.87-3.55,40.29-2.14-13.53-1.3-27.2-.68-40.78Z"/>
  <path class="cls-7" d="m385.52,4482.89c8.04-4.24,30.68-5.63,22.91,8.67-6.47,14.35-35.74,6.16-22.91-8.67Z"/>
  <text class="cls-4" transform="translate(787.59 4148.24)"><tspan x="0" y="0">NaAc</tspan></text>
  <text class="cls-3" transform="translate(1169.49 4012.02)"><tspan x="0" y="0">His208</tspan></text>
  <text class="cls-6" transform="translate(1171.03 4281.24)"><tspan x="0" y="0">Nauhate</tspan></text>
  <text class="cls-3" transform="translate(1423.85 4656.37)"><tspan x="0" y="0">Leu307</tspan></text>
  <text class="cls-3" transform="translate(1624.86 4509.77)"><tspan x="0" y="0">Val207</tspan></text>
  <text class="cls-3" transform="translate(1552.56 3661.18)"><tspan x="0" y="0">Val209</tspan></text>
  <path class="cls-10" d="m271.78,3804.76c3.1-1.9,4.86-4.52,6.16-7.86,1.11-2.85,1.28-6.33,5.17-4.84,3.61,1.39,6.49,5.86,8.83,8.74,3.26,4.01,6.23,8.22,9.05,12.55l9.42-7.27c-7.43-6.51-13.9-13.83-19.31-22.11l-8.21,8.21c6.88,5.06,12.79,11.28,17.58,18.34l9.42-7.27c-5.64-6.75-12.01-12.54-19.09-17.75-5.53-4.07-12.14,4.8-7.27,9.42,9.23,8.78,18.47,17.56,27.7,26.34,5.62,5.34,13.69-2.79,8.49-8.49-10.32-11.27-23.03-19.6-37.32-24.94-5.86-2.19-9.76,6.01-5.84,10.03,9.48,9.72,19.47,18.88,29.97,27.5l7.27-9.42c-10.91-6.24-21.81-12.47-32.72-18.71l-6.06,10.36c11.86,6.64,23.28,14.06,34.03,22.38l7.27-9.42c-12.71-7.66-25.42-15.32-38.13-22.97l-4.62,10.97c7.27,2.59,13.58,7.26,19.89,11.6,7.06,4.86,14.12,9.72,21.19,14.58l6.06-10.36c-13.23-7.94-25.41-17.25-36.54-27.93v8.49l.84-.65-4.24,1.76c1.35-.17,3.39,2.04,4.5,2.88,2.35,1.77,4.7,3.54,7.04,5.31,4.43,3.34,8.87,6.68,13.3,10.02,4.81,3.63,11.45-3.43,8.21-8.21-5.85-8.63-11.71-17.26-17.56-25.9-2.93-4.32-5.85-8.63-8.78-12.95-2.04-3.01-7.89-8.98-6.93-12.9l-5.79,4.4c1.78.12,3.84,4.83,4.69,6.15,1.98,3.06,3.95,6.12,5.93,9.18,3.78,5.84,7.55,11.68,11.33,17.52,4.17,6.46,14.5.52,10.36-6.06-3.61-5.74-7.1-11.55-10.44-17.46-1.52-2.68-3-5.39-4.45-8.11s-4.05-6.17-2.87-9.41l-10.97,1.43c6.9,11.27,13.6,22.66,20.13,34.15,3.92,6.91,13.29.84,10.36-6.06-5.07-11.93-17.74-22.32-17.77-35.93l-9.03,5.18c5.3,3.69,7.9,11.85,10.75,17.37,3.46,6.72,6.93,13.44,10.39,20.17l10.36-6.06c-8.16-10.99-16.38-22.21-18.94-35.94l-10.97,4.62c7.71,13.62,15.42,27.24,23.14,40.86l9.42-7.27c-7.65-7.72-14.47-16.06-20.46-25.13l-10.36,6.06c6.83,9.63,13.73,19.22,20.7,28.75,5.59,7.63,11.05,15.62,19.63,20.14,6.03,3.17,11.97-4.36,7.27-9.42-13.17-14.2-24.08-30.13-32.7-47.47l-6.78,8.81c1.24.51,2.29,1.48,3.05,2.56l9.42-7.27c-2.84-2.34-3.98-5.08-2.92-8.68h-11.57c1.15,5.03,2.31,10.05,3.46,15.08l11.57-3.19-7.37-22.34-10.97,4.62,9.55,21.17,10.36-6.06c-2.97-6.51-5.42-13.19-7.49-20.04l-11.57,3.19c2.64,7.15,5.29,14.29,7.93,21.44l10.97-4.62c-2.78-6.25-4.67-12.8-5.94-19.51l-11.57,3.19,5.15,15.81,11.57-3.19c-2.34-6.93-2.33-13.57.03-20.5l-11.79-1.6c.19,5.01-.13,9.87-1.14,14.79l11.57,3.19c.89-5.06,1.79-10.11,2.68-15.17l-11.79-1.6c-.82,7.02-1.64,14.04-2.46,21.05s9.78,7.69,11.79,1.6c2.29-6.95,3.29-14.16,2.98-21.47l-11.79,1.6c1.23,4.06,1.52,7.81.62,11.98l11.79,1.6c.47-4.31.94-8.62,1.4-12.93.7-6.44-8.18-7.42-11.18-3.03-1.59,2.33-2.09,4.52-2.4,7.27-.66,5.7,6.73,7.18,10.24,4.24,2.53-2.12,3.94-4.58,5.03-7.67l-11.79-1.6c-.01.69-.24,1.29-.68,1.81-3.93,4.83,1.23,13.67,7.27,9.42,4.84-3.4,6.65-7.89,5.62-13.7-.74-4.2-7.32-6.08-10.03-2.65-3.55,4.5-4.87,9.21-5.22,14.89-.26,4.29.92,10.78-2.02,14.4-4.83,5.94,3.61,14.48,8.49,8.49,3.6-4.43,4.94-9.16,5.3-14.82.27-4.27-.93-10.83,1.94-14.47l-10.03-2.65-.1.15,7.27,9.42c2.59-3.19,3.85-6.19,4.19-10.29.59-7.12-9.65-7.6-11.79-1.6-.35,1.04-1,1.83-1.95,2.37l10.24,4.24.77-1.22-11.18-3.03c-.47,4.31-.94,8.62-1.4,12.93-.73,6.72,10.37,8.16,11.79,1.6,1.34-6.22,1.23-12.25-.62-18.36s-12.08-5.38-11.79,1.6c.27,6.34-.56,12.25-2.55,18.28l11.79,1.6c.82-7.02,1.64-14.04,2.46-21.05s-10.61-8.25-11.79-1.6c-.89,5.06-1.79,10.11-2.68,15.17-1.33,7.5,9.99,10.82,11.57,3.19,1.23-5.95,1.81-11.91,1.57-17.98-.26-6.87-9.6-8.01-11.79-1.6-2.99,8.77-3,18.11-.03,26.88,2.46,7.27,13.98,4.2,11.57-3.19l-5.15-15.81c-2.41-7.41-12.99-4.36-11.57,3.19s3.93,15.15,7.15,22.38c2.74,6.15,13.33,1.76,10.97-4.62-2.64-7.15-5.29-14.29-7.93-21.44s-13.84-4.32-11.57,3.19,5.3,15.45,8.7,22.91c3.2,7.03,13.51.93,10.36-6.06s-6.37-14.12-9.55-21.17c-2.79-6.18-13.08-1.8-10.97,4.62,2.46,7.45,4.91,14.89,7.37,22.34s13.31,4.37,11.57-3.19c-1.15-5.03-2.31-10.05-3.46-15.08-1.36-5.94-9.96-5.48-11.57,0-2.17,7.37.01,15.43,6.01,20.36,4.83,3.98,13.64-1.24,9.42-7.27-2.72-3.9-5.86-6.28-10.22-8.08-5.29-2.18-8.84,4.67-6.78,8.81,9.06,18.23,20.73,34.98,34.58,49.9l7.27-9.42c-7.81-4.11-12.59-12.08-17.65-19.01-6.18-8.48-12.31-17.01-18.38-25.57-4.4-6.21-14.67-.47-10.36,6.06,6.54,9.9,13.99,19.13,22.34,27.56,4.82,4.87,12.78-1.34,9.42-7.27-7.71-13.62-15.42-27.24-23.14-40.86-3.51-6.2-12.17-1.81-10.97,4.62,2.74,14.73,11.39,27.02,20.15,38.81,4.53,6.1,13.98.96,10.36-6.06-4.04-7.84-8.08-15.68-12.13-23.53-3.58-6.95-6.73-13.72-13.32-18.32-3.82-2.66-9.04.9-9.03,5.18.04,16.65,13.29,27.59,19.41,41.99l10.36-6.06c-6.52-11.49-13.23-22.88-20.13-34.15-2.84-4.64-9.23-3.33-10.97,1.43-2.84,7.8,2.22,15.29,5.84,21.91,4.14,7.58,8.53,15.01,13.13,22.31l10.36-6.06c-5.21-8.07-10.43-16.13-15.64-24.2-4.28-6.62-7.94-14.02-16.67-14.6-2.54-.17-5.19,1.98-5.79,4.4-2.74,11.18,7.82,21.67,13.63,30.24,6.95,10.25,13.9,20.5,20.85,30.75l8.21-8.21c-6.52-4.91-13.04-9.83-19.57-14.74-5.36-4.04-10.33-7.43-16.43-2.69-2.53,1.97-2.11,6.46,0,8.49,11.84,11.36,24.9,21.36,38.96,29.8,6.7,4.03,12.34-6.03,6.06-10.36-13.91-9.57-27.88-21.67-43.94-27.39-6.55-2.33-10.3,7.54-4.62,10.97,12.71,7.66,25.42,15.32,38.13,22.97,5.67,3.41,12.77-5.17,7.27-9.42-11.58-8.96-23.68-17.1-36.46-24.26-6.74-3.78-12.77,6.52-6.06,10.36,10.91,6.24,21.81,12.47,32.72,18.71,5.7,3.26,12.7-4.97,7.27-9.42-10.49-8.62-20.48-17.78-29.97-27.5l-5.84,10.03c12.35,4.61,23.14,12.15,32.02,21.85l8.49-8.49c-9.23-8.78-18.47-17.56-27.7-26.34l-7.27,9.42c6.22,4.58,11.72,9.96,16.66,15.88,4.34,5.2,13.25-1.64,9.42-7.27-6.02-8.86-13.27-16.31-21.89-22.65-4.88-3.59-11.37,3.38-8.21,8.21,5.96,9.11,13,17.36,21.19,24.54,4.86,4.26,13.35-1.25,9.42-7.27-3.54-5.43-7.37-10.67-11.49-15.67-3.71-4.51-7.77-9.29-13.51-11.16-4.87-1.58-10.62-.95-14.46,2.65-1.82,1.7-2.96,3.76-3.88,6.05-.57,1.4-.99,4.44-2.29,5.25-6.57,4.03-.55,14.41,6.06,10.36h0Z"/>
  <path class="cls-10" d="m330.38,3797.27c-2.74-2.06-5.12-4.51-7.34-7.12-3.75-4.42-12.26.3-10.03,5.84,4.33,10.75,7.66,21.81,9.99,33.16l11.57-3.19c-2.75-11.07-6.53-21.75-11.16-32.17l-3.59,8.81.97-.2-4.62-.6c.92.57,1.71,3.14,2.28,4.21.86,1.61,1.69,3.23,2.49,4.87,1.77,3.64,3.37,7.34,4.79,11.13,2.16,5.77,3.53,12.11,8.37,16.31,3.14,2.73,7.03,2.03,9.42-1.21,4.06-5.51-1.66-13.87-4.2-18.94-3.49-6.96-7.55-13.59-12.05-19.95l-6.78,8.81c-.91-.23,1,1.24,1.42,1.8.92,1.21,1.81,2.44,2.72,3.66,1.81,2.44,3.62,4.88,5.43,7.33,4.5,6.08,14.79.41,10.36-6.06-5.01-7.3-10.57-14.15-16.77-20.48l-5.84,10.03c1.68.41,2.58.94,3.12,2.67l10.97-4.62c-2.63-3.4-4.67-6.96-6.02-11.06l-10.03,5.84c2.55,2.93,4.67,6.22,6.14,9.82l10.97-4.62-5.91-9.67c-3.74-6.12-12.01-1.86-10.97,4.62.64,4,1.93,7.57,3.71,11.2,3.41,6.93,13.76.85,10.36-6.06-1.32-2.68-2.03-5.4-2.5-8.33l-10.97,4.62,5.91,9.67c3.39,5.54,13.64,1.9,10.97-4.62-2.31-5.64-5.22-10.51-9.23-15.11s-11.86.26-10.03,5.84c1.66,5.06,3.97,9.7,7.23,13.92,3.81,4.93,13.18,2.48,10.97-4.62-1.74-5.59-5.75-9.65-11.5-11.05s-10.1,5.67-5.84,10.03c5.49,5.61,10.45,11.58,14.89,18.05l10.36-6.06c-2.72-3.66-5.43-7.33-8.15-10.99-2.42-3.27-4.44-6.28-8.59-7.31-4.69-1.17-9.96,4.33-6.78,8.81s6.36,9.42,9.12,14.39c1.31,2.35,2.55,4.74,3.73,7.16.52,1.08,1.03,2.16,1.53,3.25.39.85.77,1.71,1.14,2.57.4,1.43.65,1.23.74-.6l9.42-1.21c-2.96-2.57-3.66-6.61-4.96-10.16-1.54-4.19-3.27-8.33-5.15-12.38-3.05-6.57-6.74-18.17-15.84-16.26-4.15.87-5.04,5.53-3.59,8.81,4.2,9.45,7.46,19.27,9.95,29.3,1.87,7.54,13.11,4.32,11.57-3.19-2.33-11.36-5.66-22.41-9.99-33.16l-10.03,5.84c2.92,3.43,6.17,6.3,9.77,9,6.17,4.64,12.16-5.77,6.06-10.36h0Z"/>
  <path class="cls-10" d="m368.95,3811.26l-8.14-13.19c-4.07-6.6-13.9-.8-10.36,6.06,1.7,3.29,3.4,6.58,5.1,9.87l9.42-7.27c-3.69-4.03-7.77-7.51-12.19-10.72l-6.06,10.36c4.98,3.52,9.97,7.04,14.95,10.56,1.54-3.66,3.08-7.31,4.62-10.97-5.71-1.65-11.24-3.65-16.63-6.16l-1.43,10.97c2.13-.39,4.2.22,5.83,1.62,5.79,4.98,14.13-3.08,8.49-8.49-3.51-3.36-7.36-6.29-11.56-8.74l-3.03,11.18c4.51.47,8.9.06,13.3-1.05,4.85-1.22,6.04-8.59,1.43-10.97s-9.02-3.4-13.99-2.85l1.6,11.79c2.82-.58,5.65-1.17,8.47-1.75l-5.84-10.03c-1.26,1.3-2.06,1.5-3.84,1.75l5.84,10.03c1.61-1.79,3.26-3.16,5.55-3.99,7.15-2.6,4.37-13.67-3.19-11.57-4.09,1.14-7.47,3.09-10.57,5.97l8.49,8.49c2.11-2.32,4.23-4.64,6.34-6.96,4.71-5.17-1.15-12.34-7.27-9.42-3.2,1.53-5.49,3.81-7.27,6.85-3.68,6.28,4.36,11.27,9.42,7.27,1.45-1.15,2.91-2.3,4.36-3.45,4.07-3.22.68-10.54-4.24-10.24s-7.75,4.13-6.69,8.98c.45,2.04,2.26,3.62,4.19,4.19,2.6.77,4.42.44,6.72-.88l-9.03-5.18c1.16,9.93,7.99,16.76,17.93,17.91,4.34.5,7.74-5.55,5.18-9.03-2.12-2.89-4.24-5.77-6.35-8.66-4.52-6.16-13.86-.97-10.36,6.06s6.01,14.56,7.64,22.33l11.57-3.19c-2.93-7.81-5.07-15.79-6.45-24.02l-10.97,4.62c4.47,9.96,7.44,20.46,9.2,31.22l10.97-4.62c-4.61-8.25-7.32-17.17-7.93-26.61l-11.18,3.03c2.85,6.74,5.08,13.72,6.89,20.8,1.93,7.55,13.03,4.32,11.57-3.19-1.67-8.6-2.75-17.23-3.27-25.97l-11.79,1.6c.36,1.72-.03,2.67-.92,4.12l11.18,3.03c.64-5.54,1.29-11.08,1.93-16.62h-12c-.38,3.73-1.33,7.42-2.84,10.86l10.97,4.62c1.21-4.32,2.68-8.45,4.59-12.51,3.24-6.89-6.31-12.78-10.36-6.06-1.8,2.99-3.6,5.98-5.4,8.97-3.41,5.67,5.16,12.76,9.42,7.27,4.59-5.91,6.22-12.05,5.02-19.47-.82-5.04-8.78-5.86-10.97-1.43-1.21,2.45-2.41,4.89-3.62,7.34l10.97,4.62c1.42-4.78,2.85-9.55,4.27-14.33l-11.79-1.6c-.23,2.7-.45,5.4-.68,8.1h12c-.48-18.5,6.25-36.31,19.04-49.72,5.33-5.59-3.14-14.09-8.49-8.49-14.91,15.64-23.11,36.58-22.55,58.21.2,7.82,11.36,7.62,12,0,.23-2.7.45-5.4.68-8.1.58-6.92-9.91-7.88-11.79-1.6-1.42,4.78-2.85,9.55-4.27,14.33-1.9,6.39,7.92,10.82,10.97,4.62,1.21-2.45,2.41-4.89,3.62-7.34l-10.97-1.43c.43,2.67-.26,5.65-1.93,7.79l9.42,7.27c1.8-2.99,3.6-5.98,5.4-8.97l-10.36-6.06c-2.34,4.98-4.31,10.07-5.8,15.38-1.77,6.34,8.17,11,10.97,4.62,2.42-5.52,3.87-10.92,4.48-16.92.78-7.71-11.12-7.56-12,0-.64,5.54-1.29,11.08-1.93,16.62-.73,6.25,8.32,7.68,11.18,3.03,2.58-4.2,3.13-8.59,2.13-13.36-1.37-6.57-12.19-5.17-11.79,1.6.59,9.8,1.83,19.52,3.7,29.16l11.57-3.19c-2.08-8.13-4.84-15.94-8.1-23.67-2.33-5.52-11.54-2.65-11.18,3.03.74,11.58,3.89,22.53,9.56,32.67,3.54,6.32,12,1.73,10.97-4.62-1.93-11.85-5.5-23.14-10.41-34.09-2.99-6.66-12-1.54-10.97,4.62,1.38,8.23,3.52,16.21,6.45,24.02,2.69,7.18,13.18,4.46,11.57-3.19-1.84-8.8-4.85-17.15-8.85-25.2l-10.36,6.06c2.12,2.89,4.24,5.77,6.35,8.66l5.18-9.03c-2.87-.33-5.59-3.04-5.93-5.91-.51-4.39-4.73-7.64-9.03-5.18l-1.03.59,4.62-.6-1.06-.32,4.19,4.19-.16-.71-.6,4.62.41-.63-5.18,2.97.66-.04-4.24-10.24c-1.45,1.15-2.91,2.3-4.36,3.45l9.42,7.27c.83-1.42,1.49-1.84,2.97-2.55l-7.27-9.42c-2.11,2.32-4.23,4.64-6.34,6.96-5.2,5.71,2.8,13.76,8.49,8.49,1.61-1.49,3.17-2.3,5.28-2.89l-3.19-11.57c-4.21,1.53-7.83,3.72-10.84,7.08-4.29,4.78.05,10.82,5.84,10.03,3.65-.5,6.6-2.21,9.14-4.83,4.33-4.47-.08-11.22-5.84-10.03-2.82.58-5.65,1.17-8.47,1.75-6.52,1.35-5.18,12.53,1.6,11.79,2.9-.32,5.32-.14,7.93,1.21l1.43-10.97c-3.41.86-6.6.98-10.11.62-6.15-.64-7.84,8.37-3.03,11.18,3.37,1.97,6.31,4.17,9.13,6.86l8.49-8.49c-5.13-4.42-10.86-5.92-17.51-4.71-4.91.9-6.01,8.84-1.43,10.97,6.32,2.94,12.79,5.43,19.5,7.37s9.96-7.2,4.62-10.97c-4.98-3.52-9.97-7.04-14.95-10.56-6.34-4.48-12.24,5.88-6.06,10.36,3.58,2.6,6.77,5.58,9.76,8.84,4.77,5.2,12.45-1.41,9.42-7.27-1.7-3.29-3.4-6.58-5.1-9.87l-10.36,6.06c2.71,4.4,5.43,8.79,8.14,13.19,4.05,6.56,14.43.54,10.36-6.06h0Z"/>
  <path class="cls-10" d="m389.07,3821.77l-.96.5,4.62-.6-1.1-.42,3.59,2.76c-1.91-3.08-1.48-9.28-1.58-12.8-.14-4.58.04-9.2.64-13.75,1.22-9.2,4.05-18.17,8.19-26.46l-10.97-1.43c2.64,9.12,1.2,19.59.41,28.92-.86,10.24-2.38,20.38-4.41,30.45l10.97-1.43c-1.83-4.09-1.93-8.88-2.35-13.27-.54-5.53-1.03-11.08-1.26-16.63-.21-5.21-.21-10.43.21-15.63.34-4.24.47-9.94,3.58-13.2l-10.03-2.65c2.82,18.33-2.37,36.84-.6,55.25.6,6.19,10.45,8.77,11.79,1.6,1.52-8.15,2.75-16.36,3.66-24.61.43-3.86.78-7.72,1.06-11.59.14-1.93.25-3.87.36-5.81.06-1.08.92-4.09-.2-3.26l-9.03-5.18c1.54,16.39.3,32.76-1.06,49.11h12c.16-9.07.32-18.14.88-27.2.28-4.52.61-9.05,1.17-13.55.38-3.11.6-6.71,2.8-9.13l-10.24-4.24c-.54,15.61-1.84,31.19-4.02,46.66l11.79,1.6c1.67-14.56,4.21-28.99,7.51-43.27l-11.79-1.6c-.6,10.67-2.37,21.08-5.69,31.25l11.57,3.19c2.83-10.52,6.08-20.91,9.75-31.17l-11.57-3.19c-1.06,6.45-2.69,12.7-4.9,18.84l11.79,1.6c.19-5.24,1.32-10.13,3.21-15.01l-11.57-3.19c-.92,4.83-2.05,9.6-3.38,14.33l11.79,1.6c.06-2.59.56-4.74,1.75-7.05l-10.97-4.62c-1.02,3.48-2.04,6.97-3.06,10.45l11.79,1.6c-.16-2.06-.33-4.12-.49-6.18-.42-5.24-8.58-9.03-11.18-3.03s-3.36,12.4-2.72,19.16,2.25,13.48,1.21,20.15h11.57c-1.59-7.06-3.59-13.98-6.02-20.8s-10.94-5.03-11.79,1.6c-1.51,11.75.59,23.19,5.48,33.92,2.94,6.45,12.36,1.7,10.97-4.62-1.13-5.14-2.26-10.29-3.39-15.43s-8.45-5.72-10.97-1.43c-1.36,2.32-1.96,4.66-2.09,7.34-.06,1.13.08,2.25.05,3.38-.02.82-.6,2.36.17,1.8-6.2,4.48-.22,14.89,6.06,10.36,2.84-2.05,4.65-4.38,5.4-7.84.59-2.75-.6-6.61.78-8.98l-10.97-1.43c1.13,5.14,2.26,10.29,3.39,15.43l10.97-4.62c-4.02-8.82-5.07-18.31-3.84-27.87l-11.79,1.6c2.42,6.82,4.43,13.74,6.02,20.8,1.24,5.52,10.64,5.93,11.57,0,.99-6.28.55-12.21-.22-18.49-.72-5.8-1.88-12.39.53-17.94l-11.18-3.03c.16,2.06.33,4.12.49,6.18.52,6.55,9.8,8.38,11.79,1.6,1.02-3.48,2.04-6.97,3.06-10.45,1.88-6.42-7.81-10.76-10.97-4.62-2.16,4.2-3.27,8.37-3.39,13.11-.17,6.82,9.96,8.07,11.79,1.6,1.33-4.73,2.46-9.5,3.38-14.33,1.47-7.67-8.79-10.36-11.57-3.19-2.28,5.86-3.41,11.92-3.64,18.2-.26,7.11,9.6,7.68,11.79,1.6s3.84-12.4,4.9-18.84c1.25-7.57-8.94-10.56-11.57-3.19-3.67,10.26-6.92,20.65-9.75,31.17-2.02,7.5,9.18,10.5,11.57,3.19,3.65-11.16,5.46-22.74,6.12-34.44.38-6.74-10.26-8.18-11.79-1.6-3.54,15.33-6.15,30.83-7.94,46.46-.76,6.65,10.84,8.29,11.79,1.6,2.34-16.54,3.87-33.15,4.45-49.85.18-5.09-6.76-8.07-10.24-4.24-6.22,6.83-6.36,16.6-7.07,25.35-.9,10.98-1.09,22-1.29,33.01-.14,7.82,11.37,7.59,12,0,1.36-16.35,2.61-32.73,1.06-49.11-.38-4.01-5-8.15-9.03-5.18-7.07,5.21-5.68,14.45-6.33,22.33-.83,10.11-2.21,20.13-4.07,30.1l11.79,1.6c-1.88-19.54,3.17-38.92.17-58.44-.7-4.54-7.16-5.65-10.03-2.65-8.36,8.76-7.71,24.09-7.38,35.35.2,6.87.84,13.71,1.52,20.54.6,6.08,1.28,11.75,3.8,17.38,2.09,4.66,9.99,3.41,10.97-1.43,2.25-11.11,3.89-22.35,4.84-33.64.88-10.5,2.13-21.85-.84-32.11-1.36-4.69-8.58-6.21-10.97-1.43-6.15,12.33-9.76,25.6-10.41,39.38-.36,7.63-1.16,35.44,13.44,27.81,6.85-3.58.79-13.94-6.06-10.36h0Z"/>
  <path class="cls-5" d="m320.93,3757.18c.12,8.92,2.15,17.19,5.9,25.26,2.44,5.25,11.85,2.83,11.18-3.03-.93-8.14-1.85-16.29-2.78-24.43-.86-7.53-12.68-7.77-12,0,.84,9.65,1.33,19.31,1.46,28.99.1,7.72,11.86,7.73,12,0,.12-6.58-.09-13.14-.65-19.7h-12c.71,7.79,1.14,15.6,1.27,23.42l11.79-1.6-2.66-17.39c-.88-5.72-10.71-5.74-11.57,0-.5,3.35-.78,6.55-.51,9.94l6-6-1.58-.17c-4.31-.45-6.29,4.18-5.79,7.6.67,4.53,2.14,8.65,4.24,12.71,2.75,5.32,11.32,2.79,11.18-3.03-.3-12.64-6.37-23.44-13.33-33.63-2.65-3.88-9.92-4.03-10.97,1.43-1.15,6.01.16,11.11,2.39,16.7,1.9,4.78,3.47,9.94,6.24,14.31,5.02,7.9,15.44,13.37,24.23,7.89,3.39-2.11,5.21-5.68,8.84-7.19,4.66-1.94,7.25-6.17,5.01-11.11-1.83-4.06-6.21-4.33-8.27-7.98s-4.21-6.54-8.38-7.62c-3.51-.91-7.92,1.8-7.6,5.79.47,5.82.19,11.46-1.05,17.16h11.57c-1.64-6.58-2.94-13.22-3.73-19.95-.88-7.46-12.01-7.93-12,0,0,6.27.01,12.54.02,18.8h12c-.23-6.22-.45-12.44-.68-18.67-.28-7.69-12.06-7.76-12,0s.11,15.74.17,23.61c.05,6.52,10.62,8.47,11.79,1.6.6-3.53.92-6.95.73-10.54-.34-6.4-10.39-8.57-11.79-1.6-.28,1.38-.5,3.75-1.45,4.87l4.24-1.76-.91-.06,5.18,2.97c-1.55-2.09-1.41-6.87-2.48-9.49-1.32-3.27-3.21-6.12-6.01-8.29-4.39-3.4-11.83-.49-10.03,5.84,2.4,8.44,4.24,17.01,5.29,25.73.9,7.44,12.24,7.92,12,0-.2-6.73-1.87-12.92-5.04-18.86s-12.8-1.89-10.97,4.62,5.49,12.77,10.72,17.56c4.79,4.4,13.42-1.37,9.42-7.27-2.38-3.51-4.76-7.03-7.13-10.54-4.3-6.36-14.71-.36-10.36,6.06,2.38,3.51,4.76,7.03,7.13,10.54l9.42-7.27c-3.75-3.45-6.25-7.36-7.63-12.27l-10.97,4.62c2.17,4.05,3.27,8.21,3.41,12.8h12c-1.18-9.8-3.01-19.42-5.72-28.92l-10.03,5.84c5.77,4.47,2.69,12.82,8.15,17.04,7.48,5.77,12.21-4.96,13.33-10.57l-11.79-1.6c.13,2.49.12,4.88-.3,7.35l11.79,1.6c-.06-7.87-.11-15.74-.17-23.61h-12c.23,6.22.45,12.44.68,18.67.28,7.69,12.01,7.76,12,0,0-6.27-.01-12.54-.02-18.8h-12c.92,7.81,2.25,15.51,4.16,23.14,1.4,5.61,10.3,5.83,11.57,0,1.47-6.73,2.04-13.47,1.48-20.35l-7.6,5.79c.16.04,1.7,3.08,2.31,4.03,1.3,1.99,2.85,3.65,4.92,4.81.63.35,1.28.65,1.96.89,2.91-4.81,3.18-6.72.81-5.75-1.05.13-2.2.82-3.09,1.39-2.29,1.45-3.87,3.56-5.77,5.43-4.35,4.27-8.51-1.02-10.5-5.08-1.38-2.83-2.39-5.85-3.55-8.77-1.27-3.2-3.07-6.79-2.39-10.32l-10.97,1.43c5.68,8.32,11.45,17.18,11.69,27.57l11.18-3.03c-1.63-3.15-2.51-6.35-3.03-9.85l-5.79,7.6,1.58.17c3.06.32,6.23-3.01,6-6-.17-2.26-.25-4.5.09-6.75h-11.57l2.66,17.39c1.03,6.75,11.9,5.05,11.79-1.6-.14-7.82-.56-15.63-1.27-23.42s-12.65-7.72-12,0c.55,6.56.77,13.12.65,19.7h12c-.13-9.68-.61-19.34-1.46-28.99h-12c.93,8.14,1.85,16.29,2.78,24.43l11.18-3.03c-2.83-6.08-4.17-12.51-4.27-19.21-.11-7.72-12.11-7.74-12,0h0Z"/>
  <path class="cls-5" d="m325.57,3742.04c-4.47,4.92-9.86,9.71-13.52,15.28s-2.6,10.91-.21,16.42c4.27,9.84,2.89,24.59,13.21,30.87,4.68,2.85,10.46,2.15,15.05-.45,4.85-2.75,7.44-7.33,10.9-11.46s8.76-6.01,10.55-11.32c1.89-5.61.14-13.08-.22-18.86-.48-7.67-12.49-7.72-12,0,.27,4.25.77,8.55.8,12.81.03,3.63-3.13,4.39-5.59,6.7-2.81,2.64-9.79,15.85-14.32,11.37-2.35-2.33-2.72-7.53-3.27-10.52-.71-3.83-1.47-7.51-2.97-11.12-.62-1.49-1.87-3.5-2.11-5.09-.43-2.88,1.19-4,3.03-6.04,3.04-3.37,6.1-6.72,9.15-10.09,5.18-5.71-3.28-14.22-8.49-8.49h0Z"/>
  <path class="cls-5" d="m437.26,3765.46c-12.54.08-17.7,11.71-18.6,22.57-1.12,13.53-1.36,27.19-2.02,40.75h12c-.1-10.17.86-20.17,2.99-30.12l-11.57-3.19c-1.84,9.91-3.68,19.82-5.52,29.73l11.79,1.6c-.19-16.48-.56-34,6.02-49.47,6.49-15.26,20.34-25.71,29.63-39.11,4.41-6.36-5.98-12.37-10.36-6.06-10.06,14.49-24.16,25.27-30.88,42.06s-6.62,34.97-6.41,52.58c.08,6.52,10.51,8.46,11.79,1.6,1.84-9.91,3.68-19.82,5.52-29.73,1.39-7.51-9.94-10.8-11.57-3.19-2.35,10.96-3.53,22.09-3.42,33.31.07,7.76,11.63,7.69,12,0,.48-9.85.96-19.69,1.44-29.54.26-5.43-1.24-21.73,7.18-21.78,7.72-.05,7.74-12.05,0-12h0Z"/>
  <path class="cls-5" d="m435.61,3761.15c-7.59,5.86-14.88,12.51-19.12,21.29-4.46,9.24-5.24,19.52-4.57,29.64,1.51,22.82,5.95,45.7,11.7,67.8,1.94,7.47,13.52,4.3,11.57-3.19-5.07-19.51-8.87-39.4-10.83-59.47-.83-8.44-1.44-17.32,1.25-25.51s9.22-14.91,16.06-20.2c2.58-2,3.9-5.13,2.15-8.21-1.44-2.54-5.65-4.13-8.21-2.15h0Z"/>
  <text class="cls-3" transform="translate(577.34 3970.96)"><tspan x="0" y="0">Pfe202</tspan></text>
  <text class="cls-3" transform="translate(468.19 4270.23)"><tspan x="0" y="0">Asp205</tspan></text>
  <text class="cls-6" transform="translate(308.67 3803.64)"><tspan x="0" y="0">(NahAc)</tspan></text>
  <path class="cls-10" d="m346.43,4492.03c24.26,13.32,47.68,28.07,70.16,44.2,5.48,3.93,12.59-5.15,7.27-9.42-23.66-19.01-48.33-36.69-74.13-52.68l-6.06,10.36c23.77,13.23,46.56,28.19,68.03,44.91,2.42-3.14,4.85-6.28,7.27-9.42-23.46-14.5-46.91-29-70.37-43.5l-4.62,10.97c29.4,9.15,52.21,31.75,80.65,43.18,6.29,2.53,10.68-7.95,4.62-10.97-27.25-13.59-53.03-30.01-76.7-49.18v8.49c1.68-1.47,10.53,5.79,11.82,6.68,5.37,3.7,10.67,7.51,15.9,11.41,10.3,7.68,20.27,15.78,29.99,24.19,2.42-3.14,4.85-6.28,7.27-9.42-22.33-10.74-44-22.76-64.93-36.03l-4.62,10.97c23.38,3.94,42.96,17.59,61.93,30.98l6.06-10.36c-22.66-10.83-44.5-23.25-65.39-37.19l-4.62,10.97c12.15,2.32,22.7,9.01,33.38,14.92,11.81,6.53,23.63,13.06,35.44,19.6l6.06-10.36c-22.25-12.22-44.49-24.43-66.74-36.65l-4.62,10.97c23.02,7.94,44.78,18.89,64.99,32.49l6.06-10.36c-22.47-10.1-44.23-21.64-65.18-34.59l-4.62,10.97c19.81,6.54,38.33,16.08,55.28,28.23l6.06-10.36c-19.15-9.2-38.28-18.44-56.78-28.9l-4.62,10.97c17.71,2.89,34.47,9.94,48.54,21.17,2.42-3.14,4.85-6.28,7.27-9.42-16.99-8.39-33.26-18.09-48.73-29.05l-6.06,10.36c11.38,5.86,21.86,13.03,31.34,21.63,2.42-3.14,4.85-6.28,7.27-9.42-12.61-5.48-24.6-12.14-35.92-19.95l-4.62,10.97c15.41,5.67,29.89,13.84,42.67,24.16,1.95-3.34,3.89-6.69,5.84-10.03-10.59-3.41-20.72-7.77-30.48-13.11l-6.06,10.36c16.33,7.09,33.01,13.26,50.07,18.35l1.6-11.79c-9.31-1.02-18.62-2.03-27.93-3.05v12c10.62.55,20.91,2.63,30.97,6.07l1.6-11.79c-5.93.33-11.85.19-17.72-.68l-1.6,11.79c6.48-.14,12.95-.28,19.43-.41s8.41-10.28,1.6-11.79c-5.62-1.24-11.23-2.49-16.85-3.73-7.51-1.66-10.64,9.38-3.19,11.57,5.25,1.54,10.5,3.09,15.75,4.63v-11.57c-5.76.82-11.35-.24-16.71-2.35v11.57c5.1-1.91,10.15-2.93,15.59-2.98l-1.6-11.79c-4.36,1.04-8.52,1.29-12.99.97v12c5.21.08,10.43.16,15.64.24l-1.6-11.79c-5.12,2.04-9.49,4.86-12.92,9.24-2.71,3.45-2.08,8.69,2.65,10.03,12.95,3.66,25.89,7.32,38.84,10.98l1.6-11.79c-10.67-.98-21.15-2.96-31.48-5.8l-1.6,11.79c13.9,1.3,27.04,6.05,38.77,13.56l3.03-11.18c-11.21-1.46-22.34-3.49-33.37-5.94-7.72-1.72-10.19,8.7-3.19,11.57,10.04,4.12,19.56,9.73,28.05,16.5,2.42-3.14,4.85-6.28,7.27-9.42-8.86-5.66-17.71-11.31-26.57-16.97l-6.06,10.36c8.96,5.5,17.91,10.99,26.87,16.49,5.7,3.5,12.47-4.86,7.27-9.42-10.23-8.98-21.41-16.7-33.52-22.93l-1.43,10.97c9.28-1.38,18.59.58,26.74,5.12,6.76,3.77,12.63-6.3,6.06-10.36-7.37-4.55-15.01-8.5-22.99-11.87l-3.03,11.18c7.33.84,14.66,1.68,21.98,2.52,6.7.77,8.18-10.43,1.6-11.79-5.82-1.2-11.65-2.4-17.47-3.61l-1.6,11.79c4.57.45,8.95,1.75,13.06,3.77l4.62-10.97c-5.36-1.52-10.72-3.05-16.08-4.57l-1.6,11.79c5.5-.16,10.53.79,15.64,2.81l3.19-11.57c-4.13-1.22-8.27-2.44-12.4-3.66l-1.6,11.79c4.34-.24,8.68-.47,13.02-.71,7.87-.43,7.54-11.11,0-12l-14.23-1.68v12c5.38-.36,10.4.18,15.57,1.72l1.6-11.79c-5.77.25-11.08-.59-16.5-2.56l-3.19,11.57c10.13,1.66,20.33,2.25,30.57,1.23,4.75-.47,9.49-1.18,14.15-2.21,2.66-.58,5.3-1.27,7.91-2.06,1.16-.35,2.31-.73,3.46-1.11.55-.19,1.1-.37,1.65-.56,1.79-.32,1.97-1.72.53-4.21-4.55,6.25,5.86,12.25,10.36,6.06,3.26-4.48.96-11.02-3.85-13.36-6.03-2.94-12.98,1.04-18.85,2.59-13.91,3.68-28.55,4.37-42.75,2.05-7.58-1.24-10.54,8.91-3.19,11.57,6.34,2.3,12.95,3.28,19.69,2.98s8.21-9.8,1.6-11.79c-6.11-1.83-12.39-2.58-18.76-2.15-7.85.52-7.57,11.11,0,12l14.23,1.68v-12c-4.34.24-8.68.47-13.02.71-6.66.36-8.27,9.81-1.6,11.79,4.13,1.22,8.27,2.44,12.4,3.66,7.57,2.24,10.2-8.8,3.19-11.57-6.03-2.39-12.35-3.43-18.83-3.24s-8.22,9.9-1.6,11.79c5.36,1.52,10.72,3.05,16.08,4.57,6.39,1.82,10.84-7.9,4.62-10.97-6.13-3.02-12.32-4.74-19.12-5.41s-8.19,10.42-1.6,11.79c5.82,1.2,11.65,2.4,17.47,3.61l1.6-11.79c-7.33-.84-14.66-1.68-21.98-2.52-5.76-.66-8.42,8.9-3.03,11.18,7.97,3.37,15.62,7.32,22.99,11.87l6.06-10.36c-11.18-6.23-23.38-8.2-35.99-6.33-5.13.76-5.75,8.74-1.43,10.97,11.21,5.77,21.62,12.74,31.09,21.06,2.42-3.14,4.85-6.28,7.27-9.42-8.96-5.5-17.91-10.99-26.87-16.49-6.61-4.06-12.54,6.22-6.06,10.36,8.86,5.66,17.71,11.31,26.57,16.97,5.63,3.59,12.66-5.12,7.27-9.42-10.23-8.17-21.23-14.62-33.34-19.59l-3.19,11.57c12.09,2.69,24.28,4.77,36.56,6.37,6.33.83,7.54-8.29,3.03-11.18-13.58-8.69-28.8-13.7-44.82-15.2-6.86-.64-7.96,10.03-1.6,11.79,11.36,3.13,22.93,5.16,34.67,6.23,6.88.63,7.94-9.99,1.6-11.79-12.95-3.66-25.89-7.32-38.84-10.98l2.65,10.03c2.09-2.67,4.43-4.87,7.63-6.15,5.99-2.39,5.62-11.67-1.6-11.79-5.21-.08-10.43-.16-15.64-.24-7.79-.12-7.63,11.46,0,12,5.47.39,10.84-.13,16.18-1.4,6.61-1.57,5.15-11.85-1.6-11.79s-12.73,1.15-18.78,3.41c-5.75,2.15-5.59,9.36,0,11.57,7.52,2.97,15.14,3.48,23.09,2.35,6.19-.88,5.2-10.04,0-11.57s-10.5-3.09-15.75-4.63l-3.19,11.57c5.62,1.24,11.23,2.49,16.85,3.73l1.6-11.79c-6.48.14-12.95.28-19.43.41s-8.53,10.75-1.6,11.79,13.86,1.5,20.91,1.11,8.07-9.57,1.6-11.79c-11.05-3.78-22.5-5.89-34.16-6.5-7.84-.41-7.51,11.18,0,12,9.31,1.02,18.62,2.03,27.93,3.05,6.91.76,7.85-9.92,1.6-11.79-16.06-4.79-31.83-10.46-47.2-17.14-6.89-2.99-13.01,6.56-6.06,10.36,10.64,5.82,21.8,10.6,33.34,14.32,5.46,1.76,10.56-6.21,5.84-10.03-14.49-11.71-30.47-20.81-47.96-27.25-6.74-2.48-9.89,7.34-4.62,10.97,11.32,7.8,23.31,14.46,35.92,19.95,5.73,2.49,12.77-4.44,7.27-9.42-10.22-9.27-21.5-17.19-33.77-23.5-6.95-3.58-12.31,5.93-6.06,10.36,15.47,10.96,31.73,20.65,48.73,29.05,5.68,2.81,12.93-4.91,7.27-9.42-15.69-12.52-33.97-21.01-53.84-24.25-6.31-1.03-10.97,7.38-4.62,10.97,18.5,10.45,37.64,19.7,56.78,28.9,7.02,3.37,12.33-5.87,6.06-10.36-17.78-12.75-37.38-22.58-58.15-29.44-6.61-2.18-10.27,7.47-4.62,10.97,20.95,12.95,42.71,24.5,65.18,34.59,6.97,3.13,12.57-5.98,6.06-10.36-21.06-14.17-43.87-25.42-67.85-33.7-6.45-2.23-10.54,7.72-4.62,10.97,22.25,12.22,44.49,24.43,66.74,36.65,6.77,3.72,12.83-6.62,6.06-10.36-12.39-6.85-24.78-13.7-37.17-20.55-10.99-6.08-22.02-12.78-34.51-15.17-6.66-1.27-10.43,7.09-4.62,10.97,20.89,13.94,42.73,26.36,65.39,37.19,7,3.35,12.38-5.9,6.06-10.36-19.76-13.96-40.45-28.09-64.8-32.19-6.51-1.1-10.66,7.14-4.62,10.97,20.93,13.27,42.6,25.3,64.93,36.03,5.73,2.75,12.77-4.66,7.27-9.42-12.36-10.71-25.17-20.89-38.42-30.48-9.22-6.68-24.74-21.89-36.25-11.8-2.26,1.98-2.41,6.54,0,8.49,24.49,19.83,50.92,36.99,79.13,51.06l4.62-10.97c-28.49-11.45-51.03-33.96-80.65-43.18-6.62-2.06-10.31,7.45-4.62,10.97,23.46,14.5,46.91,29,70.37,43.5,5.65,3.49,12.73-5.17,7.27-9.42-22.29-17.37-45.76-33.04-70.45-46.79-6.77-3.77-12.62,6.29-6.06,10.36,24.92,15.45,48.84,32.44,71.7,50.81,2.42-3.14,4.85-6.28,7.27-9.42-22.49-16.12-45.91-30.88-70.16-44.2-6.77-3.72-12.83,6.64-6.06,10.36h0Z"/>
  <path class="cls-10" d="m420.91,4507.84c1.3-1.53,6.04-.77,7.82-.84,3.33-.13,6.65-.25,9.98-.38,6.32-.24,12.64-.48,18.96-.72,12.97-.49,25.95-.98,38.92-1.47,7.7-.29,7.74-12.29,0-12-14.97.57-29.94,1.13-44.91,1.7-7.32.28-14.64.55-21.95.83-5.89.22-13.09-.56-17.3,4.39-4.98,5.85,3.47,14.38,8.49,8.49h0Z"/>
  <path class="cls-10" d="m492.9,4503.74c.74,2.13-.9,1.65,1.54,1.34,1.15-.15,2.51-.93,3.61-1.34,2.7-1,5.41-2,8.11-3.01,5.11-1.89,10.22-3.79,15.32-5.68l-7.38-7.38c-3.1,9.9-6.21,19.81-9.31,29.71l11.57,3.19c1.64-6.67,3.28-13.34,4.92-20.01h-11.57c1.19,4.24,1.95,8.4,2.22,12.8.47,7.64,12.02,7.79,12,0s-.04-14.95-.06-22.42h-12c.08,6.11.15,12.23.23,18.34.09,7.11,9.44,7.7,11.79,1.6,2-5.2,4.6-10.07,7.62-14.75-3.66-.48-7.31-.96-10.97-1.43,1.8,6.08,2.45,12.04,2.07,18.36h12c-.53-6.01-.28-11.87.99-17.78h-11.57c2.19,5.37,2.91,10.55,2.26,16.31-.75,6.66,10.71,8.27,11.79,1.6.81-5.01,2.35-9.52,4.93-13.9l-11.18-3.03c.11,5.64.22,11.27.33,16.91h12c-.74-6.88-.09-13.28,2.09-19.85h-11.57c1.4,5.69,1.49,11.28.21,17l11.79,1.6c.4-6.18,1.82-12.24,4.33-17.91l-11.18-3.03c.29,5.06.59,10.13.88,15.19s6.43,8.11,10.24,4.24c2.23-2.26,4.45-4.51,6.68-6.77l-10.24-4.24c-.07,3.15-.97,5.94-3.04,8.39-4.97,5.86,3.48,14.39,8.49,8.49,4.18-4.93,6.41-10.37,6.55-16.87.12-5.21-6.64-7.9-10.24-4.24-2.23,2.26-4.45,4.51-6.68,6.77l10.24,4.24c-.29-5.06-.59-10.13-.88-15.19-.31-5.35-8.57-8.92-11.18-3.03-3.43,7.74-5.42,15.51-5.97,23.97-.44,6.73,10.31,8.19,11.79,1.6,1.75-7.85,1.71-15.57-.21-23.38-1.48-6.02-9.79-5.38-11.57,0-2.48,7.46-3.35,15.23-2.52,23.04s12.16,7.89,12,0c-.11-5.64-.22-11.27-.33-16.91s-8.12-8.22-11.18-3.03-5.17,10.79-6.14,16.76l11.79,1.6c.75-6.66-.17-13.3-2.69-19.5-2.01-4.93-10.19-6.42-11.57,0-1.49,6.94-2.04,13.89-1.42,20.97.67,7.64,11.54,7.79,12,0,.43-7.31-.43-14.53-2.5-21.55-1.5-5.08-8.18-5.75-10.97-1.43-3.6,5.57-6.45,11.43-8.83,17.62l11.79,1.6c-.08-6.11-.15-12.23-.23-18.34-.1-7.72-12.02-7.74-12,0s.04,14.95.06,22.42h12c-.34-5.43-1.18-10.75-2.65-15.99-1.57-5.58-10.13-5.84-11.57,0-1.64,6.67-3.28,13.34-4.92,20.01-1.85,7.52,9.26,10.56,11.57,3.19,3.1-9.9,6.21-19.81,9.31-29.71,1.29-4.13-3.09-8.97-7.38-7.38-8.41,3.12-16.83,6.24-25.24,9.35-6.04,2.24-14.56,5.97-11.72,14.09,2.53,7.24,14.13,4.13,11.57-3.19h0Z"/>
  <path class="cls-5" d="m366.26,4438.45c8.33,6.99,16.67,13.98,25,20.96l8.49-8.49c-8.2-6.37-16.86-11.4-26.46-15.36-5.91-2.43-9.57,6.06-5.84,10.03,6.5,6.92,13.83,12.95,21.82,18.08,6.65,4.27,12.06-5.84,6.06-10.36-7.27-5.47-14.53-10.94-21.8-16.42-5.73-4.31-11.48,4.6-7.27,9.42,6.81,7.8,13.96,15.27,21.46,22.41l8.49-8.49-19.24-15.99c-5.84-4.85-14.22,3.13-8.49,8.49,4.45,4.17,8.91,8.33,13.36,12.5,2.42-3.14,4.85-6.28,7.27-9.42-6.16-3.74-12.32-7.47-18.48-11.21-5.69-3.45-12.58,4.95-7.27,9.42,6.08,5.13,12.15,10.25,18.23,15.38,2.42-3.14,4.85-6.28,7.27-9.42-4.96-3.6-9.93-7.2-14.89-10.8l-6.06,10.36c14.19,9.08,29.02,17.04,44.43,23.86l3.03-11.18c-10.35-1.27-19.26-7.82-26.92-14.44-9-7.78-17.6-16.05-26.36-24.1-5.71-5.25-13.61,2.72-8.49,8.49,12.69,14.27,26.21,28.35,42.66,38.32,7.75,4.7,16.26,8.44,25.1,10.5,11.11,2.58,22.49,2.33,33.81,1.9l-5.79-4.4.12.82,1.54-5.84-.56.68,4.24-1.76-.83.05c-7.68.42-7.73,12.42,0,12,5.33-.29,7.78-4.07,7.05-9.14-.36-2.48-3.4-4.5-5.79-4.4-10.21.39-20.59.86-30.62-1.47-8.43-1.96-16.25-5.52-23.57-10.11-14.97-9.39-27.24-22.51-38.9-35.62l-8.49,8.49c9.92,9.13,19.58,18.75,30.08,27.21,9.45,7.62,19.48,13.34,31.68,14.84,5.81.71,8.33-8.83,3.03-11.18-15.41-6.82-30.23-14.78-44.43-23.86-6.62-4.23-12.19,5.92-6.06,10.36,4.96,3.6,9.93,7.2,14.89,10.8,5.48,3.97,12.47-5.03,7.27-9.42-6.08-5.13-12.15-10.25-18.23-15.38-2.42,3.14-4.85,6.28-7.27,9.42,6.16,3.74,12.32,7.47,18.48,11.21,5.77,3.5,12.3-4.72,7.27-9.42-4.45-4.17-8.91-8.33-13.36-12.5l-8.49,8.49c6.41,5.33,12.83,10.66,19.24,15.99,5.84,4.85,14.17-3.06,8.49-8.49-7.49-7.15-14.64-14.62-21.46-22.41-2.42,3.14-4.85,6.28-7.27,9.42,7.27,5.47,14.53,10.94,21.8,16.42l6.06-10.36c-7.17-4.6-13.56-9.99-19.39-16.2l-5.84,10.03c7.53,3.1,14.73,7.28,21.16,12.28,5.96,4.63,14.49-3.45,8.49-8.49-8.33-6.99-16.67-13.98-25-20.96-5.88-4.93-14.41,3.52-8.49,8.49h0Z"/>
  <path class="cls-5" d="m363.08,4425.92c5.59,11.06,11.17,22.12,16.76,33.18,2.48,4.89,4.95,9.78,8.86,13.71,3.62,3.63,8.11,6.52,12.53,9.09,16.9,9.81,42.21,18.76,60.61,8.06,3.3-1.92,3.99-6.73,1.21-9.42-.82-.79-1.63-1.58-2.45-2.37-5.55-5.37-14.05,3.1-8.49,8.49.82.79,1.63,1.58,2.45,2.37l1.21-9.42c-7.77,4.52-17,3.32-25.36,1.26-9.29-2.29-18.09-6.04-26.17-11.16-3.78-2.39-7.27-4.98-9.79-8.73-2.74-4.08-4.7-8.79-6.91-13.16-4.71-9.31-9.41-18.63-14.12-27.94-3.48-6.89-13.84-.83-10.36,6.06h0Z"/>
  <path class="cls-5" d="m343.53,4401.37c8.23,31.77,20.42,66.83,51.02,83.66,14.92,8.2,32.18,10.16,48.95,9.75,8.54-.21,17.12-.85,25.6-1.81,8.22-.93,16.18-2.5,23.35-6.83,6.61-3.98.58-14.36-6.06-10.36s-13.95,4.91-21.42,5.59-15.45,1.32-23.2,1.44c-14.62.22-29.66-1.41-42.51-8.91-26.84-15.67-36.84-47.48-44.16-75.73-1.94-7.47-13.51-4.3-11.57,3.19h0Z"/>
  <path class="cls-5" d="m391.7,4435.54c3.52,12.64,10.01,23.98,16.67,35.18,3.38,5.68,13.19,2,10.97-4.62-3.81-11.33-9.45-21.52-16.87-30.87-4.12-5.19-10.96.65-10.03,5.84,2.05,11.42,6.4,22.25,12.77,31.95,4.3,6.55,13.56.9,10.36-6.06-3.71-8.08-9.22-15.14-16.17-20.68-4.52-3.61-11.53-.39-10.03,5.84,1.85,7.66,5.05,14.83,9.59,21.28,3.72,5.29,12.98,2.29,10.97-4.62s-5.22-12.35-9.87-17.41c-5.01-5.43-11.89,1.48-9.42,7.27,2.23,5.23,4.94,10.13,8.19,14.8s10.98,3.17,11.18-3.03c.18-5.8-.46-11.52-1.84-17.15l-10.03,5.84c8.26,6.69,16.12,13.81,23.59,21.38,2.42-3.14,4.85-6.28,7.27-9.42-7.44-3.17-14.89-6.33-22.33-9.5l-4.62,10.97c18.6,7.29,37.13,15.65,57.12,18.19s39.5-.31,57.62-7.89c3.01-1.26,5.09-3.96,4.19-7.38-.75-2.83-4.39-5.44-7.38-4.19-17.21,7.21-36.06,10.07-54.6,7.43-18.69-2.67-36.32-10.89-53.76-17.73-6.27-2.46-10.88,8.31-4.62,10.97,7.44,3.17,14.89,6.33,22.33,9.5,5.89,2.51,12.44-4.19,7.27-9.42-7.47-7.56-15.33-14.69-23.59-21.38-4.5-3.65-11.54-.36-10.03,5.84,1.14,4.65,1.56,9.18,1.41,13.96l11.18-3.03c-3.25-4.67-5.96-9.57-8.19-14.8-3.14,2.42-6.28,4.85-9.42,7.27,3.25,3.53,5.45,7.52,6.79,12.11l10.97-4.62c-4-5.68-6.75-11.66-8.38-18.41l-10.03,5.84c6.29,5.01,10.94,10.94,14.29,18.25l10.36-6.06c-5.87-8.93-9.67-18.57-11.56-29.08l-10.03,5.84c6.07,7.64,10.68,16.33,13.79,25.57l10.97-4.62c-6.14-10.32-12.22-20.66-15.46-32.31-2.07-7.43-13.65-4.27-11.57,3.19h0Z"/>
  <path class="cls-5" d="m393.36,4455.41c9.33,29.06,42.19,35.3,68.54,39.17,14.68,2.16,28.58,1.4,42.39-4.31,12.73-5.26,23.92-13.36,34.13-22.52l-10.03-2.65c1.07,5.15-8.47,9.15-12,10.77-5.67,2.6-11.77,4.28-17.85,5.61s-11.76,2.18-17.69,3c-6.83.95-13.93,2.18-20.84,1.41-10.45-1.17-20.42-7.39-26.08-16.25-1.07-1.68-2.21-3.51-2.45-5.54-.08-.72-.28-1.75.15-2.39-.87,1.33-.19.92.32,2.43,1.7,5.04,1.91,10.43,5.05,14.92,3.69,5.26,13.11,2.28,10.97-4.62-2-6.44-4-12.88-6-19.31-2.13-6.85-10.99-4.89-11.79,1.6-.71,5.84,1.35,10.94,5.06,15.35,4.14,4.91,11.18-.47,10.03-5.84s-3.06-10.32-5.62-15.1c-3.74-6.99-13.29-.84-10.36,6.06,3.14,7.41,7.39,14,12.58,20.13,3.57,4.22,10.03.56,10.24-4.24.44-10.02-1.62-19.53-5.68-28.66-2.73-6.14-13.47-1.71-10.97,4.62,3.86,9.75,8.71,18.86,14.94,27.31,3.09,4.19,11.87,3.57,11.18-3.03-1.19-11.37-5.49-21.42-13.05-30.02-4.69-5.34-12.39,1.46-9.42,7.27,6.08,11.93,15.07,21.8,26.14,29.27,4.69,3.17,9.74-2.04,8.81-6.78-1.99-10.19-8.06-18.68-16.67-24.37-6.09-4.02-11.29,4.49-7.27,9.42,6.49,7.96,14.55,14.43,23.7,19.09,5.15,2.63,11.44-2.82,8.21-8.21-4.16-6.93-9.09-13.3-14.76-19.06s-13.82,2.9-8.49,8.49c6.88,7.21,13.76,14.42,20.64,21.64,4.94,5.18,12.24-1.38,9.42-7.27-3.92-8.21-8.91-15.67-14.79-22.61-2.42,3.14-4.85,6.28-7.27,9.42,6.73,4.87,12.5,10.89,17.15,17.76,3.58,5.28,13.4,2.17,10.97-4.62-4.56-12.72-12.66-23.19-23.85-30.77-6.09-4.12-11.2,4.51-7.27,9.42,9.28,11.61,19.49,22.39,30.58,32.29,4.78,4.27,13.61-1.42,9.42-7.27-7.51-10.49-17.15-18.95-28.81-24.57-5-2.41-11.76,2.79-8.21,8.21,2.99,4.57,5.98,9.14,8.97,13.7,2.37,3.62,4.81,8.02,9.33,9.22,4.26,1.13,7.82-1.16,10.44-4.28,2.94-3.5,6.65-5.87,11.44-5.04l-1.43-10.97c-2.43,1.43-5.2.84-6.69-1.63l-8.21,8.21c8.24,3.65,15.88,8.19,23.03,13.68,5.02,3.86,10.92-3.41,8.21-8.21-5.09-9.01-12.02-16.41-20.48-22.34l-6.06,10.36c6.72,4.12,13.43,8.24,20.15,12.36,4.12,2.52,10.85-1.78,8.81-6.78-2.99-7.34-6.99-13.73-12.56-19.4-2.42,3.14-4.85,6.28-7.27,9.42,5.39,3.91,10.79,7.82,16.18,11.73,4.81,3.48,11.59-3.41,8.21-8.21-3.77-5.34-7.53-10.69-11.3-16.03l-8.21,8.21c6.51,4.73,12.49,10.05,18.06,15.85,4.75,4.94,12.82-1.38,9.42-7.27-2.94-5.1-5.87-10.19-8.81-15.29l-8.21,8.21c4.4,2.34,8.04,5.25,11.31,9.01,4.48,5.15,13.01-1.53,9.42-7.27-2.04-3.26-4.07-6.51-6.11-9.77-2.26,2.94-4.52,5.88-6.78,8.81,2.45.73,3.96,2,5.23,4.18l9.42-7.27c-1.68-1.36-3.36-2.72-5.04-4.07-5.99-4.84-13.5,2.5-8.49,8.49,2.46,2.93,3.98,6.16,4.97,9.83,1.75,6.49,11.87,5.23,11.79-1.6-.05-4.21-1.86-7.42-5.53-9.53-4.36-2.5-10.49,1.68-8.81,6.78,1.44,4.39,3.71,8.16,7.15,11.26,4.24,3.83,11.88.17,10.03-5.84-2.03-6.6-7.11-10.37-13.9-10.96-7.69-.67-7.65,11.33,0,12,1.31.11,1.97.99,2.33,2.15l10.03-5.84c-1.94-1.75-3.25-3.48-4.06-5.97l-8.81,6.78-.42-.83,11.79-1.6c-1.55-5.73-4.25-10.6-8.05-15.13l-8.49,8.49c1.68,1.36,3.36,2.72,5.04,4.07,5.02,4.06,13.08-.98,9.42-7.27-2.84-4.87-7.01-8.09-12.4-9.7-4.95-1.48-9.54,4.39-6.78,8.81,2.04,3.26,4.07,6.51,6.11,9.77,3.14-2.42,6.28-4.85,9.42-7.27-3.89-4.46-8.51-8.11-13.74-10.88s-11.29,2.87-8.21,8.21,5.87,10.19,8.81,15.29l9.42-7.27c-6.3-6.55-13.14-12.39-20.49-17.72-4.8-3.49-11.59,3.41-8.21,8.21,3.77,5.34,7.53,10.69,11.3,16.03l8.21-8.21c-5.39-3.91-10.79-7.82-16.18-11.73s-11.91,4.69-7.27,9.42c4.02,4.1,7.3,8.77,9.48,14.11l8.81-6.78c-6.72-4.12-13.43-8.24-20.15-12.36-6.68-4.09-12.3,6-6.06,10.36,6.78,4.74,12.12,10.85,16.18,18.03l8.21-8.21c-7.14-5.49-14.79-10.03-23.03-13.68-5.12-2.27-11.57,2.61-8.21,8.21,4.79,7.98,15.05,10.68,23.1,5.94,4.12-2.43,3.85-10.05-1.43-10.97-8.01-1.39-16.13.56-21.87,6.59-.66.75-1.29,1.53-1.88,2.33-1.46,1.33-.65,1.54,2.42.62.17-.38-3.32-4.88-3.7-5.45-2.66-4.06-5.32-8.12-7.98-12.18l-8.21,8.21c9.75,4.7,18.18,11.43,24.5,20.27l9.42-7.27c-11.09-9.9-21.3-20.67-30.58-32.29-2.42,3.14-4.85,6.28-7.27,9.42,8.46,5.73,14.88,13.97,18.33,23.59l10.97-4.62c-5.87-8.67-12.98-15.93-21.46-22.07-5.86-4.24-11.38,4.57-7.27,9.42,5.21,6.15,9.44,12.91,12.91,20.18,3.14-2.42,6.28-4.85,9.42-7.27-6.88-7.21-13.76-14.42-20.64-21.64l-8.49,8.49c4.99,5.06,9.23,10.54,12.89,16.63l8.21-8.21c-8.34-4.25-15.36-9.96-21.27-17.22-2.42,3.14-4.85,6.28-7.27,9.42,6.13,4.05,9.76,10.06,11.16,17.2l8.81-6.78c-9.4-6.35-16.69-14.88-21.83-24.97l-9.42,7.27c5.31,6.04,8.7,13.52,9.54,21.53l11.18-3.03c-5.57-7.56-10.27-15.7-13.73-24.44l-10.97,4.62c3.19,7.18,4.38,14.8,4.04,22.61l10.24-4.24c-4.51-5.33-7.98-11.29-10.7-17.7l-10.36,6.06c2.09,3.91,3.48,7.91,4.41,12.24l10.03-5.84c-1.75-2.08-1.86-4.31-1.55-6.87l-11.79,1.6c2,6.44,4,12.88,6,19.31l10.97-4.62c-3.67-5.24-2.55-12.2-6.8-17.4-3.98-4.86-10.69-6.92-16.17-3.16-11.05,7.58-1.9,23.28,4.65,30.34,8.86,9.54,21.58,15.11,34.57,15.3,7.94.12,15.97-1.36,23.81-2.5,7.31-1.07,14.61-2.34,21.72-4.39,13.05-3.76,34.41-12.07,30.82-29.27-.98-4.68-6.89-5.46-10.03-2.65-8.62,7.73-18.1,14.73-28.77,19.38-11.61,5.07-23.61,6.15-36.08,4.35-21.14-3.04-52.46-6.81-60.16-30.79-2.35-7.32-13.94-4.19-11.57,3.19h0Z"/>
  <path class="cls-5" d="m375.29,4444.71c5.91,15.5,16.23,28.77,30.21,37.81,7.9,5.11,16.87,8.45,25.9,10.97,8.79,2.46,17.95,4.33,27.11,3.36s18.33-3.94,27.33-6.56c9.93-2.89,19.86-5.78,29.78-8.67,13.84-4.03,33.29-7.58,37.45-23.92l-11.57-3.19c-4.66,20.89-29.01,24.63-46.89,25.5-11.05.54-22.11.89-33.16,1.33-8.36.33-19.46,2.03-26.05-4.37-5.55-5.38-14.04,3.1-8.49,8.49,8.05,7.81,19.1,8.45,29.74,8.07,13.83-.49,27.7-.85,41.52-1.71,22.35-1.38,49.32-9.05,54.91-34.11,1.67-7.5-9.66-10.71-11.57-3.19-1.51,5.91-7.41,8.72-12.74,10.63-7.15,2.58-14.62,4.41-21.91,6.53-8.07,2.35-16.13,4.7-24.2,7.05s-15.87,5.13-24.05,6.12-16.15-.72-24.01-2.91-14.99-4.79-21.73-8.94c-11.81-7.26-21.07-18.51-26-31.46-2.72-7.15-14.33-4.05-11.57,3.19h0Z"/>
  <path class="cls-5" d="m439.86,4481.12c3.89,5.68,9.79,7.5,16.46,7.58,8.12.1,16.34-.72,24.45-1.12,15.36-.74,30.86-1.09,45.49-6.37,24.78-8.95,45.67-27.85,56.23-52.07,3.05-7.01-7.28-13.13-10.36-6.06-8.91,20.45-25.55,37.12-46.31,45.52-11.95,4.83-24.35,5.98-37.11,6.6-7.27.36-14.54.7-21.81,1.06-3.41.17-14.22,2.39-16.67-1.19-4.33-6.33-14.74-.34-10.36,6.06h0Z"/>
  <path class="cls-5" d="m510,4490.48c11.16-.04,21.2-4.95,30.94-9.92,9.53-4.86,17.17-11.21,23.61-19.76,13.3-17.66,23.14-38.46,31.49-58.83,2.93-7.14-8.68-10.25-11.57-3.19-7.39,18.03-16.39,35.82-27.4,51.94-5.14,7.53-11.22,13.55-19.25,17.93-8.51,4.64-17.92,9.79-27.83,9.82-7.72.03-7.74,12.03,0,12h0Z"/>
  <path class="cls-5" d="m529.26,4481.47c8.12-2.91,16.42-5.88,23.73-10.54,7.97-5.09,13.55-11.94,18.38-19.98,10.9-18.12,21.53-36.44,31.29-55.21,3.56-6.84-6.79-12.92-10.36-6.06-8.89,17.1-18.59,33.75-28.4,50.33-4.51,7.62-8.74,15.13-16.31,20.13-6.62,4.38-14.1,7.09-21.52,9.75s-4.11,14.19,3.19,11.57h0Z"/>
  <path class="cls-5" d="m535.8,4477.47c9.8-2.19,18.4-5.69,26.13-12.18,7.05-5.92,12.63-13.61,17.35-21.46,11.32-18.81,19.93-39.59,27.23-60.24,2.58-7.29-9.01-10.43-11.57-3.19-6.65,18.81-14.54,37.43-24.49,54.76-3.99,6.95-8.48,13.62-14.28,19.19-6.77,6.49-14.52,9.54-23.56,11.56-7.53,1.68-4.35,13.25,3.19,11.57h0Z"/>
  <path class="cls-5" d="m541.59,4466.6c20.68.16,36.15-14.94,45.98-31.72,11.35-19.38,20.28-40.55,29.23-61.11,3.05-7.01-7.28-13.13-10.36-6.06-8.1,18.6-16.46,37.22-25.94,55.17-7.99,15.12-19.92,31.87-38.91,31.72-7.72-.06-7.73,11.94,0,12h0Z"/>
  <path class="cls-5" d="m337.93,4401.92c5.24,27.39,15.42,53.82,38.12,71.32,6.05,4.67,12.23,9.65,19.26,12.77s14.39,3.85,21.88,4.65c15.07,1.6,30.66,2.59,45.03-3.16,7.08-2.83,3.99-14.44-3.19-11.57-12.88,5.15-26.55,4.31-40.08,2.91-6.79-.7-13.81-1.21-19.99-4.35s-11.71-7.52-17.01-11.76c-19.73-15.78-27.84-39.99-32.44-63.99-1.45-7.58-13.02-4.37-11.57,3.19h0Z"/>
  <text class="cls-6" transform="translate(321.59 4529.39)"><tspan x="0" y="0">Aapc</tspan></text>
</svg>