<?xml version="1.0" encoding="UTF-8"?>
<svg id="_图层_1" data-name="图层 1" xmlns="http://www.w3.org/2000/svg" viewBox="0 0 1597.63 1033.48">
  <defs>
    <style>
      .cls-1 {
        fill: #fff;
      }

      .cls-2 {
        fill: #060b12;
      }

      .cls-3 {
        stroke: #000;
        stroke-miterlimit: 10;
        stroke-width: 20px;
      }
    </style>
  </defs>
  <path class="cls-1" d="m1062.8,12.71c-103.04,91.23-206.77,181.7-309.8,272.99-132.85-43.97-265.08-90.09-397.87-134.38-10.61-4.74-22.49-1.39-30.39,6.58C220.32,249.84,115.71,341.57,11.47,433.69c-9.73,6.9-13.77,18.47-10.17,30.18,27.42,138.3,54.96,276.66,82.82,414.9,1.33,13.86,15.6,17.4,26.6,21.26,128.68,43.21,257.18,87.12,385.8,130.52,17.37,8.35,33.29-2.53,44.85-14.8,101.01-89.14,202.28-178.03,303.42-267.05,123.57,40.62,246.25,84.33,370.01,124.32,14.72,4.74,29.38,13.98,45.36,11.83,16.49-8.1,28.43-22.9,40.87-36l3.41-.57c78.59-68.33,156.54-137.41,234.69-206.19,19.14-19.17,44.6-33.15,58.5-56.88-7.08-55.29-21.16-109.58-31.08-164.49-17.63-87.18-34.49-174.55-52.43-261.67-1.26-13.98-14.28-20.88-26.28-24.29-130.52-43.78-260.65-88.7-391.17-132.29-12.76-6.9-24.64,2.02-33.86,10.25Z"/>
  <path class="cls-1" d="m1086.75,34.16c129.51,41.31,257.68,86.99,386.62,130.01,11.24.82,11.37,12.53,13.33,21.13,25.46,130.71,52.81,261.04,77.51,391.94-104.99,91.23-208.28,184.55-313.91,275.02-130.77-45.99-262.61-88.89-393.57-134.19-26.53-136.66-55.15-272.93-81.05-409.71,103.79-91.23,208.09-182.02,311.07-274.2Zm-222.05,299.31c7.64,3.1,15.35,6.14,23.12,9.43,71.07-62.63,143.4-123.88,214.28-186.7-2.59-5.19-7.71-15.5-10.3-20.69-75.24,66.56-151.87,131.47-227.11,197.96Zm530.28-64.72c15.86,83.51,32.22,166.9,48.08,250.41,6,1.46,17.94,4.37,23.94,5.82-17.18-89.96-34.81-179.87-51.8-269.83-6.7,4.56-13.52,8.92-20.22,13.6Zm-447.02,373.21c-3.66,6.26-7.26,12.59-10.8,18.98,90.91,31.76,181.94,63.08,272.91,94.77-.82-8.22-1.58-16.45-2.27-24.55-86.74-29.48-172.78-60.93-259.83-89.21Z"/>
  <path class="cls-1" d="m33.08,457.73c103.86-91.99,208.6-182.97,312.14-275.27,132.03,43.65,263.37,89.21,395.15,133.49,27.86,136.28,54.39,272.8,82,409.14-104.05,92.12-208.66,183.66-312.9,275.53-131.72-44.54-263.56-88.7-394.96-134.06-27.04-136.28-54.58-272.49-81.43-408.83Zm95.77,15.31c7.71,2.78,15.48,5.88,23.31,8.73,68.86-60.42,138.41-120.02,207.34-180.37,9.29-6.96-.82-18.66-2.21-27.01-76.5,65.8-153.07,131.53-228.44,198.66Zm72.14,327.34c91.22,31.06,182.07,63.33,273.35,94.33-.82-7.97-1.52-15.75-2.21-23.54-86.11-31.32-172.97-60.48-259.52-90.41-2.91,4.93-8.72,14.68-11.62,19.61Z"/>
  <path d="m1062.8,12.71c9.22-8.22,21.1-17.15,33.86-10.25,130.52,43.59,260.65,88.51,391.17,132.29,12,3.42,25.02,10.31,26.28,24.29,17.94,87.12,34.81,174.49,52.43,261.67,9.92,54.92,24.01,109.2,31.08,164.49-13.9,23.72-39.36,37.71-58.5,56.88-78.15,68.77-156.1,137.86-234.69,206.19l-3.41.57c-30.01,3.1-57.87,14.87-86.23,24.17-123.76-39.98-246.44-83.7-370.01-124.32-101.14,89.02-202.41,177.91-303.42,267.05-11.56,12.27-27.48,23.16-44.85,14.8-128.62-43.4-257.12-87.31-385.8-130.52-10.99-3.86-25.27-7.4-26.6-21.26C56.26,740.53,28.72,602.17,1.3,463.87c-3.6-11.7.44-23.28,10.17-30.18,104.24-92.12,208.85-183.85,313.28-275.78,7.9-7.97,19.77-11.32,30.39-6.58,132.79,44.29,265.01,90.41,397.87,134.38,103.04-91.29,206.77-181.76,309.8-272.99Zm23.94,21.45c-102.97,92.18-207.27,182.97-311.07,274.2,25.9,136.78,54.52,273.06,81.05,409.71,130.96,45.3,262.8,88.19,393.57,134.19,105.63-90.47,208.91-183.79,313.91-275.02-24.7-130.9-52.05-261.23-77.51-391.94-1.96-8.6-2.08-20.31-13.33-21.13-128.94-43.02-257.12-88.7-386.62-130.01ZM33.08,457.73c26.85,136.34,54.39,272.55,81.43,408.83,131.4,45.36,263.24,89.52,394.96,134.06,104.24-91.86,208.85-183.41,312.9-275.53-27.61-136.34-54.14-272.87-82-409.14-131.78-44.29-263.12-89.84-395.15-133.49-103.54,92.31-208.28,183.28-312.14,275.27Z"/>
  <path d="m864.69,333.47c75.24-66.49,151.87-131.4,227.11-197.96,2.59,5.19,7.71,15.5,10.3,20.69-70.88,62.82-143.21,124.07-214.28,186.7-7.77-3.29-15.48-6.33-23.12-9.43Z"/>
  <path d="m1394.97,268.75c6.7-4.68,13.52-9.05,20.22-13.6,16.99,89.96,34.62,179.87,51.8,269.83-6-1.46-17.94-4.37-23.94-5.82-15.86-83.51-32.22-166.9-48.08-250.41Z"/>
  <path d="m128.85,473.04c75.37-67.13,151.93-132.86,228.44-198.66,1.39,8.35,11.5,20.06,2.21,27.01-68.92,60.36-138.48,119.95-207.34,180.37-7.83-2.85-15.6-5.95-23.31-8.73Z"/>
  <path d="m947.95,641.96c87.05,28.28,173.1,59.72,259.83,89.21.69,8.1,1.45,16.32,2.27,24.55-90.97-31.7-182-63.01-272.91-94.77,3.54-6.39,7.14-12.72,10.8-18.98Z"/>
  <path d="m200.99,800.38c2.91-4.93,8.72-14.68,11.62-19.61,86.55,29.93,173.41,59.09,259.52,90.41.69,7.78,1.39,15.56,2.21,23.54-91.29-31-182.13-63.27-273.35-94.33Z"/>
  <path class="cls-2" d="m1214.8,873.01c28.36-9.3,56.22-21.07,86.23-24.17-12.45,13.1-24.38,27.9-40.87,36-15.98,2.15-30.64-7.09-45.36-11.83Z"/>
  <path class="cls-3" d="m670.54,390.71c20.56,98.81,39.32,197.96,58.16,297.09"/>
</svg>