<?xml version="1.0" encoding="UTF-8"?>
<svg xmlns="http://www.w3.org/2000/svg" width="150" height="164" viewBox="80 75 150 164">
<path d="M 148 86 L 92 122 L 90 127 L 93 192 L 95 196 L 99 199 L 153 227 L 160 227 L 210 196 L 217 190 L 218 188 L 218 164 L 216 123 L 214 118 L 208 113 L 155 86 Z" fill="rgb(150,155,133)" fill-opacity="0.12549" fill-rule="evenodd"/>
<path d="M 149 86 L 99 117 L 92 123 L 91 125 L 91 151 L 93 191 L 98 198 L 152 226 L 159 227 L 164 225 L 216 191 L 218 187 L 216 126 L 213 117 L 209 114 L 157 87 Z" fill="rgb(150,155,133)" fill-opacity="0.25098" fill-rule="evenodd"/>
<path d="M 148 87 L 97 119 L 91 126 L 93 188 L 95 194 L 99 198 L 153 226 L 161 226 L 204 199 L 216 190 L 218 180 L 215 122 L 210 115 L 156 87 Z" fill="rgb(150,155,133)" fill-opacity="0.31373" fill-rule="evenodd"/>
<path d="M 149 87 L 113 109 L 93 123 L 91 129 L 94 191 L 98 197 L 152 225 L 159 226 L 164 224 L 208 196 L 216 189 L 217 187 L 217 167 L 215 124 L 213 119 L 209 115 L 157 88 Z" fill="rgb(150,155,133)" fill-opacity="0.21961" fill-rule="evenodd"/>
</svg>