<?xml version='1.0' encoding='utf-8'?>
<svg xmlns="http://www.w3.org/2000/svg" width="268" height="286" viewBox="32 58 268 286">
<path d="M 212 291 L 210 291 L 208 296 L 210 298 L 213 297 L 214 293 Z" fill="#ffffff" fill-rule="evenodd" />
<path d="M 77 240 L 75 247 L 75 257 L 77 262 L 84 267 L 87 268 L 97 267 L 110 259 L 113 254 L 112 242 L 107 237 L 103 235 L 84 234 Z" fill="#ffffff" fill-rule="evenodd" />
<path d="M 135 227 L 133 231 L 134 236 L 140 236 L 141 230 L 140 227 Z" fill="#ffffff" fill-rule="evenodd" />
<path d="M 257 229 L 258 233 L 261 235 L 266 234 L 269 229 L 266 225 L 261 225 Z" fill="#ffffff" fill-rule="evenodd" />
<path d="M 203 223 L 199 227 L 198 230 L 199 239 L 203 243 L 208 245 L 216 245 L 220 243 L 222 240 L 222 231 L 220 227 L 217 224 L 211 223 L 210 221 Z" fill="#ffffff" fill-rule="evenodd" />
<path d="M 114 158 L 111 165 L 111 173 L 115 182 L 124 187 L 135 187 L 142 184 L 145 181 L 147 176 L 147 169 L 143 161 L 137 156 L 130 154 L 130 152 L 121 152 Z" fill="#ffffff" fill-rule="evenodd" />
<path d="M 186 111 L 183 115 L 182 124 L 185 129 L 190 131 L 196 131 L 202 129 L 205 126 L 206 118 L 201 112 L 195 109 L 190 109 Z" fill="#ffffff" fill-rule="evenodd" />
<path d="M 224 88 L 220 88 L 219 90 L 220 94 L 222 95 L 224 94 Z" fill="#ffffff" fill-rule="evenodd" />
<path d="M 212 291 L 210 291 L 209 294 L 211 298 L 213 296 Z" fill="#ffffff" fill-rule="evenodd" />
<path d="M 78 239 L 75 249 L 75 256 L 78 263 L 82 266 L 88 268 L 96 267 L 106 262 L 112 256 L 113 253 L 112 243 L 105 236 L 85 234 L 82 235 Z" fill="#ffffff" fill-rule="evenodd" />
<path d="M 138 226 L 135 227 L 133 232 L 134 236 L 138 237 L 141 234 L 141 229 Z" fill="#ffffff" fill-rule="evenodd" />
<path d="M 267 226 L 264 225 L 258 227 L 259 234 L 267 233 L 268 231 Z" fill="#ffffff" fill-rule="evenodd" />
<path d="M 202 224 L 199 228 L 198 231 L 199 239 L 203 243 L 209 245 L 218 244 L 222 239 L 222 232 L 220 227 L 214 223 L 211 223 L 210 221 Z" fill="#ffffff" fill-rule="evenodd" />
<path d="M 118 154 L 113 160 L 111 167 L 111 172 L 114 180 L 118 184 L 125 187 L 134 187 L 140 185 L 144 182 L 147 175 L 147 169 L 144 163 L 138 157 L 130 154 L 130 152 L 122 152 Z" fill="#ffffff" fill-rule="evenodd" />
<path d="M 184 114 L 182 122 L 183 126 L 187 130 L 195 131 L 199 130 L 205 126 L 206 119 L 204 115 L 198 110 L 190 109 Z" fill="#ffffff" fill-rule="evenodd" />
<path d="M 220 88 L 219 92 L 220 94 L 223 94 L 225 92 L 224 88 Z" fill="#ffffff" fill-rule="evenodd" />
</svg>