<?xml version="1.0" encoding="UTF-8"?>
<svg xmlns="http://www.w3.org/2000/svg" width="268" height="286" viewBox="32 58 268 286">
<path d="M 203 278 L 195 286 L 196 287 L 192 290 L 192 299 L 200 309 L 203 311 L 210 313 L 217 312 L 222 309 L 230 299 L 229 296 L 230 290 L 226 284 L 221 279 L 217 277 L 210 276 Z" fill="rgb(243,255,115)" fill-opacity="0.01569" fill-rule="evenodd"/>
<path d="M 257 212 L 250 216 L 247 220 L 243 230 L 244 236 L 250 244 L 258 248 L 267 248 L 275 244 L 281 236 L 280 233 L 281 225 L 278 219 L 273 214 L 271 214 L 269 212 Z" fill="rgb(243,255,115)" fill-opacity="0.01569" fill-rule="evenodd"/>
<path d="M 194 210 L 188 216 L 186 216 L 186 218 L 182 224 L 181 236 L 183 243 L 185 244 L 185 246 L 189 252 L 195 257 L 201 259 L 201 261 L 205 262 L 221 261 L 221 259 L 228 256 L 232 252 L 239 239 L 238 237 L 240 231 L 238 229 L 235 220 L 226 211 L 216 207 L 203 207 Z" fill="rgb(243,255,115)" fill-opacity="0.01569" fill-rule="evenodd"/>
<path d="M 229 80 L 221 78 L 217 79 L 209 86 L 207 92 L 202 94 L 187 94 L 176 99 L 170 106 L 166 123 L 164 122 L 162 124 L 160 122 L 159 125 L 147 118 L 135 115 L 111 117 L 102 123 L 81 145 L 75 154 L 75 160 L 73 163 L 73 181 L 75 186 L 73 187 L 73 192 L 70 197 L 60 205 L 59 203 L 56 205 L 47 263 L 43 275 L 44 287 L 51 297 L 64 299 L 81 305 L 104 305 L 123 298 L 141 284 L 161 252 L 163 239 L 167 235 L 166 231 L 168 228 L 168 222 L 179 199 L 185 176 L 183 171 L 185 167 L 182 162 L 181 152 L 183 148 L 201 146 L 209 143 L 216 137 L 221 127 L 221 109 L 223 105 L 226 105 L 232 99 L 235 92 L 234 86 Z" fill="rgb(243,255,115)" fill-opacity="0.01569" fill-rule="evenodd"/>
<path d="M 210 290 L 208 294 L 208 297 L 213 298 L 215 293 L 214 291 Z" fill="rgb(243,255,115)" fill-opacity="0.03137" fill-rule="evenodd"/>
<path d="M 256 223 L 254 226 L 254 233 L 256 237 L 259 239 L 267 239 L 270 237 L 272 233 L 272 226 L 270 223 L 266 221 L 260 221 Z" fill="rgb(243,255,115)" fill-opacity="0.03137" fill-rule="evenodd"/>
<path d="M 202 213 L 195 217 L 190 224 L 188 233 L 189 240 L 192 246 L 200 253 L 206 255 L 219 254 L 223 252 L 229 246 L 232 238 L 231 227 L 228 221 L 219 214 L 212 212 Z" fill="rgb(243,255,115)" fill-opacity="0.03137" fill-rule="evenodd"/>
<path d="M 147 130 L 137 127 L 125 126 L 111 129 L 99 136 L 92 144 L 86 157 L 84 167 L 85 180 L 87 186 L 86 201 L 77 208 L 61 217 L 57 222 L 56 221 L 55 223 L 53 223 L 50 240 L 49 255 L 47 262 L 48 268 L 52 275 L 60 283 L 76 292 L 83 294 L 97 295 L 114 290 L 124 284 L 133 274 L 139 265 L 142 257 L 152 243 L 155 230 L 155 223 L 153 219 L 155 218 L 154 216 L 156 213 L 156 210 L 163 202 L 170 188 L 173 175 L 173 167 L 169 152 L 163 142 L 157 136 Z" fill="rgb(243,255,115)" fill-opacity="0.03137" fill-rule="evenodd"/>
<path d="M 187 100 L 181 103 L 174 112 L 172 125 L 175 133 L 181 139 L 188 141 L 198 141 L 204 139 L 212 132 L 214 128 L 215 116 L 213 109 L 208 103 L 204 101 L 194 99 Z" fill="rgb(243,255,115)" fill-opacity="0.03137" fill-rule="evenodd"/>
<path d="M 219 88 L 218 91 L 220 95 L 225 94 L 226 89 L 224 87 Z" fill="rgb(243,255,115)" fill-opacity="0.03137" fill-rule="evenodd"/>
<path d="M 210 290 L 210 292 L 208 294 L 209 298 L 212 298 L 214 296 L 213 291 Z" fill="rgb(243,255,115)" fill-opacity="0.04706" fill-rule="evenodd"/>
<path d="M 259 225 L 257 227 L 258 234 L 266 235 L 269 232 L 269 227 L 267 225 Z" fill="rgb(243,255,115)" fill-opacity="0.04706" fill-rule="evenodd"/>
<path d="M 203 218 L 196 224 L 194 228 L 193 236 L 196 243 L 200 247 L 206 250 L 215 250 L 220 248 L 225 243 L 227 238 L 227 231 L 224 224 L 216 218 L 212 217 Z" fill="rgb(243,255,115)" fill-opacity="0.04706" fill-rule="evenodd"/>
<path d="M 143 137 L 132 134 L 123 134 L 111 137 L 106 140 L 99 147 L 99 149 L 95 155 L 92 169 L 93 178 L 97 191 L 100 195 L 104 205 L 100 210 L 93 211 L 84 215 L 81 215 L 70 221 L 62 229 L 56 246 L 56 258 L 60 269 L 65 276 L 77 284 L 88 287 L 95 287 L 110 283 L 117 279 L 128 267 L 134 252 L 139 247 L 145 238 L 146 227 L 143 220 L 140 218 L 138 212 L 139 210 L 147 205 L 160 191 L 160 189 L 164 182 L 165 169 L 162 156 L 158 149 L 150 141 Z" fill="rgb(243,255,115)" fill-opacity="0.04706" fill-rule="evenodd"/>
<path d="M 188 105 L 180 111 L 178 116 L 178 125 L 180 130 L 183 133 L 190 136 L 201 135 L 209 127 L 210 124 L 209 114 L 206 109 L 202 106 L 193 104 Z" fill="rgb(243,255,115)" fill-opacity="0.04706" fill-rule="evenodd"/>
<path d="M 221 87 L 219 88 L 220 95 L 223 95 L 226 92 L 226 89 L 224 87 Z" fill="rgb(243,255,115)" fill-opacity="0.04706" fill-rule="evenodd"/>
<path d="M 210 291 L 208 295 L 209 298 L 212 298 L 214 296 L 213 291 Z" fill="rgb(243,255,115)" fill-opacity="0.09412" fill-rule="evenodd"/>
<path d="M 136 226 L 134 227 L 133 230 L 134 237 L 138 238 L 142 233 L 142 229 L 139 226 Z" fill="rgb(243,255,115)" fill-opacity="0.09412" fill-rule="evenodd"/>
<path d="M 258 226 L 257 232 L 260 235 L 265 235 L 268 233 L 269 227 L 267 225 Z" fill="rgb(243,255,115)" fill-opacity="0.09412" fill-rule="evenodd"/>
<path d="M 202 223 L 200 225 L 197 233 L 199 240 L 206 245 L 217 245 L 222 241 L 223 238 L 223 233 L 220 226 L 211 221 L 207 221 Z" fill="rgb(243,255,115)" fill-opacity="0.09412" fill-rule="evenodd"/>
<path d="M 104 222 L 93 221 L 80 224 L 75 227 L 69 233 L 65 241 L 64 256 L 66 263 L 69 268 L 75 274 L 81 277 L 96 279 L 106 276 L 118 267 L 123 258 L 126 245 L 125 236 L 117 228 Z" fill="rgb(243,255,115)" fill-opacity="0.09412" fill-rule="evenodd"/>
<path d="M 115 144 L 107 150 L 104 154 L 101 162 L 100 173 L 101 179 L 104 185 L 109 192 L 122 199 L 135 199 L 145 195 L 153 187 L 157 178 L 157 165 L 153 156 L 147 149 L 141 145 L 133 142 L 121 142 Z" fill="rgb(243,255,115)" fill-opacity="0.09412" fill-rule="evenodd"/>
<path d="M 183 114 L 182 125 L 186 130 L 188 131 L 198 131 L 205 127 L 207 119 L 202 112 L 196 109 L 189 109 Z" fill="rgb(243,255,115)" fill-opacity="0.09412" fill-rule="evenodd"/>
<path d="M 221 87 L 219 88 L 219 93 L 221 95 L 223 95 L 226 91 L 225 88 Z" fill="rgb(243,255,115)" fill-opacity="0.09412" fill-rule="evenodd"/>
<path d="M 210 291 L 208 295 L 209 298 L 212 298 L 214 296 L 213 291 Z" fill="rgb(243,255,115)" fill-opacity="0.18824" fill-rule="evenodd"/>
<path d="M 92 230 L 84 232 L 75 240 L 73 245 L 73 256 L 76 262 L 81 267 L 85 269 L 95 270 L 104 267 L 111 261 L 115 253 L 115 245 L 113 240 L 107 234 L 101 231 Z" fill="rgb(243,255,115)" fill-opacity="0.18824" fill-rule="evenodd"/>
<path d="M 139 226 L 136 226 L 133 231 L 133 235 L 137 238 L 142 233 L 142 230 Z" fill="rgb(243,255,115)" fill-opacity="0.18824" fill-rule="evenodd"/>
<path d="M 257 228 L 257 231 L 260 235 L 265 235 L 269 231 L 268 226 L 260 225 Z" fill="rgb(243,255,115)" fill-opacity="0.18824" fill-rule="evenodd"/>
<path d="M 203 223 L 198 229 L 198 237 L 200 241 L 207 245 L 219 244 L 222 240 L 222 230 L 217 224 L 212 223 L 210 221 Z" fill="rgb(243,255,115)" fill-opacity="0.18824" fill-rule="evenodd"/>
<path d="M 122 151 L 116 154 L 111 160 L 109 166 L 109 173 L 111 179 L 118 187 L 126 190 L 136 189 L 143 185 L 148 177 L 147 163 L 139 154 L 135 152 Z" fill="rgb(243,255,115)" fill-opacity="0.18824" fill-rule="evenodd"/>
<path d="M 187 110 L 184 113 L 182 119 L 183 127 L 186 130 L 189 131 L 197 131 L 202 129 L 206 125 L 205 116 L 198 110 L 195 109 Z" fill="rgb(243,255,115)" fill-opacity="0.18824" fill-rule="evenodd"/>
<path d="M 223 87 L 220 88 L 219 90 L 219 93 L 221 95 L 223 95 L 226 90 Z" fill="rgb(243,255,115)" fill-opacity="0.18824" fill-rule="evenodd"/>
<path d="M 212 291 L 210 291 L 208 296 L 210 298 L 213 297 L 214 293 Z" fill="rgb(243,255,115)" fill-opacity="0.25098" fill-rule="evenodd"/>
<path d="M 77 240 L 75 247 L 75 257 L 77 262 L 84 267 L 87 268 L 97 267 L 110 259 L 113 254 L 112 242 L 107 237 L 103 235 L 84 234 Z" fill="rgb(243,255,115)" fill-opacity="0.25098" fill-rule="evenodd"/>
<path d="M 135 227 L 133 231 L 134 236 L 140 236 L 141 230 L 140 227 Z" fill="rgb(243,255,115)" fill-opacity="0.25098" fill-rule="evenodd"/>
<path d="M 257 229 L 258 233 L 261 235 L 266 234 L 269 229 L 266 225 L 261 225 Z" fill="rgb(243,255,115)" fill-opacity="0.25098" fill-rule="evenodd"/>
<path d="M 203 223 L 199 227 L 198 230 L 199 239 L 203 243 L 208 245 L 216 245 L 220 243 L 222 240 L 222 231 L 220 227 L 217 224 L 211 223 L 210 221 Z" fill="rgb(243,255,115)" fill-opacity="0.25098" fill-rule="evenodd"/>
<path d="M 114 158 L 111 165 L 111 173 L 115 182 L 124 187 L 135 187 L 142 184 L 145 181 L 147 176 L 147 169 L 143 161 L 137 156 L 130 154 L 130 152 L 121 152 Z" fill="rgb(243,255,115)" fill-opacity="0.25098" fill-rule="evenodd"/>
<path d="M 186 111 L 183 115 L 182 124 L 185 129 L 190 131 L 196 131 L 202 129 L 205 126 L 206 118 L 201 112 L 195 109 L 190 109 Z" fill="rgb(243,255,115)" fill-opacity="0.25098" fill-rule="evenodd"/>
<path d="M 224 88 L 220 88 L 219 90 L 220 94 L 222 95 L 224 94 Z" fill="rgb(243,255,115)" fill-opacity="0.25098" fill-rule="evenodd"/>
<path d="M 212 291 L 210 291 L 209 294 L 211 298 L 213 296 Z" fill="rgb(243,255,115)" fill-opacity="0.25098" fill-rule="evenodd"/>
<path d="M 78 239 L 75 249 L 75 256 L 78 263 L 82 266 L 88 268 L 96 267 L 106 262 L 112 256 L 113 253 L 112 243 L 105 236 L 85 234 L 82 235 Z" fill="rgb(243,255,115)" fill-opacity="0.25098" fill-rule="evenodd"/>
<path d="M 138 226 L 135 227 L 133 232 L 134 236 L 138 237 L 141 234 L 141 229 Z" fill="rgb(243,255,115)" fill-opacity="0.25098" fill-rule="evenodd"/>
<path d="M 267 226 L 264 225 L 258 227 L 259 234 L 267 233 L 268 231 Z" fill="rgb(243,255,115)" fill-opacity="0.25098" fill-rule="evenodd"/>
<path d="M 202 224 L 199 228 L 198 231 L 199 239 L 203 243 L 209 245 L 218 244 L 222 239 L 222 232 L 220 227 L 214 223 L 211 223 L 210 221 Z" fill="rgb(243,255,115)" fill-opacity="0.25098" fill-rule="evenodd"/>
<path d="M 118 154 L 113 160 L 111 167 L 111 172 L 114 180 L 118 184 L 125 187 L 134 187 L 140 185 L 144 182 L 147 175 L 147 169 L 144 163 L 138 157 L 130 154 L 130 152 L 122 152 Z" fill="rgb(243,255,115)" fill-opacity="0.25098" fill-rule="evenodd"/>
<path d="M 184 114 L 182 122 L 183 126 L 187 130 L 195 131 L 199 130 L 205 126 L 206 119 L 204 115 L 198 110 L 190 109 Z" fill="rgb(243,255,115)" fill-opacity="0.25098" fill-rule="evenodd"/>
<path d="M 220 88 L 219 92 L 220 94 L 223 94 L 225 92 L 224 88 Z" fill="rgb(243,255,115)" fill-opacity="0.25098" fill-rule="evenodd"/>
</svg>