<?xml version='1.0' encoding='utf-8'?>
<svg xmlns="http://www.w3.org/2000/svg" width="200" height="274" viewBox="89 53 200 274">
<path d="M 206 276 L 201 275 L 198 281 L 199 286 L 203 286 L 206 283 L 207 280 Z" fill="#ffffff" fill-rule="evenodd" />
<path d="M 148 266 L 147 268 L 148 273 L 153 274 L 155 268 L 153 266 Z" fill="#ffffff" fill-rule="evenodd" />
<path d="M 193 241 L 186 245 L 187 247 L 186 253 L 189 257 L 196 259 L 201 256 L 203 250 L 202 246 L 198 242 Z" fill="#ffffff" fill-rule="evenodd" />
<path d="M 124 206 L 122 206 L 119 209 L 120 213 L 124 213 L 126 211 L 126 208 Z" fill="#ffffff" fill-rule="evenodd" />
<path d="M 236 192 L 231 197 L 230 204 L 233 208 L 240 209 L 244 207 L 246 204 L 246 198 L 244 194 L 241 192 Z" fill="#ffffff" fill-rule="evenodd" />
<path d="M 146 159 L 144 162 L 145 168 L 150 172 L 155 172 L 158 169 L 158 163 L 153 159 L 150 158 Z" fill="#ffffff" fill-rule="evenodd" />
<path d="M 202 153 L 201 160 L 204 163 L 208 163 L 211 159 L 210 155 L 207 153 Z" fill="#ffffff" fill-rule="evenodd" />
<path d="M 230 108 L 227 109 L 221 116 L 219 125 L 220 129 L 223 133 L 235 134 L 244 129 L 246 125 L 246 118 L 240 110 L 235 108 Z" fill="#ffffff" fill-rule="evenodd" />
<path d="M 205 276 L 200 277 L 198 281 L 199 286 L 203 286 L 206 282 Z" fill="#ffffff" fill-rule="evenodd" />
<path d="M 150 266 L 148 267 L 149 274 L 152 274 L 154 272 L 153 266 Z" fill="#ffffff" fill-rule="evenodd" />
<path d="M 190 242 L 187 245 L 186 253 L 191 258 L 195 259 L 198 258 L 202 254 L 202 247 L 197 242 Z" fill="#ffffff" fill-rule="evenodd" />
<path d="M 121 207 L 119 211 L 120 213 L 125 212 L 126 209 L 125 207 Z" fill="#ffffff" fill-rule="evenodd" />
<path d="M 240 192 L 237 192 L 233 194 L 230 199 L 230 203 L 232 207 L 235 209 L 242 208 L 246 203 L 245 196 Z" fill="#ffffff" fill-rule="evenodd" />
<path d="M 146 159 L 144 163 L 145 168 L 150 172 L 156 171 L 158 168 L 157 162 L 153 159 Z" fill="#ffffff" fill-rule="evenodd" />
<path d="M 202 153 L 203 155 L 202 161 L 205 163 L 209 162 L 211 158 L 209 154 Z" fill="#ffffff" fill-rule="evenodd" />
<path d="M 241 111 L 234 108 L 230 108 L 223 113 L 220 119 L 220 129 L 222 132 L 226 134 L 234 134 L 240 132 L 245 127 L 246 119 Z" fill="#ffffff" fill-rule="evenodd" />
</svg>