<?xml version='1.0' encoding='utf-8'?>
<svg xmlns="http://www.w3.org/2000/svg" width="331" height="417" viewBox="114 82 331 417">
<path d="M 288 449 L 284 453 L 284 456 L 287 459 L 292 459 L 295 457 L 296 453 L 292 449 Z" fill="#ffffff" fill-rule="evenodd" />
<path d="M 248 429 L 243 433 L 241 437 L 241 444 L 243 448 L 252 453 L 258 453 L 262 451 L 267 444 L 266 435 L 259 428 Z" fill="#ffffff" fill-rule="evenodd" />
<path d="M 149 411 L 146 413 L 147 415 L 146 420 L 149 423 L 153 423 L 156 420 L 157 416 L 153 411 Z" fill="#ffffff" fill-rule="evenodd" />
<path d="M 311 403 L 307 410 L 307 426 L 309 430 L 314 435 L 319 437 L 325 437 L 333 434 L 339 428 L 341 422 L 341 417 L 336 407 L 329 401 L 319 402 L 316 401 Z" fill="#ffffff" fill-rule="evenodd" />
<path d="M 217 387 L 210 391 L 208 395 L 208 405 L 210 409 L 213 411 L 223 411 L 228 409 L 233 404 L 234 395 L 232 391 L 227 387 Z" fill="#ffffff" fill-rule="evenodd" />
<path d="M 400 330 L 396 336 L 396 343 L 398 348 L 406 354 L 414 353 L 419 348 L 422 341 L 421 334 L 417 330 L 414 329 Z" fill="#ffffff" fill-rule="evenodd" />
<path d="M 338 303 L 334 304 L 330 309 L 330 318 L 334 322 L 341 321 L 346 315 L 345 308 L 341 304 Z" fill="#ffffff" fill-rule="evenodd" />
<path d="M 297 236 L 289 240 L 283 247 L 279 257 L 280 270 L 285 279 L 291 284 L 300 287 L 310 286 L 318 282 L 326 273 L 329 265 L 329 251 L 327 246 L 318 238 L 309 236 Z" fill="#ffffff" fill-rule="evenodd" />
<path d="M 324 183 L 319 186 L 318 194 L 320 198 L 328 199 L 333 195 L 334 190 L 333 187 L 330 184 Z" fill="#ffffff" fill-rule="evenodd" />
<path d="M 348 115 L 348 117 L 346 119 L 346 123 L 347 125 L 353 126 L 357 122 L 356 116 Z" fill="#ffffff" fill-rule="evenodd" />
<path d="M 289 449 L 285 452 L 285 457 L 288 459 L 291 459 L 295 456 L 295 452 L 293 450 Z" fill="#ffffff" fill-rule="evenodd" />
<path d="M 251 428 L 246 430 L 243 433 L 241 442 L 242 446 L 246 450 L 250 452 L 257 453 L 264 449 L 267 443 L 267 437 L 259 428 Z" fill="#ffffff" fill-rule="evenodd" />
<path d="M 149 411 L 146 413 L 148 414 L 146 417 L 146 420 L 149 423 L 152 423 L 156 420 L 157 416 L 154 412 Z" fill="#ffffff" fill-rule="evenodd" />
<path d="M 310 404 L 307 411 L 307 425 L 309 430 L 314 435 L 321 437 L 328 436 L 334 433 L 338 429 L 341 421 L 339 412 L 335 406 L 328 401 L 320 402 L 316 401 Z" fill="#ffffff" fill-rule="evenodd" />
<path d="M 218 387 L 213 389 L 209 393 L 208 405 L 214 411 L 223 411 L 229 408 L 232 405 L 234 401 L 234 396 L 230 389 L 226 387 Z" fill="#ffffff" fill-rule="evenodd" />
<path d="M 401 330 L 398 332 L 396 337 L 396 342 L 399 349 L 406 354 L 411 354 L 415 352 L 421 344 L 422 338 L 420 333 L 414 329 Z" fill="#ffffff" fill-rule="evenodd" />
<path d="M 334 304 L 330 310 L 330 317 L 333 321 L 338 322 L 344 318 L 346 314 L 345 308 L 342 305 Z" fill="#ffffff" fill-rule="evenodd" />
<path d="M 298 236 L 291 239 L 282 249 L 279 260 L 280 269 L 284 277 L 292 284 L 297 286 L 308 286 L 320 280 L 325 274 L 329 264 L 329 253 L 326 245 L 321 240 L 313 237 Z" fill="#ffffff" fill-rule="evenodd" />
<path d="M 324 183 L 323 185 L 319 186 L 318 194 L 322 199 L 327 199 L 332 196 L 334 191 L 330 184 Z" fill="#ffffff" fill-rule="evenodd" />
<path d="M 348 116 L 346 122 L 349 126 L 354 125 L 357 121 L 357 118 L 353 115 Z" fill="#ffffff" fill-rule="evenodd" />
</svg>