<?xml version="1.0" encoding="UTF-8"?>
<svg xmlns="http://www.w3.org/2000/svg" width="331" height="417" viewBox="114 82 331 417">
<path d="M 371 108 L 350 101 L 334 112 L 334 129 L 340 138 L 351 144 L 347 147 L 352 147 L 345 154 L 314 153 L 300 159 L 291 151 L 282 128 L 286 190 L 260 279 L 274 300 L 286 305 L 296 317 L 304 336 L 320 354 L 319 359 L 272 383 L 250 358 L 229 346 L 231 336 L 195 351 L 169 382 L 139 384 L 131 416 L 137 448 L 154 450 L 186 440 L 220 448 L 232 461 L 248 468 L 271 466 L 295 475 L 336 473 L 349 468 L 374 449 L 379 431 L 376 382 L 402 389 L 419 388 L 433 352 L 429 327 L 409 293 L 387 295 L 374 290 L 360 266 L 355 231 L 358 215 L 369 206 L 360 194 L 359 183 Z M 344 361 L 347 359 L 349 361 L 355 362 L 347 359 L 353 358 L 357 361 L 358 367 L 353 367 L 355 365 Z" fill="rgb(247,255,121)" fill-opacity="0.01569" fill-rule="evenodd"/>
<path d="M 143 398 L 137 402 L 135 405 L 133 416 L 133 426 L 136 431 L 140 434 L 148 436 L 159 435 L 166 429 L 168 429 L 170 423 L 173 419 L 172 416 L 175 413 L 172 412 L 174 409 L 173 407 L 168 405 L 168 403 L 164 402 L 163 400 L 161 400 L 159 398 Z" fill="rgb(247,255,121)" fill-opacity="0.03137" fill-rule="evenodd"/>
<path d="M 180 401 L 181 412 L 188 422 L 204 432 L 222 436 L 227 440 L 231 449 L 239 458 L 251 463 L 276 459 L 282 464 L 287 466 L 301 466 L 306 463 L 312 462 L 327 463 L 340 460 L 351 454 L 358 447 L 364 436 L 367 426 L 367 412 L 363 399 L 359 392 L 349 382 L 334 375 L 325 374 L 314 375 L 306 377 L 299 382 L 295 383 L 285 394 L 280 404 L 279 413 L 277 413 L 277 416 L 274 420 L 262 414 L 257 409 L 258 406 L 257 392 L 253 381 L 246 372 L 237 366 L 228 363 L 221 362 L 212 363 L 199 369 L 187 382 L 187 385 L 183 391 Z" fill="rgb(247,255,121)" fill-opacity="0.03137" fill-rule="evenodd"/>
<path d="M 313 169 L 302 180 L 300 189 L 300 211 L 298 214 L 295 214 L 278 226 L 272 234 L 264 266 L 268 279 L 273 287 L 283 296 L 306 307 L 309 311 L 311 321 L 315 329 L 323 337 L 332 340 L 342 340 L 352 338 L 363 332 L 370 342 L 376 358 L 387 370 L 401 376 L 416 376 L 425 373 L 432 355 L 433 341 L 428 325 L 416 305 L 397 306 L 381 313 L 371 315 L 369 314 L 367 307 L 358 292 L 349 282 L 348 249 L 344 239 L 344 234 L 339 226 L 340 223 L 338 223 L 340 215 L 345 211 L 349 204 L 352 185 L 347 174 L 336 168 L 327 166 Z" fill="rgb(247,255,121)" fill-opacity="0.03137" fill-rule="evenodd"/>
<path d="M 365 151 L 365 155 L 364 156 L 364 162 L 364 156 L 365 155 Z" fill="rgb(247,255,121)" fill-opacity="0.03137" fill-rule="evenodd"/>
<path d="M 342 115 L 341 124 L 347 131 L 355 133 L 364 132 L 366 126 L 365 125 L 366 121 L 364 119 L 364 116 L 362 116 L 362 114 L 359 111 L 348 110 Z" fill="rgb(247,255,121)" fill-opacity="0.03137" fill-rule="evenodd"/>
<path d="M 145 407 L 141 411 L 140 415 L 141 423 L 147 427 L 158 426 L 162 419 L 162 413 L 160 410 L 156 407 Z" fill="rgb(247,255,121)" fill-opacity="0.04706" fill-rule="evenodd"/>
<path d="M 347 391 L 342 387 L 335 384 L 321 382 L 307 385 L 294 395 L 294 397 L 290 403 L 287 413 L 289 438 L 283 455 L 286 459 L 293 459 L 300 455 L 302 456 L 306 454 L 328 455 L 336 453 L 344 449 L 351 443 L 358 429 L 359 414 L 357 406 L 353 398 Z" fill="rgb(247,255,121)" fill-opacity="0.04706" fill-rule="evenodd"/>
<path d="M 201 378 L 196 384 L 193 390 L 191 399 L 192 408 L 196 416 L 202 422 L 210 426 L 229 428 L 233 434 L 234 442 L 236 447 L 245 456 L 252 458 L 258 458 L 268 454 L 270 451 L 273 450 L 275 446 L 275 438 L 271 429 L 263 422 L 250 417 L 248 414 L 249 393 L 246 384 L 241 378 L 235 374 L 226 371 L 212 372 Z" fill="rgb(247,255,121)" fill-opacity="0.04706" fill-rule="evenodd"/>
<path d="M 404 313 L 391 318 L 383 326 L 380 334 L 380 344 L 385 357 L 392 364 L 397 367 L 404 369 L 414 369 L 424 365 L 430 359 L 433 349 L 433 343 L 429 328 L 424 318 L 415 313 Z" fill="rgb(247,255,121)" fill-opacity="0.04706" fill-rule="evenodd"/>
<path d="M 295 223 L 284 229 L 274 240 L 270 248 L 269 266 L 273 278 L 276 283 L 286 292 L 294 296 L 314 300 L 317 303 L 318 307 L 317 311 L 318 318 L 323 327 L 331 332 L 343 332 L 349 330 L 354 325 L 356 321 L 357 307 L 354 300 L 348 294 L 343 292 L 339 288 L 338 285 L 342 268 L 343 258 L 341 246 L 337 237 L 333 231 L 326 225 L 318 221 L 309 220 Z" fill="rgb(247,255,121)" fill-opacity="0.04706" fill-rule="evenodd"/>
<path d="M 332 174 L 327 173 L 320 174 L 313 178 L 309 184 L 308 197 L 313 207 L 318 211 L 327 211 L 330 209 L 333 209 L 339 204 L 342 199 L 343 186 L 341 181 L 336 176 Z" fill="rgb(247,255,121)" fill-opacity="0.04706" fill-rule="evenodd"/>
<path d="M 347 115 L 348 117 L 345 120 L 347 126 L 349 127 L 354 126 L 357 123 L 358 118 L 353 114 Z" fill="rgb(247,255,121)" fill-opacity="0.04706" fill-rule="evenodd"/>
<path d="M 287 449 L 284 453 L 284 457 L 286 459 L 293 459 L 296 456 L 296 452 L 292 449 Z" fill="rgb(247,255,121)" fill-opacity="0.09412" fill-rule="evenodd"/>
<path d="M 248 428 L 241 435 L 241 445 L 246 451 L 251 453 L 259 453 L 263 451 L 268 442 L 268 438 L 266 434 L 258 427 Z" fill="rgb(247,255,121)" fill-opacity="0.09412" fill-rule="evenodd"/>
<path d="M 146 412 L 145 419 L 148 423 L 154 423 L 157 419 L 156 413 L 153 411 Z" fill="rgb(247,255,121)" fill-opacity="0.09412" fill-rule="evenodd"/>
<path d="M 318 390 L 309 393 L 300 401 L 297 406 L 295 413 L 295 424 L 301 439 L 307 444 L 315 447 L 330 447 L 339 443 L 347 435 L 351 425 L 351 412 L 345 400 L 338 394 L 327 390 Z" fill="rgb(247,255,121)" fill-opacity="0.09412" fill-rule="evenodd"/>
<path d="M 216 379 L 209 382 L 203 388 L 200 395 L 200 405 L 202 410 L 209 417 L 220 420 L 226 419 L 233 416 L 239 409 L 241 403 L 241 394 L 238 387 L 231 381 L 226 379 Z" fill="rgb(247,255,121)" fill-opacity="0.09412" fill-rule="evenodd"/>
<path d="M 401 322 L 397 324 L 390 332 L 389 335 L 390 349 L 393 354 L 401 360 L 405 361 L 416 360 L 420 358 L 427 350 L 429 343 L 428 334 L 424 327 L 416 322 L 412 321 Z" fill="rgb(247,255,121)" fill-opacity="0.09412" fill-rule="evenodd"/>
<path d="M 333 301 L 327 307 L 326 310 L 327 317 L 331 322 L 335 324 L 340 324 L 347 319 L 349 311 L 347 306 L 341 301 Z" fill="rgb(247,255,121)" fill-opacity="0.09412" fill-rule="evenodd"/>
<path d="M 310 228 L 298 229 L 288 234 L 280 242 L 275 254 L 275 267 L 277 273 L 282 281 L 289 287 L 295 290 L 304 292 L 315 291 L 327 284 L 332 277 L 336 266 L 336 253 L 334 246 L 330 239 L 322 232 Z" fill="rgb(247,255,121)" fill-opacity="0.09412" fill-rule="evenodd"/>
<path d="M 330 183 L 323 183 L 319 185 L 317 189 L 318 196 L 322 200 L 328 200 L 334 194 L 334 188 Z" fill="rgb(247,255,121)" fill-opacity="0.09412" fill-rule="evenodd"/>
<path d="M 348 115 L 348 117 L 346 118 L 345 121 L 346 124 L 348 126 L 354 126 L 357 123 L 358 119 L 357 117 L 353 114 Z" fill="rgb(247,255,121)" fill-opacity="0.09412" fill-rule="evenodd"/>
<path d="M 285 451 L 284 456 L 287 459 L 292 459 L 296 456 L 296 452 L 292 449 L 288 449 Z" fill="rgb(247,255,121)" fill-opacity="0.18824" fill-rule="evenodd"/>
<path d="M 247 429 L 242 434 L 241 437 L 242 447 L 245 450 L 252 453 L 261 452 L 267 444 L 267 436 L 260 428 Z" fill="rgb(247,255,121)" fill-opacity="0.18824" fill-rule="evenodd"/>
<path d="M 145 413 L 147 415 L 146 421 L 148 423 L 155 422 L 157 419 L 157 415 L 155 412 L 148 411 Z" fill="rgb(247,255,121)" fill-opacity="0.18824" fill-rule="evenodd"/>
<path d="M 319 399 L 312 402 L 306 408 L 304 413 L 304 423 L 306 429 L 310 434 L 314 437 L 325 439 L 335 435 L 338 432 L 342 425 L 343 419 L 342 413 L 335 403 L 326 399 Z" fill="rgb(247,255,121)" fill-opacity="0.18824" fill-rule="evenodd"/>
<path d="M 229 388 L 224 386 L 220 386 L 212 389 L 209 392 L 207 398 L 207 403 L 209 408 L 212 411 L 220 412 L 224 411 L 232 406 L 234 402 L 234 394 Z" fill="rgb(247,255,121)" fill-opacity="0.18824" fill-rule="evenodd"/>
<path d="M 402 329 L 396 335 L 396 344 L 400 351 L 403 353 L 413 354 L 420 347 L 422 342 L 422 336 L 415 329 L 411 328 Z" fill="rgb(247,255,121)" fill-opacity="0.18824" fill-rule="evenodd"/>
<path d="M 334 303 L 334 305 L 330 309 L 329 315 L 332 321 L 339 322 L 343 320 L 346 316 L 346 309 L 343 305 L 339 303 Z" fill="rgb(247,255,121)" fill-opacity="0.18824" fill-rule="evenodd"/>
<path d="M 295 236 L 287 241 L 283 246 L 279 255 L 279 268 L 283 277 L 292 285 L 298 287 L 308 287 L 320 281 L 328 270 L 330 264 L 329 249 L 327 245 L 321 239 L 317 237 L 307 235 Z" fill="rgb(247,255,121)" fill-opacity="0.18824" fill-rule="evenodd"/>
<path d="M 329 183 L 324 183 L 318 187 L 318 195 L 321 199 L 324 200 L 328 199 L 333 195 L 334 189 L 332 185 Z" fill="rgb(247,255,121)" fill-opacity="0.18824" fill-rule="evenodd"/>
<path d="M 348 115 L 348 117 L 346 118 L 346 124 L 348 126 L 355 125 L 357 122 L 357 117 L 352 114 Z" fill="rgb(247,255,121)" fill-opacity="0.18824" fill-rule="evenodd"/>
<path d="M 288 449 L 284 453 L 284 456 L 287 459 L 292 459 L 295 457 L 296 453 L 292 449 Z" fill="rgb(247,255,121)" fill-opacity="0.25098" fill-rule="evenodd"/>
<path d="M 248 429 L 243 433 L 241 437 L 241 444 L 243 448 L 252 453 L 258 453 L 262 451 L 267 444 L 266 435 L 259 428 Z" fill="rgb(247,255,121)" fill-opacity="0.25098" fill-rule="evenodd"/>
<path d="M 149 411 L 146 413 L 147 415 L 146 420 L 149 423 L 153 423 L 156 420 L 157 416 L 153 411 Z" fill="rgb(247,255,121)" fill-opacity="0.25098" fill-rule="evenodd"/>
<path d="M 311 403 L 307 410 L 307 426 L 309 430 L 314 435 L 319 437 L 325 437 L 333 434 L 339 428 L 341 422 L 341 417 L 336 407 L 329 401 L 319 402 L 316 401 Z" fill="rgb(247,255,121)" fill-opacity="0.25098" fill-rule="evenodd"/>
<path d="M 217 387 L 210 391 L 208 395 L 208 405 L 210 409 L 213 411 L 223 411 L 228 409 L 233 404 L 234 395 L 232 391 L 227 387 Z" fill="rgb(247,255,121)" fill-opacity="0.25098" fill-rule="evenodd"/>
<path d="M 400 330 L 396 336 L 396 343 L 398 348 L 406 354 L 414 353 L 419 348 L 422 341 L 421 334 L 417 330 L 414 329 Z" fill="rgb(247,255,121)" fill-opacity="0.25098" fill-rule="evenodd"/>
<path d="M 338 303 L 334 304 L 330 309 L 330 318 L 334 322 L 341 321 L 346 315 L 345 308 L 341 304 Z" fill="rgb(247,255,121)" fill-opacity="0.25098" fill-rule="evenodd"/>
<path d="M 297 236 L 289 240 L 283 247 L 279 257 L 280 270 L 285 279 L 291 284 L 300 287 L 310 286 L 318 282 L 326 273 L 329 265 L 329 251 L 327 246 L 318 238 L 309 236 Z" fill="rgb(247,255,121)" fill-opacity="0.25098" fill-rule="evenodd"/>
<path d="M 324 183 L 319 186 L 318 194 L 320 198 L 328 199 L 333 195 L 334 190 L 333 187 L 330 184 Z" fill="rgb(247,255,121)" fill-opacity="0.25098" fill-rule="evenodd"/>
<path d="M 348 115 L 348 117 L 346 119 L 346 123 L 347 125 L 353 126 L 357 122 L 356 116 Z" fill="rgb(247,255,121)" fill-opacity="0.25098" fill-rule="evenodd"/>
<path d="M 289 449 L 285 452 L 285 457 L 288 459 L 291 459 L 295 456 L 295 452 L 293 450 Z" fill="rgb(247,255,121)" fill-opacity="0.25098" fill-rule="evenodd"/>
<path d="M 251 428 L 246 430 L 243 433 L 241 442 L 242 446 L 246 450 L 250 452 L 257 453 L 264 449 L 267 443 L 267 437 L 259 428 Z" fill="rgb(247,255,121)" fill-opacity="0.25098" fill-rule="evenodd"/>
<path d="M 149 411 L 146 413 L 148 414 L 146 417 L 146 420 L 149 423 L 152 423 L 156 420 L 157 416 L 154 412 Z" fill="rgb(247,255,121)" fill-opacity="0.25098" fill-rule="evenodd"/>
<path d="M 310 404 L 307 411 L 307 425 L 309 430 L 314 435 L 321 437 L 328 436 L 334 433 L 338 429 L 341 421 L 339 412 L 335 406 L 328 401 L 320 402 L 316 401 Z" fill="rgb(247,255,121)" fill-opacity="0.25098" fill-rule="evenodd"/>
<path d="M 218 387 L 213 389 L 209 393 L 208 405 L 214 411 L 223 411 L 229 408 L 232 405 L 234 401 L 234 396 L 230 389 L 226 387 Z" fill="rgb(247,255,121)" fill-opacity="0.25098" fill-rule="evenodd"/>
<path d="M 401 330 L 398 332 L 396 337 L 396 342 L 399 349 L 406 354 L 411 354 L 415 352 L 421 344 L 422 338 L 420 333 L 414 329 Z" fill="rgb(247,255,121)" fill-opacity="0.25098" fill-rule="evenodd"/>
<path d="M 334 304 L 330 310 L 330 317 L 333 321 L 338 322 L 344 318 L 346 314 L 345 308 L 342 305 Z" fill="rgb(247,255,121)" fill-opacity="0.25098" fill-rule="evenodd"/>
<path d="M 298 236 L 291 239 L 282 249 L 279 260 L 280 269 L 284 277 L 292 284 L 297 286 L 308 286 L 320 280 L 325 274 L 329 264 L 329 253 L 326 245 L 321 240 L 313 237 Z" fill="rgb(247,255,121)" fill-opacity="0.25098" fill-rule="evenodd"/>
<path d="M 324 183 L 323 185 L 319 186 L 318 194 L 322 199 L 327 199 L 332 196 L 334 191 L 330 184 Z" fill="rgb(247,255,121)" fill-opacity="0.25098" fill-rule="evenodd"/>
<path d="M 348 116 L 346 122 L 349 126 L 354 125 L 357 121 L 357 118 L 353 115 Z" fill="rgb(247,255,121)" fill-opacity="0.25098" fill-rule="evenodd"/>
</svg>