<?xml version="1.0" encoding="UTF-8"?>
<svg xmlns="http://www.w3.org/2000/svg" width="200" height="274" viewBox="89 53 200 274">
<path d="M 121 196 L 115 198 L 111 202 L 109 211 L 111 218 L 114 221 L 120 223 L 126 223 L 133 219 L 137 208 L 139 207 L 137 206 L 137 202 L 133 199 L 132 200 L 128 197 Z" fill="rgb(236,255,99)" fill-opacity="0.01569" fill-rule="evenodd"/>
<path d="M 241 73 L 225 73 L 205 80 L 192 92 L 183 111 L 179 128 L 165 138 L 145 137 L 138 140 L 137 148 L 130 160 L 135 192 L 140 194 L 158 193 L 172 186 L 178 187 L 178 185 L 185 187 L 182 189 L 192 185 L 198 187 L 194 189 L 203 188 L 204 185 L 212 188 L 208 197 L 212 192 L 213 201 L 208 212 L 201 208 L 189 208 L 175 212 L 163 222 L 146 245 L 132 255 L 134 288 L 145 294 L 158 294 L 170 301 L 178 302 L 183 305 L 182 307 L 189 315 L 218 304 L 227 298 L 233 288 L 237 276 L 238 247 L 230 231 L 236 230 L 232 227 L 235 226 L 244 227 L 244 230 L 249 230 L 248 236 L 252 242 L 271 174 L 265 184 L 260 184 L 247 172 L 264 163 L 273 167 L 272 172 L 276 159 L 278 141 L 276 109 L 272 92 L 262 81 Z" fill="rgb(236,255,99)" fill-opacity="0.01569" fill-rule="evenodd"/>
<path d="M 186 224 L 179 228 L 177 228 L 169 238 L 169 240 L 166 243 L 163 252 L 150 256 L 150 258 L 145 259 L 140 266 L 141 269 L 140 274 L 146 280 L 150 280 L 151 282 L 159 282 L 163 281 L 167 278 L 169 279 L 171 278 L 180 284 L 183 289 L 190 295 L 198 298 L 209 297 L 215 293 L 216 290 L 219 288 L 219 284 L 222 279 L 223 255 L 221 244 L 217 237 L 217 235 L 209 227 L 202 224 Z" fill="rgb(236,255,99)" fill-opacity="0.03137" fill-rule="evenodd"/>
<path d="M 125 206 L 121 206 L 119 208 L 118 211 L 119 213 L 123 214 L 127 211 L 127 208 Z" fill="rgb(236,255,99)" fill-opacity="0.03137" fill-rule="evenodd"/>
<path d="M 227 186 L 224 189 L 221 195 L 220 202 L 223 211 L 228 216 L 236 219 L 246 218 L 249 216 L 255 218 L 256 228 L 263 198 L 259 199 L 253 190 L 249 186 L 244 184 L 234 183 Z" fill="rgb(236,255,99)" fill-opacity="0.03137" fill-rule="evenodd"/>
<path d="M 140 150 L 137 155 L 135 167 L 135 174 L 140 180 L 148 183 L 155 183 L 164 180 L 171 170 L 171 161 L 168 154 L 164 150 L 157 147 L 154 148 L 149 147 Z" fill="rgb(236,255,99)" fill-opacity="0.03137" fill-rule="evenodd"/>
<path d="M 251 89 L 241 86 L 232 85 L 221 87 L 212 91 L 201 102 L 195 117 L 193 134 L 191 136 L 191 140 L 189 142 L 190 146 L 187 149 L 186 155 L 188 160 L 188 165 L 195 172 L 202 175 L 210 175 L 216 172 L 218 173 L 226 166 L 232 164 L 235 161 L 243 159 L 256 151 L 264 142 L 267 137 L 270 123 L 269 115 L 262 99 Z" fill="rgb(236,255,99)" fill-opacity="0.03137" fill-rule="evenodd"/>
<path d="M 147 267 L 148 274 L 152 275 L 155 272 L 154 266 Z" fill="rgb(236,255,99)" fill-opacity="0.04706" fill-rule="evenodd"/>
<path d="M 192 231 L 185 233 L 177 240 L 174 248 L 175 251 L 174 256 L 177 264 L 187 274 L 194 287 L 204 289 L 208 287 L 212 281 L 213 273 L 212 265 L 214 256 L 213 245 L 210 239 L 206 235 L 200 232 Z" fill="rgb(236,255,99)" fill-opacity="0.04706" fill-rule="evenodd"/>
<path d="M 119 208 L 118 211 L 119 213 L 126 212 L 126 207 L 121 206 Z" fill="rgb(236,255,99)" fill-opacity="0.04706" fill-rule="evenodd"/>
<path d="M 234 190 L 228 196 L 227 199 L 228 206 L 230 207 L 230 209 L 236 212 L 244 211 L 249 205 L 249 196 L 242 190 Z" fill="rgb(236,255,99)" fill-opacity="0.04706" fill-rule="evenodd"/>
<path d="M 144 157 L 141 162 L 141 168 L 143 172 L 152 176 L 157 175 L 161 171 L 162 168 L 162 162 L 160 158 L 155 155 L 148 155 Z" fill="rgb(236,255,99)" fill-opacity="0.04706" fill-rule="evenodd"/>
<path d="M 250 98 L 238 93 L 227 93 L 216 98 L 208 106 L 205 111 L 203 120 L 203 140 L 201 145 L 198 148 L 196 156 L 198 162 L 201 165 L 210 166 L 214 164 L 225 154 L 239 151 L 241 149 L 249 146 L 256 139 L 261 127 L 261 115 L 257 105 Z" fill="rgb(236,255,99)" fill-opacity="0.04706" fill-rule="evenodd"/>
<path d="M 205 275 L 201 275 L 199 277 L 197 284 L 200 287 L 204 286 L 207 281 L 207 277 Z" fill="rgb(236,255,99)" fill-opacity="0.09412" fill-rule="evenodd"/>
<path d="M 148 266 L 147 272 L 150 275 L 152 275 L 155 271 L 154 266 Z" fill="rgb(236,255,99)" fill-opacity="0.09412" fill-rule="evenodd"/>
<path d="M 190 241 L 186 244 L 184 253 L 190 261 L 198 262 L 203 258 L 205 251 L 204 247 L 198 241 Z" fill="rgb(236,255,99)" fill-opacity="0.09412" fill-rule="evenodd"/>
<path d="M 118 210 L 119 212 L 124 213 L 126 212 L 125 206 L 121 206 Z" fill="rgb(236,255,99)" fill-opacity="0.09412" fill-rule="evenodd"/>
<path d="M 235 192 L 230 198 L 230 205 L 234 209 L 241 209 L 246 205 L 247 202 L 246 197 L 242 192 Z" fill="rgb(236,255,99)" fill-opacity="0.09412" fill-rule="evenodd"/>
<path d="M 145 159 L 144 161 L 145 169 L 149 172 L 156 172 L 159 167 L 157 161 L 150 157 Z" fill="rgb(236,255,99)" fill-opacity="0.09412" fill-rule="evenodd"/>
<path d="M 202 153 L 201 161 L 203 163 L 210 162 L 211 160 L 210 154 L 206 152 Z" fill="rgb(236,255,99)" fill-opacity="0.09412" fill-rule="evenodd"/>
<path d="M 227 101 L 219 105 L 215 110 L 211 120 L 212 131 L 215 137 L 223 143 L 236 143 L 245 139 L 250 134 L 253 128 L 254 119 L 250 109 L 245 104 L 239 101 Z" fill="rgb(236,255,99)" fill-opacity="0.09412" fill-rule="evenodd"/>
<path d="M 204 275 L 200 276 L 198 280 L 199 286 L 201 287 L 207 281 L 206 276 Z" fill="rgb(236,255,99)" fill-opacity="0.18824" fill-rule="evenodd"/>
<path d="M 154 266 L 148 266 L 147 268 L 148 273 L 151 275 L 155 271 Z" fill="rgb(236,255,99)" fill-opacity="0.18824" fill-rule="evenodd"/>
<path d="M 189 242 L 186 245 L 187 247 L 186 254 L 190 258 L 193 259 L 199 258 L 202 255 L 203 252 L 201 244 L 196 241 Z" fill="rgb(236,255,99)" fill-opacity="0.18824" fill-rule="evenodd"/>
<path d="M 126 207 L 122 206 L 119 209 L 120 213 L 124 213 L 126 211 Z" fill="rgb(236,255,99)" fill-opacity="0.18824" fill-rule="evenodd"/>
<path d="M 236 192 L 230 198 L 230 204 L 234 209 L 240 209 L 245 206 L 246 197 L 243 193 Z" fill="rgb(236,255,99)" fill-opacity="0.18824" fill-rule="evenodd"/>
<path d="M 147 158 L 144 161 L 144 167 L 149 172 L 155 172 L 158 169 L 158 163 L 154 159 Z" fill="rgb(236,255,99)" fill-opacity="0.18824" fill-rule="evenodd"/>
<path d="M 204 152 L 202 153 L 201 160 L 204 163 L 208 163 L 211 160 L 211 156 L 208 153 Z" fill="rgb(236,255,99)" fill-opacity="0.18824" fill-rule="evenodd"/>
<path d="M 236 108 L 229 108 L 225 110 L 220 118 L 219 127 L 220 130 L 225 134 L 231 135 L 239 133 L 246 126 L 245 115 L 239 109 Z" fill="rgb(236,255,99)" fill-opacity="0.18824" fill-rule="evenodd"/>
<path d="M 206 276 L 201 275 L 198 281 L 199 286 L 203 286 L 206 283 L 207 280 Z" fill="rgb(236,255,99)" fill-opacity="0.25098" fill-rule="evenodd"/>
<path d="M 148 266 L 147 268 L 148 273 L 153 274 L 155 268 L 153 266 Z" fill="rgb(236,255,99)" fill-opacity="0.25098" fill-rule="evenodd"/>
<path d="M 193 241 L 186 245 L 187 247 L 186 253 L 189 257 L 196 259 L 201 256 L 203 250 L 202 246 L 198 242 Z" fill="rgb(236,255,99)" fill-opacity="0.25098" fill-rule="evenodd"/>
<path d="M 124 206 L 122 206 L 119 209 L 120 213 L 124 213 L 126 211 L 126 208 Z" fill="rgb(236,255,99)" fill-opacity="0.25098" fill-rule="evenodd"/>
<path d="M 236 192 L 231 197 L 230 204 L 233 208 L 240 209 L 244 207 L 246 204 L 246 198 L 244 194 L 241 192 Z" fill="rgb(236,255,99)" fill-opacity="0.25098" fill-rule="evenodd"/>
<path d="M 146 159 L 144 162 L 145 168 L 150 172 L 155 172 L 158 169 L 158 163 L 153 159 L 150 158 Z" fill="rgb(236,255,99)" fill-opacity="0.25098" fill-rule="evenodd"/>
<path d="M 202 153 L 201 160 L 204 163 L 208 163 L 211 159 L 210 155 L 207 153 Z" fill="rgb(236,255,99)" fill-opacity="0.25098" fill-rule="evenodd"/>
<path d="M 230 108 L 227 109 L 221 116 L 219 125 L 220 129 L 223 133 L 235 134 L 244 129 L 246 125 L 246 118 L 240 110 L 235 108 Z" fill="rgb(236,255,99)" fill-opacity="0.25098" fill-rule="evenodd"/>
<path d="M 205 276 L 200 277 L 198 281 L 199 286 L 203 286 L 206 282 Z" fill="rgb(236,255,99)" fill-opacity="0.25098" fill-rule="evenodd"/>
<path d="M 150 266 L 148 267 L 149 274 L 152 274 L 154 272 L 153 266 Z" fill="rgb(236,255,99)" fill-opacity="0.25098" fill-rule="evenodd"/>
<path d="M 190 242 L 187 245 L 186 253 L 191 258 L 195 259 L 198 258 L 202 254 L 202 247 L 197 242 Z" fill="rgb(236,255,99)" fill-opacity="0.25098" fill-rule="evenodd"/>
<path d="M 121 207 L 119 211 L 120 213 L 125 212 L 126 209 L 125 207 Z" fill="rgb(236,255,99)" fill-opacity="0.25098" fill-rule="evenodd"/>
<path d="M 240 192 L 237 192 L 233 194 L 230 199 L 230 203 L 232 207 L 235 209 L 242 208 L 246 203 L 245 196 Z" fill="rgb(236,255,99)" fill-opacity="0.25098" fill-rule="evenodd"/>
<path d="M 146 159 L 144 163 L 145 168 L 150 172 L 156 171 L 158 168 L 157 162 L 153 159 Z" fill="rgb(236,255,99)" fill-opacity="0.25098" fill-rule="evenodd"/>
<path d="M 202 153 L 203 155 L 202 161 L 205 163 L 209 162 L 211 158 L 209 154 Z" fill="rgb(236,255,99)" fill-opacity="0.25098" fill-rule="evenodd"/>
<path d="M 241 111 L 234 108 L 230 108 L 223 113 L 220 119 L 220 129 L 222 132 L 226 134 L 234 134 L 240 132 L 245 127 L 246 119 Z" fill="rgb(236,255,99)" fill-opacity="0.25098" fill-rule="evenodd"/>
</svg>