<?xml version="1.0" encoding="UTF-8"?>
<svg xmlns="http://www.w3.org/2000/svg" width="201" height="260" viewBox="165 99 201 260">
<path d="M 291 110 L 284 110 L 228 146 L 226 151 L 229 208 L 179 240 L 175 247 L 177 302 L 180 316 L 238 347 L 248 346 L 302 310 L 303 284 L 301 249 L 349 218 L 354 212 L 352 147 L 350 142 L 344 137 Z" fill="rgb(150,155,133)" fill-opacity="0.12549" fill-rule="evenodd"/>
<path d="M 290 110 L 285 110 L 228 147 L 227 175 L 229 208 L 181 239 L 176 245 L 178 311 L 183 318 L 240 347 L 249 345 L 301 311 L 303 307 L 301 268 L 302 247 L 347 219 L 354 211 L 352 150 L 349 141 Z" fill="rgb(150,155,133)" fill-opacity="0.25098" fill-rule="evenodd"/>
<path d="M 292 111 L 284 111 L 233 143 L 228 148 L 228 210 L 182 239 L 176 246 L 178 308 L 180 314 L 193 323 L 238 346 L 248 345 L 301 310 L 303 300 L 300 249 L 349 217 L 354 208 L 351 146 L 349 142 Z" fill="rgb(150,155,133)" fill-opacity="0.31373" fill-rule="evenodd"/>
<path d="M 290 111 L 285 111 L 229 147 L 227 158 L 230 208 L 181 240 L 176 249 L 179 311 L 181 315 L 240 346 L 249 344 L 296 314 L 301 309 L 302 287 L 300 248 L 347 218 L 353 211 L 351 148 L 349 143 L 345 139 Z" fill="rgb(150,155,133)" fill-opacity="0.21961" fill-rule="evenodd"/>
</svg>