<?xml version='1.0' encoding='utf-8'?>
<svg xmlns="http://www.w3.org/2000/svg" width="201" height="260" viewBox="165 99 201 260">
<path d="M 292 111 L 284 111 L 233 143 L 228 148 L 228 210 L 182 239 L 176 246 L 178 308 L 180 314 L 193 323 L 238 346 L 248 345 L 301 310 L 303 300 L 300 249 L 349 217 L 354 208 L 351 146 L 349 142 Z M 235 224 L 239 224 L 283 247 L 285 251 L 287 300 L 275 309 L 243 329 L 240 329 L 197 307 L 194 304 L 192 267 L 193 251 Z M 288 127 L 334 151 L 336 155 L 338 204 L 326 213 L 294 233 L 291 233 L 247 210 L 245 208 L 243 171 L 244 155 Z" fill="#ffffff" fill-rule="evenodd" />
</svg>