<?xml version="1.0" encoding="UTF-8"?>
<svg xmlns="http://www.w3.org/2000/svg" width="201" height="260" viewBox="165 99 201 260">
<path d="M 291 110 L 284 110 L 228 146 L 226 151 L 229 208 L 179 240 L 175 247 L 177 302 L 180 316 L 238 347 L 248 346 L 302 310 L 303 284 L 301 249 L 349 218 L 354 212 L 352 147 L 350 142 L 344 137 Z M 238 224 L 240 226 L 263 237 L 284 249 L 286 300 L 283 303 L 241 329 L 206 311 L 195 304 L 194 274 L 193 273 L 194 251 L 233 226 Z M 289 128 L 293 131 L 333 151 L 335 153 L 337 204 L 334 207 L 292 233 L 259 216 L 246 208 L 245 178 L 244 177 L 245 155 L 284 130 Z" fill="rgb(150,155,133)" fill-opacity="0.12549" fill-rule="evenodd"/>
<path d="M 290 110 L 285 110 L 228 147 L 227 175 L 229 208 L 181 239 L 176 245 L 178 311 L 183 318 L 240 347 L 249 345 L 301 311 L 303 307 L 301 268 L 302 247 L 347 219 L 354 211 L 352 150 L 349 141 Z M 236 224 L 238 224 L 282 247 L 284 249 L 286 282 L 285 302 L 243 329 L 240 329 L 196 306 L 194 303 L 192 253 L 201 246 Z M 287 128 L 289 128 L 332 150 L 335 153 L 337 186 L 336 206 L 294 233 L 292 233 L 247 210 L 245 207 L 243 157 L 252 150 Z" fill="rgb(150,155,133)" fill-opacity="0.25098" fill-rule="evenodd"/>
<path d="M 292 111 L 284 111 L 233 143 L 228 148 L 228 210 L 182 239 L 176 246 L 178 308 L 180 314 L 193 323 L 238 346 L 248 345 L 301 310 L 303 300 L 300 249 L 349 217 L 354 208 L 351 146 L 349 142 Z M 235 224 L 239 224 L 283 247 L 285 251 L 287 300 L 275 309 L 243 329 L 240 329 L 197 307 L 194 304 L 192 267 L 193 251 Z M 288 127 L 334 151 L 336 155 L 338 204 L 326 213 L 294 233 L 291 233 L 247 210 L 245 208 L 243 171 L 244 155 Z" fill="rgb(150,155,133)" fill-opacity="0.31373" fill-rule="evenodd"/>
<path d="M 290 111 L 285 111 L 229 147 L 227 158 L 230 208 L 181 240 L 176 249 L 179 311 L 181 315 L 240 346 L 249 344 L 296 314 L 301 309 L 302 287 L 300 248 L 347 218 L 353 211 L 351 148 L 349 143 L 345 139 Z M 237 223 L 282 246 L 285 249 L 287 301 L 285 303 L 246 328 L 241 330 L 196 307 L 194 305 L 192 276 L 192 252 L 198 247 Z M 287 127 L 289 127 L 333 150 L 336 153 L 338 205 L 297 232 L 292 234 L 246 210 L 244 202 L 243 156 L 249 151 Z" fill="rgb(150,155,133)" fill-opacity="0.21961" fill-rule="evenodd"/>
</svg>