<?xml version="1.0" encoding="UTF-8"?>
<svg xmlns="http://www.w3.org/2000/svg" width="846" height="575" viewBox="510 349 846 575">
<path d="M 720 875 L 722 893 L 729 901 L 741 908 L 1163 908 L 1181 900 L 1190 885 L 1190 875 L 1184 863 L 1165 854 L 742 854 L 728 862 Z M 729 879 L 737 867 L 751 863 L 1163 863 L 1178 871 L 1181 882 L 1179 888 L 1169 896 L 1145 899 L 749 899 L 735 894 L 730 887 Z" fill="rgb(91,173,87)" fill-opacity="0.09412" fill-rule="evenodd"/>
<path d="M 774 767 L 773 769 L 774 776 L 783 776 L 785 772 L 784 768 L 782 766 Z" fill="rgb(91,173,87)" fill-opacity="0.09412" fill-rule="evenodd"/>
<path d="M 1143 756 L 1140 758 L 1139 762 L 1142 766 L 1146 766 L 1149 763 L 1149 759 L 1147 757 Z" fill="rgb(91,173,87)" fill-opacity="0.09412" fill-rule="evenodd"/>
<path d="M 1108 747 L 1101 751 L 1098 756 L 1097 763 L 1099 768 L 1104 773 L 1112 775 L 1118 773 L 1122 769 L 1125 763 L 1125 757 L 1119 749 L 1114 747 Z" fill="rgb(91,173,87)" fill-opacity="0.09412" fill-rule="evenodd"/>
<path d="M 636 722 L 630 725 L 627 730 L 626 736 L 628 741 L 632 745 L 636 747 L 641 747 L 649 741 L 650 739 L 650 730 L 644 723 Z M 640 728 L 644 732 L 645 735 L 641 740 L 638 741 L 632 736 L 632 734 L 637 728 Z" fill="rgb(91,173,87)" fill-opacity="0.09412" fill-rule="evenodd"/>
<path d="M 718 702 L 716 701 L 691 721 L 676 728 L 664 730 L 660 732 L 659 734 L 660 736 L 667 737 L 686 731 L 697 725 L 709 716 L 718 707 L 719 704 Z" fill="rgb(91,173,87)" fill-opacity="0.09412" fill-rule="evenodd"/>
<path d="M 704 685 L 702 684 L 696 688 L 688 696 L 676 703 L 659 708 L 659 713 L 665 713 L 673 711 L 686 705 L 696 698 L 704 690 Z" fill="rgb(91,173,87)" fill-opacity="0.09412" fill-rule="evenodd"/>
<path d="M 688 670 L 686 669 L 683 670 L 673 679 L 666 683 L 658 685 L 658 690 L 667 689 L 680 682 L 689 672 Z" fill="rgb(91,173,87)" fill-opacity="0.09412" fill-rule="evenodd"/>
<path d="M 712 754 L 717 762 L 730 763 L 736 756 L 735 745 L 773 710 L 802 711 L 803 733 L 814 743 L 850 745 L 852 778 L 856 776 L 857 744 L 880 745 L 881 777 L 886 775 L 887 744 L 910 745 L 911 777 L 916 775 L 917 744 L 940 745 L 939 772 L 943 778 L 947 744 L 969 745 L 969 775 L 973 778 L 977 744 L 999 745 L 1002 778 L 1006 744 L 1029 745 L 1030 777 L 1035 776 L 1036 743 L 1074 740 L 1081 729 L 1082 709 L 1127 710 L 1180 748 L 1242 749 L 1244 755 L 1257 761 L 1270 753 L 1272 742 L 1261 730 L 1248 732 L 1241 742 L 1182 742 L 1132 705 L 1081 702 L 1080 687 L 1075 688 L 1075 727 L 1067 737 L 816 737 L 808 728 L 805 661 L 801 704 L 767 706 L 730 741 L 716 742 Z M 725 745 L 730 749 L 730 754 L 728 757 L 723 758 L 719 755 L 718 750 L 720 747 Z M 1255 736 L 1258 736 L 1262 738 L 1266 744 L 1265 749 L 1259 754 L 1252 753 L 1247 747 L 1247 744 L 1249 740 Z" fill="rgb(91,173,87)" fill-opacity="0.09412" fill-rule="evenodd"/>
<path d="M 638 612 L 630 616 L 626 622 L 625 629 L 627 635 L 631 640 L 637 643 L 645 643 L 653 638 L 656 632 L 657 626 L 655 620 L 651 615 L 644 612 Z" fill="rgb(91,173,87)" fill-opacity="0.09412" fill-rule="evenodd"/>
<path d="M 1267 614 L 1259 611 L 1252 612 L 1244 618 L 1242 623 L 1182 624 L 1180 626 L 1180 628 L 1182 630 L 1207 631 L 1207 680 L 1204 686 L 1193 688 L 1188 693 L 1187 704 L 1191 710 L 1195 712 L 1203 712 L 1209 708 L 1212 702 L 1212 698 L 1208 690 L 1211 687 L 1214 678 L 1215 630 L 1240 631 L 1241 630 L 1244 636 L 1248 640 L 1255 643 L 1260 643 L 1268 639 L 1273 631 L 1272 620 Z M 1198 693 L 1202 694 L 1205 697 L 1205 702 L 1201 706 L 1197 706 L 1193 701 L 1194 696 Z M 1254 618 L 1262 619 L 1267 625 L 1266 631 L 1260 636 L 1255 636 L 1250 633 L 1248 630 L 1248 624 Z" fill="rgb(91,173,87)" fill-opacity="0.09412" fill-rule="evenodd"/>
<path d="M 887 593 L 886 598 L 871 632 L 873 634 L 907 634 L 909 633 L 909 628 L 902 614 L 901 609 L 893 591 Z M 890 603 L 895 611 L 900 628 L 880 626 L 884 619 Z" fill="rgb(91,173,87)" fill-opacity="0.09412" fill-rule="evenodd"/>
<path d="M 754 586 L 755 628 L 757 629 L 790 628 L 798 624 L 805 616 L 806 613 L 806 600 L 803 594 L 798 589 L 787 585 Z M 762 592 L 783 591 L 793 594 L 797 598 L 800 604 L 800 609 L 797 616 L 794 619 L 787 622 L 761 621 Z" fill="rgb(91,173,87)" fill-opacity="0.09412" fill-rule="evenodd"/>
<path d="M 657 567 L 657 570 L 659 572 L 667 574 L 677 580 L 685 587 L 687 586 L 688 582 L 686 579 L 675 571 L 662 566 Z" fill="rgb(91,173,87)" fill-opacity="0.09412" fill-rule="evenodd"/>
<path d="M 1162 570 L 1153 567 L 1138 565 L 1116 567 L 1102 573 L 1090 584 L 1084 598 L 1084 612 L 1089 624 L 1096 631 L 1103 635 L 1137 645 L 1144 650 L 1144 654 L 1141 657 L 1135 659 L 1119 658 L 1099 649 L 1091 651 L 1083 661 L 1083 670 L 1090 678 L 1095 681 L 1111 686 L 1140 687 L 1161 680 L 1173 669 L 1176 664 L 1179 653 L 1178 641 L 1173 631 L 1166 624 L 1157 619 L 1122 609 L 1118 605 L 1118 601 L 1125 595 L 1140 595 L 1156 602 L 1165 601 L 1172 594 L 1175 585 L 1172 577 Z M 1125 572 L 1144 572 L 1154 574 L 1165 580 L 1168 584 L 1166 591 L 1159 596 L 1143 589 L 1124 589 L 1117 592 L 1112 597 L 1111 606 L 1116 613 L 1125 617 L 1152 624 L 1160 628 L 1168 635 L 1172 644 L 1172 655 L 1168 665 L 1158 674 L 1150 678 L 1137 681 L 1121 681 L 1109 679 L 1096 674 L 1089 667 L 1091 660 L 1095 656 L 1100 656 L 1117 664 L 1137 665 L 1146 661 L 1151 654 L 1150 646 L 1146 642 L 1133 637 L 1115 633 L 1102 627 L 1096 622 L 1091 613 L 1090 601 L 1094 590 L 1105 579 L 1115 574 Z" fill="rgb(91,173,87)" fill-opacity="0.09412" fill-rule="evenodd"/>
<path d="M 834 595 L 824 576 L 815 569 L 803 564 L 791 562 L 738 562 L 733 564 L 726 574 L 725 623 L 681 624 L 674 606 L 667 598 L 649 589 L 634 589 L 621 594 L 610 604 L 603 618 L 602 633 L 607 647 L 615 657 L 626 664 L 642 667 L 656 664 L 668 656 L 675 647 L 681 630 L 726 631 L 726 673 L 731 681 L 744 685 L 754 682 L 759 676 L 761 671 L 762 652 L 797 651 L 811 646 L 820 640 L 829 629 L 834 616 Z M 636 595 L 646 595 L 657 599 L 667 608 L 671 615 L 673 622 L 673 633 L 671 640 L 667 647 L 660 654 L 647 660 L 636 660 L 629 658 L 622 654 L 613 644 L 609 634 L 609 621 L 614 610 L 623 601 Z M 812 575 L 821 583 L 826 592 L 828 599 L 828 613 L 823 626 L 814 636 L 808 640 L 798 644 L 788 646 L 754 646 L 754 672 L 747 678 L 737 677 L 733 673 L 732 670 L 732 576 L 736 570 L 742 568 L 768 569 L 785 568 L 800 570 Z" fill="rgb(91,173,87)" fill-opacity="0.09412" fill-rule="evenodd"/>
<path d="M 828 549 L 829 571 L 834 552 L 850 552 L 849 576 L 836 576 L 837 581 L 850 582 L 853 610 L 826 670 L 831 681 L 854 682 L 868 658 L 913 658 L 925 681 L 942 684 L 955 672 L 942 640 L 961 640 L 962 675 L 971 683 L 983 684 L 995 674 L 997 639 L 1003 640 L 999 677 L 993 683 L 1000 684 L 999 707 L 975 706 L 974 687 L 970 687 L 968 707 L 945 706 L 945 687 L 940 687 L 939 707 L 915 706 L 916 683 L 922 682 L 911 660 L 909 677 L 887 677 L 885 659 L 880 659 L 879 677 L 864 677 L 860 683 L 880 684 L 878 707 L 856 706 L 855 686 L 850 687 L 849 707 L 835 707 L 832 687 L 827 688 L 829 711 L 1048 713 L 1054 709 L 1055 688 L 1049 688 L 1047 707 L 1035 706 L 1036 683 L 1042 682 L 1035 676 L 1035 641 L 1029 647 L 1005 646 L 1006 639 L 1039 640 L 1039 671 L 1048 683 L 1062 684 L 1074 672 L 1073 572 L 1063 562 L 1051 562 L 1035 575 L 1036 551 L 1047 551 L 1053 558 L 1053 547 L 835 545 Z M 1006 683 L 1029 684 L 1028 707 L 1005 706 Z M 886 683 L 910 684 L 909 707 L 885 706 Z M 1006 653 L 1030 655 L 1029 677 L 1005 676 Z M 946 610 L 961 611 L 960 633 L 945 632 Z M 997 581 L 1000 582 L 1000 606 L 1005 606 L 1006 581 L 1029 582 L 1030 584 L 1029 599 L 1030 605 L 1035 605 L 1036 581 L 1039 582 L 1038 608 L 996 607 Z M 866 582 L 866 584 L 856 604 L 856 581 Z M 917 579 L 940 582 L 939 605 L 930 605 L 931 610 L 940 611 L 939 632 L 916 582 Z M 971 570 L 975 568 L 982 568 L 986 570 L 990 576 L 989 613 L 991 615 L 1044 615 L 1046 613 L 1046 574 L 1052 568 L 1060 568 L 1065 571 L 1067 574 L 1067 671 L 1062 677 L 1054 678 L 1046 672 L 1045 633 L 1041 632 L 990 633 L 990 667 L 988 673 L 984 677 L 976 678 L 968 672 L 967 577 Z M 882 569 L 889 567 L 898 568 L 902 570 L 906 575 L 948 668 L 948 673 L 945 676 L 940 678 L 934 678 L 930 676 L 926 672 L 917 651 L 915 650 L 904 650 L 902 651 L 866 650 L 864 651 L 855 671 L 851 676 L 846 678 L 840 678 L 837 677 L 833 673 L 833 669 L 843 649 L 876 576 Z M 1007 551 L 1030 552 L 1030 574 L 1028 576 L 1007 576 L 1005 574 L 1005 553 Z M 976 551 L 1000 552 L 999 576 L 996 575 L 994 569 L 989 564 L 984 562 L 973 561 Z M 946 551 L 970 552 L 972 562 L 968 564 L 963 569 L 961 574 L 960 605 L 945 604 L 946 581 L 959 581 L 959 576 L 945 575 Z M 916 551 L 940 552 L 939 576 L 917 576 L 916 580 L 914 573 L 916 569 L 915 553 Z M 886 551 L 910 552 L 909 568 L 903 563 L 895 561 L 886 562 L 883 561 Z M 857 551 L 880 552 L 882 562 L 878 564 L 873 569 L 868 577 L 856 575 Z" fill="rgb(91,173,87)" fill-opacity="0.09412" fill-rule="evenodd"/>
<path d="M 658 543 L 658 547 L 660 549 L 665 549 L 674 552 L 684 557 L 703 570 L 704 566 L 702 563 L 690 553 L 673 545 L 662 542 Z" fill="rgb(91,173,87)" fill-opacity="0.09412" fill-rule="evenodd"/>
<path d="M 1208 538 L 1204 536 L 1199 536 L 1194 538 L 1189 544 L 1190 556 L 1181 564 L 1181 567 L 1183 569 L 1185 569 L 1196 559 L 1200 561 L 1203 561 L 1211 556 L 1213 552 L 1213 545 L 1212 542 Z M 1200 542 L 1204 543 L 1207 546 L 1207 550 L 1203 554 L 1198 554 L 1195 551 L 1195 546 Z" fill="rgb(91,173,87)" fill-opacity="0.09412" fill-rule="evenodd"/>
<path d="M 660 519 L 659 524 L 676 528 L 686 532 L 704 544 L 715 555 L 718 554 L 719 551 L 718 549 L 707 538 L 697 531 L 678 522 L 667 519 Z" fill="rgb(91,173,87)" fill-opacity="0.09412" fill-rule="evenodd"/>
<path d="M 725 508 L 722 511 L 722 516 L 725 518 L 728 518 L 731 516 L 731 511 L 729 509 Z" fill="rgb(91,173,87)" fill-opacity="0.09412" fill-rule="evenodd"/>
<path d="M 752 501 L 747 506 L 745 511 L 745 516 L 747 521 L 754 527 L 763 527 L 767 525 L 771 521 L 773 516 L 773 511 L 769 503 L 763 500 Z" fill="rgb(91,173,87)" fill-opacity="0.09412" fill-rule="evenodd"/>
<path d="M 1106 494 L 1102 497 L 1101 500 L 1103 505 L 1109 507 L 1113 504 L 1114 498 L 1112 495 Z" fill="rgb(91,173,87)" fill-opacity="0.09412" fill-rule="evenodd"/>
<path d="M 1136 488 L 1134 490 L 1134 494 L 1137 497 L 1141 497 L 1144 494 L 1143 489 L 1142 488 Z" fill="rgb(91,173,87)" fill-opacity="0.09412" fill-rule="evenodd"/>
<path d="M 802 557 L 807 558 L 808 531 L 817 522 L 1066 522 L 1074 529 L 1075 565 L 1079 566 L 1082 556 L 1127 555 L 1178 517 L 1242 518 L 1247 526 L 1258 529 L 1269 522 L 1272 511 L 1259 498 L 1247 501 L 1241 510 L 1176 511 L 1125 549 L 1091 550 L 1081 549 L 1081 530 L 1073 518 L 1035 515 L 1035 482 L 1029 483 L 1028 516 L 1005 515 L 1004 481 L 999 483 L 998 516 L 976 515 L 974 481 L 969 484 L 968 516 L 946 515 L 946 484 L 940 482 L 939 516 L 916 515 L 914 481 L 909 484 L 910 515 L 886 515 L 886 484 L 882 481 L 878 516 L 856 515 L 856 483 L 852 481 L 849 516 L 810 518 L 802 529 Z M 1255 504 L 1260 505 L 1265 511 L 1265 517 L 1260 522 L 1253 522 L 1249 519 L 1247 515 L 1247 512 L 1249 508 Z" fill="rgb(91,173,87)" fill-opacity="0.09412" fill-rule="evenodd"/>
<path d="M 720 877 L 720 886 L 725 897 L 742 908 L 1162 908 L 1182 899 L 1190 883 L 1185 865 L 1176 858 L 1163 854 L 743 854 L 727 863 Z M 729 877 L 735 868 L 748 863 L 1164 863 L 1173 866 L 1179 872 L 1181 883 L 1175 893 L 1158 899 L 747 899 L 736 895 L 731 890 Z" fill="rgb(91,173,87)" fill-opacity="0.18824" fill-rule="evenodd"/>
<path d="M 776 766 L 773 769 L 773 774 L 776 777 L 781 777 L 784 774 L 784 769 L 781 766 Z" fill="rgb(91,173,87)" fill-opacity="0.18824" fill-rule="evenodd"/>
<path d="M 1142 757 L 1139 761 L 1141 765 L 1145 766 L 1148 764 L 1149 760 L 1148 758 Z" fill="rgb(91,173,87)" fill-opacity="0.18824" fill-rule="evenodd"/>
<path d="M 1109 747 L 1104 749 L 1098 756 L 1098 765 L 1103 772 L 1107 774 L 1115 774 L 1121 770 L 1124 765 L 1125 759 L 1120 750 L 1113 747 Z" fill="rgb(91,173,87)" fill-opacity="0.18824" fill-rule="evenodd"/>
<path d="M 634 723 L 627 730 L 627 739 L 634 746 L 639 747 L 643 746 L 648 742 L 650 738 L 649 728 L 643 723 L 639 722 Z M 637 728 L 642 729 L 645 733 L 644 738 L 640 741 L 635 740 L 632 736 L 633 731 Z" fill="rgb(91,173,87)" fill-opacity="0.18824" fill-rule="evenodd"/>
<path d="M 717 702 L 714 702 L 703 713 L 693 720 L 679 727 L 660 732 L 660 735 L 662 737 L 666 737 L 680 733 L 693 727 L 705 719 L 716 709 L 718 706 Z" fill="rgb(91,173,87)" fill-opacity="0.18824" fill-rule="evenodd"/>
<path d="M 703 685 L 700 685 L 691 694 L 684 699 L 669 706 L 662 707 L 658 709 L 659 713 L 665 713 L 672 711 L 687 704 L 702 692 L 704 689 Z" fill="rgb(91,173,87)" fill-opacity="0.18824" fill-rule="evenodd"/>
<path d="M 687 670 L 684 670 L 672 680 L 657 686 L 658 690 L 663 690 L 669 688 L 681 681 L 688 674 Z" fill="rgb(91,173,87)" fill-opacity="0.18824" fill-rule="evenodd"/>
<path d="M 712 753 L 719 763 L 731 762 L 735 745 L 769 712 L 799 709 L 809 740 L 850 744 L 851 777 L 856 775 L 857 743 L 880 744 L 881 777 L 886 775 L 887 743 L 910 744 L 911 777 L 916 774 L 917 743 L 940 744 L 941 777 L 945 776 L 946 743 L 968 743 L 971 777 L 975 776 L 976 743 L 999 744 L 1000 776 L 1005 776 L 1006 743 L 1028 743 L 1029 775 L 1035 776 L 1036 743 L 1075 739 L 1082 709 L 1128 710 L 1182 748 L 1242 749 L 1248 758 L 1260 760 L 1269 754 L 1272 743 L 1260 730 L 1247 733 L 1242 741 L 1181 742 L 1129 704 L 1081 703 L 1080 688 L 1075 688 L 1075 728 L 1064 738 L 820 738 L 808 729 L 807 662 L 802 663 L 801 704 L 767 706 L 732 740 L 718 741 Z M 723 745 L 726 745 L 730 749 L 730 755 L 727 758 L 722 758 L 718 754 L 718 749 Z M 1254 736 L 1258 736 L 1265 741 L 1266 747 L 1264 751 L 1260 754 L 1253 754 L 1249 751 L 1247 747 L 1248 741 Z" fill="rgb(91,173,87)" fill-opacity="0.18824" fill-rule="evenodd"/>
<path d="M 1055 706 L 1054 688 L 1050 688 L 1050 703 L 1047 707 L 1035 706 L 1036 682 L 1041 682 L 1035 676 L 1035 641 L 1030 641 L 1029 648 L 1008 648 L 1005 641 L 1000 641 L 999 678 L 994 681 L 994 683 L 1000 684 L 999 707 L 975 706 L 975 688 L 970 687 L 969 707 L 945 706 L 945 687 L 940 687 L 939 707 L 915 706 L 916 683 L 921 681 L 915 677 L 914 667 L 910 660 L 909 677 L 890 678 L 885 676 L 885 659 L 880 659 L 879 678 L 862 679 L 860 682 L 880 684 L 879 707 L 855 706 L 855 686 L 851 687 L 849 707 L 835 707 L 833 705 L 833 690 L 828 687 L 827 689 L 828 709 L 836 713 L 1047 713 L 1052 711 Z M 1006 683 L 1030 684 L 1029 707 L 1005 706 Z M 886 683 L 910 684 L 909 707 L 885 706 Z M 1006 653 L 1030 654 L 1029 677 L 1027 678 L 1005 677 Z" fill="rgb(91,173,87)" fill-opacity="0.18824" fill-rule="evenodd"/>
<path d="M 1265 613 L 1253 612 L 1249 614 L 1243 620 L 1243 622 L 1241 624 L 1184 624 L 1180 626 L 1180 628 L 1182 630 L 1208 631 L 1208 677 L 1205 685 L 1202 688 L 1197 687 L 1192 689 L 1187 696 L 1187 703 L 1192 710 L 1196 712 L 1202 712 L 1206 710 L 1211 704 L 1212 699 L 1208 690 L 1213 682 L 1214 673 L 1214 630 L 1241 630 L 1245 637 L 1250 641 L 1256 643 L 1262 642 L 1266 640 L 1271 635 L 1273 630 L 1272 621 Z M 1197 693 L 1203 694 L 1206 698 L 1205 703 L 1201 706 L 1197 706 L 1193 702 L 1193 697 Z M 1257 617 L 1262 619 L 1267 625 L 1267 629 L 1265 633 L 1258 637 L 1252 635 L 1247 628 L 1249 622 L 1252 619 Z" fill="rgb(91,173,87)" fill-opacity="0.18824" fill-rule="evenodd"/>
<path d="M 639 612 L 633 614 L 628 619 L 626 623 L 626 632 L 628 636 L 633 641 L 638 643 L 644 643 L 649 641 L 654 636 L 656 632 L 656 623 L 654 619 L 649 614 Z" fill="rgb(91,173,87)" fill-opacity="0.18824" fill-rule="evenodd"/>
<path d="M 888 592 L 871 632 L 873 634 L 907 634 L 909 633 L 909 629 L 896 600 L 895 595 L 893 591 Z M 892 604 L 900 623 L 900 628 L 880 627 L 889 606 Z" fill="rgb(91,173,87)" fill-opacity="0.18824" fill-rule="evenodd"/>
<path d="M 754 586 L 755 628 L 789 628 L 798 624 L 804 617 L 806 612 L 806 602 L 804 596 L 799 590 L 793 587 L 785 585 L 756 585 Z M 762 591 L 785 591 L 792 593 L 798 599 L 800 603 L 800 611 L 798 615 L 793 620 L 788 622 L 762 622 L 760 620 L 761 614 L 760 606 Z" fill="rgb(91,173,87)" fill-opacity="0.18824" fill-rule="evenodd"/>
<path d="M 659 566 L 658 571 L 673 577 L 682 585 L 687 586 L 688 582 L 682 576 L 668 568 Z" fill="rgb(91,173,87)" fill-opacity="0.18824" fill-rule="evenodd"/>
<path d="M 1152 567 L 1132 565 L 1114 568 L 1098 576 L 1089 586 L 1084 599 L 1084 612 L 1090 625 L 1095 630 L 1106 636 L 1140 646 L 1144 650 L 1144 654 L 1137 659 L 1118 658 L 1102 650 L 1094 650 L 1090 652 L 1084 659 L 1083 669 L 1085 673 L 1092 679 L 1112 686 L 1139 687 L 1159 681 L 1165 677 L 1174 667 L 1178 657 L 1178 642 L 1172 630 L 1164 623 L 1156 619 L 1124 610 L 1118 605 L 1118 601 L 1121 597 L 1130 594 L 1141 595 L 1157 602 L 1162 602 L 1171 595 L 1174 589 L 1173 579 L 1167 573 Z M 1151 573 L 1161 577 L 1168 583 L 1168 588 L 1162 595 L 1158 596 L 1151 592 L 1141 589 L 1125 589 L 1119 591 L 1113 596 L 1111 605 L 1114 611 L 1118 614 L 1150 623 L 1160 628 L 1168 635 L 1172 643 L 1172 656 L 1168 665 L 1157 675 L 1151 678 L 1139 681 L 1113 680 L 1102 677 L 1094 673 L 1090 669 L 1089 663 L 1095 656 L 1098 655 L 1118 664 L 1134 665 L 1140 664 L 1146 661 L 1150 656 L 1151 651 L 1147 643 L 1135 638 L 1107 630 L 1100 626 L 1094 620 L 1090 610 L 1090 599 L 1093 591 L 1103 580 L 1118 573 L 1133 571 Z" fill="rgb(91,173,87)" fill-opacity="0.18824" fill-rule="evenodd"/>
<path d="M 834 596 L 826 579 L 819 572 L 808 566 L 789 562 L 740 562 L 732 565 L 726 574 L 725 624 L 679 623 L 678 615 L 673 605 L 664 596 L 652 590 L 635 589 L 620 595 L 611 603 L 603 619 L 602 631 L 610 651 L 621 661 L 633 666 L 649 666 L 664 659 L 674 648 L 680 630 L 726 631 L 727 675 L 735 683 L 748 684 L 755 681 L 759 676 L 761 652 L 787 652 L 800 650 L 814 644 L 826 633 L 834 615 Z M 636 595 L 647 595 L 660 601 L 668 609 L 673 620 L 673 635 L 668 646 L 659 655 L 648 660 L 635 660 L 623 655 L 615 647 L 611 641 L 609 635 L 609 620 L 615 608 L 624 600 Z M 811 574 L 822 584 L 828 598 L 828 613 L 825 623 L 822 628 L 812 638 L 802 643 L 795 645 L 754 647 L 754 672 L 753 674 L 748 678 L 738 678 L 732 671 L 732 576 L 733 573 L 737 569 L 740 568 L 790 568 L 801 570 Z" fill="rgb(91,173,87)" fill-opacity="0.18824" fill-rule="evenodd"/>
<path d="M 829 548 L 828 570 L 832 570 L 835 551 L 850 552 L 849 576 L 836 577 L 837 581 L 850 582 L 850 607 L 854 605 L 855 608 L 827 667 L 827 675 L 833 682 L 848 684 L 855 681 L 869 657 L 913 658 L 926 681 L 933 684 L 947 682 L 952 678 L 955 669 L 942 641 L 943 638 L 961 640 L 962 674 L 967 681 L 974 684 L 985 683 L 993 677 L 996 669 L 997 638 L 1039 640 L 1039 670 L 1043 679 L 1052 684 L 1061 684 L 1072 676 L 1073 572 L 1062 562 L 1051 562 L 1041 569 L 1037 577 L 1035 575 L 1036 551 L 1048 551 L 1051 558 L 1055 556 L 1052 547 Z M 946 610 L 961 611 L 960 634 L 945 632 Z M 997 581 L 1000 582 L 1001 606 L 1005 606 L 1006 581 L 1030 582 L 1030 605 L 1035 605 L 1036 581 L 1039 582 L 1038 609 L 996 607 Z M 867 582 L 856 604 L 856 581 Z M 972 569 L 983 568 L 990 575 L 990 614 L 1045 614 L 1046 573 L 1052 568 L 1061 568 L 1066 572 L 1068 578 L 1068 668 L 1064 676 L 1060 678 L 1053 678 L 1049 676 L 1045 670 L 1045 633 L 990 633 L 990 668 L 988 673 L 982 678 L 975 678 L 968 673 L 967 575 Z M 882 569 L 887 567 L 899 568 L 905 573 L 908 578 L 920 607 L 934 636 L 937 645 L 940 649 L 942 656 L 948 667 L 949 671 L 944 677 L 941 678 L 931 677 L 926 672 L 917 652 L 865 651 L 862 655 L 856 670 L 850 677 L 848 678 L 839 678 L 834 675 L 832 670 L 851 631 L 877 574 Z M 1006 551 L 1030 552 L 1029 576 L 1005 575 Z M 945 604 L 946 581 L 958 581 L 958 576 L 945 575 L 946 551 L 970 552 L 970 561 L 975 560 L 976 551 L 1000 552 L 999 577 L 996 576 L 994 569 L 989 564 L 983 562 L 973 562 L 967 565 L 964 568 L 961 575 L 960 605 Z M 916 551 L 940 552 L 939 576 L 917 576 L 918 581 L 940 582 L 939 605 L 931 608 L 931 609 L 940 611 L 939 633 L 913 576 L 913 574 L 915 572 Z M 886 551 L 910 552 L 909 569 L 904 564 L 899 562 L 882 561 L 885 560 Z M 856 551 L 880 552 L 880 560 L 883 562 L 880 563 L 874 568 L 868 578 L 855 575 Z" fill="rgb(91,173,87)" fill-opacity="0.18824" fill-rule="evenodd"/>
<path d="M 658 544 L 659 548 L 672 551 L 686 558 L 701 571 L 704 567 L 697 559 L 688 552 L 665 543 Z" fill="rgb(91,173,87)" fill-opacity="0.18824" fill-rule="evenodd"/>
<path d="M 1208 538 L 1200 536 L 1194 538 L 1191 541 L 1189 545 L 1189 551 L 1191 555 L 1181 565 L 1182 568 L 1184 569 L 1196 559 L 1205 560 L 1212 554 L 1213 545 Z M 1203 542 L 1207 546 L 1207 551 L 1204 554 L 1200 555 L 1195 551 L 1194 548 L 1199 542 Z" fill="rgb(91,173,87)" fill-opacity="0.18824" fill-rule="evenodd"/>
<path d="M 659 520 L 658 522 L 659 524 L 677 528 L 690 534 L 703 543 L 716 555 L 718 554 L 717 548 L 708 539 L 697 531 L 677 522 L 665 519 Z" fill="rgb(91,173,87)" fill-opacity="0.18824" fill-rule="evenodd"/>
<path d="M 724 509 L 722 511 L 722 515 L 725 518 L 728 518 L 731 515 L 731 511 L 729 509 Z" fill="rgb(91,173,87)" fill-opacity="0.18824" fill-rule="evenodd"/>
<path d="M 755 500 L 747 506 L 745 512 L 746 519 L 751 525 L 755 527 L 762 527 L 769 523 L 772 518 L 773 512 L 770 505 L 767 502 L 763 500 Z" fill="rgb(91,173,87)" fill-opacity="0.18824" fill-rule="evenodd"/>
<path d="M 1106 494 L 1102 498 L 1102 503 L 1105 506 L 1110 506 L 1114 502 L 1114 499 L 1110 494 Z" fill="rgb(91,173,87)" fill-opacity="0.18824" fill-rule="evenodd"/>
<path d="M 1135 489 L 1134 491 L 1135 495 L 1137 497 L 1141 497 L 1144 492 L 1141 488 Z" fill="rgb(91,173,87)" fill-opacity="0.18824" fill-rule="evenodd"/>
<path d="M 803 557 L 808 556 L 808 530 L 816 522 L 1067 522 L 1075 531 L 1076 565 L 1080 565 L 1082 556 L 1127 555 L 1181 516 L 1240 516 L 1249 527 L 1261 528 L 1269 522 L 1272 513 L 1268 503 L 1258 498 L 1245 503 L 1241 511 L 1177 511 L 1124 550 L 1081 549 L 1081 531 L 1074 519 L 1035 515 L 1036 485 L 1032 481 L 1028 516 L 1005 515 L 1002 481 L 998 516 L 975 515 L 972 481 L 969 516 L 945 515 L 946 484 L 942 481 L 939 516 L 916 515 L 916 484 L 912 481 L 909 516 L 886 515 L 886 484 L 882 481 L 879 516 L 856 515 L 853 481 L 849 516 L 816 516 L 805 523 Z M 1254 504 L 1258 504 L 1262 506 L 1265 510 L 1264 519 L 1258 523 L 1252 522 L 1247 516 L 1248 509 Z" fill="rgb(91,173,87)" fill-opacity="0.18824" fill-rule="evenodd"/>
<path d="M 720 879 L 724 895 L 740 907 L 1166 907 L 1180 900 L 1189 886 L 1189 874 L 1182 862 L 1167 855 L 741 855 L 725 866 Z M 728 881 L 731 872 L 737 866 L 763 862 L 1165 863 L 1175 867 L 1181 876 L 1179 889 L 1173 895 L 1160 899 L 745 899 L 733 893 Z" fill="rgb(91,173,87)" fill-opacity="0.28235" fill-rule="evenodd"/>
<path d="M 777 766 L 774 768 L 773 773 L 775 776 L 780 777 L 783 775 L 784 769 L 780 766 Z" fill="rgb(91,173,87)" fill-opacity="0.28235" fill-rule="evenodd"/>
<path d="M 1142 757 L 1140 759 L 1140 763 L 1143 766 L 1145 766 L 1148 764 L 1149 761 L 1148 758 Z" fill="rgb(91,173,87)" fill-opacity="0.28235" fill-rule="evenodd"/>
<path d="M 1110 747 L 1104 749 L 1100 753 L 1098 757 L 1098 764 L 1101 770 L 1105 773 L 1114 774 L 1117 773 L 1123 767 L 1124 756 L 1118 749 Z" fill="rgb(91,173,87)" fill-opacity="0.28235" fill-rule="evenodd"/>
<path d="M 632 724 L 627 731 L 627 738 L 629 742 L 635 746 L 644 745 L 650 738 L 650 731 L 648 727 L 642 723 Z M 636 728 L 641 728 L 645 733 L 645 737 L 641 741 L 637 741 L 632 737 L 632 733 Z" fill="rgb(91,173,87)" fill-opacity="0.28235" fill-rule="evenodd"/>
<path d="M 717 702 L 714 702 L 702 714 L 692 721 L 677 728 L 662 731 L 660 733 L 660 735 L 662 737 L 673 735 L 682 732 L 696 725 L 706 718 L 718 706 Z" fill="rgb(91,173,87)" fill-opacity="0.28235" fill-rule="evenodd"/>
<path d="M 703 685 L 700 685 L 690 695 L 681 701 L 670 706 L 660 708 L 658 711 L 660 713 L 664 713 L 677 709 L 685 705 L 694 699 L 704 689 Z" fill="rgb(91,173,87)" fill-opacity="0.28235" fill-rule="evenodd"/>
<path d="M 687 670 L 684 670 L 672 680 L 664 684 L 659 685 L 657 688 L 658 690 L 666 689 L 682 680 L 688 673 Z" fill="rgb(91,173,87)" fill-opacity="0.28235" fill-rule="evenodd"/>
<path d="M 712 752 L 720 763 L 732 761 L 734 745 L 776 709 L 802 710 L 803 732 L 815 743 L 850 744 L 851 777 L 856 775 L 857 743 L 880 744 L 881 777 L 885 776 L 886 743 L 910 744 L 911 777 L 915 776 L 916 743 L 940 744 L 941 777 L 945 776 L 946 743 L 970 744 L 971 777 L 975 776 L 976 743 L 1000 744 L 1001 777 L 1005 776 L 1006 743 L 1030 744 L 1029 774 L 1033 777 L 1036 743 L 1073 740 L 1080 731 L 1081 709 L 1126 709 L 1176 746 L 1242 748 L 1253 760 L 1269 754 L 1271 740 L 1256 730 L 1241 742 L 1181 742 L 1131 705 L 1081 703 L 1079 687 L 1075 688 L 1075 729 L 1065 738 L 818 738 L 807 725 L 807 662 L 802 663 L 801 704 L 766 707 L 731 741 L 717 742 Z M 723 745 L 726 745 L 729 747 L 730 755 L 727 758 L 722 758 L 718 754 L 718 749 Z M 1254 736 L 1261 737 L 1266 743 L 1265 750 L 1261 754 L 1255 755 L 1251 753 L 1247 748 L 1248 741 Z" fill="rgb(91,173,87)" fill-opacity="0.28235" fill-rule="evenodd"/>
<path d="M 1054 688 L 1050 688 L 1050 705 L 1048 707 L 1035 706 L 1036 682 L 1041 682 L 1034 676 L 1034 641 L 1030 641 L 1029 648 L 1005 647 L 1005 641 L 1000 642 L 1001 676 L 994 683 L 1000 684 L 999 708 L 975 706 L 975 688 L 970 687 L 969 707 L 945 706 L 944 687 L 940 688 L 938 708 L 915 706 L 916 682 L 921 682 L 919 678 L 915 677 L 910 660 L 909 678 L 885 677 L 884 659 L 880 659 L 879 678 L 862 679 L 861 682 L 880 684 L 879 707 L 855 706 L 855 686 L 850 688 L 849 707 L 833 706 L 831 687 L 828 688 L 828 708 L 832 712 L 1050 712 L 1054 708 Z M 1006 682 L 1020 682 L 1030 684 L 1029 707 L 1006 708 Z M 886 682 L 909 682 L 909 707 L 885 706 Z M 1006 652 L 1030 653 L 1029 678 L 1005 677 Z" fill="rgb(91,173,87)" fill-opacity="0.28235" fill-rule="evenodd"/>
<path d="M 636 613 L 628 619 L 626 623 L 626 631 L 628 636 L 632 640 L 639 643 L 643 643 L 650 640 L 655 634 L 656 623 L 654 619 L 649 614 Z" fill="rgb(91,173,87)" fill-opacity="0.28235" fill-rule="evenodd"/>
<path d="M 1266 614 L 1261 612 L 1251 613 L 1244 619 L 1243 623 L 1241 625 L 1188 624 L 1187 625 L 1181 625 L 1180 627 L 1183 630 L 1208 631 L 1208 678 L 1205 685 L 1191 690 L 1188 694 L 1187 703 L 1192 710 L 1197 712 L 1204 711 L 1209 707 L 1211 703 L 1211 696 L 1208 690 L 1213 681 L 1214 630 L 1243 631 L 1244 635 L 1249 640 L 1253 642 L 1262 642 L 1270 636 L 1273 629 L 1272 621 Z M 1196 693 L 1201 693 L 1206 698 L 1206 702 L 1202 706 L 1196 706 L 1193 703 L 1193 696 Z M 1259 617 L 1263 619 L 1267 625 L 1266 632 L 1259 637 L 1256 637 L 1252 635 L 1247 629 L 1248 623 L 1253 618 Z" fill="rgb(91,173,87)" fill-opacity="0.28235" fill-rule="evenodd"/>
<path d="M 889 591 L 872 629 L 872 633 L 877 634 L 909 632 L 908 627 L 902 615 L 896 598 L 893 592 Z M 892 603 L 901 625 L 900 628 L 879 627 L 886 613 L 887 608 Z" fill="rgb(91,173,87)" fill-opacity="0.28235" fill-rule="evenodd"/>
<path d="M 754 587 L 755 628 L 788 628 L 796 625 L 801 621 L 805 614 L 806 603 L 805 599 L 800 591 L 790 586 Z M 761 591 L 787 591 L 791 592 L 797 597 L 800 602 L 800 611 L 798 615 L 793 620 L 789 622 L 783 623 L 760 622 Z" fill="rgb(91,173,87)" fill-opacity="0.28235" fill-rule="evenodd"/>
<path d="M 1123 566 L 1111 569 L 1103 573 L 1092 582 L 1087 590 L 1084 600 L 1085 615 L 1091 626 L 1100 633 L 1118 640 L 1138 645 L 1145 652 L 1138 659 L 1121 659 L 1114 657 L 1101 650 L 1094 650 L 1089 653 L 1083 662 L 1083 669 L 1087 675 L 1099 682 L 1113 686 L 1136 687 L 1154 683 L 1166 676 L 1171 671 L 1177 660 L 1178 643 L 1174 633 L 1164 623 L 1147 616 L 1126 611 L 1119 607 L 1117 603 L 1118 600 L 1124 595 L 1136 594 L 1161 602 L 1167 599 L 1172 593 L 1174 588 L 1174 582 L 1168 574 L 1158 569 L 1145 566 Z M 1152 573 L 1163 578 L 1168 583 L 1167 590 L 1161 596 L 1158 596 L 1148 591 L 1140 589 L 1126 589 L 1114 595 L 1112 598 L 1112 607 L 1117 613 L 1123 616 L 1144 621 L 1162 629 L 1169 636 L 1172 643 L 1173 650 L 1169 664 L 1159 674 L 1151 678 L 1140 681 L 1117 681 L 1097 675 L 1089 668 L 1089 663 L 1094 656 L 1099 655 L 1112 662 L 1129 665 L 1139 664 L 1144 662 L 1149 657 L 1150 648 L 1145 642 L 1141 640 L 1117 634 L 1101 627 L 1094 620 L 1090 611 L 1090 598 L 1093 591 L 1104 579 L 1117 573 L 1129 571 L 1140 571 Z" fill="rgb(91,173,87)" fill-opacity="0.28235" fill-rule="evenodd"/>
<path d="M 658 567 L 658 571 L 665 573 L 675 578 L 684 586 L 686 586 L 688 583 L 683 577 L 674 571 L 661 566 Z" fill="rgb(91,173,87)" fill-opacity="0.28235" fill-rule="evenodd"/>
<path d="M 833 593 L 828 582 L 820 573 L 801 564 L 781 562 L 736 563 L 730 567 L 726 576 L 725 625 L 681 625 L 674 607 L 665 597 L 651 590 L 637 589 L 622 594 L 609 606 L 603 620 L 603 636 L 610 651 L 617 658 L 630 665 L 647 666 L 657 663 L 671 652 L 677 642 L 680 630 L 726 631 L 727 674 L 732 681 L 738 684 L 748 684 L 753 682 L 759 675 L 761 651 L 799 650 L 815 643 L 825 634 L 831 624 L 834 613 Z M 635 595 L 648 595 L 656 598 L 663 603 L 669 610 L 673 619 L 674 630 L 673 631 L 673 636 L 670 643 L 663 652 L 656 657 L 649 660 L 634 660 L 626 657 L 617 650 L 612 643 L 609 636 L 608 624 L 612 612 L 622 601 Z M 811 574 L 823 585 L 828 597 L 829 605 L 828 614 L 826 621 L 822 628 L 816 635 L 809 640 L 796 645 L 754 647 L 755 670 L 754 673 L 750 677 L 744 679 L 738 678 L 735 676 L 732 672 L 732 575 L 733 573 L 739 568 L 792 568 L 802 570 Z" fill="rgb(91,173,87)" fill-opacity="0.28235" fill-rule="evenodd"/>
<path d="M 828 550 L 828 570 L 832 570 L 832 554 L 835 551 L 850 552 L 849 576 L 838 576 L 836 579 L 850 582 L 853 606 L 856 581 L 866 580 L 828 665 L 827 675 L 832 681 L 840 684 L 853 682 L 860 675 L 868 657 L 912 657 L 925 680 L 934 684 L 944 683 L 953 676 L 954 666 L 941 639 L 961 639 L 963 676 L 972 683 L 981 684 L 990 680 L 995 672 L 996 638 L 1038 639 L 1042 677 L 1053 684 L 1063 683 L 1071 677 L 1074 670 L 1073 573 L 1066 564 L 1052 562 L 1042 568 L 1039 576 L 1035 576 L 1036 551 L 1048 551 L 1050 557 L 1054 557 L 1052 547 L 833 546 Z M 946 610 L 961 611 L 960 634 L 947 634 L 944 632 Z M 996 581 L 1000 582 L 1000 605 L 1005 605 L 1006 581 L 1030 582 L 1030 605 L 1035 604 L 1034 587 L 1035 581 L 1039 582 L 1038 609 L 1009 609 L 995 606 L 995 583 Z M 973 568 L 984 568 L 990 575 L 991 614 L 1045 613 L 1045 575 L 1047 571 L 1051 568 L 1058 567 L 1063 569 L 1067 573 L 1068 670 L 1063 677 L 1053 678 L 1049 676 L 1045 671 L 1044 633 L 990 634 L 990 669 L 988 674 L 983 678 L 974 678 L 968 673 L 967 575 Z M 881 569 L 886 567 L 896 567 L 901 569 L 906 574 L 949 669 L 949 672 L 942 678 L 933 678 L 929 676 L 925 671 L 917 652 L 864 652 L 855 672 L 848 678 L 838 678 L 833 674 L 832 670 L 848 637 L 876 575 Z M 1006 551 L 1030 552 L 1029 576 L 1011 577 L 1005 576 Z M 945 604 L 946 581 L 958 581 L 958 577 L 945 575 L 946 551 L 970 552 L 970 560 L 975 559 L 976 551 L 1000 552 L 999 577 L 996 576 L 993 568 L 990 565 L 983 562 L 971 563 L 963 570 L 961 576 L 961 587 L 962 588 L 961 604 Z M 916 551 L 940 552 L 938 577 L 921 576 L 917 577 L 918 581 L 940 582 L 939 605 L 931 605 L 931 609 L 940 611 L 941 632 L 938 632 L 917 586 L 913 572 L 915 572 Z M 856 551 L 880 552 L 880 560 L 885 560 L 886 551 L 910 552 L 909 569 L 905 565 L 898 562 L 884 562 L 875 567 L 868 579 L 866 576 L 855 575 Z" fill="rgb(91,173,87)" fill-opacity="0.28235" fill-rule="evenodd"/>
<path d="M 658 544 L 659 548 L 673 551 L 685 557 L 699 570 L 703 569 L 703 565 L 693 556 L 684 550 L 664 543 Z" fill="rgb(91,173,87)" fill-opacity="0.28235" fill-rule="evenodd"/>
<path d="M 1209 539 L 1206 537 L 1201 536 L 1192 540 L 1189 546 L 1189 550 L 1191 555 L 1181 566 L 1182 568 L 1185 568 L 1195 559 L 1205 560 L 1211 555 L 1213 551 L 1213 545 Z M 1199 542 L 1205 543 L 1208 548 L 1207 551 L 1202 555 L 1197 554 L 1194 550 L 1195 545 Z" fill="rgb(91,173,87)" fill-opacity="0.28235" fill-rule="evenodd"/>
<path d="M 659 520 L 659 523 L 661 525 L 671 526 L 685 531 L 702 542 L 714 554 L 718 553 L 718 550 L 711 542 L 693 529 L 673 521 L 663 519 Z" fill="rgb(91,173,87)" fill-opacity="0.28235" fill-rule="evenodd"/>
<path d="M 722 512 L 722 515 L 724 517 L 727 518 L 731 515 L 731 512 L 728 509 L 723 510 Z" fill="rgb(91,173,87)" fill-opacity="0.28235" fill-rule="evenodd"/>
<path d="M 756 500 L 750 503 L 746 509 L 746 518 L 748 522 L 753 526 L 761 527 L 766 525 L 771 520 L 772 509 L 767 502 L 763 500 Z" fill="rgb(91,173,87)" fill-opacity="0.28235" fill-rule="evenodd"/>
<path d="M 1107 494 L 1102 498 L 1102 502 L 1104 505 L 1110 506 L 1113 503 L 1113 497 L 1111 495 Z" fill="rgb(91,173,87)" fill-opacity="0.28235" fill-rule="evenodd"/>
<path d="M 1137 488 L 1135 490 L 1136 496 L 1140 497 L 1142 496 L 1143 490 L 1141 488 Z" fill="rgb(91,173,87)" fill-opacity="0.28235" fill-rule="evenodd"/>
<path d="M 802 556 L 807 557 L 808 530 L 819 521 L 1061 521 L 1075 530 L 1076 565 L 1080 565 L 1082 555 L 1129 554 L 1180 516 L 1242 517 L 1248 526 L 1260 528 L 1270 520 L 1271 509 L 1265 501 L 1252 499 L 1242 510 L 1178 511 L 1127 549 L 1080 549 L 1081 533 L 1075 520 L 1066 516 L 1035 515 L 1034 482 L 1030 483 L 1029 516 L 1005 515 L 1004 482 L 1000 483 L 999 516 L 975 515 L 974 482 L 970 483 L 969 516 L 945 515 L 944 482 L 940 483 L 939 516 L 915 515 L 913 481 L 909 516 L 885 515 L 885 483 L 880 483 L 879 516 L 856 515 L 855 482 L 850 483 L 849 516 L 817 516 L 806 522 L 802 531 Z M 1254 504 L 1261 505 L 1265 509 L 1266 512 L 1265 518 L 1259 523 L 1252 522 L 1247 516 L 1248 509 Z" fill="rgb(91,173,87)" fill-opacity="0.28235" fill-rule="evenodd"/>
<path d="M 721 877 L 723 892 L 728 899 L 741 907 L 1165 907 L 1178 901 L 1185 894 L 1189 883 L 1184 865 L 1166 855 L 741 855 L 725 867 Z M 728 877 L 736 866 L 754 862 L 1161 862 L 1176 867 L 1181 874 L 1182 883 L 1179 890 L 1170 897 L 1147 900 L 758 900 L 736 896 L 729 888 Z" fill="rgb(91,173,87)" fill-opacity="0.31373" fill-rule="evenodd"/>
<path d="M 1104 770 L 1108 772 L 1113 772 L 1110 770 L 1107 771 L 1106 769 Z" fill="rgb(91,173,87)" fill-opacity="0.31373" fill-rule="evenodd"/>
<path d="M 778 766 L 774 769 L 773 772 L 776 776 L 778 775 L 778 777 L 780 775 L 781 776 L 784 772 L 784 770 L 781 767 Z" fill="rgb(91,173,87)" fill-opacity="0.31373" fill-rule="evenodd"/>
<path d="M 1143 757 L 1140 760 L 1141 764 L 1146 765 L 1148 763 L 1148 759 L 1146 757 L 1144 758 Z" fill="rgb(91,173,87)" fill-opacity="0.31373" fill-rule="evenodd"/>
<path d="M 1098 759 L 1098 762 L 1101 763 L 1101 765 L 1104 764 L 1107 766 L 1109 766 L 1108 763 L 1104 762 L 1112 761 L 1110 764 L 1113 766 L 1111 764 L 1115 763 L 1117 761 L 1119 764 L 1121 761 L 1122 763 L 1124 762 L 1124 757 L 1122 753 L 1119 750 L 1114 748 L 1112 750 L 1110 748 L 1107 748 L 1107 751 L 1105 749 L 1105 752 L 1100 754 L 1100 758 L 1099 756 L 1100 758 Z" fill="rgb(91,173,87)" fill-opacity="0.31373" fill-rule="evenodd"/>
<path d="M 671 735 L 670 732 L 666 731 L 665 733 L 660 734 L 661 736 L 667 736 L 667 733 L 669 735 Z" fill="rgb(91,173,87)" fill-opacity="0.31373" fill-rule="evenodd"/>
<path d="M 803 730 L 805 735 L 814 742 L 850 746 L 850 775 L 853 777 L 855 776 L 856 743 L 881 744 L 883 767 L 880 775 L 883 777 L 886 743 L 909 742 L 910 775 L 913 777 L 916 743 L 940 744 L 940 775 L 943 777 L 945 751 L 944 760 L 942 756 L 941 758 L 941 743 L 970 744 L 970 775 L 974 776 L 975 761 L 970 762 L 972 747 L 974 745 L 975 749 L 976 743 L 1000 744 L 1001 777 L 1005 775 L 1006 743 L 1030 744 L 1030 776 L 1033 777 L 1035 775 L 1034 742 L 1065 743 L 1052 742 L 1058 738 L 816 738 L 808 729 Z M 1030 745 L 1031 743 L 1033 745 Z M 1003 742 L 1005 744 L 1005 775 L 1002 777 L 1001 773 L 1003 774 L 1003 772 L 1000 770 L 1002 770 L 1003 768 L 1000 767 L 1002 766 L 1003 763 L 1001 765 L 1000 763 L 1002 760 L 1000 759 L 1000 756 L 1002 756 L 1000 754 L 1000 745 Z" fill="rgb(91,173,87)" fill-opacity="0.31373" fill-rule="evenodd"/>
<path d="M 636 723 L 633 724 L 628 730 L 629 732 L 627 733 L 628 739 L 630 739 L 629 741 L 632 744 L 636 746 L 643 745 L 639 741 L 636 741 L 631 735 L 633 730 L 635 728 L 642 728 L 645 731 L 646 738 L 649 739 L 649 730 L 644 724 Z" fill="rgb(91,173,87)" fill-opacity="0.31373" fill-rule="evenodd"/>
<path d="M 1078 712 L 1076 712 L 1076 728 L 1074 732 L 1069 737 L 1065 738 L 1068 742 L 1074 739 L 1077 736 L 1080 730 L 1080 715 L 1079 720 L 1077 718 Z" fill="rgb(91,173,87)" fill-opacity="0.31373" fill-rule="evenodd"/>
<path d="M 930 712 L 969 712 L 969 710 L 971 710 L 969 709 L 950 710 L 941 709 L 938 710 L 938 712 Z" fill="rgb(91,173,87)" fill-opacity="0.31373" fill-rule="evenodd"/>
<path d="M 979 712 L 1007 712 L 1011 711 L 1012 712 L 1026 712 L 1027 709 L 1029 712 L 1033 712 L 1028 711 L 1030 710 L 1029 708 L 1020 709 L 1014 708 L 1012 710 L 1008 710 L 1007 712 L 999 711 L 996 708 L 982 708 L 980 709 L 981 711 Z" fill="rgb(91,173,87)" fill-opacity="0.31373" fill-rule="evenodd"/>
<path d="M 858 712 L 903 712 L 902 708 L 895 709 L 898 709 L 900 711 L 876 711 L 878 709 L 866 708 L 864 711 Z" fill="rgb(91,173,87)" fill-opacity="0.31373" fill-rule="evenodd"/>
<path d="M 1053 709 L 1051 707 L 1050 709 L 1048 707 L 1048 709 L 1045 708 L 1045 710 L 1040 710 L 1044 711 L 1035 712 L 1048 712 L 1051 709 L 1051 711 Z" fill="rgb(91,173,87)" fill-opacity="0.31373" fill-rule="evenodd"/>
<path d="M 1123 709 L 1127 709 L 1133 712 L 1172 743 L 1178 744 L 1178 746 L 1180 745 L 1180 747 L 1243 747 L 1246 745 L 1247 748 L 1246 745 L 1247 741 L 1251 737 L 1260 736 L 1266 742 L 1266 749 L 1261 754 L 1263 753 L 1263 755 L 1267 755 L 1265 757 L 1271 749 L 1271 742 L 1269 737 L 1261 731 L 1250 732 L 1245 736 L 1243 741 L 1240 744 L 1205 742 L 1185 743 L 1180 742 L 1134 707 L 1129 705 L 1129 707 L 1126 709 Z" fill="rgb(91,173,87)" fill-opacity="0.31373" fill-rule="evenodd"/>
<path d="M 798 704 L 775 704 L 770 705 L 745 727 L 733 739 L 734 740 L 733 742 L 731 743 L 731 741 L 727 740 L 719 741 L 713 748 L 713 755 L 715 759 L 721 763 L 727 763 L 731 761 L 734 758 L 736 752 L 734 745 L 768 712 L 772 710 L 773 708 L 801 709 L 791 708 L 797 706 L 795 705 Z M 725 744 L 731 749 L 730 755 L 731 756 L 726 759 L 723 759 L 718 755 L 717 750 L 721 745 Z" fill="rgb(91,173,87)" fill-opacity="0.31373" fill-rule="evenodd"/>
<path d="M 718 704 L 716 702 L 700 716 L 688 723 L 690 728 L 703 720 L 717 707 Z" fill="rgb(91,173,87)" fill-opacity="0.31373" fill-rule="evenodd"/>
<path d="M 1030 691 L 1030 706 L 1033 705 L 1030 703 Z" fill="rgb(91,173,87)" fill-opacity="0.31373" fill-rule="evenodd"/>
<path d="M 1054 689 L 1051 691 L 1050 689 L 1050 704 L 1051 691 L 1052 693 L 1054 693 Z" fill="rgb(91,173,87)" fill-opacity="0.31373" fill-rule="evenodd"/>
<path d="M 1076 688 L 1076 706 L 1079 705 L 1079 707 L 1081 708 L 1111 709 L 1116 707 L 1121 707 L 1125 704 L 1080 703 L 1080 689 Z" fill="rgb(91,173,87)" fill-opacity="0.31373" fill-rule="evenodd"/>
<path d="M 974 688 L 970 688 L 970 706 L 971 688 L 974 689 L 974 692 Z" fill="rgb(91,173,87)" fill-opacity="0.31373" fill-rule="evenodd"/>
<path d="M 829 688 L 828 707 L 831 711 L 832 708 L 833 710 L 835 710 L 833 706 L 830 705 L 829 700 L 832 697 L 831 688 L 830 689 Z" fill="rgb(91,173,87)" fill-opacity="0.31373" fill-rule="evenodd"/>
<path d="M 704 687 L 702 685 L 694 693 L 684 699 L 683 701 L 681 701 L 680 704 L 675 706 L 672 705 L 667 708 L 665 707 L 659 709 L 659 712 L 661 713 L 666 712 L 667 710 L 670 711 L 678 708 L 681 705 L 686 704 L 698 695 L 703 690 Z" fill="rgb(91,173,87)" fill-opacity="0.31373" fill-rule="evenodd"/>
<path d="M 910 683 L 911 708 L 907 709 L 909 711 L 906 711 L 927 712 L 916 711 L 920 710 L 917 710 L 913 707 L 912 699 L 914 691 L 912 691 L 911 689 L 914 689 L 914 687 L 912 688 L 910 686 L 910 684 L 912 684 Z" fill="rgb(91,173,87)" fill-opacity="0.31373" fill-rule="evenodd"/>
<path d="M 807 677 L 806 679 L 804 679 L 803 682 L 806 684 L 805 687 L 802 690 L 802 703 L 803 698 L 805 703 L 804 705 L 802 705 L 803 707 L 805 707 L 804 718 L 807 718 Z" fill="rgb(91,173,87)" fill-opacity="0.31373" fill-rule="evenodd"/>
<path d="M 688 672 L 684 672 L 684 670 L 685 673 L 681 673 L 672 680 L 669 684 L 671 684 L 671 686 L 677 683 Z" fill="rgb(91,173,87)" fill-opacity="0.31373" fill-rule="evenodd"/>
<path d="M 882 665 L 883 667 L 882 670 L 884 672 L 882 672 L 885 677 L 891 679 L 888 680 L 894 681 L 886 682 L 907 682 L 903 681 L 906 680 L 907 678 L 885 677 L 885 673 Z" fill="rgb(91,173,87)" fill-opacity="0.31373" fill-rule="evenodd"/>
<path d="M 803 662 L 804 665 L 803 668 L 807 671 L 807 662 Z" fill="rgb(91,173,87)" fill-opacity="0.31373" fill-rule="evenodd"/>
<path d="M 1084 661 L 1084 670 L 1090 677 L 1100 682 L 1116 686 L 1132 685 L 1130 684 L 1134 684 L 1137 682 L 1114 681 L 1103 678 L 1093 673 L 1089 669 L 1088 664 L 1089 661 L 1095 655 L 1098 655 L 1089 654 Z" fill="rgb(91,173,87)" fill-opacity="0.31373" fill-rule="evenodd"/>
<path d="M 1031 651 L 1030 656 L 1031 677 L 1012 678 L 1018 678 L 1021 680 L 1028 681 L 1012 682 L 1030 683 L 1030 686 L 1031 683 L 1033 686 L 1032 684 L 1034 682 L 1041 682 L 1039 680 L 1038 682 L 1034 681 L 1037 680 L 1030 676 L 1030 665 L 1033 663 L 1034 660 L 1034 655 Z" fill="rgb(91,173,87)" fill-opacity="0.31373" fill-rule="evenodd"/>
<path d="M 1097 650 L 1099 650 L 1101 652 L 1102 651 L 1104 652 L 1106 653 L 1104 652 L 1102 651 L 1101 652 L 1099 650 Z" fill="rgb(91,173,87)" fill-opacity="0.31373" fill-rule="evenodd"/>
<path d="M 1001 642 L 1001 677 L 1005 677 L 1007 652 L 1002 654 Z" fill="rgb(91,173,87)" fill-opacity="0.31373" fill-rule="evenodd"/>
<path d="M 728 641 L 727 674 L 728 676 L 736 683 L 741 684 L 750 683 L 752 679 L 750 677 L 747 680 L 739 679 L 733 674 L 731 670 L 731 644 L 729 643 L 730 641 L 728 643 Z" fill="rgb(91,173,87)" fill-opacity="0.31373" fill-rule="evenodd"/>
<path d="M 605 640 L 606 642 L 606 643 L 607 645 L 606 643 L 606 642 Z" fill="rgb(91,173,87)" fill-opacity="0.31373" fill-rule="evenodd"/>
<path d="M 673 636 L 670 644 L 663 652 L 662 655 L 658 658 L 657 660 L 660 660 L 657 662 L 661 660 L 659 659 L 664 658 L 671 651 L 675 645 L 675 639 Z" fill="rgb(91,173,87)" fill-opacity="0.31373" fill-rule="evenodd"/>
<path d="M 966 631 L 965 637 L 962 644 L 962 672 L 964 676 L 969 678 L 970 676 L 966 669 L 967 657 L 966 653 L 967 641 L 966 640 Z" fill="rgb(91,173,87)" fill-opacity="0.31373" fill-rule="evenodd"/>
<path d="M 873 633 L 900 633 L 898 632 L 899 629 L 882 629 L 882 631 Z" fill="rgb(91,173,87)" fill-opacity="0.31373" fill-rule="evenodd"/>
<path d="M 1157 620 L 1150 623 L 1158 625 L 1159 627 L 1160 626 L 1168 633 L 1173 645 L 1173 654 L 1171 661 L 1168 666 L 1161 673 L 1153 677 L 1151 681 L 1149 681 L 1151 681 L 1151 683 L 1161 679 L 1172 669 L 1175 664 L 1178 652 L 1177 641 L 1174 634 L 1166 625 Z" fill="rgb(91,173,87)" fill-opacity="0.31373" fill-rule="evenodd"/>
<path d="M 626 625 L 626 630 L 627 628 L 628 630 L 633 628 L 634 626 L 638 625 L 641 628 L 641 626 L 646 627 L 647 625 L 650 628 L 656 628 L 654 620 L 651 616 L 645 613 L 638 613 L 633 615 L 629 619 L 630 620 L 627 622 L 628 624 Z" fill="rgb(91,173,87)" fill-opacity="0.31373" fill-rule="evenodd"/>
<path d="M 1268 616 L 1263 613 L 1260 614 L 1257 613 L 1259 612 L 1252 613 L 1246 617 L 1242 625 L 1181 626 L 1183 626 L 1183 628 L 1181 628 L 1185 629 L 1186 627 L 1189 629 L 1207 629 L 1209 630 L 1208 680 L 1203 688 L 1193 689 L 1188 695 L 1189 696 L 1187 700 L 1189 706 L 1193 710 L 1203 711 L 1204 709 L 1205 710 L 1210 705 L 1211 702 L 1211 697 L 1207 690 L 1210 687 L 1213 680 L 1212 631 L 1214 629 L 1244 630 L 1243 632 L 1245 633 L 1245 636 L 1248 639 L 1254 642 L 1260 642 L 1265 640 L 1270 635 L 1272 630 L 1272 623 Z M 1192 697 L 1196 693 L 1200 692 L 1206 697 L 1206 702 L 1210 702 L 1209 706 L 1198 707 L 1192 702 Z M 1254 617 L 1260 617 L 1267 623 L 1267 631 L 1261 639 L 1251 635 L 1247 630 L 1248 622 Z" fill="rgb(91,173,87)" fill-opacity="0.31373" fill-rule="evenodd"/>
<path d="M 1085 614 L 1086 612 L 1087 615 L 1086 617 L 1088 621 L 1096 630 L 1101 633 L 1103 632 L 1108 636 L 1110 635 L 1111 637 L 1123 641 L 1127 641 L 1137 645 L 1141 644 L 1146 650 L 1146 654 L 1143 656 L 1148 654 L 1149 656 L 1150 649 L 1147 644 L 1145 644 L 1144 642 L 1140 640 L 1137 641 L 1136 639 L 1122 636 L 1116 633 L 1114 634 L 1112 632 L 1108 632 L 1094 621 L 1088 610 Z" fill="rgb(91,173,87)" fill-opacity="0.31373" fill-rule="evenodd"/>
<path d="M 800 610 L 798 616 L 795 620 L 793 620 L 794 622 L 792 623 L 792 626 L 794 623 L 800 621 L 802 613 L 800 612 Z" fill="rgb(91,173,87)" fill-opacity="0.31373" fill-rule="evenodd"/>
<path d="M 945 607 L 946 609 L 960 609 L 960 606 Z" fill="rgb(91,173,87)" fill-opacity="0.31373" fill-rule="evenodd"/>
<path d="M 931 606 L 931 609 L 940 608 L 939 606 Z" fill="rgb(91,173,87)" fill-opacity="0.31373" fill-rule="evenodd"/>
<path d="M 889 592 L 877 619 L 879 623 L 877 624 L 877 626 L 879 628 L 881 623 L 879 619 L 884 616 L 889 602 L 891 600 L 904 631 L 905 629 L 908 630 L 895 597 L 893 596 L 893 592 Z" fill="rgb(91,173,87)" fill-opacity="0.31373" fill-rule="evenodd"/>
<path d="M 799 591 L 797 594 L 800 598 L 802 599 L 803 597 L 804 599 L 802 594 Z" fill="rgb(91,173,87)" fill-opacity="0.31373" fill-rule="evenodd"/>
<path d="M 1114 596 L 1112 601 L 1112 605 L 1116 612 L 1124 616 L 1139 620 L 1147 620 L 1147 622 L 1149 620 L 1150 621 L 1152 620 L 1150 621 L 1148 617 L 1142 617 L 1141 615 L 1125 611 L 1121 609 L 1116 604 L 1118 599 L 1125 595 L 1123 594 L 1126 592 L 1138 592 L 1143 594 L 1146 591 L 1144 592 L 1140 591 L 1142 590 L 1140 590 L 1139 593 L 1138 590 L 1137 592 L 1135 591 L 1135 594 L 1129 593 L 1131 592 L 1128 591 L 1126 592 L 1124 590 L 1123 592 L 1121 593 L 1121 591 Z" fill="rgb(91,173,87)" fill-opacity="0.31373" fill-rule="evenodd"/>
<path d="M 634 590 L 621 595 L 611 604 L 604 617 L 603 634 L 604 638 L 609 641 L 610 643 L 609 645 L 612 647 L 611 648 L 612 650 L 610 650 L 612 650 L 614 654 L 622 661 L 637 666 L 650 665 L 653 664 L 653 661 L 655 661 L 652 662 L 648 660 L 636 661 L 629 659 L 622 655 L 614 646 L 611 646 L 609 642 L 610 639 L 608 638 L 609 635 L 607 635 L 607 622 L 611 613 L 618 604 L 624 599 L 630 596 L 639 594 L 644 595 L 652 594 L 654 595 L 654 597 L 660 599 L 670 610 L 672 616 L 675 617 L 673 619 L 674 619 L 675 628 L 679 628 L 675 627 L 679 624 L 678 617 L 672 605 L 663 596 L 655 592 L 652 593 L 648 592 L 648 590 Z" fill="rgb(91,173,87)" fill-opacity="0.31373" fill-rule="evenodd"/>
<path d="M 755 586 L 756 628 L 783 628 L 790 625 L 787 623 L 760 622 L 758 609 L 761 591 L 787 591 L 783 590 L 787 588 L 785 586 Z" fill="rgb(91,173,87)" fill-opacity="0.31373" fill-rule="evenodd"/>
<path d="M 687 584 L 685 584 L 685 586 Z" fill="rgb(91,173,87)" fill-opacity="0.31373" fill-rule="evenodd"/>
<path d="M 940 583 L 940 604 L 942 606 L 943 603 L 944 605 L 944 586 L 943 589 L 940 586 Z" fill="rgb(91,173,87)" fill-opacity="0.31373" fill-rule="evenodd"/>
<path d="M 960 634 L 944 633 L 944 626 L 944 632 L 942 634 L 941 632 L 938 633 L 916 583 L 914 586 L 911 584 L 916 592 L 916 596 L 929 625 L 931 625 L 935 632 L 932 632 L 931 630 L 934 636 L 935 634 L 938 637 L 939 641 L 936 640 L 940 650 L 946 659 L 946 662 L 949 663 L 948 666 L 947 664 L 949 668 L 948 674 L 945 677 L 939 679 L 930 677 L 925 672 L 920 661 L 917 659 L 919 658 L 917 653 L 866 651 L 855 673 L 849 679 L 839 680 L 839 678 L 837 679 L 836 677 L 835 682 L 850 683 L 854 681 L 859 676 L 867 658 L 869 656 L 878 655 L 915 656 L 919 661 L 917 662 L 920 664 L 919 667 L 922 671 L 921 674 L 920 672 L 923 678 L 929 682 L 931 681 L 932 683 L 943 683 L 944 681 L 946 682 L 952 677 L 954 668 L 940 640 L 942 638 L 961 638 L 958 635 Z M 940 634 L 942 637 L 939 637 Z M 928 623 L 929 621 L 931 623 Z" fill="rgb(91,173,87)" fill-opacity="0.31373" fill-rule="evenodd"/>
<path d="M 870 582 L 867 582 L 864 591 L 857 603 L 848 625 L 838 645 L 839 646 L 836 649 L 828 667 L 829 664 L 832 664 L 832 667 L 832 664 L 834 665 L 836 662 L 840 651 L 839 648 L 842 648 L 846 638 L 848 636 L 853 623 L 860 610 L 861 605 L 864 601 L 870 587 L 868 586 L 871 585 L 869 584 Z" fill="rgb(91,173,87)" fill-opacity="0.31373" fill-rule="evenodd"/>
<path d="M 1008 581 L 1005 581 L 1004 585 L 1005 586 L 1002 588 L 1001 586 L 1001 605 L 1005 605 L 1006 581 Z" fill="rgb(91,173,87)" fill-opacity="0.31373" fill-rule="evenodd"/>
<path d="M 945 579 L 957 579 L 958 577 L 948 577 L 947 579 Z" fill="rgb(91,173,87)" fill-opacity="0.31373" fill-rule="evenodd"/>
<path d="M 926 579 L 931 578 L 928 577 Z" fill="rgb(91,173,87)" fill-opacity="0.31373" fill-rule="evenodd"/>
<path d="M 877 567 L 873 570 L 870 576 L 872 583 L 875 576 L 881 569 Z" fill="rgb(91,173,87)" fill-opacity="0.31373" fill-rule="evenodd"/>
<path d="M 658 569 L 659 571 L 661 570 L 661 572 L 666 573 L 676 579 L 678 578 L 680 580 L 684 579 L 678 574 L 666 568 L 665 570 L 661 568 L 663 567 L 661 567 L 659 571 Z" fill="rgb(91,173,87)" fill-opacity="0.31373" fill-rule="evenodd"/>
<path d="M 1086 594 L 1088 596 L 1090 593 L 1091 595 L 1096 586 L 1105 578 L 1113 574 L 1125 571 L 1149 572 L 1158 575 L 1170 583 L 1168 591 L 1162 597 L 1152 595 L 1151 593 L 1148 595 L 1148 597 L 1156 601 L 1165 600 L 1173 590 L 1172 588 L 1174 587 L 1174 584 L 1172 579 L 1162 571 L 1149 567 L 1143 568 L 1142 566 L 1125 566 L 1110 570 L 1099 576 L 1091 584 Z" fill="rgb(91,173,87)" fill-opacity="0.31373" fill-rule="evenodd"/>
<path d="M 1068 566 L 1066 566 L 1065 570 L 1067 570 L 1069 574 L 1068 671 L 1066 675 L 1059 680 L 1050 677 L 1045 672 L 1044 633 L 990 634 L 990 671 L 984 678 L 973 683 L 984 683 L 988 681 L 993 669 L 995 669 L 996 638 L 1003 638 L 1004 636 L 1008 637 L 1005 638 L 1040 639 L 1040 671 L 1042 677 L 1048 682 L 1063 683 L 1072 675 L 1073 575 L 1072 571 Z M 1071 651 L 1073 654 L 1073 658 L 1069 667 L 1069 651 L 1070 652 Z M 1041 646 L 1044 654 L 1041 663 Z M 1071 637 L 1072 642 L 1069 648 L 1068 639 L 1070 639 Z M 1069 583 L 1070 587 L 1069 589 Z" fill="rgb(91,173,87)" fill-opacity="0.31373" fill-rule="evenodd"/>
<path d="M 962 573 L 962 594 L 963 590 L 966 593 L 964 601 L 963 599 L 962 602 L 964 604 L 964 607 L 962 610 L 962 627 L 964 623 L 966 625 L 966 628 L 966 577 L 968 572 L 974 567 L 983 566 L 984 568 L 986 568 L 990 574 L 990 613 L 992 614 L 1033 614 L 1035 612 L 1037 614 L 1044 614 L 1045 612 L 1044 578 L 1045 573 L 1051 568 L 1050 566 L 1048 566 L 1048 564 L 1042 569 L 1040 573 L 1040 576 L 1043 579 L 1041 580 L 1042 581 L 1040 583 L 1039 609 L 1034 612 L 1033 609 L 1032 611 L 995 608 L 995 598 L 991 595 L 990 592 L 991 581 L 994 578 L 995 573 L 989 565 L 985 565 L 984 563 L 973 563 L 973 565 L 971 564 L 967 566 Z" fill="rgb(91,173,87)" fill-opacity="0.31373" fill-rule="evenodd"/>
<path d="M 681 628 L 728 630 L 729 634 L 731 630 L 730 583 L 733 572 L 740 567 L 787 567 L 804 570 L 812 574 L 825 586 L 829 595 L 829 612 L 824 626 L 810 641 L 799 644 L 798 646 L 794 645 L 792 648 L 755 647 L 755 670 L 759 660 L 760 664 L 761 651 L 789 651 L 775 650 L 772 647 L 782 647 L 780 648 L 783 646 L 794 647 L 796 649 L 794 650 L 816 642 L 826 632 L 831 623 L 834 606 L 833 595 L 826 580 L 818 572 L 809 567 L 792 563 L 738 563 L 733 565 L 727 573 L 728 608 L 726 625 L 687 625 L 691 626 Z" fill="rgb(91,173,87)" fill-opacity="0.31373" fill-rule="evenodd"/>
<path d="M 863 581 L 856 580 L 860 579 L 859 577 L 854 576 L 854 570 L 852 568 L 853 567 L 851 562 L 850 577 L 836 578 L 837 580 Z" fill="rgb(91,173,87)" fill-opacity="0.31373" fill-rule="evenodd"/>
<path d="M 1005 552 L 1005 571 L 1002 574 L 1001 572 L 1001 575 L 1005 576 Z" fill="rgb(91,173,87)" fill-opacity="0.31373" fill-rule="evenodd"/>
<path d="M 1006 546 L 1014 547 L 1012 549 L 1016 550 L 1007 551 L 1023 551 L 1021 550 L 1024 548 L 1024 546 L 1042 547 L 1036 549 L 1037 551 L 1047 551 L 1044 550 L 1047 549 L 1042 547 L 1049 546 Z M 1015 549 L 1015 546 L 1019 547 Z" fill="rgb(91,173,87)" fill-opacity="0.31373" fill-rule="evenodd"/>
<path d="M 829 549 L 831 549 L 831 551 L 833 552 L 839 550 L 849 551 L 853 549 L 857 551 L 878 551 L 882 549 L 885 551 L 911 552 L 911 567 L 908 569 L 906 566 L 900 563 L 887 562 L 890 563 L 888 564 L 893 566 L 887 567 L 901 568 L 906 574 L 910 575 L 912 570 L 914 572 L 913 570 L 915 567 L 916 551 L 938 549 L 940 551 L 940 576 L 939 550 L 942 548 L 942 546 L 987 547 L 983 549 L 985 550 L 987 549 L 993 551 L 994 549 L 998 549 L 997 547 L 1004 546 L 834 546 Z" fill="rgb(91,173,87)" fill-opacity="0.31373" fill-rule="evenodd"/>
<path d="M 663 546 L 665 549 L 669 548 L 669 550 L 672 549 L 675 552 L 679 551 L 683 553 L 683 556 L 685 554 L 686 558 L 690 557 L 690 559 L 693 561 L 693 563 L 701 570 L 703 568 L 703 566 L 695 558 L 683 550 L 686 552 L 680 552 L 681 549 L 676 547 L 670 547 L 670 545 L 667 547 L 666 544 Z" fill="rgb(91,173,87)" fill-opacity="0.31373" fill-rule="evenodd"/>
<path d="M 1205 537 L 1197 537 L 1191 542 L 1190 552 L 1192 555 L 1183 563 L 1182 565 L 1183 568 L 1185 568 L 1196 558 L 1198 558 L 1199 560 L 1206 559 L 1207 557 L 1209 557 L 1212 552 L 1213 547 L 1211 542 Z M 1206 540 L 1208 544 L 1208 551 L 1203 555 L 1198 555 L 1194 551 L 1194 546 L 1198 542 Z" fill="rgb(91,173,87)" fill-opacity="0.31373" fill-rule="evenodd"/>
<path d="M 659 521 L 660 524 L 669 525 L 679 529 L 681 528 L 682 530 L 686 530 L 688 533 L 709 546 L 709 548 L 715 554 L 718 551 L 707 539 L 694 530 L 675 522 L 667 520 Z" fill="rgb(91,173,87)" fill-opacity="0.31373" fill-rule="evenodd"/>
<path d="M 725 509 L 723 514 L 725 517 L 728 517 L 730 515 L 730 511 L 728 509 Z" fill="rgb(91,173,87)" fill-opacity="0.31373" fill-rule="evenodd"/>
<path d="M 762 500 L 754 501 L 752 504 L 751 503 L 749 505 L 751 505 L 750 510 L 748 510 L 747 517 L 746 511 L 747 519 L 752 525 L 754 524 L 755 526 L 759 525 L 759 522 L 758 525 L 756 522 L 757 520 L 756 518 L 765 516 L 767 517 L 765 518 L 768 518 L 769 522 L 770 516 L 772 516 L 772 510 L 770 506 Z" fill="rgb(91,173,87)" fill-opacity="0.31373" fill-rule="evenodd"/>
<path d="M 1271 511 L 1266 502 L 1260 499 L 1253 499 L 1246 503 L 1242 511 L 1176 512 L 1167 517 L 1126 551 L 1085 550 L 1100 551 L 1097 553 L 1091 553 L 1096 554 L 1081 555 L 1078 558 L 1077 556 L 1076 563 L 1077 565 L 1080 564 L 1081 555 L 1123 555 L 1130 553 L 1151 537 L 1161 527 L 1162 528 L 1164 526 L 1163 525 L 1166 525 L 1178 515 L 1241 516 L 1247 525 L 1251 527 L 1253 526 L 1254 528 L 1258 528 L 1256 527 L 1260 525 L 1259 523 L 1253 523 L 1248 519 L 1247 509 L 1252 504 L 1260 504 L 1266 510 L 1266 517 L 1262 521 L 1266 524 L 1264 525 L 1269 521 Z" fill="rgb(91,173,87)" fill-opacity="0.31373" fill-rule="evenodd"/>
<path d="M 1106 495 L 1103 497 L 1102 501 L 1105 505 L 1109 506 L 1112 504 L 1113 498 L 1110 495 Z" fill="rgb(91,173,87)" fill-opacity="0.31373" fill-rule="evenodd"/>
<path d="M 1136 489 L 1135 494 L 1137 496 L 1141 496 L 1143 494 L 1142 490 L 1140 488 L 1138 490 Z" fill="rgb(91,173,87)" fill-opacity="0.31373" fill-rule="evenodd"/>
<path d="M 882 482 L 880 484 L 880 492 L 881 498 L 883 499 L 882 505 L 882 501 L 884 497 L 884 515 L 882 507 L 882 509 L 880 511 L 880 514 L 881 512 L 882 516 L 885 515 L 906 516 L 885 515 L 885 484 L 884 482 Z" fill="rgb(91,173,87)" fill-opacity="0.31373" fill-rule="evenodd"/>
<path d="M 803 529 L 803 556 L 807 557 L 807 532 L 817 521 L 1065 521 L 1077 530 L 1076 549 L 1079 546 L 1080 529 L 1069 517 L 1036 517 L 1033 482 L 1030 483 L 1029 518 L 1005 515 L 1005 484 L 1002 482 L 999 516 L 975 515 L 975 511 L 974 514 L 972 512 L 971 493 L 974 488 L 975 499 L 975 485 L 972 482 L 969 518 L 945 515 L 943 482 L 941 486 L 940 484 L 939 516 L 915 515 L 912 482 L 909 518 L 905 519 L 914 520 L 855 515 L 852 482 L 851 515 L 844 519 L 859 520 L 822 520 L 839 518 L 820 516 L 824 517 L 812 518 Z M 857 519 L 857 516 L 864 517 Z" fill="rgb(91,173,87)" fill-opacity="0.31373" fill-rule="evenodd"/>
</svg>