<?xml version='1.0' encoding='utf-8'?>
<svg xmlns="http://www.w3.org/2000/svg" width="846" height="575" viewBox="510 349 846 575">
<path d="M 721 877 L 723 892 L 728 899 L 741 907 L 1165 907 L 1178 901 L 1185 894 L 1189 883 L 1184 865 L 1166 855 L 741 855 L 725 867 Z M 728 877 L 736 866 L 754 862 L 1161 862 L 1176 867 L 1181 874 L 1182 883 L 1179 890 L 1170 897 L 1147 900 L 758 900 L 736 896 L 729 888 Z" fill="#ffffff" fill-rule="evenodd" />
<path d="M 1104 770 L 1108 772 L 1113 772 L 1110 770 L 1107 771 L 1106 769 Z" fill="#ffffff" fill-rule="evenodd" />
<path d="M 778 766 L 774 769 L 773 772 L 776 776 L 778 775 L 778 777 L 780 775 L 781 776 L 784 772 L 784 770 L 781 767 Z" fill="#ffffff" fill-rule="evenodd" />
<path d="M 1143 757 L 1140 760 L 1141 764 L 1146 765 L 1148 763 L 1148 759 L 1146 757 L 1144 758 Z" fill="#ffffff" fill-rule="evenodd" />
<path d="M 1098 759 L 1098 762 L 1101 763 L 1101 765 L 1104 764 L 1107 766 L 1109 766 L 1108 763 L 1104 762 L 1112 761 L 1110 764 L 1113 766 L 1111 764 L 1115 763 L 1117 761 L 1119 764 L 1121 761 L 1122 763 L 1124 762 L 1124 757 L 1122 753 L 1119 750 L 1114 748 L 1112 750 L 1110 748 L 1107 748 L 1107 751 L 1105 749 L 1105 752 L 1100 754 L 1100 758 L 1099 756 L 1100 758 Z" fill="#ffffff" fill-rule="evenodd" />
<path d="M 671 735 L 670 732 L 666 731 L 665 733 L 660 734 L 661 736 L 667 736 L 667 733 L 669 735 Z" fill="#ffffff" fill-rule="evenodd" />
<path d="M 803 730 L 805 735 L 814 742 L 850 746 L 850 775 L 853 777 L 855 776 L 856 743 L 881 744 L 883 767 L 880 775 L 883 777 L 886 743 L 909 742 L 910 775 L 913 777 L 916 743 L 940 744 L 940 775 L 943 777 L 945 751 L 944 760 L 942 756 L 941 758 L 941 743 L 970 744 L 970 775 L 974 776 L 975 761 L 970 762 L 972 747 L 974 745 L 975 749 L 976 743 L 1000 744 L 1001 777 L 1005 775 L 1006 743 L 1030 744 L 1030 776 L 1033 777 L 1035 775 L 1034 742 L 1065 743 L 1052 742 L 1058 738 L 816 738 L 808 729 Z M 1030 745 L 1031 743 L 1033 745 Z M 1003 742 L 1005 744 L 1005 775 L 1002 777 L 1001 773 L 1003 774 L 1003 772 L 1000 770 L 1002 770 L 1003 768 L 1000 767 L 1002 766 L 1003 763 L 1001 765 L 1000 763 L 1002 760 L 1000 759 L 1000 756 L 1002 756 L 1000 754 L 1000 745 Z" fill="#ffffff" fill-rule="evenodd" />
<path d="M 636 723 L 633 724 L 628 730 L 629 732 L 627 733 L 628 739 L 630 739 L 629 741 L 632 744 L 636 746 L 643 745 L 639 741 L 636 741 L 631 735 L 633 730 L 635 728 L 642 728 L 645 731 L 646 738 L 649 739 L 649 730 L 644 724 Z" fill="#ffffff" fill-rule="evenodd" />
<path d="M 1078 712 L 1076 712 L 1076 728 L 1074 732 L 1069 737 L 1065 738 L 1068 742 L 1074 739 L 1077 736 L 1080 730 L 1080 715 L 1079 720 L 1077 718 Z" fill="#ffffff" fill-rule="evenodd" />
<path d="M 930 712 L 969 712 L 969 710 L 971 710 L 969 709 L 950 710 L 941 709 L 938 710 L 938 712 Z" fill="#ffffff" fill-rule="evenodd" />
<path d="M 979 712 L 1007 712 L 1011 711 L 1012 712 L 1026 712 L 1027 709 L 1029 712 L 1033 712 L 1028 711 L 1030 710 L 1029 708 L 1020 709 L 1014 708 L 1012 710 L 1008 710 L 1007 712 L 999 711 L 996 708 L 982 708 L 980 709 L 981 711 Z" fill="#ffffff" fill-rule="evenodd" />
<path d="M 858 712 L 903 712 L 902 708 L 895 709 L 898 709 L 900 711 L 876 711 L 878 709 L 866 708 L 864 711 Z" fill="#ffffff" fill-rule="evenodd" />
<path d="M 1053 709 L 1051 707 L 1050 709 L 1048 707 L 1048 709 L 1045 708 L 1045 710 L 1040 710 L 1044 711 L 1035 712 L 1048 712 L 1051 709 L 1051 711 Z" fill="#ffffff" fill-rule="evenodd" />
<path d="M 1123 709 L 1127 709 L 1133 712 L 1172 743 L 1178 744 L 1178 746 L 1180 745 L 1180 747 L 1243 747 L 1246 745 L 1247 748 L 1246 745 L 1247 741 L 1251 737 L 1260 736 L 1266 742 L 1266 749 L 1261 754 L 1263 753 L 1263 755 L 1267 755 L 1265 757 L 1271 749 L 1271 742 L 1269 737 L 1261 731 L 1250 732 L 1245 736 L 1243 741 L 1240 744 L 1205 742 L 1185 743 L 1180 742 L 1134 707 L 1129 705 L 1129 707 L 1126 709 Z" fill="#ffffff" fill-rule="evenodd" />
<path d="M 798 704 L 775 704 L 770 705 L 745 727 L 733 739 L 734 740 L 733 742 L 731 743 L 731 741 L 727 740 L 719 741 L 713 748 L 713 755 L 715 759 L 721 763 L 727 763 L 731 761 L 734 758 L 736 752 L 734 745 L 768 712 L 772 710 L 773 708 L 801 709 L 791 708 L 797 706 L 795 705 Z M 725 744 L 731 749 L 730 755 L 731 756 L 726 759 L 723 759 L 718 755 L 717 750 L 721 745 Z" fill="#ffffff" fill-rule="evenodd" />
<path d="M 718 704 L 716 702 L 700 716 L 688 723 L 690 728 L 703 720 L 717 707 Z" fill="#ffffff" fill-rule="evenodd" />
<path d="M 1030 691 L 1030 706 L 1033 705 L 1030 703 Z" fill="#ffffff" fill-rule="evenodd" />
<path d="M 1054 689 L 1051 691 L 1050 689 L 1050 704 L 1051 691 L 1052 693 L 1054 693 Z" fill="#ffffff" fill-rule="evenodd" />
<path d="M 1076 688 L 1076 706 L 1079 705 L 1079 707 L 1081 708 L 1111 709 L 1116 707 L 1121 707 L 1125 704 L 1080 703 L 1080 689 Z" fill="#ffffff" fill-rule="evenodd" />
<path d="M 974 688 L 970 688 L 970 706 L 971 688 L 974 689 L 974 692 Z" fill="#ffffff" fill-rule="evenodd" />
<path d="M 829 688 L 828 707 L 831 711 L 832 708 L 833 710 L 835 710 L 833 706 L 830 705 L 829 700 L 832 697 L 831 688 L 830 689 Z" fill="#ffffff" fill-rule="evenodd" />
<path d="M 704 687 L 702 685 L 694 693 L 684 699 L 683 701 L 681 701 L 680 704 L 675 706 L 672 705 L 667 708 L 665 707 L 659 709 L 659 712 L 661 713 L 666 712 L 667 710 L 670 711 L 678 708 L 681 705 L 686 704 L 698 695 L 703 690 Z" fill="#ffffff" fill-rule="evenodd" />
<path d="M 910 683 L 911 708 L 907 709 L 909 711 L 906 711 L 927 712 L 916 711 L 920 710 L 917 710 L 913 707 L 912 699 L 914 691 L 912 691 L 911 689 L 914 689 L 914 687 L 912 688 L 910 686 L 910 684 L 912 684 Z" fill="#ffffff" fill-rule="evenodd" />
<path d="M 807 677 L 806 679 L 804 679 L 803 682 L 806 684 L 805 687 L 802 690 L 802 703 L 803 698 L 805 703 L 804 705 L 802 705 L 803 707 L 805 707 L 804 718 L 807 718 Z" fill="#ffffff" fill-rule="evenodd" />
<path d="M 688 672 L 684 672 L 684 670 L 685 673 L 681 673 L 672 680 L 669 684 L 671 684 L 671 686 L 677 683 Z" fill="#ffffff" fill-rule="evenodd" />
<path d="M 882 665 L 883 667 L 882 670 L 884 672 L 882 672 L 885 677 L 891 679 L 888 680 L 894 681 L 886 682 L 907 682 L 903 681 L 906 680 L 907 678 L 885 677 L 885 673 Z" fill="#ffffff" fill-rule="evenodd" />
<path d="M 803 662 L 804 665 L 803 668 L 807 671 L 807 662 Z" fill="#ffffff" fill-rule="evenodd" />
<path d="M 1084 661 L 1084 670 L 1090 677 L 1100 682 L 1116 686 L 1132 685 L 1130 684 L 1134 684 L 1137 682 L 1114 681 L 1103 678 L 1093 673 L 1089 669 L 1088 664 L 1089 661 L 1095 655 L 1098 655 L 1089 654 Z" fill="#ffffff" fill-rule="evenodd" />
<path d="M 1031 651 L 1030 656 L 1031 677 L 1012 678 L 1018 678 L 1021 680 L 1028 681 L 1012 682 L 1030 683 L 1030 686 L 1031 683 L 1033 686 L 1032 684 L 1034 682 L 1041 682 L 1039 680 L 1038 682 L 1034 681 L 1037 680 L 1030 676 L 1030 665 L 1033 663 L 1034 660 L 1034 655 Z" fill="#ffffff" fill-rule="evenodd" />
<path d="M 1097 650 L 1099 650 L 1101 652 L 1102 651 L 1104 652 L 1106 653 L 1104 652 L 1102 651 L 1101 652 L 1099 650 Z" fill="#ffffff" fill-rule="evenodd" />
<path d="M 1001 642 L 1001 677 L 1005 677 L 1007 652 L 1002 654 Z" fill="#ffffff" fill-rule="evenodd" />
<path d="M 728 641 L 727 674 L 728 676 L 736 683 L 741 684 L 750 683 L 752 679 L 750 677 L 747 680 L 739 679 L 733 674 L 731 670 L 731 644 L 729 643 L 730 641 L 728 643 Z" fill="#ffffff" fill-rule="evenodd" />
<path d="M 605 640 L 606 642 L 606 643 L 607 645 L 606 643 L 606 642 Z" fill="#ffffff" fill-rule="evenodd" />
<path d="M 673 636 L 670 644 L 663 652 L 662 655 L 658 658 L 657 660 L 660 660 L 657 662 L 661 660 L 659 659 L 664 658 L 671 651 L 675 645 L 675 639 Z" fill="#ffffff" fill-rule="evenodd" />
<path d="M 966 631 L 965 637 L 962 644 L 962 672 L 964 676 L 969 678 L 970 676 L 966 669 L 967 657 L 966 653 L 967 641 L 966 640 Z" fill="#ffffff" fill-rule="evenodd" />
<path d="M 873 633 L 900 633 L 898 632 L 899 629 L 882 629 L 882 631 Z" fill="#ffffff" fill-rule="evenodd" />
<path d="M 1157 620 L 1150 623 L 1158 625 L 1159 627 L 1160 626 L 1168 633 L 1173 645 L 1173 654 L 1171 661 L 1168 666 L 1161 673 L 1153 677 L 1151 681 L 1149 681 L 1151 681 L 1151 683 L 1161 679 L 1172 669 L 1175 664 L 1178 652 L 1177 641 L 1174 634 L 1166 625 Z" fill="#ffffff" fill-rule="evenodd" />
<path d="M 626 625 L 626 630 L 627 628 L 628 630 L 633 628 L 634 626 L 638 625 L 641 628 L 641 626 L 646 627 L 647 625 L 650 628 L 656 628 L 654 620 L 651 616 L 645 613 L 638 613 L 633 615 L 629 619 L 630 620 L 627 622 L 628 624 Z" fill="#ffffff" fill-rule="evenodd" />
<path d="M 1268 616 L 1263 613 L 1260 614 L 1257 613 L 1259 612 L 1252 613 L 1246 617 L 1242 625 L 1181 626 L 1183 626 L 1183 628 L 1181 628 L 1185 629 L 1186 627 L 1189 629 L 1207 629 L 1209 630 L 1208 680 L 1203 688 L 1193 689 L 1188 695 L 1189 696 L 1187 700 L 1189 706 L 1193 710 L 1203 711 L 1204 709 L 1205 710 L 1210 705 L 1211 702 L 1211 697 L 1207 690 L 1210 687 L 1213 680 L 1212 631 L 1214 629 L 1244 630 L 1243 632 L 1245 633 L 1245 636 L 1248 639 L 1254 642 L 1260 642 L 1265 640 L 1270 635 L 1272 630 L 1272 623 Z M 1192 697 L 1196 693 L 1200 692 L 1206 697 L 1206 702 L 1210 702 L 1209 706 L 1198 707 L 1192 702 Z M 1254 617 L 1260 617 L 1267 623 L 1267 631 L 1261 639 L 1251 635 L 1247 630 L 1248 622 Z" fill="#ffffff" fill-rule="evenodd" />
<path d="M 1085 614 L 1086 612 L 1087 615 L 1086 617 L 1088 621 L 1096 630 L 1101 633 L 1103 632 L 1108 636 L 1110 635 L 1111 637 L 1123 641 L 1127 641 L 1137 645 L 1141 644 L 1146 650 L 1146 654 L 1143 656 L 1148 654 L 1149 656 L 1150 649 L 1147 644 L 1145 644 L 1144 642 L 1140 640 L 1137 641 L 1136 639 L 1122 636 L 1116 633 L 1114 634 L 1112 632 L 1108 632 L 1094 621 L 1088 610 Z" fill="#ffffff" fill-rule="evenodd" />
<path d="M 800 610 L 798 616 L 795 620 L 793 620 L 794 622 L 792 623 L 792 626 L 794 623 L 800 621 L 802 613 L 800 612 Z" fill="#ffffff" fill-rule="evenodd" />
<path d="M 945 607 L 946 609 L 960 609 L 960 606 Z" fill="#ffffff" fill-rule="evenodd" />
<path d="M 931 606 L 931 609 L 940 608 L 939 606 Z" fill="#ffffff" fill-rule="evenodd" />
<path d="M 889 592 L 877 619 L 879 623 L 877 624 L 877 626 L 879 628 L 881 623 L 879 619 L 884 616 L 889 602 L 891 600 L 904 631 L 905 629 L 908 630 L 895 597 L 893 596 L 893 592 Z" fill="#ffffff" fill-rule="evenodd" />
<path d="M 799 591 L 797 594 L 800 598 L 802 599 L 803 597 L 804 599 L 802 594 Z" fill="#ffffff" fill-rule="evenodd" />
<path d="M 1114 596 L 1112 601 L 1112 605 L 1116 612 L 1124 616 L 1139 620 L 1147 620 L 1147 622 L 1149 620 L 1150 621 L 1152 620 L 1150 621 L 1148 617 L 1142 617 L 1141 615 L 1125 611 L 1121 609 L 1116 604 L 1118 599 L 1125 595 L 1123 594 L 1126 592 L 1138 592 L 1143 594 L 1146 591 L 1144 592 L 1140 591 L 1142 590 L 1140 590 L 1139 593 L 1138 590 L 1137 592 L 1135 591 L 1135 594 L 1129 593 L 1131 592 L 1128 591 L 1126 592 L 1124 590 L 1123 592 L 1121 593 L 1121 591 Z" fill="#ffffff" fill-rule="evenodd" />
<path d="M 634 590 L 621 595 L 611 604 L 604 617 L 603 634 L 604 638 L 609 641 L 610 643 L 609 645 L 612 647 L 611 648 L 612 650 L 610 650 L 612 650 L 614 654 L 622 661 L 637 666 L 650 665 L 653 664 L 653 661 L 655 661 L 652 662 L 648 660 L 636 661 L 629 659 L 622 655 L 614 646 L 611 646 L 609 642 L 610 639 L 608 638 L 609 635 L 607 635 L 607 622 L 611 613 L 618 604 L 624 599 L 630 596 L 639 594 L 644 595 L 652 594 L 654 595 L 654 597 L 660 599 L 670 610 L 672 616 L 675 617 L 673 619 L 674 619 L 675 628 L 679 628 L 675 627 L 679 624 L 678 617 L 672 605 L 663 596 L 655 592 L 652 593 L 648 592 L 648 590 Z" fill="#ffffff" fill-rule="evenodd" />
<path d="M 755 586 L 756 628 L 783 628 L 790 625 L 787 623 L 760 622 L 758 609 L 761 591 L 787 591 L 783 590 L 787 588 L 785 586 Z" fill="#ffffff" fill-rule="evenodd" />
<path d="M 687 584 L 685 584 L 685 586 Z" fill="#ffffff" fill-rule="evenodd" />
<path d="M 940 583 L 940 604 L 942 606 L 943 603 L 944 605 L 944 586 L 943 589 L 940 586 Z" fill="#ffffff" fill-rule="evenodd" />
<path d="M 960 634 L 944 633 L 944 626 L 944 632 L 942 634 L 941 632 L 938 633 L 916 583 L 914 586 L 911 584 L 916 592 L 916 596 L 929 625 L 931 625 L 935 632 L 932 632 L 931 630 L 934 636 L 935 634 L 938 637 L 939 641 L 936 640 L 940 650 L 946 659 L 946 662 L 949 663 L 948 666 L 947 664 L 949 668 L 948 674 L 945 677 L 939 679 L 930 677 L 925 672 L 920 661 L 917 659 L 919 658 L 917 653 L 866 651 L 855 673 L 849 679 L 839 680 L 839 678 L 837 679 L 836 677 L 835 682 L 850 683 L 854 681 L 859 676 L 867 658 L 869 656 L 878 655 L 915 656 L 919 661 L 917 662 L 920 664 L 919 667 L 922 671 L 921 674 L 920 672 L 923 678 L 929 682 L 931 681 L 932 683 L 943 683 L 944 681 L 946 682 L 952 677 L 954 668 L 940 640 L 942 638 L 961 638 L 958 635 Z M 940 634 L 942 637 L 939 637 Z M 928 623 L 929 621 L 931 623 Z" fill="#ffffff" fill-rule="evenodd" />
<path d="M 870 582 L 867 582 L 864 591 L 857 603 L 848 625 L 838 645 L 839 646 L 836 649 L 828 667 L 829 664 L 832 664 L 832 667 L 832 664 L 834 665 L 836 662 L 840 651 L 839 648 L 842 648 L 846 638 L 848 636 L 853 623 L 860 610 L 861 605 L 864 601 L 870 587 L 868 586 L 871 585 L 869 584 Z" fill="#ffffff" fill-rule="evenodd" />
<path d="M 1008 581 L 1005 581 L 1004 585 L 1005 586 L 1002 588 L 1001 586 L 1001 605 L 1005 605 L 1006 581 Z" fill="#ffffff" fill-rule="evenodd" />
<path d="M 945 579 L 957 579 L 958 577 L 948 577 L 947 579 Z" fill="#ffffff" fill-rule="evenodd" />
<path d="M 926 579 L 931 578 L 928 577 Z" fill="#ffffff" fill-rule="evenodd" />
<path d="M 877 567 L 873 570 L 870 576 L 872 583 L 875 576 L 881 569 Z" fill="#ffffff" fill-rule="evenodd" />
<path d="M 658 569 L 659 571 L 661 570 L 661 572 L 666 573 L 676 579 L 678 578 L 680 580 L 684 579 L 678 574 L 666 568 L 665 570 L 661 568 L 663 567 L 661 567 L 659 571 Z" fill="#ffffff" fill-rule="evenodd" />
<path d="M 1086 594 L 1088 596 L 1090 593 L 1091 595 L 1096 586 L 1105 578 L 1113 574 L 1125 571 L 1149 572 L 1158 575 L 1170 583 L 1168 591 L 1162 597 L 1152 595 L 1151 593 L 1148 595 L 1148 597 L 1156 601 L 1165 600 L 1173 590 L 1172 588 L 1174 587 L 1174 584 L 1172 579 L 1162 571 L 1149 567 L 1143 568 L 1142 566 L 1125 566 L 1110 570 L 1099 576 L 1091 584 Z" fill="#ffffff" fill-rule="evenodd" />
<path d="M 1068 566 L 1066 566 L 1065 570 L 1067 570 L 1069 574 L 1068 671 L 1066 675 L 1059 680 L 1050 677 L 1045 672 L 1044 633 L 990 634 L 990 671 L 984 678 L 973 683 L 984 683 L 988 681 L 993 669 L 995 669 L 996 638 L 1003 638 L 1004 636 L 1008 637 L 1005 638 L 1040 639 L 1040 671 L 1042 677 L 1048 682 L 1063 683 L 1072 675 L 1073 575 L 1072 571 Z M 1071 651 L 1073 654 L 1073 658 L 1069 667 L 1069 651 L 1070 652 Z M 1041 646 L 1044 654 L 1041 663 Z M 1071 637 L 1072 642 L 1069 648 L 1068 639 L 1070 639 Z M 1069 583 L 1070 587 L 1069 589 Z" fill="#ffffff" fill-rule="evenodd" />
<path d="M 962 573 L 962 594 L 963 590 L 966 593 L 964 601 L 963 599 L 962 602 L 964 604 L 964 607 L 962 610 L 962 627 L 964 623 L 966 625 L 966 628 L 966 577 L 968 572 L 974 567 L 983 566 L 984 568 L 986 568 L 990 574 L 990 613 L 992 614 L 1033 614 L 1035 612 L 1037 614 L 1044 614 L 1045 612 L 1044 578 L 1045 573 L 1051 568 L 1050 566 L 1048 566 L 1048 564 L 1042 569 L 1040 573 L 1040 576 L 1043 579 L 1041 580 L 1042 581 L 1040 583 L 1039 609 L 1034 612 L 1033 609 L 1032 611 L 995 608 L 995 598 L 991 595 L 990 592 L 991 581 L 994 578 L 995 573 L 989 565 L 985 565 L 984 563 L 973 563 L 973 565 L 971 564 L 967 566 Z" fill="#ffffff" fill-rule="evenodd" />
<path d="M 681 628 L 728 630 L 729 634 L 731 630 L 730 583 L 733 572 L 740 567 L 787 567 L 804 570 L 812 574 L 825 586 L 829 595 L 829 612 L 824 626 L 810 641 L 799 644 L 798 646 L 794 645 L 792 648 L 755 647 L 755 670 L 759 660 L 760 664 L 761 651 L 789 651 L 775 650 L 772 647 L 782 647 L 780 648 L 783 646 L 794 647 L 796 649 L 794 650 L 816 642 L 826 632 L 831 623 L 834 606 L 833 595 L 826 580 L 818 572 L 809 567 L 792 563 L 738 563 L 733 565 L 727 573 L 728 608 L 726 625 L 687 625 L 691 626 Z" fill="#ffffff" fill-rule="evenodd" />
<path d="M 863 581 L 856 580 L 860 579 L 859 577 L 854 576 L 854 570 L 852 568 L 853 567 L 851 562 L 850 577 L 836 578 L 837 580 Z" fill="#ffffff" fill-rule="evenodd" />
<path d="M 1005 552 L 1005 571 L 1002 574 L 1001 572 L 1001 575 L 1005 576 Z" fill="#ffffff" fill-rule="evenodd" />
<path d="M 1006 546 L 1014 547 L 1012 549 L 1016 550 L 1007 551 L 1023 551 L 1021 550 L 1024 548 L 1024 546 L 1042 547 L 1036 549 L 1037 551 L 1047 551 L 1044 550 L 1047 549 L 1042 547 L 1049 546 Z M 1015 549 L 1015 546 L 1019 547 Z" fill="#ffffff" fill-rule="evenodd" />
<path d="M 829 549 L 831 549 L 831 551 L 833 552 L 839 550 L 849 551 L 853 549 L 857 551 L 878 551 L 882 549 L 885 551 L 911 552 L 911 567 L 908 569 L 906 566 L 900 563 L 887 562 L 890 563 L 888 564 L 893 566 L 887 567 L 901 568 L 906 574 L 910 575 L 912 570 L 914 572 L 913 570 L 915 567 L 916 551 L 938 549 L 940 551 L 940 576 L 939 550 L 942 548 L 942 546 L 987 547 L 983 549 L 985 550 L 987 549 L 993 551 L 994 549 L 998 549 L 997 547 L 1004 546 L 834 546 Z" fill="#ffffff" fill-rule="evenodd" />
<path d="M 663 546 L 665 549 L 669 548 L 669 550 L 672 549 L 675 552 L 679 551 L 683 553 L 683 556 L 685 554 L 686 558 L 690 557 L 690 559 L 693 561 L 693 563 L 701 570 L 703 568 L 703 566 L 695 558 L 683 550 L 686 552 L 680 552 L 681 549 L 676 547 L 670 547 L 670 545 L 667 547 L 666 544 Z" fill="#ffffff" fill-rule="evenodd" />
<path d="M 1205 537 L 1197 537 L 1191 542 L 1190 552 L 1192 555 L 1183 563 L 1182 565 L 1183 568 L 1185 568 L 1196 558 L 1198 558 L 1199 560 L 1206 559 L 1207 557 L 1209 557 L 1212 552 L 1213 547 L 1211 542 Z M 1206 540 L 1208 544 L 1208 551 L 1203 555 L 1198 555 L 1194 551 L 1194 546 L 1198 542 Z" fill="#ffffff" fill-rule="evenodd" />
<path d="M 659 521 L 660 524 L 669 525 L 679 529 L 681 528 L 682 530 L 686 530 L 688 533 L 709 546 L 709 548 L 715 554 L 718 551 L 707 539 L 694 530 L 675 522 L 667 520 Z" fill="#ffffff" fill-rule="evenodd" />
<path d="M 725 509 L 723 514 L 725 517 L 728 517 L 730 515 L 730 511 L 728 509 Z" fill="#ffffff" fill-rule="evenodd" />
<path d="M 762 500 L 754 501 L 752 504 L 751 503 L 749 505 L 751 505 L 750 510 L 748 510 L 747 517 L 746 511 L 747 519 L 752 525 L 754 524 L 755 526 L 759 525 L 759 522 L 758 525 L 756 522 L 757 520 L 756 518 L 765 516 L 767 517 L 765 518 L 768 518 L 769 522 L 770 516 L 772 516 L 772 510 L 770 506 Z" fill="#ffffff" fill-rule="evenodd" />
<path d="M 1271 511 L 1266 502 L 1260 499 L 1253 499 L 1246 503 L 1242 511 L 1176 512 L 1167 517 L 1126 551 L 1085 550 L 1100 551 L 1097 553 L 1091 553 L 1096 554 L 1081 555 L 1078 558 L 1077 556 L 1076 563 L 1077 565 L 1080 564 L 1081 555 L 1123 555 L 1130 553 L 1151 537 L 1161 527 L 1162 528 L 1164 526 L 1163 525 L 1166 525 L 1178 515 L 1241 516 L 1247 525 L 1251 527 L 1253 526 L 1254 528 L 1258 528 L 1256 527 L 1260 525 L 1259 523 L 1253 523 L 1248 519 L 1247 509 L 1252 504 L 1260 504 L 1266 510 L 1266 517 L 1262 521 L 1266 524 L 1264 525 L 1269 521 Z" fill="#ffffff" fill-rule="evenodd" />
<path d="M 1106 495 L 1103 497 L 1102 501 L 1105 505 L 1109 506 L 1112 504 L 1113 498 L 1110 495 Z" fill="#ffffff" fill-rule="evenodd" />
<path d="M 1136 489 L 1135 494 L 1137 496 L 1141 496 L 1143 494 L 1142 490 L 1140 488 L 1138 490 Z" fill="#ffffff" fill-rule="evenodd" />
<path d="M 882 482 L 880 484 L 880 492 L 881 498 L 883 499 L 882 505 L 882 501 L 884 497 L 884 515 L 882 507 L 882 509 L 880 511 L 880 514 L 881 512 L 882 516 L 885 515 L 906 516 L 885 515 L 885 484 L 884 482 Z" fill="#ffffff" fill-rule="evenodd" />
<path d="M 803 529 L 803 556 L 807 557 L 807 532 L 817 521 L 1065 521 L 1077 530 L 1076 549 L 1079 546 L 1080 529 L 1069 517 L 1036 517 L 1033 482 L 1030 483 L 1029 518 L 1005 515 L 1005 484 L 1002 482 L 999 516 L 975 515 L 975 511 L 974 514 L 972 512 L 971 493 L 974 488 L 975 499 L 975 485 L 972 482 L 969 518 L 945 515 L 943 482 L 941 486 L 940 484 L 939 516 L 915 515 L 912 482 L 909 518 L 905 519 L 914 520 L 855 515 L 852 482 L 851 515 L 844 519 L 859 520 L 822 520 L 839 518 L 820 516 L 824 517 L 812 518 Z M 857 519 L 857 516 L 864 517 Z" fill="#ffffff" fill-rule="evenodd" />
</svg>