<?xml version="1.0" encoding="UTF-8"?>
<svg xmlns="http://www.w3.org/2000/svg" width="844" height="581" viewBox="20 0 844 581">
<path d="M 311 375 L 309 373 L 304 373 L 300 375 L 277 393 L 275 397 L 276 401 L 278 403 L 286 402 L 311 380 Z" fill="rgb(80,197,77)" fill-opacity="0.01569" fill-rule="evenodd"/>
<path d="M 393 214 L 376 253 L 377 258 L 381 259 L 415 259 L 420 257 L 420 254 L 405 219 L 396 213 Z M 400 239 L 405 248 L 404 251 L 395 250 Z" fill="rgb(80,197,77)" fill-opacity="0.01569" fill-rule="evenodd"/>
<path d="M 223 133 L 224 137 L 227 140 L 259 157 L 263 157 L 265 155 L 267 155 L 285 165 L 293 165 L 298 162 L 301 157 L 301 150 L 299 146 L 285 134 L 265 121 L 257 121 L 253 123 L 248 130 L 247 134 L 248 138 L 245 139 L 230 130 L 226 130 Z" fill="rgb(80,197,77)" fill-opacity="0.01569" fill-rule="evenodd"/>
<path d="M 101 248 L 109 275 L 137 291 L 200 284 L 228 260 L 226 289 L 158 310 L 203 309 L 131 350 L 134 372 L 234 338 L 253 317 L 196 343 L 184 334 L 280 302 L 292 276 L 342 263 L 333 285 L 306 286 L 303 319 L 219 367 L 215 384 L 261 372 L 289 335 L 305 336 L 312 366 L 354 370 L 357 404 L 375 369 L 386 404 L 401 369 L 415 370 L 418 404 L 427 369 L 445 370 L 447 404 L 453 369 L 472 370 L 479 404 L 483 369 L 498 370 L 508 404 L 513 369 L 540 404 L 544 369 L 582 365 L 618 401 L 635 381 L 657 391 L 588 355 L 596 334 L 624 335 L 684 372 L 772 386 L 784 372 L 773 356 L 727 342 L 671 352 L 575 306 L 658 309 L 666 325 L 717 335 L 725 266 L 776 265 L 783 242 L 676 248 L 628 229 L 676 223 L 680 195 L 776 148 L 785 129 L 770 118 L 688 132 L 623 172 L 589 171 L 589 147 L 653 111 L 620 129 L 615 115 L 585 143 L 543 136 L 539 102 L 523 137 L 512 136 L 510 102 L 497 137 L 482 136 L 480 102 L 471 137 L 452 136 L 449 102 L 444 137 L 426 136 L 417 102 L 415 134 L 400 136 L 386 102 L 375 137 L 358 102 L 353 137 L 320 137 L 305 152 L 305 178 L 337 201 L 253 184 L 161 140 L 237 185 L 158 166 L 227 201 L 226 211 L 158 190 L 225 216 L 226 247 L 197 220 L 134 212 Z M 564 336 L 563 342 L 556 348 L 340 348 L 336 346 L 332 341 L 335 337 L 338 338 L 555 338 L 560 336 L 562 333 Z M 557 310 L 564 311 L 562 313 Z M 513 308 L 524 309 L 523 321 L 512 320 Z M 400 308 L 415 309 L 414 321 L 399 320 Z M 374 308 L 384 309 L 383 321 L 373 320 Z M 498 306 L 497 321 L 481 320 L 480 310 L 488 309 L 494 306 Z M 426 307 L 429 304 L 435 308 L 445 310 L 444 321 L 425 320 Z M 365 305 L 356 311 L 354 308 L 361 305 Z M 332 310 L 334 304 L 339 308 Z M 230 301 L 229 304 L 212 307 L 207 309 L 202 308 L 209 306 L 228 296 Z M 598 286 L 600 284 L 618 288 L 632 289 L 638 291 L 627 297 L 618 299 L 607 299 L 604 298 L 598 293 Z M 400 282 L 415 284 L 414 288 L 415 294 L 413 296 L 399 295 Z M 385 283 L 383 296 L 377 297 L 376 295 L 379 291 L 382 283 Z M 514 277 L 524 278 L 523 296 L 514 296 L 512 294 L 512 279 Z M 165 267 L 168 270 L 164 269 Z M 513 263 L 524 266 L 523 269 L 512 268 Z M 451 263 L 461 263 L 463 264 L 465 294 L 468 301 L 472 305 L 471 321 L 452 320 L 453 306 L 459 301 L 461 291 L 459 284 L 450 266 Z M 583 256 L 590 260 L 618 268 L 624 273 L 624 275 L 621 278 L 617 278 L 613 275 L 607 273 L 590 272 L 582 270 Z M 326 250 L 316 261 L 304 267 L 274 269 L 266 268 L 267 253 L 310 254 L 319 252 L 325 248 Z M 603 244 L 606 243 L 616 245 L 632 250 L 639 254 L 645 260 L 643 262 L 622 256 L 611 251 Z M 454 237 L 464 238 L 463 256 L 452 255 L 452 239 Z M 439 237 L 443 237 L 445 239 L 444 251 L 438 239 Z M 165 236 L 167 234 L 169 237 Z M 299 221 L 302 224 L 303 227 L 303 234 L 301 238 L 294 244 L 291 243 L 292 221 Z M 514 212 L 524 213 L 523 231 L 511 229 L 512 214 Z M 428 212 L 445 213 L 444 228 L 433 228 L 427 215 Z M 463 211 L 465 219 L 465 223 L 463 228 L 452 227 L 453 212 Z M 346 209 L 351 209 L 354 212 L 353 220 L 349 212 Z M 600 219 L 603 212 L 611 204 L 628 205 L 639 210 L 637 212 L 632 212 Z M 476 201 L 484 201 L 488 204 L 490 208 L 489 239 L 490 241 L 541 241 L 551 238 L 553 236 L 554 203 L 557 207 L 557 290 L 554 294 L 553 257 L 551 256 L 492 256 L 490 257 L 490 287 L 489 290 L 483 296 L 477 296 L 474 294 L 473 292 L 473 204 Z M 267 205 L 270 202 L 273 201 L 317 201 L 320 202 L 326 208 L 330 216 L 332 226 L 331 231 L 327 223 L 318 216 L 291 208 L 267 207 Z M 397 201 L 407 200 L 413 203 L 428 238 L 438 258 L 441 267 L 453 292 L 450 295 L 441 296 L 435 292 L 426 272 L 379 272 L 370 274 L 367 277 L 360 294 L 356 295 L 354 293 L 353 289 L 376 241 L 388 213 L 392 206 Z M 514 186 L 524 187 L 523 199 L 512 198 L 512 188 Z M 452 198 L 453 186 L 472 187 L 472 189 L 468 193 L 465 201 Z M 426 186 L 445 187 L 444 199 L 425 198 Z M 413 186 L 413 190 L 411 188 Z M 381 188 L 374 197 L 374 186 Z M 564 180 L 564 182 L 562 184 L 559 185 L 556 184 Z M 333 168 L 333 166 L 339 161 L 556 161 L 561 164 L 563 167 L 562 171 L 558 168 Z M 707 159 L 682 168 L 667 175 L 663 180 L 662 183 L 663 186 L 661 190 L 654 188 L 627 189 L 611 194 L 582 207 L 582 199 L 580 193 L 584 190 L 607 190 L 611 189 L 638 177 L 665 156 Z" fill="rgb(80,197,77)" fill-opacity="0.01569" fill-rule="evenodd"/>
<path d="M 774 108 L 774 110 L 780 110 L 786 108 L 788 110 L 788 112 L 786 114 L 789 114 L 789 116 L 796 113 L 792 113 L 795 111 L 790 111 L 787 109 L 787 106 L 791 102 L 789 101 L 781 103 Z" fill="rgb(80,197,77)" fill-opacity="0.01569" fill-rule="evenodd"/>
<path d="M 665 41 L 658 48 L 660 47 L 664 43 Z" fill="rgb(80,197,77)" fill-opacity="0.01569" fill-rule="evenodd"/>
<path d="M 225 39 L 227 41 L 227 42 L 230 45 L 231 45 L 234 48 L 228 41 L 227 41 Z" fill="rgb(80,197,77)" fill-opacity="0.01569" fill-rule="evenodd"/>
<path d="M 698 37 L 692 36 L 685 41 L 681 39 L 685 34 L 675 41 L 668 42 L 663 48 L 665 49 L 665 53 L 662 57 L 665 59 L 663 63 L 668 62 L 668 64 L 674 60 L 677 61 L 674 64 L 673 67 L 676 69 L 679 67 L 680 69 L 699 53 L 695 53 L 698 44 L 695 46 L 694 44 Z" fill="rgb(80,197,77)" fill-opacity="0.01569" fill-rule="evenodd"/>
<path d="M 227 31 L 230 37 L 234 41 L 241 44 L 243 43 L 247 44 L 256 53 L 267 59 L 273 64 L 282 68 L 283 65 L 284 66 L 289 66 L 292 64 L 291 57 L 289 53 L 277 38 L 271 35 L 270 40 L 266 42 L 257 41 L 256 45 L 254 43 L 251 43 L 240 33 Z" fill="rgb(80,197,77)" fill-opacity="0.01569" fill-rule="evenodd"/>
<path d="M 319 24 L 320 27 L 318 31 L 323 40 L 326 42 L 329 41 L 330 39 L 333 39 L 336 42 L 337 32 L 340 36 L 350 38 L 351 33 L 353 34 L 350 27 L 342 21 L 339 21 L 336 23 L 334 30 L 326 21 L 324 22 L 322 26 Z" fill="rgb(80,197,77)" fill-opacity="0.01569" fill-rule="evenodd"/>
<path d="M 468 12 L 462 17 L 459 22 L 459 28 L 461 29 L 462 33 L 464 33 L 468 37 L 472 38 L 475 32 L 478 31 L 479 20 L 476 19 L 474 14 Z" fill="rgb(80,197,77)" fill-opacity="0.01569" fill-rule="evenodd"/>
<path d="M 310 376 L 308 374 L 301 375 L 279 392 L 277 395 L 277 399 L 280 402 L 285 402 L 310 380 Z" fill="rgb(80,197,77)" fill-opacity="0.03137" fill-rule="evenodd"/>
<path d="M 395 214 L 391 220 L 376 256 L 378 258 L 387 259 L 409 259 L 419 257 L 419 252 L 415 245 L 406 221 L 399 215 Z M 400 238 L 402 240 L 406 250 L 394 250 Z" fill="rgb(80,197,77)" fill-opacity="0.03137" fill-rule="evenodd"/>
<path d="M 160 192 L 164 196 L 175 200 L 187 209 L 218 215 L 226 215 L 224 210 L 216 204 L 208 200 L 168 190 L 161 190 Z" fill="rgb(80,197,77)" fill-opacity="0.03137" fill-rule="evenodd"/>
<path d="M 226 133 L 225 136 L 226 138 L 231 142 L 256 155 L 261 156 L 263 154 L 266 154 L 284 164 L 294 163 L 300 155 L 300 150 L 298 146 L 291 139 L 268 123 L 261 122 L 256 124 L 251 129 L 247 141 L 232 132 Z" fill="rgb(80,197,77)" fill-opacity="0.03137" fill-rule="evenodd"/>
<path d="M 620 119 L 617 117 L 613 117 L 589 138 L 588 143 L 591 146 L 595 146 L 620 126 L 621 124 Z" fill="rgb(80,197,77)" fill-opacity="0.03137" fill-rule="evenodd"/>
<path d="M 651 113 L 648 110 L 640 114 L 623 127 L 617 133 L 617 136 L 619 138 L 621 138 L 646 121 L 651 116 Z" fill="rgb(80,197,77)" fill-opacity="0.03137" fill-rule="evenodd"/>
<path d="M 105 245 L 113 276 L 143 291 L 195 285 L 219 255 L 230 258 L 227 291 L 160 311 L 229 293 L 231 304 L 133 350 L 137 371 L 231 339 L 252 318 L 194 345 L 179 335 L 281 301 L 291 276 L 344 260 L 332 289 L 306 288 L 305 319 L 218 369 L 226 389 L 262 371 L 290 334 L 306 335 L 313 365 L 353 368 L 357 403 L 375 368 L 385 369 L 386 402 L 400 368 L 415 369 L 416 402 L 427 368 L 445 369 L 448 403 L 453 368 L 472 369 L 478 403 L 482 368 L 499 370 L 507 402 L 513 368 L 541 402 L 543 368 L 585 361 L 614 399 L 633 379 L 656 388 L 627 366 L 586 362 L 589 334 L 624 334 L 691 373 L 769 385 L 780 372 L 775 358 L 729 343 L 669 352 L 574 305 L 661 307 L 666 324 L 715 334 L 722 266 L 773 265 L 780 243 L 673 248 L 625 229 L 674 223 L 678 195 L 779 143 L 770 121 L 684 134 L 622 173 L 589 173 L 581 142 L 542 138 L 540 104 L 513 139 L 510 104 L 497 139 L 481 137 L 479 104 L 471 139 L 452 138 L 449 104 L 444 139 L 425 137 L 419 104 L 413 139 L 399 137 L 390 105 L 375 139 L 358 104 L 353 139 L 320 139 L 306 154 L 306 178 L 339 203 L 253 185 L 163 142 L 240 186 L 161 167 L 229 201 L 228 247 L 198 221 L 146 212 L 119 221 Z M 565 310 L 565 340 L 563 344 L 556 349 L 340 349 L 337 348 L 331 341 L 332 333 L 337 337 L 556 337 L 561 332 L 560 312 L 552 308 L 555 307 Z M 513 307 L 523 307 L 525 309 L 524 322 L 513 322 L 511 320 L 511 309 Z M 398 309 L 400 307 L 415 308 L 414 322 L 400 322 L 398 320 Z M 374 307 L 383 307 L 385 309 L 385 320 L 383 322 L 372 321 L 372 309 Z M 499 307 L 498 322 L 481 321 L 481 312 L 479 309 L 490 308 L 496 304 Z M 427 305 L 430 304 L 436 308 L 441 309 L 444 308 L 444 322 L 425 321 L 425 308 Z M 367 304 L 364 307 L 356 311 L 354 318 L 354 308 L 363 304 Z M 331 311 L 333 302 L 340 308 L 337 310 Z M 680 299 L 678 303 L 674 305 L 669 304 L 678 297 Z M 596 287 L 597 285 L 603 284 L 620 288 L 641 290 L 630 297 L 621 299 L 605 299 L 601 297 L 596 292 Z M 398 283 L 400 281 L 417 282 L 415 284 L 414 296 L 400 296 L 398 294 Z M 386 282 L 384 296 L 374 297 L 377 293 L 381 283 L 383 281 Z M 513 277 L 525 278 L 524 296 L 511 295 L 511 279 Z M 161 268 L 164 266 L 170 266 L 172 268 L 169 272 L 166 273 Z M 510 264 L 526 264 L 524 270 L 513 270 L 511 268 Z M 449 264 L 465 264 L 465 292 L 468 300 L 473 307 L 471 322 L 452 321 L 451 308 L 457 303 L 460 298 L 460 288 Z M 582 255 L 584 255 L 595 261 L 620 268 L 625 272 L 625 276 L 621 279 L 617 279 L 609 274 L 581 271 Z M 600 242 L 605 241 L 608 243 L 632 249 L 641 254 L 647 260 L 646 263 L 617 255 L 606 249 Z M 453 237 L 465 238 L 464 257 L 454 257 L 452 256 L 451 239 Z M 437 238 L 445 238 L 444 251 Z M 355 231 L 358 232 L 358 235 L 355 240 Z M 162 236 L 165 232 L 170 232 L 173 236 L 171 238 L 166 238 Z M 300 221 L 304 226 L 304 235 L 298 243 L 294 245 L 289 244 L 290 221 Z M 512 212 L 525 213 L 525 230 L 523 232 L 510 230 Z M 427 211 L 445 213 L 444 229 L 435 231 L 433 229 L 427 216 Z M 464 207 L 464 228 L 452 227 L 453 212 L 461 212 Z M 345 208 L 348 207 L 355 212 L 354 223 L 352 221 L 349 213 Z M 598 221 L 601 213 L 605 208 L 613 203 L 621 203 L 632 205 L 640 208 L 643 211 L 629 213 Z M 475 201 L 484 200 L 490 206 L 491 241 L 539 241 L 550 238 L 552 236 L 554 201 L 558 206 L 558 291 L 556 294 L 552 294 L 551 257 L 548 256 L 494 256 L 490 258 L 490 289 L 489 292 L 484 296 L 476 296 L 473 293 L 473 203 Z M 269 201 L 272 200 L 313 200 L 321 202 L 326 207 L 332 220 L 333 232 L 330 245 L 321 258 L 316 262 L 302 268 L 278 269 L 264 268 L 265 253 L 287 254 L 313 253 L 321 250 L 327 244 L 329 239 L 328 226 L 321 218 L 293 209 L 267 209 L 265 207 L 265 205 Z M 397 200 L 402 199 L 410 200 L 414 204 L 442 269 L 453 291 L 453 293 L 449 296 L 439 296 L 434 291 L 426 273 L 381 272 L 372 274 L 368 277 L 360 295 L 357 296 L 353 293 L 352 289 L 366 261 L 383 222 L 391 206 Z M 541 193 L 543 191 L 546 192 Z M 354 189 L 352 197 L 352 193 Z M 512 186 L 514 185 L 525 186 L 525 198 L 523 200 L 513 200 L 511 198 Z M 495 187 L 499 186 L 498 190 Z M 453 185 L 471 185 L 473 187 L 468 194 L 465 203 L 464 200 L 452 199 Z M 426 185 L 445 186 L 444 200 L 425 199 Z M 411 185 L 413 185 L 415 187 L 414 191 L 409 187 Z M 384 187 L 379 191 L 376 197 L 372 198 L 372 187 L 374 185 L 381 185 Z M 331 167 L 338 160 L 557 160 L 561 162 L 565 168 L 565 183 L 563 185 L 558 186 L 554 185 L 561 179 L 561 173 L 557 169 L 337 169 L 331 171 Z M 711 157 L 707 160 L 691 165 L 668 175 L 665 179 L 664 184 L 665 190 L 663 191 L 652 189 L 625 190 L 595 201 L 582 210 L 579 193 L 585 189 L 609 189 L 637 177 L 666 155 Z" fill="rgb(80,197,77)" fill-opacity="0.03137" fill-rule="evenodd"/>
<path d="M 309 377 L 305 374 L 300 376 L 279 393 L 278 396 L 280 400 L 282 401 L 287 400 L 308 382 Z" fill="rgb(80,197,77)" fill-opacity="0.04706" fill-rule="evenodd"/>
<path d="M 586 366 L 586 373 L 588 377 L 603 391 L 613 398 L 620 398 L 628 392 L 630 387 L 630 381 L 628 378 L 631 377 L 649 389 L 652 389 L 654 387 L 654 384 L 651 381 L 628 367 L 623 368 L 622 371 L 620 371 L 600 358 L 592 359 Z" fill="rgb(80,197,77)" fill-opacity="0.04706" fill-rule="evenodd"/>
<path d="M 251 319 L 245 319 L 219 327 L 206 339 L 194 346 L 189 345 L 189 340 L 187 338 L 181 336 L 139 348 L 133 353 L 133 357 L 135 358 L 140 357 L 142 359 L 137 362 L 135 366 L 140 370 L 146 370 L 218 345 L 239 333 L 251 321 Z" fill="rgb(80,197,77)" fill-opacity="0.04706" fill-rule="evenodd"/>
<path d="M 224 291 L 215 291 L 189 295 L 174 306 L 163 310 L 163 313 L 165 314 L 206 306 L 217 300 L 224 293 Z" fill="rgb(80,197,77)" fill-opacity="0.04706" fill-rule="evenodd"/>
<path d="M 395 215 L 393 217 L 377 256 L 379 258 L 417 258 L 419 257 L 418 251 L 406 222 L 398 215 Z M 400 237 L 406 248 L 405 251 L 403 252 L 396 252 L 394 249 Z" fill="rgb(80,197,77)" fill-opacity="0.04706" fill-rule="evenodd"/>
<path d="M 163 192 L 164 195 L 180 202 L 187 208 L 222 215 L 224 214 L 224 212 L 219 207 L 207 200 L 170 191 Z" fill="rgb(80,197,77)" fill-opacity="0.04706" fill-rule="evenodd"/>
<path d="M 227 137 L 231 141 L 258 155 L 260 155 L 262 153 L 265 153 L 283 163 L 290 163 L 294 161 L 297 158 L 299 152 L 297 145 L 293 141 L 268 124 L 261 124 L 257 126 L 252 132 L 250 142 L 248 142 L 232 133 L 230 133 Z" fill="rgb(80,197,77)" fill-opacity="0.04706" fill-rule="evenodd"/>
<path d="M 618 120 L 613 118 L 607 122 L 590 138 L 590 143 L 593 145 L 596 145 L 614 131 L 619 126 Z" fill="rgb(80,197,77)" fill-opacity="0.04706" fill-rule="evenodd"/>
<path d="M 649 114 L 647 112 L 644 112 L 621 129 L 618 134 L 619 136 L 622 137 L 645 121 L 649 117 Z" fill="rgb(80,197,77)" fill-opacity="0.04706" fill-rule="evenodd"/>
<path d="M 111 246 L 115 274 L 140 290 L 193 285 L 217 255 L 232 257 L 233 304 L 166 337 L 280 301 L 289 276 L 347 256 L 333 291 L 308 287 L 306 319 L 221 367 L 228 388 L 291 333 L 307 335 L 314 364 L 355 368 L 356 401 L 375 367 L 385 368 L 386 401 L 399 368 L 415 368 L 420 400 L 427 367 L 445 368 L 446 401 L 453 367 L 472 368 L 476 400 L 482 367 L 499 369 L 506 400 L 512 367 L 523 367 L 539 401 L 542 367 L 579 364 L 588 333 L 625 334 L 689 372 L 766 384 L 762 368 L 776 367 L 727 343 L 670 353 L 573 305 L 643 311 L 679 293 L 666 322 L 712 334 L 719 265 L 770 265 L 775 241 L 674 249 L 623 227 L 671 224 L 676 195 L 775 145 L 768 123 L 683 135 L 621 174 L 586 173 L 579 143 L 541 139 L 540 106 L 523 140 L 511 139 L 510 106 L 497 140 L 481 139 L 480 107 L 472 139 L 452 139 L 446 106 L 444 140 L 427 140 L 418 105 L 414 140 L 399 139 L 386 106 L 384 140 L 356 106 L 354 140 L 309 150 L 307 177 L 327 190 L 341 158 L 558 159 L 566 183 L 549 188 L 556 170 L 338 170 L 340 204 L 253 186 L 166 143 L 240 184 L 233 192 L 163 169 L 231 201 L 231 246 L 217 247 L 197 221 L 152 213 L 124 220 Z M 512 307 L 524 307 L 526 309 L 525 322 L 511 321 Z M 399 307 L 414 307 L 416 309 L 416 320 L 414 322 L 398 321 Z M 373 307 L 385 308 L 384 322 L 372 321 L 371 309 Z M 497 304 L 500 309 L 500 320 L 499 322 L 497 323 L 482 322 L 480 320 L 480 308 L 487 308 Z M 424 308 L 429 303 L 433 306 L 446 310 L 444 323 L 424 321 Z M 368 303 L 363 308 L 356 312 L 356 320 L 352 321 L 353 308 L 364 303 Z M 332 299 L 337 305 L 340 306 L 340 309 L 333 313 L 333 332 L 337 336 L 550 337 L 556 336 L 560 331 L 559 312 L 550 308 L 547 305 L 549 304 L 554 307 L 564 308 L 566 310 L 566 340 L 564 345 L 559 349 L 337 349 L 330 342 Z M 595 286 L 596 284 L 601 283 L 616 287 L 631 289 L 640 288 L 643 290 L 638 294 L 629 298 L 610 300 L 600 297 L 595 292 Z M 399 281 L 418 282 L 415 285 L 416 294 L 413 297 L 401 297 L 399 296 Z M 388 282 L 386 294 L 383 297 L 373 298 L 376 294 L 380 284 L 383 281 Z M 512 277 L 526 278 L 525 296 L 517 297 L 511 295 Z M 159 268 L 161 266 L 173 266 L 175 268 L 170 274 L 164 274 Z M 509 264 L 527 264 L 526 268 L 524 270 L 511 269 L 511 266 Z M 450 263 L 465 264 L 465 291 L 467 298 L 473 305 L 472 322 L 451 321 L 451 307 L 458 301 L 460 297 L 460 288 L 449 265 Z M 579 255 L 582 253 L 594 260 L 622 268 L 626 271 L 627 275 L 623 279 L 616 279 L 607 274 L 579 271 Z M 599 237 L 608 242 L 625 246 L 640 252 L 648 259 L 649 264 L 645 264 L 620 257 L 607 251 L 599 243 L 598 241 Z M 452 237 L 465 238 L 464 257 L 453 257 L 451 255 Z M 439 236 L 445 238 L 444 252 L 438 241 Z M 159 235 L 164 230 L 170 230 L 174 234 L 174 238 L 163 238 Z M 355 229 L 358 231 L 359 235 L 355 243 L 352 242 Z M 300 220 L 304 224 L 306 229 L 305 236 L 300 243 L 294 246 L 290 246 L 288 244 L 289 220 Z M 513 211 L 526 212 L 526 230 L 524 232 L 509 230 L 511 228 L 511 213 Z M 427 211 L 445 212 L 444 229 L 437 229 L 435 232 L 426 214 Z M 464 206 L 464 229 L 453 229 L 451 227 L 451 213 L 453 211 L 463 210 Z M 344 208 L 349 207 L 355 211 L 356 213 L 356 225 L 354 228 L 350 216 Z M 596 225 L 596 221 L 600 213 L 611 203 L 633 204 L 644 209 L 645 211 L 643 213 L 631 213 L 605 220 Z M 268 200 L 317 200 L 320 201 L 326 206 L 329 210 L 333 220 L 334 234 L 330 248 L 320 260 L 316 263 L 304 268 L 264 269 L 263 254 L 265 252 L 311 253 L 321 249 L 325 245 L 328 238 L 327 226 L 324 221 L 320 218 L 296 210 L 265 209 L 263 206 Z M 474 201 L 478 199 L 483 199 L 487 201 L 491 207 L 490 236 L 491 240 L 493 241 L 537 241 L 549 238 L 551 236 L 552 200 L 558 203 L 559 205 L 559 291 L 556 295 L 554 296 L 551 295 L 550 257 L 544 256 L 496 256 L 491 257 L 490 291 L 487 295 L 483 297 L 477 297 L 474 295 Z M 394 201 L 398 199 L 408 199 L 413 202 L 441 266 L 453 290 L 453 293 L 450 296 L 441 297 L 437 295 L 433 290 L 426 273 L 377 273 L 370 275 L 360 296 L 358 297 L 355 296 L 352 293 L 351 290 L 355 283 L 355 281 L 386 214 Z M 542 186 L 544 190 L 547 191 L 544 194 L 540 194 Z M 354 186 L 356 188 L 356 198 L 352 199 L 351 191 Z M 512 185 L 526 186 L 526 198 L 524 200 L 511 199 Z M 491 186 L 500 186 L 500 189 L 497 191 Z M 453 185 L 473 186 L 473 189 L 469 193 L 465 204 L 463 200 L 451 199 L 451 187 Z M 425 186 L 445 186 L 444 200 L 425 199 L 424 197 L 424 188 Z M 406 186 L 415 186 L 416 190 L 414 192 Z M 385 188 L 378 194 L 374 201 L 372 199 L 371 187 L 373 185 Z M 716 157 L 712 160 L 703 161 L 672 173 L 667 178 L 666 182 L 668 185 L 668 188 L 663 192 L 657 192 L 651 190 L 628 190 L 623 191 L 598 200 L 590 204 L 583 210 L 579 210 L 579 199 L 577 194 L 581 190 L 587 188 L 611 188 L 638 176 L 660 158 L 667 154 L 714 154 Z" fill="rgb(80,197,77)" fill-opacity="0.04706" fill-rule="evenodd"/>
<path d="M 307 379 L 303 376 L 300 377 L 281 393 L 283 398 L 286 399 L 306 383 Z" fill="rgb(80,197,77)" fill-opacity="0.09412" fill-rule="evenodd"/>
<path d="M 626 369 L 626 373 L 647 386 L 650 386 L 651 384 L 648 381 L 630 369 Z" fill="rgb(80,197,77)" fill-opacity="0.09412" fill-rule="evenodd"/>
<path d="M 593 361 L 588 368 L 589 377 L 609 395 L 617 396 L 621 394 L 627 386 L 627 379 L 625 375 L 603 360 Z" fill="rgb(80,197,77)" fill-opacity="0.09412" fill-rule="evenodd"/>
<path d="M 247 320 L 221 328 L 211 337 L 202 343 L 181 351 L 175 350 L 174 347 L 179 342 L 182 341 L 183 339 L 181 338 L 172 339 L 140 349 L 138 353 L 148 353 L 151 354 L 153 357 L 146 364 L 142 366 L 145 368 L 148 368 L 164 362 L 178 359 L 217 345 L 237 333 Z" fill="rgb(80,197,77)" fill-opacity="0.09412" fill-rule="evenodd"/>
<path d="M 670 309 L 679 314 L 679 317 L 676 320 L 669 320 L 671 325 L 700 334 L 705 334 L 709 331 L 704 329 L 699 324 L 699 322 L 702 319 L 711 318 L 710 313 L 707 311 L 685 306 L 675 306 Z" fill="rgb(80,197,77)" fill-opacity="0.09412" fill-rule="evenodd"/>
<path d="M 220 293 L 213 293 L 191 297 L 181 304 L 168 309 L 167 311 L 174 312 L 203 306 L 214 300 Z" fill="rgb(80,197,77)" fill-opacity="0.09412" fill-rule="evenodd"/>
<path d="M 204 272 L 174 277 L 163 276 L 153 279 L 137 280 L 129 282 L 134 286 L 142 289 L 160 289 L 186 286 L 199 280 L 204 275 Z" fill="rgb(80,197,77)" fill-opacity="0.09412" fill-rule="evenodd"/>
<path d="M 682 266 L 681 268 L 684 281 L 685 270 L 684 267 Z" fill="rgb(80,197,77)" fill-opacity="0.09412" fill-rule="evenodd"/>
<path d="M 396 216 L 393 220 L 378 256 L 382 258 L 415 258 L 418 254 L 418 252 L 412 240 L 406 223 L 399 216 Z M 399 236 L 402 237 L 407 249 L 406 252 L 393 251 Z" fill="rgb(80,197,77)" fill-opacity="0.09412" fill-rule="evenodd"/>
<path d="M 132 221 L 146 224 L 158 225 L 173 228 L 181 231 L 207 235 L 207 232 L 199 224 L 194 221 L 183 218 L 155 214 L 146 214 L 136 217 Z" fill="rgb(80,197,77)" fill-opacity="0.09412" fill-rule="evenodd"/>
<path d="M 600 227 L 601 235 L 605 239 L 614 243 L 635 248 L 645 253 L 655 262 L 666 261 L 672 259 L 674 256 L 712 255 L 717 262 L 732 265 L 764 265 L 770 260 L 761 259 L 753 254 L 753 250 L 757 245 L 769 241 L 763 237 L 727 239 L 719 244 L 729 246 L 716 248 L 669 249 L 657 243 L 628 235 L 620 229 L 621 225 L 623 224 L 631 224 L 638 228 L 648 228 L 666 225 L 673 219 L 674 214 L 628 214 L 609 219 L 605 221 Z M 720 256 L 733 256 L 727 259 L 724 259 Z" fill="rgb(80,197,77)" fill-opacity="0.09412" fill-rule="evenodd"/>
<path d="M 326 228 L 324 223 L 319 218 L 309 214 L 291 210 L 264 210 L 260 208 L 256 208 L 256 240 L 254 248 L 198 247 L 193 241 L 187 239 L 164 239 L 157 237 L 140 237 L 133 243 L 131 247 L 131 256 L 135 263 L 140 266 L 154 267 L 161 265 L 187 266 L 192 264 L 197 256 L 258 256 L 260 255 L 261 252 L 306 253 L 315 251 L 323 245 L 326 238 Z M 286 220 L 298 219 L 304 221 L 307 225 L 308 235 L 306 239 L 300 245 L 287 246 L 285 244 Z" fill="rgb(80,197,77)" fill-opacity="0.09412" fill-rule="evenodd"/>
<path d="M 168 193 L 169 196 L 183 202 L 188 206 L 214 212 L 220 212 L 214 205 L 205 200 L 171 192 Z" fill="rgb(80,197,77)" fill-opacity="0.09412" fill-rule="evenodd"/>
<path d="M 169 172 L 192 181 L 205 191 L 227 197 L 236 202 L 240 202 L 240 198 L 237 195 L 230 192 L 221 185 L 211 180 L 176 169 Z" fill="rgb(80,197,77)" fill-opacity="0.09412" fill-rule="evenodd"/>
<path d="M 170 148 L 203 162 L 223 177 L 243 184 L 246 187 L 241 193 L 259 201 L 265 199 L 315 199 L 321 201 L 329 208 L 334 217 L 336 234 L 331 250 L 318 263 L 306 268 L 256 270 L 256 293 L 254 295 L 240 299 L 232 306 L 209 311 L 194 322 L 169 332 L 169 335 L 211 325 L 240 305 L 255 307 L 276 302 L 284 295 L 285 278 L 287 276 L 311 274 L 329 269 L 336 265 L 348 251 L 352 234 L 351 223 L 346 211 L 334 200 L 318 192 L 303 188 L 252 187 L 236 171 L 217 160 L 175 145 Z" fill="rgb(80,197,77)" fill-opacity="0.09412" fill-rule="evenodd"/>
<path d="M 232 138 L 235 141 L 255 152 L 259 151 L 264 152 L 282 162 L 286 162 L 291 160 L 295 156 L 296 153 L 295 144 L 270 126 L 262 127 L 257 131 L 254 139 L 254 144 L 248 144 L 236 137 Z" fill="rgb(80,197,77)" fill-opacity="0.09412" fill-rule="evenodd"/>
<path d="M 616 123 L 614 121 L 610 121 L 592 137 L 591 139 L 594 143 L 599 142 L 616 128 Z" fill="rgb(80,197,77)" fill-opacity="0.09412" fill-rule="evenodd"/>
<path d="M 644 116 L 641 116 L 624 128 L 621 131 L 622 134 L 625 134 L 640 123 Z" fill="rgb(80,197,77)" fill-opacity="0.09412" fill-rule="evenodd"/>
<path d="M 222 370 L 235 385 L 287 334 L 308 332 L 316 362 L 357 367 L 359 399 L 381 365 L 389 399 L 401 365 L 416 367 L 418 399 L 427 365 L 445 366 L 447 399 L 452 366 L 472 366 L 479 399 L 482 365 L 499 367 L 509 398 L 510 367 L 524 366 L 539 398 L 541 365 L 576 363 L 585 332 L 622 332 L 679 368 L 760 382 L 750 365 L 766 356 L 722 347 L 734 360 L 671 354 L 571 304 L 666 301 L 658 269 L 604 251 L 594 220 L 613 202 L 669 204 L 714 176 L 701 175 L 703 162 L 672 174 L 682 182 L 664 193 L 621 192 L 579 214 L 578 191 L 613 187 L 670 152 L 737 147 L 726 163 L 771 144 L 745 143 L 764 126 L 680 137 L 621 175 L 584 174 L 576 145 L 539 141 L 537 108 L 523 142 L 510 141 L 507 108 L 497 142 L 480 140 L 476 109 L 471 142 L 452 141 L 450 109 L 444 142 L 427 142 L 420 108 L 415 142 L 399 141 L 390 108 L 385 142 L 374 142 L 359 108 L 356 142 L 324 142 L 310 156 L 310 179 L 325 188 L 336 157 L 560 157 L 567 184 L 539 195 L 555 172 L 339 172 L 335 192 L 361 235 L 334 293 L 336 332 L 553 335 L 550 304 L 566 308 L 566 346 L 338 351 L 322 284 L 310 287 L 309 319 Z M 543 306 L 545 308 L 545 321 L 540 322 L 540 306 Z M 511 306 L 525 306 L 527 308 L 526 323 L 512 323 L 510 321 Z M 397 308 L 399 306 L 416 307 L 415 323 L 397 322 Z M 373 306 L 385 306 L 387 308 L 387 320 L 384 323 L 370 322 L 370 309 Z M 497 303 L 500 307 L 500 322 L 498 324 L 482 323 L 480 321 L 479 307 L 487 307 Z M 429 302 L 436 306 L 446 308 L 444 324 L 424 322 L 424 307 Z M 592 291 L 592 287 L 596 282 L 600 282 L 604 284 L 626 288 L 644 287 L 648 289 L 642 294 L 636 297 L 625 300 L 607 300 L 597 296 Z M 398 281 L 400 280 L 418 281 L 418 283 L 416 285 L 415 297 L 397 296 Z M 389 282 L 387 284 L 387 295 L 385 297 L 379 297 L 375 299 L 365 307 L 359 310 L 357 312 L 357 321 L 355 323 L 352 323 L 350 321 L 350 310 L 353 307 L 358 306 L 370 300 L 374 296 L 377 291 L 379 284 L 384 280 Z M 511 276 L 525 276 L 527 278 L 526 297 L 512 297 L 510 295 Z M 506 264 L 511 262 L 528 262 L 533 264 L 527 265 L 526 270 L 510 269 L 509 265 Z M 450 262 L 457 262 L 465 264 L 465 288 L 467 297 L 472 303 L 472 323 L 451 322 L 451 306 L 458 300 L 460 296 L 460 290 L 448 264 Z M 577 253 L 579 251 L 582 251 L 588 256 L 605 263 L 622 267 L 630 273 L 630 276 L 624 280 L 617 280 L 613 279 L 607 275 L 598 273 L 587 272 L 579 274 L 577 272 Z M 452 236 L 465 237 L 464 257 L 451 256 Z M 437 234 L 439 236 L 445 237 L 444 253 L 436 237 Z M 511 211 L 513 210 L 525 210 L 527 212 L 526 232 L 524 233 L 509 233 L 507 231 L 510 228 Z M 424 205 L 427 210 L 445 211 L 444 230 L 436 231 L 436 235 L 423 208 Z M 476 199 L 478 198 L 486 199 L 491 205 L 492 240 L 540 240 L 549 237 L 549 201 L 551 199 L 556 199 L 560 203 L 561 206 L 561 290 L 557 296 L 552 297 L 549 294 L 548 257 L 491 258 L 491 290 L 489 294 L 485 297 L 476 297 L 472 292 L 472 204 Z M 397 198 L 408 198 L 414 203 L 454 292 L 451 296 L 449 297 L 439 297 L 436 295 L 430 285 L 426 274 L 379 273 L 372 275 L 370 277 L 362 295 L 360 297 L 355 297 L 350 293 L 350 289 L 363 263 L 386 211 L 390 204 Z M 352 184 L 356 185 L 356 201 L 353 201 L 350 198 L 350 186 Z M 513 183 L 527 184 L 527 199 L 525 201 L 510 200 L 510 186 Z M 481 184 L 492 183 L 500 184 L 498 193 L 493 189 Z M 453 183 L 473 184 L 473 190 L 469 194 L 466 201 L 465 206 L 466 222 L 465 223 L 465 228 L 463 230 L 453 230 L 451 228 L 451 212 L 453 210 L 463 209 L 462 201 L 451 200 L 451 185 Z M 424 185 L 426 183 L 445 184 L 444 201 L 426 201 L 424 199 Z M 400 184 L 413 183 L 416 186 L 414 193 L 410 189 L 404 187 Z M 385 184 L 387 189 L 384 190 L 380 194 L 377 200 L 372 201 L 370 198 L 370 185 L 372 183 L 383 183 Z" fill="rgb(80,197,77)" fill-opacity="0.09412" fill-rule="evenodd"/>
<path d="M 258 368 L 255 368 L 240 376 L 236 381 L 253 373 Z" fill="rgb(80,197,77)" fill-opacity="0.18824" fill-rule="evenodd"/>
<path d="M 598 364 L 592 371 L 592 378 L 607 391 L 615 390 L 621 383 L 622 379 L 621 374 L 606 363 Z" fill="rgb(80,197,77)" fill-opacity="0.18824" fill-rule="evenodd"/>
<path d="M 708 358 L 717 367 L 739 373 L 751 375 L 744 368 L 735 364 L 724 362 L 715 358 Z" fill="rgb(80,197,77)" fill-opacity="0.18824" fill-rule="evenodd"/>
<path d="M 537 354 L 541 355 L 546 354 Z" fill="rgb(80,197,77)" fill-opacity="0.18824" fill-rule="evenodd"/>
<path d="M 497 354 L 498 362 L 501 368 L 501 383 L 505 391 L 508 393 L 508 362 L 504 354 Z" fill="rgb(80,197,77)" fill-opacity="0.18824" fill-rule="evenodd"/>
<path d="M 507 354 L 512 355 L 522 354 L 524 356 L 524 362 L 529 370 L 529 383 L 536 393 L 536 362 L 531 354 L 527 353 Z" fill="rgb(80,197,77)" fill-opacity="0.18824" fill-rule="evenodd"/>
<path d="M 473 353 L 471 354 L 474 369 L 474 387 L 476 394 L 479 393 L 479 357 L 478 354 Z" fill="rgb(80,197,77)" fill-opacity="0.18824" fill-rule="evenodd"/>
<path d="M 448 353 L 441 354 L 444 354 L 446 356 L 445 363 L 447 394 L 450 394 L 452 354 Z" fill="rgb(80,197,77)" fill-opacity="0.18824" fill-rule="evenodd"/>
<path d="M 435 354 L 425 353 L 419 354 L 419 358 L 417 363 L 418 394 L 421 393 L 423 386 L 423 371 L 427 355 Z" fill="rgb(80,197,77)" fill-opacity="0.18824" fill-rule="evenodd"/>
<path d="M 353 354 L 357 356 L 366 355 L 360 363 L 361 392 L 368 383 L 368 370 L 372 365 L 376 356 L 385 357 L 393 355 L 389 362 L 389 391 L 390 394 L 396 383 L 396 368 L 399 363 L 399 356 L 401 354 L 403 354 L 399 353 Z" fill="rgb(80,197,77)" fill-opacity="0.18824" fill-rule="evenodd"/>
<path d="M 732 349 L 737 352 L 752 357 L 760 358 L 736 349 Z" fill="rgb(80,197,77)" fill-opacity="0.18824" fill-rule="evenodd"/>
<path d="M 236 329 L 223 333 L 205 343 L 169 355 L 162 359 L 170 360 L 175 359 L 213 346 L 227 338 Z" fill="rgb(80,197,77)" fill-opacity="0.18824" fill-rule="evenodd"/>
<path d="M 675 322 L 677 325 L 695 330 L 699 330 L 696 327 L 684 323 Z" fill="rgb(80,197,77)" fill-opacity="0.18824" fill-rule="evenodd"/>
<path d="M 324 320 L 310 320 L 306 322 L 297 322 L 277 330 L 258 349 L 247 355 L 236 363 L 231 365 L 229 368 L 242 367 L 248 364 L 254 359 L 261 356 L 286 333 L 293 330 L 311 330 L 323 324 Z" fill="rgb(80,197,77)" fill-opacity="0.18824" fill-rule="evenodd"/>
<path d="M 571 319 L 572 324 L 581 329 L 588 330 L 620 330 L 633 337 L 658 357 L 678 366 L 689 366 L 679 358 L 663 352 L 635 330 L 615 322 L 588 322 L 579 319 Z" fill="rgb(80,197,77)" fill-opacity="0.18824" fill-rule="evenodd"/>
<path d="M 221 316 L 217 316 L 200 321 L 192 325 L 179 329 L 177 331 L 184 332 L 203 327 L 215 321 Z" fill="rgb(80,197,77)" fill-opacity="0.18824" fill-rule="evenodd"/>
<path d="M 678 310 L 681 312 L 692 315 L 703 316 L 702 314 L 684 309 Z" fill="rgb(80,197,77)" fill-opacity="0.18824" fill-rule="evenodd"/>
<path d="M 206 301 L 187 304 L 177 308 L 200 305 Z" fill="rgb(80,197,77)" fill-opacity="0.18824" fill-rule="evenodd"/>
<path d="M 249 304 L 251 305 L 260 305 L 275 301 L 278 297 L 262 296 Z" fill="rgb(80,197,77)" fill-opacity="0.18824" fill-rule="evenodd"/>
<path d="M 145 285 L 152 288 L 159 288 L 184 285 L 190 281 L 164 280 L 156 283 Z" fill="rgb(80,197,77)" fill-opacity="0.18824" fill-rule="evenodd"/>
<path d="M 572 283 L 572 289 L 575 293 L 583 296 L 590 301 L 605 306 L 614 308 L 638 308 L 647 304 L 637 301 L 617 302 L 601 299 L 590 293 L 583 291 L 579 286 L 580 279 L 582 277 L 588 278 L 595 281 L 600 281 L 611 285 L 623 287 L 633 287 L 641 284 L 636 282 L 613 280 L 603 275 L 589 273 L 582 277 L 575 278 Z" fill="rgb(80,197,77)" fill-opacity="0.18824" fill-rule="evenodd"/>
<path d="M 728 261 L 730 262 L 759 261 L 735 259 Z" fill="rgb(80,197,77)" fill-opacity="0.18824" fill-rule="evenodd"/>
<path d="M 343 252 L 334 254 L 322 263 L 310 268 L 271 270 L 269 271 L 270 275 L 294 275 L 318 272 L 326 269 L 334 264 L 340 258 Z" fill="rgb(80,197,77)" fill-opacity="0.18824" fill-rule="evenodd"/>
<path d="M 588 251 L 592 256 L 609 263 L 627 268 L 634 269 L 644 268 L 638 264 L 615 258 L 598 251 Z" fill="rgb(80,197,77)" fill-opacity="0.18824" fill-rule="evenodd"/>
<path d="M 744 253 L 744 249 L 741 248 L 676 249 L 658 251 L 662 254 L 718 255 Z" fill="rgb(80,197,77)" fill-opacity="0.18824" fill-rule="evenodd"/>
<path d="M 269 251 L 272 252 L 307 252 L 314 249 L 316 246 L 299 247 L 276 246 L 275 247 L 269 247 Z" fill="rgb(80,197,77)" fill-opacity="0.18824" fill-rule="evenodd"/>
<path d="M 758 241 L 744 240 L 731 241 L 728 243 L 739 244 L 753 243 Z" fill="rgb(80,197,77)" fill-opacity="0.18824" fill-rule="evenodd"/>
<path d="M 141 248 L 141 255 L 143 260 L 147 264 L 151 265 L 159 263 L 183 264 L 191 254 L 239 255 L 254 253 L 254 250 L 249 250 L 248 249 L 192 248 L 183 240 L 162 241 L 158 239 L 148 239 L 145 241 Z" fill="rgb(80,197,77)" fill-opacity="0.18824" fill-rule="evenodd"/>
<path d="M 609 238 L 617 242 L 632 245 L 644 249 L 656 247 L 649 243 L 624 236 L 617 236 Z" fill="rgb(80,197,77)" fill-opacity="0.18824" fill-rule="evenodd"/>
<path d="M 399 217 L 396 219 L 381 254 L 382 257 L 386 258 L 412 258 L 417 257 L 417 252 L 404 221 Z M 400 233 L 403 236 L 409 250 L 407 252 L 391 251 L 397 235 Z" fill="rgb(80,197,77)" fill-opacity="0.18824" fill-rule="evenodd"/>
<path d="M 148 218 L 169 225 L 192 225 L 190 222 L 186 220 L 162 216 L 153 216 Z" fill="rgb(80,197,77)" fill-opacity="0.18824" fill-rule="evenodd"/>
<path d="M 605 225 L 624 222 L 634 222 L 640 220 L 643 221 L 640 225 L 645 227 L 661 224 L 665 222 L 666 220 L 658 219 L 654 217 L 642 217 L 635 215 L 627 215 L 611 219 Z" fill="rgb(80,197,77)" fill-opacity="0.18824" fill-rule="evenodd"/>
<path d="M 269 214 L 282 218 L 298 218 L 321 226 L 320 222 L 315 217 L 299 212 Z" fill="rgb(80,197,77)" fill-opacity="0.18824" fill-rule="evenodd"/>
<path d="M 177 196 L 178 198 L 188 202 L 209 206 L 206 203 L 200 200 Z" fill="rgb(80,197,77)" fill-opacity="0.18824" fill-rule="evenodd"/>
<path d="M 647 196 L 640 193 L 622 193 L 610 196 L 596 202 L 575 222 L 573 227 L 573 239 L 575 244 L 578 245 L 580 242 L 579 228 L 580 223 L 583 218 L 593 214 L 602 206 L 608 203 L 619 200 L 638 200 Z" fill="rgb(80,197,77)" fill-opacity="0.18824" fill-rule="evenodd"/>
<path d="M 252 191 L 267 197 L 310 197 L 318 199 L 326 203 L 334 211 L 338 219 L 348 226 L 346 216 L 341 207 L 333 200 L 321 194 L 306 190 Z" fill="rgb(80,197,77)" fill-opacity="0.18824" fill-rule="evenodd"/>
<path d="M 705 180 L 697 180 L 687 183 L 674 189 L 668 194 L 661 196 L 663 198 L 665 198 L 671 193 L 680 192 L 693 188 L 703 183 Z" fill="rgb(80,197,77)" fill-opacity="0.18824" fill-rule="evenodd"/>
<path d="M 177 173 L 181 176 L 203 185 L 225 192 L 217 185 L 206 179 L 184 172 Z" fill="rgb(80,197,77)" fill-opacity="0.18824" fill-rule="evenodd"/>
<path d="M 700 167 L 697 167 L 678 174 L 677 176 L 686 174 L 696 170 Z" fill="rgb(80,197,77)" fill-opacity="0.18824" fill-rule="evenodd"/>
<path d="M 758 149 L 741 154 L 732 158 L 742 156 Z" fill="rgb(80,197,77)" fill-opacity="0.18824" fill-rule="evenodd"/>
<path d="M 178 149 L 190 156 L 213 166 L 224 173 L 240 179 L 229 168 L 213 159 L 186 149 Z" fill="rgb(80,197,77)" fill-opacity="0.18824" fill-rule="evenodd"/>
<path d="M 683 141 L 654 151 L 617 178 L 583 178 L 537 199 L 535 188 L 548 175 L 346 175 L 360 186 L 384 181 L 390 187 L 378 204 L 368 198 L 347 204 L 367 214 L 364 236 L 340 290 L 348 288 L 388 202 L 405 196 L 415 204 L 454 293 L 438 298 L 425 274 L 377 274 L 362 297 L 343 303 L 346 308 L 371 298 L 381 280 L 393 281 L 387 297 L 366 307 L 387 304 L 389 321 L 370 326 L 359 322 L 344 332 L 550 332 L 536 321 L 536 306 L 544 301 L 568 306 L 546 293 L 545 257 L 492 258 L 490 295 L 484 299 L 473 295 L 472 202 L 481 196 L 491 201 L 493 239 L 542 239 L 550 198 L 562 192 L 568 197 L 589 185 L 616 185 Z M 509 304 L 524 304 L 527 306 L 530 310 L 528 325 L 512 325 L 508 321 Z M 398 305 L 400 304 L 417 305 L 417 322 L 415 325 L 413 326 L 395 324 L 395 309 Z M 499 303 L 502 309 L 502 324 L 500 326 L 482 325 L 479 322 L 479 312 L 477 308 L 478 305 L 483 306 L 488 305 L 493 302 Z M 428 301 L 431 301 L 435 304 L 441 306 L 445 305 L 446 322 L 443 326 L 423 324 L 423 307 Z M 425 292 L 427 296 L 423 297 L 423 294 Z M 420 281 L 417 288 L 417 296 L 415 298 L 397 298 L 395 296 L 396 281 L 415 279 Z M 509 276 L 511 275 L 524 275 L 529 278 L 530 284 L 530 295 L 529 297 L 511 298 L 508 295 Z M 500 264 L 501 262 L 534 262 L 537 264 L 533 266 L 530 266 L 530 268 L 527 271 L 512 271 L 508 269 L 507 265 Z M 449 262 L 464 262 L 466 264 L 466 293 L 470 301 L 474 304 L 473 325 L 451 324 L 450 306 L 459 297 L 459 287 L 448 265 Z M 453 235 L 464 235 L 466 237 L 466 256 L 464 258 L 452 257 L 450 255 L 450 239 Z M 370 212 L 372 211 L 374 213 L 372 214 Z M 508 212 L 512 209 L 529 210 L 529 212 L 531 214 L 530 230 L 537 231 L 535 233 L 531 234 L 525 233 L 508 234 L 506 233 L 506 230 L 508 228 Z M 422 201 L 427 209 L 445 210 L 446 212 L 446 229 L 444 231 L 437 231 L 438 235 L 445 236 L 445 255 L 439 245 L 432 227 L 421 204 Z M 512 181 L 529 182 L 530 197 L 525 203 L 508 202 L 508 186 Z M 479 184 L 482 181 L 502 182 L 502 194 L 501 196 L 497 197 L 493 192 L 488 190 L 484 190 L 479 186 Z M 452 181 L 474 182 L 474 189 L 468 197 L 466 202 L 466 228 L 464 230 L 453 231 L 451 229 L 452 209 L 462 209 L 463 206 L 462 203 L 451 202 Z M 424 181 L 445 182 L 446 185 L 446 201 L 444 203 L 424 202 L 423 199 Z M 397 181 L 414 181 L 417 185 L 416 195 L 411 191 L 404 189 L 399 189 L 396 185 Z" fill="rgb(80,197,77)" fill-opacity="0.18824" fill-rule="evenodd"/>
<path d="M 753 131 L 749 131 L 722 139 L 718 141 L 711 149 L 715 149 L 721 146 L 736 142 L 744 138 Z" fill="rgb(80,197,77)" fill-opacity="0.18824" fill-rule="evenodd"/>
<path d="M 268 131 L 262 137 L 260 148 L 258 148 L 268 152 L 279 159 L 282 159 L 286 157 L 291 151 L 292 146 L 291 143 L 286 138 L 273 130 Z" fill="rgb(80,197,77)" fill-opacity="0.18824" fill-rule="evenodd"/>
<path d="M 360 116 L 360 143 L 368 154 L 373 154 L 373 146 L 368 136 L 368 126 L 362 117 Z" fill="rgb(80,197,77)" fill-opacity="0.18824" fill-rule="evenodd"/>
<path d="M 536 115 L 529 126 L 529 137 L 525 145 L 524 154 L 529 154 L 536 145 L 537 117 Z" fill="rgb(80,197,77)" fill-opacity="0.18824" fill-rule="evenodd"/>
<path d="M 506 113 L 501 125 L 501 139 L 499 143 L 498 154 L 504 153 L 508 144 Z" fill="rgb(80,197,77)" fill-opacity="0.18824" fill-rule="evenodd"/>
<path d="M 478 113 L 476 113 L 474 121 L 474 139 L 472 149 L 473 154 L 477 154 L 479 148 Z" fill="rgb(80,197,77)" fill-opacity="0.18824" fill-rule="evenodd"/>
<path d="M 447 113 L 446 115 L 446 154 L 451 154 L 452 151 L 451 117 L 449 113 Z" fill="rgb(80,197,77)" fill-opacity="0.18824" fill-rule="evenodd"/>
<path d="M 418 113 L 417 115 L 417 144 L 420 153 L 425 154 L 425 142 L 423 131 L 424 127 L 422 117 L 420 113 Z" fill="rgb(80,197,77)" fill-opacity="0.18824" fill-rule="evenodd"/>
<path d="M 390 113 L 388 117 L 389 145 L 393 153 L 399 154 L 399 146 L 396 139 L 396 125 Z" fill="rgb(80,197,77)" fill-opacity="0.18824" fill-rule="evenodd"/>
<path d="M 605 368 L 600 372 L 598 376 L 599 381 L 605 385 L 608 385 L 613 380 L 615 375 L 609 369 Z" fill="rgb(80,197,77)" fill-opacity="0.25098" fill-rule="evenodd"/>
<path d="M 722 364 L 724 367 L 737 369 L 732 366 Z" fill="rgb(80,197,77)" fill-opacity="0.25098" fill-rule="evenodd"/>
<path d="M 528 358 L 529 365 L 533 365 L 532 361 Z" fill="rgb(80,197,77)" fill-opacity="0.25098" fill-rule="evenodd"/>
<path d="M 501 358 L 501 365 L 503 368 L 503 381 L 505 386 L 506 364 L 504 359 Z" fill="rgb(80,197,77)" fill-opacity="0.25098" fill-rule="evenodd"/>
<path d="M 477 358 L 473 359 L 474 382 L 476 389 L 478 388 L 478 361 Z" fill="rgb(80,197,77)" fill-opacity="0.25098" fill-rule="evenodd"/>
<path d="M 450 358 L 447 358 L 446 360 L 446 386 L 447 389 L 450 388 L 451 368 Z" fill="rgb(80,197,77)" fill-opacity="0.25098" fill-rule="evenodd"/>
<path d="M 424 358 L 420 358 L 419 361 L 420 389 L 422 385 L 422 369 L 424 364 Z" fill="rgb(80,197,77)" fill-opacity="0.25098" fill-rule="evenodd"/>
<path d="M 397 358 L 393 359 L 391 363 L 391 368 L 395 367 L 397 362 Z" fill="rgb(80,197,77)" fill-opacity="0.25098" fill-rule="evenodd"/>
<path d="M 369 357 L 365 361 L 364 365 L 368 365 L 370 363 Z" fill="rgb(80,197,77)" fill-opacity="0.25098" fill-rule="evenodd"/>
<path d="M 261 352 L 256 352 L 248 356 L 239 364 L 250 360 Z" fill="rgb(80,197,77)" fill-opacity="0.25098" fill-rule="evenodd"/>
<path d="M 220 339 L 217 339 L 202 344 L 192 349 L 174 355 L 180 356 L 203 349 L 210 346 Z" fill="rgb(80,197,77)" fill-opacity="0.25098" fill-rule="evenodd"/>
<path d="M 613 325 L 615 327 L 633 335 L 661 357 L 673 362 L 678 362 L 673 358 L 655 349 L 630 329 L 620 325 Z" fill="rgb(80,197,77)" fill-opacity="0.25098" fill-rule="evenodd"/>
<path d="M 298 325 L 292 325 L 284 328 L 277 335 L 289 331 L 295 328 Z" fill="rgb(80,197,77)" fill-opacity="0.25098" fill-rule="evenodd"/>
<path d="M 532 326 L 538 330 L 540 329 L 540 327 L 537 324 Z" fill="rgb(80,197,77)" fill-opacity="0.25098" fill-rule="evenodd"/>
<path d="M 364 324 L 357 326 L 357 330 L 362 328 L 364 326 Z" fill="rgb(80,197,77)" fill-opacity="0.25098" fill-rule="evenodd"/>
<path d="M 576 322 L 577 324 L 581 326 L 586 326 L 585 323 L 583 322 Z" fill="rgb(80,197,77)" fill-opacity="0.25098" fill-rule="evenodd"/>
<path d="M 392 322 L 389 323 L 386 326 L 387 330 L 389 330 L 393 326 Z" fill="rgb(80,197,77)" fill-opacity="0.25098" fill-rule="evenodd"/>
<path d="M 308 327 L 311 327 L 319 323 L 312 322 L 308 324 Z" fill="rgb(80,197,77)" fill-opacity="0.25098" fill-rule="evenodd"/>
<path d="M 207 322 L 196 324 L 189 327 L 199 326 Z" fill="rgb(80,197,77)" fill-opacity="0.25098" fill-rule="evenodd"/>
<path d="M 504 314 L 504 327 L 507 330 L 510 329 L 510 326 L 505 321 Z" fill="rgb(80,197,77)" fill-opacity="0.25098" fill-rule="evenodd"/>
<path d="M 475 309 L 475 328 L 476 330 L 480 329 L 480 325 L 478 322 L 478 311 Z" fill="rgb(80,197,77)" fill-opacity="0.25098" fill-rule="evenodd"/>
<path d="M 447 309 L 445 328 L 446 330 L 450 330 L 451 326 L 450 309 Z" fill="rgb(80,197,77)" fill-opacity="0.25098" fill-rule="evenodd"/>
<path d="M 271 299 L 269 298 L 262 299 L 258 302 L 269 301 Z" fill="rgb(80,197,77)" fill-opacity="0.25098" fill-rule="evenodd"/>
<path d="M 585 295 L 591 300 L 604 305 L 609 306 L 630 305 L 623 303 L 611 302 L 599 299 L 590 295 Z" fill="rgb(80,197,77)" fill-opacity="0.25098" fill-rule="evenodd"/>
<path d="M 421 329 L 422 327 L 422 307 L 427 299 L 423 300 L 421 298 L 420 289 L 419 295 L 414 300 L 393 299 L 393 297 L 389 297 L 385 300 L 378 300 L 375 302 L 389 302 L 392 307 L 394 307 L 400 302 L 410 303 L 417 302 L 419 304 L 419 321 L 416 326 L 416 330 Z" fill="rgb(80,197,77)" fill-opacity="0.25098" fill-rule="evenodd"/>
<path d="M 372 289 L 364 297 L 355 300 L 351 303 L 359 304 L 366 301 L 371 294 Z" fill="rgb(80,197,77)" fill-opacity="0.25098" fill-rule="evenodd"/>
<path d="M 158 284 L 169 285 L 176 284 L 179 282 L 165 282 Z" fill="rgb(80,197,77)" fill-opacity="0.25098" fill-rule="evenodd"/>
<path d="M 591 278 L 597 280 L 602 280 L 614 285 L 624 286 L 629 285 L 631 283 L 609 280 L 595 275 Z" fill="rgb(80,197,77)" fill-opacity="0.25098" fill-rule="evenodd"/>
<path d="M 504 269 L 504 276 L 527 275 L 534 276 L 536 278 L 536 290 L 538 294 L 545 301 L 553 304 L 559 303 L 558 301 L 542 295 L 539 292 L 538 266 L 536 267 L 535 272 L 509 271 Z" fill="rgb(80,197,77)" fill-opacity="0.25098" fill-rule="evenodd"/>
<path d="M 327 265 L 323 265 L 308 269 L 278 270 L 276 271 L 277 274 L 302 274 L 317 271 Z" fill="rgb(80,197,77)" fill-opacity="0.25098" fill-rule="evenodd"/>
<path d="M 603 258 L 609 261 L 626 266 L 633 265 L 605 257 Z" fill="rgb(80,197,77)" fill-opacity="0.25098" fill-rule="evenodd"/>
<path d="M 668 251 L 669 253 L 684 254 L 722 254 L 727 253 L 728 250 L 725 249 L 688 249 Z" fill="rgb(80,197,77)" fill-opacity="0.25098" fill-rule="evenodd"/>
<path d="M 203 250 L 203 253 L 209 254 L 243 254 L 246 253 L 245 250 L 237 249 L 205 249 Z" fill="rgb(80,197,77)" fill-opacity="0.25098" fill-rule="evenodd"/>
<path d="M 277 251 L 280 252 L 299 252 L 306 250 L 308 248 L 303 247 L 290 248 L 289 247 L 280 247 Z" fill="rgb(80,197,77)" fill-opacity="0.25098" fill-rule="evenodd"/>
<path d="M 648 223 L 650 223 L 651 222 L 654 222 Z" fill="rgb(80,197,77)" fill-opacity="0.25098" fill-rule="evenodd"/>
<path d="M 369 222 L 365 228 L 366 232 L 369 232 L 370 230 Z" fill="rgb(80,197,77)" fill-opacity="0.25098" fill-rule="evenodd"/>
<path d="M 398 221 L 397 228 L 398 230 L 401 231 L 404 234 L 411 251 L 408 253 L 393 253 L 387 251 L 384 254 L 385 257 L 416 256 L 415 251 L 403 222 L 401 220 Z" fill="rgb(80,197,77)" fill-opacity="0.25098" fill-rule="evenodd"/>
<path d="M 160 220 L 167 222 L 180 222 L 176 220 L 169 219 Z" fill="rgb(80,197,77)" fill-opacity="0.25098" fill-rule="evenodd"/>
<path d="M 633 218 L 623 217 L 616 219 L 613 222 L 622 222 L 630 220 Z" fill="rgb(80,197,77)" fill-opacity="0.25098" fill-rule="evenodd"/>
<path d="M 278 214 L 281 216 L 286 217 L 298 217 L 307 220 L 314 220 L 311 217 L 303 214 Z" fill="rgb(80,197,77)" fill-opacity="0.25098" fill-rule="evenodd"/>
<path d="M 354 206 L 357 209 L 364 210 L 365 206 L 370 207 L 375 210 L 380 210 L 381 208 L 379 206 L 372 205 L 369 202 L 364 202 L 364 207 L 360 205 Z" fill="rgb(80,197,77)" fill-opacity="0.25098" fill-rule="evenodd"/>
<path d="M 494 202 L 495 239 L 539 239 L 541 238 L 542 233 L 536 233 L 532 235 L 506 235 L 497 233 L 497 212 L 504 208 L 504 213 L 511 208 L 512 206 L 507 206 L 505 204 L 505 199 L 497 204 Z" fill="rgb(80,197,77)" fill-opacity="0.25098" fill-rule="evenodd"/>
<path d="M 629 196 L 609 197 L 600 201 L 591 209 L 594 209 L 609 202 Z" fill="rgb(80,197,77)" fill-opacity="0.25098" fill-rule="evenodd"/>
<path d="M 301 194 L 311 196 L 322 200 L 338 209 L 337 206 L 331 200 L 322 195 L 314 193 Z" fill="rgb(80,197,77)" fill-opacity="0.25098" fill-rule="evenodd"/>
<path d="M 555 192 L 550 192 L 546 194 L 534 204 L 531 201 L 525 205 L 525 207 L 529 207 L 533 204 L 533 210 L 536 211 L 536 228 L 539 227 L 538 210 L 542 205 L 543 202 L 551 197 Z" fill="rgb(80,197,77)" fill-opacity="0.25098" fill-rule="evenodd"/>
<path d="M 694 184 L 684 186 L 680 189 L 688 188 Z" fill="rgb(80,197,77)" fill-opacity="0.25098" fill-rule="evenodd"/>
<path d="M 584 181 L 577 184 L 576 186 L 583 185 Z" fill="rgb(80,197,77)" fill-opacity="0.25098" fill-rule="evenodd"/>
<path d="M 539 178 L 536 178 L 533 181 L 533 183 L 536 183 L 539 180 Z" fill="rgb(80,197,77)" fill-opacity="0.25098" fill-rule="evenodd"/>
<path d="M 510 178 L 505 179 L 504 181 L 505 187 L 509 182 Z" fill="rgb(80,197,77)" fill-opacity="0.25098" fill-rule="evenodd"/>
<path d="M 357 178 L 358 181 L 364 182 L 360 178 Z" fill="rgb(80,197,77)" fill-opacity="0.25098" fill-rule="evenodd"/>
<path d="M 416 178 L 419 199 L 411 193 L 405 193 L 413 200 L 452 284 L 454 295 L 448 300 L 435 298 L 422 274 L 380 274 L 374 281 L 422 280 L 421 287 L 423 285 L 428 297 L 438 303 L 449 303 L 459 294 L 448 262 L 466 263 L 467 295 L 476 303 L 487 303 L 494 299 L 505 308 L 506 303 L 523 302 L 530 306 L 538 302 L 535 298 L 512 300 L 506 296 L 499 300 L 496 294 L 498 262 L 542 262 L 540 257 L 494 258 L 492 296 L 487 300 L 478 300 L 471 292 L 471 204 L 478 194 L 480 178 L 475 179 L 474 192 L 467 201 L 467 226 L 463 232 L 453 232 L 450 229 L 451 180 L 446 178 L 445 232 L 438 232 L 446 236 L 445 257 L 420 203 L 422 181 L 420 177 Z M 451 235 L 466 236 L 465 258 L 452 258 L 450 256 Z" fill="rgb(80,197,77)" fill-opacity="0.25098" fill-rule="evenodd"/>
<path d="M 387 178 L 387 181 L 392 186 L 393 191 L 398 192 L 397 189 L 394 186 L 392 180 L 389 177 Z" fill="rgb(80,197,77)" fill-opacity="0.25098" fill-rule="evenodd"/>
<path d="M 189 176 L 190 178 L 194 180 L 209 184 L 202 179 Z" fill="rgb(80,197,77)" fill-opacity="0.25098" fill-rule="evenodd"/>
<path d="M 190 153 L 191 155 L 203 161 L 221 168 L 224 168 L 211 159 L 195 153 Z" fill="rgb(80,197,77)" fill-opacity="0.25098" fill-rule="evenodd"/>
<path d="M 673 145 L 667 146 L 657 151 L 631 172 L 620 177 L 613 182 L 620 182 L 627 179 L 654 157 L 668 150 Z" fill="rgb(80,197,77)" fill-opacity="0.25098" fill-rule="evenodd"/>
<path d="M 364 142 L 365 146 L 369 150 L 368 142 Z" fill="rgb(80,197,77)" fill-opacity="0.25098" fill-rule="evenodd"/>
<path d="M 533 141 L 529 142 L 528 150 L 532 146 Z" fill="rgb(80,197,77)" fill-opacity="0.25098" fill-rule="evenodd"/>
<path d="M 392 138 L 391 143 L 393 148 L 396 150 L 396 143 L 394 139 Z" fill="rgb(80,197,77)" fill-opacity="0.25098" fill-rule="evenodd"/>
<path d="M 273 138 L 271 140 L 269 146 L 271 149 L 278 153 L 282 150 L 284 146 L 284 143 L 277 138 Z" fill="rgb(80,197,77)" fill-opacity="0.25098" fill-rule="evenodd"/>
<path d="M 739 137 L 729 139 L 723 143 L 729 142 Z" fill="rgb(80,197,77)" fill-opacity="0.25098" fill-rule="evenodd"/>
<path d="M 505 122 L 503 127 L 503 139 L 501 143 L 501 150 L 503 150 L 506 143 Z" fill="rgb(80,197,77)" fill-opacity="0.25098" fill-rule="evenodd"/>
<path d="M 476 119 L 475 121 L 474 150 L 477 149 L 478 147 Z" fill="rgb(80,197,77)" fill-opacity="0.25098" fill-rule="evenodd"/>
<path d="M 447 119 L 446 123 L 446 147 L 447 150 L 450 150 L 451 148 L 451 124 L 450 119 Z" fill="rgb(80,197,77)" fill-opacity="0.25098" fill-rule="evenodd"/>
<path d="M 419 119 L 419 146 L 421 150 L 424 149 L 424 143 L 422 138 L 422 123 Z" fill="rgb(80,197,77)" fill-opacity="0.25098" fill-rule="evenodd"/>
<path d="M 476 362 L 474 363 L 476 370 L 477 383 Z" fill="rgb(80,197,77)" fill-opacity="0.25098" fill-rule="evenodd"/>
<path d="M 447 362 L 450 383 L 450 362 Z" fill="rgb(80,197,77)" fill-opacity="0.25098" fill-rule="evenodd"/>
<path d="M 422 362 L 420 363 L 420 383 Z" fill="rgb(80,197,77)" fill-opacity="0.25098" fill-rule="evenodd"/>
<path d="M 250 358 L 248 359 L 252 357 Z" fill="rgb(80,197,77)" fill-opacity="0.25098" fill-rule="evenodd"/>
<path d="M 661 354 L 665 357 L 669 358 Z" fill="rgb(80,197,77)" fill-opacity="0.25098" fill-rule="evenodd"/>
<path d="M 209 343 L 201 347 L 203 347 Z" fill="rgb(80,197,77)" fill-opacity="0.25098" fill-rule="evenodd"/>
<path d="M 620 328 L 631 333 L 624 328 Z" fill="rgb(80,197,77)" fill-opacity="0.25098" fill-rule="evenodd"/>
<path d="M 291 328 L 286 329 L 284 331 Z" fill="rgb(80,197,77)" fill-opacity="0.25098" fill-rule="evenodd"/>
<path d="M 476 327 L 479 326 L 477 322 L 477 312 Z" fill="rgb(80,197,77)" fill-opacity="0.25098" fill-rule="evenodd"/>
<path d="M 449 311 L 447 312 L 446 326 L 450 326 Z" fill="rgb(80,197,77)" fill-opacity="0.25098" fill-rule="evenodd"/>
<path d="M 394 304 L 397 302 L 394 302 Z" fill="rgb(80,197,77)" fill-opacity="0.25098" fill-rule="evenodd"/>
<path d="M 546 298 L 550 302 L 555 301 L 549 298 Z" fill="rgb(80,197,77)" fill-opacity="0.25098" fill-rule="evenodd"/>
<path d="M 592 297 L 596 301 L 603 304 L 618 304 L 607 302 Z" fill="rgb(80,197,77)" fill-opacity="0.25098" fill-rule="evenodd"/>
<path d="M 420 297 L 416 301 L 420 302 L 420 322 L 418 327 L 420 327 L 420 308 L 423 304 L 423 302 L 420 301 Z" fill="rgb(80,197,77)" fill-opacity="0.25098" fill-rule="evenodd"/>
<path d="M 366 297 L 356 301 L 362 302 L 364 301 Z" fill="rgb(80,197,77)" fill-opacity="0.25098" fill-rule="evenodd"/>
<path d="M 609 281 L 615 284 L 624 283 Z" fill="rgb(80,197,77)" fill-opacity="0.25098" fill-rule="evenodd"/>
<path d="M 377 279 L 382 278 L 422 278 L 424 280 L 426 287 L 432 297 L 427 288 L 423 277 L 421 275 L 380 275 Z" fill="rgb(80,197,77)" fill-opacity="0.25098" fill-rule="evenodd"/>
<path d="M 506 271 L 507 274 L 529 275 L 530 273 L 528 272 Z" fill="rgb(80,197,77)" fill-opacity="0.25098" fill-rule="evenodd"/>
<path d="M 317 268 L 306 270 L 286 270 L 283 271 L 283 273 L 305 273 L 312 271 Z" fill="rgb(80,197,77)" fill-opacity="0.25098" fill-rule="evenodd"/>
<path d="M 496 258 L 496 262 L 539 261 L 539 258 Z" fill="rgb(80,197,77)" fill-opacity="0.25098" fill-rule="evenodd"/>
<path d="M 283 251 L 296 251 L 300 249 L 298 248 L 283 249 Z" fill="rgb(80,197,77)" fill-opacity="0.25098" fill-rule="evenodd"/>
<path d="M 539 237 L 538 234 L 533 236 L 496 236 L 497 238 L 537 238 Z" fill="rgb(80,197,77)" fill-opacity="0.25098" fill-rule="evenodd"/>
<path d="M 401 222 L 399 227 L 405 232 L 412 249 L 411 253 L 387 254 L 388 257 L 409 257 L 414 256 L 413 250 Z" fill="rgb(80,197,77)" fill-opacity="0.25098" fill-rule="evenodd"/>
<path d="M 620 221 L 625 220 L 622 219 Z" fill="rgb(80,197,77)" fill-opacity="0.25098" fill-rule="evenodd"/>
<path d="M 296 216 L 307 218 L 305 216 Z" fill="rgb(80,197,77)" fill-opacity="0.25098" fill-rule="evenodd"/>
<path d="M 503 203 L 498 208 L 496 208 L 496 211 L 503 205 Z" fill="rgb(80,197,77)" fill-opacity="0.25098" fill-rule="evenodd"/>
<path d="M 541 202 L 536 207 L 539 206 Z" fill="rgb(80,197,77)" fill-opacity="0.25098" fill-rule="evenodd"/>
<path d="M 619 198 L 607 199 L 599 205 Z" fill="rgb(80,197,77)" fill-opacity="0.25098" fill-rule="evenodd"/>
<path d="M 544 200 L 551 195 L 546 196 Z" fill="rgb(80,197,77)" fill-opacity="0.25098" fill-rule="evenodd"/>
<path d="M 313 195 L 315 197 L 332 204 L 324 197 Z" fill="rgb(80,197,77)" fill-opacity="0.25098" fill-rule="evenodd"/>
<path d="M 478 181 L 476 181 L 477 184 Z" fill="rgb(80,197,77)" fill-opacity="0.25098" fill-rule="evenodd"/>
<path d="M 410 195 L 421 213 L 455 289 L 455 295 L 450 301 L 457 296 L 458 288 L 447 266 L 448 261 L 465 261 L 467 263 L 468 296 L 478 302 L 472 296 L 470 291 L 470 205 L 474 196 L 471 197 L 467 202 L 466 231 L 464 233 L 452 233 L 450 231 L 450 181 L 447 181 L 447 231 L 445 233 L 439 233 L 444 233 L 447 236 L 445 258 L 436 241 L 420 203 L 415 197 Z M 452 233 L 467 234 L 466 258 L 464 259 L 455 259 L 451 258 L 449 256 L 449 237 Z" fill="rgb(80,197,77)" fill-opacity="0.25098" fill-rule="evenodd"/>
<path d="M 418 181 L 420 185 L 420 195 L 421 186 L 420 181 Z" fill="rgb(80,197,77)" fill-opacity="0.25098" fill-rule="evenodd"/>
<path d="M 632 173 L 620 179 L 623 179 Z" fill="rgb(80,197,77)" fill-opacity="0.25098" fill-rule="evenodd"/>
<path d="M 200 157 L 201 159 L 212 163 L 209 160 L 203 157 Z" fill="rgb(80,197,77)" fill-opacity="0.25098" fill-rule="evenodd"/>
<path d="M 665 150 L 662 150 L 655 155 Z" fill="rgb(80,197,77)" fill-opacity="0.25098" fill-rule="evenodd"/>
<path d="M 475 145 L 477 144 L 477 125 Z" fill="rgb(80,197,77)" fill-opacity="0.25098" fill-rule="evenodd"/>
<path d="M 420 125 L 422 145 L 422 141 Z" fill="rgb(80,197,77)" fill-opacity="0.25098" fill-rule="evenodd"/>
<path d="M 449 124 L 447 125 L 447 145 L 450 145 Z" fill="rgb(80,197,77)" fill-opacity="0.25098" fill-rule="evenodd"/>
</svg>