<?xml version="1.0" encoding="UTF-8"?>
<svg id="_图层_1" data-name="图层 1" xmlns="http://www.w3.org/2000/svg" viewBox="0 0 2332.15 1782.75">
  <defs>
    <style>
      .cls-1 {
        fill: #ff6420;
      }

      .cls-2 {
        fill: #fff;
      }

      .cls-3 {
        fill: #2f6097;
      }

      .cls-4 {
        fill: #6fa3b0;
      }

      .cls-5 {
        fill: #6fa3af;
      }

      .cls-6 {
        fill: #356cab;
      }

      .cls-7 {
        fill: #2f6098;
      }

      .cls-8 {
        fill: #ffc23f;
      }

      .cls-9 {
        fill: #177cb0;
      }

      .cls-10 {
        fill: #9d3c44;
      }

      .cls-11 {
        fill: #ffd494;
      }

      .cls-12 {
        fill: #e4d027;
      }

      .cls-13 {
        fill: #ff8b58;
      }

      .cls-14 {
        fill: #ffe92c;
      }

      .cls-15 {
        fill: #285181;
      }

      .cls-16 {
        fill: #759eb3;
      }

      .cls-17 {
        fill: #9d2933;
      }

      .cls-18 {
        fill: #104481;
      }

      .cls-19 {
        fill: #cdaa77;
      }

      .cls-20 {
        fill: #2061ab;
      }

      .cls-21 {
        font-family: SimHei, SimHei;
        font-size: 100px;
      }
    </style>
  </defs>
  <path class="cls-2" d="m1074.68,158.39c-74.51,5.66-148.49,18.79-219.5,42.7l.54.49c-120.92,40.61-233.29,110.23-321.74,203.81-22.67-7.64-49.32-10.28-69.78,4.56-28.43,17.31-37.47,65.67-7.32,86-118.23,163.92-172.56,374.32-146.44,576.32,22.4,178.97,106.39,349.21,233.82,474.17,1.88,1.98,5.71,5.88,7.59,7.86-13.08,16.21-19.87,41.49-6.19,59.51,21.91,29.01,64.88,28.79,95.13,14.89,66.06,47.64,139.23,84.95,216,111.05,259.18,87.15,561.49,41.27,776.96-132.48,23.9,3.9,51.9,5.22,71.28-12.36,19.22-15.61,24.28-43.41,16.69-66.43,130.99-140.45,213.74-328.82,219.93-523.4.54-3.74,1.62-11.21,2.1-15-35.64-13.3-71.23-26.82-107.03-39.67-.11-27.26-3.02-54.29-6.3-81.27,31.44-8.08,63.64-13.57,94.7-23.19,10.12-4.95,4.31-17.69,3.82-26.21-25.41-130.78-81.51-256.51-166.36-358.28,7.21-23.08,9.64-51.38-8.88-69.84-16.31-21.71-46.41-23.96-70.15-15.72-44.79-43.03-95.62-79.07-148.87-110.23-105.47-60.12-223.76-96.05-344.14-105.45-1.94-30-33.27-49.51-60.89-46.38-26-1.32-48.99,19.51-54.97,44.56Z"/>
  <path class="cls-2" d="m986.22,181.47c20.57-3.35,41.19-6.37,61.86-8.68-.7,31.6-1.24,63.19-1.62,94.79-14.7,1.21-29.29,3.08-43.88,5.06-5.92-30.28-11.2-60.72-16.37-91.16Z"/>
  <path class="cls-2" d="m1188.87,189.06c3.02-7.69,6.95-15,12.49-21.27-1.88,33.41-9.31,66.11-15.08,98.97-37.53-2.53-75.16-3.24-112.74-1.26.05-23.08.38-46.27,3.07-69.24,13.41,21.98,39.57,28.35,63.37,26.16,20.94.55,43.18-11.76,48.89-33.35Z"/>
  <path class="cls-2" d="m1228.71,177.3c16.47,1.43,32.9,4.18,48.99,8.08-8.72,30-17.17,60.06-25.41,90.17-13.03-1.98-26-3.9-38.98-5.6,5.33-30.83,10.77-61.71,15.4-92.65Z"/>
  <path class="cls-2" d="m914.24,198.45c15.13-4.29,30.42-8.24,45.98-10.61,4.68,29.95,10.71,59.62,15.29,89.57-15.24,3.13-30.37,6.54-45.44,10-5.28-29.67-10.55-59.29-15.83-88.96Z"/>
  <path class="cls-2" d="m1278.03,280.93c8.83-30.11,16.37-60.67,26.27-90.45,16.96,4.78,33.87,9.56,50.72,14.78-10.66,28.96-21.05,58.03-31.82,86.93-15.02-4.01-30.1-7.86-45.17-11.26Z"/>
  <path class="cls-2" d="m867.61,213.24c6.84-2.36,13.78-4.62,20.78-6.87,4.47,29.01,11.95,57.53,14.48,86.77-4.31,2.86-8.78,5.28-13.41,7.31-9.74,3.13-19.49,6.32-29.45,8.3-9.37-27.75-15.02-56.6-21.97-85.01,9.8-3.57,19.65-7.14,29.56-10.5Z"/>
  <path class="cls-2" d="m1341.29,313.35c15.83-32.15,25.2-67.09,39.03-100.12,22.29,8.35,44.42,17.14,66.06,27.09-14.54,26.21-28.64,52.7-42.75,79.13-6.62-1.54-13.19-3.08-19.65-4.56-.32,3.68-.97,10.99-1.29,14.62,39.41,16.49,77.26,36.76,113.17,60.23,133.2,87.1,236.3,221.94,283.46,376.35,21.37,67.86,30.8,139.19,31.28,210.4,7.86,1.92,15.77,3.85,23.85,5.82,1.29-3.24,3.88-9.67,5.17-12.86,26,6.21,50.34,17.97,75.59,26.82-.65,13.02-1.4,26.1-2.42,39.12-1.51,21.05-4.36,41.93-7.27,62.81-25.36-6.26-50.34-13.74-75.7-19.78.75-8.19,1.56-16.32,2.48-24.45-8.78-1.81-17.61-3.57-26.33-5.33-2.32,16.16-4.63,32.26-7.43,48.3-2.85,14.4-6.19,28.63-9.53,42.86,32.41,14.84,64.98,29.23,97.61,43.63-10.77,40.22-25.36,79.24-41.94,117.26-31.6-16.76-59.28-42.2-94.7-50.28-72.95,169.96-218.05,303.87-387.75,368.5-137.08,53.19-290.89,60.5-431.9,18.9-200.5-56.82-373.7-209.09-452.84-406.25-27.62,15.5-55.99,30.17-86.2,39.73-18.68-37.37-29.18-78.63-38.6-119.3,22.67-5.5,44.69-16.38,68.54-15.06,8.4.93,15.77-3.79,22.94-7.58-11.47-52.42-18.47-106-18.14-159.8-9.1-1.43-18.14-2.86-27.14-4.18.32,13.85.7,27.69,1.29,41.54-22.77-.49-45.49-1.26-68.21-1.76-2.64-56.54,1.24-113.31,10.34-169.14,21.59,4.51,43.13,9.18,64.82,13.41.38,3.63,1.13,10.88,1.51,14.45,8.18,1.98,16.37,3.96,24.66,5.99,28.8-202.27,151.99-387.18,324.38-490.71-16.8-29.62-34.4-58.74-51.74-87.98,34.19-21.71,70.1-40.55,107.14-56.65,7.38,28.46,14.16,57.04,22.18,85.28-11.31,4.73-22.56,9.51-33.81,14.34,1.88,5.28,3.82,10.55,5.81,15.88,28-12.47,55.78-25.61,84.8-35.5,144.13-51.65,304.79-51.82,449.24-1.21Zm-361.91,74.73c7.05,1.26,14.21,2.47,21.37,3.63-.38,30.94-2.15,61.82-1.08,92.7,14.81.66,29.67,1.48,44.42-.27,2.91-30.88,2.53-61.98,4.09-92.92,4.36-.33,13.03-.99,17.39-1.32-10.07-27.42-25.47-52.31-40.16-77.31-17.66,23.57-32.79,49.13-46.03,75.5Zm152.2-72.75c-14.7,24.23-33.22,46.98-41.4,74.62,4.85.27,14.54.77,19.38,1.04-.16,31.1-1.13,62.2-.86,93.31,15.13.88,30.26.88,45.44,0,.81-30.72,2.75-61.38,3.82-92.1,3.61-.71,10.71-2.14,14.32-2.86-.16-16.81-13.51-31.76-20.3-47.15-6.68-8.74-8.94-23.63-20.41-26.87Zm66.33,76.38c5.17.22,15.56.77,20.73,1.04,1.4,31.16-2.53,62.48.38,93.58,14.32,2.03,28.8,1.26,43.29,1.26,3.71-31.16,2.48-62.59,4.25-93.85,5.87-.77,11.79-1.59,17.71-2.36-11.36-27.04-25.68-52.64-41.46-77.21-15.67,25.39-33.27,49.78-44.9,77.53Zm245.45,92.48c4.31,5.5,8.67,10.99,13.08,16.54-20.08,21.49-42.16,41.21-61.05,63.85,2.26,14.67,20.3,23.41,29.88,34.4,22.13-21.16,43.61-42.97,65.52-64.35,3.34,2.69,9.96,8.02,13.3,10.72,13.19-26.49,18.09-56.16,24.12-84.9-28.59,6.48-58.04,11.15-84.85,23.74Zm-776.47-4.07c9.15,26.87,15.56,54.95,27.94,80.56,7.38.93,11.74-7.14,17.61-10.28,19.33,13.9,36.34,30.66,54.49,46.1,5.44,3.3,10.12,11.15,17.44,8.96,10.88-9.07,18.36-21.43,26.87-32.7-22.45-20.72-45.39-40.88-67.84-61.6,2.91-5.06,5.87-10.17,8.83-15.22-27.51-9.51-56.37-14.56-85.34-15.83Zm855.4,80.34c3.93,5.99,7.97,11.92,12.01,17.91-19.49,20.94-40.97,40-59.49,61.87.48,15.17,18.2,28.79,30.85,33.63,23.04-18.52,41.35-42.53,64.72-60.67,3.39,2.2,10.12,6.59,13.51,8.79,11.25-26.98,17.5-55.77,22.83-84.46-28.43,6.48-57.23,12.03-84.42,22.91Zm-925.5,3.19c7.81,28.96,14.75,59.07,30.15,85.06,4.63-4.89,9.26-9.84,13.94-14.73,23.47,19.4,46.03,39.84,69.35,59.4,11.14-10.66,20.94-22.64,29.83-35.33-21.64-21.43-44.53-41.43-67.19-61.65,1.78-4.45,5.38-13.41,7.16-17.86-27.57-5.99-55.19-11.98-83.24-14.89Zm1002.11,77.53c3.39,3.85,10.23,11.54,13.62,15.39-20.14,21.98-42.69,41.71-61.75,64.57,4.09,13.63,18.36,26.1,31.01,32.31,22.56-19.4,42.64-41.65,64.45-61.98,5.17,3.08,10.39,6.15,15.67,9.23,9.48-27.26,17.07-55.22,21.75-83.74-28.59,6.43-58.42,10.44-84.74,24.23Zm-1072.11,9.45c8.51,27.04,15.72,54.79,27.67,80.5,7.59,1.98,12.06-6.65,17.77-9.95,23.64,18.46,45.71,38.74,68.54,58.25,11.79-10.44,21.54-22.91,30.15-36.16-22.88-20.55-46.14-40.72-68-62.42,3.02-4.84,6.08-9.73,9.21-14.56-27.78-8.41-56.42-13.96-85.34-15.66Zm1009.6,601.7c2.1,24.34,4.15,48.8,9.53,72.64,6.35,2.25,12.65-1.04,18.84-2.58,15.77,18.52,28.86,39.4,45.87,56.82,12.98-2.64,21.64-14.45,32.03-21.93-12.38-23.08-30.15-42.42-44.58-64.07,1.99-3.24,5.98-9.62,7.91-12.86-21.97-12.25-45.44-21.54-69.61-28.02Zm-826.49,8.19c-19.65,20.33-36.29,43.52-54.81,64.9-6.3-1.48-12.54-2.97-18.74-4.4-6.73,27.97-11.74,56.49-12.54,85.39,27.46-8.74,55.02-17.69,80.92-30.61-3.02-7.69-15.18-15.88-7.48-24.34,13.62-18.68,29.29-35.66,43.13-54.13,3.07-4.01,8.56-11.7,2.75-15.83-9.85-8.13-19.44-21.71-33.22-20.99Zm716.23,70.56c12.28,15.94,23.37,32.97,37.74,47.09,3.82,8.19,8.88,15.72,12.71,24.01-1.62,9.62-5.76,20.5,7.16,23.24,22.88,8.19,45.66,16.76,69.08,23.13-3.45-29.62-3.93-61.1-16.53-88.52-6.03.71-14.97,13.9-20.51,5-19.49-21.1-34.89-45.99-56.59-64.9-11.58,9.73-22.67,19.95-33.06,30.94Zm-686.45,64.79c-6.51-1.21-12.98-2.42-19.38-3.52-6.03,27.97-10.66,56.32-12.76,84.9,28-8.08,55.13-18.9,82-30.22-4.2-6.26-8.35-12.47-12.54-18.63,17.66-23.46,37.85-45.06,54.11-69.57-6.51-14.67-22.72-21.65-34.89-30.77-19.17,22.36-38.12,44.84-56.53,67.81Zm616.68.49c1.18,24.73,4.47,49.35,9.37,73.63,6.25-1.48,12.54-3.35,19.06-4.18,16.15,18.68,29.83,39.4,46.03,58.08,11.74-7.25,22.56-15.99,31.71-26.49-14.59-20.11-29.93-39.73-43.83-60.34,1.99-5.17,3.98-10.33,5.98-15.5-22.07-10.17-44.26-20.88-68.32-25.22Zm-532.53,51.82c2.05,5.39,4.68,10.55,6.89,16.05-12.17,22.09-34.78,36.87-45.23,59.84,7.32,9.62,16.69,17.47,26.87,23.9,21.05-13.85,34.56-37.15,52.6-54.84,3.93.93,11.84,2.75,15.77,3.68,5.92-23.85,10.66-48.08,12.54-72.64-23.74,5.99-47.49,12.97-69.45,24.01Z"/>
  <path class="cls-2" d="m1426.03,330.22c14.38-25.61,27.03-52.15,42.16-77.26,15.94,3.02,31.17,12.69,44.15,22.86-14.59,25.39-32.52,48.63-48.56,73.14-12.6-6.21-25.2-12.47-37.74-18.74Z"/>
  <path class="cls-2" d="m1529.73,291.21c20.14-2.03,36.29,17.58,51.74,28.63-15.94,24.07-35.59,45.28-53.3,67.92-6.03-3.74-11.95-7.42-17.87-11.15-8.51-5.39-17.01-10.77-25.47-16.1,15.29-22.86,32.3-44.67,44.9-69.29Z"/>
  <path class="cls-2" d="m641.27,336.32c14.43-11.1,29.18-21.82,44.36-31.87,13.78,23.68,28,47.15,41.62,71-12.87,8.74-25.68,17.47-38.33,26.43-16.15-21.65-31.28-44.07-47.65-65.56Z"/>
  <path class="cls-2" d="m1547.55,401.77c17.66-23.13,35.91-45.77,54.49-68.19,13.14,10.11,26,20.72,37.8,32.48-20.19,19.84-39.14,40.94-58.74,61.32-11.2-8.57-22.34-17.14-33.54-25.61Z"/>
  <path class="cls-2" d="m585.55,383.2c12.49-10.39,23.8-22.47,37.85-30.83,16.85,20.11,30.37,42.81,46.73,63.41-10.88,9.34-21.97,18.35-33.54,26.76-16.47-20.28-34.62-39.01-51.04-59.35Z"/>
  <path class="cls-2" d="m1648.55,388.69c3.93-5.17,10.39-5.11,16.15-5.77-17.71,17.91-31.12,45.77-19.87,70.89,19.33,34.56,68.05,40.22,100.46,23.57,10.39,12.03,19.97,24.89,29.07,38.08-23.04,14.89-45.87,30.06-68.86,45-31.6-43.25-67.78-82.81-107.41-118.47,17.07-17.53,33-36.16,50.45-53.3Z"/>
  <path class="cls-2" d="m551.03,421.22c5.71-7.53,11.63-14.89,17.66-22.2,17.55,19.56,34.46,39.78,53.19,58.3-42.69,39.23-78.39,85.34-111.93,132.65-21.97-10.06-41.46-24.73-61.97-37.37,9.31-14.34,18.68-28.68,27.62-43.36,16.69.16,33.87,2.69,50.29-1.7,33.81-9.01,50.39-60.5,25.14-86.33Z"/>
  <path class="cls-2" d="m1715.91,575.3c24.17-13.02,45.98-29.95,69.72-43.8,8.18,13.24,16.15,26.65,23.53,40.39-23.9,12.69-45.82,28.85-69.94,40.99-7.54-12.69-15.34-25.17-23.31-37.59Z"/>
  <path class="cls-2" d="m412.99,619.32c6.89-17.64,16.15-34.12,25.68-50.33,20.41,12.75,40.92,25.44,61.32,38.3-7.86,14.01-15.67,28.08-23.37,42.26-21.16-10.17-42.21-20.66-63.64-30.22Z"/>
  <path class="cls-2" d="m1749.02,630.36c23.04-14.51,46.03-29.01,69.61-42.64,7.91,14.62,15.4,29.56,22.34,44.78-23.53,12.69-46.95,25.44-70.42,38.19-6.95-13.57-14-27.09-21.54-40.33Z"/>
  <path class="cls-2" d="m404.65,633.82c21.64,10.06,43.23,20.33,64.45,31.27-6.78,14.67-13.35,29.45-20.46,43.96-21.91-8.13-44.04-15.66-66.38-22.42,7.65-17.53,14.86-35.22,22.4-52.81Z"/>
  <path class="cls-2" d="m1777.12,686.3c24.6-10.99,47.54-25.55,71.93-37.04,7.38,17.97,14.48,36.05,20.73,54.46-24.71,9.12-48.89,19.67-73.38,29.34-6.19-15.66-12.44-31.32-19.27-46.76Z"/>
  <path class="cls-2" d="m361.74,750.54c4.85-16.98,10.18-33.74,16.42-50.22,22.07,7.86,44.36,15.11,66.44,22.91-5.76,14.29-10.82,28.79-15.4,43.52-22.56-5.11-44.96-10.88-67.46-16.21Z"/>
  <path class="cls-2" d="m1802.53,747.57c24.28-8.9,48.13-19.01,71.98-29.07,6.51,17.47,11.68,35.44,16.26,53.63-24.5,8.9-48.35,19.78-73.38,26.93-6.89-16.54-10.93-34.07-14.86-51.49Z"/>
  <path class="cls-2" d="m357.27,765.21c22.72,2.36,44.53,9.73,66.87,14.12-3.23,19.34-8.24,38.36-12.22,57.59-22.61-4.23-45.06-9.18-67.46-14.18,4.2-19.18,8.45-38.36,12.81-57.53Z"/>
  <path class="cls-2" d="m1819.82,816.86c24.34-10.94,49.64-19.34,74.35-29.29,4.04,16.54,7.65,33.13,10.44,49.95-25.41,4.89-50.18,14.45-76.02,16.16-3.88-12.03-5.92-24.56-8.78-36.82Z"/>
  <path class="cls-2" d="m333.04,1016.28c22.61.99,45.23,1.37,67.84,2.31.97,12.75,2.15,25.55,3.34,38.36-22.61,2.75-45.33,5.22-67.95,8.13-1.51-16.21-2.75-32.48-3.23-48.8Z"/>
  <path class="cls-2" d="m338.26,1076.17c22.56-2.42,45.12-5.17,67.78-7.31,2.58,15,5.6,30,7.86,45.11-.59,1.59-1.78,4.78-2.32,6.37-20.89,5.71-41.62,11.76-62.4,17.8-2.85-13.46-5.65-26.93-8.45-40.33-.92-7.25-1.78-14.45-2.48-21.65Z"/>
  <path class="cls-2" d="m1826.92,1092.38c25.3,6.04,50.29,13.68,75.64,19.95-3.12,18.3-7,36.49-11.14,54.57-24.71-10.28-49.16-21.21-73.33-32.7,3.07-13.9,5.98-27.86,8.83-41.82Z"/>
  <path class="cls-2" d="m396.78,1287.68c21.7-8.85,43.13-18.24,64.66-27.53,6.3,12.64,12.54,25.33,18.79,38.08-21.75,8.79-40.38,23.79-61.86,33.13-10.12-12.8-14.7-29.07-21.59-43.69Z"/>
  <path class="cls-2" d="m1767.05,1276.03c23.26,12.91,45.33,27.86,68.43,41.1-5.65,14.45-12.54,28.24-19.87,41.87-23.04-14.34-45.49-29.56-67.95-44.78,6.51-12.69,13.03-25.39,19.38-38.19Z"/>
  <path class="cls-2" d="m426.02,1348.45c21.16-10.99,41.4-23.63,62.18-35.33,9.21,15.22,18.57,30.44,28,45.61-21.21,12.36-42.37,24.73-64.23,35.88-8.88-15.28-17.66-30.61-25.95-46.16Z"/>
  <path class="cls-2" d="m1712.84,1369.72c9.58-11.1,14-30.55,27.19-36.6,22.4,13.19,43.34,28.85,65.36,42.75-8.72,14.89-17.77,29.56-27.03,44.13-22.67-15.66-43.83-33.3-65.52-50.28Z"/>
  <path class="cls-2" d="m462.15,1409.94c21.8-11.54,42.96-24.23,64.61-35.88,7.21,9.45,14.75,18.68,20.78,29.01-18.2,16.27-37.42,32.2-58.58,44.29-10.12-11.54-18.14-24.78-26.81-37.42Z"/>
  <path class="cls-2" d="m1700.99,1387.47c21.86,15.28,42.8,32.09,63.37,49.24-6.73,15.5-18.79,27.53-30.04,39.62-19.71-19.12-40.49-37.04-60.68-55.61,9.05-11.15,17.34-22.91,27.35-33.24Z"/>
  <path class="cls-2" d="m501.99,1464.95c20.08-15.06,39.57-30.94,59.92-45.61,8.88,10.61,17.98,21.05,27.19,31.43-17.82,18.3-35.37,36.82-53.14,55.12-11.84-13.19-23.15-26.87-33.97-40.94Z"/>
  <path class="cls-2" d="m1659.37,1437.14c21.11,18.35,41.62,37.42,62.45,56.1-5.49,5.82-10.93,11.65-16.37,17.47-31.66-25.66-90.99-18.02-105.9,24.23-10.23,21.65-1.72,46.93,15.29,62.04-17.5,13.52-35.32,26.6-53.68,38.74-14.97-25-29.93-50.06-45.01-74.95,52.22-35.33,101.27-75.94,143.21-123.64Z"/>
  <path class="cls-2" d="m603.85,1466.98c43.72,41.21,90.83,78.58,142.03,109.74-16.85,21.54-31.07,45.17-48.94,65.83-16.1-7.97-30.1-19.56-44.36-30.44,13.84-20.44,11.09-50.39-7.86-66.49-21.43-18.63-53.35-16.98-77.15-4.07-3.61-7.2-13.73-12.86-13.14-21.38,14.64-19.4,33.38-35.06,49.42-53.19Z"/>
  <path class="cls-2" d="m1450.05,1599.19c14.64-8.46,28.97-17.69,44.42-24.62,16.91,23.85,30.85,49.84,45.71,75.17-16.31,10.22-32.95,19.84-50.02,28.63-13.46-26.32-26.54-52.92-40.11-79.18Z"/>
  <path class="cls-2" d="m717.4,1656.28c17.55-21.65,30.63-47.81,50.82-66.65,14.91,6.04,29.4,13.24,43.07,21.82-12.28,25.61-27.19,49.78-41.51,74.24-17.77-9.29-35.32-18.96-52.39-29.4Z"/>
  <path class="cls-2" d="m1379.84,1629.03c15.29-5.71,30.1-12.91,45.71-17.75,17.5,23.74,27.24,53.08,41.94,78.85-18.63,9.23-37.63,17.58-56.85,25.39-10.34-28.79-21.27-57.37-30.8-86.49Z"/>
  <path class="cls-2" d="m834.55,1621.55c15.4,5.06,30.58,10.61,45.87,15.99-9.21,27.97-20.14,55.22-29.5,83.14-19.71-6.7-38.66-15.17-57.77-23.13,12.71-25.99,28.1-50.39,41.4-76Z"/>
  <path class="cls-2" d="m1301.88,1653.59c17.77-4.56,35.37-9.73,52.98-15,10.18,29.12,21.8,57.64,30.53,87.26-20.08,5.99-40,12.69-60.35,17.86-7.27-30.17-16.37-59.84-23.15-90.12Z"/>
  <path class="cls-2" d="m884.09,1703.81c7.05-19.4,14.54-38.63,21.86-57.97,4.63,1.32,13.89,3.85,18.52,5.11,10.77,2.91,21.59,5.44,32.47,8.08-5.6,29.89-12.76,59.4-19.22,89.13-20.78-5.44-41.46-11.48-62.02-17.69,2.69-8.9,5.38-17.8,8.4-26.65Z"/>
  <path class="cls-2" d="m1226.45,1668.48c16.31-2.47,32.63-5.28,48.94-8.08,7.97,30.06,16.37,60.06,23.74,90.28-21.59,4.78-43.29,8.9-64.98,12.86-3.82-31.54-6.35-63.3-7.7-95.06Z"/>
  <path class="cls-2" d="m963.61,1753.71c7.65-29.67,12.76-60.01,21.16-89.46,18.52,3.63,37.26,6.15,56.05,8.35-4.58,30.83-9.74,61.6-14.43,92.43-21.11-2.97-42.1-6.32-62.78-11.32Z"/>
  <path class="cls-2" d="m1068.38,1674.58c43.39,1.98,86.95,2.2,130.18-2.69,2.21,31.93,6.68,63.69,5.98,95.72-50.02,3.79-100.36,5.44-150.37.49,3.28-31.38,9.05-62.42,14.21-93.53Z"/>
  <path d="m1074.68,158.39c5.98-25.06,28.97-45.88,54.97-44.56,27.62-3.13,58.95,16.38,60.89,46.38-.27,9.62-.86,19.23-1.67,28.85-5.71,21.6-27.94,33.9-48.89,33.35-23.8,2.2-49.96-4.18-63.37-26.16-2.53-12.42-3.34-25.22-1.94-37.86Zm26.06-5.39c-6.08,21.87,1.94,47.7,24.23,55.72,17.61,7.97,32.03-7.86,43.07-19.51,7.05-24.12-.11-53.41-23.04-65.5-20.19-6.81-36.45,12.75-44.26,29.29Z"/>
  <path d="m1683.55,375.89c23.74-8.24,53.84-5.99,70.15,15.72,18.52,18.46,16.1,46.76,8.88,69.84-5.76,5.33-11.41,10.77-17.28,15.94-32.41,16.65-81.14,10.99-100.46-23.57-11.25-25.11,2.15-52.97,19.87-70.89,6.19-2.47,12.44-4.78,18.84-7.03Zm11.9,6.37c-34.78,12.86-36.07,67.53-4.68,85.17,17.12,13.41,44.04,4.4,50.45-16.65,16.96-30.28-13.46-73.91-45.76-68.52Z"/>
  <path d="m464.19,409.96c20.46-14.84,47.11-12.2,69.78-4.56,5.65,5.22,11.52,10.33,17.07,15.83,25.25,25.83,8.67,77.31-25.14,86.33-16.42,4.4-33.6,1.87-50.29,1.7-6.35-4.4-12.65-8.68-18.74-13.3-30.15-20.33-21.11-68.69,7.32-86Zm20.51,2.91l-.11,2.09c-16.74,12.47-20.19,35.94-14.21,55.06,8.72,17.2,27.03,32.04,47.06,26.65,10.61-10.94,21.21-23.35,21.97-39.62,5.33-29.4-27.89-57.92-54.7-44.18Z"/>
  <path d="m1599.56,1534.95c14.91-42.26,74.24-49.89,105.9-24.23,5.44,5.82,10.71,11.87,16.26,17.75,7.59,23.02,2.53,50.83-16.69,66.43-19.38,17.58-47.38,16.27-71.28,12.36-6.46-3.13-12.81-6.65-18.9-10.28-17.01-15.11-25.52-40.39-15.29-62.04Zm42.86-26.32c-19.6,12.64-25.41,37.75-22.56,59.95,8.08,16.05,23.69,30.83,42.48,29.62,16.31-.55,27.94-14.23,36.29-27.15,8.94-20.17,2.37-45.55-16.47-56.87-11.84-6.59-27.24-15.66-39.73-5.55Z"/>
  <path d="m567.56,1541.55c23.8-12.91,55.72-14.56,77.15,4.07,18.95,16.1,21.7,46.05,7.86,66.49-3.88,5.55-7.91,11.04-11.79,16.59-30.26,13.9-73.22,14.12-95.13-14.89-13.68-18.02-6.89-43.3,6.19-59.51-1.88-1.98-5.71-5.88-7.59-7.86,1.24,1.04,3.71,3.08,4.95,4.12,6.19-2.86,12.17-6.04,18.36-9.01Zm-3.07,36.98c-2.21,13.35,4.04,25.33,11.41,35.83,12.81,9.95,30.85,17.8,45.49,6.65,18.68-8.3,21.21-31.43,17.98-49.51l-2.75,4.45,2.15-7.47c-9.53-10.83-16.96-25.55-31.12-30.55-21.11,1.32-43.88,17.03-43.18,40.61Z"/>
  <path class="cls-1" d="m1100.74,153.01c7.81-16.54,24.07-36.1,44.26-29.29,22.94,12.09,30.1,41.38,23.04,65.5-14.43-1.76-29.23-2.36-42.91-7.69-12.49-4.45-17.93-17.97-24.39-28.52Z"/>
  <path class="cls-15" d="m855.17,201.09c71.01-23.9,144.99-37.04,219.5-42.7-1.4,12.64-.59,25.44,1.94,37.86-2.69,22.97-3.02,46.16-3.07,69.24,37.58-1.98,75.21-1.26,112.74,1.26,5.76-32.86,13.19-65.56,15.08-98.97-5.55,6.26-9.48,13.57-12.49,21.27.81-9.62,1.4-19.23,1.67-28.85,120.39,9.4,238.67,45.33,344.14,105.45-1.67,8.52-3.12,17.09-4.95,25.55-12.6,24.62-29.61,46.43-44.9,69.29,8.45,5.33,16.96,10.72,25.47,16.1-4.79,4.4-9.58,8.79-14.43,13.13-35.91-23.46-73.76-43.74-113.17-60.23.32-3.63.97-10.94,1.29-14.62,6.46,1.48,13.03,3.02,19.65,4.56,14.11-26.43,28.21-52.92,42.75-79.13-21.64-9.95-43.77-18.74-66.06-27.09-13.84,33.03-23.2,67.97-39.03,100.12-144.45-50.61-305.11-50.44-449.24,1.21-.65-3.57-1.94-10.61-2.58-14.12,4.63-2.03,9.1-4.45,13.41-7.31-2.53-29.23-10.01-57.75-14.48-86.77-7,2.25-13.94,4.51-20.78,6.87-2.96-2.91-8.94-8.74-11.9-11.65l-.54-.49Zm131.05-19.62c5.17,30.44,10.44,60.88,16.37,91.16,14.59-1.98,29.18-3.85,43.88-5.06.38-31.6.92-63.19,1.62-94.79-20.67,2.31-41.29,5.33-61.86,8.68Zm242.49-4.18c-4.63,30.94-10.07,61.82-15.4,92.65,12.98,1.7,25.95,3.63,38.98,5.6,8.24-30.11,16.69-60.17,25.41-90.17-16.1-3.9-32.52-6.65-48.99-8.08Zm-314.48,21.16c5.28,29.67,10.55,59.29,15.83,88.96,15.08-3.46,30.2-6.87,45.44-10-4.58-29.95-10.61-59.62-15.29-89.57-15.56,2.36-30.85,6.32-45.98,10.61Zm363.79,82.48c15.08,3.41,30.15,7.25,45.17,11.26,10.77-28.9,21.16-57.97,31.82-86.93-16.85-5.22-33.76-10-50.72-14.78-9.91,29.78-17.44,60.34-26.27,90.45Zm148,49.29c12.54,6.26,25.14,12.53,37.74,18.74,16.04-24.51,33.97-47.75,48.56-73.14-12.98-10.17-28.21-19.84-44.15-22.86-15.13,25.11-27.78,51.65-42.16,77.26Z"/>
  <path class="cls-13" d="m1124.96,208.73c-22.29-8.02-30.31-33.85-24.23-55.72,6.46,10.55,11.9,24.07,24.39,28.52,13.68,5.33,28.48,5.93,42.91,7.69-11.04,11.65-25.47,27.48-43.07,19.51Z"/>
  <path class="cls-18" d="m533.97,405.4c88.46-93.58,200.82-163.2,321.74-203.81,2.96,2.91,8.94,8.74,11.9,11.65-9.91,3.35-19.76,6.92-29.56,10.5,6.95,28.41,12.6,57.26,21.97,85.01,9.96-1.98,19.71-5.17,29.45-8.3.65,3.52,1.94,10.55,2.58,14.12-29.02,9.89-56.8,23.02-84.8,35.5-1.99-5.33-3.93-10.61-5.81-15.88,11.25-4.84,22.5-9.62,33.81-14.34-8.02-28.24-14.81-56.82-22.18-85.28-37.04,16.1-72.95,34.95-107.14,56.65,17.34,29.23,34.94,58.36,51.74,87.98-172.39,103.53-295.58,288.43-324.38,490.71-8.29-2.03-16.47-4.01-24.66-5.99-.38-3.57-1.13-10.83-1.51-14.45-21.7-4.23-43.23-8.9-64.82-13.41-9.1,55.83-12.98,112.59-10.34,169.14,22.72.49,45.44,1.26,68.21,1.76-.59-13.85-.97-27.69-1.29-41.54,8.99,1.32,18.04,2.75,27.14,4.18-.32,53.8,6.68,107.37,18.14,159.8-7.16-8.85-14.75-17.31-23.37-24.73-1.72,2.31-5.17,6.98-6.89,9.34-2.26-15.11-5.28-30.11-7.86-45.11-22.67,2.14-45.23,4.89-67.78,7.31.7,7.2,1.56,14.4,2.48,21.65-3.18-8.57-6.62-16.98-10.01-25.39-6.78-.05-13.57-.11-20.3-.16-26.11-202,28.21-412.4,146.44-576.32,6.08,4.62,12.38,8.9,18.74,13.3-8.94,14.67-18.31,29.01-27.62,43.36,20.51,12.64,40,27.31,61.97,37.37,33.54-47.31,69.24-93.42,111.93-132.65-18.74-18.52-35.64-38.74-53.19-58.3-6.03,7.31-11.95,14.67-17.66,22.2-5.55-5.5-11.41-10.61-17.07-15.83Zm107.3-69.07c16.37,21.49,31.5,43.91,47.65,65.56,12.65-8.96,25.47-17.69,38.33-26.43-13.62-23.85-27.84-47.31-41.62-71-15.18,10.06-29.93,20.77-44.36,31.87Zm-55.72,46.87c16.42,20.33,34.56,39.07,51.04,59.35,11.58-8.41,22.67-17.42,33.54-26.76-16.37-20.61-29.88-43.3-46.73-63.41-14.05,8.35-25.36,20.44-37.85,30.83Zm-172.56,236.12c21.43,9.56,42.48,20.06,63.64,30.22,7.7-14.18,15.51-28.24,23.37-42.26-20.41-12.86-40.92-25.55-61.32-38.3-9.53,16.21-18.79,32.7-25.68,50.33Zm-8.35,14.51c-7.54,17.58-14.75,35.28-22.4,52.81,22.34,6.76,44.47,14.29,66.38,22.42,7.11-14.51,13.68-29.29,20.46-43.96-21.21-10.94-42.8-21.21-64.45-31.27Zm-42.91,116.71c22.5,5.33,44.9,11.1,67.46,16.21,4.58-14.73,9.64-29.23,15.4-43.52-22.07-7.8-44.36-15.06-66.44-22.91-6.25,16.49-11.58,33.24-16.42,50.22Zm-4.47,14.67c-4.36,19.18-8.61,38.36-12.81,57.53,22.4,5,44.85,9.95,67.46,14.18,3.98-19.23,8.99-38.25,12.22-57.59-22.34-4.4-44.15-11.76-66.87-14.12Zm-24.23,251.07c.48,16.32,1.72,32.59,3.23,48.8,22.61-2.91,45.33-5.39,67.95-8.13-1.18-12.8-2.37-25.61-3.34-38.36-22.61-.93-45.23-1.32-67.84-2.31Z"/>
  <path class="cls-7" d="m1534.68,265.66c53.25,31.16,104.07,67.2,148.87,110.23-6.41,2.25-12.65,4.56-18.84,7.03-5.76.66-12.22.6-16.15,5.77-17.44,17.14-33.38,35.77-50.45,53.3,39.63,35.66,75.81,75.23,107.41,118.47,22.99-14.95,45.82-30.11,68.86-45-9.1-13.19-18.68-26.05-29.07-38.08,5.87-5.17,11.52-10.61,17.28-15.94,84.85,101.77,140.95,227.49,166.36,358.28.48,8.52,6.3,21.27-3.82,26.21-31.07,9.62-63.26,15.11-94.7,23.19,3.28,26.98,6.19,54.02,6.3,81.27,35.8,12.86,71.39,26.38,107.03,39.67-.48,3.79-1.56,11.26-2.1,15-10.93,8.74-20.67,18.9-28.86,30.33,1.02-13.02,1.78-26.1,2.42-39.12-25.25-8.85-49.59-20.61-75.59-26.82-1.29,3.19-3.88,9.62-5.17,12.86-8.08-1.98-15.99-3.9-23.85-5.82-.48-71.22-9.91-142.54-31.28-210.4-47.16-154.41-150.27-289.26-283.46-376.35,4.85-4.34,9.64-8.74,14.43-13.13,5.92,3.74,11.84,7.42,17.87,11.15,17.71-22.64,37.36-43.85,53.3-67.92-15.45-11.04-31.6-30.66-51.74-28.63,1.83-8.46,3.28-17.03,4.95-25.55Zm12.87,136.11c11.2,8.46,22.34,17.03,33.54,25.61,19.6-20.39,38.55-41.49,58.74-61.32-11.79-11.76-24.66-22.36-37.8-32.48-18.57,22.42-36.83,45.06-54.49,68.19Zm168.36,173.53c7.97,12.42,15.77,24.89,23.31,37.59,24.12-12.14,46.03-28.3,69.94-40.99-7.38-13.74-15.34-27.15-23.53-40.39-23.74,13.85-45.55,30.77-69.72,43.8Zm33.11,55.06c7.54,13.24,14.59,26.76,21.54,40.33,23.47-12.75,46.89-25.5,70.42-38.19-6.95-15.22-14.43-30.17-22.34-44.78-23.58,13.63-46.57,28.13-69.61,42.64Zm28.1,55.94c6.84,15.44,13.08,31.1,19.27,46.76,24.5-9.67,48.67-20.22,73.38-29.34-6.25-18.41-13.35-36.49-20.73-54.46-24.39,11.48-47.32,26.05-71.93,37.04Zm25.41,61.27c3.93,17.42,7.97,34.95,14.86,51.49,25.04-7.14,48.89-18.02,73.38-26.93-4.58-18.19-9.74-36.16-16.26-53.63-23.85,10.06-47.7,20.17-71.98,29.07Zm17.28,69.29c2.85,12.25,4.9,24.78,8.78,36.82,25.84-1.7,50.61-11.26,76.02-16.16-2.8-16.81-6.41-33.41-10.44-49.95-24.71,9.95-50.02,18.35-74.35,29.29Z"/>
  <g>
    <path class="cls-9" d="m979.38,388.09c13.24-26.38,28.37-51.93,46.03-75.5,14.7,25,30.1,49.89,40.16,77.31-4.36.33-13.03.99-17.39,1.32-1.56,30.94-1.18,62.04-4.09,92.92-14.75,1.76-29.61.93-44.42.27-1.08-30.88.7-61.76,1.08-92.7-7.16-1.15-14.32-2.36-21.37-3.63Z"/>
    <path class="cls-9" d="m1131.59,315.33c11.47,3.24,13.73,18.13,20.41,26.87,6.78,15.39,20.14,30.33,20.3,47.15-3.61.71-10.71,2.14-14.32,2.86-1.08,30.72-3.02,61.38-3.82,92.1-15.18.88-30.31.88-45.44,0-.27-31.1.7-62.2.86-93.31-4.85-.27-14.54-.77-19.38-1.04,8.18-27.64,26.7-50.39,41.4-74.62Z"/>
    <path class="cls-9" d="m1197.92,391.71c11.63-27.75,29.23-52.15,44.9-77.53,15.77,24.56,30.1,50.17,41.46,77.21-5.92.77-11.84,1.59-17.71,2.36-1.78,31.27-.54,62.7-4.25,93.85-14.48,0-28.97.77-43.29-1.26-2.91-31.1,1.02-62.42-.38-93.58-5.17-.27-15.56-.82-20.73-1.04Z"/>
    <path class="cls-9" d="m1443.37,484.19c26.81-12.58,56.26-17.25,84.85-23.74-6.03,28.74-10.93,58.41-24.12,84.9-3.34-2.69-9.96-8.02-13.3-10.72-21.91,21.38-43.39,43.19-65.52,64.35-9.58-10.99-27.62-19.73-29.88-34.4,18.9-22.64,40.97-42.37,61.05-63.85-4.41-5.55-8.78-11.04-13.08-16.54Z"/>
    <path class="cls-9" d="m666.9,480.13c28.97,1.26,57.82,6.32,85.34,15.83-2.96,5.06-5.92,10.17-8.83,15.22,22.45,20.72,45.39,40.88,67.84,61.6-8.51,11.26-15.99,23.63-26.87,32.7-7.32,2.2-12.01-5.66-17.44-8.96-18.14-15.44-35.16-32.2-54.49-46.1-5.87,3.13-10.23,11.21-17.61,10.28-12.38-25.61-18.79-53.69-27.94-80.56Z"/>
    <path class="cls-9" d="m1522.3,560.47c27.19-10.88,55.99-16.43,84.42-22.91-5.33,28.68-11.58,57.48-22.83,84.46-3.39-2.2-10.12-6.59-13.51-8.79-23.37,18.13-41.67,42.15-64.72,60.67-12.65-4.84-30.37-18.46-30.85-33.63,18.52-21.87,40-40.94,59.49-61.87-4.04-5.99-8.08-11.92-12.01-17.91Z"/>
    <path class="cls-9" d="m596.8,563.65c28.05,2.91,55.67,8.9,83.24,14.89-1.78,4.45-5.38,13.41-7.16,17.86,22.67,20.22,45.55,40.22,67.19,61.65-8.88,12.69-18.68,24.67-29.83,35.33-23.31-19.56-45.87-40-69.35-59.4-4.68,4.89-9.31,9.84-13.94,14.73-15.4-25.99-22.34-56.1-30.15-85.06Z"/>
    <path class="cls-9" d="m1598.91,641.19c26.33-13.79,56.15-17.8,84.74-24.23-4.68,28.52-12.28,56.49-21.75,83.74-5.28-3.08-10.5-6.15-15.67-9.23-21.8,20.33-41.89,42.59-64.45,61.98-12.65-6.21-26.92-18.68-31.01-32.31,19.06-22.86,41.62-42.59,61.75-64.57-3.39-3.85-10.23-11.54-13.62-15.39Z"/>
    <path class="cls-9" d="m526.81,650.64c28.91,1.7,57.55,7.25,85.34,15.66-3.12,4.84-6.19,9.73-9.21,14.56,21.86,21.71,45.12,41.87,68,62.42-8.61,13.24-18.36,25.72-30.15,36.16-22.83-19.51-44.9-39.78-68.54-58.25-5.71,3.3-10.18,11.92-17.77,9.95-11.95-25.72-19.17-53.47-27.67-80.5Z"/>
    <path class="cls-9" d="m709.92,1260.53c13.78-.71,23.37,12.86,33.22,20.99,5.81,4.12.32,11.81-2.75,15.83-13.84,18.46-29.5,35.44-43.13,54.13-7.7,8.46,4.47,16.65,7.48,24.34-25.9,12.91-53.46,21.87-80.92,30.61.81-28.9,5.81-57.42,12.54-85.39,6.19,1.43,12.44,2.91,18.74,4.4,18.52-21.38,35.16-44.56,54.81-64.9Z"/>
    <path class="cls-9" d="m1426.14,1331.09c10.39-10.99,21.48-21.21,33.06-30.94,21.7,18.9,37.1,43.8,56.59,64.9,5.55,8.9,14.48-4.29,20.51-5,12.6,27.42,13.08,58.91,16.53,88.52-23.42-6.37-46.19-14.95-69.08-23.13-1.35-10.33-1.4-20.83-3.66-30.94-4.68-6.21-10.82-10.99-16.21-16.32-14.38-14.12-25.47-31.16-37.74-47.09Z"/>
    <path class="cls-9" d="m739.69,1395.87c18.41-22.97,37.36-45.44,56.53-67.81,12.17,9.12,28.37,16.1,34.89,30.77-16.26,24.51-36.45,46.1-54.11,69.57,4.2,6.15,8.35,12.36,12.54,18.63-26.87,11.32-54,22.14-82,30.22,2.1-28.57,6.73-56.93,12.76-84.9,6.41,1.1,12.87,2.31,19.38,3.52Z"/>
  </g>
  <path class="cls-5" d="m1356.37,1396.37c24.07,4.34,46.25,15.06,68.32,25.22-1.99,5.17-3.98,10.33-5.98,15.5,13.89,20.61,29.23,40.22,43.83,60.34-9.15,10.5-19.97,19.23-31.71,26.49-16.21-18.68-29.88-39.4-46.03-58.08-6.51.82-12.81,2.69-19.06,4.18-4.9-24.29-8.18-48.91-9.37-73.63Z"/>
  <path class="cls-8" d="m1695.45,382.26c32.3-5.39,62.72,38.25,45.76,68.52-6.41,21.05-33.33,30.06-50.45,16.65-31.39-17.64-30.1-72.31,4.68-85.17Z"/>
  <path class="cls-17" d="m484.7,412.87c26.81-13.74,60.03,14.78,54.7,44.18-.75,16.27-11.36,28.68-21.97,39.62-11.47-13.02-25.63-24.51-32.68-40.83-2.53-13.46-.65-27.26-.16-40.88l.11-2.09Z"/>
  <path class="cls-10" d="m470.38,470.02c-5.98-19.12-2.53-42.59,14.21-55.06-.48,13.63-2.37,27.42.16,40.88,7.05,16.32,21.21,27.8,32.68,40.83-20.03,5.39-38.33-9.45-47.06-26.65Z"/>
  <path class="cls-6" d="m1912.8,1035.4c8.18-11.43,17.93-21.6,28.86-30.33-6.19,194.58-88.94,382.95-219.93,523.4-5.55-5.88-10.82-11.92-16.26-17.75,5.44-5.82,10.88-11.65,16.37-17.47-20.84-18.68-41.35-37.75-62.45-56.1-41.94,47.7-90.99,88.3-143.21,123.64,15.08,24.89,30.04,49.95,45.01,74.95,18.36-12.14,36.18-25.22,53.68-38.74,6.08,3.63,12.44,7.14,18.9,10.28-215.47,173.75-517.77,219.64-776.96,132.48,3.23-16.05,13.57-28.08,27.3-35.94-3.02,8.85-5.71,17.75-8.4,26.65,20.57,6.21,41.24,12.25,62.02,17.69,6.46-29.73,13.62-59.24,19.22-89.13-10.88-2.64-21.7-5.17-32.47-8.08,1.51-3.24,4.41-9.84,5.87-13.13,141.01,41.6,294.83,34.29,431.9-18.9,169.7-64.62,314.8-198.54,387.75-368.5,35.43,8.08,63.1,33.52,94.7,50.28,16.58-38.03,31.17-77.04,41.94-117.26-32.63-14.4-65.2-28.79-97.61-43.63,3.34-14.23,6.68-28.46,9.53-42.86,10.5-5.93,21-12.09,31.28-18.52,25.36,6.04,50.34,13.52,75.7,19.78,2.91-20.88,5.76-41.76,7.27-62.81Zm-85.87,56.98c-2.85,13.96-5.76,27.91-8.83,41.82,24.17,11.48,48.62,22.42,73.33,32.7,4.15-18.08,8.02-36.27,11.14-54.57-25.36-6.26-50.34-13.9-75.64-19.95Zm-59.87,183.64c-6.35,12.8-12.87,25.5-19.38,38.19,22.45,15.22,44.9,30.44,67.95,44.78,7.32-13.63,14.21-27.42,19.87-41.87-23.1-13.24-45.17-28.19-68.43-41.1Zm-54.22,93.69c21.7,16.98,42.86,34.62,65.52,50.28,9.26-14.56,18.31-29.23,27.03-44.13-22.02-13.9-42.96-29.56-65.36-42.75-13.19,6.04-17.61,25.5-27.19,36.6Zm-11.84,17.75c-10.01,10.33-18.31,22.09-27.35,33.24,20.19,18.57,40.97,36.49,60.68,55.61,11.25-12.09,23.31-24.12,30.04-39.62-20.57-17.14-41.51-33.96-63.37-49.24Zm-250.95,211.72c13.57,26.27,26.65,52.86,40.11,79.18,17.07-8.79,33.7-18.41,50.02-28.63-14.86-25.33-28.8-51.32-45.71-75.17-15.45,6.92-29.77,16.16-44.42,24.62Zm-70.21,29.84c9.53,29.12,20.46,57.7,30.8,86.49,19.22-7.8,38.23-16.16,56.85-25.39-14.7-25.77-24.44-55.12-41.94-78.85-15.61,4.84-30.42,12.03-45.71,17.75Zm-77.96,24.56c6.78,30.28,15.88,59.95,23.15,90.12,20.35-5.17,40.27-11.87,60.35-17.86-8.72-29.62-20.35-58.14-30.53-87.26-17.61,5.28-35.21,10.44-52.98,15Zm-75.43,14.89c1.35,31.76,3.88,63.52,7.7,95.06,21.7-3.96,43.39-8.08,64.98-12.86-7.38-30.22-15.77-60.23-23.74-90.28-16.31,2.8-32.63,5.6-48.94,8.08Zm-262.84,85.23c20.67,5,41.67,8.35,62.78,11.32,4.68-30.83,9.85-61.6,14.43-92.43-18.79-2.2-37.53-4.73-56.05-8.35-8.4,29.45-13.51,59.79-21.16,89.46Zm104.77-79.13c-5.17,31.1-10.93,62.15-14.21,93.53,50.02,4.95,100.36,3.3,150.37-.49.7-32.04-3.77-63.8-5.98-95.72-43.23,4.89-86.79,4.67-130.18,2.69Z"/>
  <path class="cls-3" d="m1805.98,1048.64c8.72,1.76,17.55,3.52,26.33,5.33-.92,8.13-1.72,16.27-2.48,24.45-10.28,6.43-20.78,12.58-31.28,18.52,2.8-16.05,5.11-32.15,7.43-48.3Z"/>
  <path class="cls-20" d="m310.43,1072.27c6.73.05,13.51.11,20.3.16,3.39,8.41,6.84,16.81,10.01,25.39,2.8,13.41,5.6,26.87,8.45,40.33,20.78-6.04,41.51-12.09,62.4-17.8.54-1.59,1.72-4.78,2.32-6.37,1.72-2.36,5.17-7.03,6.89-9.34,8.61,7.42,16.21,15.88,23.37,24.73-7.16,3.79-14.54,8.52-22.94,7.58-23.85-1.32-45.87,9.56-68.54,15.06,9.42,40.66,19.92,81.93,38.6,119.3,30.2-9.56,58.58-24.23,86.2-39.73,79.14,197.16,252.35,349.43,452.84,406.25-1.45,3.3-4.36,9.89-5.87,13.13-4.63-1.26-13.89-3.79-18.52-5.11-7.32,19.34-14.81,38.58-21.86,57.97-13.73,7.86-24.07,19.89-27.3,35.94-76.78-26.1-149.94-63.41-216-111.05,3.88-5.55,7.91-11.04,11.79-16.59,14.27,10.88,28.27,22.47,44.36,30.44,17.87-20.66,32.09-44.29,48.94-65.83-51.2-31.16-98.31-68.52-142.03-109.74-16.04,18.13-34.78,33.79-49.42,53.19-.59,8.52,9.53,14.18,13.14,21.38-6.19,2.97-12.17,6.15-18.36,9.01-1.24-1.04-3.71-3.08-4.95-4.12-127.44-124.96-211.43-295.19-233.82-474.17Zm86.36,215.4c6.89,14.62,11.47,30.88,21.59,43.69,21.48-9.34,40.11-24.34,61.86-33.13-6.25-12.75-12.49-25.44-18.79-38.08-21.54,9.29-42.96,18.68-64.66,27.53Zm29.23,60.77c8.29,15.55,17.07,30.88,25.95,46.16,21.86-11.15,43.02-23.52,64.23-35.88-9.42-15.17-18.79-30.39-28-45.61-20.78,11.7-41.03,24.34-62.18,35.33Zm36.13,61.49c8.67,12.64,16.69,25.88,26.81,37.42,21.16-12.09,40.38-28.02,58.58-44.29-6.03-10.33-13.57-19.56-20.78-29.01-21.64,11.65-42.8,24.34-64.61,35.88Zm39.84,55.01c10.82,14.07,22.13,27.75,33.97,40.94,17.77-18.3,35.32-36.82,53.14-55.12-9.21-10.39-18.31-20.83-27.19-31.43-20.35,14.67-39.84,30.55-59.92,45.61Zm215.41,191.34c17.07,10.44,34.62,20.11,52.39,29.4,14.32-24.45,29.23-48.63,41.51-74.24-13.68-8.57-28.16-15.77-43.07-21.82-20.19,18.85-33.27,45-50.82,66.65Zm117.15-34.73c-13.3,25.61-28.7,50-41.4,76,19.11,7.97,38.06,16.43,57.77,23.13,9.37-27.91,20.3-55.17,29.5-83.14-15.29-5.39-30.47-10.94-45.87-15.99Z"/>
  <g>
    <path class="cls-4" d="m1536.41,1252.34c24.17,6.48,47.65,15.77,69.61,28.02-1.94,3.24-5.92,9.62-7.91,12.86,14.43,21.65,32.2,40.99,44.58,64.07-10.39,7.47-19.06,19.29-32.03,21.93-17.01-17.42-30.1-38.3-45.87-56.82-6.19,1.54-12.49,4.84-18.84,2.58-5.38-23.85-7.43-48.3-9.53-72.64Z"/>
    <path class="cls-4" d="m823.84,1448.19c21.97-11.04,45.71-18.02,69.45-24.01-1.88,24.56-6.62,48.8-12.54,72.64-3.93-.93-11.84-2.75-15.77-3.68-18.04,17.69-31.55,40.99-52.6,54.84-10.18-6.43-19.54-14.29-26.87-23.9,10.44-22.97,33.06-37.75,45.23-59.84-2.21-5.5-4.85-10.66-6.89-16.05Z"/>
  </g>
  <path class="cls-16" d="m1463.88,1378.18c5.38,5.33,11.52,10.11,16.21,16.32,2.26,10.11,2.32,20.61,3.66,30.94-12.92-2.75-8.78-13.63-7.16-23.24-3.82-8.3-8.88-15.83-12.71-24.01Z"/>
  <path class="cls-11" d="m1642.41,1508.63c12.49-10.11,27.89-1.04,39.73,5.55,18.84,11.32,25.41,36.71,16.47,56.87-26.27,3.57-52.76,2.14-78.77-2.47-2.85-22.2,2.96-47.31,22.56-59.95Z"/>
  <path class="cls-14" d="m564.49,1578.53c-.7-23.57,22.07-39.29,43.18-40.61,14.16,5,21.59,19.73,31.12,30.55l-2.15,7.47c-10.39,25.11-38.6,29.67-60.73,38.41-7.38-10.5-13.62-22.47-11.41-35.83Z"/>
  <path class="cls-19" d="m1619.86,1568.58c26,4.62,52.49,6.04,78.77,2.47-8.35,12.91-19.97,26.6-36.29,27.15-18.79,1.21-34.4-13.57-42.48-29.62Z"/>
  <path class="cls-12" d="m636.64,1575.95l2.75-4.45c3.23,18.08.7,41.21-17.98,49.51-14.64,11.15-32.68,3.3-45.49-6.65,22.13-8.74,50.34-13.3,60.73-38.41Z"/>
  <text/>
  <text class="cls-21" transform="translate(32.15 433.19)"><tspan x="0" y="0">强启动子</tspan></text>
  <text/>
  <text class="cls-21" transform="translate(880.42 85.94)"><tspan x="0" y="0">中强启动子</tspan></text>
  <text class="cls-21" transform="translate(1814.59 433.19)"><tspan x="0" y="0">中等启动子</tspan></text>
  <text/>
  <text class="cls-21" transform="translate(1746.07 1637.83)"><tspan x="0" y="0">弱启动子</tspan></text>
  <text/>
  <text/>
  <text/>
  <text/>
  <text/>
  <text class="cls-21" transform="translate(0 1656.69)"><tspan x="0" y="0">中弱启动子</tspan></text>
</svg>