<?xml version="1.0" encoding="UTF-8"?>
<svg id="_图层_1" data-name="图层 1" xmlns="http://www.w3.org/2000/svg" viewBox="0 0 2574.46 1082.69">
  <defs>
    <style>
      .cls-1 {
        fill: #172841;
      }

      .cls-2 {
        fill: #fff;
      }

      .cls-3 {
        fill: #272c31;
      }

      .cls-4 {
        fill: #3b404a;
      }

      .cls-5 {
        fill: #53c2a5;
      }

      .cls-6 {
        fill: #1763c5;
      }

      .cls-7 {
        fill: #fdfdfd;
      }

      .cls-8 {
        fill: #9ba6b3;
      }

      .cls-9 {
        fill: #292f35;
      }

      .cls-10 {
        fill: #3d434d;
      }

      .cls-11 {
        fill: #15263f;
      }

      .cls-12 {
        fill: #040908;
      }

      .cls-13 {
        fill: #252c34;
      }
    </style>
  </defs>
  <path class="cls-2" d="m529.16,3.17c-21.38-4.73-42.4,1.94-62.22,9.19-25.81-1.99-51.05,4.64-72.78,18.51-24.26,2.25-49.81,8.7-66.08,28.18-25.1,2.43-46.92,16.17-64.26,33.66-13.62,7.95-28.65,14.27-38.36,27.34-7.72,16.65-4.83,34.89,1.95,51.28-37.3,34.01-70.69,72.35-97.08,115.41-17.87-8.75-35.48-18.06-53.75-25.97-22.13,41.12-42.93,83.43-55.13,128.7-27.81,98.32-29.18,204.41-.44,302.72,14.19,54.5,39.25,105.43,69.41,152.82,16.76-9.81,33.57-19.48,49.85-30.17,29.23,42.44,64.09,81.18,105.6,112.01-9.54,9.76-7.58,24.12-7.94,36.57,2.93,8.48,5.06,17.98,12.51,23.89,16.14,13.65,35.17,25.44,56.72,27.6,17.87,17.4,41.25,29.37,66.61,29.72,19.56,16.25,45.68,22.75,70.83,21.11,23.2,11.62,49.94,15.86,75.44,10.16,22.84,8.3,48.39,9.45,71.32.84,20.31,4.99,41.91,4.11,61.34-3.89,17.16-7.55,36.68-2.96,54.28-9.19,13.88-3.27,24.17-15.41,38.76-16.21,17.96-1.86,35.35-8.57,49.36-20.01,10.91-10.42,26.92-10.11,39.92-16.52,14.01-5.87,24.75-16.96,34.19-28.49,26.03-6.27,43.77-26.72,60.49-45.89,20-12.72,37.03-29.59,47.01-51.23,20.76-16.65,37.74-38.12,43.95-64.4,18.14-17.67,30.87-41.16,32.02-66.74,18.18-24.03,31.31-57.33,19.91-86.83-4.75-13.65-21.82-17.14-26.48-30.3,3.5-14.8,5.59-30.39,13.75-43.59,10.16-15.99,26.65-28.84,46.04-30.78,27.23.97,54.51-2.03,81.74-2.39.44,14.13-2.97,29.24,2.04,42.75,17.65,2.96,35.66,1.02,53.49,1.46,106.22-.84,212.57,1.72,318.7-1.33,1.69-17.84,1.51-35.73-.18-53.53,32.46.88,64.93.13,97.39.49.22,31.23-.8,62.54.35,93.77,3.02,7.69,12.06,4.59,18.41,5.43,167.07-.31,334.09.04,501.16-.18,7.1,1.59,13.22-2.21,11.84-9.89.49-28.27-.09-56.53.18-84.8,45.28-.04,90.56-.04,135.85,0,.18,27.87-.22,55.78.27,83.7,11.13,1.72,22.44,2.12,33.71,1.9,69.45-.53,138.95.62,208.36-.53,1.2-1.1,3.55-3.4,4.75-4.55,1.02-59.54.22-119.16.31-178.75-60.63-3.53-121.56-.66-182.32-1.55-21.29.97-42.98-2.25-63.95,1.77-2.44,22.79-.4,45.8-1.11,68.72-45.28-.04-90.56-.04-135.85,0-.84-27.43,1.55-55.03-1.24-82.33-8.03-1.9-16.32-1.55-24.44-1.59-166.76.53-333.56-.53-500.27.53-1.29.75-3.86,2.16-5.1,2.87-2.35,27.34-.27,54.9-.98,82.33-32.46.04-64.88-.4-97.3.35,1.29-14.22,1.69-28.49.31-42.71-92.91-2.61-185.96-.09-278.92-1.37-31.89,1.28-63.86-1.68-95.58,2.08-.44,16.65-.31,33.35.27,50.04-19.69,1.24-39.52.13-59.16,2.39-18.67,1.15-39.29,0-53.66-13.52-18.94-14.93-21.86-40.32-25.68-62.36,18.72-6.01,32.69-24.6,33.57-44.12-1.11-23.23-8.69-45.71-19.96-65.94-3.9-25.13-13.7-49.07-31.05-67.97-6.25-20.89-15.48-41.47-32.2-56.27-13.26-11.17-16.81-29.33-29.01-41.38-7.85-8.7-18.45-14.13-27.45-21.47-8.29-10.95-14.81-23.5-26.3-31.62-11.27-9.76-27.41-12.76-36.46-25.13-13.39-16.52-33.22-25.53-53.09-31.71-11.84-8.7-22.22-19.92-36.54-24.82-11.8-6.05-26.79-3-37.17-11.88-17.39-13.6-39.78-19.65-61.74-18.11-22.71-12.54-49.67-20.01-75.35-12.94-14.06-4.42-28.38-9.5-43.37-8.35-14.81.27-29.23,7.02-44,3Z"/>
  <path class="cls-2" d="m556.03,17.39c14.77-.31,29.58,0,44.31,1.02-18.89,25.4-29.45,59.85-17.83,90.45,3.9,12.37,16.05,24.2,29.98,20.76,14.99-3.98,22.18-19.35,27.54-32.42-.31,18.11,5.32,40.85,26.21,44.56,16.81-1.99,26.61-17.05,34.68-30.12-.44,13.43-3.06,29.28,7.41,39.97,7.18,9.28,22.13,12.15,31.22,3.93,28.52-21.51,38.14-60.51,30.16-94.25,13.26,5.39,26.12,11.75,38.45,19.08-25.5,13.12-44.62,37.01-51.49,64.79-2.48,12.68-2.22,28.75,9.49,37.1,11.8,9.67,27.85,1.5,37.7-7.11,21.47-20.41,33.31-50.66,29.8-80.21,12.51,6.76,24.39,14.66,34.86,24.29-31.53,11.75-59.25,39.31-62,73.98-1.86,19.61,21.86,34.41,38.54,23.06,26.97-17.45,49.18-46.91,47.37-80.34,11.66,8.3,22.53,17.71,31.84,28.66-31.22,7.6-60.36,28.89-71.32,59.76-5.9,14.35,2,32.46,17.43,36.26,14.95,2.61,27.76-7.16,39.47-14.88-11.22,11.84-23.55,27.03-18.18,44.48,4.21,15.33,23.2,17.93,36.28,13.25,28.52-9.89,52.56-33.61,60.23-63.12,9,11.66,17.07,23.98,24.17,36.92-31.71-3.18-63.16,11.09-83.78,34.72-8.69,9.85-10.69,26.15-.62,35.86,11.27,13.6,30.56,6.58,45.33,4.68-14.28,7.73-30.42,20.45-26.57,38.82,3.41,17.67,23.95,20.32,38.76,21.51-9.36,7.46-21.16,14.75-23.28,27.56-2.44,12.5,7.89,23.14,18.58,27.74,15.48,6.18,32.78,4.11,48.48,0,4.52,21.07,7.23,44.26,22.49,60.91,8.03,10.07,19.6,16.25,31.09,21.73-35.35,13.21-53.75,50.17-56.01,85.91-18.94-3.49-40.36-7.82-57.48,3.75-11.44,6.85-12.24,23.06-5.46,33.48,5.99,9.76,16.63,15.11,26.26,20.71-11.27-2.21-23.33-5.52-34.46-.8-11.53,3.98-19.87,16.52-16.72,28.75,3.06,11.04,12.77,18.37,20.67,26.06-13.57-1.46-30.11-5.79-40.85,5.43-10.51,8.83-9,25.57-.8,35.51,19.87,24.82,51.36,42.44,84.04,39.04-8.34,12.72-17.12,25.13-26.39,37.23-8.6-33.08-34.95-63.07-69.54-69.39-14.64-3.71-31.49,8.13-30.38,23.72-.53,13.52,9.49,23.76,17.21,33.7-11.04-6.36-22.44-14.71-35.84-13.82-12.42.49-23.9,11.62-22.75,24.34.75,12.37,7.67,23.06,13.53,33.66-12.33-12.32-31.8-28.27-49.54-17.27-17.43,11.44-10.11,34.1-3.77,49.78-8.69-9.19-17.52-19.7-30.34-23.01-15.3-2.56-30.07,12.15-28.61,27.3.35,9.1,2.84,17.98,4.97,26.81-9.76-15.24-24.7-35.64-45.64-28.97-16.94,6.98-16.19,27.87-16.81,43.11-7.67-11.17-14.33-26.15-29.23-28.8-11.18-2.52-22.22,4.81-25.59,15.37-12.73,33.79,1.64,71.42,26.43,95.8-14.99,2.47-30.07,4.15-45.19,5.48,18.14-25.13,19.74-59.36,7.54-87.32-4.17-9.5-11.62-18.11-21.6-21.6-13.84-3.98-27.01,7.51-30.82,20.18-10.56,30.3-1.42,64.53,16.72,90.1-13.97.44-27.94.4-41.91-.09,19.03-27.34,27.01-64.44,12.68-95.49-4.97-11.09-17.92-19.7-30.16-15.15-14.24,5.21-19.78,20.54-25.15,33.35-.93-16.74-5.06-38.96-24.7-42.58-20.31-3.18-30.07,18.73-37.56,33.57,1.11-15.33,4.08-34.49-9.8-45.27-10.24-10.07-25.81-4.68-34.37,4.64-23.02,23.41-28.69,59.05-21.42,90.19-13.26-5.3-26.34-10.95-39.12-17.31,27.23-15.77,47.41-43.99,49.85-75.61.62-12.5-5.72-27.43-19.16-30.08-10.24-2.83-20.09,2.52-27.99,8.48-.4-12.23-1.24-27.52-14.68-32.64-22.88-9.41-43.42,9.19-57.57,24.95-37.79-28.53-69.32-64.48-96.6-102.91,20.31-11.88,39.69-25.31,59.21-38.43-22.09-35.29-40.54-72.96-53.58-112.49-7.58-31.76-11.31-64.4-14.33-96.82,1.64-65.15,12.33-131.31,41.73-190.1,6.08-12.41,12.46-24.65,18.49-37.06-20.4-9.72-40.23-20.41-59.96-31.31,27.05-44.03,60.58-84.23,100.14-117.71-7.67-14.62-14.95-30.34-12.68-47.35,5.94-6.89,12.6-13.12,19.2-19.35-2.13,35.38,16.41,74.16,50.65,87.58,18.23,7.24,36.41-11.04,33.13-29.15-3.9-33.13-30.11-60.64-60.67-72.48,12.2-9.28,25.5-16.78,39.29-23.45-4.92,32.02,5.46,67.31,30.91,88.33,10.16,8.39,28.87,11.84,37.21-.8,9-12.1,5.46-27.96,4.52-41.83,7.76,10.34,15.61,22.17,28.34,26.81,10.95,3.49,22.57-3.98,26.7-14.09,4.61-11.57,3.68-24.34,3.59-36.48,5.19,16.12,15.43,34.49,34.02,37.01,15.61.18,24.22-16.08,26.97-29.33,4.44-29.9-7.98-60.16-27.54-82.5,14.59-1.63,29.23-3.14,43.91-4.33-18.67,27.3-21.38,64.48-5.94,93.86,4.79,9.01,14.28,15.28,24.57,16.08,12.33-2.03,22-12.01,25.95-23.5,9.76-29.42,4.39-63.42-16.54-86.83Zm135.36,452.67c-.09,2.21-.27,6.58-.35,8.79-5.85-.04-11.66-.04-17.43-.04l.22,5.39c5.77,2.25,20.4-3,18.14,7.42-8.74,1.63-17.61,2.25-26.39,3.71,5.94,2.52,12.15,4.42,17.92,7.42-.04,1.1-.09,3.27-.09,4.37-3.73.57-11.18,1.77-14.9,2.39,2.84,1.28,8.47,3.93,11.27,5.21-1.51,3.58-4.57,10.73-6.12,14.31,7.41,1.72,20.4-3.62,21.38,7.69-7.98.84-15.92,1.63-23.86,2.34,0,1.5.09,4.55.13,6.1,7.27-.57,14.59-1.06,21.95-1.55.44,3.45,1.29,10.38,1.73,13.82,5.5-3.18,5.19-9.5,6.08-14.88,3.73-.4,11.22-1.15,14.95-1.55l-.22-5.39c-6.16-.09-12.29-.27-18.36-.53,4.48-7.11,13.79-5.43,20.76-7.77-7.36-4.59-20-2.03-21.38-13.52,7.27-1.41,16.9,2.08,21.86-5.43-7.45-3.71-23.99,5.43-25.72-5.83,4.57-7.16,18.76-1.46,26.92-3.14,1.33,11.75,3.5,23.41,6.3,34.98-4.79,5.17-9.58,10.34-14.41,15.5,1.55,1.1,4.66,3.36,6.21,4.46,3.37-3.89,6.79-7.69,10.2-11.48,4.57,4.59,8.25,14.75,16.76,11.35,7.41-5.96,6.16-16.78,7.81-25.18-9.67,1.55-6.79,14.8-15.21,18.64-6.12-12.28,3.55-21.86,7.58-32.51.93-4.06,6.52-11.79-1.37-11.7-4.35,7.33-7.76,15.19-12.2,22.57-1.73-8.7-3.1-17.45-4.44-26.1,9.8-.75,20.27.84,29.01-4.59-9.71-1.86-19.6-2.39-29.45-2.87-.31-7.82-.62-15.59-.84-23.32h-6.7c.13,7.95.27,16.03.35,24.07-7.72-.22-15.39-.49-23.06-.88,1.64-11.22,15.97-4.81,21.38-12.68-6.34-.49-12.68-.8-19.03-.93-.18-2.16-.49-6.45-.62-8.57l-6.74-.09Zm40.58.35c-.04,9.72,7.5,16.03,15.08,20.67-.31-9.67-8.12-15.46-15.08-20.67Zm52.07,2.87c-5.63,12.85-11.71,25.48-18.01,38.03.22,2.21.71,6.63.93,8.83,2.44-3.09,7.36-9.32,9.8-12.46-.35,15.59-.22,31.18-.27,46.77l6.74.75c.75-28.75-3.37-58.26,7.67-85.6-1.73.93-5.19,2.78-6.87,3.67Zm30.29-2.92c-.04,5.26-.09,10.51-.13,15.86-8.69,1.5-21.51-4.33-26.08,6.05,6.83.31,13.62.57,20.45.75-5.1,17-15.79,31.31-24.44,46.6,18.58-3.84,21.86-27.6,30.2-42.14,0,11.57-.09,23.14.09,34.72-5.77.4-11.49.88-17.16,1.5,3.46,6.18,10.47,5.43,16.5,6.23.75,6.36-1.15,14.66,6.43,17.67.67-6.23,1.24-12.41,1.77-18.55,3.55.04,10.64.18,14.24.22l.31-6.54c-3.81,0-11.44-.04-15.26-.04-.13-12.06.35-24.12,1.42-36.13,4.75,16.78,11.53,33.79,25.24,45.4.27-1.94.71-5.74.98-7.69-8.43-13.03-17.3-25.97-21.69-41.03,7.58-.35,15.17-.84,22.8-1.46-5.85-9.98-19.34-3.89-28.61-5.57-.04-3.98-.13-11.93-.13-15.86h-6.92Zm-463.82,7.82c-.8,23.5-.22,46.95-.4,70.45h7.94c.04-17.27-.09-34.49,0-51.68,8.38,11.79,15.66,24.34,24.44,35.91,8.47-11.57,15.79-23.85,23.77-35.69.4,17.4.04,34.8.4,52.21,2-.4,5.99-1.24,7.94-1.63-.27-23.14.31-46.29-.4-69.43-16.14,8.61-20.53,28.97-31.67,42.62-11.04-13.82-15.43-34.36-32.02-42.75Zm83.82,2.03c0,22.88-.04,45.76,0,68.64,12.82-.44,26.61.8,38.32-5.57,20.05-11.62,20.76-45.05,1.02-57.33-11.58-7.55-26.26-4.99-39.34-5.74Zm70.16,19.79c6.34-3.27,12.64-6.63,18.89-10.07.22,19.48.13,38.96.13,58.48l7.98.49c.04-23.45.35-46.86-.22-70.31-9.85,5.17-25.99,7.69-26.79,21.42Zm61.96,11.35c-5.46,5.83-11.53,12.63-9.18,21.38,2.75,19.79,34.68,22.7,42.04,4.59,4.79-9.5-1.02-19.08-7.27-26.06,10.78-10.47,6.96-30.43-9.49-32.02-18.76-4.64-31.75,20.18-16.1,32.11Zm43.51-30.96l-.35,6.98c6.92-.04,13.84-.09,20.8-.09.93,20.36,1.06,40.77.93,61.22l7.5.44c.22-20.49.13-40.94.09-61.35,7.76-.22,15.52-.35,23.28-.75-.67-1.33-2.08-4.02-2.79-5.39-16.32-2.39-33-.49-49.45-1.06Zm-318.75,16.78c-1.73,17.89-.89,35.91-1.15,53.88.09,7.77-.84,16.21,4.44,22.88,4.21-9.81,3.02-20.54,3.1-30.83,6.65,2.65,13.39,8.22,21.07,5.74,21.02-6.14,21.82-41.03,1.69-48.67-7.94-4.24-15.61,1.77-22.4,5.17-1.69-2.03-5.06-6.14-6.74-8.17Z"/>
  <path class="cls-2" d="m630.41,22.12c14.37.75,28.47,3.67,42.22,7.86-13.13,13.78-24.7,29.33-29.94,47.83,2.84-19.61-3.41-38.51-12.29-55.7Z"/>
  <path class="cls-2" d="m539.53,26.84c4.44-1.59,7.67-.13,9.67,4.37,14.28,19.52,17.16,46.46,9.49,69.12-2.17,6.85-7.63,15.33-16.19,12.32-9.18-4.46-12.37-15.55-15.03-24.51-3.95-20.8-.98-44.08,12.06-61.3Z"/>
  <path class="cls-2" d="m412.25,38.63c13.79-5.12,28.16-8.44,42.75-10.11-8.07,18.73-10.64,39.26-7.41,59.41-6.7-19.57-19.69-36-35.35-49.29Z"/>
  <path class="cls-2" d="m592.62,92.03c-3.02-23.85,4.97-48.45,21.07-66.34,18.49,19.3,19.51,48.98,10.42,72.83-3.46,8.48-9.62,19.65-20.62,16.61-7.32-5.34-9.76-14.62-10.87-23.1Z"/>
  <path class="cls-2" d="m460.77,53.78c1.91-7.69,3.37-21.29,14.28-19.43,13.88,12.15,20.62,30.61,23.02,48.45,1.46,13.96-.04,30.74-13.26,38.91-21.95-14.49-26.17-43.77-24.04-67.93Z"/>
  <path class="cls-2" d="m702.21,37.27c13.22,3.36,26.43,6.98,38.76,12.94-.8,5.74-7.14,8.26-10.6,12.41-10.87,9.01-18.67,20.8-25.68,32.86,5.63-19.3,3.37-39.35-2.48-58.21Z"/>
  <path class="cls-2" d="m654.85,113.37c-2.97-27.96,6.92-58.3,30.29-75.31,14.55,20.27,9.85,47.48,1.24,69.21-4.12,7.91-9.27,18.86-19.6,19.12-7.45,1.15-11.4-6.93-11.93-13.03Z"/>
  <path class="cls-2" d="m347.41,62.4c11.89-6.85,25.01-11.04,37.88-15.55-6.56,19.08-4.52,39.26.35,58.43-8.91-11.31-15.66-24.91-28.12-32.77-3.55-3.27-9.93-4.46-10.11-10.11Z"/>
  <path class="cls-2" d="m403.42,110.32c-8.43-18.15-12.51-40.46-3.59-59.14,6.16-4.11,11.22,4.64,15.7,7.86,17.12,20.27,28.16,49.29,17.7,75.22-15.43,2.56-24.04-12.19-29.8-23.94Z"/>
  <path class="cls-2" d="m720.17,100.69c5.63-16.61,18.27-29.46,32.15-39.71,13.35,24.91,3.86,55.78-13.08,76.45-4.92,5.87-15.26,12.32-21.29,4.42-7.89-12.81-2.13-28.18,2.22-41.16Z"/>
  <path class="cls-2" d="m333.48,75.12c31.75,11.13,52.91,49.64,42.62,81.97-17.56,1.33-27.5-15.68-34.77-28.93-9.18-16.12-9.93-35.07-7.85-53.05Z"/>
  <path class="cls-2" d="m769.4,162.17c-.44-30.39,19.29-60.86,49.18-69.61,8.2,28-6.12,60.69-29.98,76.81-6.34,6.36-19.2,1.99-19.2-7.2Z"/>
  <path class="cls-2" d="m270.55,112.88c24.57,1.1,40.98,22.79,51.45,42.71,4.57,9.36,8.83,25.66-2.75,31.71-13.17.84-23.02-10.38-30.6-19.7-12.46-15.46-18.09-35.11-18.09-54.72Z"/>
  <path class="cls-2" d="m834.6,157.8c9.58-14.84,26.12-23.01,43.29-25.26,3.41,26.32-11.93,51.15-31.93,66.96-6.21,5.17-14.59,7.38-22.49,5.17-8.96-15.59,2.22-33.74,11.13-46.86Z"/>
  <path class="cls-2" d="m865.29,232.66c9.05-28.09,35.21-50.97,65.15-53.8-.35,28.71-21.16,54.77-46.79,66.12-9,6.27-20.67-1.9-18.36-12.32Z"/>
  <path class="cls-2" d="m944.63,184.43c10.2,9.94,19.34,20.89,27.19,32.82-21.02,1.9-40.89,10.2-56.5,24.42,15.66-15.5,26.08-35.47,29.32-57.24Z"/>
  <path class="cls-2" d="m904.85,276.65c12.46-26.24,41.25-44.56,70.34-45.4-1.69,29.55-27.85,53.75-55.75,59.98-9.45,3.62-19.34-4.95-14.59-14.58Z"/>
  <path class="cls-2" d="m968.31,299c14.01-8.83,30.96-8.7,46.79-6.27-4.66,24.82-28.65,39.04-50.47,47.26-9.54,2.52-23.68,5.57-29.23-5.08.44-18.29,18.89-27.96,32.91-35.91Z"/>
  <path class="cls-2" d="m1025.66,303.77c7.98,13.12,14.24,27.16,19.91,41.43-19.51-7.2-40.31-5.34-59.65,1.33,17.12-10.07,33.09-23.45,39.74-42.75Z"/>
  <path class="cls-2" d="m965.08,376.29c20.09-20.36,51.93-26.54,78.99-18.15-2.62,16.43-18.09,25.84-31.8,32.68-14.5,6.49-32.38,10.38-47.37,4.06-7.89-3.62-5.06-14,.18-18.59Z"/>
  <path class="cls-2" d="m1016.48,403.86c16.37-5.79,29.14-17.49,39.29-31.18,3.41,12.19,6.79,24.38,9.93,36.7-15.92-5.12-32.6-6.4-49.23-5.52Z"/>
  <path class="cls-2" d="m990.14,427.75c23.24-10.95,52.95-13.87,76.06-1.15-11,22.97-39.07,31.14-62.84,30.61-8.6-1.06-20.18.09-25.15-8.7-7.01-8.97,4.88-17,11.93-20.76Z"/>
  <path class="cls-2" d="m575.33,486.85c14.41-6.1,21.47,17.62,6.96,20.94-13.84,5.12-20.8-18.11-6.96-20.94Z"/>
  <path class="cls-2" d="m442.45,541.48c-.09-18.29-.18-36.53.09-54.77,7.76.97,16.1.04,23.37,3.45,18.76,8.75,18.23,40.63-.98,48.67-7.23,2.39-15.03,1.94-22.49,2.65Z"/>
  <path class="cls-2" d="m307.27,507.34c15.61-6.23,24.22,14.09,18.05,26.1-3.55,11.79-23.46,11.04-26.12-.84-3.28-8.48-1.91-22.08,8.07-25.26Z"/>
  <path class="cls-2" d="m1785.92,508.8c10.91-.09,3.33,17.14,5.77,24.29,8.34-3.4,19.47-7.11,25.81,1.81,5.99,12.37,2.66,26.81,2.97,40.1-16.85-6.23,2.26-31.58-14.15-39-20.4-1.59-13.93,23.72-14.64,36.48-1.82.13-5.5.49-7.32.62.89-21.42-1.95-43.11,1.55-64.31Z"/>
  <path class="cls-2" d="m2366.51,512.37c1.86-2.61,5.63-7.82,7.5-10.47,1.77,2.65,5.32,7.91,7.1,10.56,13.97-3,35.52,7.24,42-10.16,1.77,2.34,5.32,7.02,7.05,9.36,5.77.62,12.91-.13,15.66,6.32-4.44.4-13.39,1.19-17.83,1.59-.13,10.73-.13,21.51-.13,32.29,7.58,1.02,17.12-1.41,22.71,5.52-9.8,1.77-19.65,2.74-29.45,3.8,9.05,6.58,19.16,11.75,27.76,19.04-6.43,9.63-15.66-3.27-22.71-5.61-4.08,8.88-14.64,5.34-22.31,6.54-.31,1.86-.93,5.52-1.24,7.38,13.75.31,27.54.18,41.38.49-.8,1.72-2.44,5.17-3.24,6.89-27.23,1.37-54.55-.27-81.83.8-2.75-6.32-5.94-12.37-9.22-18.33,9.18-5.12,17.96-10.91,26.17-17.49-8.12-2.61-24.08,3.53-26.61-7.51,6.56-.8,13.17-1.24,19.87-1.46-.09-10.6-.09-21.2-.09-31.76-6.3-1.68-14.86.44-17.56-7.11,3.77-.18,11.27-.49,15.03-.66Zm12.2,6.85v6.27c13.48.04,27.01.04,40.58,0l-.27-6.32c-13.44-.04-26.88-.04-40.31.04Zm-2.26,13.74c1.15,1.5,3.46,4.42,4.61,5.92,13.13-1.06,31.18,6.18,40.63-5.74-15.08-.93-30.16-.93-45.24-.18Zm-.98,14.44c6.21,7.38,16.41,4.51,24.84,5.26,7.41-.53,16.45,1.59,21.38-5.74-15.39-1.28-30.91-1.33-46.21.49Zm-1.73,26.06c4.92.09,14.86.35,19.82.49.49-2.96,1.46-8.88,1.95-11.79,5.72,1.63,8.78,5.43,9.22,11.48,6.25-.04,12.55,0,18.94,0-3.99-4.42-7.94-8.83-11.8-13.25-8.38-.35-16.81-.57-25.15-.66-4.35,4.59-8.74,9.1-12.99,13.74Zm-12.46,6.58c-.8,2.25-2.48,6.76-3.33,9.01,12.15-.27,24.39-.27,36.59-.35l-.09-7.55c-7.81-1.72-19.78,3.22-23.28-6.54-3.33,1.77-6.61,3.58-9.89,5.43Z"/>
  <path class="cls-2" d="m2467.58,507.69c27.81.13,55.57.09,83.38.04-.04,31.31.27,62.59-.18,93.9-4.3-2.39-8.56-4.77-12.73-7.2-19.47-.35-38.9-.09-58.32-.27-2.44,2.16-7.32,6.54-9.76,8.75-5.68-31.23-1.02-63.56-2.39-95.23Zm9.05,8.97c-.09,22.97-.04,45.93,0,68.9h65.37c0-22.97.04-45.98-.04-68.95-21.82.09-43.6.09-65.33.04Z"/>
  <path class="cls-2" d="m1853.59,512.82c1.24-.22,3.73-.62,5.01-.84,10.47,19.92,17.56,41.52,25.72,62.5-10.64-.27-11.49-11-15.88-17.93-8.07-.8-16.14-.44-24.17-.35-3.15,7.46-4.52,17.31-14.46,18.24,7.63-20.63,14.9-41.47,23.77-61.61Zm-7.14,36.26c6.65.04,13.35.09,20.09.18-3.33-8.66-6.61-17.31-9.89-25.93-3.64,8.48-6.92,17.09-10.2,25.75Z"/>
  <path class="cls-2" d="m1895.33,512.24c12.15,1.24,27.01-3.18,36.63,6.4,6.3,6.49,2.13,15.28-.44,22.44,8.52,7.38,11.31,22.66.27,29.11-11.44,4.81-24.53,2.03-36.63,2.78.04-20.27-.09-40.5.18-60.73Zm7.54,6.4c-.04,6.89-.04,13.82,0,20.8,8.91-1.15,22.97,1.41,25.1-10.56-1.86-11.93-16.45-8.61-25.1-10.25Zm0,26.32c-.09,7.33-.09,14.71-.04,22.13,9.93-1.37,28.21,2.83,28.56-11.97-2.75-13.21-18.94-8.7-28.52-10.16Z"/>
  <path class="cls-2" d="m1966.11,572.04c-26.3-11.04-21.55-58.3,8.25-60.51,9.05-1.41,26.92,5.17,19.87,16.65-5.85-4.15-11.35-11.04-19.38-9.72-22.97,3.14-24.3,41.65-2.97,48.23,9.67,2.47,17.47-6.23,26.65-7.91-3.9,13.38-20.22,19.48-32.42,13.25Z"/>
  <path class="cls-2" d="m2124.58,512.6c13.04-.09,26.21-.84,39.25.88-4.17,11.84-22.13,3.14-31.58,5.87-.09,6.54-.09,13.12-.04,19.74,9.49,1.72,23.11-4.24,29.4,5.74-9.76,1.06-19.56,1.33-29.32,1.5-.04,8.66.22,17.36-.27,26.01-1.77,0-5.41-.09-7.23-.09-.67-19.92.13-39.79-.22-59.67Z"/>
  <path class="cls-2" d="m570.27,518.16c9.76-9.45,26.88,2.47,21.91,14.88-2.62,10.82-20,12.1-24.84,2.56-3.41-5.52-2-13.34,2.93-17.45Z"/>
  <path class="cls-2" d="m686.16,523.33c-1.42-7.2,1.37-10.29,8.38-9.19,1.46,7.2-1.37,10.25-8.38,9.19Z"/>
  <path class="cls-2" d="m2009.04,512.33c12.68.57,27.19-2.08,37.83,6.63,16.72,13.12,13.48,44.21-6.96,51.99-9.98,3-20.62,1.68-30.87,2.16,0-20.27-.04-40.55,0-60.77Zm7.45,6.93c.13,15.99.09,31.98.18,47.97,8.6-1.19,18.63-.09,25.63-6.32,9.98-9.45,9.8-27.78-.75-36.75-6.96-6.01-16.68-4.46-25.06-4.9Z"/>
  <path class="cls-2" d="m2505.15,519.84l8.52-.35c-.13,4.95-.18,9.94-.22,15.02,7.89-.09,15.74-.13,23.73-.04l-.09,8.57c-8.96.04-17.78.22-26.61.71,5.94,12.06,17.56,19.52,25.86,29.77l-2.53,6.14c-10.2-3.71-16.05-14.13-23.59-21.38-7.32,8.17-14.68,16.65-24.35,22.13-1.29-1.59-3.81-4.73-5.1-6.32,10.6-8.08,21.42-16.83,24.48-30.61-7.85-.22-15.61-.27-23.37-.27-.27-2.16-.75-6.54-1.02-8.7,7.72-.04,15.43-.09,23.24-.04.31-4.9.67-9.81,1.06-14.62Z"/>
  <path class="cls-2" d="m1684.44,529.47c3.02.93,6.08,1.86,9.14,2.87,8.16-3.98,20.4-5.3,24.92,4.64,3.9,11.26,1.42,23.72,2.26,35.47-1.86.18-5.5.49-7.36.62-.44-11.09,1.37-22.66-2.13-33.35-5.37-7.42-15.26-3.58-19.03,3.18-1.64,10.51-.89,21.24-1.37,31.93-1.6-1.06-4.7-3.14-6.3-4.2-.98-13.69-.09-27.47-.13-41.16Z"/>
  <path class="cls-2" d="m1734.43,541.75c3.86-15.41,28.43-17.53,33.84-2.25,1.64,10.64.84,21.55,1.29,32.37-12.37.4-33.62,7.82-36.32-10.2.13-15.5,19.43-15.19,30.6-15.06-3.46-4.28-7.01-15.11-14.46-10.03-5.01,1.77-9.98,3.49-14.95,5.17Zm7.5,21.86c6.25,11.35,21.86.57,21.64-10.07-7.58.53-26.43-3.67-21.64,10.07Z"/>
  <path class="cls-2" d="m973.33,656.85c4.75-9.05,16.59-9.76,25.63-9.89,24.13.8,52.69,8.61,62.8,33.13-21.95,11.66-48.61,7.64-70.61-1.77-8.78-3.89-19.43-10.29-17.83-21.47Z"/>
  <path class="cls-2" d="m1002.78,698.28c19.07,3.18,38.54,4.33,57.39-.93-3.99,12.46-8.03,25-14.77,36.31-10.64-15.64-25.06-28.09-42.62-35.38Z"/>
  <path class="cls-2" d="m955.72,726.19c-7.18-6.49-2.75-20.01,7.27-20.05,29.4-3.22,64.4,13.56,72.47,43.5-28.25,8.26-59.83-2.69-79.74-23.45Z"/>
  <path class="cls-2" d="m969.16,755.25c20.8,8.79,43.55,13.91,65.99,8.44-5.28,13.29-11.44,26.32-19.16,38.43-7.89-21.91-27.14-36.08-46.83-46.86Z"/>
  <path class="cls-2" d="m928.75,780.16c-4.88-5.83-5.5-16.43,3.19-19.04,18.67-2.83,36.15,7.33,50.34,18.29,11.44,8.61,20.71,20.85,21.86,35.55-28.83,2.08-58.99-10.69-75.4-34.8Z"/>
  <path class="cls-2" d="m891.9,829.85c-5.9-7.99-2.22-22.66,9.8-20.23,29.89,6.18,55.26,32.64,60.98,62.54-29.27,1.5-55.93-18.51-70.78-42.31Z"/>
  <path class="cls-2" d="m849.06,869.29c-3.9-7.29,3.73-18.86,12.33-15.24,30.16,9.45,52.82,38.65,53.22,70.36-29.8-4.2-56.06-26.94-65.55-55.12Z"/>
  <path class="cls-2" d="m905.74,865.98c14.95,11.84,32.64,21.02,52.29,20.63-8.87,11.35-18.45,22.17-29.49,31.54-1.86-19.52-11.4-36.7-22.8-52.16Z"/>
  <path class="cls-2" d="m800.8,908.73c-4.57-8.22,2.31-19.12,11.93-17.14,15.3,2.43,24.92,16.39,33.17,28.22,9.85,14.13,13.57,31.49,12.02,48.58-28.83-6.71-47.94-33.17-57.12-59.67Z"/>
  <path class="cls-2" d="m282.88,901.8c6.34-5.12,15.12-9.63,23.2-5.61,10.29,4.06,10.47,16.78,12.2,26.01-16.41,21.95-23.86,49.56-18.14,76.63-18.23-9.76-35.92-20.98-49.36-36.92,3.41-22.92,14.5-44.83,32.11-60.11Z"/>
  <path class="cls-2" d="m871.72,965.49c2.04-19.92-4.61-38.78-14.1-55.92,13.53,14.58,31.31,24.82,51.18,27.74-11.35,10.64-23.86,19.92-37.08,28.18Z"/>
  <path class="cls-2" d="m336.94,924.81c4.92-5.3,13.53-8.79,19.87-3.58,5.54,11.04,2.93,24.42-1.33,35.55-7.58,17.98-20.98,36.44-41.47,40.15-4.66-26.06,3.95-53.66,22.93-72.13Z"/>
  <path class="cls-2" d="m751.31,948.84c-2.53-9.14-5.5-27.34,8.16-28.05,29.67,13.34,43.6,50.26,38.58,81.14-25.59-4.51-39.38-30.7-46.75-53.09Z"/>
  <path class="cls-2" d="m800.45,940.62c11.04,18.77,29.36,30.52,47.85,40.81-11.13,9.14-24.22,15.46-36.99,21.95,4.08-21.69-.84-43.46-10.87-62.76Z"/>
  <path class="cls-2" d="m393.67,950.21c4.21-3.71,9-10.69,15.57-7.69,12.15,8.7,8.6,26.54,5.63,39.04-6.83,18.59-17.16,39.44-37.39,46.11-5.9-26.37-2.84-56.89,16.19-77.47Z"/>
  <path class="cls-2" d="m698.62,945.61c12.91-3.71,21.51,9.76,26.83,19.35,10.2,20.36,16.5,46.64,4.61,67.58-22.26-16.61-38.85-42.97-37.65-71.33.98-5.48,1.82-11.75,6.21-15.59Z"/>
  <path class="cls-2" d="m455.31,963.41c8.34-10.91,19.69,1.41,21.07,10.87,3.86,21.24-2.26,44.12-14.72,61.7-3.73,4.55-8.16,11.7-14.99,8.13-12.86-25-10.95-59.54,8.65-80.69Z"/>
  <path class="cls-2" d="m634.36,969.77c2.39-11.7,16.63-11.97,22.35-2.69,16.23,23.28,23.15,57.73,5.94,82.37-24.17-17.93-34.24-50.88-28.3-79.68Z"/>
  <path class="cls-2" d="m747.23,1032.23c4.88-21.86,3.1-44.61-4.44-65.63,6.52,21.16,23.02,36.79,41.82,47.61-7.89,10.38-25.19,12.46-37.39,18.02Z"/>
  <path class="cls-2" d="m519.71,1058.15c-20.27-24.73-21.29-65.94.09-90.06,12.46-1.41,23.73,12.41,22.57,24.29-1.24,23.23-4.44,49.11-22.66,65.77Z"/>
  <path class="cls-2" d="m568.5,996.89c.44-12.46,6.08-25.4,18.67-29.77,23.11,23.1,25.99,66.21,4.35,91.16-16.59-15.81-23.37-39.09-23.02-61.39Z"/>
  <path class="cls-2" d="m390.83,1037.35c14.46-11,26.39-25,34.28-41.38-2.39,18.29,1.55,36.35,6.96,53.8-14.19-2.65-28.07-6.63-41.25-12.41Z"/>
  <path class="cls-2" d="m685.23,996.58c6.12,18.11,18.89,32.77,34.33,43.77-13.48,5.96-27.81,9.58-42.31,12.15,9.58-17.18,9.22-36.97,7.98-55.92Z"/>
  <path class="cls-2" d="m488.53,1010.27c2.88,17.98,6.39,36.13,15.83,51.99-14.24-.62-28.25-3.09-42-6.63,12.33-12.76,21.55-28.18,26.17-45.36Z"/>
  <path d="m691.39,470.06l6.74.09c.13,2.12.44,6.4.62,8.57,6.34.13,12.68.44,19.03.93-5.41,7.86-19.74,1.46-21.38,12.68,7.67.4,15.35.66,23.06.88-.09-8.04-.22-16.12-.35-24.07h6.7c.22,7.73.53,15.5.84,23.32,9.85.49,19.74,1.02,29.45,2.87-8.74,5.43-19.2,3.84-29.01,4.59,1.33,8.66,2.71,17.4,4.44,26.1,4.44-7.38,7.85-15.24,12.2-22.57,7.89-.09,2.31,7.64,1.37,11.7-4.04,10.64-13.7,20.23-7.58,32.51,8.43-3.84,5.54-17.09,15.21-18.64-1.64,8.39-.4,19.21-7.81,25.18-8.52,3.4-12.2-6.76-16.76-11.35-3.41,3.8-6.83,7.6-10.2,11.48-1.55-1.1-4.66-3.36-6.21-4.46,4.83-5.17,9.62-10.34,14.41-15.5-2.79-11.57-4.97-23.23-6.3-34.98-8.16,1.68-22.35-4.02-26.92,3.14,1.73,11.26,18.27,2.12,25.72,5.83-4.97,7.51-14.59,4.02-21.86,5.43,1.37,11.48,14.01,8.92,21.38,13.52-6.96,2.34-16.28.66-20.76,7.77,6.08.27,12.2.44,18.36.53l.22,5.39c-3.73.4-11.22,1.15-14.95,1.55-.89,5.39-.58,11.7-6.08,14.88-.44-3.45-1.29-10.38-1.73-13.82-7.36.49-14.68.97-21.95,1.55-.04-1.55-.13-4.59-.13-6.1,7.94-.71,15.88-1.5,23.86-2.34-.98-11.31-13.97-5.96-21.38-7.69,1.55-3.58,4.61-10.73,6.12-14.31-2.79-1.28-8.43-3.93-11.27-5.21,3.73-.62,11.18-1.81,14.9-2.39,0-1.1.04-3.27.09-4.37-5.77-3-11.97-4.9-17.92-7.42,8.78-1.46,17.65-2.08,26.39-3.71,2.26-10.42-12.37-5.17-18.14-7.42l-.22-5.39c5.77,0,11.58,0,17.43.04.09-2.21.27-6.58.35-8.79Zm-5.23,53.27c7.01,1.06,9.85-1.99,8.38-9.19-7.01-1.1-9.8,1.99-8.38,9.19Z"/>
  <path d="m731.97,470.42c6.96,5.21,14.77,11,15.08,20.67-7.58-4.64-15.12-10.95-15.08-20.67Z"/>
  <path d="m784.04,473.29c1.69-.88,5.14-2.74,6.87-3.67-11.04,27.34-6.92,56.84-7.67,85.6l-6.74-.75c.04-15.59-.09-31.18.27-46.77-2.44,3.14-7.36,9.36-9.8,12.46-.22-2.21-.71-6.63-.93-8.83,6.3-12.54,12.37-25.18,18.01-38.03Z"/>
  <path d="m814.33,470.37h6.92c0,3.93.09,11.88.13,15.86,9.27,1.68,22.75-4.42,28.61,5.57-7.63.62-15.21,1.1-22.8,1.46,4.39,15.06,13.26,28,21.69,41.03-.27,1.94-.71,5.74-.98,7.69-13.7-11.62-20.49-28.62-25.24-45.4-1.06,12.01-1.55,24.07-1.42,36.13,3.81,0,11.44.04,15.26.04l-.31,6.54c-3.59-.04-10.69-.18-14.24-.22-.53,6.14-1.11,12.32-1.77,18.55-7.58-3-5.68-11.31-6.43-17.67-6.03-.8-13.04-.04-16.5-6.23,5.68-.62,11.4-1.1,17.16-1.5-.18-11.57-.09-23.14-.09-34.72-8.34,14.53-11.62,38.29-30.2,42.14,8.65-15.28,19.34-29.59,24.44-46.6-6.83-.18-13.62-.44-20.45-.75,4.57-10.38,17.39-4.55,26.08-6.05.04-5.34.09-10.6.13-15.86Z"/>
  <path d="m350.51,478.19c16.59,8.39,20.98,28.93,32.02,42.75,11.13-13.65,15.52-34.01,31.67-42.62.71,23.14.13,46.29.4,69.43-1.95.4-5.94,1.24-7.94,1.63-.35-17.4,0-34.8-.4-52.21-7.98,11.84-15.3,24.12-23.77,35.69-8.78-11.57-16.05-24.12-24.44-35.91-.09,17.18.04,34.41,0,51.68h-7.94c.18-23.5-.4-46.95.4-70.45Z"/>
  <path d="m434.34,480.22c13.08.75,27.76-1.81,39.34,5.74,19.74,12.28,19.03,45.71-1.02,57.33-11.71,6.36-25.5,5.12-38.32,5.57-.04-22.88,0-45.76,0-68.64Zm8.12,61.26c7.45-.71,15.26-.27,22.49-2.65,19.2-8.04,19.74-39.93.98-48.67-7.27-3.4-15.61-2.47-23.37-3.45-.27,18.24-.18,36.48-.09,54.77Z"/>
  <path d="m504.5,500.01c.8-13.74,16.94-16.25,26.79-21.42.58,23.45.27,46.86.22,70.31l-7.98-.49c0-19.52.09-39-.13-58.48-6.25,3.45-12.55,6.8-18.89,10.07Z"/>
  <path d="m566.46,511.36c-15.66-11.93-2.66-36.75,16.1-32.11,16.45,1.59,20.27,21.55,9.49,32.02,6.25,6.98,12.06,16.56,7.27,26.06-7.36,18.11-39.29,15.19-42.04-4.59-2.35-8.75,3.73-15.55,9.18-21.38Zm8.87-24.51c-13.84,2.83-6.87,26.06,6.96,20.94,14.5-3.31,7.45-27.03-6.96-20.94Zm-5.06,31.31c-4.92,4.11-6.34,11.93-2.93,17.45,4.83,9.54,22.22,8.26,24.84-2.56,4.97-12.41-12.15-24.34-21.91-14.88Z"/>
  <path d="m609.96,480.4c16.45.57,33.13-1.33,49.45,1.06.71,1.37,2.13,4.06,2.79,5.39-7.76.4-15.52.53-23.28.75.04,20.41.13,40.85-.09,61.35l-7.5-.44c.13-20.45,0-40.85-.93-61.22-6.96,0-13.88.04-20.8.09l.35-6.98Z"/>
  <path d="m291.22,497.18c1.69,2.03,5.06,6.14,6.74,8.17,6.79-3.4,14.46-9.41,22.4-5.17,20.14,7.64,19.34,42.53-1.69,48.67-7.67,2.47-14.41-3.09-21.07-5.74-.09,10.29,1.11,21.02-3.1,30.83-5.28-6.67-4.35-15.11-4.44-22.88.27-17.98-.58-36,1.15-53.88Zm16.05,10.16c-9.98,3.18-11.35,16.78-8.07,25.26,2.66,11.88,22.57,12.63,26.12.84,6.16-12.01-2.44-32.33-18.05-26.1Z"/>
  <path d="m1392.17,511.27c1.51,1.63,4.61,4.86,6.12,6.49,5.68-.18,11.4-.31,17.12-.4.04,6.14.09,12.32.13,18.59-12.91-.18-25.9-1.19-38.67.57l-3.46,8.08c13.62-.62,27.23-.93,40.89-.88.09,7.69.22,15.46.49,23.23-12.06-3.4-24.61-3.45-36.72-.31.04-4.33.13-12.99.18-17.31-5.23,5.61-10.16,11.57-15.52,17.09,6.16-15.46,9.14-31.76,9.09-48.36,7.01-1.41,16.81,1.94,20.36-6.8Zm-15.17,11.66l-2.93,7.73c12.91.4,25.86.4,38.81-.09l-2.93-7.55c-10.91-1.5-22.04-1.46-32.95-.09Zm5.1,36.7c9.27,0,18.54,0,27.85.04-.27-2.74-.8-8.17-1.06-10.91-10.29-.4-30.65-6.27-26.79,10.87Z"/>
  <path d="m1457.28,525.98c3.06-5.48,6.16-10.87,9.18-16.34-1.2,10.51,5.46,14.35,14.81,14.8-.58,13.43.18,27.12-2.66,40.37-5.1,1.86-10.42.57-15.43-.8,20.22-1.24,10.87-25.04,12.73-38.25l-7.32,3.05c-2.04,13.82-4.04,28-12.77,39.53-1.86-5.92-5.46-10.38-10.87-13.34.84-4.68,1.69-9.36,2.66-13.96,2.22,4.24,6.7,12.68,8.96,16.92,3.15-9.89,11.97-24.12.71-31.98Z"/>
  <path d="m1215.21,517.72c11.09.13,27.54-1.06,30.11,13.29.22,12.76-14.15,15.5-24.13,16.17-.62,6.27-1.37,12.59-2.26,18.9-7.94-14.62-2.17-32.46-3.73-48.36Zm5.28,4.11c.18,6.98.44,13.96.75,21.02,6.21-2.47,16.99-1.06,18.14-9.89.71-11-11.62-9.23-18.89-11.13Z"/>
  <path d="m1328.88,513.21c4.39,5.34,3.19,12.19,3.77,18.59,7.14,0,17.21-3.45,20.58,5.48,1.64,9.58,1.51,19.79-2.48,28.84-1.37-9.5-1.64-19.08-3.06-28.49-3.37-.71-10.16-2.08-13.57-2.74-1.64,10.38.31,21.91-5.1,31.45-2.71-17.58-2.53-35.55-.13-53.13Z"/>
  <path d="m1495.86,515.55c16.28-.27,32.6-.4,48.87,1.15-8.52,6.45-17.16,12.68-24.92,20.05,8.56.35,17.16.57,25.77.71l.4,4.55c-7.85-.04-15.7-.04-23.51,0-.4,7.02-.44,14.13-1.51,21.2-4.04,3.62-10.07,3-14.9,4.64-.27-1.63-.75-4.86-1.02-6.45,2.75.13,8.25.35,11,.44.09-6.63.18-13.25.31-19.83-8.38-.04-16.72-.04-25.01-.04l.09-4.64c7.36-.04,14.72-.09,22.18-.09,5.32-6.36,11.31-12.06,17.65-17.36-11.84.09-23.68.13-35.52.13l.13-4.46Z"/>
  <path d="m1253.67,531.46c7.05.04,14.19-.71,21.24.49,8.6,7.46,4.12,20.67,5.59,30.74-1.24.13-3.73.44-4.97.57-.31-9.23-.67-18.46-1.11-27.6-3.55.4-10.56,1.24-14.1,1.63-2,8.26-1.82,16.83-2.04,25.31-1.11.13-3.41.4-4.52.57-.04-10.6-.04-21.16-.09-31.71Z"/>
  <path d="m1290.3,535.83c6.74-3.89,16.14-8.48,22.88-1.72,4.92,8.3,2.35,18.59,3.41,27.83-8.91-.35-23.33,5.52-26.48-6.4-1.69-12.41,14.81-11.26,22.62-12.99-4.04-9.41-14.86-5.7-22.44-6.71Zm7.81,15.06c-5.23,6.14,5.77,11.75,9.58,5.87,5.32-6.27-5.81-12.01-9.58-5.87Z"/>
  <path d="m1428.81,531.63c9.49-.09,19.29-.27,28.38,3.05-3.73.57-11.22,1.77-14.95,2.34-2.31,5.3-4.66,10.69-6.96,16.08,2.84,1.24,8.6,3.75,11.44,5.04-6.16,1.15-12.29,2.3-18.41,3.49,2.39-7.07,4.92-14.13,7.5-21.11-2.39-3-4.7-5.96-7.01-8.88Z"/>
  <path class="cls-11" d="m1665.06,441.8c166.71-1.06,333.52,0,500.27-.53,8.12.04,16.41-.31,24.44,1.59,2.79,27.3.4,54.9,1.24,82.33,45.28-.04,90.56-.04,135.85,0,.71-22.92-1.33-45.93,1.11-68.72,20.98-4.02,42.67-.8,63.95-1.77,60.76.88,121.7-1.99,182.32,1.55-.09,59.58.71,119.21-.31,178.75-1.2,1.15-3.55,3.45-4.75,4.55-69.41,1.15-138.91,0-208.36.53-11.27.22-22.57-.18-33.71-1.9-.49-27.91-.09-55.83-.27-83.7-45.28-.04-90.56-.04-135.85,0-.27,28.27.31,56.53-.18,84.8,1.37,7.69-4.75,11.48-11.84,9.89-167.07.22-334.09-.13-501.16.18-6.34-.84-15.39,2.25-18.41-5.43-1.15-31.23-.13-62.54-.35-93.77-32.46-.35-64.93.4-97.39-.49-.44-7.46-.44-14.93,0-22.3,32.42-.75,64.84-.31,97.3-.35.71-27.43-1.37-54.99.98-82.33,1.24-.71,3.81-2.12,5.1-2.87Zm120.86,67c-3.5,21.2-.67,42.89-1.55,64.31,1.82-.13,5.5-.49,7.32-.62.71-12.76-5.77-38.07,14.64-36.48,16.41,7.42-2.71,32.77,14.15,39-.31-13.29,3.02-27.74-2.97-40.1-6.34-8.92-17.47-5.21-25.81-1.81-2.44-7.16,5.14-24.38-5.77-24.29Zm580.59,3.58c-3.77.18-11.27.49-15.03.66,2.71,7.55,11.27,5.43,17.56,7.11,0,10.56,0,21.16.09,31.76-6.7.22-13.31.66-19.87,1.46,2.53,11.04,18.49,4.9,26.61,7.51-8.2,6.58-16.99,12.37-26.17,17.49,3.28,5.96,6.48,12.01,9.22,18.33,27.28-1.06,54.6.57,81.83-.8.8-1.72,2.44-5.17,3.24-6.89-13.84-.31-27.63-.18-41.38-.49.31-1.86.93-5.52,1.24-7.38,7.67-1.19,18.23,2.34,22.31-6.54,7.05,2.34,16.28,15.24,22.71,5.61-8.6-7.29-18.72-12.46-27.76-19.04,9.8-1.06,19.65-2.03,29.45-3.8-5.59-6.93-15.12-4.51-22.71-5.52,0-10.78,0-21.55.13-32.29,4.44-.4,13.39-1.19,17.83-1.59-2.75-6.45-9.89-5.7-15.66-6.32-1.73-2.34-5.28-7.02-7.05-9.36-6.48,17.4-28.03,7.16-42,10.16-1.77-2.65-5.32-7.91-7.1-10.56-1.86,2.65-5.63,7.86-7.5,10.47Zm101.07-4.68c1.37,31.67-3.28,64,2.39,95.23,2.44-2.21,7.32-6.58,9.76-8.75,19.43.18,38.85-.09,58.32.27,4.17,2.43,8.43,4.81,12.73,7.2.44-31.31.13-62.59.18-93.9-27.81.04-55.57.09-83.38-.04Zm-613.99,5.12c-8.87,20.14-16.14,40.99-23.77,61.61,9.93-.93,11.31-10.78,14.46-18.24,8.03-.09,16.1-.44,24.17.35,4.39,6.93,5.23,17.67,15.88,17.93-8.16-20.98-15.26-42.58-25.72-62.5-1.29.22-3.77.62-5.01.84Zm41.73-.57c-.27,20.23-.13,40.46-.18,60.73,12.11-.75,25.19,2.03,36.63-2.78,11.04-6.45,8.25-21.73-.27-29.11,2.57-7.16,6.74-15.94.44-22.44-9.62-9.58-24.48-5.17-36.63-6.4Zm70.78,59.8c12.2,6.23,28.52.13,32.42-13.25-9.18,1.68-16.99,10.38-26.65,7.91-21.33-6.58-20-45.09,2.97-48.23,8.03-1.33,13.53,5.57,19.38,9.72,7.05-11.48-10.82-18.06-19.87-16.65-29.8,2.21-34.55,49.47-8.25,60.51Zm105.64-59.49c.13,20.1.04,40.24.13,60.38h38.23v-6.27c-10.24-.04-20.45-.09-30.56-.04-.04-7.07-.04-14.05,0-21.02,9.31-2.03,23.77,4.55,29.05-6.18-9.67-.84-19.38-1.06-29.05-1.15-.04-6.32-.04-12.63,0-18.86,10.11-.18,20.4.31,30.51-1.06,0-1.28-.04-3.93-.09-5.26-12.73-1.33-25.5-.66-38.23-.53Zm52.82.04c.35,19.88-.44,39.75.22,59.67,1.82,0,5.46.09,7.23.09.49-8.66.22-17.36.27-26.01,9.76-.18,19.56-.44,29.32-1.5-6.3-9.98-19.91-4.02-29.4-5.74-.04-6.63-.04-13.21.04-19.74,9.45-2.74,27.41,5.96,31.58-5.87-13.04-1.72-26.21-.97-39.25-.88Zm-115.53-.27c-.04,20.23,0,40.5,0,60.77,10.24-.49,20.89.84,30.87-2.16,20.45-7.77,23.68-38.87,6.96-51.99-10.64-8.7-25.15-6.05-37.83-6.63Zm-324.6,17.14c.04,13.69-.84,27.47.13,41.16,1.6,1.06,4.7,3.14,6.3,4.2.49-10.69-.27-21.42,1.37-31.93,3.77-6.76,13.66-10.6,19.03-3.18,3.5,10.69,1.69,22.26,2.13,33.35,1.86-.13,5.5-.44,7.36-.62-.84-11.75,1.64-24.2-2.26-35.47-4.52-9.94-16.76-8.61-24.92-4.64-3.06-1.02-6.12-1.94-9.14-2.87Zm49.98,12.28c4.97-1.68,9.93-3.4,14.95-5.17,7.45-5.08,11,5.74,14.46,10.03-11.18-.13-30.47-.44-30.6,15.06,2.71,18.02,23.95,10.6,36.32,10.2-.44-10.82.35-21.73-1.29-32.37-5.41-15.28-29.98-13.16-33.84,2.25Z"/>
  <path class="cls-11" d="m2476.63,516.66c21.73.04,43.51.04,65.33-.04.09,22.97.04,45.98.04,68.95h-65.37c-.04-22.97-.09-45.93,0-68.9Zm28.52,3.18c-.4,4.81-.75,9.72-1.06,14.62-7.81-.04-15.52,0-23.24.04.27,2.16.75,6.54,1.02,8.7,7.76,0,15.52.04,23.37.27-3.06,13.78-13.88,22.53-24.48,30.61,1.29,1.59,3.81,4.73,5.1,6.32,9.67-5.48,17.03-13.96,24.35-22.13,7.54,7.24,13.39,17.67,23.59,21.38l2.53-6.14c-8.29-10.25-19.91-17.71-25.86-29.77,8.83-.49,17.65-.66,26.61-.71l.09-8.57c-7.98-.09-15.83-.04-23.73.04.04-5.08.09-10.07.22-15.02l-8.52.35Z"/>
  <path class="cls-11" d="m1902.87,518.65c8.65,1.63,23.24-1.68,25.1,10.25-2.13,11.97-16.19,9.41-25.1,10.56-.04-6.98-.04-13.91,0-20.8Z"/>
  <path class="cls-11" d="m2016.49,519.26c8.38.44,18.09-1.1,25.06,4.9,10.56,8.97,10.73,27.3.75,36.75-7.01,6.23-17.03,5.12-25.63,6.32-.09-15.99-.04-31.98-.18-47.97Z"/>
  <path class="cls-11" d="m1846.45,549.08c3.28-8.66,6.56-17.27,10.2-25.75,3.28,8.61,6.56,17.27,9.89,25.93-6.74-.09-13.44-.13-20.09-.18Z"/>
  <path class="cls-11" d="m2376.44,532.96c15.08-.75,30.16-.75,45.24.18-9.45,11.93-27.5,4.68-40.63,5.74-1.15-1.5-3.46-4.42-4.61-5.92Z"/>
  <path class="cls-11" d="m1128.6,537.77c19.65-2.25,39.47-1.15,59.16-2.39.18,8.3.09,16.56-.13,24.91-27.23.35-54.51,3.36-81.74,2.39-1.73-.93-5.14-2.78-6.87-3.71.58-5.39,1.37-10.78,2.17-16.08,9.09-1.81,18.23-3.71,27.41-5.12Z"/>
  <path class="cls-11" d="m1902.87,544.97c9.58,1.46,25.77-3.05,28.52,10.16-.35,14.8-18.63,10.6-28.56,11.97-.04-7.42-.04-14.8.04-22.13Z"/>
  <path class="cls-11" d="m2375.47,547.4c15.3-1.81,30.82-1.77,46.21-.49-4.92,7.33-13.97,5.21-21.38,5.74-8.43-.75-18.63,2.12-24.84-5.26Z"/>
  <path class="cls-11" d="m1741.92,563.61c-4.79-13.74,14.06-9.54,21.64-10.07.22,10.64-15.39,21.42-21.64,10.07Z"/>
  <path class="cls-11" d="m2373.74,573.46c4.26-4.64,8.65-9.14,12.99-13.74,8.34.09,16.76.31,25.15.66,3.86,4.42,7.81,8.83,11.8,13.25-6.39,0-12.68-.04-18.94,0-.44-6.05-3.5-9.85-9.22-11.48-.49,2.92-1.46,8.83-1.95,11.79-4.97-.13-14.9-.4-19.82-.49Z"/>
  <path class="cls-11" d="m2361.27,580.04c3.28-1.86,6.56-3.67,9.89-5.43,3.5,9.76,15.48,4.81,23.28,6.54l.09,7.55c-12.2.09-24.44.09-36.59.35.84-2.25,2.53-6.76,3.33-9.01Z"/>
  <path class="cls-5" d="m1187.49,485.34c31.71-3.75,63.69-.8,95.58-2.08,92.96,1.28,186.01-1.24,278.92,1.37,1.37,14.22.98,28.49-.31,42.71-.44,7.38-.44,14.84,0,22.3,1.69,17.8,1.86,35.69.18,53.53-106.13,3.05-212.48.49-318.7,1.33-17.83-.44-35.84,1.5-53.49-1.46-5.01-13.52-1.6-28.62-2.04-42.75.22-8.35.31-16.61.13-24.91-.58-16.7-.71-33.39-.27-50.04Zm204.68,25.93c-3.55,8.75-13.35,5.39-20.36,6.8.04,16.61-2.93,32.9-9.09,48.36,5.37-5.52,10.29-11.48,15.52-17.09-.04,4.33-.13,12.99-.18,17.31,12.11-3.14,24.66-3.09,36.72.31-.27-7.77-.4-15.55-.49-23.23-13.66-.04-27.28.27-40.89.88l3.46-8.08c12.77-1.77,25.77-.75,38.67-.57-.04-6.27-.09-12.46-.13-18.59-5.72.09-11.44.22-17.12.4-1.51-1.63-4.61-4.86-6.12-6.49Zm65.11,14.71c11.27,7.86,2.44,22.08-.71,31.98-2.26-4.24-6.74-12.68-8.96-16.92-.98,4.59-1.82,9.28-2.66,13.96,5.41,2.96,9,7.42,10.87,13.34,8.74-11.53,10.73-25.71,12.77-39.53l7.32-3.05c-1.86,13.21,7.5,37.01-12.73,38.25,5.01,1.37,10.33,2.65,15.43.8,2.84-13.25,2.08-26.94,2.66-40.37-9.36-.44-16.01-4.28-14.81-14.8-3.02,5.48-6.12,10.87-9.18,16.34Zm-242.06-8.26c1.55,15.9-4.21,33.74,3.73,48.36.89-6.32,1.64-12.63,2.26-18.9,9.98-.66,24.35-3.4,24.13-16.17-2.57-14.35-19.03-13.16-30.11-13.29Zm113.67-4.51c-2.39,17.58-2.57,35.55.13,53.13,5.41-9.54,3.46-21.07,5.1-31.45,3.41.66,10.2,2.03,13.57,2.74,1.42,9.41,1.69,18.99,3.06,28.49,3.99-9.05,4.12-19.26,2.48-28.84-3.37-8.92-13.44-5.48-20.58-5.48-.58-6.4.62-13.25-3.77-18.59Zm101.78,3.8c1.95,5.79,18.54,5.92,20.31,0-6.08-3.09-14.33-3.14-20.31,0Zm65.2-1.46l-.13,4.46c11.84,0,23.68-.04,35.52-.13-6.34,5.3-12.33,11-17.65,17.36-7.45,0-14.81.04-22.18.09l-.09,4.64c8.29,0,16.63,0,25.01.04-.13,6.58-.22,13.21-.31,19.83-2.75-.09-8.25-.31-11-.44.27,1.59.75,4.81,1.02,6.45,4.83-1.63,10.87-1.02,14.9-4.64,1.06-7.07,1.11-14.18,1.51-21.2,7.81-.04,15.66-.04,23.51,0l-.4-4.55c-8.6-.13-17.21-.35-25.77-.71,7.76-7.38,16.41-13.6,24.92-20.05-16.28-1.55-32.6-1.41-48.87-1.15Zm-242.2,15.9c.04,10.56.04,21.11.09,31.71,1.11-.18,3.41-.44,4.52-.57.22-8.48.04-17.05,2.04-25.31,3.55-.4,10.56-1.24,14.1-1.63.44,9.14.8,18.37,1.11,27.6,1.24-.13,3.73-.44,4.97-.57-1.46-10.07,3.02-23.28-5.59-30.74-7.05-1.19-14.19-.44-21.24-.49Zm36.63,4.37c7.58,1.02,18.41-2.69,22.44,6.71-7.81,1.72-24.3.57-22.62,12.99,3.15,11.93,17.56,6.05,26.48,6.4-1.06-9.23,1.51-19.52-3.41-27.83-6.74-6.76-16.14-2.16-22.88,1.72Zm138.51-4.2c2.31,2.92,4.61,5.87,7.01,8.88-2.57,6.98-5.1,14.05-7.5,21.11,6.12-1.19,12.24-2.34,18.41-3.49-2.84-1.28-8.6-3.8-11.44-5.04,2.31-5.39,4.66-10.78,6.96-16.08,3.73-.57,11.22-1.77,14.95-2.34-9.09-3.31-18.89-3.14-28.38-3.05Z"/>
  <path class="cls-5" d="m1220.49,521.83c7.27,1.9,19.6.13,18.89,11.13-1.15,8.83-11.93,7.42-18.14,9.89-.31-7.07-.58-14.05-.75-21.02Z"/>
  <path class="cls-5" d="m1377,522.93c10.91-1.37,22.04-1.41,32.95.09l2.93,7.55c-12.95.49-25.9.49-38.81.09l2.93-7.73Z"/>
  <path class="cls-5" d="m1382.1,559.63c-3.86-17.14,16.5-11.26,26.79-10.87.27,2.74.8,8.17,1.06,10.91-9.31-.04-18.58-.04-27.85-.04Z"/>
  <path class="cls-5" d="m1298.11,550.89c3.77-6.14,14.9-.4,9.58,5.87-3.81,5.87-14.81.27-9.58-5.87Z"/>
  <path class="cls-4" d="m529.16,3.17c14.77,4.02,29.18-2.74,44-3,14.99-1.15,29.32,3.93,43.37,8.35,25.68-7.07,52.64.4,75.35,12.94,21.95-1.55,44.35,4.51,61.74,18.11,10.38,8.88,25.37,5.83,37.17,11.88,14.33,4.9,24.7,16.12,36.54,24.82,19.87,6.18,39.69,15.19,53.09,31.71,9.05,12.37,25.19,15.37,36.46,25.13,11.49,8.13,18.01,20.67,26.3,31.62,9,7.33,19.6,12.76,27.45,21.47,12.2,12.06,15.74,30.21,29.01,41.38,16.72,14.8,25.95,35.38,32.2,56.27,17.34,18.9,27.14,42.84,31.05,67.97,11.27,20.23,18.85,42.71,19.96,65.94-.89,19.52-14.86,38.12-33.57,44.12-6.61,2.21-13.31,4.28-20,6.27-15.7,4.11-33,6.18-48.48,0-10.69-4.59-21.02-15.24-18.58-27.74,2.13-12.81,13.93-20.1,23.28-27.56-14.81-1.19-35.35-3.84-38.76-21.51-3.86-18.37,12.29-31.09,26.57-38.82-14.77,1.9-34.06,8.92-45.33-4.68-10.07-9.72-8.07-26.01.62-35.86,20.62-23.63,52.07-37.9,83.78-34.72-7.1-12.94-15.17-25.26-24.17-36.92-7.67,29.5-31.71,53.22-60.23,63.12-13.08,4.68-32.07,2.08-36.28-13.25-5.37-17.45,6.96-32.64,18.18-44.48-11.71,7.73-24.53,17.49-39.47,14.88-15.43-3.8-23.33-21.91-17.43-36.26,10.95-30.87,40.09-52.16,71.32-59.76-9.31-10.95-20.18-20.36-31.84-28.66,1.82,33.43-20.4,62.89-47.37,80.34-16.68,11.35-40.4-3.45-38.54-23.06,2.75-34.67,30.47-62.23,62-73.98-10.47-9.63-22.35-17.53-34.86-24.29,3.5,29.55-8.34,59.8-29.8,80.21-9.85,8.61-25.9,16.78-37.7,7.11-11.71-8.35-11.97-24.42-9.49-37.1,6.87-27.78,25.99-51.68,51.49-64.79-12.33-7.33-25.19-13.69-38.45-19.08,7.98,33.74-1.64,72.74-30.16,94.25-9.09,8.22-24.04,5.34-31.22-3.93-10.47-10.69-7.85-26.54-7.41-39.97-8.07,13.07-17.87,28.13-34.68,30.12-20.89-3.71-26.52-26.46-26.21-44.56-5.37,13.07-12.55,28.44-27.54,32.42-13.93,3.45-26.08-8.39-29.98-20.76-11.62-30.61-1.06-65.06,17.83-90.45-14.72-1.02-29.54-1.33-44.31-1.02,20.93,23.41,26.3,57.42,16.54,86.83-3.95,11.48-13.62,21.47-25.95,23.5-10.29-.8-19.78-7.07-24.57-16.08-15.43-29.37-12.73-66.56,5.94-93.86-14.68,1.19-29.32,2.69-43.91,4.33,19.56,22.35,31.98,52.6,27.54,82.5-2.75,13.25-11.35,29.5-26.97,29.33-18.58-2.52-28.83-20.89-34.02-37.01.09,12.15,1.02,24.91-3.59,36.48-4.12,10.11-15.74,17.58-26.7,14.09-12.73-4.64-20.58-16.47-28.34-26.81.93,13.87,4.48,29.72-4.52,41.83-8.34,12.63-27.05,9.19-37.21.8-25.46-21.02-35.84-56.31-30.91-88.33-13.79,6.67-27.1,14.18-39.29,23.45,30.56,11.84,56.77,39.35,60.67,72.48,3.28,18.11-14.9,36.39-33.13,29.15-34.24-13.43-52.78-52.21-50.65-87.58-6.61,6.23-13.26,12.46-19.2,19.35-4.12-3.98-8.25-7.91-12.33-11.79,9.71-13.07,24.75-19.39,38.36-27.34,17.34-17.49,39.16-31.23,64.26-33.66,16.28-19.48,41.82-25.93,66.08-28.18,21.73-13.87,46.97-20.49,72.78-18.51,19.82-7.24,40.85-13.91,62.22-9.19Zm101.25,18.95c8.87,17.18,15.12,36.08,12.29,55.7,5.23-18.51,16.81-34.05,29.94-47.83-13.75-4.2-27.85-7.11-42.22-7.86Zm-90.87,4.73c-13.04,17.23-16.01,40.5-12.06,61.3,2.66,8.97,5.85,20.05,15.03,24.51,8.56,3,14.01-5.48,16.19-12.32,7.67-22.66,4.79-49.6-9.49-69.12-2-4.51-5.23-5.96-9.67-4.37Zm-127.29,11.79c15.66,13.29,28.65,29.72,35.35,49.29-3.24-20.14-.67-40.68,7.41-59.41-14.59,1.68-28.96,4.99-42.75,10.11Zm180.37,53.4c1.11,8.48,3.55,17.76,10.87,23.1,11,3.05,17.16-8.13,20.62-16.61,9.09-23.85,8.07-53.53-10.42-72.83-16.1,17.89-24.08,42.49-21.07,66.34Zm-131.85-38.25c-2.13,24.16,2.08,53.44,24.04,67.93,13.22-8.17,14.72-24.95,13.26-38.91-2.39-17.84-9.14-36.31-23.02-48.45-10.91-1.86-12.37,11.75-14.28,19.43Zm241.44-16.52c5.85,18.86,8.12,38.91,2.48,58.21,7.01-12.06,14.81-23.85,25.68-32.86,3.46-4.15,9.8-6.67,10.6-12.41-12.33-5.96-25.55-9.58-38.76-12.94Zm-47.37,76.1c.53,6.1,4.48,14.18,11.93,13.03,10.33-.27,15.48-11.22,19.6-19.12,8.6-21.73,13.31-48.94-1.24-69.21-23.37,17-33.26,47.35-30.29,75.31Zm-307.44-50.97c.18,5.65,6.56,6.85,10.11,10.11,12.46,7.86,19.2,21.47,28.12,32.77-4.88-19.17-6.92-39.35-.35-58.43-12.86,4.51-25.99,8.7-37.88,15.55Zm56.01,47.92c5.77,11.75,14.37,26.5,29.8,23.94,10.47-25.93-.58-54.94-17.7-75.22-4.48-3.22-9.54-11.97-15.7-7.86-8.91,18.68-4.83,40.99,3.59,59.14Zm316.75-9.63c-4.35,12.99-10.11,28.36-2.22,41.16,6.03,7.91,16.37,1.46,21.29-4.42,16.94-20.67,26.43-51.54,13.08-76.45-13.88,10.25-26.52,23.1-32.15,39.71Zm-386.69-25.57c-2.08,17.98-1.33,36.92,7.85,53.05,7.27,13.25,17.21,30.25,34.77,28.93,10.29-32.33-10.87-70.84-42.62-81.97Zm435.92,87.05c0,9.19,12.86,13.56,19.2,7.2,23.86-16.12,38.19-48.81,29.98-76.81-29.89,8.75-49.63,39.22-49.18,69.61Zm-498.85-49.29c0,19.61,5.63,39.26,18.09,54.72,7.58,9.32,17.43,20.54,30.6,19.7,11.58-6.05,7.32-22.35,2.75-31.71-10.47-19.92-26.88-41.61-51.45-42.71Zm564.05,44.92c-8.91,13.12-20.09,31.27-11.13,46.86,7.89,2.21,16.28,0,22.49-5.17,20-15.81,35.35-40.63,31.93-66.96-17.16,2.25-33.71,10.42-43.29,25.26Zm30.69,74.86c-2.31,10.42,9.36,18.59,18.36,12.32,25.63-11.35,46.43-37.41,46.79-66.12-29.94,2.83-56.1,25.71-65.15,53.8Zm79.34-48.23c-3.24,21.77-13.66,41.74-29.32,57.24,15.61-14.22,35.48-22.53,56.5-24.42-7.85-11.93-16.99-22.88-27.19-32.82Zm-39.78,92.22c-4.75,9.63,5.14,18.2,14.59,14.58,27.9-6.23,54.06-30.43,55.75-59.98-29.09.84-57.88,19.17-70.34,45.4Zm63.47,22.35c-14.01,7.95-32.46,17.62-32.91,35.91,5.54,10.64,19.69,7.6,29.23,5.08,21.82-8.22,45.81-22.44,50.47-47.26-15.83-2.43-32.78-2.56-46.79,6.27Zm57.35,4.77c-6.65,19.3-22.62,32.68-39.74,42.75,19.34-6.67,40.14-8.52,59.65-1.33-5.68-14.27-11.93-28.31-19.91-41.43Zm-60.58,72.52c-5.23,4.59-8.07,14.97-.18,18.59,14.99,6.32,32.86,2.43,47.37-4.06,13.7-6.85,29.18-16.25,31.8-32.68-27.05-8.39-58.9-2.21-78.99,18.15Zm51.4,27.56c16.63-.88,33.31.4,49.23,5.52-3.15-12.32-6.52-24.51-9.93-36.7-10.16,13.69-22.93,25.4-39.29,31.18Zm-26.34,23.89c-7.05,3.75-18.94,11.79-11.93,20.76,4.97,8.79,16.54,7.64,25.15,8.7,23.77.53,51.85-7.64,62.84-30.61-23.11-12.72-52.82-9.81-76.06,1.15Z"/>
  <path class="cls-10" d="m969.33,640.46c17.12-11.57,38.54-7.24,57.48-3.75,6.39.22,12.86.27,19.29.35,4.66,13.16,21.73,16.65,26.48,30.3,11.4,29.5-1.73,62.81-19.91,86.83-1.15,25.57-13.88,49.07-32.02,66.74-6.21,26.28-23.2,47.75-43.95,64.4-9.98,21.64-27.01,38.51-47.01,51.23-16.72,19.17-34.46,39.62-60.49,45.89-9.45,11.53-20.18,22.61-34.19,28.49-12.99,6.4-29.01,6.1-39.92,16.52-14.01,11.44-31.4,18.15-49.36,20.01-14.59.8-24.88,12.94-38.76,16.21-17.61,6.23-37.12,1.63-54.28,9.19-19.43,7.99-41.02,8.88-61.34,3.89-22.93,8.61-48.48,7.46-71.32-.84-25.5,5.7-52.24,1.46-75.44-10.16-25.15,1.63-51.27-4.86-70.83-21.11-25.37-.35-48.74-12.32-66.61-29.72-21.55-2.16-40.58-13.96-56.72-27.6-7.45-5.92-9.58-15.41-12.51-23.89,3.19-.35,9.62-1.1,12.86-1.5,13.44,15.94,31.13,27.16,49.36,36.92-5.72-27.07,1.73-54.68,18.14-76.63,3.02-2.96,6.08-5.79,9.31-8.52,7.89-5.96,17.74-11.31,27.99-8.48,13.44,2.65,19.78,17.58,19.16,30.08-2.44,31.62-22.62,59.85-49.85,75.61,12.77,6.36,25.86,12.01,39.12,17.31-7.27-31.14-1.6-66.78,21.42-90.19,8.56-9.32,24.13-14.71,34.37-4.64,13.88,10.78,10.91,29.95,9.8,45.27,7.5-14.84,17.25-36.75,37.56-33.57,19.65,3.62,23.77,25.84,24.7,42.58,5.37-12.81,10.91-28.13,25.15-33.35,12.24-4.55,25.19,4.06,30.16,15.15,14.33,31.05,6.34,68.15-12.68,95.49,13.97.49,27.94.53,41.91.09-18.14-25.57-27.28-59.8-16.72-90.1,3.81-12.68,16.99-24.16,30.82-20.18,9.98,3.49,17.43,12.1,21.6,21.6,12.2,27.96,10.6,62.19-7.54,87.32,15.12-1.33,30.2-3,45.19-5.48-24.79-24.38-39.16-62.01-26.43-95.8,3.37-10.56,14.41-17.89,25.59-15.37,14.9,2.65,21.55,17.62,29.23,28.8.62-15.24-.13-36.13,16.81-43.11,20.93-6.67,35.88,13.74,45.64,28.97-2.13-8.83-4.61-17.71-4.97-26.81-1.46-15.15,13.31-29.86,28.61-27.3,12.82,3.31,21.64,13.82,30.34,23.01-6.34-15.68-13.66-38.34,3.77-49.78,17.74-11,37.21,4.95,49.54,17.27-5.85-10.6-12.77-21.29-13.53-33.66-1.15-12.72,10.33-23.85,22.75-24.34,13.39-.88,24.79,7.46,35.84,13.82-7.72-9.94-17.74-20.18-17.21-33.7-1.11-15.59,15.74-27.43,30.38-23.72,34.59,6.32,60.94,36.31,69.54,69.39,9.27-12.1,18.05-24.51,26.39-37.23-32.69,3.4-64.18-14.22-84.04-39.04-8.2-9.94-9.71-26.68.8-35.51,10.73-11.22,27.28-6.89,40.85-5.43-7.89-7.69-17.61-15.02-20.67-26.06-3.15-12.23,5.19-24.78,16.72-28.75,11.13-4.73,23.2-1.41,34.46.8-9.62-5.61-20.27-10.95-26.26-20.71-6.79-10.42-5.99-26.63,5.46-33.48Zm3.99,16.39c-1.6,11.17,9.05,17.58,17.83,21.47,22,9.41,48.65,13.43,70.61,1.77-10.11-24.51-38.67-32.33-62.8-33.13-9.05.13-20.89.84-25.63,9.89Zm29.45,41.43c17.56,7.29,31.98,19.74,42.62,35.38,6.74-11.31,10.78-23.85,14.77-36.31-18.85,5.26-38.32,4.11-57.39.93Zm-47.06,27.91c19.91,20.76,51.49,31.71,79.74,23.45-8.07-29.95-43.06-46.73-72.47-43.5-10.02.04-14.46,13.56-7.27,20.05Zm13.44,29.06c19.69,10.78,38.94,24.95,46.83,46.86,7.72-12.1,13.88-25.13,19.16-38.43-22.44,5.48-45.19.35-65.99-8.44Zm-40.4,24.91c16.41,24.12,46.57,36.88,75.4,34.8-1.15-14.71-10.42-26.94-21.86-35.55-14.19-10.95-31.67-21.11-50.34-18.29-8.69,2.61-8.07,13.21-3.19,19.04Zm-36.86,49.69c14.86,23.81,41.51,43.81,70.78,42.31-5.72-29.9-31.09-56.36-60.98-62.54-12.02-2.43-15.7,12.23-9.8,20.23Zm-42.84,39.44c9.49,28.18,35.75,50.93,65.55,55.12-.4-31.71-23.06-60.91-53.22-70.36-8.6-3.62-16.23,7.95-12.33,15.24Zm56.68-3.31c11.4,15.46,20.93,32.64,22.8,52.16,11.04-9.36,20.62-20.18,29.49-31.54-19.65.4-37.34-8.79-52.29-20.63Zm-104.93,42.75c9.18,26.5,28.3,52.96,57.12,59.67,1.55-17.09-2.17-34.45-12.02-48.58-8.25-11.84-17.87-25.79-33.17-28.22-9.62-1.99-16.5,8.92-11.93,17.14Zm70.92,56.76c13.22-8.26,25.72-17.53,37.08-28.18-19.87-2.92-37.65-13.16-51.18-27.74,9.49,17.14,16.14,36,14.1,55.92Zm-534.78-40.68c-18.98,18.46-27.59,46.07-22.93,72.13,20.49-3.71,33.88-22.17,41.47-40.15,4.26-11.13,6.87-24.51,1.33-35.55-6.34-5.21-14.95-1.72-19.87,3.58Zm414.37,24.03c7.36,22.39,21.16,48.58,46.75,53.09,5.01-30.87-8.91-67.8-38.58-81.14-13.66.71-10.69,18.9-8.16,28.05Zm49.14-8.22c10.02,19.3,14.95,41.08,10.87,62.76,12.77-6.49,25.86-12.81,36.99-21.95-18.49-10.29-36.81-22.04-47.85-40.81Zm-406.78,9.58c-19.03,20.58-22.09,51.1-16.19,77.47,20.22-6.67,30.56-27.52,37.39-46.11,2.97-12.5,6.52-30.34-5.63-39.04-6.56-3-11.35,3.98-15.57,7.69Zm304.95-4.59c-4.39,3.84-5.23,10.11-6.21,15.59-1.2,28.36,15.39,54.72,37.65,71.33,11.89-20.94,5.59-47.22-4.61-67.58-5.32-9.58-13.93-23.06-26.83-19.35Zm-243.31,17.8c-19.6,21.16-21.51,55.7-8.65,80.69,6.83,3.58,11.27-3.58,14.99-8.13,12.46-17.58,18.58-40.46,14.72-61.7-1.37-9.45-12.73-21.77-21.07-10.87Zm179.04,6.36c-5.94,28.8,4.12,61.75,28.3,79.68,17.21-24.65,10.29-59.1-5.94-82.37-5.72-9.28-19.96-9.01-22.35,2.69Zm112.87,62.45c12.2-5.57,29.49-7.64,37.39-18.02-18.8-10.82-35.3-26.46-41.82-47.61,7.54,21.02,9.31,43.77,4.44,65.63Zm-227.52,25.93c18.23-16.65,21.42-42.53,22.66-65.77,1.15-11.88-10.11-25.71-22.57-24.29-21.38,24.12-20.36,65.32-.09,90.06Zm48.79-61.26c-.35,22.3,6.43,45.58,23.02,61.39,21.64-24.95,18.76-68.06-4.35-91.16-12.6,4.37-18.23,17.31-18.67,29.77Zm-177.67,40.46c13.17,5.79,27.05,9.76,41.25,12.41-5.41-17.45-9.36-35.51-6.96-53.8-7.89,16.39-19.82,30.39-34.28,41.38Zm294.4-40.77c1.24,18.95,1.6,38.73-7.98,55.92,14.5-2.56,28.83-6.18,42.31-12.15-15.43-11-28.21-25.66-34.33-43.77Zm-196.69,13.69c-4.61,17.18-13.84,32.6-26.17,45.36,13.75,3.53,27.76,6.01,42,6.63-9.45-15.86-12.95-34.01-15.83-51.99Z"/>
  <path class="cls-9" d="m225.44,120.04c4.08,3.89,8.2,7.82,12.33,11.79-2.26,17,5.01,32.73,12.68,47.35-39.56,33.48-73.09,73.67-100.14,117.71-6.61-3.53-13.31-6.93-20-10.16,26.39-43.06,59.78-81.4,97.08-115.41-6.79-16.39-9.67-34.63-1.95-51.28Z"/>
  <path class="cls-6" d="m21.43,389.46c12.2-45.27,33-87.58,55.13-128.7,18.27,7.91,35.88,17.23,53.75,25.97,6.7,3.22,13.39,6.63,20,10.16,19.74,10.91,39.56,21.6,59.96,31.31-6.03,12.41-12.42,24.65-18.49,37.06-29.4,58.79-40.09,124.95-41.73,190.1,3.02,32.42,6.74,65.06,14.33,96.82,13.04,39.53,31.49,77.2,53.58,112.49-19.51,13.12-38.9,26.54-59.21,38.43-6.25,3.8-12.37,7.73-18.49,11.75-16.28,10.69-33.09,20.36-49.85,30.17-30.16-47.39-55.22-98.32-69.41-152.82-28.74-98.32-27.36-204.41.44-302.72Z"/>
  <path class="cls-3" d="m1029.25,468.16c6.7-1.99,13.39-4.06,20-6.27,3.81,22.04,6.74,47.44,25.68,62.36,14.37,13.52,34.99,14.66,53.66,13.52-9.18,1.41-18.32,3.31-27.41,5.12-.8,5.3-1.6,10.69-2.17,16.08,1.73.93,5.14,2.78,6.87,3.71-19.38,1.94-35.88,14.8-46.04,30.78-8.16,13.21-10.24,28.8-13.75,43.59-6.43-.09-12.91-.13-19.29-.35,2.26-35.73,20.67-72.7,56.01-85.91-11.49-5.48-23.06-11.66-31.09-21.73-15.26-16.65-17.96-39.84-22.49-60.91Z"/>
  <path class="cls-7" d="m2071.75,512.55c12.73-.13,25.5-.8,38.23.53.04,1.33.09,3.98.09,5.26-10.11,1.37-20.4.88-30.51,1.06-.04,6.23-.04,12.54,0,18.86,9.67.09,19.38.31,29.05,1.15-5.28,10.73-19.74,4.15-29.05,6.18-.04,6.98-.04,13.96,0,21.02,10.11-.04,20.31,0,30.56.04v6.27h-38.23c-.09-20.14,0-40.28-.13-60.38Z"/>
  <path class="cls-12" d="m1430.67,517.01c5.99-3.14,14.24-3.09,20.31,0-1.77,5.92-18.36,5.79-20.31,0Z"/>
  <path class="cls-1" d="m2378.7,519.22c13.44-.09,26.88-.09,40.31-.04l.27,6.32c-13.57.04-27.1.04-40.58,0v-6.27Z"/>
  <path class="cls-13" d="m140.25,814.83c6.12-4.02,12.24-7.95,18.49-11.75,27.28,38.43,58.81,74.38,96.6,102.91.53,1.63,1.6,4.99,2.13,6.63-3.9,4.68-7.85,9.36-11.62,14.22-41.51-30.83-76.37-69.56-105.6-112.01Z"/>
  <path class="cls-8" d="m255.34,906c14.15-15.77,34.68-34.36,57.57-24.95,13.44,5.12,14.28,20.41,14.68,32.64-3.24,2.74-6.3,5.57-9.31,8.52-1.73-9.23-1.91-21.95-12.2-26.01-8.07-4.02-16.85.49-23.2,5.61-17.61,15.28-28.69,37.19-32.11,60.11-3.24.4-9.67,1.15-12.86,1.5.35-12.46-1.6-26.81,7.94-36.57,3.77-4.86,7.72-9.54,11.62-14.22-.53-1.63-1.6-4.99-2.13-6.63Z"/>
</svg>