<?xml version="1.0" encoding="UTF-8"?>
<svg id="_图层_1" data-name="图层 1" xmlns="http://www.w3.org/2000/svg" viewBox="0 0 2168.98 2337.86">
  <defs>
    <style>
      .cls-1 {
        fill: #fff;
      }

      .cls-1, .cls-2, .cls-3 {
        stroke: #000;
        stroke-miterlimit: 10;
      }

      .cls-1, .cls-3 {
        stroke-width: 20px;
      }

      .cls-2 {
        stroke-width: 10px;
      }

      .cls-2, .cls-3 {
        fill: none;
      }
    </style>
  </defs>
  <line class="cls-2" x1="399.05" y1="660.13" x2="398.61" y2="660.88"/>
  <line class="cls-2" x1="773.2" y1="529.86" x2="772.17" y2="530.45"/>
  <line class="cls-2" x1="1009.3" y1="281.19" x2="1011.69" y2="281.19"/>
  <line class="cls-2" x1="1387.98" y1="551.46" x2="1389.63" y2="552.58"/>
  <line class="cls-2" x1="1742.83" y1="720.61" x2="1743.75" y2="722.58"/>
  <line class="cls-2" x1="1683.22" y1="1481.62" x2="1682.11" y2="1483.26"/>
  <line class="cls-2" x1="1256.95" y1="1611.43" x2="1256.22" y2="1611.68"/>
  <line class="cls-2" x1="920.87" y1="1790.37" x2="916.51" y2="1803.57"/>
  <line class="cls-2" x1="625.77" y1="1448.66" x2="626.9" y2="1449.91"/>
  <line class="cls-2" x1="533.46" y1="785.73" x2="533.92" y2="784.78"/>
  <line class="cls-2" x1="1009.3" y1="281.19" x2="1009.76" y2="280.24"/>
  <g>
    <g>
      <path class="cls-1" d="m375.19,1036.07c8.13-16.96-12.25-42.21-44.99-76.18-16.36-16.96-35.81-36.05-56.36-57.06-20.54-20.99-42.2-43.91-62.95-68.22-20.76-24.3-40.65-50.01-57.85-76.29-17.23-26.27-31.69-53.1-41.77-79.27-10.08-26.15-15.89-51.67-15.75-74.87-.03-5.81.42-11.45,1.17-16.93.77-5.48,1.84-10.8,3.43-15.89,1.56-5.1,3.48-10,5.8-14.67,2.38-4.65,5.16-9.07,8.34-13.23,3.3-4.37,7.01-8.21,12.14-11.72,5.14-3.5,11.65-6.69,20.94-9.56,9.25-2.87,21.02-5.51,36.67-7.69,15.54-2.2,34.96-3.95,58.99-4.79,16.7-.52,32.42-.56,47.62-.03,7.56.25,14.92.6,22.09,1.04,7.21.47,14.25,1.05,21.08,1.69,6.84.65,13.48,1.36,19.95,2.16,6.52.82,12.85,1.71,19,2.65,6.15.94,12.13,1.93,17.94,2.96,5.81,1.03,11.53,2.17,17.04,3.3,11.05,2.29,21.4,4.67,31.24,7.18,9.87,2.53,19.13,5.1,27.84,7.67,4.36,1.29,8.57,2.56,12.67,3.85,4.12,1.3,8.1,2.59,11.96,3.87,7.72,2.55,14.93,5.04,21.68,7.42,6.73,2.36,13.08,4.68,19,6.85,5.89,2.14,11.39,4.14,16.51,6.01,5.11,1.84,9.81,3.46,14.21,4.91,4.41,1.47,8.46,2.72,12.2,3.73,7.49,2.03,13.62,3,18.86,2.93,5.24-.07,9.44-1.32,12.86-3.95,6.88-5.04,9.22-14.37,8.92-27.03-.09-3.18-.37-6.6-.81-10.23-.44-3.63-.96-7.38-1.66-11.39-1.37-7.98-3.36-16.86-5.6-26.29-2.23-9.42-4.83-19.55-7.65-30.27-2.79-10.74-5.7-21.97-8.7-33.54-1.48-5.86-2.99-11.81-4.51-17.82-1.46-5.99-2.92-12.08-4.36-18.25-1.43-6.17-2.85-12.42-4.22-18.74-1.38-6.32-2.71-12.7-3.92-19.04-2.46-12.73-4.7-25.63-6.57-38.55-1.84-12.87-3.25-25.64-4.22-38.33-1-12.73-1.4-25.09-1.24-37.17.08-6.04.3-12,.67-17.86.35-5.89.96-11.5,1.68-17.08.73-5.56,1.62-10.99,2.69-16.28,1.07-5.27,2.29-10.46,3.77-15.31,2.92-9.77,6.56-18.85,10.99-27.03,4.5-8.03,9.81-15.12,15.91-21.13,3.05-3,6.31-5.73,9.76-8.15,3.51-2.32,7.23-4.33,11.15-6.01,6.77-2.9,13.8-4.67,20.96-5.45,7.21-.67,14.6-.22,21.95.99,3.68.62,7.37,1.44,11.04,2.46,3.68,1.04,7.31,2.17,10.99,3.66,7.33,2.91,14.55,6.49,21.59,10.58,7.04,4.1,13.88,8.66,20.49,13.64,6.64,5.06,13.02,10.46,19.09,16.01,6.07,5.55,11.82,11.26,17.22,16.94,2.7,2.84,5.31,5.68,7.82,8.49,2.51,2.8,4.96,5.67,7.29,8.43,10.67,11.86,20.73,23.18,30.24,33.95,2.37,2.69,4.71,5.35,7.03,7.98,2.31,2.66,4.6,5.3,6.86,7.9,4.49,5.19,8.87,10.27,13.16,15.23,4.24,4.92,8.38,9.73,12.42,14.42,2.01,2.33,3.99,4.64,5.95,6.91,1.96,2.31,3.9,4.58,5.81,6.83,7.59,8.89,14.81,17.35,21.69,25.41,6.83,7.94,13.31,15.49,19.47,22.66,6.16,7.12,11.96,13.65,17.51,19.87,5.56,6.27,10.83,12.06,15.85,17.4,2.51,2.67,4.95,5.22,7.34,7.66,2.39,2.47,4.74,4.9,7.03,7.18,4.58,4.58,8.93,8.72,13.09,12.45,2.1,1.84,4.14,3.64,6.13,5.38,2.01,1.73,3.97,3.36,5.89,4.89,3.84,3.06,7.52,5.75,11.05,8.07,3.55,2.39,6.98,4.51,10.28,6.26,3.3,1.76,6.48,3.19,9.55,4.33,3.1,1.24,6.09,2.18,8.99,2.85,2.9.67,5.71,1.08,8.43,1.25,2.74.24,5.41.28,8,.09,3.58-.24,7.07-.93,10.51-1.89,3.45-.91,6.83-2.19,10.16-3.82,6.66-3.35,13.19-7.65,19.64-13.33,3.22-2.86,6.45-5.87,9.67-9.17,3.22-3.3,6.44-6.88,9.66-10.7,1.6-1.93,3.21-3.88,4.85-5.85,1.62-1.99,3.25-4.04,4.87-6.15,3.26-4.21,6.53-8.64,9.84-13.27,26.39-36.77,54.76-84.97,87.59-131.64,8.19-11.6,16.66-23.19,25.42-34.46,4.37-5.6,8.82-11.14,13.35-16.59,4.53-5.46,9.13-10.81,13.8-15.98,4.67-5.19,9.42-10.26,14.26-15.19,4.83-4.93,9.73-9.63,14.71-14.2,9.98-9.18,20.24-17.46,30.84-24.92,21.18-14.79,43.62-25.68,67.14-30.77,23.52-5.03,47.97-4.31,72.27,3.91,5.91,2.05,11.75,4.42,17.41,7.23,5.65,2.84,11.17,6.02,16.53,9.49,5.32,3.56,10.47,7.43,15.44,11.55,4.95,4.15,9.66,8.67,14.18,13.35,18.02,18.89,32.19,41.93,41.44,66.51,4.65,12.26,8.04,25.01,10.22,37.73,2.12,12.84,3.08,25.6,2.7,38.31-.68,25.31-6.47,49.86-16.8,71.71-11.2,23.69-27.86,44.78-46.72,63.09-18.88,18.27-40.04,33.94-60.96,46.4-20.99,12.52-41.78,21.93-60.78,27.24-19.03,5.3-36.28,6.44-50.95,1.96-14.89-4.57-26.39-14.83-36.29-29.81-2.49-3.7-4.86-7.72-7.15-12.04-2.29-4.32-4.53-8.78-6.69-13.61-2.16-4.81-4.25-9.9-6.36-15.15-2.08-5.29-4.15-10.77-6.21-16.47-8.21-22.8-16.24-48.82-24.84-76.48-8.6-27.68-17.81-56.81-28.21-86-2.61-7.25-5.29-14.51-8.05-21.75-1.38-3.62-2.78-7.25-4.2-10.85-1.43-3.58-2.88-7.15-4.35-10.71-2.94-7.12-5.97-14.2-9.09-21.2-3.13-6.96-6.36-13.8-9.69-20.57-13.31-27.09-28.35-52.05-45.27-73.39-4.24-5.29-8.59-10.32-13.06-15.12-4.47-4.77-9.04-9.42-13.75-13.57-4.71-4.19-9.53-8.11-14.46-11.72-2.47-1.79-4.95-3.56-7.48-5.16-2.53-1.6-5.08-3.12-7.66-4.56-5.16-2.87-10.42-5.41-15.78-7.59-5.37-2.12-10.84-3.79-16.4-5.11-11.11-2.72-22.61-3.45-34.35-2.47-5.46.41-10.81,1.42-16.01,2.71-5.2,1.3-10.25,2.95-15.16,4.92-9.82,4.06-19.04,9.58-27.64,16.09-8.6,6.63-16.58,14.53-23.96,23.2-1.84,2.19-3.65,4.37-5.41,6.71-1.77,2.33-3.49,4.71-5.19,7.14-3.38,4.86-6.62,9.9-9.71,15.12-3.09,5.23-6.04,10.57-8.85,16.16-2.8,5.62-5.47,11.39-8,17.27-2.53,5.88-4.94,11.88-7.22,17.98-2.28,6.09-4.45,12.26-6.48,18.65-8.14,25.42-14.48,51.78-19.54,78.4-2.54,13.27-4.82,26.33-6.85,39.32-2.02,13.04-3.85,25.82-5.59,38.14-1.71,12.29-3.38,24.24-4.97,35.7-1.61,11.43-3.24,22.24-5.02,32.25-.9,4.97-1.76,9.96-2.71,14.62-.94,4.69-1.93,9.16-2.99,13.39-2.11,8.49-4.55,15.89-7.26,22.59-2.74,6.61-5.91,12.13-9.68,16.41-.95,1.05-1.91,2.09-2.9,3.06-1,.97-2.03,1.85-3.12,2.66-2.16,1.61-4.5,2.9-7.04,3.85-2.52.96-5.16,1.48-7.85,1.76-2.68.33-5.45.32-8.34-.01-5.77-.65-12.01-2.66-18.63-5.57-6.57-2.8-13.6-6.66-21.07-11.36-3.73-2.35-7.58-4.92-11.53-7.67-1.96-1.38-3.95-2.78-5.98-4.2-2.01-1.43-4.04-2.9-6.11-4.41-8.24-6.05-16.91-12.75-25.95-19.89-8.98-7.05-18.31-14.51-27.98-22.25-4.86-3.88-9.78-7.8-14.74-11.77-4.99-3.91-10.02-7.86-15.09-11.84-10.2-7.94-20.66-15.94-31.34-23.83-10.61-7.77-21.41-15.42-32.36-22.75-5.47-3.66-10.99-7.27-16.51-10.74-5.49-3.43-11.01-6.77-16.55-9.97-11.05-6.4-22.22-12.38-33.26-17.54-11.02-5.13-22.01-9.59-32.87-13.19-5.45-1.83-10.78-3.32-16.09-4.63-5.31-1.3-10.57-2.36-15.78-3.16-10.45-1.67-20.47-2.08-30.18-1.39-4.83.37-9.64.96-14.22,1.98-4.59,1.02-9.06,2.35-13.4,4-2.17.83-4.31,1.74-6.41,2.73-2.11.98-4.17,2.07-6.15,3.28-3.99,2.39-7.83,5.13-11.49,8.21-1.86,1.57-3.63,3.19-5.33,4.88-1.68,1.7-3.24,3.49-4.75,5.31-3,3.66-5.68,7.54-8.06,11.6-2.41,4.04-4.37,8.39-6.09,12.87-1.71,4.49-3.13,9.14-4.27,13.95-2.23,9.65-3.22,20-3.31,30.71,0,10.78,1.07,22.07,2.91,33.6,1.91,11.58,4.76,23.53,8.21,35.6,3.5,12.1,7.81,24.46,12.54,36.8,2.35,6.16,4.94,12.42,7.58,18.64,2.66,6.23,5.41,12.45,8.25,18.66,2.82,6.19,5.8,12.43,8.84,18.64,3.03,6.2,6.12,12.38,9.25,18.52,12.57,24.59,25.93,48.68,38.59,71.61,3.15,5.73,6.27,11.4,9.35,17,3.06,5.59,6.04,11.1,8.92,16.51,5.79,10.85,11.26,21.39,16.06,31.45,9.79,20.3,17.14,38.85,20.75,55.83,1.71,8.42,2.62,16.55,2.14,24.13-.33,7.7-2.01,14.87-4.97,21.8-6.14,14.12-17.57,24.99-33.03,34.14-15.46,9.13-35.13,16.42-57.55,22.95-22.39,6.53-47.69,12.21-74.24,17.82-26.55,5.6-54.52,11.07-82.18,16.94-13.89,2.91-27.61,5.95-41.2,9.09-13.49,3.16-26.85,6.43-39.64,9.89-25.7,6.9-49.48,14.51-69.91,22.98-40.75,16.92-67.78,37.52-67.67,61.9,0,2.2.28,5.43,2.22,10.33,1.93,4.89,5.57,11.5,12.35,20.32,11.36,14.77,25.16,27.28,40.58,37.64,15.42,10.36,32.42,18.55,50.27,24.84,35.68,12.58,74.58,17.4,111,17.72,36.45.26,70.46-3.75,96.92-10.67,26.46-6.98,45.43-16.98,51.85-30.47Z"/>
      <path class="cls-3" d="m24.57,997.01c57.03,9.45,114.09,18.68,171.18,27.7"/>
      <line class="cls-3" x1="281.12" y1="1028.22" x2="376.72" y2="1040.09"/>
      <line class="cls-3" x1="28.81" y1="932.36" x2="304.67" y2="983.92"/>
      <path class="cls-3" d="m115.76,890.75c33.67,6.94,67.32,13.95,100.96,21.03"/>
      <path class="cls-3" d="m148.29,750.95c40.24,13.15,80.44,26.41,120.61,39.77"/>
      <line class="cls-3" x1="308.57" y1="806.51" x2="375.38" y2="830.41"/>
      <path class="cls-3" d="m101,646.8c93.84,39.16,187.59,78.57,281.24,118.25"/>
      <line class="cls-3" x1="411.09" y1="778.91" x2="464.95" y2="802.18"/>
      <path class="cls-3" d="m202.8,592.79c92.42,49.9,184.98,99.53,277.67,148.91"/>
      <path class="cls-3" d="m114.24,543.47c17.71,10.89,35.45,21.71,53.22,32.48"/>
      <path class="cls-3" d="m242.98,509.72c46.56,29.07,93.06,58.25,139.49,87.51"/>
      <path class="cls-3" d="m327.08,357.02c45.78,44.43,91.78,88.61,138.01,132.55"/>
      <line class="cls-3" x1="490.58" y1="510.1" x2="540.54" y2="555.82"/>
      <path class="cls-3" d="m358.8,272.55c69.06,79.8,138.82,158.87,209.39,237.33"/>
      <line class="cls-3" x1="591.09" y1="529.87" x2="615.31" y2="555.98"/>
      <path class="cls-3" d="m460.17,257.84c43.82,62.4,88.24,124.34,133.24,185.83"/>
      <path class="cls-3" d="m587.62,144.74c25.32,50.63,50.74,101.21,76.24,151.75"/>
      <line class="cls-3" x1="674.93" y1="316.47" x2="733.44" y2="430.32"/>
      <path class="cls-3" d="m657.96,113.43c30.98,79.35,62.43,158.5,94.34,237.45"/>
      <line class="cls-3" x1="770.72" y1="389.27" x2="798.67" y2="456.75"/>
      <path class="cls-3" d="m777.24,194.18c18.85,62.4,37.83,124.75,56.93,187.07"/>
      <line class="cls-3" x1="927.03" y1="75.51" x2="944.17" y2="220.28"/>
      <line class="cls-3" x1="952.12" y1="287.36" x2="966.02" y2="404.72"/>
      <path class="cls-3" d="m1009.95,10.41c4.72,113.09,9.21,226.2,13.47,339.31"/>
      <path class="cls-3" d="m1023.47,374.64c1.94,19.5,3.79,39.01,5.53,58.51"/>
      <path class="cls-3" d="m1117.11,57.72c-4.92,87.09-9.95,174.18-15.09,261.26"/>
      <line class="cls-3" x1="1100.02" y1="342.43" x2="1097.66" y2="380.15"/>
      <path class="cls-3" d="m1327.94,111.26c-19.04,55.63-37.39,111.58-55.05,167.63"/>
      <path class="cls-3" d="m1354.26,243.01c-24.62,63.93-48.48,128.09-71.62,192.61"/>
      <path class="cls-3" d="m1430.97,74.7c-17.35,40.59-34.34,81.27-51.03,122.16"/>
      <path class="cls-3" d="m1501.93,121.79c-21.35,40.89-42.36,82-62.99,123.28-20.63,41.28-40.88,82.72-60.74,124.31"/>
      <line class="cls-3" x1="1359.76" y1="409.75" x2="1329.3" y2="483.73"/>
      <path d="m1547.1,196.43c-17.45,30.96-34.81,62.01-52.05,93.11-27.47,49.55-54.65,99.25-81.54,149.09l-18.42,34.25c-3.63,6.81,5.32,11.33,9.05,4.64,17.22-31.09,34.56-62.12,52.01-93.1,27.8-49.35,55.88-98.54,84.24-147.59l19.52-33.66c3.91-6.68-9.03-13.48-12.8-6.74Z"/>
    </g>
    <g>
      <path class="cls-1" d="m1513.04,537.99c5.14,7.37,15.31,9.38,29.86,8.05,7.29-.65,15.62-2.19,25.19-4.1,2.43-.48,4.91-.97,7.46-1.46,1.29-.25,2.68-.43,4.03-.67,1.35-.24,2.8-.43,4.02-.79,5.09-1.31,10.44-2.75,16.01-4.3,11.15-3.1,23.25-6.62,36.16-10.33,12.71-3.48,26.24-7.16,40.44-10.82,3.57-.91,7.16-1.82,10.78-2.74,3.62-.9,7.34-1.85,10.97-2.67,7.31-1.69,14.76-3.34,22.34-4.95s15.29-3.16,23.1-4.64c3.9-.74,7.84-1.46,11.79-2.16,3.97-.71,7.83-1.29,11.78-1.91,15.74-2.41,31.79-4.44,47.96-5.94,2.02-.18,4.05-.36,6.06-.54,1.99-.14,3.99-.27,5.97-.41,3.99-.26,7.97-.48,11.96-.67,7.97-.37,15.95-.6,23.89-.67,3.97-.03,7.93-.03,11.88.02,3.94.05,7.92.11,11.75.31,7.71.36,15.36.89,22.91,1.6,7.55.71,15.01,1.61,22.35,2.69,3.65.55,7.34,1.11,10.86,1.8,3.53.68,7.02,1.41,10.48,2.2,13.81,3.13,27.01,7.03,39.24,11.78,11.98,4.9,23.05,10.62,32.92,17.16,2.47,1.64,4.86,3.32,7.18,5.06,2.28,1.76,4.42,3.6,6.51,5.47,4.16,3.76,7.99,7.72,11.45,11.88,3.46,4.16,6.55,8.53,9.23,13.09,1.37,2.27,2.5,4.65,3.58,7.05,1.06,2.41,2.02,4.87,2.87,7.38,1.78,5.26,2.99,10.48,3.12,16.71.07,3.11-.14,6.48-.68,10.23-.28,1.88-.6,3.83-1.1,5.93-.49,2.1-1.08,4.3-1.77,6.64-2.76,9.32-7.18,20.67-13.91,34.83-1.69,3.54-3.52,7.25-5.51,11.15-1.96,3.89-4.26,8.03-6.64,12.33-4.8,8.62-10.3,18.01-16.6,28.22-4.36,7.05-8.69,13.85-13.03,20.41-4.45,6.61-8.89,12.99-13.29,19.14-8.81,12.31-17.49,23.72-26.01,34.35-17.38,21.39-34.18,39.71-49.87,55.63-16,16.02-31.02,29.68-44.76,41.56-13.64,11.85-26.5,22.06-37.83,30.95-11.35,8.89-21.32,16.51-29.83,23.24-2.11,1.69-4.15,3.32-6.11,4.89-1.96,1.6-3.84,3.14-5.66,4.62-3.6,2.99-6.83,5.81-9.68,8.49-5.7,5.37-9.88,10.2-12.5,14.81-2.63,4.61-3.62,8.99-3.36,13.53.33,4.47,2.17,8.55,5.34,12.36,3.13,3.81,7.78,7.33,13.17,10.75,5.47,3.41,12.11,6.66,19.72,9.84,3.81,1.59,7.86,3.17,12.13,4.74,4.28,1.57,8.79,3.13,13.35,4.72,18.39,6.33,40.02,12.74,63.22,19.8,22.89,7.09,47.45,14.81,72.15,23.54,24.36,8.75,48.76,18.52,71.76,29.48,22.69,10.98,43.74,23.18,61.86,36.55,8.86,6.69,16.9,13.69,24.02,20.94,3.55,3.63,6.87,7.32,9.92,11.08,3.03,3.75,5.89,7.57,8.22,11.44,4.75,7.74,8.35,15.71,10.59,23.83,1.12,4.06,1.9,8.16,2.32,12.28.36,4.12.24,8.27-.21,12.44-.79,7.19-2.7,14.07-5.53,20.57-.71,1.63-1.47,3.23-2.29,4.81-.82,1.58-1.69,3.14-2.69,4.67-1.96,3.06-4.12,6.03-6.47,8.9-4.69,5.74-10.12,11.08-16.09,16.02-2.98,2.47-6.11,4.84-9.34,7.11-.81.56-1.63,1.12-2.45,1.68-.85.54-1.7,1.09-2.55,1.64-1.71,1.08-3.45,2.13-5.21,3.16-14.09,8.24-29.58,14.88-45.03,20.13-3.87,1.31-7.7,2.55-11.58,3.69-3.9,1.14-7.77,2.2-11.6,3.18-7.65,1.97-15.1,3.64-22.18,5.07-15.47,3.65-30.17,7.05-44.13,10.23-14.12,3.15-27.64,6.06-40.38,8.82-12.65,2.73-24.71,5.32-36.22,7.8-11.49,2.4-22.42,4.68-32.83,6.86-10.3,2.18-19.94,4.29-29.03,6.32-9.27,1.97-17.93,3.87-26.03,5.75-8.1,1.88-15.64,3.73-22.65,5.57-3.54.92-6.99,1.81-10.34,2.68-3.34.89-6.56,1.77-9.65,2.66-6.19,1.78-11.88,3.57-17.13,5.39-2.63.91-5.12,1.83-7.55,2.75-2.49.9-4.87,1.8-7.15,2.72-9.11,3.66-16.55,7.49-22.61,11.53-6.34,3.94-11.36,8.07-15.23,12.41-1.95,2.16-3.57,4.4-5.05,6.64-1.55,2.21-2.85,4.47-3.94,6.77-1.5,3.18-2.62,6.47-3.37,9.89-.38,1.71-.67,3.45-.87,5.23-.18,1.79-.45,3.52-.55,5.34-.47,7.22.37,14.97,2.28,23.28.24,1.04.49,2.08.76,3.14.26,1.04.51,2.09.77,3.15.54,2.11,1.13,4.26,1.79,6.43,1.32,4.36,2.87,8.85,4.64,13.48s3.74,9.39,5.89,14.28c1.08,2.43,2.17,4.89,3.28,7.38,1.11,2.48,2.25,4.99,3.44,7.52,4.75,10.16,10.12,20.82,15.91,31.93,5.8,11.1,11.79,22.57,17.92,34.31,6.19,11.8,12.62,24.01,19.01,36.5,6.23,12.37,12.47,25.05,18.52,37.97,24.34,51.73,44.33,106.39,48.77,158.26.96,12.8.99,25.43-.09,37.76-.27,3.08-.61,6.15-1.02,9.19-.4,3.05-.88,6.08-1.51,9-1.21,5.89-2.72,11.69-4.54,17.37-3.66,11.34-8.44,22.4-15.02,32.32-3.25,5.02-6.84,9.88-10.79,14.56-1.97,2.34-4.04,4.63-6.19,6.88-1.07,1.14-2.19,2.22-3.35,3.27-1.15,1.06-2.33,2.11-3.52,3.15-4.68,4.04-9.63,7.82-14.81,11.32-2.59,1.75-5.24,3.43-7.93,5.04-1.35.8-2.71,1.59-4.08,2.36-1.37.77-2.81,1.46-4.22,2.16-11.39,5.57-23.49,10.01-35.96,13.24-12.67,2.95-25.68,4.73-38.7,5.32-6.47.36-13.15.11-19.7-.28-6.57-.42-13.1-1.14-19.55-2.14-6.47-1.02-12.8-2.24-19.13-3.88-6.34-1.68-12.57-3.63-18.66-5.84-12.18-4.43-23.77-9.9-34.58-16.34-10.85-6.51-20.99-14.13-30.09-22.46-9.12-8.36-17.26-17.53-24.28-27.39-15.21-21.35-25.48-46.18-32.19-71.58-3.36-12.72-5.78-25.52-7.49-38.26-1.76-12.84-2.74-25.52-2.99-37.72-.13-6.1-.07-12.09.17-17.92.14-2.89.25-5.85.42-8.74.17-2.89.39-5.75.66-8.55.53-5.61,1.24-11.04,2.14-16.25.45-2.6.95-5.15,1.49-7.65.27-1.25.56-2.48.86-3.69.29-1.24.58-2.47.87-3.69,2.39-9.76,5.57-18.53,9.64-26.09,1.04-1.86,2.01-3.81,3.11-5.6,1.08-1.81,2.22-3.54,3.42-5.19,2.4-3.3,5.04-6.27,7.93-8.9.74-.67,1.49-1.31,2.25-1.93.77-.61,1.54-1.21,2.3-1.83,1.53-1.21,3.12-2.32,4.76-3.35,3.29-2.05,6.8-3.74,10.55-5.11,7.58-2.63,15.66-4.43,24.73-5.06,4.53-.33,9.28-.39,14.24-.23,2.5.11,4.94.15,7.48.29,2.53.13,5.11.32,7.74.56,5.26.47,10.73,1.14,16.39,1.97,2.83.42,5.71.88,8.63,1.37,2.91.5,5.86,1.01,8.84,1.53,11.85,2.08,24.43,4.71,37.63,7.67,13.21,3,26.87,6.1,40.84,9.28,28.38,6.66,57.9,13.1,88.54,18.8l5.74,1.05,5.68.96c3.81.61,7.61,1.23,11.41,1.84,7.62,1.19,15.27,2.29,22.94,3.29,7.66,1,15.34,1.9,23,2.67,3.86.41,7.61.7,11.38.98,3.77.28,7.53.52,11.29.73,15.02.84,29.91,1.11,44.48.66,14.38-.59,28.37-1.96,41.89-4.14,3.38-.55,6.72-1.15,10.03-1.8,3.3-.66,6.62-1.34,9.76-2.17,6.34-1.62,12.53-3.47,18.54-5.55,6.01-2.08,11.83-4.41,17.45-6.98,2.81-1.29,5.56-2.63,8.26-4.04,2.64-1.45,5.21-2.98,7.72-4.57,10.06-6.35,19.16-13.73,27.06-22.2,7.63-8.65,14-18.41,18.94-29.25,1.14-2.53,2.23-5.05,3.12-7.64.88-2.6,1.66-5.21,2.35-7.84,1.38-5.25,2.37-10.53,3.02-15.84.64-5.31.93-10.64.88-15.98-.09-5.36-.69-10.82-1.5-16.22-1.67-10.83-4.6-21.62-8.59-32.29-4.15-10.75-9.54-21.45-15.7-31.92-3.09-5.24-6.4-10.43-9.9-15.56-1.75-2.57-3.55-5.12-5.4-7.66-1.88-2.55-3.85-5.11-5.83-7.64-7.97-10.13-16.6-20.03-25.7-29.65-18-19.19-38.77-37.56-59.45-54.66-20.55-17.06-42.13-33.16-62.07-48.03-9.93-7.41-19.58-14.61-28.85-21.53-9.29-6.94-18.03-13.61-26.01-20.04-3.99-3.21-7.79-6.37-11.37-9.46-1.79-1.55-3.53-3.08-5.21-4.6-1.73-1.53-3.42-3.06-5.03-4.56-6.48-6.04-12-11.87-16.34-17.55-2.17-2.84-4.06-5.65-5.62-8.43-1.59-2.78-3.03-5.58-4.03-8.34-2.05-5.53-2.74-10.99-1.85-16.49.5-2.73,1.15-5.4,2.19-7.98,1.04-2.58,2.43-5.08,4.15-7.51,1.72-2.43,3.77-4.8,6.13-7.12,1.18-1.16,2.44-2.31,3.77-3.44,1.34-1.14,2.74-2.26,4.13-3.39,5.67-4.5,12.49-8.85,20.26-13.15,3.88-2.15,8.01-4.29,12.35-6.42,4.33-2.13,8.94-4.26,13.53-6.4,18.57-8.56,40.22-17.21,63.4-26.38,22.84-9.18,47.18-18.87,71.54-29.4,12.25-5.27,24.16-10.73,35.98-16.44,11.8-5.71,23.41-11.65,34.62-17.86,5.61-3.11,11.11-6.28,16.5-9.52,5.41-3.24,10.49-6.54,15.54-9.91,10.04-6.74,19.5-13.77,28.16-21.09,17.52-14.66,31.04-30.38,40.12-47.21,2.24-4.2,4.25-8.48,5.83-12.8,1.52-4.31,2.73-8.68,3.58-13.1,1.71-8.84,2.05-17.89.82-27.08-1.49-9.27-4.54-17.94-8.85-26.01-2.16-4.03-4.65-7.91-7.43-11.64-2.86-3.71-6.1-7.25-9.56-10.66-6.95-6.8-14.99-13.01-23.93-18.66-4.42-2.84-9.25-5.48-14.25-8-5-2.52-10.19-4.91-15.56-7.17-10.75-4.52-22.14-8.54-34.12-12.09-12.14-3.51-24.78-6.57-37.74-9.27-6.48-1.35-13.04-2.61-19.65-3.78-6.61-1.18-13.26-2.28-20.1-3.26-13.61-1.98-27.35-3.68-41.04-5.2-27.2-3.11-55.07-5.12-81.04-7.35-6.49-.56-12.92-1.12-19.27-1.67-6.4-.54-12.68-1.09-18.82-1.68-12.28-1.19-24.01-2.52-35.02-4.14-11.17-1.54-21.75-3.3-31.4-5.53-4.83-1.11-9.45-2.33-13.83-3.68-4.43-1.33-8.76-2.71-12.77-4.28-4.03-1.56-7.81-3.28-11.32-5.17-1.76-.95-3.45-1.94-5.07-2.97-1.64-1.03-3.14-2.14-4.73-3.22-6.21-4.37-11.32-9.55-15.22-15.75-1.93-3.22-3.78-6.42-5.17-9.86-1.41-3.43-2.48-7.03-3.22-10.81-.37-1.89-.67-3.82-.89-5.8-.11-.99-.2-1.99-.27-3-.08-1-.19-1.99-.25-3-.28-4.03-.27-8.23,0-12.61,1.29-17.67,5.72-37.38,12.77-59.63.87-2.75,1.74-5.53,2.62-8.34.89-2.8,1.82-5.63,2.77-8.5,1.91-5.73,3.94-11.6,6.08-17.58,2.13-5.98,4.36-12.09,6.67-18.29,2.26-6.16,4.54-12.39,6.85-18.69,4.74-12.77,9.56-25.76,14.42-38.84,2.49-6.65,4.81-13.19,7.17-19.82,2.34-6.66,4.68-13.33,7.01-19.98,2.31-6.69,4.6-13.4,6.83-20.11,1.11-3.37,2.21-6.73,3.32-10.07,1.1-3.36,2.18-6.72,3.18-10.01,4.06-13.23,7.87-26.4,11.27-39.35,1.7-6.47,3.31-12.89,4.79-19.22.74-3.17,1.46-6.32,2.14-9.44.65-3.09,1.26-6.15,1.84-9.18,2.32-12.15,4.12-23.89,5.3-35.06.59-5.58,1.01-11.02,1.27-16.28.13-2.63.2-5.24.27-7.76.21-2.36.41-4.65.53-6.93.03-2.35.02-4.64-.04-6.89-.07-2.26-.26-4.51-.46-6.68-.39-4.34-1.11-8.53-1.96-12.45-3.56-15.72-10.66-27.53-21.75-33.71-2.01-1.11-5.08-2.52-10.45-3.31-5.39-.74-13.08-.92-24.27.68-9.35,1.3-18.49,3.54-27.3,6.44-8.85,2.96-17.37,6.59-25.63,10.9-8.26,4.31-16.19,9.22-23.82,14.65-7.64,5.45-14.96,11.4-21.95,17.76-27.96,25.42-50.82,57.32-68.44,89.17-8.81,15.94-16.32,31.89-22.48,47.19-6.16,15.3-10.91,29.86-14.19,43.17-6.47,26.58-6.99,47.78,1.14,59.48Z"/>
      <path class="cls-3" d="m1715.72,249.24c-35.66,45.5-71.11,91.15-106.35,136.95"/>
      <path class="cls-3" d="m1565.31,459.39c-18.73,26.08-37.52,52.11-56.37,78.11"/>
      <line class="cls-3" x1="1772.28" y1="285.97" x2="1591.54" y2="500.66"/>
      <path class="cls-3" d="m1766.25,382.89c-22.83,25.69-45.7,51.29-68.71,76.88"/>
      <path class="cls-3" d="m1871.7,486.25c-32.58,27.02-65.24,53.93-98,80.72"/>
      <line class="cls-3" x1="1739.15" y1="592.08" x2="1683.25" y2="635.79"/>
      <path class="cls-3" d="m1986.09,504.36c-83.99,57.31-168.16,114.36-252.51,171.13"/>
      <line class="cls-3" x1="1706.21" y1="692.15" x2="1657.32" y2="724.59"/>
      <path class="cls-3" d="m1975.97,620.27c-92.65,49.45-185.15,99.17-277.51,149.16"/>
      <path class="cls-3" d="m2066.01,573.75c-18.86,8.72-37.68,17.51-56.47,26.36"/>
      <path class="cls-3" d="m2022.93,699.8c-49.97,22.7-99.98,45.31-150.04,67.81"/>
      <path class="cls-3" d="m2104.04,851.35c-62.05,14.66-124.1,29.62-186.04,44.84"/>
      <line class="cls-3" x1="1886.98" y1="906.6" x2="1821.55" y2="924.03"/>
      <path class="cls-3" d="m2158.11,920.95c-104.22,16.67-208.33,34.18-312.25,52.49"/>
      <line class="cls-3" x1="1816.87" y1="982.41" x2="1781.9" y2="989.18"/>
      <path class="cls-3" d="m2117.37,1012.61c-75.98,5.54-151.89,11.69-227.86,18.48"/>
      <path class="cls-3" d="m2150.89,1175.86c-56.54-2.92-113.08-5.75-169.62-8.49"/>
      <line class="cls-3" x1="1958.43" y1="1167.14" x2="1830.54" y2="1161.91"/>
      <path class="cls-3" d="m2143.9,1251.23c-84.39-11.48-168.83-22.51-253.31-33.08"/>
      <line class="cls-3" x1="1848.07" y1="1215.58" x2="1775.52" y2="1207.16"/>
      <path class="cls-3" d="m2015.56,1315.87c-63.79-13.44-127.59-26.76-191.43-39.96"/>
      <line class="cls-3" x1="2048.02" y1="1504.39" x2="1912.83" y2="1449.84"/>
      <line class="cls-3" x1="1850.19" y1="1424.56" x2="1740.59" y2="1380.33"/>
      <path class="cls-3" d="m2064.63,1609.1c-101.22-50.68-202.32-101.58-303.31-152.71"/>
      <path class="cls-3" d="m1739.49,1444.37c-18-7.77-35.95-15.64-53.85-23.6"/>
      <path class="cls-3" d="m1970.47,1680.66c-73.45-47.04-146.84-94.19-220.16-141.43"/>
      <line class="cls-3" x1="1730.85" y1="1525.98" x2="1699.15" y2="1505.4"/>
      <path class="cls-3" d="m1817.88,1838.24c-38.55-44.45-77.62-88.38-117.18-131.78"/>
      <path class="cls-3" d="m1690.88,1794.85c-21.51-26.64-43.16-53.16-64.95-79.55-21.78-26.39-43.78-52.74-65.87-78.91"/>
      <path class="cls-3" d="m1798.4,1945.28c-26.55-35.29-53.36-70.35-80.43-105.19"/>
      <path class="cls-3" d="m1723,1982.87c-50.04-77.62-101.32-154.32-153.82-230.08"/>
      <line class="cls-3" x1="1543.27" y1="1716.76" x2="1494.14" y2="1653.63"/>
      <path d="m1636.23,1984.99c-18.4-30.43-36.9-60.79-55.5-91.09-29.64-48.27-59.52-96.37-89.66-144.3l-20.74-32.89c-4.15-6.52-12.65-.95-8.62,5.65,18.61,30.29,37.12,60.65,55.53,91.07,29.33,48.47,58.4,97.1,87.22,145.9l19.75,33.54c3.9,6.68,16.05-1.28,12.03-7.88Z"/>
    </g>
    <g>
      <path class="cls-1" d="m1354.37,1788.73c-4.57.44-8.58,2.69-12.18,6.54-1.8,1.93-3.51,4.26-5.13,6.97-.41.68-.8,1.38-1.2,2.1-.41.7-.81,1.42-1.2,2.17-.79,1.49-1.57,3.07-2.33,4.74-6.1,13.3-11.15,32.62-16.79,55.04-1.39,5.66-2.8,11.57-4.24,17.72-.72,3.08-1.45,6.21-2.19,9.38-.37,1.59-.74,3.2-1.12,4.81-.38,1.59-.77,3.19-1.16,4.79-3.12,12.87-6.45,26.54-10.08,40.79-3.6,14.38-7.67,28.75-12.08,43.66-2.21,7.44-4.53,14.96-6.95,22.54-1.21,3.77-2.44,7.62-3.72,11.37-1.28,3.74-2.6,7.48-3.94,11.23-5.37,15.01-11.2,30.11-17.53,45.05-6.38,14.72-13.3,29.12-20.7,43.2-1.85,3.51-3.73,7-5.64,10.46-.96,1.72-1.92,3.46-2.89,5.15-.99,1.67-1.98,3.33-2.96,4.99-3.98,6.62-8.08,13.11-12.3,19.42-8.44,12.6-17.31,24.73-26.71,35.27-9.37,10.66-19.13,20.48-29.2,28.94-10.12,8.21-20.54,15.22-31.12,20.79-2.65,1.39-5.3,2.69-7.96,3.9-2.64,1.17-5.27,2.22-7.92,3.18-5.3,1.9-10.66,3.42-16.01,4.44-10.72,2.1-21.44,2.32-31.96.57-5.52-.92-10.71-2.41-16.29-5.27-5.56-2.95-11.51-7.27-18.41-14.12-3.45-3.43-7.14-7.46-11.13-12.21-3.98-4.78-8.25-10.33-12.86-16.71-9.2-12.8-19.76-29.14-31.63-50.07-4.1-7.23-7.97-14.41-11.64-21.41-3.67-6.99-7.14-13.94-10.42-20.76-3.28-6.82-6.38-13.46-9.3-20.07-2.92-6.61-5.67-13.08-8.27-19.42-10.38-25.41-18.29-48.96-24.56-70.58-3.15-10.75-5.85-21.19-8.24-31.03-2.39-9.86-4.47-19.2-6.28-28.18-3.62-17.89-6.3-33.78-8.46-48.06-4.35-28.36-6.82-49.8-10.51-64.78-3.58-15.22-8.32-23.91-16.3-27.68-1.98-.91-4.06-1.44-6.24-1.62-2.18-.19-4.43-.12-6.8.32-2.37.43-4.85,1.18-7.44,2.23-2.59,1.05-5.3,2.42-8.07,3.95-5.57,3.12-11.58,7.32-18.05,12.4-6.45,5.05-13.28,10.82-20.57,17.35-3.64,3.25-7.4,6.69-11.25,10.23-3.83,3.55-7.77,7.19-11.8,10.92-8.12,7.6-16.62,15.56-25.37,23.76-8.79,8.16-17.95,16.59-27.43,25.1-4.75,4.28-9.53,8.48-14.39,12.69-4.86,4.21-9.79,8.41-14.78,12.59-4.99,4.18-10.05,8.32-15.17,12.42-5.11,4.09-10.22,8.03-15.41,11.95-10.35,7.8-20.91,15.35-31.52,22.34-10.56,6.9-21.21,13.32-31.86,19.09-2.66,1.44-5.32,2.84-7.98,4.2-2.66,1.36-5.28,2.61-7.92,3.85-5.26,2.47-10.51,4.75-15.73,6.83-5.22,2.08-10.4,3.96-15.54,5.61-5.15,1.67-10.15,2.96-15.15,4.09-4.98,1.11-9.9,1.98-14.73,2.59-2.42.3-4.82.54-7.19.72-1.19.09-2.37.16-3.54.21-1.16.04-2.31.06-3.45.06-9.14.02-17.87-1.07-26.03-3.41-2.04-.59-4.05-1.23-6-1.99-1.94-.78-3.84-1.64-5.69-2.59-3.71-1.89-7.26-4.1-10.62-6.64-2.9-2.2-5.59-4.59-8.07-7.16-2.48-2.57-4.67-5.43-6.7-8.38-4.05-5.92-7.3-12.44-9.83-19.38-1.29-3.44-2.28-7.13-3.16-10.83-.87-3.72-1.56-7.51-2.1-11.37-1.06-7.74-1.56-15.65-1.41-23.79.34-16.34,2.76-32.98,6.41-48.93,3.74-16.07,8.62-31.35,13.57-44.86,1.24-3.75,2.46-7.46,3.68-11.13,1.24-3.68,2.48-7.33,3.69-10.93,2.44-7.16,4.83-14.16,7.17-21.01,2.34-6.79,4.62-13.42,6.86-19.9,2.28-6.48,4.5-12.81,6.68-19,8.63-24.37,16.46-46.46,23.57-66.54,1.74-4.96,3.44-9.79,5.09-14.5,1.63-4.7,3.22-9.28,4.77-13.74,3.05-8.89,5.8-17.21,8.44-25.2,2.61-7.95,4.94-15.41,7.01-22.43,2.12-7.06,4.03-13.74,5.64-19.97.81-3.12,1.55-6.14,2.23-9.06.69-2.94,1.37-5.82,1.95-8.58,1.18-5.54,2.09-10.71,2.76-15.55.71-4.88,1.23-9.47,1.49-13.74.27-4.28.25-8.22.16-12.01-.23-7.54-1.45-13.94-3.13-19.71-.87-2.86-1.93-5.5-3.15-7.96-1.19-2.47-2.49-4.81-3.96-6.95-4.11-5.89-9.12-10.88-15.33-14.97-3.07-2.06-6.34-3.96-9.92-5.65-1.78-.85-3.63-1.65-5.55-2.4-1.91-.76-3.83-1.51-5.85-2.19-4.02-1.38-8.28-2.61-12.79-3.69-4.46-1.11-9.12-2.1-14.02-2.97-9.85-1.71-20.3-3.09-31.62-4.13-22.44-2.16-47.69-3.25-74.33-4.54-26.72-1.25-54.84-2.69-83.24-5.33-28.41-2.64-56.92-6.55-84.29-12.76-27.35-6.2-53.49-14.8-76.75-26.6-2.91-1.47-5.79-2.99-8.61-4.55-2.8-1.57-5.55-3.18-8.27-4.85-5.4-3.33-10.72-6.86-15.64-10.59-4.96-3.73-9.72-7.66-14.24-11.81-4.46-4.14-8.65-8.5-12.6-13.07-15.66-18.27-26.81-40.01-31.1-65.19-2.27-12.27-2.49-24.97-1.58-37.65.53-6.35,1.54-12.71,2.79-19.02,1.29-6.32,2.79-12.58,4.87-18.79,2.02-6.2,4.34-12.32,6.94-18.32,1.32-3,2.62-5.97,4.15-8.91,1.5-2.94,3.07-5.84,4.7-8.71,3.26-5.73,6.77-11.31,10.52-16.69,3.68-5.38,7.89-10.59,12.16-15.58,4.3-4.99,8.8-9.75,13.48-14.28,2.34-2.26,4.72-4.46,7.14-6.6,2.48-2.14,5-4.21,7.56-6.22,10.23-8.04,21.05-15.01,32.26-20.79,2.81-1.44,5.62-2.81,8.49-4.11,2.89-1.29,5.8-2.51,8.73-3.65,5.85-2.28,11.77-4.25,17.73-5.9,11.92-3.3,24.02-5.33,36.1-6.06,26.16-1.55,52.66,2.93,77.76,10.68,6.27,1.94,12.46,4.09,18.53,6.41,6.07,2.32,12,4.81,17.94,7.45,11.8,5.27,23.04,11.1,33.5,17.28,2.61,1.54,5.18,3.11,7.69,4.7,2.53,1.59,5.07,3.19,7.53,4.82,4.92,3.25,9.62,6.57,14.06,9.94,2.22,1.69,4.38,3.38,6.47,5.09,2.08,1.71,4.1,3.43,6.14,5.17,4.03,3.47,7.78,6.97,11.21,10.52,13.67,14.19,23.2,28.83,26.13,43.99,3.29,15.35-.46,30.54-8.7,46.43-4.28,7.99-9.5,16.07-15.96,24.5-3.19,4.2-6.55,8.43-10.21,12.77-1.82,2.17-3.71,4.36-5.65,6.57-1.9,2.19-3.86,4.4-5.88,6.64-16.18,17.93-35.26,37.03-55.33,57.65-20.06,20.65-41.07,42.86-61.25,66.27-20.17,23.39-39.57,47.96-56.32,73.05-16.74,25.08-30.93,50.73-40.82,76.12-9.81,25.34-15.4,50.48-15,74.18.06,5.94.61,11.73,1.45,17.46.43,2.86.94,5.7,1.55,8.51.63,2.8,1.39,5.55,2.23,8.29,1.69,5.46,3.73,10.81,6.24,15.98,2.56,5.15,5.52,10.14,8.9,14.97,3.11,4.52,6.67,8.62,10.37,12.47,3.74,3.83,7.63,7.41,11.87,10.61,4.23,3.2,8.67,6.12,13.29,8.75,2.31,1.32,4.66,2.56,7.06,3.74,2.43,1.16,4.91,2.24,7.42,3.26,10.08,4.06,20.67,7.12,32.02,9.02,11.31,1.93,22.94,2.98,35.16,3,6.08.03,12.24-.14,18.45-.51,6.21-.36,12.46-.9,18.86-1.69,12.74-1.54,25.63-3.76,38.55-6.51,26.07-5.69,52.09-13.37,77.68-22.23,6.37-2.19,12.69-4.44,18.95-6.71,3.12-1.14,6.23-2.29,9.33-3.42,3.11-1.18,6.2-2.35,9.29-3.52,12.31-4.71,24.3-9.44,35.86-14.03,11.55-4.6,22.78-9.07,33.56-13.37,10.73-4.22,20.88-8.03,30.62-11.56,9.7-3.48,18.8-6.43,27.21-8.68,8.48-2.32,16.36-4.02,23.46-4.76,1.78-.19,3.51-.32,5.19-.38,1.68-.06,3.32-.07,4.95-.07,3.24.04,6.29.34,9.15.91,5.72,1.15,10.6,3.51,14.93,6.93,2.13,1.74,3.97,3.74,5.57,6.01,1.61,2.24,2.9,4.84,4.1,7.49,2.35,5.38,3.8,11.76,4.54,19.05.19,1.82.32,3.71.43,5.62.13,1.89.21,3.84.25,5.85.09,4.01.02,8.22-.18,12.64s-.54,9.03-.98,13.83c-.22,2.4-.48,4.84-.76,7.33-.29,2.46-.58,4.96-.88,7.49-2.51,20.24-6.56,43.35-10.59,67.61-2.04,12.17-4.18,24.81-6.19,37.6-1.98,12.74-3.88,25.74-5.59,38.86-.85,6.56-1.66,13.15-2.39,19.75-.71,6.54-1.34,13.09-1.9,19.63-1.11,13.08-1.89,26.13-2.22,38.99-.28,12.76-.09,25.28.66,37.47.38,6.09.89,12.11,1.57,17.98.7,5.83,1.56,11.55,2.58,17.13,1.03,5.59,2.22,11.04,3.59,16.35.69,2.65,1.42,5.26,2.2,7.84.79,2.55,1.63,5.03,2.52,7.49,3.55,9.79,7.85,18.94,13.02,27.09,5.2,8.05,11.24,15.24,18.18,21.3,6.99,5.9,14.84,10.78,23.64,14.22,4.48,1.7,9.01,3,13.59,3.91,4.58.91,9.18,1.48,13.85,1.54,4.66.09,9.35-.17,14.05-.78,2.35-.3,4.7-.68,7.06-1.16,2.36-.51,4.73-1.09,7.09-1.76,9.47-2.68,18.92-6.48,28.36-11.66,9.43-5.12,18.78-11.21,28.05-18.43,9.27-7.17,18.4-15.12,27.42-23.98,9.01-8.8,17.85-18.22,26.55-28.31,4.34-5.02,8.64-10.15,12.9-15.37,4.25-5.2,8.47-10.63,12.64-16.04,4.17-5.43,8.29-10.93,12.35-16.46,4.07-5.55,8.11-11.21,12.08-16.84,3.98-5.65,7.91-11.29,11.79-16.95,3.85-5.69,7.7-11.37,11.52-17.03,7.58-11.24,15-22.55,22.23-33.44,3.62-5.45,7.2-10.84,10.74-16.16,3.54-5.31,7.04-10.46,10.51-15.55,6.94-10.2,13.73-19.8,20.42-28.84,13.4-17.98,26.37-33.22,39.47-44.25,6.55-5.54,13.14-9.96,19.88-13.2,6.75-3.19,13.61-5.22,20.9-5.78,3.78-.25,7.38-.31,11.01.09,3.63.39,7.24,1.18,10.87,2.32,1.81.57,3.62,1.24,5.44,1.99,1.82.74,3.64,1.63,5.46,2.42,3.64,1.67,7.31,3.67,11,5.99,3.69,2.31,7.42,4.94,11.19,7.84,1.88,1.45,3.78,2.99,5.68,4.55,1.9,1.51,3.81,3.08,5.73,4.72,7.68,6.55,15.56,14.11,23.66,22.46,4.06,4.25,8.13,8.35,12.28,12.77,4.14,4.4,8.35,8.96,12.6,13.67,8.51,9.4,17.28,19.52,26.17,29.48,8.98,10.23,18.13,20.63,27.33,31.11,2.33,2.65,4.67,5.31,7.01,7.97l7.03,7.84c4.74,5.23,9.48,10.46,14.21,15.67,9.54,10.44,19.19,20.82,28.9,30.95,9.65,9.94,19.34,19.56,29.01,28.77,4.83,4.6,9.66,9.09,14.47,13.44,2.4,2.18,4.8,4.32,7.2,6.42,2.39,2.11,4.79,4.18,7.14,6.14,9.45,7.91,18.77,15.18,27.88,21.62,9.09,6.42,18.01,12.11,26.51,16.62,8.47,4.43,16.61,7.85,24.3,10.08,7.69,2.24,14.93,3.29,21.58,2.99,6.59-.43,12.58-2.28,17.87-5.61,1.91-1.21,4.58-3.19,7.8-7.47,1.61-2.14,3.36-4.86,5.21-8.34.92-1.74,1.88-3.66,2.84-5.82.95-2.19,1.91-4.6,2.89-7.25,6.54-17.73,9.77-36.07,10.28-54.52.42-18.63-1.89-37.43-6.19-55.82-8.62-36.8-25.26-72.23-44.51-103.19-19.29-30.94-41.1-57.48-61.13-75.92-4.99-4.56-9.97-8.79-14.77-12.41-4.81-3.62-9.47-6.66-13.93-9.06-4.47-2.4-8.74-4.15-12.8-5.18-2.03-.51-4-.85-5.91-.99-1.93-.19-3.82-.23-5.63-.05Z"/>
      <path class="cls-3" d="m1508.95,2105.86c-22.55-53.25-45.32-106.39-68.31-159.44"/>
      <path class="cls-3" d="m1397.96,1872.53c-13.75-28.99-27.46-58.07-41.1-87.14"/>
      <line class="cls-3" x1="1450.37" y1="2137.24" x2="1348.66" y2="1875.68"/>
      <path class="cls-3" d="m1367.97,2085.56c-11.51-32.41-22.94-64.84-34.27-97.31"/>
      <path class="cls-3" d="m1227.62,2128.66c-8.31-41.5-16.48-83.02-24.51-124.57"/>
      <line class="cls-3" x1="1197.41" y1="1961.76" x2="1185.48" y2="1891.81"/>
      <path class="cls-3" d="m1157.1,2220.73c-10.44-101.14-20.54-202.32-30.31-303.52"/>
      <line class="cls-3" x1="1125.17" y1="1885.2" x2="1119.91" y2="1826.77"/>
      <path class="cls-3" d="m1059.49,2156.6c1.02-105.03,1.73-210.05,2.11-315.08"/>
      <path class="cls-3" d="m1057.13,2257.94c1.4-20.74,2.72-41.49,3.97-62.23"/>
      <path class="cls-3" d="m966.81,2159.55c4.19-54.73,8.48-109.43,12.9-164.15"/>
      <path class="cls-3" d="m793.69,2156.54c17.63-61.29,34.96-122.66,51.99-184.11"/>
      <line class="cls-3" x1="851.8" y1="1940.25" x2="868.64" y2="1874.66"/>
      <path class="cls-3" d="m705.23,2168.94c37.29-98.75,73.7-197.8,109.22-297.14"/>
      <line class="cls-3" x1="821.09" y1="1842.16" x2="832.55" y2="1808.44"/>
      <path class="cls-3" d="m644.74,2087.26c33.61-68.41,66.55-137.07,98.89-206.09"/>
      <path class="cls-3" d="m484.91,2030.95c31.91-46.76,63.75-93.57,95.51-140.43"/>
      <line class="cls-3" x1="592.5" y1="1871.14" x2="663.52" y2="1764.64"/>
      <path class="cls-3" d="m423.85,1985.4c53.94-65.95,107.5-132.19,160.69-198.72"/>
      <line class="cls-3" x1="608.93" y1="1751.81" x2="654.04" y2="1694.35"/>
      <path class="cls-3" d="m435.81,1842.12c44.89-47.28,89.68-94.64,134.38-142.09"/>
      <line class="cls-3" x1="258.68" y1="1771.93" x2="375.34" y2="1684.5"/>
      <line class="cls-3" x1="429.4" y1="1643.99" x2="523.97" y2="1573.12"/>
      <path class="cls-3" d="m160.82,1733.07c95.41-60.9,190.95-121.61,286.6-182.12"/>
      <path class="cls-3" d="m468.95,1538.39c15.88-11.48,31.82-22.87,47.8-34.18"/>
      <path class="cls-3" d="m147.8,1616.45c77.83-39.39,155.72-78.68,233.65-117.87"/>
      <line class="cls-3" x1="402.75" y1="1488.55" x2="436.57" y2="1471.68"/>
      <path class="cls-3" d="m89.31,1403.63c58.02-9.97,115.79-20.73,173.43-32.31"/>
      <path class="cls-3" d="m192.29,1317.22c67.97-8.95,135.8-18.68,203.47-29.17"/>
      <path class="cls-3" d="m7.84,1330.37c43.96-4.19,87.87-8.74,131.72-13.65"/>
      <path class="cls-3" d="m15.23,1245.84c92.34-1.81,184.54-5.22,276.57-10.23"/>
      <line class="cls-3" x1="336.06" y1="1232.44" x2="415.58" y2="1223.69"/>
      <path d="m59.03,1170.49c35.54.42,71.09.72,106.63.89,56.59.27,113.3.23,169.94-.14l38.9-.3c3.88-.04,5.64-2.58,5.6-5.1-.03-2.52-1.99-5.05-5.85-5.07-35.54-.16-71.08-.45-106.63-.87-56.63-.66-113.26-1.64-169.9-2.94l-38.89-.94c-7.73-.22-7.52,14.4.2,14.47Z"/>
    </g>
  </g>
</svg>